<?xml version="1.0" encoding="utf-8" standalone="no"?>
<!DOCTYPE svg PUBLIC "-//W3C//DTD SVG 1.1//EN"
  "http://www.w3.org/Graphics/SVG/1.1/DTD/svg11.dtd">
<!-- Created with matplotlib (https://matplotlib.org/) -->
<svg height="640pt" version="1.1" viewBox="0 0 640 640" width="640pt" xmlns="http://www.w3.org/2000/svg" xmlns:xlink="http://www.w3.org/1999/xlink">
 <defs>
  <style type="text/css">
*{stroke-linecap:butt;stroke-linejoin:round;}
  </style>
 </defs>
 <g id="figure_1">
  <g id="patch_1">
   <path d="M 0 640 
L 640 640 
L 640 0 
L 0 0 
z
" style="fill:#ffffff;"/>
  </g>
  <g id="axes_1">
   <g id="patch_2">
    <path d="M 55.975 612.24375 
L 620.742708 612.24375 
L 620.742708 14.3 
L 55.975 14.3 
z
" style="fill:#ffffff;"/>
   </g>
   <g id="matplotlib.axis_1">
    <g id="xtick_1">
     <g id="line2d_1">
      <path clip-path="url(#pc6cadd9602)" d="M 103.038976 612.24375 
L 103.038976 14.3 
" style="fill:none;stroke:#b0b0b0;stroke-linecap:square;stroke-width:0.8;"/>
     </g>
     <g id="line2d_2">
      <defs>
       <path d="M 0 0 
L 0 3.5 
" id="m59830ebfe2" style="stroke:#000000;stroke-width:0.8;"/>
      </defs>
      <g>
       <use style="stroke:#000000;stroke-width:0.8;" x="103.038976" xlink:href="#m59830ebfe2" y="612.24375"/>
      </g>
     </g>
     <g id="text_1">
      <!-- headbreadth -->
      <defs>
       <path d="M 54.890625 33.015625 
L 54.890625 0 
L 45.90625 0 
L 45.90625 32.71875 
Q 45.90625 40.484375 42.875 44.328125 
Q 39.84375 48.1875 33.796875 48.1875 
Q 26.515625 48.1875 22.3125 43.546875 
Q 18.109375 38.921875 18.109375 30.90625 
L 18.109375 0 
L 9.078125 0 
L 9.078125 75.984375 
L 18.109375 75.984375 
L 18.109375 46.1875 
Q 21.34375 51.125 25.703125 53.5625 
Q 30.078125 56 35.796875 56 
Q 45.21875 56 50.046875 50.171875 
Q 54.890625 44.34375 54.890625 33.015625 
z
" id="DejaVuSans-104"/>
       <path d="M 56.203125 29.59375 
L 56.203125 25.203125 
L 14.890625 25.203125 
Q 15.484375 15.921875 20.484375 11.0625 
Q 25.484375 6.203125 34.421875 6.203125 
Q 39.59375 6.203125 44.453125 7.46875 
Q 49.3125 8.734375 54.109375 11.28125 
L 54.109375 2.78125 
Q 49.265625 0.734375 44.1875 -0.34375 
Q 39.109375 -1.421875 33.890625 -1.421875 
Q 20.796875 -1.421875 13.15625 6.1875 
Q 5.515625 13.8125 5.515625 26.8125 
Q 5.515625 40.234375 12.765625 48.109375 
Q 20.015625 56 32.328125 56 
Q 43.359375 56 49.78125 48.890625 
Q 56.203125 41.796875 56.203125 29.59375 
z
M 47.21875 32.234375 
Q 47.125 39.59375 43.09375 43.984375 
Q 39.0625 48.390625 32.421875 48.390625 
Q 24.90625 48.390625 20.390625 44.140625 
Q 15.875 39.890625 15.1875 32.171875 
z
" id="DejaVuSans-101"/>
       <path d="M 34.28125 27.484375 
Q 23.390625 27.484375 19.1875 25 
Q 14.984375 22.515625 14.984375 16.5 
Q 14.984375 11.71875 18.140625 8.90625 
Q 21.296875 6.109375 26.703125 6.109375 
Q 34.1875 6.109375 38.703125 11.40625 
Q 43.21875 16.703125 43.21875 25.484375 
L 43.21875 27.484375 
z
M 52.203125 31.203125 
L 52.203125 0 
L 43.21875 0 
L 43.21875 8.296875 
Q 40.140625 3.328125 35.546875 0.953125 
Q 30.953125 -1.421875 24.3125 -1.421875 
Q 15.921875 -1.421875 10.953125 3.296875 
Q 6 8.015625 6 15.921875 
Q 6 25.140625 12.171875 29.828125 
Q 18.359375 34.515625 30.609375 34.515625 
L 43.21875 34.515625 
L 43.21875 35.40625 
Q 43.21875 41.609375 39.140625 45 
Q 35.0625 48.390625 27.6875 48.390625 
Q 23 48.390625 18.546875 47.265625 
Q 14.109375 46.140625 10.015625 43.890625 
L 10.015625 52.203125 
Q 14.9375 54.109375 19.578125 55.046875 
Q 24.21875 56 28.609375 56 
Q 40.484375 56 46.34375 49.84375 
Q 52.203125 43.703125 52.203125 31.203125 
z
" id="DejaVuSans-97"/>
       <path d="M 45.40625 46.390625 
L 45.40625 75.984375 
L 54.390625 75.984375 
L 54.390625 0 
L 45.40625 0 
L 45.40625 8.203125 
Q 42.578125 3.328125 38.25 0.953125 
Q 33.9375 -1.421875 27.875 -1.421875 
Q 17.96875 -1.421875 11.734375 6.484375 
Q 5.515625 14.40625 5.515625 27.296875 
Q 5.515625 40.1875 11.734375 48.09375 
Q 17.96875 56 27.875 56 
Q 33.9375 56 38.25 53.625 
Q 42.578125 51.265625 45.40625 46.390625 
z
M 14.796875 27.296875 
Q 14.796875 17.390625 18.875 11.75 
Q 22.953125 6.109375 30.078125 6.109375 
Q 37.203125 6.109375 41.296875 11.75 
Q 45.40625 17.390625 45.40625 27.296875 
Q 45.40625 37.203125 41.296875 42.84375 
Q 37.203125 48.484375 30.078125 48.484375 
Q 22.953125 48.484375 18.875 42.84375 
Q 14.796875 37.203125 14.796875 27.296875 
z
" id="DejaVuSans-100"/>
       <path d="M 48.6875 27.296875 
Q 48.6875 37.203125 44.609375 42.84375 
Q 40.53125 48.484375 33.40625 48.484375 
Q 26.265625 48.484375 22.1875 42.84375 
Q 18.109375 37.203125 18.109375 27.296875 
Q 18.109375 17.390625 22.1875 11.75 
Q 26.265625 6.109375 33.40625 6.109375 
Q 40.53125 6.109375 44.609375 11.75 
Q 48.6875 17.390625 48.6875 27.296875 
z
M 18.109375 46.390625 
Q 20.953125 51.265625 25.265625 53.625 
Q 29.59375 56 35.59375 56 
Q 45.5625 56 51.78125 48.09375 
Q 58.015625 40.1875 58.015625 27.296875 
Q 58.015625 14.40625 51.78125 6.484375 
Q 45.5625 -1.421875 35.59375 -1.421875 
Q 29.59375 -1.421875 25.265625 0.953125 
Q 20.953125 3.328125 18.109375 8.203125 
L 18.109375 0 
L 9.078125 0 
L 9.078125 75.984375 
L 18.109375 75.984375 
z
" id="DejaVuSans-98"/>
       <path d="M 41.109375 46.296875 
Q 39.59375 47.171875 37.8125 47.578125 
Q 36.03125 48 33.890625 48 
Q 26.265625 48 22.1875 43.046875 
Q 18.109375 38.09375 18.109375 28.8125 
L 18.109375 0 
L 9.078125 0 
L 9.078125 54.6875 
L 18.109375 54.6875 
L 18.109375 46.1875 
Q 20.953125 51.171875 25.484375 53.578125 
Q 30.03125 56 36.53125 56 
Q 37.453125 56 38.578125 55.875 
Q 39.703125 55.765625 41.0625 55.515625 
z
" id="DejaVuSans-114"/>
       <path d="M 18.3125 70.21875 
L 18.3125 54.6875 
L 36.8125 54.6875 
L 36.8125 47.703125 
L 18.3125 47.703125 
L 18.3125 18.015625 
Q 18.3125 11.328125 20.140625 9.421875 
Q 21.96875 7.515625 27.59375 7.515625 
L 36.8125 7.515625 
L 36.8125 0 
L 27.59375 0 
Q 17.1875 0 13.234375 3.875 
Q 9.28125 7.765625 9.28125 18.015625 
L 9.28125 47.703125 
L 2.6875 47.703125 
L 2.6875 54.6875 
L 9.28125 54.6875 
L 9.28125 70.21875 
z
" id="DejaVuSans-116"/>
      </defs>
      <g transform="translate(70.883507 626.842188)scale(0.1 -0.1)">
       <use xlink:href="#DejaVuSans-104"/>
       <use x="63.378906" xlink:href="#DejaVuSans-101"/>
       <use x="124.902344" xlink:href="#DejaVuSans-97"/>
       <use x="186.181641" xlink:href="#DejaVuSans-100"/>
       <use x="249.658203" xlink:href="#DejaVuSans-98"/>
       <use x="313.134766" xlink:href="#DejaVuSans-114"/>
       <use x="354.216797" xlink:href="#DejaVuSans-101"/>
       <use x="415.740234" xlink:href="#DejaVuSans-97"/>
       <use x="477.019531" xlink:href="#DejaVuSans-100"/>
       <use x="540.496094" xlink:href="#DejaVuSans-116"/>
       <use x="579.705078" xlink:href="#DejaVuSans-104"/>
      </g>
     </g>
    </g>
    <g id="xtick_2">
     <g id="line2d_3">
      <path clip-path="url(#pc6cadd9602)" d="M 197.166927 612.24375 
L 197.166927 14.3 
" style="fill:none;stroke:#b0b0b0;stroke-linecap:square;stroke-width:0.8;"/>
     </g>
     <g id="line2d_4">
      <g>
       <use style="stroke:#000000;stroke-width:0.8;" x="197.166927" xlink:href="#m59830ebfe2" y="612.24375"/>
      </g>
     </g>
     <g id="text_2">
      <!-- headcircumference -->
      <defs>
       <path d="M 48.78125 52.59375 
L 48.78125 44.1875 
Q 44.96875 46.296875 41.140625 47.34375 
Q 37.3125 48.390625 33.40625 48.390625 
Q 24.65625 48.390625 19.8125 42.84375 
Q 14.984375 37.3125 14.984375 27.296875 
Q 14.984375 17.28125 19.8125 11.734375 
Q 24.65625 6.203125 33.40625 6.203125 
Q 37.3125 6.203125 41.140625 7.25 
Q 44.96875 8.296875 48.78125 10.40625 
L 48.78125 2.09375 
Q 45.015625 0.34375 40.984375 -0.53125 
Q 36.96875 -1.421875 32.421875 -1.421875 
Q 20.0625 -1.421875 12.78125 6.34375 
Q 5.515625 14.109375 5.515625 27.296875 
Q 5.515625 40.671875 12.859375 48.328125 
Q 20.21875 56 33.015625 56 
Q 37.15625 56 41.109375 55.140625 
Q 45.0625 54.296875 48.78125 52.59375 
z
" id="DejaVuSans-99"/>
       <path d="M 9.421875 54.6875 
L 18.40625 54.6875 
L 18.40625 0 
L 9.421875 0 
z
M 9.421875 75.984375 
L 18.40625 75.984375 
L 18.40625 64.59375 
L 9.421875 64.59375 
z
" id="DejaVuSans-105"/>
       <path d="M 8.5 21.578125 
L 8.5 54.6875 
L 17.484375 54.6875 
L 17.484375 21.921875 
Q 17.484375 14.15625 20.5 10.265625 
Q 23.53125 6.390625 29.59375 6.390625 
Q 36.859375 6.390625 41.078125 11.03125 
Q 45.3125 15.671875 45.3125 23.6875 
L 45.3125 54.6875 
L 54.296875 54.6875 
L 54.296875 0 
L 45.3125 0 
L 45.3125 8.40625 
Q 42.046875 3.421875 37.71875 1 
Q 33.40625 -1.421875 27.6875 -1.421875 
Q 18.265625 -1.421875 13.375 4.4375 
Q 8.5 10.296875 8.5 21.578125 
z
M 31.109375 56 
z
" id="DejaVuSans-117"/>
       <path d="M 52 44.1875 
Q 55.375 50.25 60.0625 53.125 
Q 64.75 56 71.09375 56 
Q 79.640625 56 84.28125 50.015625 
Q 88.921875 44.046875 88.921875 33.015625 
L 88.921875 0 
L 79.890625 0 
L 79.890625 32.71875 
Q 79.890625 40.578125 77.09375 44.375 
Q 74.3125 48.1875 68.609375 48.1875 
Q 61.625 48.1875 57.5625 43.546875 
Q 53.515625 38.921875 53.515625 30.90625 
L 53.515625 0 
L 44.484375 0 
L 44.484375 32.71875 
Q 44.484375 40.625 41.703125 44.40625 
Q 38.921875 48.1875 33.109375 48.1875 
Q 26.21875 48.1875 22.15625 43.53125 
Q 18.109375 38.875 18.109375 30.90625 
L 18.109375 0 
L 9.078125 0 
L 9.078125 54.6875 
L 18.109375 54.6875 
L 18.109375 46.1875 
Q 21.1875 51.21875 25.484375 53.609375 
Q 29.78125 56 35.6875 56 
Q 41.65625 56 45.828125 52.96875 
Q 50 49.953125 52 44.1875 
z
" id="DejaVuSans-109"/>
       <path d="M 37.109375 75.984375 
L 37.109375 68.5 
L 28.515625 68.5 
Q 23.6875 68.5 21.796875 66.546875 
Q 19.921875 64.59375 19.921875 59.515625 
L 19.921875 54.6875 
L 34.71875 54.6875 
L 34.71875 47.703125 
L 19.921875 47.703125 
L 19.921875 0 
L 10.890625 0 
L 10.890625 47.703125 
L 2.296875 47.703125 
L 2.296875 54.6875 
L 10.890625 54.6875 
L 10.890625 58.5 
Q 10.890625 67.625 15.140625 71.796875 
Q 19.390625 75.984375 28.609375 75.984375 
z
" id="DejaVuSans-102"/>
       <path d="M 54.890625 33.015625 
L 54.890625 0 
L 45.90625 0 
L 45.90625 32.71875 
Q 45.90625 40.484375 42.875 44.328125 
Q 39.84375 48.1875 33.796875 48.1875 
Q 26.515625 48.1875 22.3125 43.546875 
Q 18.109375 38.921875 18.109375 30.90625 
L 18.109375 0 
L 9.078125 0 
L 9.078125 54.6875 
L 18.109375 54.6875 
L 18.109375 46.1875 
Q 21.34375 51.125 25.703125 53.5625 
Q 30.078125 56 35.796875 56 
Q 45.21875 56 50.046875 50.171875 
Q 54.890625 44.34375 54.890625 33.015625 
z
" id="DejaVuSans-110"/>
      </defs>
      <g transform="translate(148.741146 626.842188)scale(0.1 -0.1)">
       <use xlink:href="#DejaVuSans-104"/>
       <use x="63.378906" xlink:href="#DejaVuSans-101"/>
       <use x="124.902344" xlink:href="#DejaVuSans-97"/>
       <use x="186.181641" xlink:href="#DejaVuSans-100"/>
       <use x="249.658203" xlink:href="#DejaVuSans-99"/>
       <use x="304.638672" xlink:href="#DejaVuSans-105"/>
       <use x="332.421875" xlink:href="#DejaVuSans-114"/>
       <use x="373.503906" xlink:href="#DejaVuSans-99"/>
       <use x="428.484375" xlink:href="#DejaVuSans-117"/>
       <use x="491.863281" xlink:href="#DejaVuSans-109"/>
       <use x="589.275391" xlink:href="#DejaVuSans-102"/>
       <use x="624.480469" xlink:href="#DejaVuSans-101"/>
       <use x="686.003906" xlink:href="#DejaVuSans-114"/>
       <use x="727.085938" xlink:href="#DejaVuSans-101"/>
       <use x="788.609375" xlink:href="#DejaVuSans-110"/>
       <use x="851.988281" xlink:href="#DejaVuSans-99"/>
       <use x="906.96875" xlink:href="#DejaVuSans-101"/>
      </g>
     </g>
    </g>
    <g id="xtick_3">
     <g id="line2d_5">
      <path clip-path="url(#pc6cadd9602)" d="M 291.294878 612.24375 
L 291.294878 14.3 
" style="fill:none;stroke:#b0b0b0;stroke-linecap:square;stroke-width:0.8;"/>
     </g>
     <g id="line2d_6">
      <g>
       <use style="stroke:#000000;stroke-width:0.8;" x="291.294878" xlink:href="#m59830ebfe2" y="612.24375"/>
      </g>
     </g>
     <g id="text_3">
      <!-- headlength -->
      <defs>
       <path d="M 9.421875 75.984375 
L 18.40625 75.984375 
L 18.40625 0 
L 9.421875 0 
z
" id="DejaVuSans-108"/>
       <path d="M 45.40625 27.984375 
Q 45.40625 37.75 41.375 43.109375 
Q 37.359375 48.484375 30.078125 48.484375 
Q 22.859375 48.484375 18.828125 43.109375 
Q 14.796875 37.75 14.796875 27.984375 
Q 14.796875 18.265625 18.828125 12.890625 
Q 22.859375 7.515625 30.078125 7.515625 
Q 37.359375 7.515625 41.375 12.890625 
Q 45.40625 18.265625 45.40625 27.984375 
z
M 54.390625 6.78125 
Q 54.390625 -7.171875 48.1875 -13.984375 
Q 42 -20.796875 29.203125 -20.796875 
Q 24.46875 -20.796875 20.265625 -20.09375 
Q 16.0625 -19.390625 12.109375 -17.921875 
L 12.109375 -9.1875 
Q 16.0625 -11.328125 19.921875 -12.34375 
Q 23.78125 -13.375 27.78125 -13.375 
Q 36.625 -13.375 41.015625 -8.765625 
Q 45.40625 -4.15625 45.40625 5.171875 
L 45.40625 9.625 
Q 42.625 4.78125 38.28125 2.390625 
Q 33.9375 0 27.875 0 
Q 17.828125 0 11.671875 7.65625 
Q 5.515625 15.328125 5.515625 27.984375 
Q 5.515625 40.671875 11.671875 48.328125 
Q 17.828125 56 27.875 56 
Q 33.9375 56 38.28125 53.609375 
Q 42.625 51.21875 45.40625 46.390625 
L 45.40625 54.6875 
L 54.390625 54.6875 
z
" id="DejaVuSans-103"/>
      </defs>
      <g transform="translate(262.873785 626.842188)scale(0.1 -0.1)">
       <use xlink:href="#DejaVuSans-104"/>
       <use x="63.378906" xlink:href="#DejaVuSans-101"/>
       <use x="124.902344" xlink:href="#DejaVuSans-97"/>
       <use x="186.181641" xlink:href="#DejaVuSans-100"/>
       <use x="249.658203" xlink:href="#DejaVuSans-108"/>
       <use x="277.441406" xlink:href="#DejaVuSans-101"/>
       <use x="338.964844" xlink:href="#DejaVuSans-110"/>
       <use x="402.34375" xlink:href="#DejaVuSans-103"/>
       <use x="465.820312" xlink:href="#DejaVuSans-116"/>
       <use x="505.029297" xlink:href="#DejaVuSans-104"/>
      </g>
     </g>
    </g>
    <g id="xtick_4">
     <g id="line2d_7">
      <path clip-path="url(#pc6cadd9602)" d="M 385.42283 612.24375 
L 385.42283 14.3 
" style="fill:none;stroke:#b0b0b0;stroke-linecap:square;stroke-width:0.8;"/>
     </g>
     <g id="line2d_8">
      <g>
       <use style="stroke:#000000;stroke-width:0.8;" x="385.42283" xlink:href="#m59830ebfe2" y="612.24375"/>
      </g>
     </g>
     <g id="text_4">
      <!-- tragiontopofhead -->
      <defs>
       <path d="M 30.609375 48.390625 
Q 23.390625 48.390625 19.1875 42.75 
Q 14.984375 37.109375 14.984375 27.296875 
Q 14.984375 17.484375 19.15625 11.84375 
Q 23.34375 6.203125 30.609375 6.203125 
Q 37.796875 6.203125 41.984375 11.859375 
Q 46.1875 17.53125 46.1875 27.296875 
Q 46.1875 37.015625 41.984375 42.703125 
Q 37.796875 48.390625 30.609375 48.390625 
z
M 30.609375 56 
Q 42.328125 56 49.015625 48.375 
Q 55.71875 40.765625 55.71875 27.296875 
Q 55.71875 13.875 49.015625 6.21875 
Q 42.328125 -1.421875 30.609375 -1.421875 
Q 18.84375 -1.421875 12.171875 6.21875 
Q 5.515625 13.875 5.515625 27.296875 
Q 5.515625 40.765625 12.171875 48.375 
Q 18.84375 56 30.609375 56 
z
" id="DejaVuSans-111"/>
       <path d="M 18.109375 8.203125 
L 18.109375 -20.796875 
L 9.078125 -20.796875 
L 9.078125 54.6875 
L 18.109375 54.6875 
L 18.109375 46.390625 
Q 20.953125 51.265625 25.265625 53.625 
Q 29.59375 56 35.59375 56 
Q 45.5625 56 51.78125 48.09375 
Q 58.015625 40.1875 58.015625 27.296875 
Q 58.015625 14.40625 51.78125 6.484375 
Q 45.5625 -1.421875 35.59375 -1.421875 
Q 29.59375 -1.421875 25.265625 0.953125 
Q 20.953125 3.328125 18.109375 8.203125 
z
M 48.6875 27.296875 
Q 48.6875 37.203125 44.609375 42.84375 
Q 40.53125 48.484375 33.40625 48.484375 
Q 26.265625 48.484375 22.1875 42.84375 
Q 18.109375 37.203125 18.109375 27.296875 
Q 18.109375 17.390625 22.1875 11.75 
Q 26.265625 6.109375 33.40625 6.109375 
Q 40.53125 6.109375 44.609375 11.75 
Q 48.6875 17.390625 48.6875 27.296875 
z
" id="DejaVuSans-112"/>
      </defs>
      <g transform="translate(342.054861 626.842188)scale(0.1 -0.1)">
       <use xlink:href="#DejaVuSans-116"/>
       <use x="39.208984" xlink:href="#DejaVuSans-114"/>
       <use x="80.322266" xlink:href="#DejaVuSans-97"/>
       <use x="141.601562" xlink:href="#DejaVuSans-103"/>
       <use x="205.078125" xlink:href="#DejaVuSans-105"/>
       <use x="232.861328" xlink:href="#DejaVuSans-111"/>
       <use x="294.042969" xlink:href="#DejaVuSans-110"/>
       <use x="357.421875" xlink:href="#DejaVuSans-116"/>
       <use x="396.630859" xlink:href="#DejaVuSans-111"/>
       <use x="457.8125" xlink:href="#DejaVuSans-112"/>
       <use x="521.289062" xlink:href="#DejaVuSans-111"/>
       <use x="582.470703" xlink:href="#DejaVuSans-102"/>
       <use x="617.675781" xlink:href="#DejaVuSans-104"/>
       <use x="681.054688" xlink:href="#DejaVuSans-101"/>
       <use x="742.578125" xlink:href="#DejaVuSans-97"/>
       <use x="803.857422" xlink:href="#DejaVuSans-100"/>
      </g>
     </g>
    </g>
    <g id="xtick_5">
     <g id="line2d_9">
      <path clip-path="url(#pc6cadd9602)" d="M 479.550781 612.24375 
L 479.550781 14.3 
" style="fill:none;stroke:#b0b0b0;stroke-linecap:square;stroke-width:0.8;"/>
     </g>
     <g id="line2d_10">
      <g>
       <use style="stroke:#000000;stroke-width:0.8;" x="479.550781" xlink:href="#m59830ebfe2" y="612.24375"/>
      </g>
     </g>
     <g id="text_5">
      <!-- n_hairs -->
      <defs>
       <path d="M 50.984375 -16.609375 
L 50.984375 -23.578125 
L -0.984375 -23.578125 
L -0.984375 -16.609375 
z
" id="DejaVuSans-95"/>
       <path d="M 44.28125 53.078125 
L 44.28125 44.578125 
Q 40.484375 46.53125 36.375 47.5 
Q 32.28125 48.484375 27.875 48.484375 
Q 21.1875 48.484375 17.84375 46.4375 
Q 14.5 44.390625 14.5 40.28125 
Q 14.5 37.15625 16.890625 35.375 
Q 19.28125 33.59375 26.515625 31.984375 
L 29.59375 31.296875 
Q 39.15625 29.25 43.1875 25.515625 
Q 47.21875 21.78125 47.21875 15.09375 
Q 47.21875 7.46875 41.1875 3.015625 
Q 35.15625 -1.421875 24.609375 -1.421875 
Q 20.21875 -1.421875 15.453125 -0.5625 
Q 10.6875 0.296875 5.421875 2 
L 5.421875 11.28125 
Q 10.40625 8.6875 15.234375 7.390625 
Q 20.0625 6.109375 24.8125 6.109375 
Q 31.15625 6.109375 34.5625 8.28125 
Q 37.984375 10.453125 37.984375 14.40625 
Q 37.984375 18.0625 35.515625 20.015625 
Q 33.0625 21.96875 24.703125 23.78125 
L 21.578125 24.515625 
Q 13.234375 26.265625 9.515625 29.90625 
Q 5.8125 33.546875 5.8125 39.890625 
Q 5.8125 47.609375 11.28125 51.796875 
Q 16.75 56 26.8125 56 
Q 31.78125 56 36.171875 55.265625 
Q 40.578125 54.546875 44.28125 53.078125 
z
" id="DejaVuSans-115"/>
      </defs>
      <g transform="translate(461.6 626.842188)scale(0.1 -0.1)">
       <use xlink:href="#DejaVuSans-110"/>
       <use x="63.378906" xlink:href="#DejaVuSans-95"/>
       <use x="113.378906" xlink:href="#DejaVuSans-104"/>
       <use x="176.757812" xlink:href="#DejaVuSans-97"/>
       <use x="238.037109" xlink:href="#DejaVuSans-105"/>
       <use x="265.820312" xlink:href="#DejaVuSans-114"/>
       <use x="306.933594" xlink:href="#DejaVuSans-115"/>
      </g>
     </g>
    </g>
    <g id="xtick_6">
     <g id="line2d_11">
      <path clip-path="url(#pc6cadd9602)" d="M 573.678733 612.24375 
L 573.678733 14.3 
" style="fill:none;stroke:#b0b0b0;stroke-linecap:square;stroke-width:0.8;"/>
     </g>
     <g id="line2d_12">
      <g>
       <use style="stroke:#000000;stroke-width:0.8;" x="573.678733" xlink:href="#m59830ebfe2" y="612.24375"/>
      </g>
     </g>
     <g id="text_6">
      <!-- measurement_error -->
      <g transform="translate(523.888108 626.564062)scale(0.1 -0.1)">
       <use xlink:href="#DejaVuSans-109"/>
       <use x="97.412109" xlink:href="#DejaVuSans-101"/>
       <use x="158.935547" xlink:href="#DejaVuSans-97"/>
       <use x="220.214844" xlink:href="#DejaVuSans-115"/>
       <use x="272.314453" xlink:href="#DejaVuSans-117"/>
       <use x="335.693359" xlink:href="#DejaVuSans-114"/>
       <use x="376.775391" xlink:href="#DejaVuSans-101"/>
       <use x="438.298828" xlink:href="#DejaVuSans-109"/>
       <use x="535.710938" xlink:href="#DejaVuSans-101"/>
       <use x="597.234375" xlink:href="#DejaVuSans-110"/>
       <use x="660.613281" xlink:href="#DejaVuSans-116"/>
       <use x="699.822266" xlink:href="#DejaVuSans-95"/>
       <use x="749.822266" xlink:href="#DejaVuSans-101"/>
       <use x="811.345703" xlink:href="#DejaVuSans-114"/>
       <use x="852.443359" xlink:href="#DejaVuSans-114"/>
       <use x="893.525391" xlink:href="#DejaVuSans-111"/>
       <use x="954.707031" xlink:href="#DejaVuSans-114"/>
      </g>
     </g>
    </g>
   </g>
   <g id="matplotlib.axis_2">
    <g id="ytick_1">
     <g id="line2d_13">
      <path clip-path="url(#pc6cadd9602)" d="M 55.975 585.065032 
L 620.742708 585.065032 
" style="fill:none;stroke:#b0b0b0;stroke-linecap:square;stroke-width:0.8;"/>
     </g>
     <g id="line2d_14">
      <defs>
       <path d="M 0 0 
L -3.5 0 
" id="m7189f498a4" style="stroke:#000000;stroke-width:0.8;"/>
      </defs>
      <g>
       <use style="stroke:#000000;stroke-width:0.8;" x="55.975" xlink:href="#m7189f498a4" y="585.065032"/>
      </g>
     </g>
     <g id="text_7">
      <!-- 0 -->
      <defs>
       <path d="M 31.78125 66.40625 
Q 24.171875 66.40625 20.328125 58.90625 
Q 16.5 51.421875 16.5 36.375 
Q 16.5 21.390625 20.328125 13.890625 
Q 24.171875 6.390625 31.78125 6.390625 
Q 39.453125 6.390625 43.28125 13.890625 
Q 47.125 21.390625 47.125 36.375 
Q 47.125 51.421875 43.28125 58.90625 
Q 39.453125 66.40625 31.78125 66.40625 
z
M 31.78125 74.21875 
Q 44.046875 74.21875 50.515625 64.515625 
Q 56.984375 54.828125 56.984375 36.375 
Q 56.984375 17.96875 50.515625 8.265625 
Q 44.046875 -1.421875 31.78125 -1.421875 
Q 19.53125 -1.421875 13.0625 8.265625 
Q 6.59375 17.96875 6.59375 36.375 
Q 6.59375 54.828125 13.0625 64.515625 
Q 19.53125 74.21875 31.78125 74.21875 
z
" id="DejaVuSans-48"/>
      </defs>
      <g transform="translate(42.6125 588.864251)scale(0.1 -0.1)">
       <use xlink:href="#DejaVuSans-48"/>
      </g>
     </g>
    </g>
    <g id="ytick_2">
     <g id="line2d_15">
      <path clip-path="url(#pc6cadd9602)" d="M 55.975 476.390898 
L 620.742708 476.390898 
" style="fill:none;stroke:#b0b0b0;stroke-linecap:square;stroke-width:0.8;"/>
     </g>
     <g id="line2d_16">
      <g>
       <use style="stroke:#000000;stroke-width:0.8;" x="55.975" xlink:href="#m7189f498a4" y="476.390898"/>
      </g>
     </g>
     <g id="text_8">
      <!-- 20000 -->
      <defs>
       <path d="M 19.1875 8.296875 
L 53.609375 8.296875 
L 53.609375 0 
L 7.328125 0 
L 7.328125 8.296875 
Q 12.9375 14.109375 22.625 23.890625 
Q 32.328125 33.6875 34.8125 36.53125 
Q 39.546875 41.84375 41.421875 45.53125 
Q 43.3125 49.21875 43.3125 52.78125 
Q 43.3125 58.59375 39.234375 62.25 
Q 35.15625 65.921875 28.609375 65.921875 
Q 23.96875 65.921875 18.8125 64.3125 
Q 13.671875 62.703125 7.8125 59.421875 
L 7.8125 69.390625 
Q 13.765625 71.78125 18.9375 73 
Q 24.125 74.21875 28.421875 74.21875 
Q 39.75 74.21875 46.484375 68.546875 
Q 53.21875 62.890625 53.21875 53.421875 
Q 53.21875 48.921875 51.53125 44.890625 
Q 49.859375 40.875 45.40625 35.40625 
Q 44.1875 33.984375 37.640625 27.21875 
Q 31.109375 20.453125 19.1875 8.296875 
z
" id="DejaVuSans-50"/>
      </defs>
      <g transform="translate(17.1625 480.190116)scale(0.1 -0.1)">
       <use xlink:href="#DejaVuSans-50"/>
       <use x="63.623047" xlink:href="#DejaVuSans-48"/>
       <use x="127.246094" xlink:href="#DejaVuSans-48"/>
       <use x="190.869141" xlink:href="#DejaVuSans-48"/>
       <use x="254.492188" xlink:href="#DejaVuSans-48"/>
      </g>
     </g>
    </g>
    <g id="ytick_3">
     <g id="line2d_17">
      <path clip-path="url(#pc6cadd9602)" d="M 55.975 367.716763 
L 620.742708 367.716763 
" style="fill:none;stroke:#b0b0b0;stroke-linecap:square;stroke-width:0.8;"/>
     </g>
     <g id="line2d_18">
      <g>
       <use style="stroke:#000000;stroke-width:0.8;" x="55.975" xlink:href="#m7189f498a4" y="367.716763"/>
      </g>
     </g>
     <g id="text_9">
      <!-- 40000 -->
      <defs>
       <path d="M 37.796875 64.3125 
L 12.890625 25.390625 
L 37.796875 25.390625 
z
M 35.203125 72.90625 
L 47.609375 72.90625 
L 47.609375 25.390625 
L 58.015625 25.390625 
L 58.015625 17.1875 
L 47.609375 17.1875 
L 47.609375 0 
L 37.796875 0 
L 37.796875 17.1875 
L 4.890625 17.1875 
L 4.890625 26.703125 
z
" id="DejaVuSans-52"/>
      </defs>
      <g transform="translate(17.1625 371.515982)scale(0.1 -0.1)">
       <use xlink:href="#DejaVuSans-52"/>
       <use x="63.623047" xlink:href="#DejaVuSans-48"/>
       <use x="127.246094" xlink:href="#DejaVuSans-48"/>
       <use x="190.869141" xlink:href="#DejaVuSans-48"/>
       <use x="254.492188" xlink:href="#DejaVuSans-48"/>
      </g>
     </g>
    </g>
    <g id="ytick_4">
     <g id="line2d_19">
      <path clip-path="url(#pc6cadd9602)" d="M 55.975 259.042629 
L 620.742708 259.042629 
" style="fill:none;stroke:#b0b0b0;stroke-linecap:square;stroke-width:0.8;"/>
     </g>
     <g id="line2d_20">
      <g>
       <use style="stroke:#000000;stroke-width:0.8;" x="55.975" xlink:href="#m7189f498a4" y="259.042629"/>
      </g>
     </g>
     <g id="text_10">
      <!-- 60000 -->
      <defs>
       <path d="M 33.015625 40.375 
Q 26.375 40.375 22.484375 35.828125 
Q 18.609375 31.296875 18.609375 23.390625 
Q 18.609375 15.53125 22.484375 10.953125 
Q 26.375 6.390625 33.015625 6.390625 
Q 39.65625 6.390625 43.53125 10.953125 
Q 47.40625 15.53125 47.40625 23.390625 
Q 47.40625 31.296875 43.53125 35.828125 
Q 39.65625 40.375 33.015625 40.375 
z
M 52.59375 71.296875 
L 52.59375 62.3125 
Q 48.875 64.0625 45.09375 64.984375 
Q 41.3125 65.921875 37.59375 65.921875 
Q 27.828125 65.921875 22.671875 59.328125 
Q 17.53125 52.734375 16.796875 39.40625 
Q 19.671875 43.65625 24.015625 45.921875 
Q 28.375 48.1875 33.59375 48.1875 
Q 44.578125 48.1875 50.953125 41.515625 
Q 57.328125 34.859375 57.328125 23.390625 
Q 57.328125 12.15625 50.6875 5.359375 
Q 44.046875 -1.421875 33.015625 -1.421875 
Q 20.359375 -1.421875 13.671875 8.265625 
Q 6.984375 17.96875 6.984375 36.375 
Q 6.984375 53.65625 15.1875 63.9375 
Q 23.390625 74.21875 37.203125 74.21875 
Q 40.921875 74.21875 44.703125 73.484375 
Q 48.484375 72.75 52.59375 71.296875 
z
" id="DejaVuSans-54"/>
      </defs>
      <g transform="translate(17.1625 262.841848)scale(0.1 -0.1)">
       <use xlink:href="#DejaVuSans-54"/>
       <use x="63.623047" xlink:href="#DejaVuSans-48"/>
       <use x="127.246094" xlink:href="#DejaVuSans-48"/>
       <use x="190.869141" xlink:href="#DejaVuSans-48"/>
       <use x="254.492188" xlink:href="#DejaVuSans-48"/>
      </g>
     </g>
    </g>
    <g id="ytick_5">
     <g id="line2d_21">
      <path clip-path="url(#pc6cadd9602)" d="M 55.975 150.368495 
L 620.742708 150.368495 
" style="fill:none;stroke:#b0b0b0;stroke-linecap:square;stroke-width:0.8;"/>
     </g>
     <g id="line2d_22">
      <g>
       <use style="stroke:#000000;stroke-width:0.8;" x="55.975" xlink:href="#m7189f498a4" y="150.368495"/>
      </g>
     </g>
     <g id="text_11">
      <!-- 80000 -->
      <defs>
       <path d="M 31.78125 34.625 
Q 24.75 34.625 20.71875 30.859375 
Q 16.703125 27.09375 16.703125 20.515625 
Q 16.703125 13.921875 20.71875 10.15625 
Q 24.75 6.390625 31.78125 6.390625 
Q 38.8125 6.390625 42.859375 10.171875 
Q 46.921875 13.96875 46.921875 20.515625 
Q 46.921875 27.09375 42.890625 30.859375 
Q 38.875 34.625 31.78125 34.625 
z
M 21.921875 38.8125 
Q 15.578125 40.375 12.03125 44.71875 
Q 8.5 49.078125 8.5 55.328125 
Q 8.5 64.0625 14.71875 69.140625 
Q 20.953125 74.21875 31.78125 74.21875 
Q 42.671875 74.21875 48.875 69.140625 
Q 55.078125 64.0625 55.078125 55.328125 
Q 55.078125 49.078125 51.53125 44.71875 
Q 48 40.375 41.703125 38.8125 
Q 48.828125 37.15625 52.796875 32.3125 
Q 56.78125 27.484375 56.78125 20.515625 
Q 56.78125 9.90625 50.3125 4.234375 
Q 43.84375 -1.421875 31.78125 -1.421875 
Q 19.734375 -1.421875 13.25 4.234375 
Q 6.78125 9.90625 6.78125 20.515625 
Q 6.78125 27.484375 10.78125 32.3125 
Q 14.796875 37.15625 21.921875 38.8125 
z
M 18.3125 54.390625 
Q 18.3125 48.734375 21.84375 45.5625 
Q 25.390625 42.390625 31.78125 42.390625 
Q 38.140625 42.390625 41.71875 45.5625 
Q 45.3125 48.734375 45.3125 54.390625 
Q 45.3125 60.0625 41.71875 63.234375 
Q 38.140625 66.40625 31.78125 66.40625 
Q 25.390625 66.40625 21.84375 63.234375 
Q 18.3125 60.0625 18.3125 54.390625 
z
" id="DejaVuSans-56"/>
      </defs>
      <g transform="translate(17.1625 154.167713)scale(0.1 -0.1)">
       <use xlink:href="#DejaVuSans-56"/>
       <use x="63.623047" xlink:href="#DejaVuSans-48"/>
       <use x="127.246094" xlink:href="#DejaVuSans-48"/>
       <use x="190.869141" xlink:href="#DejaVuSans-48"/>
       <use x="254.492188" xlink:href="#DejaVuSans-48"/>
      </g>
     </g>
    </g>
    <g id="ytick_6">
     <g id="line2d_23">
      <path clip-path="url(#pc6cadd9602)" d="M 55.975 41.69436 
L 620.742708 41.69436 
" style="fill:none;stroke:#b0b0b0;stroke-linecap:square;stroke-width:0.8;"/>
     </g>
     <g id="line2d_24">
      <g>
       <use style="stroke:#000000;stroke-width:0.8;" x="55.975" xlink:href="#m7189f498a4" y="41.69436"/>
      </g>
     </g>
     <g id="text_12">
      <!-- 100000 -->
      <defs>
       <path d="M 12.40625 8.296875 
L 28.515625 8.296875 
L 28.515625 63.921875 
L 10.984375 60.40625 
L 10.984375 69.390625 
L 28.421875 72.90625 
L 38.28125 72.90625 
L 38.28125 8.296875 
L 54.390625 8.296875 
L 54.390625 0 
L 12.40625 0 
z
" id="DejaVuSans-49"/>
      </defs>
      <g transform="translate(10.8 45.493579)scale(0.1 -0.1)">
       <use xlink:href="#DejaVuSans-49"/>
       <use x="63.623047" xlink:href="#DejaVuSans-48"/>
       <use x="127.246094" xlink:href="#DejaVuSans-48"/>
       <use x="190.869141" xlink:href="#DejaVuSans-48"/>
       <use x="254.492188" xlink:href="#DejaVuSans-48"/>
       <use x="318.115234" xlink:href="#DejaVuSans-48"/>
      </g>
     </g>
    </g>
   </g>
   <g id="line2d_25">
    <path clip-path="url(#pc6cadd9602)" d="M 79.506988 584.260843 
L 126.570964 584.260843 
L 126.570964 584.217374 
L 79.506988 584.217374 
L 79.506988 584.260843 
" style="fill:none;stroke:#1f77b4;stroke-linecap:square;"/>
   </g>
   <g id="line2d_26">
    <path clip-path="url(#pc6cadd9602)" d="M 103.038976 584.260843 
L 103.038976 584.326048 
" style="fill:none;stroke:#1f77b4;stroke-linecap:square;"/>
   </g>
   <g id="line2d_27">
    <path clip-path="url(#pc6cadd9602)" d="M 103.038976 584.217374 
L 103.038976 584.152169 
" style="fill:none;stroke:#1f77b4;stroke-linecap:square;"/>
   </g>
   <g id="line2d_28">
    <path clip-path="url(#pc6cadd9602)" d="M 91.272982 584.326048 
L 114.80497 584.326048 
" style="fill:none;stroke:#000000;stroke-linecap:square;"/>
   </g>
   <g id="line2d_29">
    <path clip-path="url(#pc6cadd9602)" d="M 91.272982 584.152169 
L 114.80497 584.152169 
" style="fill:none;stroke:#000000;stroke-linecap:square;"/>
   </g>
   <g id="line2d_30">
    <defs>
     <path d="M 0 3 
C 0.795609 3 1.55874 2.683901 2.12132 2.12132 
C 2.683901 1.55874 3 0.795609 3 0 
C 3 -0.795609 2.683901 -1.55874 2.12132 -2.12132 
C 1.55874 -2.683901 0.795609 -3 0 -3 
C -0.795609 -3 -1.55874 -2.683901 -2.12132 -2.12132 
C -2.683901 -1.55874 -3 -0.795609 -3 0 
C -3 0.795609 -2.683901 1.55874 -2.12132 2.12132 
C -1.55874 2.683901 -0.795609 3 0 3 
z
" id="m64005d44f4" style="stroke:#000000;"/>
    </defs>
    <g clip-path="url(#pc6cadd9602)">
     <use style="fill-opacity:0;stroke:#000000;" x="103.038976" xlink:href="#m64005d44f4" y="584.331482"/>
     <use style="fill-opacity:0;stroke:#000000;" x="103.038976" xlink:href="#m64005d44f4" y="584.336915"/>
     <use style="fill-opacity:0;stroke:#000000;" x="103.038976" xlink:href="#m64005d44f4" y="584.342349"/>
     <use style="fill-opacity:0;stroke:#000000;" x="103.038976" xlink:href="#m64005d44f4" y="584.331482"/>
     <use style="fill-opacity:0;stroke:#000000;" x="103.038976" xlink:href="#m64005d44f4" y="584.347783"/>
     <use style="fill-opacity:0;stroke:#000000;" x="103.038976" xlink:href="#m64005d44f4" y="584.347783"/>
     <use style="fill-opacity:0;stroke:#000000;" x="103.038976" xlink:href="#m64005d44f4" y="584.331482"/>
     <use style="fill-opacity:0;stroke:#000000;" x="103.038976" xlink:href="#m64005d44f4" y="584.336915"/>
     <use style="fill-opacity:0;stroke:#000000;" x="103.038976" xlink:href="#m64005d44f4" y="584.331482"/>
     <use style="fill-opacity:0;stroke:#000000;" x="103.038976" xlink:href="#m64005d44f4" y="584.331482"/>
     <use style="fill-opacity:0;stroke:#000000;" x="103.038976" xlink:href="#m64005d44f4" y="584.331482"/>
     <use style="fill-opacity:0;stroke:#000000;" x="103.038976" xlink:href="#m64005d44f4" y="584.336915"/>
     <use style="fill-opacity:0;stroke:#000000;" x="103.038976" xlink:href="#m64005d44f4" y="584.336915"/>
     <use style="fill-opacity:0;stroke:#000000;" x="103.038976" xlink:href="#m64005d44f4" y="584.353216"/>
     <use style="fill-opacity:0;stroke:#000000;" x="103.038976" xlink:href="#m64005d44f4" y="584.331482"/>
     <use style="fill-opacity:0;stroke:#000000;" x="103.038976" xlink:href="#m64005d44f4" y="584.331482"/>
     <use style="fill-opacity:0;stroke:#000000;" x="103.038976" xlink:href="#m64005d44f4" y="584.347783"/>
     <use style="fill-opacity:0;stroke:#000000;" x="103.038976" xlink:href="#m64005d44f4" y="584.103266"/>
     <use style="fill-opacity:0;stroke:#000000;" x="103.038976" xlink:href="#m64005d44f4" y="584.103266"/>
     <use style="fill-opacity:0;stroke:#000000;" x="103.038976" xlink:href="#m64005d44f4" y="584.135868"/>
     <use style="fill-opacity:0;stroke:#000000;" x="103.038976" xlink:href="#m64005d44f4" y="584.141302"/>
     <use style="fill-opacity:0;stroke:#000000;" x="103.038976" xlink:href="#m64005d44f4" y="584.130434"/>
     <use style="fill-opacity:0;stroke:#000000;" x="103.038976" xlink:href="#m64005d44f4" y="584.141302"/>
     <use style="fill-opacity:0;stroke:#000000;" x="103.038976" xlink:href="#m64005d44f4" y="584.130434"/>
     <use style="fill-opacity:0;stroke:#000000;" x="103.038976" xlink:href="#m64005d44f4" y="584.119567"/>
     <use style="fill-opacity:0;stroke:#000000;" x="103.038976" xlink:href="#m64005d44f4" y="584.103266"/>
     <use style="fill-opacity:0;stroke:#000000;" x="103.038976" xlink:href="#m64005d44f4" y="584.141302"/>
     <use style="fill-opacity:0;stroke:#000000;" x="103.038976" xlink:href="#m64005d44f4" y="584.130434"/>
     <use style="fill-opacity:0;stroke:#000000;" x="103.038976" xlink:href="#m64005d44f4" y="584.141302"/>
     <use style="fill-opacity:0;stroke:#000000;" x="103.038976" xlink:href="#m64005d44f4" y="584.146736"/>
     <use style="fill-opacity:0;stroke:#000000;" x="103.038976" xlink:href="#m64005d44f4" y="584.141302"/>
     <use style="fill-opacity:0;stroke:#000000;" x="103.038976" xlink:href="#m64005d44f4" y="584.130434"/>
     <use style="fill-opacity:0;stroke:#000000;" x="103.038976" xlink:href="#m64005d44f4" y="584.1087"/>
     <use style="fill-opacity:0;stroke:#000000;" x="103.038976" xlink:href="#m64005d44f4" y="584.135868"/>
     <use style="fill-opacity:0;stroke:#000000;" x="103.038976" xlink:href="#m64005d44f4" y="584.086965"/>
     <use style="fill-opacity:0;stroke:#000000;" x="103.038976" xlink:href="#m64005d44f4" y="584.141302"/>
     <use style="fill-opacity:0;stroke:#000000;" x="103.038976" xlink:href="#m64005d44f4" y="584.141302"/>
     <use style="fill-opacity:0;stroke:#000000;" x="103.038976" xlink:href="#m64005d44f4" y="584.135868"/>
     <use style="fill-opacity:0;stroke:#000000;" x="103.038976" xlink:href="#m64005d44f4" y="584.125001"/>
     <use style="fill-opacity:0;stroke:#000000;" x="103.038976" xlink:href="#m64005d44f4" y="584.141302"/>
     <use style="fill-opacity:0;stroke:#000000;" x="103.038976" xlink:href="#m64005d44f4" y="584.1087"/>
     <use style="fill-opacity:0;stroke:#000000;" x="103.038976" xlink:href="#m64005d44f4" y="584.146736"/>
     <use style="fill-opacity:0;stroke:#000000;" x="103.038976" xlink:href="#m64005d44f4" y="584.146736"/>
     <use style="fill-opacity:0;stroke:#000000;" x="103.038976" xlink:href="#m64005d44f4" y="584.146736"/>
     <use style="fill-opacity:0;stroke:#000000;" x="103.038976" xlink:href="#m64005d44f4" y="584.141302"/>
     <use style="fill-opacity:0;stroke:#000000;" x="103.038976" xlink:href="#m64005d44f4" y="584.146736"/>
     <use style="fill-opacity:0;stroke:#000000;" x="103.038976" xlink:href="#m64005d44f4" y="584.125001"/>
     <use style="fill-opacity:0;stroke:#000000;" x="103.038976" xlink:href="#m64005d44f4" y="584.146736"/>
     <use style="fill-opacity:0;stroke:#000000;" x="103.038976" xlink:href="#m64005d44f4" y="584.146736"/>
     <use style="fill-opacity:0;stroke:#000000;" x="103.038976" xlink:href="#m64005d44f4" y="584.119567"/>
     <use style="fill-opacity:0;stroke:#000000;" x="103.038976" xlink:href="#m64005d44f4" y="584.146736"/>
     <use style="fill-opacity:0;stroke:#000000;" x="103.038976" xlink:href="#m64005d44f4" y="584.135868"/>
     <use style="fill-opacity:0;stroke:#000000;" x="103.038976" xlink:href="#m64005d44f4" y="584.141302"/>
     <use style="fill-opacity:0;stroke:#000000;" x="103.038976" xlink:href="#m64005d44f4" y="584.125001"/>
     <use style="fill-opacity:0;stroke:#000000;" x="103.038976" xlink:href="#m64005d44f4" y="584.114133"/>
     <use style="fill-opacity:0;stroke:#000000;" x="103.038976" xlink:href="#m64005d44f4" y="584.135868"/>
     <use style="fill-opacity:0;stroke:#000000;" x="103.038976" xlink:href="#m64005d44f4" y="584.141302"/>
    </g>
   </g>
   <g id="line2d_31">
    <path clip-path="url(#pc6cadd9602)" d="M 173.634939 582.038457 
L 220.698915 582.038457 
L 220.698915 581.902615 
L 173.634939 581.902615 
L 173.634939 582.038457 
" style="fill:none;stroke:#1f77b4;stroke-linecap:square;"/>
   </g>
   <g id="line2d_32">
    <path clip-path="url(#pc6cadd9602)" d="M 197.166927 582.038457 
L 197.166927 582.239505 
" style="fill:none;stroke:#1f77b4;stroke-linecap:square;"/>
   </g>
   <g id="line2d_33">
    <path clip-path="url(#pc6cadd9602)" d="M 197.166927 581.902615 
L 197.166927 581.701568 
" style="fill:none;stroke:#1f77b4;stroke-linecap:square;"/>
   </g>
   <g id="line2d_34">
    <path clip-path="url(#pc6cadd9602)" d="M 185.400933 582.239505 
L 208.932921 582.239505 
" style="fill:none;stroke:#000000;stroke-linecap:square;"/>
   </g>
   <g id="line2d_35">
    <path clip-path="url(#pc6cadd9602)" d="M 185.400933 581.701568 
L 208.932921 581.701568 
" style="fill:none;stroke:#000000;stroke-linecap:square;"/>
   </g>
   <g id="line2d_36">
    <g clip-path="url(#pc6cadd9602)">
     <use style="fill-opacity:0;stroke:#000000;" x="197.166927" xlink:href="#m64005d44f4" y="582.250372"/>
     <use style="fill-opacity:0;stroke:#000000;" x="197.166927" xlink:href="#m64005d44f4" y="582.261239"/>
     <use style="fill-opacity:0;stroke:#000000;" x="197.166927" xlink:href="#m64005d44f4" y="582.255806"/>
     <use style="fill-opacity:0;stroke:#000000;" x="197.166927" xlink:href="#m64005d44f4" y="582.288408"/>
     <use style="fill-opacity:0;stroke:#000000;" x="197.166927" xlink:href="#m64005d44f4" y="582.304709"/>
     <use style="fill-opacity:0;stroke:#000000;" x="197.166927" xlink:href="#m64005d44f4" y="582.244938"/>
     <use style="fill-opacity:0;stroke:#000000;" x="197.166927" xlink:href="#m64005d44f4" y="582.250372"/>
     <use style="fill-opacity:0;stroke:#000000;" x="197.166927" xlink:href="#m64005d44f4" y="582.250372"/>
     <use style="fill-opacity:0;stroke:#000000;" x="197.166927" xlink:href="#m64005d44f4" y="582.261239"/>
     <use style="fill-opacity:0;stroke:#000000;" x="197.166927" xlink:href="#m64005d44f4" y="582.255806"/>
     <use style="fill-opacity:0;stroke:#000000;" x="197.166927" xlink:href="#m64005d44f4" y="582.255806"/>
     <use style="fill-opacity:0;stroke:#000000;" x="197.166927" xlink:href="#m64005d44f4" y="582.310143"/>
     <use style="fill-opacity:0;stroke:#000000;" x="197.166927" xlink:href="#m64005d44f4" y="582.337311"/>
     <use style="fill-opacity:0;stroke:#000000;" x="197.166927" xlink:href="#m64005d44f4" y="582.261239"/>
     <use style="fill-opacity:0;stroke:#000000;" x="197.166927" xlink:href="#m64005d44f4" y="582.348179"/>
     <use style="fill-opacity:0;stroke:#000000;" x="197.166927" xlink:href="#m64005d44f4" y="582.244938"/>
     <use style="fill-opacity:0;stroke:#000000;" x="197.166927" xlink:href="#m64005d44f4" y="582.250372"/>
     <use style="fill-opacity:0;stroke:#000000;" x="197.166927" xlink:href="#m64005d44f4" y="581.652664"/>
     <use style="fill-opacity:0;stroke:#000000;" x="197.166927" xlink:href="#m64005d44f4" y="581.668965"/>
     <use style="fill-opacity:0;stroke:#000000;" x="197.166927" xlink:href="#m64005d44f4" y="581.6907"/>
     <use style="fill-opacity:0;stroke:#000000;" x="197.166927" xlink:href="#m64005d44f4" y="581.685266"/>
     <use style="fill-opacity:0;stroke:#000000;" x="197.166927" xlink:href="#m64005d44f4" y="581.652664"/>
     <use style="fill-opacity:0;stroke:#000000;" x="197.166927" xlink:href="#m64005d44f4" y="581.685266"/>
     <use style="fill-opacity:0;stroke:#000000;" x="197.166927" xlink:href="#m64005d44f4" y="581.641797"/>
     <use style="fill-opacity:0;stroke:#000000;" x="197.166927" xlink:href="#m64005d44f4" y="581.674399"/>
     <use style="fill-opacity:0;stroke:#000000;" x="197.166927" xlink:href="#m64005d44f4" y="581.679833"/>
     <use style="fill-opacity:0;stroke:#000000;" x="197.166927" xlink:href="#m64005d44f4" y="581.668965"/>
     <use style="fill-opacity:0;stroke:#000000;" x="197.166927" xlink:href="#m64005d44f4" y="581.696134"/>
     <use style="fill-opacity:0;stroke:#000000;" x="197.166927" xlink:href="#m64005d44f4" y="581.668965"/>
     <use style="fill-opacity:0;stroke:#000000;" x="197.166927" xlink:href="#m64005d44f4" y="581.663532"/>
     <use style="fill-opacity:0;stroke:#000000;" x="197.166927" xlink:href="#m64005d44f4" y="581.696134"/>
     <use style="fill-opacity:0;stroke:#000000;" x="197.166927" xlink:href="#m64005d44f4" y="581.685266"/>
     <use style="fill-opacity:0;stroke:#000000;" x="197.166927" xlink:href="#m64005d44f4" y="581.668965"/>
     <use style="fill-opacity:0;stroke:#000000;" x="197.166927" xlink:href="#m64005d44f4" y="581.625496"/>
     <use style="fill-opacity:0;stroke:#000000;" x="197.166927" xlink:href="#m64005d44f4" y="581.696134"/>
     <use style="fill-opacity:0;stroke:#000000;" x="197.166927" xlink:href="#m64005d44f4" y="581.696134"/>
     <use style="fill-opacity:0;stroke:#000000;" x="197.166927" xlink:href="#m64005d44f4" y="581.696134"/>
     <use style="fill-opacity:0;stroke:#000000;" x="197.166927" xlink:href="#m64005d44f4" y="581.696134"/>
     <use style="fill-opacity:0;stroke:#000000;" x="197.166927" xlink:href="#m64005d44f4" y="581.6907"/>
     <use style="fill-opacity:0;stroke:#000000;" x="197.166927" xlink:href="#m64005d44f4" y="581.668965"/>
     <use style="fill-opacity:0;stroke:#000000;" x="197.166927" xlink:href="#m64005d44f4" y="581.614628"/>
     <use style="fill-opacity:0;stroke:#000000;" x="197.166927" xlink:href="#m64005d44f4" y="581.696134"/>
     <use style="fill-opacity:0;stroke:#000000;" x="197.166927" xlink:href="#m64005d44f4" y="581.641797"/>
     <use style="fill-opacity:0;stroke:#000000;" x="197.166927" xlink:href="#m64005d44f4" y="581.620062"/>
    </g>
   </g>
   <g id="line2d_37">
    <path clip-path="url(#pc6cadd9602)" d="M 267.762891 584.027194 
L 314.826866 584.027194 
L 314.826866 583.967423 
L 267.762891 583.967423 
L 267.762891 584.027194 
" style="fill:none;stroke:#1f77b4;stroke-linecap:square;"/>
   </g>
   <g id="line2d_38">
    <path clip-path="url(#pc6cadd9602)" d="M 291.294878 584.027194 
L 291.294878 584.114133 
" style="fill:none;stroke:#1f77b4;stroke-linecap:square;"/>
   </g>
   <g id="line2d_39">
    <path clip-path="url(#pc6cadd9602)" d="M 291.294878 583.967423 
L 291.294878 583.880484 
" style="fill:none;stroke:#1f77b4;stroke-linecap:square;"/>
   </g>
   <g id="line2d_40">
    <path clip-path="url(#pc6cadd9602)" d="M 279.528885 584.114133 
L 303.060872 584.114133 
" style="fill:none;stroke:#000000;stroke-linecap:square;"/>
   </g>
   <g id="line2d_41">
    <path clip-path="url(#pc6cadd9602)" d="M 279.528885 583.880484 
L 303.060872 583.880484 
" style="fill:none;stroke:#000000;stroke-linecap:square;"/>
   </g>
   <g id="line2d_42">
    <g clip-path="url(#pc6cadd9602)">
     <use style="fill-opacity:0;stroke:#000000;" x="291.294878" xlink:href="#m64005d44f4" y="584.130434"/>
     <use style="fill-opacity:0;stroke:#000000;" x="291.294878" xlink:href="#m64005d44f4" y="584.152169"/>
     <use style="fill-opacity:0;stroke:#000000;" x="291.294878" xlink:href="#m64005d44f4" y="584.119567"/>
     <use style="fill-opacity:0;stroke:#000000;" x="291.294878" xlink:href="#m64005d44f4" y="584.119567"/>
     <use style="fill-opacity:0;stroke:#000000;" x="291.294878" xlink:href="#m64005d44f4" y="584.119567"/>
     <use style="fill-opacity:0;stroke:#000000;" x="291.294878" xlink:href="#m64005d44f4" y="584.135868"/>
     <use style="fill-opacity:0;stroke:#000000;" x="291.294878" xlink:href="#m64005d44f4" y="584.125001"/>
     <use style="fill-opacity:0;stroke:#000000;" x="291.294878" xlink:href="#m64005d44f4" y="584.130434"/>
     <use style="fill-opacity:0;stroke:#000000;" x="291.294878" xlink:href="#m64005d44f4" y="584.130434"/>
     <use style="fill-opacity:0;stroke:#000000;" x="291.294878" xlink:href="#m64005d44f4" y="584.146736"/>
     <use style="fill-opacity:0;stroke:#000000;" x="291.294878" xlink:href="#m64005d44f4" y="584.135868"/>
     <use style="fill-opacity:0;stroke:#000000;" x="291.294878" xlink:href="#m64005d44f4" y="584.135868"/>
     <use style="fill-opacity:0;stroke:#000000;" x="291.294878" xlink:href="#m64005d44f4" y="584.130434"/>
     <use style="fill-opacity:0;stroke:#000000;" x="291.294878" xlink:href="#m64005d44f4" y="584.141302"/>
     <use style="fill-opacity:0;stroke:#000000;" x="291.294878" xlink:href="#m64005d44f4" y="584.119567"/>
     <use style="fill-opacity:0;stroke:#000000;" x="291.294878" xlink:href="#m64005d44f4" y="584.119567"/>
     <use style="fill-opacity:0;stroke:#000000;" x="291.294878" xlink:href="#m64005d44f4" y="584.141302"/>
     <use style="fill-opacity:0;stroke:#000000;" x="291.294878" xlink:href="#m64005d44f4" y="584.119567"/>
     <use style="fill-opacity:0;stroke:#000000;" x="291.294878" xlink:href="#m64005d44f4" y="584.135868"/>
     <use style="fill-opacity:0;stroke:#000000;" x="291.294878" xlink:href="#m64005d44f4" y="584.152169"/>
     <use style="fill-opacity:0;stroke:#000000;" x="291.294878" xlink:href="#m64005d44f4" y="584.135868"/>
     <use style="fill-opacity:0;stroke:#000000;" x="291.294878" xlink:href="#m64005d44f4" y="584.152169"/>
     <use style="fill-opacity:0;stroke:#000000;" x="291.294878" xlink:href="#m64005d44f4" y="584.119567"/>
     <use style="fill-opacity:0;stroke:#000000;" x="291.294878" xlink:href="#m64005d44f4" y="584.125001"/>
     <use style="fill-opacity:0;stroke:#000000;" x="291.294878" xlink:href="#m64005d44f4" y="584.125001"/>
     <use style="fill-opacity:0;stroke:#000000;" x="291.294878" xlink:href="#m64005d44f4" y="584.152169"/>
     <use style="fill-opacity:0;stroke:#000000;" x="291.294878" xlink:href="#m64005d44f4" y="584.146736"/>
     <use style="fill-opacity:0;stroke:#000000;" x="291.294878" xlink:href="#m64005d44f4" y="584.125001"/>
     <use style="fill-opacity:0;stroke:#000000;" x="291.294878" xlink:href="#m64005d44f4" y="584.141302"/>
     <use style="fill-opacity:0;stroke:#000000;" x="291.294878" xlink:href="#m64005d44f4" y="584.125001"/>
     <use style="fill-opacity:0;stroke:#000000;" x="291.294878" xlink:href="#m64005d44f4" y="584.146736"/>
     <use style="fill-opacity:0;stroke:#000000;" x="291.294878" xlink:href="#m64005d44f4" y="584.141302"/>
     <use style="fill-opacity:0;stroke:#000000;" x="291.294878" xlink:href="#m64005d44f4" y="584.130434"/>
     <use style="fill-opacity:0;stroke:#000000;" x="291.294878" xlink:href="#m64005d44f4" y="584.125001"/>
     <use style="fill-opacity:0;stroke:#000000;" x="291.294878" xlink:href="#m64005d44f4" y="584.125001"/>
     <use style="fill-opacity:0;stroke:#000000;" x="291.294878" xlink:href="#m64005d44f4" y="584.152169"/>
     <use style="fill-opacity:0;stroke:#000000;" x="291.294878" xlink:href="#m64005d44f4" y="584.135868"/>
     <use style="fill-opacity:0;stroke:#000000;" x="291.294878" xlink:href="#m64005d44f4" y="584.119567"/>
     <use style="fill-opacity:0;stroke:#000000;" x="291.294878" xlink:href="#m64005d44f4" y="584.141302"/>
     <use style="fill-opacity:0;stroke:#000000;" x="291.294878" xlink:href="#m64005d44f4" y="584.125001"/>
     <use style="fill-opacity:0;stroke:#000000;" x="291.294878" xlink:href="#m64005d44f4" y="584.119567"/>
     <use style="fill-opacity:0;stroke:#000000;" x="291.294878" xlink:href="#m64005d44f4" y="584.135868"/>
     <use style="fill-opacity:0;stroke:#000000;" x="291.294878" xlink:href="#m64005d44f4" y="583.869617"/>
     <use style="fill-opacity:0;stroke:#000000;" x="291.294878" xlink:href="#m64005d44f4" y="583.87505"/>
     <use style="fill-opacity:0;stroke:#000000;" x="291.294878" xlink:href="#m64005d44f4" y="583.869617"/>
     <use style="fill-opacity:0;stroke:#000000;" x="291.294878" xlink:href="#m64005d44f4" y="583.87505"/>
     <use style="fill-opacity:0;stroke:#000000;" x="291.294878" xlink:href="#m64005d44f4" y="583.842448"/>
     <use style="fill-opacity:0;stroke:#000000;" x="291.294878" xlink:href="#m64005d44f4" y="583.869617"/>
     <use style="fill-opacity:0;stroke:#000000;" x="291.294878" xlink:href="#m64005d44f4" y="583.87505"/>
     <use style="fill-opacity:0;stroke:#000000;" x="291.294878" xlink:href="#m64005d44f4" y="583.869617"/>
     <use style="fill-opacity:0;stroke:#000000;" x="291.294878" xlink:href="#m64005d44f4" y="583.858749"/>
     <use style="fill-opacity:0;stroke:#000000;" x="291.294878" xlink:href="#m64005d44f4" y="583.869617"/>
     <use style="fill-opacity:0;stroke:#000000;" x="291.294878" xlink:href="#m64005d44f4" y="583.869617"/>
    </g>
   </g>
   <g id="line2d_43">
    <path clip-path="url(#pc6cadd9602)" d="M 361.890842 584.385819 
L 408.954818 584.385819 
L 408.954818 584.336915 
L 361.890842 584.336915 
L 361.890842 584.385819 
" style="fill:none;stroke:#1f77b4;stroke-linecap:square;"/>
   </g>
   <g id="line2d_44">
    <path clip-path="url(#pc6cadd9602)" d="M 385.42283 584.385819 
L 385.42283 584.456457 
" style="fill:none;stroke:#1f77b4;stroke-linecap:square;"/>
   </g>
   <g id="line2d_45">
    <path clip-path="url(#pc6cadd9602)" d="M 385.42283 584.336915 
L 385.42283 584.266277 
" style="fill:none;stroke:#1f77b4;stroke-linecap:square;"/>
   </g>
   <g id="line2d_46">
    <path clip-path="url(#pc6cadd9602)" d="M 373.656836 584.456457 
L 397.188824 584.456457 
" style="fill:none;stroke:#000000;stroke-linecap:square;"/>
   </g>
   <g id="line2d_47">
    <path clip-path="url(#pc6cadd9602)" d="M 373.656836 584.266277 
L 397.188824 584.266277 
" style="fill:none;stroke:#000000;stroke-linecap:square;"/>
   </g>
   <g id="line2d_48">
    <g clip-path="url(#pc6cadd9602)">
     <use style="fill-opacity:0;stroke:#000000;" x="385.42283" xlink:href="#m64005d44f4" y="584.461891"/>
     <use style="fill-opacity:0;stroke:#000000;" x="385.42283" xlink:href="#m64005d44f4" y="584.467324"/>
     <use style="fill-opacity:0;stroke:#000000;" x="385.42283" xlink:href="#m64005d44f4" y="584.467324"/>
     <use style="fill-opacity:0;stroke:#000000;" x="385.42283" xlink:href="#m64005d44f4" y="584.467324"/>
     <use style="fill-opacity:0;stroke:#000000;" x="385.42283" xlink:href="#m64005d44f4" y="584.461891"/>
     <use style="fill-opacity:0;stroke:#000000;" x="385.42283" xlink:href="#m64005d44f4" y="584.467324"/>
     <use style="fill-opacity:0;stroke:#000000;" x="385.42283" xlink:href="#m64005d44f4" y="584.467324"/>
     <use style="fill-opacity:0;stroke:#000000;" x="385.42283" xlink:href="#m64005d44f4" y="584.467324"/>
     <use style="fill-opacity:0;stroke:#000000;" x="385.42283" xlink:href="#m64005d44f4" y="584.489059"/>
     <use style="fill-opacity:0;stroke:#000000;" x="385.42283" xlink:href="#m64005d44f4" y="584.478192"/>
     <use style="fill-opacity:0;stroke:#000000;" x="385.42283" xlink:href="#m64005d44f4" y="584.494493"/>
     <use style="fill-opacity:0;stroke:#000000;" x="385.42283" xlink:href="#m64005d44f4" y="584.461891"/>
     <use style="fill-opacity:0;stroke:#000000;" x="385.42283" xlink:href="#m64005d44f4" y="584.472758"/>
     <use style="fill-opacity:0;stroke:#000000;" x="385.42283" xlink:href="#m64005d44f4" y="584.494493"/>
     <use style="fill-opacity:0;stroke:#000000;" x="385.42283" xlink:href="#m64005d44f4" y="584.472758"/>
     <use style="fill-opacity:0;stroke:#000000;" x="385.42283" xlink:href="#m64005d44f4" y="584.467324"/>
     <use style="fill-opacity:0;stroke:#000000;" x="385.42283" xlink:href="#m64005d44f4" y="584.461891"/>
     <use style="fill-opacity:0;stroke:#000000;" x="385.42283" xlink:href="#m64005d44f4" y="584.467324"/>
     <use style="fill-opacity:0;stroke:#000000;" x="385.42283" xlink:href="#m64005d44f4" y="584.478192"/>
     <use style="fill-opacity:0;stroke:#000000;" x="385.42283" xlink:href="#m64005d44f4" y="584.461891"/>
     <use style="fill-opacity:0;stroke:#000000;" x="385.42283" xlink:href="#m64005d44f4" y="584.472758"/>
     <use style="fill-opacity:0;stroke:#000000;" x="385.42283" xlink:href="#m64005d44f4" y="584.483625"/>
     <use style="fill-opacity:0;stroke:#000000;" x="385.42283" xlink:href="#m64005d44f4" y="584.467324"/>
     <use style="fill-opacity:0;stroke:#000000;" x="385.42283" xlink:href="#m64005d44f4" y="584.483625"/>
     <use style="fill-opacity:0;stroke:#000000;" x="385.42283" xlink:href="#m64005d44f4" y="584.489059"/>
     <use style="fill-opacity:0;stroke:#000000;" x="385.42283" xlink:href="#m64005d44f4" y="584.478192"/>
     <use style="fill-opacity:0;stroke:#000000;" x="385.42283" xlink:href="#m64005d44f4" y="584.461891"/>
     <use style="fill-opacity:0;stroke:#000000;" x="385.42283" xlink:href="#m64005d44f4" y="584.483625"/>
     <use style="fill-opacity:0;stroke:#000000;" x="385.42283" xlink:href="#m64005d44f4" y="584.461891"/>
     <use style="fill-opacity:0;stroke:#000000;" x="385.42283" xlink:href="#m64005d44f4" y="584.467324"/>
     <use style="fill-opacity:0;stroke:#000000;" x="385.42283" xlink:href="#m64005d44f4" y="584.467324"/>
     <use style="fill-opacity:0;stroke:#000000;" x="385.42283" xlink:href="#m64005d44f4" y="584.467324"/>
     <use style="fill-opacity:0;stroke:#000000;" x="385.42283" xlink:href="#m64005d44f4" y="584.25541"/>
     <use style="fill-opacity:0;stroke:#000000;" x="385.42283" xlink:href="#m64005d44f4" y="584.260843"/>
     <use style="fill-opacity:0;stroke:#000000;" x="385.42283" xlink:href="#m64005d44f4" y="584.249976"/>
     <use style="fill-opacity:0;stroke:#000000;" x="385.42283" xlink:href="#m64005d44f4" y="584.25541"/>
     <use style="fill-opacity:0;stroke:#000000;" x="385.42283" xlink:href="#m64005d44f4" y="584.260843"/>
     <use style="fill-opacity:0;stroke:#000000;" x="385.42283" xlink:href="#m64005d44f4" y="584.260843"/>
     <use style="fill-opacity:0;stroke:#000000;" x="385.42283" xlink:href="#m64005d44f4" y="584.25541"/>
     <use style="fill-opacity:0;stroke:#000000;" x="385.42283" xlink:href="#m64005d44f4" y="584.249976"/>
     <use style="fill-opacity:0;stroke:#000000;" x="385.42283" xlink:href="#m64005d44f4" y="584.260843"/>
    </g>
   </g>
   <g id="line2d_49">
    <path clip-path="url(#pc6cadd9602)" d="M 456.018793 41.73028 
L 503.082769 41.73028 
L 503.082769 41.657708 
L 456.018793 41.657708 
L 456.018793 41.73028 
" style="fill:none;stroke:#1f77b4;stroke-linecap:square;"/>
   </g>
   <g id="line2d_50">
    <path clip-path="url(#pc6cadd9602)" d="M 479.550781 41.73028 
L 479.550781 41.839121 
" style="fill:none;stroke:#1f77b4;stroke-linecap:square;"/>
   </g>
   <g id="line2d_51">
    <path clip-path="url(#pc6cadd9602)" d="M 479.550781 41.657708 
L 479.550781 41.550251 
" style="fill:none;stroke:#1f77b4;stroke-linecap:square;"/>
   </g>
   <g id="line2d_52">
    <path clip-path="url(#pc6cadd9602)" d="M 467.784787 41.839121 
L 491.316775 41.839121 
" style="fill:none;stroke:#000000;stroke-linecap:square;"/>
   </g>
   <g id="line2d_53">
    <path clip-path="url(#pc6cadd9602)" d="M 467.784787 41.550251 
L 491.316775 41.550251 
" style="fill:none;stroke:#000000;stroke-linecap:square;"/>
   </g>
   <g id="line2d_54">
    <g clip-path="url(#pc6cadd9602)">
     <use style="fill-opacity:0;stroke:#000000;" x="479.550781" xlink:href="#m64005d44f4" y="41.846128"/>
     <use style="fill-opacity:0;stroke:#000000;" x="479.550781" xlink:href="#m64005d44f4" y="41.845555"/>
     <use style="fill-opacity:0;stroke:#000000;" x="479.550781" xlink:href="#m64005d44f4" y="41.846015"/>
     <use style="fill-opacity:0;stroke:#000000;" x="479.550781" xlink:href="#m64005d44f4" y="41.840981"/>
     <use style="fill-opacity:0;stroke:#000000;" x="479.550781" xlink:href="#m64005d44f4" y="41.860293"/>
     <use style="fill-opacity:0;stroke:#000000;" x="479.550781" xlink:href="#m64005d44f4" y="41.865704"/>
     <use style="fill-opacity:0;stroke:#000000;" x="479.550781" xlink:href="#m64005d44f4" y="41.858243"/>
     <use style="fill-opacity:0;stroke:#000000;" x="479.550781" xlink:href="#m64005d44f4" y="41.846039"/>
     <use style="fill-opacity:0;stroke:#000000;" x="479.550781" xlink:href="#m64005d44f4" y="41.860857"/>
     <use style="fill-opacity:0;stroke:#000000;" x="479.550781" xlink:href="#m64005d44f4" y="41.839812"/>
     <use style="fill-opacity:0;stroke:#000000;" x="479.550781" xlink:href="#m64005d44f4" y="41.843197"/>
     <use style="fill-opacity:0;stroke:#000000;" x="479.550781" xlink:href="#m64005d44f4" y="41.850419"/>
     <use style="fill-opacity:0;stroke:#000000;" x="479.550781" xlink:href="#m64005d44f4" y="41.841635"/>
     <use style="fill-opacity:0;stroke:#000000;" x="479.550781" xlink:href="#m64005d44f4" y="41.846589"/>
     <use style="fill-opacity:0;stroke:#000000;" x="479.550781" xlink:href="#m64005d44f4" y="41.871121"/>
     <use style="fill-opacity:0;stroke:#000000;" x="479.550781" xlink:href="#m64005d44f4" y="41.840262"/>
     <use style="fill-opacity:0;stroke:#000000;" x="479.550781" xlink:href="#m64005d44f4" y="41.842154"/>
     <use style="fill-opacity:0;stroke:#000000;" x="479.550781" xlink:href="#m64005d44f4" y="41.852726"/>
     <use style="fill-opacity:0;stroke:#000000;" x="479.550781" xlink:href="#m64005d44f4" y="41.848946"/>
     <use style="fill-opacity:0;stroke:#000000;" x="479.550781" xlink:href="#m64005d44f4" y="41.856547"/>
     <use style="fill-opacity:0;stroke:#000000;" x="479.550781" xlink:href="#m64005d44f4" y="41.867729"/>
     <use style="fill-opacity:0;stroke:#000000;" x="479.550781" xlink:href="#m64005d44f4" y="41.871532"/>
     <use style="fill-opacity:0;stroke:#000000;" x="479.550781" xlink:href="#m64005d44f4" y="41.841012"/>
     <use style="fill-opacity:0;stroke:#000000;" x="479.550781" xlink:href="#m64005d44f4" y="41.849279"/>
     <use style="fill-opacity:0;stroke:#000000;" x="479.550781" xlink:href="#m64005d44f4" y="41.529672"/>
     <use style="fill-opacity:0;stroke:#000000;" x="479.550781" xlink:href="#m64005d44f4" y="41.479261"/>
     <use style="fill-opacity:0;stroke:#000000;" x="479.550781" xlink:href="#m64005d44f4" y="41.513903"/>
     <use style="fill-opacity:0;stroke:#000000;" x="479.550781" xlink:href="#m64005d44f4" y="41.535842"/>
     <use style="fill-opacity:0;stroke:#000000;" x="479.550781" xlink:href="#m64005d44f4" y="41.540733"/>
     <use style="fill-opacity:0;stroke:#000000;" x="479.550781" xlink:href="#m64005d44f4" y="41.547001"/>
     <use style="fill-opacity:0;stroke:#000000;" x="479.550781" xlink:href="#m64005d44f4" y="41.507839"/>
     <use style="fill-opacity:0;stroke:#000000;" x="479.550781" xlink:href="#m64005d44f4" y="41.539829"/>
     <use style="fill-opacity:0;stroke:#000000;" x="479.550781" xlink:href="#m64005d44f4" y="41.491126"/>
     <use style="fill-opacity:0;stroke:#000000;" x="479.550781" xlink:href="#m64005d44f4" y="41.546049"/>
     <use style="fill-opacity:0;stroke:#000000;" x="479.550781" xlink:href="#m64005d44f4" y="41.537088"/>
     <use style="fill-opacity:0;stroke:#000000;" x="479.550781" xlink:href="#m64005d44f4" y="41.524011"/>
     <use style="fill-opacity:0;stroke:#000000;" x="479.550781" xlink:href="#m64005d44f4" y="41.518398"/>
     <use style="fill-opacity:0;stroke:#000000;" x="479.550781" xlink:href="#m64005d44f4" y="41.542903"/>
     <use style="fill-opacity:0;stroke:#000000;" x="479.550781" xlink:href="#m64005d44f4" y="41.547317"/>
     <use style="fill-opacity:0;stroke:#000000;" x="479.550781" xlink:href="#m64005d44f4" y="41.537131"/>
     <use style="fill-opacity:0;stroke:#000000;" x="479.550781" xlink:href="#m64005d44f4" y="41.54536"/>
     <use style="fill-opacity:0;stroke:#000000;" x="479.550781" xlink:href="#m64005d44f4" y="41.53962"/>
     <use style="fill-opacity:0;stroke:#000000;" x="479.550781" xlink:href="#m64005d44f4" y="41.543463"/>
     <use style="fill-opacity:0;stroke:#000000;" x="479.550781" xlink:href="#m64005d44f4" y="41.541179"/>
     <use style="fill-opacity:0;stroke:#000000;" x="479.550781" xlink:href="#m64005d44f4" y="41.546705"/>
     <use style="fill-opacity:0;stroke:#000000;" x="479.550781" xlink:href="#m64005d44f4" y="41.539259"/>
     <use style="fill-opacity:0;stroke:#000000;" x="479.550781" xlink:href="#m64005d44f4" y="41.545974"/>
     <use style="fill-opacity:0;stroke:#000000;" x="479.550781" xlink:href="#m64005d44f4" y="41.524175"/>
     <use style="fill-opacity:0;stroke:#000000;" x="479.550781" xlink:href="#m64005d44f4" y="41.530656"/>
     <use style="fill-opacity:0;stroke:#000000;" x="479.550781" xlink:href="#m64005d44f4" y="41.541032"/>
    </g>
   </g>
   <g id="line2d_55">
    <path clip-path="url(#pc6cadd9602)" d="M 550.146745 585.064489 
L 597.21072 585.064489 
L 597.21072 585.064489 
L 550.146745 585.064489 
L 550.146745 585.064489 
" style="fill:none;stroke:#1f77b4;stroke-linecap:square;"/>
   </g>
   <g id="line2d_56">
    <path clip-path="url(#pc6cadd9602)" d="M 573.678733 585.064489 
L 573.678733 585.064489 
" style="fill:none;stroke:#1f77b4;stroke-linecap:square;"/>
   </g>
   <g id="line2d_57">
    <path clip-path="url(#pc6cadd9602)" d="M 573.678733 585.064489 
L 573.678733 585.064489 
" style="fill:none;stroke:#1f77b4;stroke-linecap:square;"/>
   </g>
   <g id="line2d_58">
    <path clip-path="url(#pc6cadd9602)" d="M 561.912739 585.064489 
L 585.444727 585.064489 
" style="fill:none;stroke:#000000;stroke-linecap:square;"/>
   </g>
   <g id="line2d_59">
    <path clip-path="url(#pc6cadd9602)" d="M 561.912739 585.064489 
L 585.444727 585.064489 
" style="fill:none;stroke:#000000;stroke-linecap:square;"/>
   </g>
   <g id="line2d_60"/>
   <g id="line2d_61">
    <path clip-path="url(#pc6cadd9602)" d="M 79.506988 584.239109 
L 126.570964 584.239109 
" style="fill:none;stroke:#2ca02c;stroke-linecap:square;"/>
   </g>
   <g id="line2d_62">
    <path clip-path="url(#pc6cadd9602)" d="M 173.634939 581.967819 
L 220.698915 581.967819 
" style="fill:none;stroke:#2ca02c;stroke-linecap:square;"/>
   </g>
   <g id="line2d_63">
    <path clip-path="url(#pc6cadd9602)" d="M 267.762891 583.994592 
L 314.826866 583.994592 
" style="fill:none;stroke:#2ca02c;stroke-linecap:square;"/>
   </g>
   <g id="line2d_64">
    <path clip-path="url(#pc6cadd9602)" d="M 361.890842 584.35865 
L 408.954818 584.35865 
" style="fill:none;stroke:#2ca02c;stroke-linecap:square;"/>
   </g>
   <g id="line2d_65">
    <path clip-path="url(#pc6cadd9602)" d="M 456.018793 41.693813 
L 503.082769 41.693813 
" style="fill:none;stroke:#2ca02c;stroke-linecap:square;"/>
   </g>
   <g id="line2d_66">
    <path clip-path="url(#pc6cadd9602)" d="M 550.146745 585.064489 
L 597.21072 585.064489 
" style="fill:none;stroke:#2ca02c;stroke-linecap:square;"/>
   </g>
   <g id="patch_3">
    <path d="M 55.975 612.24375 
L 55.975 14.3 
" style="fill:none;stroke:#000000;stroke-linecap:square;stroke-linejoin:miter;stroke-width:0.8;"/>
   </g>
   <g id="patch_4">
    <path d="M 620.742708 612.24375 
L 620.742708 14.3 
" style="fill:none;stroke:#000000;stroke-linecap:square;stroke-linejoin:miter;stroke-width:0.8;"/>
   </g>
   <g id="patch_5">
    <path d="M 55.975 612.24375 
L 620.742708 612.24375 
" style="fill:none;stroke:#000000;stroke-linecap:square;stroke-linejoin:miter;stroke-width:0.8;"/>
   </g>
   <g id="patch_6">
    <path d="M 55.975 14.3 
L 620.742708 14.3 
" style="fill:none;stroke:#000000;stroke-linecap:square;stroke-linejoin:miter;stroke-width:0.8;"/>
   </g>
  </g>
 </g>
 <defs>
  <clipPath id="pc6cadd9602">
   <rect height="597.94375" width="564.767708" x="55.975" y="14.3"/>
  </clipPath>
 </defs>
</svg>
