<?xml version="1.0" encoding="utf-8" standalone="no"?>
<!DOCTYPE svg PUBLIC "-//W3C//DTD SVG 1.1//EN"
  "http://www.w3.org/Graphics/SVG/1.1/DTD/svg11.dtd">
<!-- Created with matplotlib (http://matplotlib.org/) -->
<svg height="640pt" version="1.1" viewBox="0 0 640 640" width="640pt" xmlns="http://www.w3.org/2000/svg" xmlns:xlink="http://www.w3.org/1999/xlink">
 <defs>
  <style type="text/css">
*{stroke-linecap:butt;stroke-linejoin:round;}
  </style>
 </defs>
 <g id="figure_1">
  <g id="patch_1">
   <path d="M 0 640 
L 640 640 
L 640 0 
L 0 0 
z
" style="fill:#ffffff;"/>
  </g>
  <g id="axes_1">
   <g id="patch_2">
    <path d="M 30.525 587.415373 
L 625.7 587.415373 
L 625.7 14.3 
L 30.525 14.3 
z
" style="fill:#ffffff;"/>
   </g>
   <g id="matplotlib.axis_1">
    <g id="xtick_1">
     <g id="line2d_1">
      <defs>
       <path d="M 0 0 
L 0 3.5 
" id="m45789279a9" style="stroke:#000000;stroke-width:0.8;"/>
      </defs>
      <g>
       <use style="stroke:#000000;stroke-width:0.8;" x="56.701949" xlink:href="#m45789279a9" y="587.415373"/>
      </g>
     </g>
     <g id="text_1">
      <!-- 2010 -->
      <defs>
       <path d="M 19.1875 8.296875 
L 53.609375 8.296875 
L 53.609375 0 
L 7.328125 0 
L 7.328125 8.296875 
Q 12.9375 14.109375 22.625 23.890625 
Q 32.328125 33.6875 34.8125 36.53125 
Q 39.546875 41.84375 41.421875 45.53125 
Q 43.3125 49.21875 43.3125 52.78125 
Q 43.3125 58.59375 39.234375 62.25 
Q 35.15625 65.921875 28.609375 65.921875 
Q 23.96875 65.921875 18.8125 64.3125 
Q 13.671875 62.703125 7.8125 59.421875 
L 7.8125 69.390625 
Q 13.765625 71.78125 18.9375 73 
Q 24.125 74.21875 28.421875 74.21875 
Q 39.75 74.21875 46.484375 68.546875 
Q 53.21875 62.890625 53.21875 53.421875 
Q 53.21875 48.921875 51.53125 44.890625 
Q 49.859375 40.875 45.40625 35.40625 
Q 44.1875 33.984375 37.640625 27.21875 
Q 31.109375 20.453125 19.1875 8.296875 
z
" id="DejaVuSans-32"/>
       <path d="M 31.78125 66.40625 
Q 24.171875 66.40625 20.328125 58.90625 
Q 16.5 51.421875 16.5 36.375 
Q 16.5 21.390625 20.328125 13.890625 
Q 24.171875 6.390625 31.78125 6.390625 
Q 39.453125 6.390625 43.28125 13.890625 
Q 47.125 21.390625 47.125 36.375 
Q 47.125 51.421875 43.28125 58.90625 
Q 39.453125 66.40625 31.78125 66.40625 
z
M 31.78125 74.21875 
Q 44.046875 74.21875 50.515625 64.515625 
Q 56.984375 54.828125 56.984375 36.375 
Q 56.984375 17.96875 50.515625 8.265625 
Q 44.046875 -1.421875 31.78125 -1.421875 
Q 19.53125 -1.421875 13.0625 8.265625 
Q 6.59375 17.96875 6.59375 36.375 
Q 6.59375 54.828125 13.0625 64.515625 
Q 19.53125 74.21875 31.78125 74.21875 
z
" id="DejaVuSans-30"/>
       <path d="M 12.40625 8.296875 
L 28.515625 8.296875 
L 28.515625 63.921875 
L 10.984375 60.40625 
L 10.984375 69.390625 
L 28.421875 72.90625 
L 38.28125 72.90625 
L 38.28125 8.296875 
L 54.390625 8.296875 
L 54.390625 0 
L 12.40625 0 
z
" id="DejaVuSans-31"/>
      </defs>
      <g transform="translate(33.621758 613.720813)rotate(-30)scale(0.1 -0.1)">
       <use xlink:href="#DejaVuSans-32"/>
       <use x="63.623047" xlink:href="#DejaVuSans-30"/>
       <use x="127.246094" xlink:href="#DejaVuSans-31"/>
       <use x="190.869141" xlink:href="#DejaVuSans-30"/>
      </g>
     </g>
    </g>
    <g id="xtick_2">
     <g id="line2d_2">
      <g>
       <use style="stroke:#000000;stroke-width:0.8;" x="163.337957" xlink:href="#m45789279a9" y="587.415373"/>
      </g>
     </g>
     <g id="text_2">
      <!-- 2011 -->
      <g transform="translate(140.257766 613.720813)rotate(-30)scale(0.1 -0.1)">
       <use xlink:href="#DejaVuSans-32"/>
       <use x="63.623047" xlink:href="#DejaVuSans-30"/>
       <use x="127.246094" xlink:href="#DejaVuSans-31"/>
       <use x="190.869141" xlink:href="#DejaVuSans-31"/>
      </g>
     </g>
    </g>
    <g id="xtick_3">
     <g id="line2d_3">
      <g>
       <use style="stroke:#000000;stroke-width:0.8;" x="269.973964" xlink:href="#m45789279a9" y="587.415373"/>
      </g>
     </g>
     <g id="text_3">
      <!-- 2012 -->
      <g transform="translate(246.893774 613.720813)rotate(-30)scale(0.1 -0.1)">
       <use xlink:href="#DejaVuSans-32"/>
       <use x="63.623047" xlink:href="#DejaVuSans-30"/>
       <use x="127.246094" xlink:href="#DejaVuSans-31"/>
       <use x="190.869141" xlink:href="#DejaVuSans-32"/>
      </g>
     </g>
    </g>
    <g id="xtick_4">
     <g id="line2d_4">
      <g>
       <use style="stroke:#000000;stroke-width:0.8;" x="376.902125" xlink:href="#m45789279a9" y="587.415373"/>
      </g>
     </g>
     <g id="text_4">
      <!-- 2013 -->
      <defs>
       <path d="M 40.578125 39.3125 
Q 47.65625 37.796875 51.625 33 
Q 55.609375 28.21875 55.609375 21.1875 
Q 55.609375 10.40625 48.1875 4.484375 
Q 40.765625 -1.421875 27.09375 -1.421875 
Q 22.515625 -1.421875 17.65625 -0.515625 
Q 12.796875 0.390625 7.625 2.203125 
L 7.625 11.71875 
Q 11.71875 9.328125 16.59375 8.109375 
Q 21.484375 6.890625 26.8125 6.890625 
Q 36.078125 6.890625 40.9375 10.546875 
Q 45.796875 14.203125 45.796875 21.1875 
Q 45.796875 27.640625 41.28125 31.265625 
Q 36.765625 34.90625 28.71875 34.90625 
L 20.21875 34.90625 
L 20.21875 43.015625 
L 29.109375 43.015625 
Q 36.375 43.015625 40.234375 45.921875 
Q 44.09375 48.828125 44.09375 54.296875 
Q 44.09375 59.90625 40.109375 62.90625 
Q 36.140625 65.921875 28.71875 65.921875 
Q 24.65625 65.921875 20.015625 65.03125 
Q 15.375 64.15625 9.8125 62.3125 
L 9.8125 71.09375 
Q 15.4375 72.65625 20.34375 73.4375 
Q 25.25 74.21875 29.59375 74.21875 
Q 40.828125 74.21875 47.359375 69.109375 
Q 53.90625 64.015625 53.90625 55.328125 
Q 53.90625 49.265625 50.4375 45.09375 
Q 46.96875 40.921875 40.578125 39.3125 
z
" id="DejaVuSans-33"/>
      </defs>
      <g transform="translate(353.821935 613.720813)rotate(-30)scale(0.1 -0.1)">
       <use xlink:href="#DejaVuSans-32"/>
       <use x="63.623047" xlink:href="#DejaVuSans-30"/>
       <use x="127.246094" xlink:href="#DejaVuSans-31"/>
       <use x="190.869141" xlink:href="#DejaVuSans-33"/>
      </g>
     </g>
    </g>
    <g id="xtick_5">
     <g id="line2d_5">
      <g>
       <use style="stroke:#000000;stroke-width:0.8;" x="483.538133" xlink:href="#m45789279a9" y="587.415373"/>
      </g>
     </g>
     <g id="text_5">
      <!-- 2014 -->
      <defs>
       <path d="M 37.796875 64.3125 
L 12.890625 25.390625 
L 37.796875 25.390625 
z
M 35.203125 72.90625 
L 47.609375 72.90625 
L 47.609375 25.390625 
L 58.015625 25.390625 
L 58.015625 17.1875 
L 47.609375 17.1875 
L 47.609375 0 
L 37.796875 0 
L 37.796875 17.1875 
L 4.890625 17.1875 
L 4.890625 26.703125 
z
" id="DejaVuSans-34"/>
      </defs>
      <g transform="translate(460.457943 613.720813)rotate(-30)scale(0.1 -0.1)">
       <use xlink:href="#DejaVuSans-32"/>
       <use x="63.623047" xlink:href="#DejaVuSans-30"/>
       <use x="127.246094" xlink:href="#DejaVuSans-31"/>
       <use x="190.869141" xlink:href="#DejaVuSans-34"/>
      </g>
     </g>
    </g>
    <g id="xtick_6">
     <g id="line2d_6">
      <g>
       <use style="stroke:#000000;stroke-width:0.8;" x="590.174141" xlink:href="#m45789279a9" y="587.415373"/>
      </g>
     </g>
     <g id="text_6">
      <!-- 2015 -->
      <defs>
       <path d="M 10.796875 72.90625 
L 49.515625 72.90625 
L 49.515625 64.59375 
L 19.828125 64.59375 
L 19.828125 46.734375 
Q 21.96875 47.46875 24.109375 47.828125 
Q 26.265625 48.1875 28.421875 48.1875 
Q 40.625 48.1875 47.75 41.5 
Q 54.890625 34.8125 54.890625 23.390625 
Q 54.890625 11.625 47.5625 5.09375 
Q 40.234375 -1.421875 26.90625 -1.421875 
Q 22.3125 -1.421875 17.546875 -0.640625 
Q 12.796875 0.140625 7.71875 1.703125 
L 7.71875 11.625 
Q 12.109375 9.234375 16.796875 8.0625 
Q 21.484375 6.890625 26.703125 6.890625 
Q 35.15625 6.890625 40.078125 11.328125 
Q 45.015625 15.765625 45.015625 23.390625 
Q 45.015625 31 40.078125 35.4375 
Q 35.15625 39.890625 26.703125 39.890625 
Q 22.75 39.890625 18.8125 39.015625 
Q 14.890625 38.140625 10.796875 36.28125 
z
" id="DejaVuSans-35"/>
      </defs>
      <g transform="translate(567.093951 613.720813)rotate(-30)scale(0.1 -0.1)">
       <use xlink:href="#DejaVuSans-32"/>
       <use x="63.623047" xlink:href="#DejaVuSans-30"/>
       <use x="127.246094" xlink:href="#DejaVuSans-31"/>
       <use x="190.869141" xlink:href="#DejaVuSans-35"/>
      </g>
     </g>
    </g>
    <g id="text_7">
     <!-- date -->
     <defs>
      <path d="M 45.40625 46.390625 
L 45.40625 75.984375 
L 54.390625 75.984375 
L 54.390625 0 
L 45.40625 0 
L 45.40625 8.203125 
Q 42.578125 3.328125 38.25 0.953125 
Q 33.9375 -1.421875 27.875 -1.421875 
Q 17.96875 -1.421875 11.734375 6.484375 
Q 5.515625 14.40625 5.515625 27.296875 
Q 5.515625 40.1875 11.734375 48.09375 
Q 17.96875 56 27.875 56 
Q 33.9375 56 38.25 53.625 
Q 42.578125 51.265625 45.40625 46.390625 
z
M 14.796875 27.296875 
Q 14.796875 17.390625 18.875 11.75 
Q 22.953125 6.109375 30.078125 6.109375 
Q 37.203125 6.109375 41.296875 11.75 
Q 45.40625 17.390625 45.40625 27.296875 
Q 45.40625 37.203125 41.296875 42.84375 
Q 37.203125 48.484375 30.078125 48.484375 
Q 22.953125 48.484375 18.875 42.84375 
Q 14.796875 37.203125 14.796875 27.296875 
z
" id="DejaVuSans-64"/>
      <path d="M 34.28125 27.484375 
Q 23.390625 27.484375 19.1875 25 
Q 14.984375 22.515625 14.984375 16.5 
Q 14.984375 11.71875 18.140625 8.90625 
Q 21.296875 6.109375 26.703125 6.109375 
Q 34.1875 6.109375 38.703125 11.40625 
Q 43.21875 16.703125 43.21875 25.484375 
L 43.21875 27.484375 
z
M 52.203125 31.203125 
L 52.203125 0 
L 43.21875 0 
L 43.21875 8.296875 
Q 40.140625 3.328125 35.546875 0.953125 
Q 30.953125 -1.421875 24.3125 -1.421875 
Q 15.921875 -1.421875 10.953125 3.296875 
Q 6 8.015625 6 15.921875 
Q 6 25.140625 12.171875 29.828125 
Q 18.359375 34.515625 30.609375 34.515625 
L 43.21875 34.515625 
L 43.21875 35.40625 
Q 43.21875 41.609375 39.140625 45 
Q 35.0625 48.390625 27.6875 48.390625 
Q 23 48.390625 18.546875 47.265625 
Q 14.109375 46.140625 10.015625 43.890625 
L 10.015625 52.203125 
Q 14.9375 54.109375 19.578125 55.046875 
Q 24.21875 56 28.609375 56 
Q 40.484375 56 46.34375 49.84375 
Q 52.203125 43.703125 52.203125 31.203125 
z
" id="DejaVuSans-61"/>
      <path d="M 18.3125 70.21875 
L 18.3125 54.6875 
L 36.8125 54.6875 
L 36.8125 47.703125 
L 18.3125 47.703125 
L 18.3125 18.015625 
Q 18.3125 11.328125 20.140625 9.421875 
Q 21.96875 7.515625 27.59375 7.515625 
L 36.8125 7.515625 
L 36.8125 0 
L 27.59375 0 
Q 17.1875 0 13.234375 3.875 
Q 9.28125 7.765625 9.28125 18.015625 
L 9.28125 47.703125 
L 2.6875 47.703125 
L 2.6875 54.6875 
L 9.28125 54.6875 
L 9.28125 70.21875 
z
" id="DejaVuSans-74"/>
      <path d="M 56.203125 29.59375 
L 56.203125 25.203125 
L 14.890625 25.203125 
Q 15.484375 15.921875 20.484375 11.0625 
Q 25.484375 6.203125 34.421875 6.203125 
Q 39.59375 6.203125 44.453125 7.46875 
Q 49.3125 8.734375 54.109375 11.28125 
L 54.109375 2.78125 
Q 49.265625 0.734375 44.1875 -0.34375 
Q 39.109375 -1.421875 33.890625 -1.421875 
Q 20.796875 -1.421875 13.15625 6.1875 
Q 5.515625 13.8125 5.515625 26.8125 
Q 5.515625 40.234375 12.765625 48.109375 
Q 20.015625 56 32.328125 56 
Q 43.359375 56 49.78125 48.890625 
Q 56.203125 41.796875 56.203125 29.59375 
z
M 47.21875 32.234375 
Q 47.125 39.59375 43.09375 43.984375 
Q 39.0625 48.390625 32.421875 48.390625 
Q 24.90625 48.390625 20.390625 44.140625 
Q 15.875 39.890625 15.1875 32.171875 
z
" id="DejaVuSans-65"/>
     </defs>
     <g transform="translate(316.8375 627.120313)scale(0.1 -0.1)">
      <use xlink:href="#DejaVuSans-64"/>
      <use x="63.476562" xlink:href="#DejaVuSans-61"/>
      <use x="124.755859" xlink:href="#DejaVuSans-74"/>
      <use x="163.964844" xlink:href="#DejaVuSans-65"/>
     </g>
    </g>
   </g>
   <g id="matplotlib.axis_2">
    <g id="ytick_1">
     <g id="line2d_7">
      <defs>
       <path d="M 0 0 
L -3.5 0 
" id="mb44a65a38d" style="stroke:#000000;stroke-width:0.8;"/>
      </defs>
      <g>
       <use style="stroke:#000000;stroke-width:0.8;" x="30.525" xlink:href="#mb44a65a38d" y="573.144497"/>
      </g>
     </g>
     <g id="text_8">
      <!-- 10 -->
      <g transform="translate(10.8 576.943716)scale(0.1 -0.1)">
       <use xlink:href="#DejaVuSans-31"/>
       <use x="63.623047" xlink:href="#DejaVuSans-30"/>
      </g>
     </g>
    </g>
    <g id="ytick_2">
     <g id="line2d_8">
      <g>
       <use style="stroke:#000000;stroke-width:0.8;" x="30.525" xlink:href="#mb44a65a38d" y="465.072728"/>
      </g>
     </g>
     <g id="text_9">
      <!-- 20 -->
      <g transform="translate(10.8 468.871947)scale(0.1 -0.1)">
       <use xlink:href="#DejaVuSans-32"/>
       <use x="63.623047" xlink:href="#DejaVuSans-30"/>
      </g>
     </g>
    </g>
    <g id="ytick_3">
     <g id="line2d_9">
      <g>
       <use style="stroke:#000000;stroke-width:0.8;" x="30.525" xlink:href="#mb44a65a38d" y="357.000959"/>
      </g>
     </g>
     <g id="text_10">
      <!-- 30 -->
      <g transform="translate(10.8 360.800178)scale(0.1 -0.1)">
       <use xlink:href="#DejaVuSans-33"/>
       <use x="63.623047" xlink:href="#DejaVuSans-30"/>
      </g>
     </g>
    </g>
    <g id="ytick_4">
     <g id="line2d_10">
      <g>
       <use style="stroke:#000000;stroke-width:0.8;" x="30.525" xlink:href="#mb44a65a38d" y="248.929191"/>
      </g>
     </g>
     <g id="text_11">
      <!-- 40 -->
      <g transform="translate(10.8 252.72841)scale(0.1 -0.1)">
       <use xlink:href="#DejaVuSans-34"/>
       <use x="63.623047" xlink:href="#DejaVuSans-30"/>
      </g>
     </g>
    </g>
    <g id="ytick_5">
     <g id="line2d_11">
      <g>
       <use style="stroke:#000000;stroke-width:0.8;" x="30.525" xlink:href="#mb44a65a38d" y="140.857422"/>
      </g>
     </g>
     <g id="text_12">
      <!-- 50 -->
      <g transform="translate(10.8 144.656641)scale(0.1 -0.1)">
       <use xlink:href="#DejaVuSans-35"/>
       <use x="63.623047" xlink:href="#DejaVuSans-30"/>
      </g>
     </g>
    </g>
    <g id="ytick_6">
     <g id="line2d_12">
      <g>
       <use style="stroke:#000000;stroke-width:0.8;" x="30.525" xlink:href="#mb44a65a38d" y="32.785653"/>
      </g>
     </g>
     <g id="text_13">
      <!-- 60 -->
      <defs>
       <path d="M 33.015625 40.375 
Q 26.375 40.375 22.484375 35.828125 
Q 18.609375 31.296875 18.609375 23.390625 
Q 18.609375 15.53125 22.484375 10.953125 
Q 26.375 6.390625 33.015625 6.390625 
Q 39.65625 6.390625 43.53125 10.953125 
Q 47.40625 15.53125 47.40625 23.390625 
Q 47.40625 31.296875 43.53125 35.828125 
Q 39.65625 40.375 33.015625 40.375 
z
M 52.59375 71.296875 
L 52.59375 62.3125 
Q 48.875 64.0625 45.09375 64.984375 
Q 41.3125 65.921875 37.59375 65.921875 
Q 27.828125 65.921875 22.671875 59.328125 
Q 17.53125 52.734375 16.796875 39.40625 
Q 19.671875 43.65625 24.015625 45.921875 
Q 28.375 48.1875 33.59375 48.1875 
Q 44.578125 48.1875 50.953125 41.515625 
Q 57.328125 34.859375 57.328125 23.390625 
Q 57.328125 12.15625 50.6875 5.359375 
Q 44.046875 -1.421875 33.015625 -1.421875 
Q 20.359375 -1.421875 13.671875 8.265625 
Q 6.984375 17.96875 6.984375 36.375 
Q 6.984375 53.65625 15.1875 63.9375 
Q 23.390625 74.21875 37.203125 74.21875 
Q 40.921875 74.21875 44.703125 73.484375 
Q 48.484375 72.75 52.59375 71.296875 
z
" id="DejaVuSans-36"/>
      </defs>
      <g transform="translate(10.8 36.584872)scale(0.1 -0.1)">
       <use xlink:href="#DejaVuSans-36"/>
       <use x="63.623047" xlink:href="#DejaVuSans-30"/>
      </g>
     </g>
    </g>
   </g>
   <g id="line2d_13">
    <path clip-path="url(#p8d9e12cf98)" d="M 57.578409 422.924738 
L 57.870563 425.626533 
L 58.162716 427.247609 
L 58.454869 430.165569 
L 58.747023 427.139548 
L 59.623483 427.787968 
L 59.915637 430.597834 
L 60.20779 426.166891 
L 60.499944 433.948059 
L 60.792097 438.379023 
L 61.960711 429.841342 
L 62.252864 440.972724 
L 62.545018 420.439109 
L 62.837171 426.383057 
L 63.713631 425.194246 
L 64.005785 421.087529 
L 64.297938 422.168247 
L 64.590092 429.084851 
L 64.882245 432.435065 
L 65.758706 430.813988 
L 66.050859 431.786645 
L 66.343012 430.165569 
L 66.635166 438.595156 
L 66.927319 435.78529 
L 67.80378 438.162858 
L 68.095933 439.459741 
L 68.388087 443.890672 
L 68.68024 442.053441 
L 68.972393 445.944047 
L 70.725314 434.380346 
L 71.017468 428.112194 
L 71.893928 429.62521 
L 72.186081 433.839987 
L 72.478235 429.841342 
L 72.770388 432.651198 
L 73.062542 432.435065 
L 73.939002 423.140904 
L 74.231156 421.952092 
L 74.523309 427.139548 
L 74.815462 424.221621 
L 75.107616 415.03551 
L 75.984076 412.766014 
L 76.27623 405.525184 
L 76.568383 404.984825 
L 76.860537 406.281708 
L 77.15269 400.553893 
L 78.02915 397.203668 
L 78.321304 391.692008 
L 78.613457 389.638644 
L 78.905611 384.451189 
L 79.197764 387.369137 
L 80.074224 388.665988 
L 80.366378 388.882153 
L 80.658531 390.070932 
L 80.950685 383.370493 
L 81.242838 384.559282 
L 82.119299 386.396491 
L 82.703605 389.746705 
L 82.995759 394.069576 
L 84.164373 385.423835 
L 84.456526 386.504552 
L 85.040833 395.258366 
L 85.332986 394.285741 
L 86.209447 393.421156 
L 86.5016 393.313085 
L 86.793754 388.990214 
L 87.085907 389.638644 
L 87.378061 396.663309 
L 88.254521 396.77137 
L 88.546674 395.906818 
L 88.838828 397.095596 
L 89.130981 413.414434 
L 89.423135 415.900073 
L 90.299595 415.792012 
L 90.591748 424.329682 
L 91.176055 419.250298 
L 91.468209 424.221621 
L 92.344669 422.816677 
L 92.636823 431.786645 
L 93.221129 440.540458 
L 93.513283 449.078106 
L 94.389743 439.892006 
L 94.681897 439.351647 
L 95.266204 436.109494 
L 95.558357 440.756591 
L 96.434817 437.946725 
L 96.726971 441.621176 
L 97.019124 447.348958 
L 97.311278 456.318937 
L 97.603431 449.726537 
L 98.479892 450.374978 
L 98.772045 447.889317 
L 99.064198 450.158824 
L 99.356352 444.431031 
L 99.648505 449.83462 
L 100.817119 454.697849 
L 101.109273 451.563768 
L 101.401426 441.513083 
L 101.693579 443.566446 
L 102.57004 448.321615 
L 103.154347 445.835953 
L 103.738654 436.43372 
L 104.615114 441.188878 
L 104.907267 439.243575 
L 105.199421 442.053441 
L 105.491574 442.377668 
L 105.783728 441.729237 
L 106.660188 444.863329 
L 107.536648 455.778578 
L 107.828802 454.805921 
L 108.705262 457.399654 
L 108.997416 468.422964 
L 109.289569 469.287527 
L 109.581722 468.963323 
L 109.873876 473.070039 
L 111.04249 472.097404 
L 111.334643 467.126092 
L 111.626797 466.261528 
L 111.91895 461.938658 
L 112.79541 462.695149 
L 113.087564 454.15749 
L 113.379717 453.076773 
L 113.671871 453.941336 
L 113.964024 464.100093 
L 114.840484 460.749868 
L 115.132638 456.535069 
L 115.424791 463.235508 
L 115.716945 454.913993 
L 116.009098 453.292916 
L 116.885559 452.752557 
L 117.177712 453.833275 
L 117.469866 453.833275 
L 117.762019 456.751202 
L 118.054172 455.238219 
L 118.930633 449.294261 
L 119.222786 454.589767 
L 119.51494 453.184844 
L 119.807093 453.509049 
L 120.099247 449.402333 
L 120.975707 443.674518 
L 121.26786 444.431031 
L 121.560014 451.563768 
L 121.852167 447.889317 
L 122.144321 448.861974 
L 123.020781 442.918026 
L 123.605088 435.461064 
L 123.897241 431.246286 
L 124.189395 428.652553 
L 125.065855 429.733271 
L 125.358009 434.056141 
L 125.650162 430.92206 
L 125.942315 435.569135 
L 126.234469 430.705927 
L 127.110929 431.246286 
L 127.403083 430.165569 
L 127.695236 421.519827 
L 127.98739 421.195601 
L 128.279543 420.439109 
L 129.448157 426.923415 
L 129.74031 415.683941 
L 130.324617 420.763303 
L 131.201077 418.601868 
L 131.785384 419.790657 
L 132.077538 422.924738 
L 132.369691 419.466453 
L 133.538305 413.846731 
L 133.830458 418.169581 
L 134.122612 419.142226 
L 134.414765 413.846731 
L 135.291226 413.522505 
L 135.875533 411.144937 
L 136.167686 417.52115 
L 136.459839 416.87273 
L 137.3363 420.979468 
L 137.628453 415.467808 
L 137.920607 416.980791 
L 138.21276 413.738638 
L 138.504914 415.251643 
L 139.381374 418.709939 
L 139.673527 416.980791 
L 140.549988 403.687974 
L 141.426448 403.255687 
L 141.718602 405.309051 
L 142.010755 403.904107 
L 142.302908 387.261076 
L 142.595062 377.858811 
L 143.471522 379.371816 
L 144.055829 364.782127 
L 144.347983 360.026991 
L 144.640136 358.513975 
L 145.516596 363.917563 
L 145.80875 356.244479 
L 146.393057 355.379894 
L 146.68521 347.598726 
L 147.56167 347.922931 
L 147.853824 351.273177 
L 148.145977 346.950307 
L 148.438131 348.46329 
L 148.730284 355.487955 
L 149.606745 356.35254 
L 149.898898 359.486632 
L 150.483205 350.84089 
L 150.775358 353.758817 
L 151.651819 350.084366 
L 151.943972 355.055668 
L 152.236126 343.924286 
L 152.820432 344.572717 
L 153.696893 354.515309 
L 153.989046 366.295142 
L 154.2812 364.998281 
L 154.573353 357.973616 
L 154.865507 361.215769 
L 155.741967 362.51263 
L 156.03412 357.00097 
L 156.618427 353.218458 
L 156.910581 349.544007 
L 157.787041 353.97495 
L 158.079194 348.895588 
L 158.371348 354.947596 
L 158.663501 351.273177 
L 158.955655 358.946273 
L 159.832115 361.539974 
L 160.124269 371.590659 
L 160.416422 372.455222 
L 160.708575 375.157017 
L 161.877189 375.26511 
L 162.169343 374.832812 
L 162.461496 374.724751 
L 163.045803 380.452544 
L 163.922263 371.266433 
L 164.214417 373.53594 
L 164.50657 370.726074 
L 164.798724 374.076299 
L 165.090877 381.857477 
L 165.967338 375.805469 
L 166.259491 374.724751 
L 166.551644 369.645356 
L 166.843798 370.942239 
L 167.135951 365.862845 
L 168.304565 362.944918 
L 168.596719 366.727429 
L 168.888872 348.571383 
L 169.181025 356.784838 
L 170.057486 351.48931 
L 170.349639 347.166439 
L 170.641793 345.545363 
L 170.933946 346.62608 
L 171.2261 353.650745 
L 172.10256 353.110387 
L 172.394713 339.277189 
L 172.97902 334.846247 
L 173.271174 333.117109 
L 174.147634 332.792905 
L 174.439787 328.470034 
L 174.731941 335.926965 
L 175.024094 308.476746 
L 175.316248 308.260592 
L 176.192708 315.285257 
L 176.484862 308.800951 
L 176.777015 308.800951 
L 177.069168 306.315311 
L 177.361322 308.044459 
L 178.529936 317.554786 
L 178.822089 326.200505 
L 179.114243 323.606805 
L 179.406396 317.770918 
L 180.282856 319.067769 
L 180.57501 332.252546 
L 181.159317 325.335942 
L 181.45147 335.278545 
L 182.32793 340.790194 
L 182.620084 338.952985 
L 183.204391 345.32923 
L 183.496544 347.058368 
L 184.373005 348.679455 
L 184.665158 352.245802 
L 184.957312 359.918897 
L 185.249465 357.541329 
L 185.541618 351.921608 
L 186.418079 350.732819 
L 186.710232 354.623402 
L 187.002386 349.760173 
L 187.294539 337.980339 
L 187.586693 338.628759 
L 188.463153 353.326519 
L 189.04746 339.385283 
L 189.339613 345.761496 
L 189.631767 342.30321 
L 190.508227 341.978984 
L 190.80038 337.115754 
L 191.092534 337.007682 
L 191.676841 344.680778 
L 192.553301 344.140419 
L 192.845455 349.435946 
L 193.137608 349.760173 
L 193.429761 347.81487 
L 193.721915 339.601416 
L 194.598375 344.572717 
L 194.890529 344.572717 
L 195.182682 337.980339 
L 195.474836 335.926965 
L 196.643449 325.011716 
L 196.935603 323.714866 
L 197.227756 313.448047 
L 197.51991 313.772274 
L 197.812063 309.557464 
L 198.688523 317.662857 
L 198.980677 318.743575 
L 199.564984 328.037736 
L 199.857137 327.605449 
L 200.733598 323.282578 
L 201.025751 314.528765 
L 201.317904 321.229204 
L 201.610058 318.311277 
L 201.902211 318.419349 
L 202.778672 331.387961 
L 203.362979 325.876301 
L 203.655132 325.660147 
L 203.947285 330.199182 
L 204.823746 339.385283 
L 205.115899 348.139096 
L 205.408053 349.435946 
L 205.700206 349.868234 
L 205.99236 349.652101 
L 207.160973 344.356573 
L 207.453127 350.084366 
L 207.74528 343.167795 
L 208.037434 353.758817 
L 208.913894 361.756128 
L 209.206048 357.865555 
L 209.498201 350.84089 
L 209.790354 349.868234 
L 210.082508 357.433257 
L 210.958968 358.513975 
L 211.251122 359.594693 
L 211.543275 371.482598 
L 211.835429 373.53594 
L 212.127582 369.645356 
L 213.004042 369.753428 
L 213.296196 359.378538 
L 213.588349 364.025635 
L 213.880503 365.106353 
L 214.172656 374.832812 
L 215.049116 370.942239 
L 215.34127 368.240445 
L 215.925577 332.468679 
L 216.21773 327.389316 
L 217.386344 328.470034 
L 217.678497 325.444014 
L 217.970651 321.013071 
L 218.262804 320.040425 
L 219.139265 325.552075 
L 219.431418 332.576751 
L 219.723572 331.2799 
L 220.015725 333.333264 
L 220.307878 326.632803 
L 221.184339 327.821582 
L 221.476492 316.365974 
L 221.768646 322.74222 
L 222.060799 319.824293 
L 222.352953 319.175862 
L 223.229413 315.933709 
L 223.521566 309.233249 
L 223.81372 320.688845 
L 224.105873 320.796917 
L 224.398027 327.281223 
L 225.274487 324.363296 
L 225.56664 338.0884 
L 225.858794 332.684812 
L 226.150947 356.568672 
L 227.319561 389.962871 
L 227.611715 355.271822 
L 227.903868 366.187071 
L 228.196022 354.839535 
L 228.488175 351.273177 
L 229.364635 347.382572 
L 229.656789 353.110387 
L 229.948942 354.299176 
L 230.241096 379.263755 
L 230.533249 387.693342 
L 231.409709 385.531906 
L 231.701863 368.672711 
L 231.994016 367.267788 
L 232.28617 375.048945 
L 232.578323 362.836846 
L 233.746937 346.734152 
L 234.03909 347.598726 
L 234.331244 352.786161 
L 234.623397 363.377205 
L 235.792011 364.89022 
L 236.084165 359.702765 
L 236.376318 351.48931 
L 236.668471 373.644033 
L 237.544932 363.269144 
L 237.837085 363.485276 
L 238.129239 355.487955 
L 238.713546 317.122498 
L 239.590006 323.498711 
L 240.174313 332.792905 
L 240.466466 338.952985 
L 240.75862 334.522053 
L 241.63508 329.442658 
L 241.927233 329.766885 
L 242.51154 349.760173 
L 242.803694 362.51263 
L 243.680154 377.426545 
L 244.556614 341.438625 
L 244.848768 345.437291 
L 246.017382 326.41666 
L 246.309535 327.281223 
L 246.601689 327.389316 
L 246.893842 317.122498 
L 247.770302 322.201861 
L 248.062456 315.177196 
L 248.354609 322.634148 
L 248.646763 333.765529 
L 248.938916 334.089755 
L 249.815376 331.387961 
L 250.399683 345.32923 
L 250.98399 321.877635 
L 251.860451 337.223847 
L 252.152604 347.382572 
L 252.444758 337.764206 
L 252.736911 324.03907 
L 253.029064 327.713521 
L 253.905525 330.307243 
L 254.197678 325.444014 
L 254.489832 344.248512 
L 254.781985 348.895588 
L 255.074139 337.980339 
L 255.950599 341.762851 
L 256.242752 341.330553 
L 256.827059 360.783482 
L 257.119213 359.054334 
L 257.995673 370.509941 
L 258.287826 367.37586 
L 258.57998 372.671377 
L 259.164287 376.129663 
L 260.040747 360.67541 
L 260.332901 370.509941 
L 260.625054 361.431902 
L 260.917207 360.459256 
L 261.209361 361.323841 
L 262.085821 349.435946 
L 262.377975 347.274511 
L 262.670128 346.842213 
L 262.962282 345.869589 
L 263.254435 339.277189 
L 264.130895 344.788871 
L 264.423049 347.922931 
L 265.007356 361.323841 
L 265.299509 352.6781 
L 266.175969 359.486632 
L 266.468123 350.19246 
L 266.760276 353.326519 
L 267.344583 347.922931 
L 268.513197 347.058368 
L 268.80535 352.570028 
L 269.389657 353.434591 
L 270.558271 342.519342 
L 270.850425 355.271822 
L 271.142578 349.327875 
L 271.434731 350.19246 
L 272.311192 351.48931 
L 272.603345 344.032347 
L 272.895499 340.574061 
L 273.187652 339.925642 
L 273.479806 350.300531 
L 274.648419 351.273177 
L 274.940573 353.326519 
L 275.232726 340.682133 
L 275.52488 336.14313 
L 276.40134 335.494699 
L 276.693494 335.926965 
L 276.985647 336.035058 
L 277.2778 338.520698 
L 277.569954 337.007682 
L 278.446414 339.925642 
L 278.738568 339.709476 
L 279.322875 327.821582 
L 279.615028 325.119788 
L 280.491488 328.470034 
L 281.367949 321.769563 
L 281.660102 324.255224 
L 282.536562 322.850281 
L 282.828716 325.011716 
L 283.120869 321.229204 
L 283.413023 308.260592 
L 283.705176 302.316666 
L 284.87379 301.452081 
L 285.165943 306.531443 
L 285.458097 291.941755 
L 285.75025 288.267336 
L 286.918864 285.45747 
L 287.211018 294.967775 
L 287.503171 288.159243 
L 287.795324 289.456115 
L 288.671785 295.183908 
L 288.963938 301.776307 
L 289.256092 296.588852 
L 289.548245 294.535488 
L 289.840399 289.456115 
L 290.716859 290.212606 
L 291.009012 277.784353 
L 291.301166 274.650293 
L 291.593319 283.187941 
L 291.885473 273.89378 
L 292.761933 272.813052 
L 293.054086 277.135933 
L 293.34624 276.811729 
L 293.638393 274.650293 
L 293.930547 280.378086 
L 294.807007 269.678992 
L 295.099161 271.948499 
L 295.391314 278.75701 
L 295.683468 281.458804 
L 295.975621 282.43145 
L 296.852081 285.781675 
L 297.144235 285.349377 
L 297.436388 295.075847 
L 297.728542 296.264625 
L 298.897155 288.915756 
L 299.189309 297.885702 
L 299.481462 294.751642 
L 299.773616 287.186619 
L 300.065769 290.861037 
L 300.94223 297.561508 
L 301.234383 291.293335 
L 301.526536 293.562831 
L 301.81869 242.228774 
L 302.110843 245.795109 
L 302.987304 252.711735 
L 303.279457 256.494247 
L 303.571611 250.442206 
L 303.863764 237.581677 
L 304.155917 235.636374 
L 305.032378 237.905903 
L 305.324531 240.82383 
L 305.616685 236.392866 
L 306.200992 254.98121 
L 307.077452 248.172678 
L 307.369605 246.875827 
L 307.661759 242.877183 
L 307.953912 235.852507 
L 308.246066 240.93188 
L 309.414679 248.388864 
L 309.706833 250.442206 
L 310.29114 266.652972 
L 311.1676 254.224718 
L 311.459754 257.358778 
L 311.751907 252.387509 
L 312.04406 252.603642 
L 312.336214 245.146711 
L 313.504828 232.826486 
L 313.796981 253.360133 
L 314.381288 261.681649 
L 315.257748 258.00723 
L 315.549902 251.522924 
L 315.842055 238.770445 
L 316.134209 239.202753 
L 316.426362 237.581677 
L 317.302823 238.878527 
L 317.594976 239.094671 
L 317.887129 247.092003 
L 318.179283 247.524279 
L 319.347897 222.01931 
L 319.64005 211.104093 
L 319.932204 217.048041 
L 320.224357 229.152068 
L 320.51651 218.669117 
L 321.392971 229.368201 
L 321.685124 221.91127 
L 321.977278 224.180745 
L 322.269431 240.499604 
L 322.561585 227.206765 
L 323.438045 235.744467 
L 323.730198 235.9606 
L 324.314505 238.878527 
L 324.606659 244.498259 
L 325.483119 241.580332 
L 325.775272 252.387509 
L 326.067426 258.331456 
L 326.359579 256.386154 
L 326.651733 249.469582 
L 327.528193 264.059271 
L 327.820347 258.979854 
L 328.1125 243.9579 
L 328.404653 206.240864 
L 328.696807 196.514394 
L 329.573267 203.106793 
L 329.865421 210.887961 
L 330.157574 214.45434 
L 330.449728 207.970023 
L 330.741881 192.515749 
L 331.618341 188.409011 
L 331.910495 202.458341 
L 332.202648 206.889305 
L 332.494802 208.186156 
L 332.786955 200.296906 
L 333.663415 197.378979 
L 333.955569 188.300918 
L 334.539876 202.782567 
L 334.832029 205.808587 
L 335.70849 191.435031 
L 336.000643 191.002712 
L 336.292796 195.10945 
L 336.877103 174.683907 
L 337.753564 179.76327 
L 338.045717 185.707217 
L 338.337871 173.278963 
L 338.630024 175.332349 
L 338.922177 172.198246 
L 340.090791 173.927416 
L 340.382945 167.983458 
L 340.675098 178.142193 
L 340.967252 168.19959 
L 342.135865 169.388401 
L 342.428019 171.549837 
L 342.720172 152.637277 
L 343.012326 149.070898 
L 344.473093 162.579869 
L 345.0574 141.181648 
L 345.93386 135.67001 
L 346.226014 141.289742 
L 346.518167 136.642645 
L 346.810321 139.99288 
L 347.102474 146.585237 
L 347.978934 148.314407 
L 348.271088 162.14755 
L 348.563241 167.443099 
L 348.855395 150.367749 
L 349.147548 158.473131 
L 350.024008 159.986114 
L 350.608315 156.095563 
L 350.900469 146.369104 
L 351.192622 154.582526 
L 352.069083 163.336361 
L 352.361236 181.708572 
L 353.237696 164.092852 
L 354.114157 168.956093 
L 354.40631 159.878075 
L 354.698464 160.31034 
L 354.990617 131.887498 
L 355.28277 141.181648 
L 356.159231 139.236346 
L 356.451384 147.882087 
L 357.035691 158.797357 
L 357.327845 146.152971 
L 358.788612 159.661942 
L 359.080765 149.287031 
L 359.372919 155.014845 
L 360.541532 146.369104 
L 360.833686 158.148905 
L 361.125839 163.87672 
L 361.417993 165.389714 
L 362.294453 168.19959 
L 362.586607 165.281663 
L 362.87876 179.006778 
L 363.170914 178.466419 
L 363.463067 170.469119 
L 364.339527 163.336361 
L 364.923834 155.663244 
L 365.508141 151.55656 
L 366.384601 125.727364 
L 366.676755 128.429169 
L 366.968908 124.970872 
L 367.553215 110.381183 
L 368.429676 118.810792 
L 368.721829 119.351151 
L 369.013982 119.026925 
L 369.306136 119.351151 
L 369.598289 122.052945 
L 370.47475 128.213025 
L 370.766903 119.351151 
L 371.059057 120.756095 
L 371.643363 136.96686 
L 372.519824 126.700042 
L 372.811977 120.215736 
L 373.104131 126.375816 
L 373.396284 117.730074 
L 373.688438 126.267722 
L 374.564898 129.185703 
L 375.149205 138.263721 
L 375.441358 137.723362 
L 375.733512 142.910818 
L 376.609972 130.050245 
L 377.194279 102.059668 
L 377.486432 114.379882 
L 377.778586 110.813503 
L 378.655046 102.924253 
L 378.9472 111.89422 
L 379.239353 111.029636 
L 379.531506 108.435935 
L 379.82366 100.8709 
L 380.70012 106.490632 
L 380.992274 113.73143 
L 381.284427 109.516652 
L 381.576581 95.791495 
L 381.868734 95.359218 
L 383.037348 104.437236 
L 383.329501 104.329197 
L 383.913808 70.286579 
L 384.790269 76.554752 
L 385.082422 79.688812 
L 385.374575 78.391961 
L 385.666729 76.338619 
L 385.958882 62.937688 
L 386.835343 79.364586 
L 387.127496 71.47539 
L 387.41965 74.825582 
L 387.711803 74.609449 
L 388.003956 69.313944 
L 388.880417 71.583429 
L 389.464724 64.666847 
L 389.756877 67.044426 
L 390.049031 68.449369 
L 391.217644 68.665502 
L 391.801951 90.928254 
L 392.094105 86.605437 
L 392.970565 101.843535 
L 393.262718 99.574006 
L 393.554872 96.00767 
L 393.847025 89.95563 
L 395.015639 81.634114 
L 395.307793 84.011683 
L 395.599946 102.275801 
L 395.892099 108.652067 
L 396.184253 107.030991 
L 397.060713 111.029636 
L 397.352867 108.8682 
L 397.64502 130.266421 
L 397.937174 121.404493 
L 398.229327 136.426501 
L 399.105787 139.668665 
L 399.982248 109.300466 
L 400.274401 105.517954 
L 401.150861 126.700042 
L 401.443015 118.270433 
L 401.735168 118.486566 
L 402.027322 95.251136 
L 403.488089 74.285223 
L 403.780242 81.417982 
L 404.072396 78.283868 
L 404.364549 81.201849 
L 405.24101 77.419337 
L 405.533163 75.257902 
L 405.825317 61.965053 
L 406.11747 56.777597 
L 407.286084 77.743509 
L 407.578237 65.099123 
L 407.870391 74.933676 
L 408.162544 110.381183 
L 408.454698 115.02828 
L 409.331158 123.241756 
L 409.623311 113.947562 
L 409.915465 108.760107 
L 410.207618 115.352506 
L 410.499772 113.407204 
L 411.376232 110.165051 
L 411.668386 115.02828 
L 411.960539 114.920241 
L 412.252692 102.491977 
L 412.544846 95.359218 
L 413.421306 96.656079 
L 413.71346 98.277156 
L 414.005613 87.253836 
L 414.297767 84.984361 
L 414.58992 79.796905 
L 415.46638 83.255191 
L 415.758534 73.096466 
L 416.050687 68.989728 
L 416.342841 78.175829 
L 416.634994 68.341276 
L 417.511454 76.554752 
L 417.803608 87.361929 
L 418.095761 93.305876 
L 418.387915 92.441291 
L 418.680068 90.712121 
L 419.848682 81.093756 
L 420.140835 86.281211 
L 420.432989 85.740852 
L 420.725142 96.548029 
L 421.601603 104.004971 
L 421.893756 112.866845 
L 422.18591 126.159683 
L 422.478063 124.430513 
L 422.770216 125.187005 
L 423.646677 105.73414 
L 424.230984 132.752039 
L 424.523137 124.862833 
L 424.815291 126.916175 
L 425.691751 118.486566 
L 425.983904 113.191071 
L 426.276058 116.75745 
L 426.568211 132.860122 
L 426.860365 128.645345 
L 427.736825 131.995548 
L 428.028978 123.133663 
L 428.321132 126.483909 
L 428.613285 117.730074 
L 428.905439 122.269078 
L 430.074053 104.869555 
L 430.366206 106.598671 
L 430.950513 99.249824 
L 431.826973 100.762817 
L 432.119127 92.333198 
L 432.41128 88.118421 
L 432.995587 64.774897 
L 433.872047 71.151164 
L 434.164201 67.260558 
L 434.456354 61.100468 
L 434.748508 102.816159 
L 435.040661 117.189716 
L 435.917122 115.892865 
L 436.209275 123.133663 
L 436.501428 118.162394 
L 436.793582 124.646646 
L 437.085735 116.541317 
L 437.962196 123.133663 
L 438.254349 119.459244 
L 438.546503 122.593304 
L 438.838656 114.812147 
L 439.130809 113.407204 
L 440.00727 111.569994 
L 440.299423 100.8709 
L 440.591577 108.327841 
L 440.88373 102.275801 
L 441.175884 104.869555 
L 442.052344 105.409914 
L 442.344497 96.331853 
L 442.636651 95.143086 
L 442.928804 106.490632 
L 444.097418 118.486566 
L 444.389571 119.351151 
L 444.681725 130.482554 
L 444.973878 129.185703 
L 445.266032 123.025569 
L 446.142492 119.675377 
L 446.434646 134.265066 
L 446.726799 136.210368 
L 447.018952 130.158328 
L 447.311106 140.965515 
L 448.47972 137.399136 
L 448.771873 125.187005 
L 449.064027 119.783416 
L 449.35618 110.273144 
L 450.23264 112.00226 
L 450.816947 94.602727 
L 451.401254 99.574006 
L 452.277715 101.411259 
L 452.569868 90.820215 
L 452.862021 90.279856 
L 453.154175 92.765517 
L 453.446328 87.361929 
L 454.322789 89.415271 
L 454.614942 84.984361 
L 454.907096 95.359218 
L 455.199249 69.097768 
L 455.491402 78.391961 
L 456.367863 78.175829 
L 456.660016 76.338619 
L 456.95217 80.013038 
L 457.244323 87.794194 
L 457.536477 80.553397 
L 458.412937 91.468624 
L 458.70509 108.760107 
L 458.997244 115.676732 
L 459.581551 93.630059 
L 460.458011 89.307178 
L 460.750164 97.95293 
L 461.042318 102.816159 
L 461.334471 125.94355 
L 461.626625 117.081676 
L 462.795239 121.080321 
L 463.087392 122.161038 
L 463.379545 115.568639 
L 463.671699 123.133663 
L 464.548159 119.567284 
L 464.840313 104.761462 
L 465.132466 111.353862 
L 465.42462 111.569994 
L 465.716773 119.89151 
L 466.593233 126.05159 
L 466.885387 129.185703 
L 467.17754 105.409914 
L 467.469694 113.082977 
L 467.761847 108.435935 
L 468.638307 110.381183 
L 468.930461 110.273144 
L 469.222614 108.111709 
L 469.514768 109.732785 
L 469.806921 112.758805 
L 470.683382 118.378527 
L 470.975535 117.838168 
L 471.267688 136.642645 
L 471.559842 138.587947 
L 471.851995 137.291086 
L 473.020609 154.258354 
L 473.89707 135.237701 
L 474.77353 126.267722 
L 475.065683 119.999603 
L 475.357837 129.07761 
L 475.64999 125.619324 
L 475.942144 119.135018 
L 476.818604 122.593304 
L 477.110757 120.107642 
L 477.402911 126.05159 
L 477.695064 126.05159 
L 477.987218 124.106287 
L 478.863678 107.247124 
L 479.155832 112.974938 
L 479.447985 107.030991 
L 479.740138 104.113053 
L 480.032292 91.360574 
L 480.908752 83.579417 
L 481.200906 84.984361 
L 481.785213 96.980295 
L 482.077366 95.683444 
L 482.953826 97.520654 
L 483.24598 88.22646 
L 483.830287 98.277199 
L 484.12244 105.626047 
L 484.9989 121.62068 
L 485.291054 109.840878 
L 485.583207 115.244467 
L 485.875361 118.486566 
L 486.167514 117.513942 
L 487.043975 113.407204 
L 487.336128 108.8682 
L 487.628281 99.898233 
L 487.920435 100.438591 
L 488.212588 106.274445 
L 489.673356 93.197783 
L 489.965509 87.470022 
L 490.257662 93.630102 
L 491.134123 109.732785 
L 491.426276 106.706765 
L 491.71843 117.189716 
L 492.010583 106.490632 
L 492.302737 106.274445 
L 493.179197 115.02828 
L 493.763504 102.816159 
L 494.055657 93.630102 
L 494.347811 91.25248 
L 495.224271 100.006315 
L 495.808578 88.658736 
L 496.100731 87.686155 
L 496.392885 89.307178 
L 497.561499 85.20044 
L 497.853652 89.631404 
L 498.145806 87.253836 
L 498.437959 91.25248 
L 499.314419 72.77224 
L 499.606573 74.393263 
L 500.19088 50.725556 
L 500.483033 46.078513 
L 501.359493 51.049782 
L 501.651647 42.9444 
L 501.9438 45.105835 
L 502.235954 40.350699 
L 502.528107 42.9444 
L 503.404568 52.022417 
L 503.696721 59.371308 
L 503.988874 54.616161 
L 504.281028 68.449369 
L 504.573181 68.01705 
L 505.449642 60.668202 
L 505.741795 56.129155 
L 506.033949 61.965053 
L 506.618255 65.639482 
L 507.494716 70.178485 
L 507.786869 72.448014 
L 508.079023 80.337264 
L 508.371176 84.876267 
L 508.66333 84.768228 
L 509.53979 84.227815 
L 509.831943 75.582074 
L 510.124097 81.958341 
L 510.708404 97.628747 
L 511.584864 108.976239 
L 511.877017 88.983005 
L 512.169171 77.20315 
L 512.461324 96.764119 
L 512.753478 103.464612 
L 513.629938 97.84488 
L 513.922092 98.709421 
L 514.214245 90.171817 
L 514.506398 87.145742 
L 515.675012 87.578062 
L 515.967166 81.742154 
L 516.259319 87.470022 
L 516.551473 88.550686 
L 516.843626 100.654724 
L 517.720086 101.519309 
L 518.01224 91.792839 
L 518.304393 121.080267 
L 518.596547 122.593304 
L 518.8887 119.135018 
L 519.765161 119.243112 
L 520.057314 130.590604 
L 520.641621 138.047588 
L 522.102388 123.782072 
L 522.394542 123.025569 
L 522.686695 126.159683 
L 522.978848 119.783416 
L 523.855309 115.676678 
L 524.147462 119.675377 
L 524.439616 120.539908 
L 524.731769 124.646646 
L 525.023923 119.026925 
L 526.192536 121.728719 
L 526.48469 136.642645 
L 526.776843 139.344439 
L 527.068997 132.968215 
L 528.23761 136.318462 
L 528.529764 135.994192 
L 528.821917 134.589249 
L 529.114071 144.099575 
L 529.990531 145.396426 
L 530.282685 159.769982 
L 530.574838 153.501808 
L 530.866991 156.419735 
L 531.159145 151.232333 
L 532.035605 151.664599 
L 532.327759 151.016147 
L 532.619912 144.531895 
L 532.912066 145.180347 
L 533.204219 147.99018 
L 534.080679 147.449822 
L 534.372833 153.285729 
L 534.664986 148.206313 
L 534.95714 146.585237 
L 535.249293 139.992837 
L 536.125753 140.20897 
L 536.417907 135.453834 
L 536.71006 134.913518 
L 537.002214 130.698687 
L 538.170828 132.860122 
L 538.462981 138.912163 
L 538.755134 130.80678 
L 539.047288 137.183004 
L 539.339441 124.646646 
L 540.215902 128.321119 
L 540.508055 131.995548 
L 540.800209 133.292398 
L 541.384516 124.862833 
L 542.260976 122.485211 
L 542.553129 118.702753 
L 543.137436 105.950273 
L 543.42959 111.137729 
L 544.30605 109.192426 
L 544.598203 106.166406 
L 544.890357 105.950273 
L 545.474664 113.515297 
L 547.227584 102.383894 
L 547.519738 96.656079 
L 548.396198 98.925597 
L 548.980505 109.084333 
L 549.272659 109.192426 
L 549.564812 112.326486 
L 550.441272 107.247124 
L 550.733426 100.330541 
L 551.025579 104.11301 
L 551.317733 77.20315 
L 551.609886 81.417982 
L 552.486346 81.526021 
L 552.7785 73.312599 
L 553.070653 76.878978 
L 553.362807 82.174473 
L 553.65496 81.417982 
L 554.823574 88.118421 
L 555.115727 91.6848 
L 555.407881 92.873611 
L 555.700034 98.709421 
L 556.576495 95.143086 
L 557.160802 128.969571 
L 557.452955 133.508574 
L 557.745108 117.189716 
L 558.621569 130.482554 
L 558.913722 123.457889 
L 559.205876 119.783416 
L 559.498029 111.678034 
L 559.790183 114.920187 
L 560.666643 114.163695 
L 561.25095 109.192426 
L 561.543103 117.621981 
L 561.835257 109.192426 
L 562.711717 112.110353 
L 563.003871 69.205861 
L 563.296024 81.850247 
L 563.880331 92.873611 
L 564.756791 102.491977 
L 565.048945 108.760107 
L 565.341098 92.117065 
L 565.633252 109.948918 
L 565.925405 120.756095 
L 566.801865 135.886142 
L 567.094019 134.481209 
L 567.386172 138.263721 
L 567.678326 163.768637 
L 567.970479 163.012135 
L 568.846939 149.503164 
L 569.139093 131.563272 
L 569.431246 139.452478 
L 569.7234 132.319763 
L 570.015553 128.753384 
L 571.184167 127.88881 
L 571.47632 126.483866 
L 571.768474 124.106341 
L 572.060627 113.839523 
L 572.937088 111.678034 
L 573.229241 105.517954 
L 573.521395 102.059668 
L 573.813548 105.626047 
L 574.105701 102.816159 
L 574.982162 98.817515 
L 575.274315 95.575405 
L 575.566469 96.980295 
L 575.858622 93.630102 
L 576.150776 93.738142 
L 577.027236 88.658736 
L 577.319389 82.714832 
L 577.903696 91.792839 
L 578.19585 93.089744 
L 579.07231 93.413916 
L 579.364463 93.305833 
L 580.240924 88.118421 
L 581.117384 88.226514 
L 581.409538 86.605383 
L 581.993844 90.387949 
L 582.285998 88.874912 
L 583.162458 85.20044 
L 583.454612 82.498645 
L 583.746765 83.903589 
L 584.038919 67.476691 
L 584.331072 78.500001 
L 585.207532 82.066434 
L 585.791839 71.583429 
L 586.083993 59.479391 
L 586.376146 63.694222 
L 587.252607 61.640826 
L 587.836913 64.126488 
L 588.42122 64.774897 
L 589.297681 64.88299 
L 589.589834 62.829594 
L 589.881988 74.717543 
L 590.466294 73.744864 
L 591.342755 78.824227 
L 591.634908 86.605437 
L 591.927062 87.578062 
L 592.219215 71.583429 
L 592.511369 80.013038 
L 593.387829 84.660135 
L 593.679982 85.416626 
L 594.264289 108.219748 
L 594.556443 101.303176 
L 595.725056 101.087033 
L 596.01721 104.329197 
L 596.309363 63.586129 
L 596.601517 67.800917 
L 597.477977 75.365941 
L 598.062284 99.357874 
L 598.354437 98.061012 
L 598.646591 108.435935 
L 598.646591 108.435935 
" style="fill:none;stroke:#1f77b4;stroke-linecap:square;stroke-width:1.5;"/>
   </g>
   <g id="line2d_14">
    <path clip-path="url(#p8d9e12cf98)" d="M 57.578409 496.413541 
L 57.870563 495.008608 
L 58.162716 495.657039 
L 58.454869 500.736401 
L 58.747023 500.736401 
L 59.623483 500.304125 
L 59.915637 500.952555 
L 60.499944 496.197387 
L 60.792097 499.439551 
L 61.960711 500.196053 
L 62.252864 504.194719 
L 62.545018 506.13999 
L 62.837171 509.598297 
L 63.713631 509.81444 
L 64.005785 508.409507 
L 64.297938 508.517579 
L 64.882245 519.000541 
L 65.758706 518.568254 
L 66.050859 517.271392 
L 66.343012 514.137311 
L 66.635166 519.000541 
L 66.927319 517.055249 
L 67.80378 519.216684 
L 68.095933 518.35211 
L 68.388087 521.270048 
L 68.68024 516.731034 
L 68.972393 517.271392 
L 70.141007 514.67767 
L 70.433161 514.353455 
L 70.725314 513.272737 
L 71.017468 512.84045 
L 71.893928 513.813096 
L 72.186081 515.001885 
L 72.478235 512.732378 
L 72.770388 516.51489 
L 73.062542 515.758388 
L 73.939002 510.570943 
L 74.231156 511.219373 
L 74.523309 512.948522 
L 75.107616 507.653016 
L 75.984076 502.681704 
L 76.27623 502.573621 
L 76.568383 499.763755 
L 77.15269 504.843139 
L 78.02915 503.330145 
L 78.321304 504.410841 
L 78.613457 502.897847 
L 78.905611 502.249427 
L 79.197764 503.546267 
L 80.074224 504.626996 
L 80.366378 507.97721 
L 80.658531 507.32879 
L 81.242838 502.465549 
L 82.119299 502.249427 
L 82.411452 501.709047 
L 82.703605 502.573621 
L 82.995759 505.167344 
L 84.164373 502.789775 
L 84.456526 498.358833 
L 84.74868 498.899181 
L 85.040833 493.711747 
L 85.332986 491.874527 
L 86.209447 490.577676 
L 86.5016 484.74179 
L 86.793754 482.580366 
L 87.085907 476.204131 
L 87.378061 484.849862 
L 88.254521 482.472294 
L 88.546674 482.580366 
L 88.838828 492.631018 
L 89.130981 489.713102 
L 90.299595 493.279471 
L 90.591748 498.358833 
L 90.883902 500.196053 
L 91.176055 497.818485 
L 91.468209 502.573621 
L 92.344669 498.034607 
L 92.636823 504.843139 
L 92.928976 503.005919 
L 93.513283 515.974531 
L 94.389743 504.735067 
L 94.97405 503.222073 
L 95.266204 506.788442 
L 95.558357 504.086648 
L 96.434817 505.383498 
L 97.019124 510.570943 
L 97.311278 518.027895 
L 97.603431 513.921168 
L 98.479892 513.272737 
L 98.772045 515.758388 
L 99.064198 514.245383 
L 99.356352 511.651661 
L 99.648505 515.434172 
L 100.817119 518.892469 
L 101.109273 517.163321 
L 101.401426 514.461526 
L 101.693579 519.108613 
L 102.57004 519.757043 
L 103.154347 522.458837 
L 103.4465 518.027895 
L 103.738654 515.974531 
L 104.615114 517.271392 
L 104.907267 512.083948 
L 105.199421 513.813096 
L 105.491574 512.624306 
L 105.783728 513.272737 
L 106.952341 518.135967 
L 107.244495 516.622962 
L 107.536648 520.945833 
L 107.828802 521.161976 
L 108.705262 522.02655 
L 108.997416 529.483502 
L 109.289569 531.644938 
L 109.581722 528.943144 
L 109.873876 529.159287 
L 111.04249 528.510856 
L 111.91895 520.297402 
L 112.79541 519.757043 
L 113.087564 513.488881 
L 113.379717 515.109957 
L 113.671871 515.109957 
L 113.964024 520.18933 
L 114.840484 518.027895 
L 115.132638 516.947177 
L 115.424791 530.888435 
L 115.716945 531.212651 
L 116.009098 530.023861 
L 116.885559 528.294713 
L 117.177712 530.456148 
L 117.762019 532.509512 
L 118.054172 531.212651 
L 118.930633 529.915789 
L 119.222786 530.56422 
L 119.51494 527.970498 
L 119.807093 528.186641 
L 120.099247 526.241349 
L 120.975707 525.592919 
L 121.26786 526.133278 
L 121.560014 531.320722 
L 122.144321 531.753009 
L 123.020781 532.185297 
L 123.312934 530.56422 
L 123.605088 530.023861 
L 123.897241 531.536866 
L 124.189395 532.185297 
L 125.065855 533.698301 
L 125.358009 536.400096 
L 125.650162 537.9131 
L 125.942315 538.453459 
L 126.234469 536.07588 
L 127.403083 539.534177 
L 127.695236 536.724311 
L 128.279543 534.022517 
L 129.448157 534.995163 
L 129.74031 532.617584 
L 130.032464 533.698301 
L 130.324617 533.374086 
L 131.201077 532.833727 
L 131.493231 533.914445 
L 131.785384 526.997852 
L 132.077538 527.862426 
L 132.369691 531.104579 
L 133.246152 531.428794 
L 133.538305 527.970498 
L 133.830458 529.483502 
L 134.122612 528.078569 
L 134.414765 524.512201 
L 135.291226 526.88978 
L 135.583379 525.70099 
L 135.875533 526.241349 
L 136.167686 528.078569 
L 136.459839 526.997852 
L 137.3363 526.88978 
L 137.628453 523.323412 
L 137.920607 524.296057 
L 138.21276 527.430139 
L 138.504914 524.620273 
L 139.381374 525.484847 
L 139.673527 525.268703 
L 140.257834 509.057938 
L 140.549988 505.599641 
L 141.426448 509.057938 
L 141.718602 513.813096 
L 142.010755 510.462871 
L 142.302908 508.625651 
L 142.595062 504.951222 
L 143.471522 503.978565 
L 143.763676 503.330145 
L 144.055829 503.762421 
L 144.347983 503.978565 
L 144.640136 503.005919 
L 145.516596 506.680359 
L 145.80875 506.248061 
L 146.100903 506.464216 
L 146.393057 506.13999 
L 146.68521 505.383498 
L 147.56167 503.546267 
L 147.853824 497.818485 
L 148.145977 498.142679 
L 148.438131 499.655705 
L 148.730284 502.357499 
L 149.606745 501.81713 
L 149.898898 505.707713 
L 150.191051 506.680359 
L 150.483205 497.602331 
L 150.775358 502.141345 
L 151.651819 502.249427 
L 151.943972 506.248061 
L 152.236126 503.870493 
L 152.820432 505.923868 
L 153.696893 504.194719 
L 153.989046 510.246728 
L 154.2812 506.680359 
L 154.573353 504.735067 
L 154.865507 504.518924 
L 155.741967 504.735067 
L 156.03412 498.142679 
L 156.326274 497.278115 
L 156.618427 498.034607 
L 156.910581 497.386187 
L 158.079194 501.492925 
L 158.371348 503.438195 
L 158.663501 502.789775 
L 158.955655 504.194719 
L 159.832115 505.275415 
L 160.124269 501.81713 
L 160.416422 501.492925 
L 160.708575 500.520279 
L 162.169343 503.65435 
L 162.75365 500.087981 
L 163.045803 501.492925 
L 163.922263 500.196053 
L 164.214417 501.925201 
L 164.50657 498.466905 
L 164.798724 496.845839 
L 165.090877 498.574976 
L 165.967338 501.81713 
L 166.259491 502.033273 
L 166.551644 501.276771 
L 166.843798 500.196053 
L 167.135951 499.547633 
L 168.304565 502.897847 
L 168.596719 504.951222 
L 168.888872 505.815785 
L 169.181025 508.625651 
L 170.057486 507.32879 
L 170.349639 508.085292 
L 170.641793 512.948522 
L 170.933946 506.13999 
L 171.2261 510.138656 
L 172.10256 507.004564 
L 172.686867 502.141345 
L 173.271174 499.763755 
L 174.147634 499.655705 
L 174.731941 503.65435 
L 175.316248 499.115335 
L 176.192708 498.683059 
L 176.484862 495.332813 
L 176.777015 489.280804 
L 177.069168 489.172733 
L 177.361322 490.361522 
L 178.529936 498.466905 
L 179.114243 504.302769 
L 179.406396 502.897847 
L 180.282856 503.978565 
L 180.57501 507.220718 
L 180.867163 501.492925 
L 181.45147 496.629685 
L 182.32793 500.736401 
L 182.620084 498.142679 
L 182.912237 490.469594 
L 183.204391 496.845839 
L 183.496544 492.955245 
L 184.373005 494.144045 
L 184.665158 504.735067 
L 184.957312 509.274082 
L 185.249465 509.81444 
L 185.541618 507.97721 
L 186.710232 504.410841 
L 187.002386 506.896513 
L 187.294539 499.331479 
L 187.586693 497.926557 
L 188.463153 502.033273 
L 188.755306 500.196053 
L 189.04746 500.304125 
L 189.339613 500.952555 
L 189.631767 499.223407 
L 190.508227 498.899181 
L 190.80038 496.305459 
L 191.384687 497.494259 
L 191.676841 499.979909 
L 192.553301 501.925201 
L 192.845455 504.410841 
L 193.137608 501.384853 
L 193.429761 500.844473 
L 193.721915 501.600975 
L 194.598375 504.518924 
L 194.890529 507.004564 
L 195.182682 498.899181 
L 195.474836 499.115335 
L 196.643449 496.305459 
L 196.935603 494.468238 
L 197.227756 494.684393 
L 197.812063 489.929224 
L 198.688523 485.174088 
L 198.980677 487.551656 
L 199.564984 482.039996 
L 199.857137 479.662417 
L 200.733598 480.635074 
L 201.025751 480.743145 
L 201.317904 495.332813 
L 201.610058 495.657039 
L 201.902211 502.357499 
L 202.778672 510.354799 
L 203.070825 508.301436 
L 203.362979 508.733723 
L 203.655132 504.518924 
L 203.947285 505.059293 
L 204.823746 507.653016 
L 205.115899 506.788442 
L 205.408053 506.680359 
L 205.700206 508.517579 
L 205.99236 508.085292 
L 207.160973 502.357499 
L 207.453127 509.922512 
L 207.74528 508.085292 
L 208.037434 511.759732 
L 208.913894 514.245383 
L 209.206048 514.245383 
L 209.498201 518.027895 
L 209.790354 516.731034 
L 210.082508 516.947177 
L 210.958968 517.379464 
L 211.251122 516.947177 
L 211.543275 521.161976 
L 211.835429 521.486191 
L 212.127582 522.350766 
L 213.004042 519.216684 
L 213.296196 515.326101 
L 213.880503 518.244038 
L 214.172656 520.297402 
L 215.049116 520.405474 
L 215.34127 519.648971 
L 215.633423 520.297402 
L 215.925577 518.676325 
L 216.21773 514.245383 
L 217.386344 513.813096 
L 217.678497 511.327445 
L 217.970651 510.354799 
L 219.431418 520.621617 
L 219.723572 520.081258 
L 220.015725 523.107268 
L 220.307878 522.458837 
L 221.184339 525.376775 
L 221.476492 523.539555 
L 221.768646 535.535521 
L 222.060799 534.346732 
L 222.352953 530.131933 
L 223.229413 533.266014 
L 223.521566 530.56422 
L 223.81372 534.346732 
L 224.105873 535.319378 
L 224.398027 539.642249 
L 225.274487 539.642249 
L 225.56664 543.316689 
L 225.858794 540.506823 
L 226.150947 551.530143 
L 226.443101 554.340009 
L 227.319561 561.364674 
L 227.611715 550.557497 
L 227.903868 554.015794 
L 228.488175 534.346732 
L 229.364635 535.643593 
L 229.656789 535.535521 
L 229.948942 535.643593 
L 230.241096 541.155253 
L 230.533249 541.58754 
L 231.409709 542.452115 
L 231.701863 536.940454 
L 231.994016 539.10189 
L 232.28617 542.127899 
L 232.578323 543.532832 
L 233.454784 533.374086 
L 233.746937 531.644938 
L 234.331244 536.940454 
L 234.623397 542.127899 
L 235.792011 541.695612 
L 236.376318 525.160632 
L 236.668471 524.728345 
L 237.544932 527.105923 
L 237.837085 527.105923 
L 238.421392 520.297402 
L 238.713546 519.432828 
L 239.590006 523.323412 
L 239.882159 526.025206 
L 240.174313 530.348077 
L 240.466466 530.023861 
L 240.75862 522.242694 
L 241.63508 521.810407 
L 241.927233 524.079914 
L 242.219387 527.862426 
L 242.51154 536.183952 
L 242.803694 538.885746 
L 243.680154 534.995163 
L 243.972308 524.944488 
L 244.264461 509.16601 
L 244.848768 514.029239 
L 245.725228 510.030584 
L 246.017382 509.81444 
L 246.309535 510.787086 
L 246.601689 509.057938 
L 246.893842 509.274082 
L 247.770302 511.543589 
L 248.062456 514.029239 
L 248.354609 508.949866 
L 248.646763 506.356144 
L 248.938916 507.004564 
L 249.815376 500.628351 
L 250.10753 505.707713 
L 250.399683 505.059293 
L 250.691837 501.492925 
L 250.98399 502.249427 
L 251.860451 512.192019 
L 252.152604 519.865115 
L 252.444758 518.027895 
L 252.736911 513.921168 
L 253.029064 516.51489 
L 253.905525 511.651661 
L 254.197678 508.625651 
L 254.489832 509.16601 
L 254.781985 508.841795 
L 255.074139 505.383498 
L 256.242752 509.057938 
L 256.534906 511.327445 
L 256.827059 515.434172 
L 257.119213 515.001885 
L 257.995673 519.216684 
L 258.57998 519.757043 
L 260.040747 515.326101 
L 260.332901 511.543589 
L 260.625054 511.435517 
L 260.917207 505.815785 
L 261.209361 507.761088 
L 262.377975 510.030584 
L 262.670128 512.408163 
L 262.962282 512.516235 
L 263.254435 508.949866 
L 264.130895 514.029239 
L 264.423049 514.569598 
L 264.715202 518.892469 
L 265.007356 517.379464 
L 265.299509 519.5409 
L 266.175969 523.21534 
L 266.468123 517.919823 
L 266.760276 508.409507 
L 267.05243 508.301436 
L 267.344583 506.248061 
L 268.513197 507.32879 
L 268.80535 510.679015 
L 269.097504 506.896513 
L 269.389657 506.896513 
L 270.558271 505.167344 
L 270.850425 510.679015 
L 271.434731 513.488881 
L 272.311192 514.137311 
L 272.603345 513.596952 
L 272.895499 513.380809 
L 273.187652 511.975876 
L 273.479806 513.921168 
L 274.648419 514.461526 
L 274.940573 509.16601 
L 275.232726 507.004564 
L 275.52488 508.733723 
L 276.40134 511.759732 
L 276.693494 511.651661 
L 276.985647 513.056594 
L 277.2778 513.380809 
L 277.569954 511.111302 
L 278.738568 514.029239 
L 279.030721 511.219373 
L 279.322875 511.327445 
L 279.615028 509.16601 
L 280.491488 510.246728 
L 280.783642 510.138656 
L 281.075795 510.679015 
L 281.660102 506.788442 
L 282.536562 507.004564 
L 282.828716 515.109957 
L 283.120869 517.811751 
L 283.413023 515.218029 
L 283.705176 519.000541 
L 284.87379 521.810407 
L 285.165943 524.512201 
L 285.458097 521.486191 
L 285.75025 520.297402 
L 286.626711 520.621617 
L 286.918864 520.18933 
L 287.211018 520.945833 
L 287.503171 519.865115 
L 287.795324 522.134622 
L 288.671785 523.21534 
L 288.963938 525.376775 
L 289.256092 523.21534 
L 289.840399 523.107268 
L 290.716859 524.620273 
L 291.301166 523.107268 
L 291.885473 517.163321 
L 292.761933 517.487536 
L 293.054086 514.67767 
L 293.34624 513.596952 
L 293.638393 513.813096 
L 293.930547 514.893814 
L 294.807007 513.272737 
L 295.391314 515.650316 
L 295.683468 515.866459 
L 295.975621 516.731034 
L 296.852081 514.137311 
L 297.144235 517.163321 
L 297.436388 516.190675 
L 297.728542 518.35211 
L 298.897155 518.027895 
L 299.481462 520.405474 
L 299.773616 518.460182 
L 300.065769 520.513546 
L 300.94223 521.37812 
L 301.234383 519.000541 
L 301.526536 513.813096 
L 301.81869 514.785742 
L 302.110843 512.624306 
L 302.987304 515.542244 
L 303.571611 513.705024 
L 304.155917 512.948522 
L 305.032378 513.272737 
L 305.324531 512.300091 
L 305.616685 511.867804 
L 306.200992 517.487536 
L 307.077452 515.326101 
L 307.369605 515.218029 
L 307.661759 515.866459 
L 307.953912 514.353455 
L 308.246066 517.055249 
L 309.122526 513.705024 
L 309.706833 516.082603 
L 309.998986 520.513546 
L 310.29114 514.569598 
L 311.1676 512.84045 
L 311.459754 515.974531 
L 311.751907 515.001885 
L 312.04406 515.326101 
L 312.336214 515.218029 
L 313.504828 514.029239 
L 313.796981 516.406818 
L 314.089135 516.51489 
L 314.381288 519.973187 
L 315.257748 519.000541 
L 315.549902 518.027895 
L 315.842055 515.218029 
L 316.134209 515.218029 
L 316.426362 512.083948 
L 317.302823 515.866459 
L 317.594976 514.029239 
L 317.887129 515.434172 
L 318.179283 515.218029 
L 318.471436 515.218029 
L 319.347897 513.813096 
L 319.64005 512.083948 
L 319.932204 511.111302 
L 320.224357 513.488881 
L 320.51651 512.516235 
L 321.392971 514.353455 
L 321.685124 515.326101 
L 321.977278 513.488881 
L 322.269431 514.245383 
L 322.561585 510.138656 
L 323.438045 510.030584 
L 323.730198 508.517579 
L 324.606659 510.679015 
L 325.483119 511.00323 
L 325.775272 510.246728 
L 326.067426 510.462871 
L 326.359579 511.651661 
L 326.651733 511.111302 
L 327.528193 512.083948 
L 327.820347 512.624306 
L 328.1125 511.543589 
L 328.404653 511.219373 
L 328.696807 509.16601 
L 329.573267 510.895158 
L 329.865421 514.461526 
L 330.157574 513.705024 
L 330.741881 507.112635 
L 331.618341 508.517579 
L 331.910495 510.030584 
L 332.202648 508.409507 
L 332.494802 511.00323 
L 332.786955 508.625651 
L 333.663415 507.869138 
L 333.955569 505.923868 
L 334.247722 506.464216 
L 334.539876 508.193364 
L 334.832029 517.487536 
L 335.70849 518.892469 
L 336.000643 522.02655 
L 336.292796 521.702335 
L 336.58495 519.216684 
L 336.877103 518.784397 
L 337.753564 519.5409 
L 338.045717 519.432828 
L 338.630024 520.513546 
L 338.922177 519.973187 
L 339.798638 520.729689 
L 340.090791 522.134622 
L 340.382945 520.837761 
L 340.675098 522.674981 
L 340.967252 522.891124 
L 342.135865 520.297402 
L 342.428019 518.135967 
L 342.720172 517.919823 
L 343.012326 516.731034 
L 343.888786 517.919823 
L 344.18094 517.379464 
L 344.765246 512.624306 
L 345.0574 510.787086 
L 345.93386 511.759732 
L 346.226014 509.274082 
L 347.102474 511.111302 
L 347.978934 508.301436 
L 348.271088 511.759732 
L 348.563241 512.516235 
L 348.855395 507.869138 
L 349.147548 508.517579 
L 350.024008 510.138656 
L 350.316162 508.949866 
L 350.608315 506.031939 
L 350.900469 505.383498 
L 351.192622 507.32879 
L 352.069083 507.97721 
L 352.361236 509.922512 
L 352.653389 510.138656 
L 352.945543 509.16601 
L 353.237696 509.598297 
L 354.114157 511.759732 
L 354.698464 507.32879 
L 354.990617 508.301436 
L 355.28277 510.030584 
L 356.159231 510.787086 
L 356.451384 501.060627 
L 356.743538 502.357499 
L 357.035691 501.709047 
L 357.327845 499.763755 
L 358.788612 499.223407 
L 359.080765 498.034607 
L 359.372919 496.305459 
L 360.541532 492.522968 
L 360.833686 493.279471 
L 361.125839 494.900536 
L 361.417993 494.684393 
L 362.294453 491.982599 
L 362.586607 488.308158 
L 362.87876 488.524302 
L 363.170914 487.875882 
L 363.463067 488.200076 
L 364.339527 482.796487 
L 364.631681 484.093359 
L 364.923834 482.364211 
L 365.508141 480.526991 
L 366.384601 478.473628 
L 366.676755 476.636407 
L 366.968908 476.852551 
L 367.261062 477.284827 
L 367.553215 478.365556 
L 368.429676 480.743145 
L 368.721829 476.636407 
L 369.013982 477.068705 
L 369.306136 473.718459 
L 369.598289 473.718459 
L 370.766903 470.260173 
L 371.059057 471.773189 
L 371.35121 472.097393 
L 371.643363 468.963323 
L 372.519824 468.422942 
L 372.811977 469.179445 
L 373.104131 469.395599 
L 373.396284 468.422942 
L 373.688438 472.097393 
L 374.564898 468.85524 
L 375.149205 469.719814 
L 375.441358 469.395599 
L 375.733512 470.476317 
L 376.609972 466.153446 
L 377.194279 464.208154 
L 377.486432 467.450296 
L 377.778586 466.585722 
L 378.655046 471.557034 
L 378.9472 468.747168 
L 379.531506 475.987977 
L 379.82366 472.745813 
L 380.70012 471.232819 
L 380.992274 470.260173 
L 381.284427 464.316226 
L 381.576581 463.667806 
L 381.868734 464.856585 
L 383.037348 466.153446 
L 383.329501 463.883928 
L 383.621655 460.31756 
L 383.913808 461.074062 
L 384.790269 461.722514 
L 385.082422 468.31487 
L 385.374575 463.775856 
L 385.666729 469.071394 
L 385.958882 467.666451 
L 386.835343 472.205465 
L 387.127496 468.747168 
L 387.41965 466.693805 
L 387.711803 461.614432 
L 388.003956 459.66914 
L 388.880417 455.346269 
L 389.17257 451.996055 
L 389.464724 452.644475 
L 389.756877 452.320259 
L 390.049031 454.049408 
L 391.217644 451.131459 
L 391.509798 455.130125 
L 391.801951 456.102771 
L 392.094105 451.887983 
L 392.970565 457.183489 
L 393.262718 456.859274 
L 393.554872 452.536403 
L 393.847025 450.915337 
L 394.139179 444.106794 
L 395.307793 433.191546 
L 395.892099 435.89334 
L 396.184253 433.731915 
L 397.060713 436.974068 
L 397.352867 439.135504 
L 397.64502 439.783934 
L 397.937174 438.811288 
L 398.229327 442.701872 
L 399.105787 443.350303 
L 399.397941 441.621154 
L 399.690094 442.377657 
L 399.982248 434.164192 
L 400.274401 429.841332 
L 401.150861 428.544481 
L 401.443015 426.274963 
L 401.735168 426.274963 
L 402.027322 426.923383 
L 403.195936 427.247609 
L 403.488089 424.221589 
L 403.780242 428.544481 
L 404.072396 427.031466 
L 404.364549 429.409055 
L 405.24101 427.463753 
L 406.11747 416.548504 
L 406.409624 414.387058 
L 407.578237 424.113517 
L 407.870391 425.086163 
L 408.162544 429.841332 
L 408.454698 427.571835 
L 409.331158 422.384369 
L 410.207618 408.875398 
L 410.499772 414.49514 
L 411.376232 417.196935 
L 411.668386 413.954782 
L 411.960539 418.601878 
L 412.252692 411.36107 
L 412.544846 410.280341 
L 413.421306 409.199624 
L 413.71346 399.473165 
L 414.005613 395.798724 
L 414.297767 397.635945 
L 414.58992 391.25971 
L 415.46638 396.014879 
L 415.758534 393.313085 
L 416.050687 385.74805 
L 416.342841 393.961504 
L 416.634994 394.609935 
L 417.511454 393.961504 
L 417.803608 389.42249 
L 418.387915 400.013523 
L 418.680068 396.663299 
L 419.848682 399.473165 
L 420.140835 402.283041 
L 420.432989 396.663299 
L 420.725142 396.987525 
L 421.601603 396.014879 
L 421.893756 397.419801 
L 422.18591 402.931461 
L 422.478063 397.960171 
L 422.770216 388.990192 
L 423.646677 392.232356 
L 423.93883 395.906796 
L 424.230984 401.418467 
L 424.523137 396.231001 
L 424.815291 397.203647 
L 425.983904 393.09693 
L 426.276058 397.635945 
L 426.568211 407.254332 
L 426.860365 408.983469 
L 427.736825 421.087518 
L 428.028978 411.469142 
L 428.321132 407.902752 
L 428.613285 405.957482 
L 428.905439 409.631922 
L 429.781899 408.443121 
L 430.074053 411.144916 
L 430.366206 404.660609 
L 430.950513 403.687964 
L 431.826973 405.309029 
L 432.119127 392.880787 
L 432.41128 394.177659 
L 432.703434 388.990192 
L 432.995587 386.936839 
L 433.872047 385.74805 
L 434.164201 390.719362 
L 434.456354 360.6754 
L 434.748508 360.6754 
L 435.040661 366.619336 
L 436.209275 385.531896 
L 436.793582 375.697375 
L 437.085735 377.426513 
L 437.962196 379.371816 
L 438.254349 378.074965 
L 438.546503 377.642667 
L 438.838656 379.047611 
L 439.130809 382.397825 
L 440.00727 382.181682 
L 440.299423 385.964193 
L 440.88373 384.235045 
L 442.052344 374.832801 
L 442.344497 374.940873 
L 442.636651 378.074965 
L 442.928804 387.909496 
L 443.220958 385.964193 
L 444.097418 390.395136 
L 444.389571 388.125618 
L 444.681725 388.77407 
L 444.973878 379.696031 
L 445.266032 378.723385 
L 446.142492 381.857455 
L 446.434646 389.42249 
L 446.726799 388.23369 
L 447.018952 386.180348 
L 447.311106 388.125618 
L 448.47972 380.992881 
L 448.771873 377.858811 
L 449.064027 376.129663 
L 449.35618 376.778093 
L 450.524794 362.620691 
L 450.816947 365.754762 
L 451.109101 360.783471 
L 451.401254 364.99827 
L 452.277715 361.107676 
L 452.862021 352.245791 
L 453.154175 345.869556 
L 453.446328 346.950285 
L 454.322789 354.191093 
L 454.614942 343.275845 
L 454.907096 342.519342 
L 455.199249 327.281223 
L 455.491402 318.635492 
L 456.367863 322.74223 
L 456.660016 310.422016 
L 456.95217 312.259258 
L 457.244323 315.069102 
L 457.536477 304.153875 
L 458.412937 312.259258 
L 458.70509 325.335931 
L 458.997244 324.471379 
L 459.289397 315.177196 
L 459.581551 312.151154 
L 460.458011 313.772252 
L 460.750164 320.472691 
L 461.334471 327.389273 
L 461.626625 319.932343 
L 462.503085 313.123811 
L 462.795239 314.420693 
L 463.087392 323.498733 
L 463.379545 323.714833 
L 463.671699 332.684812 
L 464.548159 331.604115 
L 464.840313 322.74223 
L 465.132466 329.226515 
L 465.716773 322.634137 
L 466.593233 322.526076 
L 466.885387 324.903633 
L 467.17754 325.876279 
L 467.469694 334.197805 
L 467.761847 323.282578 
L 468.930461 313.01575 
L 469.222614 301.884379 
L 469.514768 295.508134 
L 469.806921 297.885691 
L 470.683382 303.181219 
L 470.975535 306.96372 
L 471.559842 288.915756 
L 471.851995 286.86236 
L 472.728456 289.023806 
L 473.312763 281.783019 
L 474.77353 281.242671 
L 475.065683 286.105868 
L 475.357837 269.138601 
L 475.64999 261.141311 
L 475.942144 261.249362 
L 476.818604 261.141311 
L 477.110757 246.551601 
L 477.402911 258.007219 
L 477.695064 255.953877 
L 477.987218 251.847129 
L 478.863678 251.847129 
L 479.155832 254.224729 
L 479.447985 248.496893 
L 479.740138 246.767745 
L 480.032292 247.63234 
L 480.908752 240.607665 
L 481.200906 239.743112 
L 481.785213 241.904504 
L 482.077366 243.633652 
L 482.953826 246.767745 
L 483.24598 244.174044 
L 483.830287 253.360133 
L 484.12244 247.63234 
L 484.9989 249.685693 
L 485.291054 238.98661 
L 485.583207 237.90587 
L 485.875361 238.98661 
L 486.167514 235.636363 
L 487.043975 249.037241 
L 487.336128 236.60902 
L 487.628281 237.365512 
L 487.920435 245.254751 
L 488.212588 248.821141 
L 489.381202 254.116636 
L 489.673356 246.983899 
L 489.965509 255.521579 
L 490.257662 271.51619 
L 491.134123 285.133212 
L 491.426276 268.165955 
L 491.71843 304.153875 
L 492.010583 299.614839 
L 492.302737 292.049848 
L 493.179197 304.045771 
L 493.47135 295.832338 
L 493.763504 297.669537 
L 494.347811 278.865071 
L 495.224271 273.137289 
L 495.516425 265.139956 
L 495.808578 269.354744 
L 496.100731 264.923813 
L 496.392885 268.057894 
L 497.561499 267.193309 
L 497.853652 272.596897 
L 498.145806 272.813041 
L 498.437959 278.216629 
L 499.314419 276.811729 
L 499.606573 278.540877 
L 499.898726 274.650283 
L 500.19088 265.464161 
L 500.483033 263.302758 
L 501.359493 267.84175 
L 501.651647 252.927835 
L 501.9438 254.332779 
L 502.235954 252.603631 
L 502.528107 262.97851 
L 503.404568 270.003196 
L 503.696721 275.298692 
L 503.988874 275.947133 
L 504.281028 278.865071 
L 504.573181 274.866437 
L 505.741795 254.873127 
L 506.326102 273.029195 
L 506.618255 271.191986 
L 507.494716 284.809018 
L 508.079023 298.101835 
L 508.371176 296.588841 
L 508.66333 293.238594 
L 509.53979 293.238594 
L 509.831943 286.86236 
L 510.124097 285.241316 
L 510.41625 294.751642 
L 510.708404 310.962408 
L 511.584864 323.822926 
L 512.169171 304.370019 
L 512.461324 320.256537 
L 512.753478 325.984373 
L 513.629938 319.716188 
L 513.922092 311.502756 
L 514.214245 288.375408 
L 514.506398 288.05116 
L 515.675012 287.835006 
L 515.967166 290.644904 
L 516.259319 298.209928 
L 516.551473 300.371331 
L 516.843626 308.584807 
L 517.720086 313.880302 
L 518.01224 293.995097 
L 518.304393 292.698246 
L 518.8887 282.755665 
L 519.765161 282.323367 
L 520.057314 286.86236 
L 520.349467 313.01575 
L 520.933774 316.365996 
L 521.810235 308.909012 
L 522.102388 309.44936 
L 522.394542 311.935054 
L 522.978848 320.148486 
L 523.855309 314.961052 
L 524.147462 315.177196 
L 524.731769 306.207217 
L 525.023923 302.748932 
L 526.192536 301.668225 
L 526.48469 305.342665 
L 526.776843 304.045771 
L 527.068997 306.747565 
L 527.945457 304.370019 
L 528.23761 306.747565 
L 528.529764 305.883013 
L 528.821917 303.613517 
L 529.114071 293.022494 
L 529.990531 291.7256 
L 530.866991 283.728311 
L 531.159145 281.999163 
L 532.035605 305.018428 
L 532.327759 309.125166 
L 532.619912 303.613517 
L 532.912066 306.423372 
L 533.204219 313.231904 
L 534.372833 319.391984 
L 534.664986 321.877635 
L 534.95714 317.446692 
L 535.249293 311.070458 
L 536.417907 299.182585 
L 536.71006 293.454749 
L 537.002214 290.644904 
L 538.170828 297.345343 
L 538.462981 308.044459 
L 538.755134 304.586173 
L 539.047288 303.721578 
L 539.339441 298.317989 
L 540.215902 295.400041 
L 540.508055 296.372686 
L 540.800209 316.041748 
L 541.092362 322.309933 
L 541.384516 321.013039 
L 542.260976 321.55343 
L 542.553129 318.095144 
L 543.137436 290.3207 
L 543.42959 290.861048 
L 544.30605 293.238594 
L 544.598203 295.616195 
L 544.890357 285.673614 
L 545.18251 294.211251 
L 545.474664 296.264636 
L 546.351124 286.430105 
L 546.643278 295.400041 
L 546.935431 294.427395 
L 547.227584 295.832338 
L 547.519738 293.130544 
L 548.396198 294.427395 
L 548.688352 297.345343 
L 548.980505 290.104545 
L 549.564812 287.078514 
L 550.441272 277.243983 
L 550.733426 272.380743 
L 551.025579 275.947133 
L 551.317733 274.434139 
L 551.609886 270.435494 
L 552.486346 273.677637 
L 552.7785 272.813041 
L 553.070653 268.598253 
L 553.362807 267.193309 
L 554.823574 256.81843 
L 555.115727 261.141311 
L 555.700034 253.360133 
L 556.576495 229.36819 
L 556.868648 240.499604 
L 557.160802 236.60902 
L 557.452955 235.31217 
L 557.745108 217.804511 
L 558.621569 221.370901 
L 558.913722 219.641752 
L 559.205876 220.938603 
L 559.498029 226.342191 
L 559.790183 238.878516 
L 560.666643 263.518858 
L 560.958796 259.19602 
L 561.25095 250.226041 
L 561.543103 260.276716 
L 561.835257 241.796454 
L 562.711717 243.309459 
L 563.003871 240.823808 
L 563.296024 245.470894 
L 563.588177 243.525602 
L 563.880331 237.797809 
L 564.756791 232.502282 
L 565.048945 238.878516 
L 565.341098 237.257418 
L 565.633252 237.041318 
L 565.925405 253.252083 
L 567.094019 270.867749 
L 567.386172 272.488836 
L 568.846939 256.710369 
L 569.139093 246.983899 
L 569.431246 227.314837 
L 569.7234 220.830553 
L 570.015553 211.104072 
L 570.892014 198.135449 
L 571.184167 185.491073 
L 571.47632 190.24622 
L 571.768474 188.084774 
L 572.060627 183.545782 
L 572.937088 180.411689 
L 573.229241 172.414357 
L 573.813548 163.228278 
L 574.105701 156.527839 
L 574.982162 147.233656 
L 575.274315 151.124251 
L 575.566469 134.373138 
L 575.858622 135.453834 
L 576.150776 121.944863 
L 577.027236 115.244424 
L 577.319389 121.944863 
L 577.611543 134.589238 
L 577.903696 127.348451 
L 578.19585 129.617947 
L 579.07231 121.080267 
L 579.364463 122.269067 
L 579.656617 119.999571 
L 580.240924 122.052913 
L 581.117384 139.776726 
L 581.409538 133.616635 
L 581.701691 137.831423 
L 581.993844 136.42648 
L 582.285998 130.158295 
L 583.162458 144.96416 
L 583.454612 135.345783 
L 583.746765 149.395103 
L 584.038919 141.505863 
L 584.331072 138.263678 
L 585.207532 142.802714 
L 585.499686 153.285697 
L 586.083993 131.022891 
L 586.376146 131.347096 
L 587.252607 128.429147 
L 587.54476 140.641279 
L 587.836913 133.832735 
L 588.42122 131.563239 
L 589.297681 135.129629 
L 589.589834 127.672655 
L 589.881988 135.345783 
L 590.466294 139.020224 
L 591.342755 150.259655 
L 591.634908 149.395103 
L 591.927062 156.095541 
L 592.219215 138.371771 
L 592.511369 143.883421 
L 593.387829 153.826045 
L 593.679982 159.229634 
L 593.972136 167.767314 
L 594.264289 181.600479 
L 594.556443 179.006746 
L 595.725056 166.47042 
L 596.309363 152.853399 
L 596.601517 152.204947 
L 597.477977 146.909452 
L 598.062284 179.114839 
L 598.354437 208.618421 
L 598.646591 205.808533 
L 598.646591 205.808533 
" style="fill:none;stroke:#ff7f0e;stroke-linecap:square;stroke-width:1.5;"/>
   </g>
   <g id="patch_3">
    <path d="M 30.525 587.415373 
L 30.525 14.3 
" style="fill:none;stroke:#000000;stroke-linecap:square;stroke-linejoin:miter;stroke-width:0.8;"/>
   </g>
   <g id="patch_4">
    <path d="M 625.7 587.415373 
L 625.7 14.3 
" style="fill:none;stroke:#000000;stroke-linecap:square;stroke-linejoin:miter;stroke-width:0.8;"/>
   </g>
   <g id="patch_5">
    <path d="M 30.525 587.415373 
L 625.7 587.415373 
" style="fill:none;stroke:#000000;stroke-linecap:square;stroke-linejoin:miter;stroke-width:0.8;"/>
   </g>
   <g id="patch_6">
    <path d="M 30.525 14.3 
L 625.7 14.3 
" style="fill:none;stroke:#000000;stroke-linecap:square;stroke-linejoin:miter;stroke-width:0.8;"/>
   </g>
   <g id="legend_1">
    <g id="patch_7">
     <path d="M 37.525 66.334375 
L 98.896875 66.334375 
Q 100.896875 66.334375 100.896875 64.334375 
L 100.896875 21.3 
Q 100.896875 19.3 98.896875 19.3 
L 37.525 19.3 
Q 35.525 19.3 35.525 21.3 
L 35.525 64.334375 
Q 35.525 66.334375 37.525 66.334375 
z
" style="fill:#ffffff;opacity:0.8;stroke:#cccccc;stroke-linejoin:miter;"/>
    </g>
    <g id="text_14">
     <!-- symbol -->
     <defs>
      <path d="M 44.28125 53.078125 
L 44.28125 44.578125 
Q 40.484375 46.53125 36.375 47.5 
Q 32.28125 48.484375 27.875 48.484375 
Q 21.1875 48.484375 17.84375 46.4375 
Q 14.5 44.390625 14.5 40.28125 
Q 14.5 37.15625 16.890625 35.375 
Q 19.28125 33.59375 26.515625 31.984375 
L 29.59375 31.296875 
Q 39.15625 29.25 43.1875 25.515625 
Q 47.21875 21.78125 47.21875 15.09375 
Q 47.21875 7.46875 41.1875 3.015625 
Q 35.15625 -1.421875 24.609375 -1.421875 
Q 20.21875 -1.421875 15.453125 -0.5625 
Q 10.6875 0.296875 5.421875 2 
L 5.421875 11.28125 
Q 10.40625 8.6875 15.234375 7.390625 
Q 20.0625 6.109375 24.8125 6.109375 
Q 31.15625 6.109375 34.5625 8.28125 
Q 37.984375 10.453125 37.984375 14.40625 
Q 37.984375 18.0625 35.515625 20.015625 
Q 33.0625 21.96875 24.703125 23.78125 
L 21.578125 24.515625 
Q 13.234375 26.265625 9.515625 29.90625 
Q 5.8125 33.546875 5.8125 39.890625 
Q 5.8125 47.609375 11.28125 51.796875 
Q 16.75 56 26.8125 56 
Q 31.78125 56 36.171875 55.265625 
Q 40.578125 54.546875 44.28125 53.078125 
z
" id="DejaVuSans-73"/>
      <path d="M 32.171875 -5.078125 
Q 28.375 -14.84375 24.75 -17.8125 
Q 21.140625 -20.796875 15.09375 -20.796875 
L 7.90625 -20.796875 
L 7.90625 -13.28125 
L 13.1875 -13.28125 
Q 16.890625 -13.28125 18.9375 -11.515625 
Q 21 -9.765625 23.484375 -3.21875 
L 25.09375 0.875 
L 2.984375 54.6875 
L 12.5 54.6875 
L 29.59375 11.921875 
L 46.6875 54.6875 
L 56.203125 54.6875 
z
" id="DejaVuSans-79"/>
      <path d="M 52 44.1875 
Q 55.375 50.25 60.0625 53.125 
Q 64.75 56 71.09375 56 
Q 79.640625 56 84.28125 50.015625 
Q 88.921875 44.046875 88.921875 33.015625 
L 88.921875 0 
L 79.890625 0 
L 79.890625 32.71875 
Q 79.890625 40.578125 77.09375 44.375 
Q 74.3125 48.1875 68.609375 48.1875 
Q 61.625 48.1875 57.5625 43.546875 
Q 53.515625 38.921875 53.515625 30.90625 
L 53.515625 0 
L 44.484375 0 
L 44.484375 32.71875 
Q 44.484375 40.625 41.703125 44.40625 
Q 38.921875 48.1875 33.109375 48.1875 
Q 26.21875 48.1875 22.15625 43.53125 
Q 18.109375 38.875 18.109375 30.90625 
L 18.109375 0 
L 9.078125 0 
L 9.078125 54.6875 
L 18.109375 54.6875 
L 18.109375 46.1875 
Q 21.1875 51.21875 25.484375 53.609375 
Q 29.78125 56 35.6875 56 
Q 41.65625 56 45.828125 52.96875 
Q 50 49.953125 52 44.1875 
z
" id="DejaVuSans-6d"/>
      <path d="M 48.6875 27.296875 
Q 48.6875 37.203125 44.609375 42.84375 
Q 40.53125 48.484375 33.40625 48.484375 
Q 26.265625 48.484375 22.1875 42.84375 
Q 18.109375 37.203125 18.109375 27.296875 
Q 18.109375 17.390625 22.1875 11.75 
Q 26.265625 6.109375 33.40625 6.109375 
Q 40.53125 6.109375 44.609375 11.75 
Q 48.6875 17.390625 48.6875 27.296875 
z
M 18.109375 46.390625 
Q 20.953125 51.265625 25.265625 53.625 
Q 29.59375 56 35.59375 56 
Q 45.5625 56 51.78125 48.09375 
Q 58.015625 40.1875 58.015625 27.296875 
Q 58.015625 14.40625 51.78125 6.484375 
Q 45.5625 -1.421875 35.59375 -1.421875 
Q 29.59375 -1.421875 25.265625 0.953125 
Q 20.953125 3.328125 18.109375 8.203125 
L 18.109375 0 
L 9.078125 0 
L 9.078125 75.984375 
L 18.109375 75.984375 
z
" id="DejaVuSans-62"/>
      <path d="M 30.609375 48.390625 
Q 23.390625 48.390625 19.1875 42.75 
Q 14.984375 37.109375 14.984375 27.296875 
Q 14.984375 17.484375 19.15625 11.84375 
Q 23.34375 6.203125 30.609375 6.203125 
Q 37.796875 6.203125 41.984375 11.859375 
Q 46.1875 17.53125 46.1875 27.296875 
Q 46.1875 37.015625 41.984375 42.703125 
Q 37.796875 48.390625 30.609375 48.390625 
z
M 30.609375 56 
Q 42.328125 56 49.015625 48.375 
Q 55.71875 40.765625 55.71875 27.296875 
Q 55.71875 13.875 49.015625 6.21875 
Q 42.328125 -1.421875 30.609375 -1.421875 
Q 18.84375 -1.421875 12.171875 6.21875 
Q 5.515625 13.875 5.515625 27.296875 
Q 5.515625 40.765625 12.171875 48.375 
Q 18.84375 56 30.609375 56 
z
" id="DejaVuSans-6f"/>
      <path d="M 9.421875 75.984375 
L 18.40625 75.984375 
L 18.40625 0 
L 9.421875 0 
z
" id="DejaVuSans-6c"/>
     </defs>
     <g transform="translate(50.153906 30.898437)scale(0.1 -0.1)">
      <use xlink:href="#DejaVuSans-73"/>
      <use x="52.099609" xlink:href="#DejaVuSans-79"/>
      <use x="111.279297" xlink:href="#DejaVuSans-6d"/>
      <use x="208.691406" xlink:href="#DejaVuSans-62"/>
      <use x="272.167969" xlink:href="#DejaVuSans-6f"/>
      <use x="333.349609" xlink:href="#DejaVuSans-6c"/>
     </g>
    </g>
    <g id="line2d_15">
     <path d="M 39.525 42.076562 
L 59.525 42.076562 
" style="fill:none;stroke:#1f77b4;stroke-linecap:square;stroke-width:1.5;"/>
    </g>
    <g id="line2d_16"/>
    <g id="text_15">
     <!-- EBAY -->
     <defs>
      <path d="M 9.8125 72.90625 
L 55.90625 72.90625 
L 55.90625 64.59375 
L 19.671875 64.59375 
L 19.671875 43.015625 
L 54.390625 43.015625 
L 54.390625 34.71875 
L 19.671875 34.71875 
L 19.671875 8.296875 
L 56.78125 8.296875 
L 56.78125 0 
L 9.8125 0 
z
" id="DejaVuSans-45"/>
      <path d="M 19.671875 34.8125 
L 19.671875 8.109375 
L 35.5 8.109375 
Q 43.453125 8.109375 47.28125 11.40625 
Q 51.125 14.703125 51.125 21.484375 
Q 51.125 28.328125 47.28125 31.5625 
Q 43.453125 34.8125 35.5 34.8125 
z
M 19.671875 64.796875 
L 19.671875 42.828125 
L 34.28125 42.828125 
Q 41.5 42.828125 45.03125 45.53125 
Q 48.578125 48.25 48.578125 53.8125 
Q 48.578125 59.328125 45.03125 62.0625 
Q 41.5 64.796875 34.28125 64.796875 
z
M 9.8125 72.90625 
L 35.015625 72.90625 
Q 46.296875 72.90625 52.390625 68.21875 
Q 58.5 63.53125 58.5 54.890625 
Q 58.5 48.1875 55.375 44.234375 
Q 52.25 40.28125 46.1875 39.3125 
Q 53.46875 37.75 57.5 32.78125 
Q 61.53125 27.828125 61.53125 20.40625 
Q 61.53125 10.640625 54.890625 5.3125 
Q 48.25 0 35.984375 0 
L 9.8125 0 
z
" id="DejaVuSans-42"/>
      <path d="M 34.1875 63.1875 
L 20.796875 26.90625 
L 47.609375 26.90625 
z
M 28.609375 72.90625 
L 39.796875 72.90625 
L 67.578125 0 
L 57.328125 0 
L 50.6875 18.703125 
L 17.828125 18.703125 
L 11.1875 0 
L 0.78125 0 
z
" id="DejaVuSans-41"/>
      <path d="M -0.203125 72.90625 
L 10.40625 72.90625 
L 30.609375 42.921875 
L 50.6875 72.90625 
L 61.28125 72.90625 
L 35.5 34.71875 
L 35.5 0 
L 25.59375 0 
L 25.59375 34.71875 
z
" id="DejaVuSans-59"/>
     </defs>
     <g transform="translate(67.525 45.576562)scale(0.1 -0.1)">
      <use xlink:href="#DejaVuSans-45"/>
      <use x="63.183594" xlink:href="#DejaVuSans-42"/>
      <use x="131.787109" xlink:href="#DejaVuSans-41"/>
      <use x="200.085938" xlink:href="#DejaVuSans-59"/>
     </g>
    </g>
    <g id="line2d_17">
     <path d="M 39.525 56.754687 
L 59.525 56.754687 
" style="fill:none;stroke:#ff7f0e;stroke-linecap:square;stroke-width:1.5;"/>
    </g>
    <g id="line2d_18"/>
    <g id="text_16">
     <!-- YHOO -->
     <defs>
      <path d="M 9.8125 72.90625 
L 19.671875 72.90625 
L 19.671875 43.015625 
L 55.515625 43.015625 
L 55.515625 72.90625 
L 65.375 72.90625 
L 65.375 0 
L 55.515625 0 
L 55.515625 34.71875 
L 19.671875 34.71875 
L 19.671875 0 
L 9.8125 0 
z
" id="DejaVuSans-48"/>
      <path d="M 39.40625 66.21875 
Q 28.65625 66.21875 22.328125 58.203125 
Q 16.015625 50.203125 16.015625 36.375 
Q 16.015625 22.609375 22.328125 14.59375 
Q 28.65625 6.59375 39.40625 6.59375 
Q 50.140625 6.59375 56.421875 14.59375 
Q 62.703125 22.609375 62.703125 36.375 
Q 62.703125 50.203125 56.421875 58.203125 
Q 50.140625 66.21875 39.40625 66.21875 
z
M 39.40625 74.21875 
Q 54.734375 74.21875 63.90625 63.9375 
Q 73.09375 53.65625 73.09375 36.375 
Q 73.09375 19.140625 63.90625 8.859375 
Q 54.734375 -1.421875 39.40625 -1.421875 
Q 24.03125 -1.421875 14.8125 8.828125 
Q 5.609375 19.09375 5.609375 36.375 
Q 5.609375 53.65625 14.8125 63.9375 
Q 24.03125 74.21875 39.40625 74.21875 
z
" id="DejaVuSans-4f"/>
     </defs>
     <g transform="translate(67.525 60.254687)scale(0.1 -0.1)">
      <use xlink:href="#DejaVuSans-59"/>
      <use x="61.083984" xlink:href="#DejaVuSans-48"/>
      <use x="136.279297" xlink:href="#DejaVuSans-4f"/>
      <use x="214.990234" xlink:href="#DejaVuSans-4f"/>
     </g>
    </g>
   </g>
  </g>
 </g>
 <defs>
  <clipPath id="p8d9e12cf98">
   <rect height="573.115373" width="595.175" x="30.525" y="14.3"/>
  </clipPath>
 </defs>
</svg>
