<?xml version="1.0" encoding="utf-8" standalone="no"?>
<!DOCTYPE svg PUBLIC "-//W3C//DTD SVG 1.1//EN"
  "http://www.w3.org/Graphics/SVG/1.1/DTD/svg11.dtd">
<!-- Created with matplotlib (http://matplotlib.org/) -->
<svg height="640pt" version="1.1" viewBox="0 0 640 640" width="640pt" xmlns="http://www.w3.org/2000/svg" xmlns:xlink="http://www.w3.org/1999/xlink">
 <defs>
  <style type="text/css">
*{stroke-linecap:butt;stroke-linejoin:round;}
  </style>
 </defs>
 <g id="figure_1">
  <g id="patch_1">
   <path d="M 0 640 
L 640 640 
L 640 0 
L 0 0 
z
" style="fill:#ffffff;"/>
  </g>
  <g id="axes_1">
   <g id="patch_2">
    <path d="M 33.703125 598.84375 
L 625.7 598.84375 
L 625.7 14.3 
L 33.703125 14.3 
z
" style="fill:#ffffff;"/>
   </g>
   <g id="matplotlib.axis_1">
    <g id="xtick_1">
     <g id="line2d_1">
      <defs>
       <path d="M 0 0 
L 0 3.5 
" id="m3f900764ac" style="stroke:#000000;stroke-width:0.8;"/>
      </defs>
      <g>
       <use style="stroke:#000000;stroke-width:0.8;" x="60.612074" xlink:href="#m3f900764ac" y="598.84375"/>
      </g>
     </g>
     <g id="text_1">
      <!-- 0.0 -->
      <defs>
       <path d="M 31.78125 66.40625 
Q 24.171875 66.40625 20.328125 58.90625 
Q 16.5 51.421875 16.5 36.375 
Q 16.5 21.390625 20.328125 13.890625 
Q 24.171875 6.390625 31.78125 6.390625 
Q 39.453125 6.390625 43.28125 13.890625 
Q 47.125 21.390625 47.125 36.375 
Q 47.125 51.421875 43.28125 58.90625 
Q 39.453125 66.40625 31.78125 66.40625 
z
M 31.78125 74.21875 
Q 44.046875 74.21875 50.515625 64.515625 
Q 56.984375 54.828125 56.984375 36.375 
Q 56.984375 17.96875 50.515625 8.265625 
Q 44.046875 -1.421875 31.78125 -1.421875 
Q 19.53125 -1.421875 13.0625 8.265625 
Q 6.59375 17.96875 6.59375 36.375 
Q 6.59375 54.828125 13.0625 64.515625 
Q 19.53125 74.21875 31.78125 74.21875 
z
" id="DejaVuSans-30"/>
       <path d="M 10.6875 12.40625 
L 21 12.40625 
L 21 0 
L 10.6875 0 
z
" id="DejaVuSans-2e"/>
      </defs>
      <g transform="translate(52.660511 613.442188)scale(0.1 -0.1)">
       <use xlink:href="#DejaVuSans-30"/>
       <use x="63.623047" xlink:href="#DejaVuSans-2e"/>
       <use x="95.410156" xlink:href="#DejaVuSans-30"/>
      </g>
     </g>
    </g>
    <g id="xtick_2">
     <g id="line2d_2">
      <g>
       <use style="stroke:#000000;stroke-width:0.8;" x="168.296706" xlink:href="#m3f900764ac" y="598.84375"/>
      </g>
     </g>
     <g id="text_2">
      <!-- 0.2 -->
      <defs>
       <path d="M 19.1875 8.296875 
L 53.609375 8.296875 
L 53.609375 0 
L 7.328125 0 
L 7.328125 8.296875 
Q 12.9375 14.109375 22.625 23.890625 
Q 32.328125 33.6875 34.8125 36.53125 
Q 39.546875 41.84375 41.421875 45.53125 
Q 43.3125 49.21875 43.3125 52.78125 
Q 43.3125 58.59375 39.234375 62.25 
Q 35.15625 65.921875 28.609375 65.921875 
Q 23.96875 65.921875 18.8125 64.3125 
Q 13.671875 62.703125 7.8125 59.421875 
L 7.8125 69.390625 
Q 13.765625 71.78125 18.9375 73 
Q 24.125 74.21875 28.421875 74.21875 
Q 39.75 74.21875 46.484375 68.546875 
Q 53.21875 62.890625 53.21875 53.421875 
Q 53.21875 48.921875 51.53125 44.890625 
Q 49.859375 40.875 45.40625 35.40625 
Q 44.1875 33.984375 37.640625 27.21875 
Q 31.109375 20.453125 19.1875 8.296875 
z
" id="DejaVuSans-32"/>
      </defs>
      <g transform="translate(160.345143 613.442188)scale(0.1 -0.1)">
       <use xlink:href="#DejaVuSans-30"/>
       <use x="63.623047" xlink:href="#DejaVuSans-2e"/>
       <use x="95.410156" xlink:href="#DejaVuSans-32"/>
      </g>
     </g>
    </g>
    <g id="xtick_3">
     <g id="line2d_3">
      <g>
       <use style="stroke:#000000;stroke-width:0.8;" x="275.981338" xlink:href="#m3f900764ac" y="598.84375"/>
      </g>
     </g>
     <g id="text_3">
      <!-- 0.4 -->
      <defs>
       <path d="M 37.796875 64.3125 
L 12.890625 25.390625 
L 37.796875 25.390625 
z
M 35.203125 72.90625 
L 47.609375 72.90625 
L 47.609375 25.390625 
L 58.015625 25.390625 
L 58.015625 17.1875 
L 47.609375 17.1875 
L 47.609375 0 
L 37.796875 0 
L 37.796875 17.1875 
L 4.890625 17.1875 
L 4.890625 26.703125 
z
" id="DejaVuSans-34"/>
      </defs>
      <g transform="translate(268.029775 613.442188)scale(0.1 -0.1)">
       <use xlink:href="#DejaVuSans-30"/>
       <use x="63.623047" xlink:href="#DejaVuSans-2e"/>
       <use x="95.410156" xlink:href="#DejaVuSans-34"/>
      </g>
     </g>
    </g>
    <g id="xtick_4">
     <g id="line2d_4">
      <g>
       <use style="stroke:#000000;stroke-width:0.8;" x="383.66597" xlink:href="#m3f900764ac" y="598.84375"/>
      </g>
     </g>
     <g id="text_4">
      <!-- 0.6 -->
      <defs>
       <path d="M 33.015625 40.375 
Q 26.375 40.375 22.484375 35.828125 
Q 18.609375 31.296875 18.609375 23.390625 
Q 18.609375 15.53125 22.484375 10.953125 
Q 26.375 6.390625 33.015625 6.390625 
Q 39.65625 6.390625 43.53125 10.953125 
Q 47.40625 15.53125 47.40625 23.390625 
Q 47.40625 31.296875 43.53125 35.828125 
Q 39.65625 40.375 33.015625 40.375 
z
M 52.59375 71.296875 
L 52.59375 62.3125 
Q 48.875 64.0625 45.09375 64.984375 
Q 41.3125 65.921875 37.59375 65.921875 
Q 27.828125 65.921875 22.671875 59.328125 
Q 17.53125 52.734375 16.796875 39.40625 
Q 19.671875 43.65625 24.015625 45.921875 
Q 28.375 48.1875 33.59375 48.1875 
Q 44.578125 48.1875 50.953125 41.515625 
Q 57.328125 34.859375 57.328125 23.390625 
Q 57.328125 12.15625 50.6875 5.359375 
Q 44.046875 -1.421875 33.015625 -1.421875 
Q 20.359375 -1.421875 13.671875 8.265625 
Q 6.984375 17.96875 6.984375 36.375 
Q 6.984375 53.65625 15.1875 63.9375 
Q 23.390625 74.21875 37.203125 74.21875 
Q 40.921875 74.21875 44.703125 73.484375 
Q 48.484375 72.75 52.59375 71.296875 
z
" id="DejaVuSans-36"/>
      </defs>
      <g transform="translate(375.714407 613.442188)scale(0.1 -0.1)">
       <use xlink:href="#DejaVuSans-30"/>
       <use x="63.623047" xlink:href="#DejaVuSans-2e"/>
       <use x="95.410156" xlink:href="#DejaVuSans-36"/>
      </g>
     </g>
    </g>
    <g id="xtick_5">
     <g id="line2d_5">
      <g>
       <use style="stroke:#000000;stroke-width:0.8;" x="491.350602" xlink:href="#m3f900764ac" y="598.84375"/>
      </g>
     </g>
     <g id="text_5">
      <!-- 0.8 -->
      <defs>
       <path d="M 31.78125 34.625 
Q 24.75 34.625 20.71875 30.859375 
Q 16.703125 27.09375 16.703125 20.515625 
Q 16.703125 13.921875 20.71875 10.15625 
Q 24.75 6.390625 31.78125 6.390625 
Q 38.8125 6.390625 42.859375 10.171875 
Q 46.921875 13.96875 46.921875 20.515625 
Q 46.921875 27.09375 42.890625 30.859375 
Q 38.875 34.625 31.78125 34.625 
z
M 21.921875 38.8125 
Q 15.578125 40.375 12.03125 44.71875 
Q 8.5 49.078125 8.5 55.328125 
Q 8.5 64.0625 14.71875 69.140625 
Q 20.953125 74.21875 31.78125 74.21875 
Q 42.671875 74.21875 48.875 69.140625 
Q 55.078125 64.0625 55.078125 55.328125 
Q 55.078125 49.078125 51.53125 44.71875 
Q 48 40.375 41.703125 38.8125 
Q 48.828125 37.15625 52.796875 32.3125 
Q 56.78125 27.484375 56.78125 20.515625 
Q 56.78125 9.90625 50.3125 4.234375 
Q 43.84375 -1.421875 31.78125 -1.421875 
Q 19.734375 -1.421875 13.25 4.234375 
Q 6.78125 9.90625 6.78125 20.515625 
Q 6.78125 27.484375 10.78125 32.3125 
Q 14.796875 37.15625 21.921875 38.8125 
z
M 18.3125 54.390625 
Q 18.3125 48.734375 21.84375 45.5625 
Q 25.390625 42.390625 31.78125 42.390625 
Q 38.140625 42.390625 41.71875 45.5625 
Q 45.3125 48.734375 45.3125 54.390625 
Q 45.3125 60.0625 41.71875 63.234375 
Q 38.140625 66.40625 31.78125 66.40625 
Q 25.390625 66.40625 21.84375 63.234375 
Q 18.3125 60.0625 18.3125 54.390625 
z
" id="DejaVuSans-38"/>
      </defs>
      <g transform="translate(483.399039 613.442188)scale(0.1 -0.1)">
       <use xlink:href="#DejaVuSans-30"/>
       <use x="63.623047" xlink:href="#DejaVuSans-2e"/>
       <use x="95.410156" xlink:href="#DejaVuSans-38"/>
      </g>
     </g>
    </g>
    <g id="xtick_6">
     <g id="line2d_6">
      <g>
       <use style="stroke:#000000;stroke-width:0.8;" x="599.035234" xlink:href="#m3f900764ac" y="598.84375"/>
      </g>
     </g>
     <g id="text_6">
      <!-- 1.0 -->
      <defs>
       <path d="M 12.40625 8.296875 
L 28.515625 8.296875 
L 28.515625 63.921875 
L 10.984375 60.40625 
L 10.984375 69.390625 
L 28.421875 72.90625 
L 38.28125 72.90625 
L 38.28125 8.296875 
L 54.390625 8.296875 
L 54.390625 0 
L 12.40625 0 
z
" id="DejaVuSans-31"/>
      </defs>
      <g transform="translate(591.083671 613.442188)scale(0.1 -0.1)">
       <use xlink:href="#DejaVuSans-31"/>
       <use x="63.623047" xlink:href="#DejaVuSans-2e"/>
       <use x="95.410156" xlink:href="#DejaVuSans-30"/>
      </g>
     </g>
    </g>
    <g id="text_7">
     <!-- time -->
     <defs>
      <path d="M 18.3125 70.21875 
L 18.3125 54.6875 
L 36.8125 54.6875 
L 36.8125 47.703125 
L 18.3125 47.703125 
L 18.3125 18.015625 
Q 18.3125 11.328125 20.140625 9.421875 
Q 21.96875 7.515625 27.59375 7.515625 
L 36.8125 7.515625 
L 36.8125 0 
L 27.59375 0 
Q 17.1875 0 13.234375 3.875 
Q 9.28125 7.765625 9.28125 18.015625 
L 9.28125 47.703125 
L 2.6875 47.703125 
L 2.6875 54.6875 
L 9.28125 54.6875 
L 9.28125 70.21875 
z
" id="DejaVuSans-74"/>
      <path d="M 9.421875 54.6875 
L 18.40625 54.6875 
L 18.40625 0 
L 9.421875 0 
z
M 9.421875 75.984375 
L 18.40625 75.984375 
L 18.40625 64.59375 
L 9.421875 64.59375 
z
" id="DejaVuSans-69"/>
      <path d="M 52 44.1875 
Q 55.375 50.25 60.0625 53.125 
Q 64.75 56 71.09375 56 
Q 79.640625 56 84.28125 50.015625 
Q 88.921875 44.046875 88.921875 33.015625 
L 88.921875 0 
L 79.890625 0 
L 79.890625 32.71875 
Q 79.890625 40.578125 77.09375 44.375 
Q 74.3125 48.1875 68.609375 48.1875 
Q 61.625 48.1875 57.5625 43.546875 
Q 53.515625 38.921875 53.515625 30.90625 
L 53.515625 0 
L 44.484375 0 
L 44.484375 32.71875 
Q 44.484375 40.625 41.703125 44.40625 
Q 38.921875 48.1875 33.109375 48.1875 
Q 26.21875 48.1875 22.15625 43.53125 
Q 18.109375 38.875 18.109375 30.90625 
L 18.109375 0 
L 9.078125 0 
L 9.078125 54.6875 
L 18.109375 54.6875 
L 18.109375 46.1875 
Q 21.1875 51.21875 25.484375 53.609375 
Q 29.78125 56 35.6875 56 
Q 41.65625 56 45.828125 52.96875 
Q 50 49.953125 52 44.1875 
z
" id="DejaVuSans-6d"/>
      <path d="M 56.203125 29.59375 
L 56.203125 25.203125 
L 14.890625 25.203125 
Q 15.484375 15.921875 20.484375 11.0625 
Q 25.484375 6.203125 34.421875 6.203125 
Q 39.59375 6.203125 44.453125 7.46875 
Q 49.3125 8.734375 54.109375 11.28125 
L 54.109375 2.78125 
Q 49.265625 0.734375 44.1875 -0.34375 
Q 39.109375 -1.421875 33.890625 -1.421875 
Q 20.796875 -1.421875 13.15625 6.1875 
Q 5.515625 13.8125 5.515625 26.8125 
Q 5.515625 40.234375 12.765625 48.109375 
Q 20.015625 56 32.328125 56 
Q 43.359375 56 49.78125 48.890625 
Q 56.203125 41.796875 56.203125 29.59375 
z
M 47.21875 32.234375 
Q 47.125 39.59375 43.09375 43.984375 
Q 39.0625 48.390625 32.421875 48.390625 
Q 24.90625 48.390625 20.390625 44.140625 
Q 15.875 39.890625 15.1875 32.171875 
z
" id="DejaVuSans-65"/>
     </defs>
     <g transform="translate(318.405469 627.120312)scale(0.1 -0.1)">
      <use xlink:href="#DejaVuSans-74"/>
      <use x="39.208984" xlink:href="#DejaVuSans-69"/>
      <use x="66.992188" xlink:href="#DejaVuSans-6d"/>
      <use x="164.404297" xlink:href="#DejaVuSans-65"/>
     </g>
    </g>
   </g>
   <g id="matplotlib.axis_2">
    <g id="ytick_1">
     <g id="line2d_7">
      <defs>
       <path d="M 0 0 
L -3.5 0 
" id="mcda3d569ab" style="stroke:#000000;stroke-width:0.8;"/>
      </defs>
      <g>
       <use style="stroke:#000000;stroke-width:0.8;" x="33.703125" xlink:href="#mcda3d569ab" y="572.278348"/>
      </g>
     </g>
     <g id="text_8">
      <!-- 0.0 -->
      <g transform="translate(10.8 576.077567)scale(0.1 -0.1)">
       <use xlink:href="#DejaVuSans-30"/>
       <use x="63.623047" xlink:href="#DejaVuSans-2e"/>
       <use x="95.410156" xlink:href="#DejaVuSans-30"/>
      </g>
     </g>
    </g>
    <g id="ytick_2">
     <g id="line2d_8">
      <g>
       <use style="stroke:#000000;stroke-width:0.8;" x="33.703125" xlink:href="#mcda3d569ab" y="485.675815"/>
      </g>
     </g>
     <g id="text_9">
      <!-- 0.1 -->
      <g transform="translate(10.8 489.475034)scale(0.1 -0.1)">
       <use xlink:href="#DejaVuSans-30"/>
       <use x="63.623047" xlink:href="#DejaVuSans-2e"/>
       <use x="95.410156" xlink:href="#DejaVuSans-31"/>
      </g>
     </g>
    </g>
    <g id="ytick_3">
     <g id="line2d_9">
      <g>
       <use style="stroke:#000000;stroke-width:0.8;" x="33.703125" xlink:href="#mcda3d569ab" y="399.073282"/>
      </g>
     </g>
     <g id="text_10">
      <!-- 0.2 -->
      <g transform="translate(10.8 402.872501)scale(0.1 -0.1)">
       <use xlink:href="#DejaVuSans-30"/>
       <use x="63.623047" xlink:href="#DejaVuSans-2e"/>
       <use x="95.410156" xlink:href="#DejaVuSans-32"/>
      </g>
     </g>
    </g>
    <g id="ytick_4">
     <g id="line2d_10">
      <g>
       <use style="stroke:#000000;stroke-width:0.8;" x="33.703125" xlink:href="#mcda3d569ab" y="312.470749"/>
      </g>
     </g>
     <g id="text_11">
      <!-- 0.3 -->
      <defs>
       <path d="M 40.578125 39.3125 
Q 47.65625 37.796875 51.625 33 
Q 55.609375 28.21875 55.609375 21.1875 
Q 55.609375 10.40625 48.1875 4.484375 
Q 40.765625 -1.421875 27.09375 -1.421875 
Q 22.515625 -1.421875 17.65625 -0.515625 
Q 12.796875 0.390625 7.625 2.203125 
L 7.625 11.71875 
Q 11.71875 9.328125 16.59375 8.109375 
Q 21.484375 6.890625 26.8125 6.890625 
Q 36.078125 6.890625 40.9375 10.546875 
Q 45.796875 14.203125 45.796875 21.1875 
Q 45.796875 27.640625 41.28125 31.265625 
Q 36.765625 34.90625 28.71875 34.90625 
L 20.21875 34.90625 
L 20.21875 43.015625 
L 29.109375 43.015625 
Q 36.375 43.015625 40.234375 45.921875 
Q 44.09375 48.828125 44.09375 54.296875 
Q 44.09375 59.90625 40.109375 62.90625 
Q 36.140625 65.921875 28.71875 65.921875 
Q 24.65625 65.921875 20.015625 65.03125 
Q 15.375 64.15625 9.8125 62.3125 
L 9.8125 71.09375 
Q 15.4375 72.65625 20.34375 73.4375 
Q 25.25 74.21875 29.59375 74.21875 
Q 40.828125 74.21875 47.359375 69.109375 
Q 53.90625 64.015625 53.90625 55.328125 
Q 53.90625 49.265625 50.4375 45.09375 
Q 46.96875 40.921875 40.578125 39.3125 
z
" id="DejaVuSans-33"/>
      </defs>
      <g transform="translate(10.8 316.269968)scale(0.1 -0.1)">
       <use xlink:href="#DejaVuSans-30"/>
       <use x="63.623047" xlink:href="#DejaVuSans-2e"/>
       <use x="95.410156" xlink:href="#DejaVuSans-33"/>
      </g>
     </g>
    </g>
    <g id="ytick_5">
     <g id="line2d_11">
      <g>
       <use style="stroke:#000000;stroke-width:0.8;" x="33.703125" xlink:href="#mcda3d569ab" y="225.868216"/>
      </g>
     </g>
     <g id="text_12">
      <!-- 0.4 -->
      <g transform="translate(10.8 229.667435)scale(0.1 -0.1)">
       <use xlink:href="#DejaVuSans-30"/>
       <use x="63.623047" xlink:href="#DejaVuSans-2e"/>
       <use x="95.410156" xlink:href="#DejaVuSans-34"/>
      </g>
     </g>
    </g>
    <g id="ytick_6">
     <g id="line2d_12">
      <g>
       <use style="stroke:#000000;stroke-width:0.8;" x="33.703125" xlink:href="#mcda3d569ab" y="139.265683"/>
      </g>
     </g>
     <g id="text_13">
      <!-- 0.5 -->
      <defs>
       <path d="M 10.796875 72.90625 
L 49.515625 72.90625 
L 49.515625 64.59375 
L 19.828125 64.59375 
L 19.828125 46.734375 
Q 21.96875 47.46875 24.109375 47.828125 
Q 26.265625 48.1875 28.421875 48.1875 
Q 40.625 48.1875 47.75 41.5 
Q 54.890625 34.8125 54.890625 23.390625 
Q 54.890625 11.625 47.5625 5.09375 
Q 40.234375 -1.421875 26.90625 -1.421875 
Q 22.3125 -1.421875 17.546875 -0.640625 
Q 12.796875 0.140625 7.71875 1.703125 
L 7.71875 11.625 
Q 12.109375 9.234375 16.796875 8.0625 
Q 21.484375 6.890625 26.703125 6.890625 
Q 35.15625 6.890625 40.078125 11.328125 
Q 45.015625 15.765625 45.015625 23.390625 
Q 45.015625 31 40.078125 35.4375 
Q 35.15625 39.890625 26.703125 39.890625 
Q 22.75 39.890625 18.8125 39.015625 
Q 14.890625 38.140625 10.796875 36.28125 
z
" id="DejaVuSans-35"/>
      </defs>
      <g transform="translate(10.8 143.064902)scale(0.1 -0.1)">
       <use xlink:href="#DejaVuSans-30"/>
       <use x="63.623047" xlink:href="#DejaVuSans-2e"/>
       <use x="95.410156" xlink:href="#DejaVuSans-35"/>
      </g>
     </g>
    </g>
    <g id="ytick_7">
     <g id="line2d_13">
      <g>
       <use style="stroke:#000000;stroke-width:0.8;" x="33.703125" xlink:href="#mcda3d569ab" y="52.66315"/>
      </g>
     </g>
     <g id="text_14">
      <!-- 0.6 -->
      <g transform="translate(10.8 56.462368)scale(0.1 -0.1)">
       <use xlink:href="#DejaVuSans-30"/>
       <use x="63.623047" xlink:href="#DejaVuSans-2e"/>
       <use x="95.410156" xlink:href="#DejaVuSans-36"/>
      </g>
     </g>
    </g>
   </g>
   <g id="line2d_14">
    <path clip-path="url(#p556eace02e)" d="M 60.612074 550.900973 
L 60.856257 519.94531 
L 61.10044 511.587244 
L 61.344622 499.348541 
L 61.588805 498.570215 
L 61.832988 504.308114 
L 62.809719 562.865542 
L 63.053902 558.347009 
L 63.786451 518.246567 
L 64.030634 520.295246 
L 64.274816 536.312021 
L 64.518999 562.444518 
L 64.763182 554.467057 
L 65.007365 536.432226 
L 65.251548 532.672517 
L 65.495731 546.026235 
L 65.739913 571.43083 
L 66.228279 519.921966 
L 66.472462 511.431386 
L 66.716645 522.538085 
L 66.960828 549.905153 
L 67.205011 560.512048 
L 67.449193 531.573359 
L 67.693376 516.16457 
L 67.937559 518.119264 
L 68.670108 564.758584 
L 68.91429 553.052206 
L 69.158473 555.811587 
L 69.402656 571.414176 
L 69.891022 531.228046 
L 70.135205 520.594895 
L 70.379387 522.024665 
L 70.867753 550.032077 
L 71.111936 564.974593 
L 71.356119 571.700924 
L 71.600302 568.992899 
L 72.088667 545.537599 
L 72.577033 526.534109 
L 72.821216 526.275658 
L 73.553764 542.979632 
L 73.797947 540.94178 
L 74.530496 522.185542 
L 74.774679 522.330934 
L 75.018861 529.825461 
L 75.507227 554.516795 
L 75.75141 561.209367 
L 75.995593 560.586397 
L 76.239776 552.199435 
L 76.972324 513.436957 
L 77.216507 513.6262 
L 77.46069 522.173483 
L 78.193238 557.121479 
L 78.437421 557.742402 
L 79.414152 531.043788 
L 79.658335 535.34091 
L 80.390884 571.817878 
L 80.635067 566.131514 
L 80.87925 567.985804 
L 81.123432 568.413902 
L 81.611798 550.093499 
L 81.855981 548.576736 
L 82.100164 554.686671 
L 82.344347 566.437239 
L 82.588529 563.671697 
L 82.832712 552.152624 
L 83.076895 547.57794 
L 83.321078 550.455076 
L 83.809444 571.782998 
L 84.053626 563.731605 
L 84.297809 561.847962 
L 84.541992 568.208467 
L 84.786175 561.415691 
L 85.518723 509.330804 
L 85.762906 503.89289 
L 86.007089 507.59242 
L 86.495455 529.548131 
L 86.98382 549.899717 
L 87.228003 555.069817 
L 87.472186 555.924936 
L 87.716369 553.928802 
L 88.448918 541.22 
L 89.181466 532.345675 
L 89.425649 532.580519 
L 89.669832 535.758257 
L 89.914015 543.042272 
L 90.40238 566.486466 
L 90.646563 570.267168 
L 91.134929 567.317444 
L 91.867477 527.536317 
L 92.11166 524.56941 
L 92.355843 531.061923 
L 92.844209 566.388479 
L 93.088391 558.259111 
L 93.332574 545.045459 
L 93.576757 542.7709 
L 93.82094 550.475917 
L 94.065123 564.877302 
L 94.309306 562.591099 
L 94.797671 540.468706 
L 95.041854 542.160133 
L 95.286037 552.040908 
L 95.53022 567.563972 
L 95.774403 558.721193 
L 96.262768 528.902175 
L 96.506951 522.246091 
L 96.751134 522.271856 
L 96.995317 527.039386 
L 97.972048 554.424723 
L 98.216231 557.347621 
L 98.460414 557.201164 
L 98.704597 553.099022 
L 99.192962 538.35046 
L 99.681328 525.329392 
L 99.925511 524.849641 
L 100.169694 529.3723 
L 100.902242 553.432164 
L 101.146425 555.242042 
L 101.390608 551.550132 
L 102.123157 529.902141 
L 102.367339 533.743937 
L 102.855705 559.184967 
L 103.099888 571.991249 
L 103.344071 563.570187 
L 103.588254 560.940303 
L 103.832436 564.462333 
L 104.076619 572.258275 
L 104.564985 559.232209 
L 104.809168 560.176157 
L 105.297533 569.098545 
L 105.541716 560.048485 
L 105.785899 555.976239 
L 106.030082 557.536966 
L 106.518448 571.306079 
L 106.76263 565.817589 
L 107.006813 562.853321 
L 107.250996 565.065154 
L 107.495179 571.65276 
L 108.227727 536.630956 
L 108.47191 533.284778 
L 108.716093 538.090916 
L 109.204459 560.407579 
L 109.448642 571.316468 
L 109.692825 568.156176 
L 109.937007 570.689289 
L 110.18119 564.13395 
L 110.913739 523.25721 
L 111.157922 517.061511 
L 111.402104 518.082415 
L 111.89047 533.489561 
L 112.378836 548.644228 
L 112.867201 554.733362 
L 113.843933 562.246926 
L 114.088116 561.407348 
L 114.332298 558.67144 
L 114.820664 550.009 
L 115.064847 548.980025 
L 115.30903 552.739394 
L 115.797395 571.275545 
L 116.285761 554.29076 
L 116.529944 554.916292 
L 117.01831 569.180627 
L 117.262493 559.22761 
L 117.506675 554.489376 
L 117.750858 557.237819 
L 117.995041 568.539346 
L 118.239224 559.450582 
L 118.72759 534.566646 
L 118.971772 533.941232 
L 119.215955 542.484559 
L 119.704321 567.793724 
L 119.948504 570.211762 
L 120.192687 570.911854 
L 120.436869 565.990063 
L 121.169418 533.227952 
L 121.413601 526.547936 
L 121.657784 524.476244 
L 121.901966 526.259937 
L 122.390332 534.027665 
L 124.099612 547.714358 
L 124.343795 547.489942 
L 124.832161 540.829231 
L 125.320526 533.031593 
L 125.564709 533.90385 
L 125.808892 538.217877 
L 126.785623 567.821928 
L 127.029806 567.378019 
L 127.273989 562.73665 
L 128.006537 539.945666 
L 128.25072 537.809205 
L 128.494903 542.811005 
L 128.983269 566.266469 
L 129.227452 567.214638 
L 129.471634 560.391486 
L 129.715817 560.371925 
L 130.204183 570.414518 
L 130.692549 556.840427 
L 130.936732 555.829199 
L 131.180914 559.427333 
L 131.66928 570.615803 
L 132.157646 559.968308 
L 132.401829 558.397005 
L 132.646011 559.659764 
L 133.37856 567.6352 
L 133.622743 567.981652 
L 133.866926 567.490196 
L 134.111108 566.328118 
L 134.355291 563.352348 
L 134.843657 552.682058 
L 135.332023 539.305653 
L 135.576205 535.400663 
L 135.820388 534.117421 
L 136.064571 536.370854 
L 136.308754 541.433952 
L 136.79712 556.127373 
L 137.041302 560.303366 
L 137.285485 561.895214 
L 137.529668 559.346399 
L 138.262217 539.231312 
L 138.5064 538.437777 
L 138.750582 541.825209 
L 139.727314 566.810192 
L 139.971497 566.692647 
L 140.948228 551.866441 
L 141.192411 553.534235 
L 141.680776 560.578831 
L 142.169142 567.790099 
L 142.413325 569.690207 
L 142.657508 570.650121 
L 142.901691 570.536335 
L 143.634239 565.830894 
L 143.878422 566.257116 
L 144.122605 568.196291 
L 144.366788 571.074466 
L 144.61097 570.028356 
L 145.099336 563.350795 
L 145.343519 561.54436 
L 145.587702 561.682289 
L 145.831885 561.349878 
L 146.32025 559.810875 
L 146.808616 555.323854 
L 147.296982 551.524182 
L 147.541165 550.774008 
L 147.785347 550.725236 
L 148.02953 551.242878 
L 148.517896 551.303557 
L 148.762079 551.89041 
L 149.006262 552.159506 
L 149.250444 551.107671 
L 149.982993 545.652958 
L 150.471359 541.355455 
L 150.715541 540.566283 
L 150.959724 541.3016 
L 151.44809 546.292503 
L 151.936456 551.899444 
L 152.424821 554.334551 
L 152.669004 555.175094 
L 152.913187 554.815131 
L 153.401553 552.4166 
L 153.645736 552.790443 
L 154.86665 563.551864 
L 155.110833 563.52142 
L 155.843381 559.813242 
L 156.087564 559.879292 
L 156.331747 561.787979 
L 157.064295 570.120339 
L 157.308478 566.4876 
L 157.552661 565.32705 
L 158.041027 564.72071 
L 158.285209 564.670649 
L 158.529392 563.360237 
L 159.017758 559.03731 
L 159.994489 553.900424 
L 160.238672 552.606198 
L 160.482855 552.229598 
L 160.971221 554.044777 
L 161.215404 554.523762 
L 161.459586 555.615381 
L 161.947952 558.770183 
L 162.436318 560.806001 
L 162.680501 560.757843 
L 162.924683 560.197035 
L 163.168866 560.468517 
L 163.413049 559.917476 
L 163.901415 557.962048 
L 164.145598 558.295445 
L 164.38978 558.941244 
L 164.633963 558.529034 
L 164.878146 558.57869 
L 165.122329 559.146447 
L 165.366512 558.359315 
L 166.587426 546.43955 
L 167.075792 545.274922 
L 167.319975 546.366602 
L 168.052523 554.913716 
L 168.540889 556.745477 
L 169.029254 560.257176 
L 169.51762 565.005842 
L 169.761803 569.20381 
L 170.005986 571.404596 
L 170.250169 569.442939 
L 170.738534 569.797943 
L 171.2269 571.508052 
L 171.959448 571.021446 
L 172.203631 570.659691 
L 172.447814 570.791341 
L 172.691997 571.842835 
L 173.180363 570.541118 
L 173.424546 570.665314 
L 173.912911 571.780456 
L 174.157094 571.793346 
L 174.401277 572.27358 
L 174.64546 571.694324 
L 174.889643 572.10104 
L 175.133825 572.036234 
L 175.378008 571.678357 
L 175.622191 572.250648 
L 176.110557 570.410829 
L 176.598922 572.09572 
L 177.087288 569.648408 
L 177.331471 568.83821 
L 177.575654 568.510629 
L 178.064019 571.655865 
L 178.308202 571.526069 
L 178.796568 569.950292 
L 179.040751 570.046593 
L 179.284934 571.325574 
L 179.529116 571.560061 
L 179.773299 571.12484 
L 180.017482 571.582669 
L 180.261665 571.207469 
L 180.505848 569.026788 
L 180.750031 568.186317 
L 180.994214 567.777466 
L 181.238396 568.66735 
L 181.482579 570.573014 
L 181.970945 571.69171 
L 182.215128 571.5578 
L 182.459311 572.114423 
L 182.947676 570.82358 
L 183.191859 572.018533 
L 183.680225 569.032749 
L 184.16859 566.342829 
L 184.656956 568.549846 
L 184.901139 567.157895 
L 185.633687 560.830885 
L 185.87787 559.711481 
L 186.366236 560.018695 
L 186.610419 559.123094 
L 186.854602 559.58413 
L 187.342967 562.441585 
L 187.831333 566.065897 
L 188.319699 571.063685 
L 188.563882 572.068306 
L 188.808064 571.986979 
L 189.052247 571.667899 
L 190.028979 566.002712 
L 190.273161 564.609406 
L 190.517344 564.501997 
L 191.00571 567.919083 
L 191.249893 568.738731 
L 191.738258 572.075043 
L 192.470807 572.002797 
L 192.71499 571.661179 
L 193.203355 568.84515 
L 193.691721 567.503391 
L 193.935904 567.277721 
L 194.180087 567.3233 
L 194.42427 567.823887 
L 194.668453 566.901605 
L 195.156818 563.576905 
L 195.401001 562.243689 
L 195.645184 561.549139 
L 195.889367 561.235787 
L 196.13355 561.435917 
L 196.621915 563.793594 
L 196.866098 564.351584 
L 197.110281 563.764751 
L 197.354464 563.973606 
L 197.598647 564.580759 
L 197.842829 564.425157 
L 198.575378 566.692627 
L 199.063744 568.176681 
L 199.307926 567.294879 
L 199.796292 564.265062 
L 200.040475 564.368334 
L 200.284658 565.012644 
L 200.528841 565.313893 
L 201.261389 567.529556 
L 201.749755 570.295703 
L 202.238121 569.037654 
L 202.482303 568.988309 
L 202.970669 569.43002 
L 203.459035 572.165321 
L 203.9474 571.528113 
L 204.191583 571.919536 
L 204.435766 571.1024 
L 204.679949 570.960599 
L 204.924132 571.800847 
L 205.168315 571.797532 
L 205.65668 568.692928 
L 205.900863 568.389511 
L 206.145046 567.413966 
L 206.389229 566.932102 
L 206.633412 566.839199 
L 207.121777 567.056969 
L 207.36596 566.675121 
L 208.098509 563.454324 
L 208.342691 563.695379 
L 208.831057 566.268456 
L 209.07524 566.18056 
L 209.319423 565.915535 
L 209.807789 567.393205 
L 210.051971 567.5582 
L 210.296154 568.021349 
L 210.540337 567.798006 
L 211.272886 563.866325 
L 211.517068 563.677669 
L 212.005434 565.438257 
L 212.4938 566.40723 
L 212.982165 566.200155 
L 213.226348 566.852456 
L 213.714714 568.631492 
L 214.20308 569.439287 
L 214.447262 569.976338 
L 214.691445 569.052458 
L 214.935628 569.199408 
L 215.179811 569.900468 
L 215.668177 570.026199 
L 216.156542 568.109086 
L 216.644908 566.440082 
L 216.889091 566.268687 
L 217.133274 565.831983 
L 217.377457 566.050729 
L 218.598371 572.194214 
L 219.086736 570.150007 
L 219.330919 569.783343 
L 219.575102 569.68399 
L 220.063468 570.998776 
L 220.307651 571.810907 
L 220.551833 572.048996 
L 220.796016 572.086992 
L 221.040199 572.266738 
L 221.284382 572.084532 
L 221.772748 570.959822 
L 222.01693 571.133874 
L 222.261113 571.685679 
L 222.749479 571.035259 
L 222.993662 570.857682 
L 223.237845 569.960924 
L 223.72621 569.797149 
L 224.214576 567.750438 
L 224.458759 567.47831 
L 224.702942 567.841561 
L 225.191307 566.042799 
L 226.412222 569.863567 
L 226.900587 569.683125 
L 227.14477 570.061947 
L 227.388953 569.483331 
L 227.877319 566.963895 
L 228.121501 567.254766 
L 228.365684 567.839437 
L 228.85405 566.81497 
L 229.342416 568.170955 
L 229.830781 569.735702 
L 230.56333 569.195192 
L 230.807513 568.595041 
L 231.051696 567.302636 
L 231.295878 567.350128 
L 231.784244 568.6108 
L 232.028427 568.972782 
L 232.27261 569.116743 
L 232.516793 570.320627 
L 232.760975 572.144754 
L 233.005158 571.211451 
L 233.249341 570.999627 
L 233.98189 571.968404 
L 234.226072 572.126886 
L 234.470255 571.39109 
L 234.958621 567.778916 
L 235.446987 566.737015 
L 235.691169 566.624752 
L 235.935352 566.964314 
L 236.423718 568.411646 
L 236.667901 568.514995 
L 236.912084 568.284125 
L 237.156266 567.395662 
L 237.400449 567.330896 
L 238.132998 569.734499 
L 238.377181 570.107923 
L 238.865546 571.779102 
L 239.109729 571.404432 
L 239.353912 570.381997 
L 240.086461 562.813897 
L 240.819009 555.033864 
L 241.063192 553.819364 
L 241.307375 553.661497 
L 241.551558 554.536386 
L 242.284106 558.754694 
L 243.016655 566.957759 
L 243.50502 572.15416 
L 243.749203 571.036644 
L 243.993386 570.533073 
L 244.481752 569.02152 
L 244.725935 568.705434 
L 245.458483 565.734748 
L 245.702666 565.655147 
L 245.946849 566.75457 
L 246.679397 567.865698 
L 247.656129 571.640727 
L 247.900311 571.958317 
L 248.144494 571.463247 
L 248.877043 568.042059 
L 249.365408 565.02397 
L 249.853774 562.061012 
L 250.097957 561.809652 
L 250.34214 562.428814 
L 250.830505 567.619288 
L 251.074688 570.997026 
L 251.318871 571.307447 
L 252.295603 568.914207 
L 252.539785 568.472102 
L 252.783968 568.917797 
L 253.028151 568.552666 
L 253.272334 566.693941 
L 253.516517 566.237162 
L 253.7607 566.407132 
L 254.249065 565.095222 
L 254.493248 564.996678 
L 254.737431 564.363868 
L 254.981614 564.381789 
L 255.225797 565.826525 
L 255.958345 571.435394 
L 256.202528 571.409211 
L 256.446711 570.518776 
L 256.690894 570.090556 
L 256.935076 569.98595 
L 257.423442 571.181932 
L 257.667625 572.114294 
L 258.155991 570.173973 
L 258.400173 569.442595 
L 258.644356 570.164816 
L 258.888539 571.972599 
L 259.376905 564.818298 
L 259.621088 563.012876 
L 259.865271 562.826506 
L 260.109453 563.757379 
L 260.597819 567.066939 
L 261.086185 569.991557 
L 261.818733 570.054044 
L 262.062916 570.993337 
L 262.307099 571.348407 
L 262.795465 568.091964 
L 263.28383 565.973858 
L 263.528013 565.523616 
L 263.772196 566.0461 
L 264.260562 568.792624 
L 264.504744 571.64571 
L 264.99311 568.675559 
L 265.237293 568.409645 
L 265.481476 568.489346 
L 265.725659 568.967391 
L 265.969842 568.826684 
L 266.458207 567.53703 
L 266.70239 567.745373 
L 267.434939 570.692688 
L 267.679121 572.105291 
L 267.923304 570.76675 
L 268.167487 570.076228 
L 268.655853 571.235942 
L 269.144218 571.314746 
L 269.388401 568.537706 
L 269.876767 566.736049 
L 270.12095 567.007638 
L 270.365133 568.644986 
L 270.609315 571.339561 
L 270.853498 570.029965 
L 271.341864 565.068385 
L 271.586047 564.41187 
L 271.83023 565.661686 
L 272.318595 570.637103 
L 272.562778 572.049863 
L 272.806961 572.219857 
L 273.051144 571.863109 
L 273.295327 570.880922 
L 273.53951 570.672126 
L 273.783692 572.208598 
L 274.272058 569.417897 
L 274.760424 567.763588 
L 275.004607 568.515037 
L 275.248789 571.111456 
L 275.492972 569.110052 
L 276.469704 547.112939 
L 276.713886 544.660203 
L 276.958069 545.996598 
L 277.202252 550.494778 
L 277.934801 571.627708 
L 278.423166 554.13669 
L 279.399898 518.147113 
L 279.64408 514.578224 
L 279.888263 512.907171 
L 280.132446 513.596835 
L 280.376629 516.965738 
L 281.109178 533.407838 
L 281.597543 547.421005 
L 282.085909 568.572152 
L 282.574275 520.333944 
L 283.551006 412.917427 
L 283.795189 406.785371 
L 284.039372 415.300244 
L 284.283554 438.419847 
L 284.77192 515.225051 
L 285.016103 559.819005 
L 285.260286 543.049911 
L 285.992834 449.612255 
L 286.4812 412.938888 
L 286.969566 394.527544 
L 287.213749 393.384309 
L 287.457931 396.971955 
L 287.702114 406.410062 
L 288.19048 439.192069 
L 289.411394 542.621286 
L 289.655577 551.407042 
L 290.388125 565.108874 
L 290.632308 564.816252 
L 290.876491 536.279623 
L 291.364857 438.622052 
L 292.341588 218.124721 
L 292.585771 190.209404 
L 292.829954 177.119902 
L 293.074137 175.874591 
L 293.562502 189.997998 
L 294.050868 210.160767 
L 294.295051 227.40357 
L 294.539234 253.128145 
L 295.027599 343.796557 
L 296.004331 559.16202 
L 296.492696 491.352499 
L 297.225245 439.009995 
L 297.713611 366.787745 
L 298.934525 97.303819 
L 299.178708 74.559139 
L 299.42289 67.187153 
L 299.667073 71.688289 
L 300.399622 107.225997 
L 300.887987 143.166644 
L 301.376353 214.817819 
L 301.864719 333.066359 
L 302.597267 537.830504 
L 302.84145 549.650445 
L 303.573999 424.32825 
L 305.039096 229.794052 
L 305.283279 213.085946 
L 305.527461 205.283456 
L 305.771644 206.205399 
L 306.015827 213.087985 
L 306.504193 240.08781 
L 306.992558 278.684468 
L 307.725107 361.203729 
L 309.190204 554.356823 
L 309.434387 567.11455 
L 310.166935 516.213596 
L 311.143667 471.758341 
L 311.38785 464.700605 
L 311.632032 461.763928 
L 311.876215 462.24316 
L 312.120398 465.106609 
L 312.364581 470.075389 
L 315.538958 563.072103 
L 316.027324 571.93372 
L 317.004055 553.901118 
L 317.492421 546.296597 
L 317.736603 544.081165 
L 317.980786 543.331413 
L 318.224969 544.412744 
L 318.713335 549.197242 
L 319.934249 551.879595 
L 320.178432 551.660513 
L 320.422615 551.694706 
L 320.666797 552.412575 
L 320.91098 554.169374 
L 322.131894 569.778886 
L 322.376077 571.351488 
L 322.62026 571.500072 
L 322.864443 571.460003 
L 323.108626 572.067233 
L 323.596992 570.35814 
L 324.085357 564.985508 
L 324.573723 559.322377 
L 324.817906 556.02413 
L 325.062089 555.49255 
L 325.550454 557.015731 
L 326.03882 560.006491 
L 326.283003 559.662469 
L 326.771368 554.147623 
L 327.503917 544.104481 
L 327.7481 542.890389 
L 328.236465 543.900469 
L 329.45738 538.314988 
L 329.701563 538.989692 
L 329.945745 538.839749 
L 330.189928 540.147474 
L 330.434111 542.902481 
L 330.678294 544.383424 
L 331.16666 550.058593 
L 331.899208 562.119307 
L 332.143391 564.007619 
L 332.875939 565.751527 
L 333.364305 568.238165 
L 333.608488 569.420147 
L 333.852671 571.172817 
L 334.096854 572.023296 
L 335.317768 564.322076 
L 336.050316 555.354935 
L 336.294499 554.240841 
L 336.538682 554.83544 
L 337.515413 559.778341 
L 338.247962 564.830951 
L 338.492145 563.793031 
L 338.98051 559.463874 
L 339.468876 556.669894 
L 339.957242 555.346244 
L 340.445607 554.682364 
L 340.68979 554.063192 
L 341.178156 551.331261 
L 341.422339 550.940078 
L 341.666522 551.638516 
L 342.39907 556.148555 
L 342.887436 558.782716 
L 343.131619 559.579483 
L 344.596716 567.866261 
L 344.840899 570.691583 
L 345.085081 571.701376 
L 345.329264 571.866732 
L 345.573447 571.564056 
L 345.81763 570.575638 
L 346.061813 568.760283 
L 346.794361 559.140523 
L 347.282727 552.352281 
L 347.52691 551.681713 
L 347.771093 553.022947 
L 348.503641 559.659056 
L 348.747824 560.266577 
L 349.23619 557.828477 
L 349.480372 557.458808 
L 349.968738 560.254433 
L 350.701287 565.683608 
L 350.945469 566.134552 
L 351.189652 565.663463 
L 351.678018 563.705883 
L 352.166384 561.034008 
L 352.410567 560.316551 
L 352.898932 557.617552 
L 353.143115 557.246212 
L 354.608212 562.25101 
L 354.852395 563.402749 
L 355.584943 569.101737 
L 355.829126 568.888902 
L 356.073309 568.424154 
L 356.805858 570.891368 
L 357.05004 571.109656 
L 357.538406 565.279654 
L 357.782589 564.222976 
L 358.270955 564.557931 
L 358.515138 564.347199 
L 358.75932 563.172062 
L 359.247686 560.107848 
L 359.491869 559.476103 
L 359.736052 558.293006 
L 360.224417 555.150428 
L 360.4686 554.468462 
L 360.712783 553.303938 
L 360.956966 552.773562 
L 361.201149 552.584107 
L 361.445332 553.138682 
L 362.17788 559.888781 
L 362.422063 559.627334 
L 363.154611 553.505067 
L 363.398794 552.380894 
L 363.642977 552.756299 
L 364.375526 557.048709 
L 365.840623 571.376663 
L 366.084806 571.92195 
L 366.328988 572.092886 
L 366.573171 571.435526 
L 366.817354 571.487747 
L 367.061537 572.255839 
L 367.30572 571.531686 
L 367.794085 568.551902 
L 368.038268 568.055405 
L 368.282451 568.045795 
L 368.526634 567.915308 
L 368.770817 568.022106 
L 369.015 568.61702 
L 369.259182 568.73533 
L 369.747548 569.514322 
L 369.991731 569.930425 
L 370.235914 569.891156 
L 370.724279 567.732693 
L 371.212645 565.151227 
L 371.456828 564.535628 
L 371.701011 564.507477 
L 371.945194 564.93707 
L 372.433559 563.130764 
L 372.677742 563.093595 
L 372.921925 563.174496 
L 373.166108 562.788318 
L 373.410291 561.6778 
L 373.654474 561.447498 
L 374.142839 562.130468 
L 374.631205 560.285335 
L 374.875388 560.826117 
L 375.119571 560.862761 
L 375.852119 564.239906 
L 376.096302 564.549892 
L 376.584668 563.593561 
L 377.317216 559.667624 
L 377.561399 560.084873 
L 378.049765 560.123056 
L 378.293947 560.168276 
L 378.53813 560.374269 
L 378.782313 561.007649 
L 380.003227 571.922354 
L 380.491593 570.396736 
L 380.735776 569.841063 
L 381.468324 566.358382 
L 381.95669 562.985837 
L 382.200873 560.564739 
L 382.445056 559.425925 
L 382.689239 559.374656 
L 382.933421 560.032947 
L 383.177604 561.299563 
L 383.421787 561.668113 
L 383.910153 560.710862 
L 384.398518 559.011809 
L 384.642701 559.050969 
L 384.886884 559.388934 
L 385.619433 562.542693 
L 385.863615 563.266277 
L 386.840347 560.396803 
L 387.08453 560.268444 
L 387.328713 560.343592 
L 387.572895 559.862305 
L 388.061261 556.744837 
L 389.282175 546.452137 
L 389.526358 545.402302 
L 390.014724 546.770606 
L 390.258907 548.273171 
L 390.991455 556.04606 
L 391.479821 557.468353 
L 391.968186 555.657413 
L 392.212369 556.196641 
L 393.189101 562.023951 
L 393.433283 562.409671 
L 393.921649 566.878147 
L 394.410015 568.702768 
L 394.898381 571.334911 
L 395.142563 572.264789 
L 396.119295 564.432859 
L 396.363478 563.106511 
L 396.60766 563.22765 
L 396.851843 564.077669 
L 397.340209 566.887438 
L 397.828575 570.707493 
L 398.072757 570.505189 
L 398.31694 571.470736 
L 398.561123 571.234112 
L 398.805306 569.259894 
L 399.049489 568.452652 
L 399.293672 569.894953 
L 399.537854 572.228046 
L 400.270403 568.766018 
L 400.514586 568.253233 
L 400.758769 568.932372 
L 401.247134 571.490367 
L 401.491317 571.75173 
L 401.7355 571.335972 
L 401.979683 572.123867 
L 402.223866 570.993287 
L 402.956414 565.857402 
L 403.200597 564.827055 
L 403.44478 564.847306 
L 403.688963 565.973872 
L 403.933146 566.475669 
L 404.177328 567.793049 
L 404.421511 570.271277 
L 404.665694 571.572636 
L 404.909877 571.700054 
L 405.398243 570.9339 
L 405.642425 571.100094 
L 405.886608 572.105049 
L 407.107522 562.203991 
L 407.351705 561.062641 
L 407.840071 562.595511 
L 408.57262 565.829647 
L 408.816802 564.459664 
L 409.060985 564.052502 
L 409.305168 564.172101 
L 409.549351 563.042186 
L 410.281899 561.180734 
L 410.770265 559.150156 
L 412.235362 565.434347 
L 412.723728 566.15517 
L 412.967911 566.173555 
L 413.456276 567.391648 
L 413.700459 567.582571 
L 413.944642 567.454947 
L 415.165556 571.974423 
L 415.409739 572.106676 
L 416.142288 571.012018 
L 416.630653 569.199629 
L 416.874836 569.152864 
L 417.363202 567.756294 
L 417.851567 569.360675 
L 418.09575 569.384214 
L 418.339933 568.909785 
L 419.316664 570.592882 
L 419.560847 570.324082 
L 419.80503 569.194242 
L 420.049213 569.043136 
L 420.537579 571.725895 
L 420.781761 570.576663 
L 421.270127 567.273217 
L 421.758493 565.043282 
L 422.002676 564.561109 
L 422.246859 565.127717 
L 422.491041 566.484536 
L 422.735224 567.039503 
L 423.22359 569.017895 
L 423.467773 569.41302 
L 423.956138 570.796828 
L 424.200321 570.460027 
L 424.688687 572.013334 
L 424.93287 571.9253 
L 425.421235 570.871135 
L 425.909601 569.420618 
L 426.397967 568.675255 
L 426.886332 568.252524 
L 427.130515 567.507176 
L 427.618881 564.990201 
L 428.107247 560.561174 
L 428.351429 560.715205 
L 428.595612 561.74261 
L 429.572344 571.496628 
L 429.816527 569.661699 
L 430.060709 568.961458 
L 430.549075 571.713402 
L 430.793258 571.082784 
L 431.037441 571.772248 
L 431.281624 571.353985 
L 431.525806 569.914152 
L 431.769989 569.174718 
L 432.014172 567.864374 
L 432.258355 567.614225 
L 432.502538 568.505982 
L 432.746721 568.960199 
L 432.990903 568.950647 
L 433.479269 571.896339 
L 433.723452 570.990946 
L 433.967635 570.729472 
L 434.211818 571.131486 
L 434.700183 568.584123 
L 435.188549 565.455154 
L 435.921097 558.810676 
L 436.16528 557.744031 
L 436.409463 557.272725 
L 436.653646 557.581999 
L 437.386195 562.257865 
L 437.87456 566.980126 
L 438.362926 570.277273 
L 438.607109 571.486797 
L 438.851292 571.177636 
L 439.095474 570.515336 
L 439.58384 572.17876 
L 440.072206 569.424368 
L 440.316389 567.52033 
L 440.560571 566.532456 
L 440.804754 566.579116 
L 441.29312 566.355888 
L 441.537303 566.382973 
L 442.025668 567.491525 
L 442.269851 567.727769 
L 442.758217 569.096087 
L 443.246583 571.847153 
L 443.490765 571.694382 
L 443.734948 572.105247 
L 443.979131 572.059578 
L 444.223314 571.89703 
L 444.467497 570.454468 
L 444.955863 565.902048 
L 445.200045 564.415353 
L 445.444228 564.681969 
L 446.909325 572.062947 
L 447.153508 572.155296 
L 447.641874 570.809455 
L 447.886057 570.911392 
L 448.130239 571.392087 
L 448.374422 572.119788 
L 448.618605 571.632636 
L 449.595336 568.295379 
L 450.083702 570.741173 
L 450.327885 570.868279 
L 450.816251 570.589295 
L 451.060434 570.668774 
L 451.548799 571.954425 
L 451.792982 570.951456 
L 452.525531 564.904736 
L 452.769713 563.656833 
L 453.013896 563.200717 
L 453.258079 563.298092 
L 453.502262 564.251397 
L 453.746445 564.668378 
L 453.990628 564.488579 
L 454.23481 565.291084 
L 454.723176 570.651301 
L 455.211542 552.740978 
L 456.188273 508.895571 
L 456.432456 508.58281 
L 456.676639 515.794964 
L 456.920822 530.969676 
L 457.409187 565.731953 
L 458.141736 496.932308 
L 458.630102 472.986805 
L 458.874284 467.066659 
L 459.36265 464.109269 
L 459.606833 463.341099 
L 459.851016 464.012251 
L 460.095199 466.363948 
L 460.339381 472.311988 
L 460.583564 482.673903 
L 460.827747 499.809745 
L 461.316113 564.790292 
L 461.560296 529.691706 
L 462.537027 296.312763 
L 462.78121 277.824622 
L 463.025393 293.289172 
L 463.269575 341.916692 
L 464.002124 547.339876 
L 464.49049 410.006276 
L 464.978855 348.411359 
L 465.467221 329.474803 
L 465.955587 307.909259 
L 466.443952 286.334088 
L 466.688135 291.429619 
L 466.932318 319.963591 
L 467.420684 458.885207 
L 467.664867 559.649134 
L 468.397415 322.181717 
L 468.641598 282.990794 
L 468.885781 267.695477 
L 469.129964 269.073192 
L 469.374146 275.397852 
L 469.618329 271.715472 
L 469.862512 249.565986 
L 470.350878 154.489378 
L 470.839243 57.576703 
L 471.083426 40.87017 
L 471.327609 55.312946 
L 471.571792 99.432644 
L 472.060158 244.019072 
L 472.792706 471.203796 
L 473.281072 570.607783 
L 474.01362 451.714148 
L 474.746169 278.540786 
L 475.478717 117.941097 
L 475.7229 96.181722 
L 475.967083 97.003138 
L 476.211266 119.551923 
L 476.943814 214.251093 
L 477.187997 221.290652 
L 477.43218 211.237955 
L 477.920546 174.051997 
L 478.164729 167.523518 
L 478.408911 181.662257 
L 478.653094 218.293439 
L 479.874009 509.631834 
L 480.118191 531.7533 
L 480.85074 561.85509 
L 481.094923 565.619759 
L 481.583288 510.633187 
L 482.315837 421.817934 
L 482.804203 395.176887 
L 483.292568 375.943456 
L 484.025117 344.06477 
L 484.2693 343.961868 
L 484.513482 351.930132 
L 485.490214 412.080294 
L 485.734397 414.231418 
L 485.978579 407.433875 
L 486.466945 384.749241 
L 486.711128 380.346787 
L 486.955311 386.751289 
L 487.443677 421.362214 
L 487.932042 462.676774 
L 488.176225 475.897827 
L 488.420408 482.205821 
L 488.664591 482.657798 
L 489.152956 479.388507 
L 489.397139 481.648773 
L 489.641322 490.144605 
L 491.106419 566.732828 
L 491.350602 569.707598 
L 492.327333 528.993935 
L 492.571516 526.733584 
L 492.815699 532.53151 
L 493.548248 569.805116 
L 493.79243 570.853351 
L 494.036613 559.272959 
L 495.013345 459.245057 
L 495.257527 459.765468 
L 495.50171 476.112918 
L 496.234259 560.85436 
L 496.478442 570.383785 
L 496.722624 562.651826 
L 497.699356 484.800902 
L 497.943539 487.078409 
L 498.431904 515.731092 
L 498.92027 544.343016 
L 499.408636 557.020147 
L 499.652818 560.581939 
L 499.897001 562.051019 
L 500.141184 562.195419 
L 500.385367 559.588064 
L 500.62955 552.174967 
L 501.362098 516.974333 
L 501.606281 513.942076 
L 501.850464 521.011413 
L 502.33883 561.549212 
L 502.583013 559.848975 
L 502.827195 545.652134 
L 503.071378 545.520521 
L 503.315561 559.678188 
L 503.559744 560.060759 
L 504.04811 509.360801 
L 504.292292 501.466816 
L 504.536475 509.015675 
L 505.024841 559.752477 
L 505.269024 556.217952 
L 505.513207 536.323155 
L 505.757389 529.388379 
L 506.001572 535.618131 
L 506.489938 570.410267 
L 506.978304 549.695899 
L 507.222486 548.552046 
L 507.466669 555.736152 
L 507.710852 570.411487 
L 508.687584 510.357457 
L 508.931766 511.106754 
L 509.175949 522.277734 
L 509.664315 565.388929 
L 509.908498 558.934112 
L 510.152681 545.023224 
L 510.396863 541.500324 
L 510.641046 550.924733 
L 510.885229 569.205815 
L 511.86196 511.988854 
L 512.106143 519.425041 
L 512.838692 569.748996 
L 513.082875 568.570298 
L 513.327057 569.102936 
L 513.815423 525.600916 
L 514.303789 489.646693 
L 514.547972 490.207445 
L 514.792155 506.34565 
L 515.28052 560.843022 
L 515.524703 562.079171 
L 515.768886 552.872379 
L 516.013069 558.227419 
L 516.257252 568.373039 
L 516.9898 502.643152 
L 517.233983 498.281361 
L 517.478166 506.531059 
L 518.454897 571.460015 
L 518.69908 568.765441 
L 518.943263 572.141616 
L 519.919994 540.524562 
L 520.164177 541.056051 
L 520.40836 545.114803 
L 521.385091 571.735742 
L 521.873457 561.570183 
L 522.11764 559.897487 
L 522.361823 562.038734 
L 522.606005 567.608962 
L 522.850188 568.833404 
L 523.338554 553.808027 
L 523.582737 554.106967 
L 523.82692 564.732776 
L 524.071102 560.487607 
L 524.559468 516.813591 
L 524.803651 504.786591 
L 525.047834 507.634167 
L 525.292017 523.747453 
L 525.780382 570.272806 
L 526.024565 551.956789 
L 526.268748 549.399336 
L 526.512931 562.606316 
L 526.757114 557.431952 
L 527.245479 509.252769 
L 527.489662 501.633746 
L 527.733845 508.458105 
L 528.466393 566.08524 
L 528.710576 570.343536 
L 528.954759 570.773594 
L 529.443125 542.953819 
L 529.687308 528.806612 
L 529.931491 521.107854 
L 530.175673 521.916371 
L 530.419856 531.059655 
L 531.152405 566.992274 
L 531.396588 569.166718 
L 531.64077 565.532789 
L 532.129136 553.142695 
L 532.373319 549.710252 
L 532.617502 549.611563 
L 532.861685 553.791241 
L 533.594233 572.208358 
L 533.838416 570.021639 
L 534.082599 571.885132 
L 534.326782 568.292222 
L 534.570964 562.520806 
L 534.815147 559.966238 
L 535.05933 561.77106 
L 535.303513 567.16455 
L 535.547696 569.200698 
L 536.036061 554.937344 
L 536.76861 542.224463 
L 537.256976 533.360745 
L 537.745341 523.833044 
L 537.989524 522.092089 
L 538.233707 523.960401 
L 539.210438 550.046835 
L 539.454621 544.973282 
L 540.431353 506.860377 
L 540.675535 511.63374 
L 541.163901 540.079869 
L 541.408084 554.571494 
L 541.652267 561.595489 
L 541.89645 560.109022 
L 542.140632 551.425141 
L 542.628998 525.201877 
L 542.873181 519.8286 
L 543.117364 524.18889 
L 543.60573 552.884372 
L 543.849912 570.457538 
L 544.338278 557.109414 
L 544.582461 560.033549 
L 544.826644 569.083177 
L 545.070827 564.931246 
L 545.559192 547.553024 
L 545.803375 543.64889 
L 546.047558 543.157563 
L 546.291741 547.98227 
L 546.780106 566.501973 
L 547.024289 565.746032 
L 547.512655 543.812713 
L 547.756838 539.942395 
L 548.001021 540.980171 
L 548.489386 556.966189 
L 548.733569 565.640121 
L 548.977752 570.334286 
L 549.221935 569.185148 
L 549.466118 561.034157 
L 550.198666 524.046399 
L 550.442849 520.802507 
L 550.687032 522.268046 
L 550.931215 526.935919 
L 551.41958 538.786839 
L 551.663763 540.139292 
L 551.907946 539.092889 
L 552.884677 519.747822 
L 553.12886 519.431961 
L 553.373043 520.358438 
L 553.861409 524.052848 
L 554.105592 526.415362 
L 554.593957 535.394546 
L 555.082323 546.890699 
L 555.570689 555.925552 
L 555.814871 556.933046 
L 556.059054 555.911905 
L 556.54742 548.647613 
L 556.791603 547.446874 
L 557.035786 549.393979 
L 557.279968 554.651357 
L 557.768334 570.284669 
L 558.2567 556.427803 
L 558.500883 555.083115 
L 558.745066 558.692394 
L 558.989248 566.015172 
L 559.233431 569.283097 
L 559.477614 560.782461 
L 559.721797 557.04442 
L 559.96598 559.185892 
L 560.210163 568.352382 
L 560.454345 562.737812 
L 560.942711 537.340197 
L 561.186894 531.718238 
L 561.431077 533.643205 
L 562.163625 557.506395 
L 562.407808 557.180739 
L 562.651991 550.613216 
L 563.384539 520.716349 
L 563.628722 518.733287 
L 563.872905 522.444944 
L 564.361271 535.939705 
L 564.605454 539.41466 
L 564.849637 538.786532 
L 565.338002 532.596898 
L 565.582185 531.124385 
L 565.826368 531.655017 
L 566.314734 539.340419 
L 566.803099 546.237078 
L 567.047282 546.314733 
L 567.535648 542.488153 
L 567.779831 542.279483 
L 568.024013 543.683446 
L 568.512379 552.491388 
L 568.756562 557.324266 
L 569.000745 559.415684 
L 569.244928 558.170159 
L 569.977476 546.925039 
L 570.221659 546.751306 
L 570.465842 549.607125 
L 571.19839 570.162708 
L 571.442573 571.417429 
L 571.686756 571.548206 
L 571.930939 570.837774 
L 572.175122 568.430647 
L 572.419305 567.90972 
L 572.663487 570.166509 
L 572.90767 570.682875 
L 573.884402 551.43829 
L 574.128584 553.246206 
L 574.61695 561.232056 
L 574.861133 562.865225 
L 575.105316 560.398598 
L 575.349499 554.086693 
L 576.082047 527.517708 
L 576.32623 525.350253 
L 576.570413 528.842342 
L 577.547144 555.010463 
L 577.791327 552.550479 
L 578.768058 520.528862 
L 579.012241 519.901712 
L 579.256424 523.870645 
L 580.233155 556.335082 
L 580.477338 556.894335 
L 580.721521 554.707955 
L 581.209887 546.8436 
L 581.45407 545.811003 
L 581.698252 546.975955 
L 581.942435 550.062233 
L 582.674984 566.265364 
L 582.919167 568.33766 
L 583.163349 567.954588 
L 583.407532 566.114872 
L 584.384264 553.857517 
L 584.628446 552.298724 
L 584.872629 552.012135 
L 585.116812 553.99014 
L 585.360995 558.162375 
L 585.849361 571.750017 
L 586.337726 561.988537 
L 586.581909 558.823134 
L 586.826092 558.250864 
L 587.070275 559.664799 
L 587.802823 566.663657 
L 588.047006 565.170827 
L 588.779555 552.82141 
L 589.26792 542.950116 
L 589.512103 539.921486 
L 589.756286 538.840762 
L 590.000469 539.647027 
L 590.733017 545.509261 
L 590.9772 547.698232 
L 591.221383 547.699861 
L 592.198114 538.961841 
L 592.442297 539.354169 
L 592.68648 540.933556 
L 593.663212 549.508817 
L 593.907394 549.78163 
L 594.151577 549.527846 
L 594.884126 547.379327 
L 595.128309 547.395847 
L 595.372491 547.563504 
L 595.616674 549.068931 
L 596.10504 555.245377 
L 597.081771 569.469821 
L 597.325954 571.466626 
L 597.570137 571.120839 
L 597.81432 570.427741 
L 598.058503 570.735545 
L 598.302685 570.843931 
L 598.791051 569.25755 
L 598.791051 569.25755 
" style="fill:none;stroke:#1f77b4;stroke-linecap:square;stroke-width:1.5;"/>
   </g>
   <g id="patch_3">
    <path d="M 33.703125 598.84375 
L 33.703125 14.3 
" style="fill:none;stroke:#000000;stroke-linecap:square;stroke-linejoin:miter;stroke-width:0.8;"/>
   </g>
   <g id="patch_4">
    <path d="M 625.7 598.84375 
L 625.7 14.3 
" style="fill:none;stroke:#000000;stroke-linecap:square;stroke-linejoin:miter;stroke-width:0.8;"/>
   </g>
   <g id="patch_5">
    <path d="M 33.703125 598.84375 
L 625.7 598.84375 
" style="fill:none;stroke:#000000;stroke-linecap:square;stroke-linejoin:miter;stroke-width:0.8;"/>
   </g>
   <g id="patch_6">
    <path d="M 33.703125 14.3 
L 625.7 14.3 
" style="fill:none;stroke:#000000;stroke-linecap:square;stroke-linejoin:miter;stroke-width:0.8;"/>
   </g>
  </g>
 </g>
 <defs>
  <clipPath id="p556eace02e">
   <rect height="584.54375" width="591.996875" x="33.703125" y="14.3"/>
  </clipPath>
 </defs>
</svg>
