<?xml version="1.0" encoding="utf-8" standalone="no"?>
<!DOCTYPE svg PUBLIC "-//W3C//DTD SVG 1.1//EN"
  "http://www.w3.org/Graphics/SVG/1.1/DTD/svg11.dtd">
<!-- Created with matplotlib (http://matplotlib.org/) -->
<svg height="640pt" version="1.1" viewBox="0 0 640 640" width="640pt" xmlns="http://www.w3.org/2000/svg" xmlns:xlink="http://www.w3.org/1999/xlink">
 <defs>
  <style type="text/css">
*{stroke-linecap:butt;stroke-linejoin:round;}
  </style>
 </defs>
 <g id="figure_1">
  <g id="patch_1">
   <path d="M 0 640 
L 640 640 
L 640 0 
L 0 0 
z
" style="fill:#ffffff;"/>
  </g>
  <g id="axes_1">
   <g id="patch_2">
    <path d="M 42.082813 598.84375 
L 625.7 598.84375 
L 625.7 14.3 
L 42.082813 14.3 
z
" style="fill:#ffffff;"/>
   </g>
   <g id="matplotlib.axis_1">
    <g id="xtick_1">
     <g id="line2d_1">
      <defs>
       <path d="M 0 0 
L 0 3.5 
" id="m73b553dde4" style="stroke:#000000;stroke-width:0.8;"/>
      </defs>
      <g>
       <use style="stroke:#000000;stroke-width:0.8;" x="68.610866" xlink:href="#m73b553dde4" y="598.84375"/>
      </g>
     </g>
     <g id="text_1">
      <!-- 0.0 -->
      <defs>
       <path d="M 31.78125 66.40625 
Q 24.171875 66.40625 20.328125 58.90625 
Q 16.5 51.421875 16.5 36.375 
Q 16.5 21.390625 20.328125 13.890625 
Q 24.171875 6.390625 31.78125 6.390625 
Q 39.453125 6.390625 43.28125 13.890625 
Q 47.125 21.390625 47.125 36.375 
Q 47.125 51.421875 43.28125 58.90625 
Q 39.453125 66.40625 31.78125 66.40625 
z
M 31.78125 74.21875 
Q 44.046875 74.21875 50.515625 64.515625 
Q 56.984375 54.828125 56.984375 36.375 
Q 56.984375 17.96875 50.515625 8.265625 
Q 44.046875 -1.421875 31.78125 -1.421875 
Q 19.53125 -1.421875 13.0625 8.265625 
Q 6.59375 17.96875 6.59375 36.375 
Q 6.59375 54.828125 13.0625 64.515625 
Q 19.53125 74.21875 31.78125 74.21875 
z
" id="DejaVuSans-30"/>
       <path d="M 10.6875 12.40625 
L 21 12.40625 
L 21 0 
L 10.6875 0 
z
" id="DejaVuSans-2e"/>
      </defs>
      <g transform="translate(60.659304 613.442188)scale(0.1 -0.1)">
       <use xlink:href="#DejaVuSans-30"/>
       <use x="63.623047" xlink:href="#DejaVuSans-2e"/>
       <use x="95.410156" xlink:href="#DejaVuSans-30"/>
      </g>
     </g>
    </g>
    <g id="xtick_2">
     <g id="line2d_2">
      <g>
       <use style="stroke:#000000;stroke-width:0.8;" x="174.771228" xlink:href="#m73b553dde4" y="598.84375"/>
      </g>
     </g>
     <g id="text_2">
      <!-- 0.2 -->
      <defs>
       <path d="M 19.1875 8.296875 
L 53.609375 8.296875 
L 53.609375 0 
L 7.328125 0 
L 7.328125 8.296875 
Q 12.9375 14.109375 22.625 23.890625 
Q 32.328125 33.6875 34.8125 36.53125 
Q 39.546875 41.84375 41.421875 45.53125 
Q 43.3125 49.21875 43.3125 52.78125 
Q 43.3125 58.59375 39.234375 62.25 
Q 35.15625 65.921875 28.609375 65.921875 
Q 23.96875 65.921875 18.8125 64.3125 
Q 13.671875 62.703125 7.8125 59.421875 
L 7.8125 69.390625 
Q 13.765625 71.78125 18.9375 73 
Q 24.125 74.21875 28.421875 74.21875 
Q 39.75 74.21875 46.484375 68.546875 
Q 53.21875 62.890625 53.21875 53.421875 
Q 53.21875 48.921875 51.53125 44.890625 
Q 49.859375 40.875 45.40625 35.40625 
Q 44.1875 33.984375 37.640625 27.21875 
Q 31.109375 20.453125 19.1875 8.296875 
z
" id="DejaVuSans-32"/>
      </defs>
      <g transform="translate(166.819665 613.442188)scale(0.1 -0.1)">
       <use xlink:href="#DejaVuSans-30"/>
       <use x="63.623047" xlink:href="#DejaVuSans-2e"/>
       <use x="95.410156" xlink:href="#DejaVuSans-32"/>
      </g>
     </g>
    </g>
    <g id="xtick_3">
     <g id="line2d_3">
      <g>
       <use style="stroke:#000000;stroke-width:0.8;" x="280.931589" xlink:href="#m73b553dde4" y="598.84375"/>
      </g>
     </g>
     <g id="text_3">
      <!-- 0.4 -->
      <defs>
       <path d="M 37.796875 64.3125 
L 12.890625 25.390625 
L 37.796875 25.390625 
z
M 35.203125 72.90625 
L 47.609375 72.90625 
L 47.609375 25.390625 
L 58.015625 25.390625 
L 58.015625 17.1875 
L 47.609375 17.1875 
L 47.609375 0 
L 37.796875 0 
L 37.796875 17.1875 
L 4.890625 17.1875 
L 4.890625 26.703125 
z
" id="DejaVuSans-34"/>
      </defs>
      <g transform="translate(272.980026 613.442188)scale(0.1 -0.1)">
       <use xlink:href="#DejaVuSans-30"/>
       <use x="63.623047" xlink:href="#DejaVuSans-2e"/>
       <use x="95.410156" xlink:href="#DejaVuSans-34"/>
      </g>
     </g>
    </g>
    <g id="xtick_4">
     <g id="line2d_4">
      <g>
       <use style="stroke:#000000;stroke-width:0.8;" x="387.09195" xlink:href="#m73b553dde4" y="598.84375"/>
      </g>
     </g>
     <g id="text_4">
      <!-- 0.6 -->
      <defs>
       <path d="M 33.015625 40.375 
Q 26.375 40.375 22.484375 35.828125 
Q 18.609375 31.296875 18.609375 23.390625 
Q 18.609375 15.53125 22.484375 10.953125 
Q 26.375 6.390625 33.015625 6.390625 
Q 39.65625 6.390625 43.53125 10.953125 
Q 47.40625 15.53125 47.40625 23.390625 
Q 47.40625 31.296875 43.53125 35.828125 
Q 39.65625 40.375 33.015625 40.375 
z
M 52.59375 71.296875 
L 52.59375 62.3125 
Q 48.875 64.0625 45.09375 64.984375 
Q 41.3125 65.921875 37.59375 65.921875 
Q 27.828125 65.921875 22.671875 59.328125 
Q 17.53125 52.734375 16.796875 39.40625 
Q 19.671875 43.65625 24.015625 45.921875 
Q 28.375 48.1875 33.59375 48.1875 
Q 44.578125 48.1875 50.953125 41.515625 
Q 57.328125 34.859375 57.328125 23.390625 
Q 57.328125 12.15625 50.6875 5.359375 
Q 44.046875 -1.421875 33.015625 -1.421875 
Q 20.359375 -1.421875 13.671875 8.265625 
Q 6.984375 17.96875 6.984375 36.375 
Q 6.984375 53.65625 15.1875 63.9375 
Q 23.390625 74.21875 37.203125 74.21875 
Q 40.921875 74.21875 44.703125 73.484375 
Q 48.484375 72.75 52.59375 71.296875 
z
" id="DejaVuSans-36"/>
      </defs>
      <g transform="translate(379.140388 613.442188)scale(0.1 -0.1)">
       <use xlink:href="#DejaVuSans-30"/>
       <use x="63.623047" xlink:href="#DejaVuSans-2e"/>
       <use x="95.410156" xlink:href="#DejaVuSans-36"/>
      </g>
     </g>
    </g>
    <g id="xtick_5">
     <g id="line2d_5">
      <g>
       <use style="stroke:#000000;stroke-width:0.8;" x="493.252311" xlink:href="#m73b553dde4" y="598.84375"/>
      </g>
     </g>
     <g id="text_5">
      <!-- 0.8 -->
      <defs>
       <path d="M 31.78125 34.625 
Q 24.75 34.625 20.71875 30.859375 
Q 16.703125 27.09375 16.703125 20.515625 
Q 16.703125 13.921875 20.71875 10.15625 
Q 24.75 6.390625 31.78125 6.390625 
Q 38.8125 6.390625 42.859375 10.171875 
Q 46.921875 13.96875 46.921875 20.515625 
Q 46.921875 27.09375 42.890625 30.859375 
Q 38.875 34.625 31.78125 34.625 
z
M 21.921875 38.8125 
Q 15.578125 40.375 12.03125 44.71875 
Q 8.5 49.078125 8.5 55.328125 
Q 8.5 64.0625 14.71875 69.140625 
Q 20.953125 74.21875 31.78125 74.21875 
Q 42.671875 74.21875 48.875 69.140625 
Q 55.078125 64.0625 55.078125 55.328125 
Q 55.078125 49.078125 51.53125 44.71875 
Q 48 40.375 41.703125 38.8125 
Q 48.828125 37.15625 52.796875 32.3125 
Q 56.78125 27.484375 56.78125 20.515625 
Q 56.78125 9.90625 50.3125 4.234375 
Q 43.84375 -1.421875 31.78125 -1.421875 
Q 19.734375 -1.421875 13.25 4.234375 
Q 6.78125 9.90625 6.78125 20.515625 
Q 6.78125 27.484375 10.78125 32.3125 
Q 14.796875 37.15625 21.921875 38.8125 
z
M 18.3125 54.390625 
Q 18.3125 48.734375 21.84375 45.5625 
Q 25.390625 42.390625 31.78125 42.390625 
Q 38.140625 42.390625 41.71875 45.5625 
Q 45.3125 48.734375 45.3125 54.390625 
Q 45.3125 60.0625 41.71875 63.234375 
Q 38.140625 66.40625 31.78125 66.40625 
Q 25.390625 66.40625 21.84375 63.234375 
Q 18.3125 60.0625 18.3125 54.390625 
z
" id="DejaVuSans-38"/>
      </defs>
      <g transform="translate(485.300749 613.442188)scale(0.1 -0.1)">
       <use xlink:href="#DejaVuSans-30"/>
       <use x="63.623047" xlink:href="#DejaVuSans-2e"/>
       <use x="95.410156" xlink:href="#DejaVuSans-38"/>
      </g>
     </g>
    </g>
    <g id="xtick_6">
     <g id="line2d_6">
      <g>
       <use style="stroke:#000000;stroke-width:0.8;" x="599.412672" xlink:href="#m73b553dde4" y="598.84375"/>
      </g>
     </g>
     <g id="text_6">
      <!-- 1.0 -->
      <defs>
       <path d="M 12.40625 8.296875 
L 28.515625 8.296875 
L 28.515625 63.921875 
L 10.984375 60.40625 
L 10.984375 69.390625 
L 28.421875 72.90625 
L 38.28125 72.90625 
L 38.28125 8.296875 
L 54.390625 8.296875 
L 54.390625 0 
L 12.40625 0 
z
" id="DejaVuSans-31"/>
      </defs>
      <g transform="translate(591.46111 613.442188)scale(0.1 -0.1)">
       <use xlink:href="#DejaVuSans-31"/>
       <use x="63.623047" xlink:href="#DejaVuSans-2e"/>
       <use x="95.410156" xlink:href="#DejaVuSans-30"/>
      </g>
     </g>
    </g>
    <g id="text_7">
     <!-- time -->
     <defs>
      <path d="M 18.3125 70.21875 
L 18.3125 54.6875 
L 36.8125 54.6875 
L 36.8125 47.703125 
L 18.3125 47.703125 
L 18.3125 18.015625 
Q 18.3125 11.328125 20.140625 9.421875 
Q 21.96875 7.515625 27.59375 7.515625 
L 36.8125 7.515625 
L 36.8125 0 
L 27.59375 0 
Q 17.1875 0 13.234375 3.875 
Q 9.28125 7.765625 9.28125 18.015625 
L 9.28125 47.703125 
L 2.6875 47.703125 
L 2.6875 54.6875 
L 9.28125 54.6875 
L 9.28125 70.21875 
z
" id="DejaVuSans-74"/>
      <path d="M 9.421875 54.6875 
L 18.40625 54.6875 
L 18.40625 0 
L 9.421875 0 
z
M 9.421875 75.984375 
L 18.40625 75.984375 
L 18.40625 64.59375 
L 9.421875 64.59375 
z
" id="DejaVuSans-69"/>
      <path d="M 52 44.1875 
Q 55.375 50.25 60.0625 53.125 
Q 64.75 56 71.09375 56 
Q 79.640625 56 84.28125 50.015625 
Q 88.921875 44.046875 88.921875 33.015625 
L 88.921875 0 
L 79.890625 0 
L 79.890625 32.71875 
Q 79.890625 40.578125 77.09375 44.375 
Q 74.3125 48.1875 68.609375 48.1875 
Q 61.625 48.1875 57.5625 43.546875 
Q 53.515625 38.921875 53.515625 30.90625 
L 53.515625 0 
L 44.484375 0 
L 44.484375 32.71875 
Q 44.484375 40.625 41.703125 44.40625 
Q 38.921875 48.1875 33.109375 48.1875 
Q 26.21875 48.1875 22.15625 43.53125 
Q 18.109375 38.875 18.109375 30.90625 
L 18.109375 0 
L 9.078125 0 
L 9.078125 54.6875 
L 18.109375 54.6875 
L 18.109375 46.1875 
Q 21.1875 51.21875 25.484375 53.609375 
Q 29.78125 56 35.6875 56 
Q 41.65625 56 45.828125 52.96875 
Q 50 49.953125 52 44.1875 
z
" id="DejaVuSans-6d"/>
      <path d="M 56.203125 29.59375 
L 56.203125 25.203125 
L 14.890625 25.203125 
Q 15.484375 15.921875 20.484375 11.0625 
Q 25.484375 6.203125 34.421875 6.203125 
Q 39.59375 6.203125 44.453125 7.46875 
Q 49.3125 8.734375 54.109375 11.28125 
L 54.109375 2.78125 
Q 49.265625 0.734375 44.1875 -0.34375 
Q 39.109375 -1.421875 33.890625 -1.421875 
Q 20.796875 -1.421875 13.15625 6.1875 
Q 5.515625 13.8125 5.515625 26.8125 
Q 5.515625 40.234375 12.765625 48.109375 
Q 20.015625 56 32.328125 56 
Q 43.359375 56 49.78125 48.890625 
Q 56.203125 41.796875 56.203125 29.59375 
z
M 47.21875 32.234375 
Q 47.125 39.59375 43.09375 43.984375 
Q 39.0625 48.390625 32.421875 48.390625 
Q 24.90625 48.390625 20.390625 44.140625 
Q 15.875 39.890625 15.1875 32.171875 
z
" id="DejaVuSans-65"/>
     </defs>
     <g transform="translate(322.595312 627.120312)scale(0.1 -0.1)">
      <use xlink:href="#DejaVuSans-74"/>
      <use x="39.208984" xlink:href="#DejaVuSans-69"/>
      <use x="66.992188" xlink:href="#DejaVuSans-6d"/>
      <use x="164.404297" xlink:href="#DejaVuSans-65"/>
     </g>
    </g>
   </g>
   <g id="matplotlib.axis_2">
    <g id="ytick_1">
     <g id="line2d_7">
      <defs>
       <path d="M 0 0 
L -3.5 0 
" id="m3613b48bfd" style="stroke:#000000;stroke-width:0.8;"/>
      </defs>
      <g>
       <use style="stroke:#000000;stroke-width:0.8;" x="42.082813" xlink:href="#m3613b48bfd" y="579.719898"/>
      </g>
     </g>
     <g id="text_8">
      <!-- −0.6 -->
      <defs>
       <path d="M 10.59375 35.5 
L 73.1875 35.5 
L 73.1875 27.203125 
L 10.59375 27.203125 
z
" id="DejaVuSans-2212"/>
      </defs>
      <g transform="translate(10.8 583.519117)scale(0.1 -0.1)">
       <use xlink:href="#DejaVuSans-2212"/>
       <use x="83.789062" xlink:href="#DejaVuSans-30"/>
       <use x="147.412109" xlink:href="#DejaVuSans-2e"/>
       <use x="179.199219" xlink:href="#DejaVuSans-36"/>
      </g>
     </g>
    </g>
    <g id="ytick_2">
     <g id="line2d_8">
      <g>
       <use style="stroke:#000000;stroke-width:0.8;" x="42.082813" xlink:href="#m3613b48bfd" y="490.919302"/>
      </g>
     </g>
     <g id="text_9">
      <!-- −0.4 -->
      <g transform="translate(10.8 494.718521)scale(0.1 -0.1)">
       <use xlink:href="#DejaVuSans-2212"/>
       <use x="83.789062" xlink:href="#DejaVuSans-30"/>
       <use x="147.412109" xlink:href="#DejaVuSans-2e"/>
       <use x="179.199219" xlink:href="#DejaVuSans-34"/>
      </g>
     </g>
    </g>
    <g id="ytick_3">
     <g id="line2d_9">
      <g>
       <use style="stroke:#000000;stroke-width:0.8;" x="42.082813" xlink:href="#m3613b48bfd" y="402.118705"/>
      </g>
     </g>
     <g id="text_10">
      <!-- −0.2 -->
      <g transform="translate(10.8 405.917924)scale(0.1 -0.1)">
       <use xlink:href="#DejaVuSans-2212"/>
       <use x="83.789062" xlink:href="#DejaVuSans-30"/>
       <use x="147.412109" xlink:href="#DejaVuSans-2e"/>
       <use x="179.199219" xlink:href="#DejaVuSans-32"/>
      </g>
     </g>
    </g>
    <g id="ytick_4">
     <g id="line2d_10">
      <g>
       <use style="stroke:#000000;stroke-width:0.8;" x="42.082813" xlink:href="#m3613b48bfd" y="313.318109"/>
      </g>
     </g>
     <g id="text_11">
      <!-- 0.0 -->
      <g transform="translate(19.179688 317.117327)scale(0.1 -0.1)">
       <use xlink:href="#DejaVuSans-30"/>
       <use x="63.623047" xlink:href="#DejaVuSans-2e"/>
       <use x="95.410156" xlink:href="#DejaVuSans-30"/>
      </g>
     </g>
    </g>
    <g id="ytick_5">
     <g id="line2d_11">
      <g>
       <use style="stroke:#000000;stroke-width:0.8;" x="42.082813" xlink:href="#m3613b48bfd" y="224.517512"/>
      </g>
     </g>
     <g id="text_12">
      <!-- 0.2 -->
      <g transform="translate(19.179688 228.316731)scale(0.1 -0.1)">
       <use xlink:href="#DejaVuSans-30"/>
       <use x="63.623047" xlink:href="#DejaVuSans-2e"/>
       <use x="95.410156" xlink:href="#DejaVuSans-32"/>
      </g>
     </g>
    </g>
    <g id="ytick_6">
     <g id="line2d_12">
      <g>
       <use style="stroke:#000000;stroke-width:0.8;" x="42.082813" xlink:href="#m3613b48bfd" y="135.716916"/>
      </g>
     </g>
     <g id="text_13">
      <!-- 0.4 -->
      <g transform="translate(19.179688 139.516134)scale(0.1 -0.1)">
       <use xlink:href="#DejaVuSans-30"/>
       <use x="63.623047" xlink:href="#DejaVuSans-2e"/>
       <use x="95.410156" xlink:href="#DejaVuSans-34"/>
      </g>
     </g>
    </g>
    <g id="ytick_7">
     <g id="line2d_13">
      <g>
       <use style="stroke:#000000;stroke-width:0.8;" x="42.082813" xlink:href="#m3613b48bfd" y="46.916319"/>
      </g>
     </g>
     <g id="text_14">
      <!-- 0.6 -->
      <g transform="translate(19.179688 50.715538)scale(0.1 -0.1)">
       <use xlink:href="#DejaVuSans-30"/>
       <use x="63.623047" xlink:href="#DejaVuSans-2e"/>
       <use x="95.410156" xlink:href="#DejaVuSans-36"/>
      </g>
     </g>
    </g>
   </g>
   <g id="line2d_14">
    <path clip-path="url(#p3c5f91974a)" d="M 68.610866 324.278086 
L 68.851593 340.148761 
L 69.092319 344.433863 
L 69.333046 350.70853 
L 69.573772 351.10757 
L 69.814499 348.165804 
L 70.777404 318.143965 
L 71.018131 320.460574 
L 71.74031 341.019691 
L 71.981037 339.969353 
L 72.221763 331.757704 
L 72.943942 294.940141 
L 73.184669 293.012574 
L 73.425395 299.858899 
L 74.147575 340.16073 
L 74.388301 344.51377 
L 74.629028 338.819471 
L 75.591933 284.549106 
L 75.83266 285.55126 
L 76.314113 306.035446 
L 76.795566 323.17517 
L 77.036292 321.760461 
L 77.517745 302.458568 
L 77.758471 292.272008 
L 77.999198 286.820492 
L 78.239924 287.553521 
L 78.721377 301.912656 
L 78.962104 309.573543 
L 79.20283 313.022069 
L 79.443556 311.63369 
L 79.925009 299.60838 
L 80.406462 289.865471 
L 80.647189 289.732965 
L 81.369368 298.296935 
L 81.610094 297.252147 
L 82.332274 287.636002 
L 82.573 287.710543 
L 82.813727 291.552916 
L 83.295179 304.211929 
L 83.535906 307.643147 
L 83.776632 307.323756 
L 84.017359 303.02384 
L 84.739538 283.150685 
L 84.980265 283.247708 
L 85.220991 287.629819 
L 85.94317 305.547325 
L 86.183897 305.865667 
L 87.146803 292.177541 
L 87.387529 294.380634 
L 88.350435 316.469532 
L 88.591161 315.518855 
L 89.313341 301.944146 
L 89.554067 301.166517 
L 89.794793 304.299022 
L 90.757699 325.981774 
L 90.998426 324.506694 
L 91.720605 308.936274 
L 91.961331 307.970549 
L 92.202058 311.231519 
L 92.683511 328.962365 
L 93.164964 345.590718 
L 93.40569 348.378686 
L 93.646417 346.481971 
L 94.127869 335.225486 
L 94.609322 324.791421 
L 94.850049 322.14076 
L 95.090775 321.702348 
L 95.331502 322.725747 
L 96.053681 329.241429 
L 96.77586 333.791212 
L 97.016587 333.67081 
L 97.257313 332.041613 
L 97.49804 328.307168 
L 98.220219 312.286996 
L 98.460945 311.530622 
L 98.701672 315.861517 
L 99.423851 336.256924 
L 99.664578 337.778029 
L 99.905304 334.449379 
L 100.386757 316.337789 
L 100.86821 299.356064 
L 101.108936 298.18992 
L 101.349663 302.140209 
L 102.312568 329.626611 
L 102.553295 328.759432 
L 102.794021 323.693653 
L 103.756927 291.079556 
L 103.997654 287.667045 
L 104.23838 287.680254 
L 104.479106 290.124521 
L 105.442012 304.164724 
L 105.682739 305.663266 
L 105.923465 305.588179 
L 106.164192 303.48505 
L 106.645644 295.923602 
L 107.127097 289.247824 
L 107.367824 289.00186 
L 107.60855 291.320584 
L 108.33073 303.655849 
L 108.571456 304.583756 
L 108.812182 302.690949 
L 109.534362 291.592229 
L 109.775088 293.561881 
L 110.256541 306.605256 
L 110.737994 317.782701 
L 110.97872 319.131017 
L 111.219447 317.325306 
L 111.941626 306.629477 
L 112.182353 307.11343 
L 112.423079 310.046334 
L 112.904532 319.588244 
L 113.145258 321.676046 
L 113.385985 320.875876 
L 113.867438 313.816582 
L 114.108164 310.005739 
L 114.348891 308.485987 
L 114.589617 309.619972 
L 114.830343 313.638842 
L 115.552523 331.594189 
L 115.793249 333.309743 
L 116.033976 330.845681 
L 116.515429 319.404139 
L 116.756155 313.811255 
L 116.996881 311.20471 
L 117.237608 312.503413 
L 117.478334 317.493664 
L 118.200514 338.450782 
L 118.44124 341.627258 
L 118.681967 341.10385 
L 119.163419 333.204752 
L 119.644872 325.435098 
L 120.126325 322.313257 
L 121.089231 318.461124 
L 121.329957 318.891567 
L 121.570684 320.294242 
L 122.052137 324.735393 
L 122.292863 325.262938 
L 122.53359 323.335546 
L 123.015043 312.803981 
L 123.496495 304.096043 
L 123.737222 304.416747 
L 124.700128 322.438346 
L 124.940854 321.029246 
L 125.18158 315.23506 
L 125.663033 298.849159 
L 125.90376 293.983676 
L 126.144486 293.663032 
L 126.385213 298.043115 
L 126.866666 311.018884 
L 127.107392 314.377628 
L 127.348118 314.018697 
L 127.588845 310.094165 
L 128.311024 293.297341 
L 128.551751 289.87256 
L 128.792477 288.810423 
L 129.033204 289.724905 
L 129.514656 293.707346 
L 131.199742 300.724384 
L 131.440468 300.609328 
L 131.921921 297.194444 
L 132.403374 293.196669 
L 132.6441 293.643867 
L 132.884827 295.855628 
L 133.847732 311.033344 
L 134.088459 310.805757 
L 134.329185 308.42617 
L 135.051365 296.741449 
L 135.292091 295.646105 
L 135.532818 298.210481 
L 136.495723 319.41239 
L 136.73645 319.422419 
L 137.217903 312.362541 
L 137.699356 305.403233 
L 137.940082 304.884786 
L 138.180808 306.729515 
L 139.143714 319.62935 
L 139.384441 320.434942 
L 139.625167 319.787537 
L 140.347346 315.698607 
L 140.588073 315.520984 
L 140.828799 315.772949 
L 141.069526 316.368736 
L 141.310252 317.894385 
L 141.791705 323.364941 
L 142.273158 330.222897 
L 142.513884 332.224949 
L 142.754611 332.882855 
L 142.995337 331.727541 
L 143.236064 329.131738 
L 143.717517 321.59856 
L 143.958243 319.457569 
L 144.198969 318.641443 
L 144.439696 319.948197 
L 145.161875 330.261011 
L 145.402602 330.667849 
L 145.643328 328.931145 
L 146.606234 316.121581 
L 146.84696 316.181845 
L 147.809866 323.7831 
L 148.050593 322.928038 
L 148.532045 319.31634 
L 149.013498 315.619192 
L 149.254225 314.645024 
L 149.494951 314.152886 
L 149.735678 314.211222 
L 150.457857 316.623657 
L 150.698583 316.405137 
L 150.93931 315.410941 
L 151.420763 312.164559 
L 151.902216 308.741037 
L 152.142942 307.814895 
L 152.383669 307.88561 
L 152.624395 307.715185 
L 153.105848 306.926153 
L 153.587301 304.6257 
L 154.068754 302.677645 
L 154.30948 302.293037 
L 154.550206 302.268032 
L 154.790933 302.533422 
L 155.272386 302.564532 
L 155.753839 303.003369 
L 155.994565 302.464103 
L 156.716744 299.667523 
L 157.198197 297.464235 
L 157.438924 297.059633 
L 157.67965 297.436624 
L 158.161103 299.995412 
L 158.642556 302.870038 
L 159.124009 304.118494 
L 159.364735 304.549432 
L 159.605462 304.364883 
L 160.086915 303.135178 
L 160.327641 303.326845 
L 161.531273 308.844123 
L 161.772 308.828515 
L 162.494179 306.927367 
L 162.734906 306.96123 
L 162.975632 307.939796 
L 163.457085 311.810998 
L 163.938538 316.28697 
L 164.179264 316.881973 
L 164.660717 317.192838 
L 164.901444 317.218504 
L 165.14217 317.89034 
L 165.623623 320.106664 
L 166.586529 322.740296 
L 166.827255 323.403833 
L 167.067982 323.596913 
L 167.549434 322.666288 
L 167.790161 322.420717 
L 168.030887 321.861054 
L 168.51234 320.243617 
L 168.993793 319.199872 
L 169.234519 319.224563 
L 169.475246 319.512084 
L 169.715972 319.372897 
L 169.956699 319.655411 
L 170.438152 320.65794 
L 170.678878 320.487011 
L 170.919605 320.155915 
L 171.160331 320.367252 
L 171.401057 320.341794 
L 171.641784 320.05071 
L 171.88251 320.454265 
L 173.086143 326.565416 
L 173.567595 327.16251 
L 173.808322 326.602816 
L 174.530501 322.220791 
L 175.011954 321.281665 
L 175.493407 319.48125 
L 175.97486 317.046654 
L 176.456313 312.870144 
L 176.697039 311.864422 
L 177.178492 312.046429 
L 177.659945 312.923185 
L 178.863577 312.555734 
L 179.585757 314.20877 
L 179.826483 314.145096 
L 180.067209 313.802604 
L 180.307936 313.062844 
L 180.548662 313.069453 
L 180.789389 313.320554 
L 181.030115 313.018685 
L 181.270842 313.227204 
L 181.511568 313.193979 
L 181.752295 313.010499 
L 182.233747 313.722491 
L 182.474474 314.275568 
L 182.955927 313.224477 
L 183.43738 311.969764 
L 183.678106 311.554383 
L 183.918832 311.386435 
L 184.641012 313.703795 
L 185.122465 314.511681 
L 185.363191 314.462309 
L 185.603918 313.806587 
L 185.844644 313.686368 
L 186.08537 313.909502 
L 186.326097 313.674777 
L 187.048276 311.220163 
L 187.289003 311.010549 
L 187.529729 311.466784 
L 187.770456 312.4438 
L 188.251908 313.017345 
L 188.492635 312.948691 
L 188.733361 313.234066 
L 189.214814 312.572263 
L 189.455541 313.184904 
L 190.17772 315.804801 
L 190.418446 316.361193 
L 190.899899 315.229677 
L 191.140626 315.943317 
L 191.862805 319.187115 
L 192.103532 319.761023 
L 192.584984 319.603517 
L 192.825711 320.062683 
L 193.066437 319.826314 
L 193.54789 318.361324 
L 194.029343 316.503174 
L 194.510796 313.940855 
L 194.751522 313.210422 
L 194.992249 313.168727 
L 195.232975 313.005137 
L 196.195881 310.100649 
L 196.436608 309.386315 
L 196.677334 309.331247 
L 197.158787 311.083155 
L 197.399513 311.503381 
L 197.880966 313.213876 
L 198.121693 313.431337 
L 198.603145 313.176836 
L 198.843872 313.001692 
L 199.325325 311.557941 
L 199.806778 310.870034 
L 200.047504 310.754335 
L 200.288231 310.777703 
L 200.528957 311.034349 
L 200.769683 310.561503 
L 201.251136 308.856961 
L 201.732589 307.817345 
L 201.973316 307.656692 
L 202.214042 307.759297 
L 202.695495 308.968056 
L 202.936221 309.254132 
L 203.176948 308.953268 
L 203.417674 309.060346 
L 203.658401 309.371628 
L 203.899127 309.291852 
L 204.621307 310.454362 
L 205.102759 311.215223 
L 205.343486 310.763131 
L 205.824939 309.209773 
L 206.065665 309.262719 
L 207.269297 310.883448 
L 207.75075 312.301626 
L 208.232203 311.656636 
L 208.713656 311.711001 
L 208.954383 311.857798 
L 209.435835 313.376057 
L 209.917288 313.702747 
L 210.398741 312.715211 
L 210.639468 312.642511 
L 211.120921 313.564619 
L 211.602373 315.15632 
L 211.8431 315.311879 
L 212.324553 316.059078 
L 212.806006 316.067607 
L 213.046732 315.99506 
L 213.287458 316.19083 
L 214.009638 317.842102 
L 214.250364 317.718516 
L 214.731817 316.399323 
L 215.21327 316.580263 
L 215.694723 315.822676 
L 215.935449 315.738084 
L 216.176176 315.500632 
L 216.416902 315.615138 
L 217.139082 317.630873 
L 217.379808 317.727595 
L 217.861261 316.824959 
L 218.342714 316.328176 
L 218.824167 316.434341 
L 219.30562 315.589256 
L 219.546346 315.187817 
L 220.027799 314.773668 
L 220.268525 314.498328 
L 220.509252 314.971992 
L 220.749978 314.896652 
L 220.990705 314.537225 
L 221.472158 314.472764 
L 221.95361 315.45565 
L 222.67579 316.399205 
L 222.916516 316.623099 
L 223.157243 316.51095 
L 224.601601 312.737945 
L 224.842328 312.226929 
L 225.323781 311.988006 
L 225.805234 312.662084 
L 226.286686 313.435695 
L 226.768139 313.324061 
L 227.008866 313.218741 
L 227.490319 312.642113 
L 227.731045 312.731348 
L 227.971771 313.014253 
L 228.453224 312.680788 
L 228.693951 312.589747 
L 228.934677 312.129987 
L 229.41613 312.046021 
L 229.897583 310.996692 
L 230.138309 310.857175 
L 230.379036 311.04341 
L 230.860489 310.121202 
L 232.064121 312.080073 
L 232.545574 311.987563 
L 232.7863 312.181781 
L 233.027027 311.88513 
L 233.50848 310.593439 
L 233.749206 310.742566 
L 233.989933 311.042321 
L 234.471385 310.517087 
L 234.952838 311.212287 
L 235.434291 312.014518 
L 236.156471 311.737404 
L 236.397197 311.429712 
L 236.637923 310.767108 
L 236.87865 310.791457 
L 237.360103 311.437792 
L 237.841556 311.697184 
L 238.082282 312.314404 
L 238.323009 313.386601 
L 238.563735 313.865097 
L 238.804461 313.973697 
L 239.526641 313.477014 
L 239.767367 313.395762 
L 240.008094 313.772998 
L 240.489547 315.624925 
L 240.970999 316.159098 
L 241.211726 316.216654 
L 241.452452 316.042564 
L 241.933905 315.30053 
L 242.174632 315.247544 
L 242.415358 315.365909 
L 242.656084 315.821416 
L 242.896811 315.85462 
L 243.61899 314.622316 
L 243.859717 314.430865 
L 244.34117 313.574068 
L 244.581896 313.766157 
L 244.822622 314.29035 
L 245.544802 318.170443 
L 246.266981 322.159192 
L 246.507708 322.781855 
L 246.748434 322.862792 
L 247.229887 321.732959 
L 247.71134 320.251558 
L 248.433519 316.045925 
L 248.914972 313.254438 
L 249.155698 312.681499 
L 249.396425 312.423322 
L 249.877878 311.648364 
L 250.118604 311.48631 
L 250.840784 309.963267 
L 251.08151 309.922456 
L 251.322236 310.48612 
L 252.044416 311.055785 
L 253.007322 312.991206 
L 253.248048 313.154032 
L 254.210954 315.490014 
L 254.692407 317.03736 
L 255.17386 318.55644 
L 255.414586 318.68531 
L 255.655312 318.367872 
L 256.136765 315.706765 
L 256.618218 312.820337 
L 257.581124 311.593345 
L 257.82185 311.366682 
L 258.062577 311.595186 
L 258.303303 311.407987 
L 258.54403 310.455036 
L 258.784756 310.22085 
L 259.025483 310.307992 
L 259.506935 309.635388 
L 259.747662 309.584866 
L 259.988388 309.26043 
L 260.229115 309.269618 
L 260.469841 310.01032 
L 261.192021 312.885934 
L 261.432747 313.763707 
L 261.9142 314.439769 
L 262.154926 314.4934 
L 262.636379 313.880231 
L 263.358559 312.239216 
L 263.599285 311.864245 
L 263.840011 312.234521 
L 264.080738 313.474863 
L 264.562191 317.142806 
L 264.802917 318.068428 
L 265.043644 318.163979 
L 265.28437 317.686729 
L 265.765823 315.989949 
L 266.247276 314.490525 
L 266.969455 314.458488 
L 267.210182 313.976922 
L 267.691635 311.777045 
L 268.413814 310.085857 
L 268.65454 309.855021 
L 268.895267 310.122894 
L 269.37672 311.531011 
L 269.858173 314.486932 
L 270.098899 315.165225 
L 270.339625 315.301556 
L 270.580352 315.260694 
L 270.821078 315.015605 
L 271.061805 315.087744 
L 271.543258 315.748938 
L 271.783984 315.642122 
L 272.506163 314.131062 
L 272.987616 312.543127 
L 273.228343 312.189102 
L 273.709796 312.783677 
L 273.950522 312.780035 
L 274.672701 315.822325 
L 274.913428 316.159593 
L 275.154154 316.020352 
L 275.394881 315.180899 
L 276.357786 309.621629 
L 276.598513 309.28504 
L 276.839239 309.925809 
L 277.320692 312.476658 
L 277.561419 313.200966 
L 277.802145 313.288121 
L 278.042872 313.105219 
L 278.283598 312.601661 
L 278.524324 312.494614 
L 279.246504 314.784635 
L 279.727957 315.632783 
L 279.968683 315.247523 
L 280.20941 313.916363 
L 280.690862 308.82997 
L 281.413042 300.416042 
L 281.653768 299.158547 
L 281.894495 299.843704 
L 282.135221 302.149878 
L 282.8574 312.984532 
L 284.301759 341.07068 
L 284.542486 342.900416 
L 284.783212 343.757149 
L 285.023938 343.403565 
L 285.505391 339.148279 
L 286.227571 330.120317 
L 286.468297 326.062233 
L 286.94975 311.417977 
L 287.431203 286.686705 
L 288.394109 231.615274 
L 288.634835 228.471427 
L 288.875561 232.836922 
L 289.116288 244.690123 
L 289.597741 284.067424 
L 290.31992 346.824123 
L 290.801373 376.207852 
L 291.282826 395.00994 
L 291.764279 404.449262 
L 292.005005 405.035388 
L 292.245732 403.196036 
L 292.486458 398.357208 
L 292.967911 381.550183 
L 294.171543 328.523004 
L 294.41227 324.018629 
L 295.134449 316.99383 
L 295.375175 309.492363 
L 295.615902 294.861904 
L 296.097355 244.793792 
L 297.060261 131.746899 
L 297.300987 117.434981 
L 297.541713 110.724117 
L 297.78244 110.085658 
L 298.263893 117.326595 
L 298.745346 127.663855 
L 298.986072 136.504077 
L 299.226799 149.692823 
L 299.708251 196.177659 
L 300.911884 340.632052 
L 301.393336 364.050734 
L 301.874789 381.643531 
L 302.356242 418.671194 
L 303.559874 556.83305 
L 303.800601 568.494032 
L 304.041327 572.27358 
L 304.282054 569.965889 
L 305.004233 551.746043 
L 305.485686 533.319614 
L 305.967139 496.584735 
L 306.448592 435.959829 
L 307.411498 301.716997 
L 308.133677 237.465495 
L 309.578036 137.729655 
L 309.818762 129.163567 
L 310.059488 125.163304 
L 310.300215 125.635976 
L 310.540941 129.164612 
L 311.022394 143.007167 
L 311.503847 162.795308 
L 312.226026 205.102151 
L 313.670385 304.129912 
L 314.392564 334.720647 
L 315.114744 354.239098 
L 315.836923 368.472198 
L 316.077649 369.977805 
L 316.318376 369.732107 
L 316.559102 368.264044 
L 317.040555 361.991554 
L 318.003461 347.281263 
L 318.72564 337.144813 
L 319.929273 318.038064 
L 320.651452 310.600844 
L 321.614358 301.701554 
L 322.095811 298.86168 
L 322.336537 298.477289 
L 322.577263 299.031677 
L 323.058716 301.484644 
L 324.262349 302.859861 
L 324.503075 302.74754 
L 324.743801 302.765071 
L 324.984528 303.133115 
L 325.225254 304.033809 
L 326.428887 312.036658 
L 326.669613 312.842916 
L 327.151066 312.898551 
L 327.873245 314.302581 
L 328.354698 317.057079 
L 328.836151 319.960512 
L 329.076877 321.651492 
L 329.317604 321.924028 
L 329.799057 321.143108 
L 330.28051 319.609774 
L 330.521236 319.786151 
L 331.002689 322.61356 
L 331.724868 327.762584 
L 331.965595 328.385037 
L 332.447048 327.867179 
L 333.65068 330.730801 
L 333.891406 330.384887 
L 334.132133 330.461762 
L 334.372859 329.791303 
L 334.854312 327.619572 
L 335.335765 324.709967 
L 336.057944 318.526553 
L 336.298671 317.558433 
L 337.02085 316.664348 
L 338.465209 312.443474 
L 338.705935 311.922311 
L 339.428114 309.239003 
L 340.150294 304.641635 
L 340.39102 304.07045 
L 340.631747 304.375295 
L 341.594652 306.909473 
L 342.316832 309.499899 
L 342.557558 308.967767 
L 343.039011 306.748249 
L 343.520464 305.315802 
L 344.001917 304.637179 
L 344.48337 304.296814 
L 344.724096 303.979371 
L 345.205549 302.578735 
L 345.446275 302.37818 
L 345.687002 302.736262 
L 346.649908 305.752168 
L 348.575719 311.056073 
L 349.057172 313.613917 
L 349.297899 313.52914 
L 349.538625 313.684319 
L 349.779351 314.191072 
L 350.020078 315.121787 
L 350.742257 320.053747 
L 351.22371 323.534015 
L 351.464437 323.877809 
L 351.705163 323.19017 
L 352.427342 319.7879 
L 352.668069 319.47643 
L 353.149522 320.726421 
L 353.390248 320.915946 
L 353.871701 319.482656 
L 354.59388 316.69917 
L 354.834607 316.467975 
L 355.075333 316.709498 
L 355.556786 317.71313 
L 356.038239 319.082975 
L 356.278965 319.450809 
L 356.760418 320.83456 
L 357.001145 321.024943 
L 358.445503 318.45903 
L 358.68623 317.868544 
L 359.408409 314.946727 
L 359.649136 315.055846 
L 359.889862 315.294117 
L 360.612041 314.0292 
L 361.574947 309.188196 
L 362.0564 309.359924 
L 362.297126 309.251884 
L 362.537853 308.649402 
L 363.019306 307.078409 
L 363.260032 306.754519 
L 363.500759 306.147956 
L 363.982212 304.536786 
L 364.222938 304.187149 
L 364.463664 303.590108 
L 364.704391 303.31819 
L 364.945117 303.221058 
L 365.185844 303.505383 
L 365.908023 306.966095 
L 366.14875 306.832054 
L 366.870929 303.693225 
L 367.111655 303.116872 
L 367.352382 303.309339 
L 368.074561 305.510017 
L 369.759646 313.50083 
L 370.241099 312.886002 
L 370.481826 312.912775 
L 370.963278 313.700915 
L 371.444731 315.228623 
L 371.685458 315.483172 
L 372.407637 315.500244 
L 372.648364 315.195237 
L 373.129816 314.971659 
L 373.611269 314.521867 
L 373.851996 314.541999 
L 374.333449 315.648623 
L 374.814901 316.972116 
L 375.055628 317.287728 
L 375.296354 317.302161 
L 375.537081 317.081913 
L 376.018534 318.007989 
L 376.499987 317.985568 
L 376.740713 318.183557 
L 376.981439 318.75291 
L 377.222166 318.870983 
L 377.703619 318.520831 
L 378.185072 319.466813 
L 378.425798 319.189559 
L 378.666525 319.170772 
L 379.388704 317.439342 
L 379.62943 317.280415 
L 380.110883 317.770717 
L 380.833063 319.783508 
L 381.073789 319.569588 
L 381.795968 319.526828 
L 382.036695 319.421217 
L 382.277421 319.096489 
L 383.72178 312.692114 
L 384.443959 311.518774 
L 384.925412 310.282998 
L 385.406865 308.553926 
L 385.647591 307.312652 
L 385.888318 306.728793 
L 386.129044 306.702508 
L 386.369771 307.040008 
L 386.610497 307.689389 
L 386.851224 307.878342 
L 387.573403 306.943238 
L 387.814129 306.51648 
L 388.054856 306.536557 
L 388.295582 306.709828 
L 389.017762 308.32673 
L 389.258488 308.697705 
L 390.221394 307.226553 
L 390.943573 306.952521 
L 391.425026 305.354225 
L 392.628658 300.077255 
L 392.869385 299.539014 
L 393.350838 300.240531 
L 393.591564 301.010882 
L 394.313743 304.995969 
L 394.795196 305.725164 
L 395.276649 304.796713 
L 395.517376 305.07317 
L 396.480281 308.060776 
L 396.721008 308.258531 
L 397.202461 310.549477 
L 398.406093 313.325061 
L 399.368999 317.340417 
L 399.609725 318.020423 
L 399.850452 317.958316 
L 400.331904 316.876355 
L 400.572631 316.081977 
L 401.054084 314.123471 
L 401.29481 314.227191 
L 401.535537 313.732164 
L 402.01699 311.770576 
L 402.257716 311.356711 
L 402.498442 312.096164 
L 402.979895 313.940198 
L 403.461348 315.118847 
L 403.702075 315.381747 
L 403.942801 315.033559 
L 404.66498 313.048117 
L 404.905707 312.834962 
L 405.146433 313.238908 
L 405.627886 314.913167 
L 406.109339 316.610067 
L 406.350065 317.138316 
L 406.590792 317.127933 
L 406.831518 316.550354 
L 407.072245 316.293087 
L 407.312971 315.617679 
L 407.553698 314.347115 
L 407.794424 313.679921 
L 408.035151 313.614595 
L 408.516603 314.007395 
L 408.75733 313.922188 
L 408.998056 313.406958 
L 409.720236 309.671959 
L 409.960962 309.095604 
L 410.442415 307.567922 
L 410.923868 308.35381 
L 411.646047 310.011921 
L 411.886774 309.309543 
L 412.1275 309.100795 
L 412.368227 309.162112 
L 412.608953 308.582816 
L 413.331132 307.628467 
L 413.812585 306.587409 
L 415.256944 309.809254 
L 415.738397 310.178813 
L 415.979123 310.188239 
L 416.460576 310.812744 
L 416.701303 310.910628 
L 416.942029 310.845197 
L 418.145661 313.162289 
L 418.386388 313.406123 
L 418.86784 312.778477 
L 419.108567 312.668873 
L 419.59002 311.739679 
L 419.830746 311.715703 
L 420.312199 310.999694 
L 420.793652 311.822245 
L 421.034378 311.834314 
L 421.275105 311.591078 
L 422.238011 312.453986 
L 422.478737 312.316175 
L 422.719464 311.736917 
L 422.96019 311.659446 
L 423.441643 313.034871 
L 423.923096 315.265316 
L 424.645275 317.027459 
L 424.886002 317.274664 
L 425.126728 316.98417 
L 425.367454 316.288541 
L 425.608181 316.004015 
L 426.089634 314.989712 
L 426.33036 314.787135 
L 426.811813 314.07767 
L 427.05254 314.250345 
L 427.533992 313.182238 
L 428.978351 315.03861 
L 429.70053 315.382111 
L 429.941257 315.764243 
L 430.42271 317.054673 
L 430.904163 319.325393 
L 431.144889 319.246423 
L 431.385616 318.719682 
L 432.589248 311.976578 
L 432.829974 311.617571 
L 433.070701 312.319558 
L 433.311427 313.607751 
L 433.552153 313.931063 
L 433.79288 313.577582 
L 434.515059 311.726907 
L 434.755786 311.055106 
L 434.996512 310.926857 
L 435.477965 311.616925 
L 435.718691 311.612028 
L 436.200144 313.122256 
L 436.440871 313.978147 
L 436.681597 314.112203 
L 436.922324 313.906094 
L 437.403777 315.212103 
L 437.885229 316.816296 
L 438.607409 320.222857 
L 438.848135 320.769715 
L 439.088862 321.01135 
L 439.329588 320.852788 
L 440.051767 318.455516 
L 440.53322 316.034457 
L 441.014673 314.344041 
L 441.2554 313.72393 
L 441.496126 312.753784 
L 441.736853 312.414229 
L 442.218305 313.369167 
L 442.699758 314.781317 
L 442.940485 315.757499 
L 443.181211 316.263973 
L 443.662664 316.300302 
L 444.144117 316.340612 
L 444.62557 315.772268 
L 444.866296 315.651147 
L 445.347749 314.949624 
L 445.829202 313.539179 
L 446.069929 313.617503 
L 446.551381 313.205947 
L 446.792108 313.513607 
L 447.032834 314.253195 
L 447.514287 316.587178 
L 447.755014 317.349392 
L 447.99574 317.212701 
L 449.440099 313.428543 
L 449.680825 313.255021 
L 449.921552 313.804866 
L 450.162278 314.071196 
L 450.403004 314.018934 
L 450.884457 313.399401 
L 452.08809 311.276078 
L 452.569542 312.530014 
L 452.810269 312.59518 
L 453.291722 312.452147 
L 453.532448 312.492895 
L 454.013901 313.152036 
L 454.73608 316.089174 
L 455.217533 317.738278 
L 455.45826 317.972124 
L 455.698986 317.922201 
L 455.939713 317.43345 
L 456.180439 317.219668 
L 456.421166 317.31185 
L 456.661892 316.900413 
L 456.902618 315.38173 
L 457.384071 308.565478 
L 458.106251 290.372344 
L 458.587704 280.822359 
L 458.82843 280.66201 
L 459.069156 284.359613 
L 459.309883 292.139544 
L 460.754242 358.998972 
L 461.235694 367.259145 
L 461.717147 368.775371 
L 461.957874 369.169204 
L 462.1986 368.825111 
L 462.439327 367.619418 
L 462.680053 364.569914 
L 462.920779 359.257459 
L 463.161506 350.472075 
L 463.642959 317.157164 
L 464.124412 260.299557 
L 464.846591 171.833168 
L 465.087317 162.354473 
L 465.328044 170.283001 
L 465.56877 195.21387 
L 467.013129 416.685069 
L 467.253855 428.092593 
L 467.735308 437.801186 
L 468.216761 448.857636 
L 468.698214 459.919022 
L 468.938941 457.306592 
L 469.179667 442.677494 
L 469.66112 371.453698 
L 470.624026 185.095935 
L 470.864752 165.00312 
L 471.105479 157.161356 
L 471.346205 157.867698 
L 471.586931 161.110291 
L 471.827658 159.22237 
L 472.068384 147.866538 
L 472.549837 99.121662 
L 473.03129 49.435451 
L 473.272017 40.87017 
L 473.512743 48.274844 
L 473.753469 70.894596 
L 474.475649 187.505567 
L 475.197828 289.779196 
L 476.642187 431.908278 
L 477.605092 546.252513 
L 477.845819 557.408338 
L 478.086545 556.987206 
L 478.327272 545.426658 
L 479.049451 496.875291 
L 479.290178 493.266175 
L 479.530904 498.420098 
L 480.012357 517.484986 
L 480.253083 520.832075 
L 480.49381 513.583278 
L 480.734536 494.802818 
L 481.938168 345.436383 
L 482.178895 334.094917 
L 483.141801 309.904313 
L 483.623254 281.713218 
L 484.345433 236.17848 
L 484.826886 222.519867 
L 485.308339 212.65907 
L 486.030518 196.315169 
L 486.271244 196.262412 
L 486.511971 200.347666 
L 487.474877 231.186084 
L 487.715603 232.288945 
L 487.95633 228.803909 
L 488.437782 217.173712 
L 488.678509 214.916616 
L 488.919235 218.200143 
L 489.400688 235.944837 
L 489.882141 257.12642 
L 490.122868 263.904729 
L 490.363594 267.138777 
L 490.60432 267.370502 
L 491.085773 265.694367 
L 491.3265 266.853184 
L 491.567226 271.208917 
L 493.011585 310.474973 
L 493.493038 319.569532 
L 494.215217 335.509617 
L 494.455943 336.668478 
L 494.69667 333.695936 
L 495.418849 314.586111 
L 495.659576 314.048691 
L 495.900302 319.985848 
L 496.863208 371.269206 
L 497.103934 371.002397 
L 497.344661 362.621214 
L 498.06684 319.175079 
L 498.307567 314.289433 
L 498.548293 318.253535 
L 499.511199 358.166967 
L 499.751925 356.99931 
L 500.233378 342.309351 
L 500.714831 327.640289 
L 501.196284 321.140844 
L 501.43701 319.314747 
L 501.677737 318.561564 
L 501.918463 318.487531 
L 502.15919 319.824297 
L 502.399916 323.624922 
L 503.122095 341.671954 
L 503.362822 343.226563 
L 503.603548 339.602181 
L 504.085001 318.818835 
L 504.566454 299.667101 
L 504.807181 299.599624 
L 505.047907 306.858126 
L 505.770086 345.575339 
L 506.010813 349.62251 
L 506.251539 345.752282 
L 506.732992 319.740004 
L 507.214445 294.884222 
L 507.455171 291.328828 
L 507.695898 294.522763 
L 508.658804 324.895917 
L 508.89953 325.482359 
L 509.140256 321.799136 
L 509.621709 304.588962 
L 510.103162 286.004577 
L 510.343889 281.571854 
L 510.584615 281.956012 
L 510.825342 287.683267 
L 511.788247 327.291553 
L 512.028974 329.09771 
L 512.2697 324.265905 
L 513.232606 284.452792 
L 513.473332 282.408256 
L 513.714059 286.220719 
L 514.676965 315.219191 
L 514.917691 311.690105 
L 515.399144 289.387031 
L 515.880597 270.953642 
L 516.121323 271.241134 
L 516.36205 279.515039 
L 517.084229 318.54713 
L 517.324956 323.267365 
L 517.565682 320.521887 
L 518.047135 298.372389 
L 518.528588 277.616803 
L 518.769314 275.380554 
L 519.010041 279.610097 
L 519.972946 312.898557 
L 520.213673 315.119143 
L 520.454399 313.248007 
L 521.417305 297.038243 
L 521.658031 297.310733 
L 521.898758 299.391616 
L 523.10239 316.738851 
L 523.343117 318.808083 
L 523.583843 319.665659 
L 523.824569 318.567862 
L 524.306022 311.551919 
L 524.787475 303.84855 
L 525.028202 304.001814 
L 525.268928 309.449566 
L 526.231834 347.920493 
L 526.47256 346.460568 
L 526.713287 338.199439 
L 527.435466 302.899438 
L 527.676193 301.588256 
L 527.916919 308.359349 
L 528.639098 345.630726 
L 528.879825 349.536927 
L 529.120551 346.038143 
L 530.083457 312.326149 
L 530.324183 314.089582 
L 530.805636 328.352517 
L 531.287089 339.552736 
L 531.527816 339.138217 
L 531.768542 334.450542 
L 532.490721 316.028229 
L 532.731448 314.913412 
L 532.972174 316.776493 
L 533.453627 323.128777 
L 533.694354 324.888558 
L 533.93508 324.939155 
L 534.175807 322.796273 
L 534.897986 313.282225 
L 535.138712 312.161115 
L 535.379439 313.11651 
L 536.101618 319.630411 
L 536.342344 318.705096 
L 536.583071 315.939905 
L 537.30525 304.42754 
L 538.02743 297.909767 
L 538.508882 293.365423 
L 538.990335 288.48066 
L 539.231062 287.588089 
L 539.471788 288.545955 
L 540.434694 301.920222 
L 540.67542 299.31906 
L 541.638326 279.778934 
L 541.879053 282.226193 
L 542.360506 296.810254 
L 542.601232 304.239972 
L 542.841958 307.841108 
L 543.082685 307.07901 
L 543.323411 302.626867 
L 543.804864 289.182448 
L 544.045591 286.42762 
L 544.286317 288.663099 
L 544.76777 303.375001 
L 545.249223 318.556425 
L 545.489949 321.095077 
L 545.730676 319.595901 
L 546.693582 300.641669 
L 546.934308 298.640057 
L 547.175034 298.388158 
L 547.415761 300.861739 
L 547.897214 310.356616 
L 548.619393 327.91217 
L 548.86012 329.896446 
L 549.100846 329.364387 
L 549.582299 321.168508 
L 550.063752 314.314811 
L 550.304478 314.903963 
L 550.545205 319.082899 
L 551.267384 338.046172 
L 551.50811 339.709285 
L 551.748837 338.957917 
L 551.989563 336.564743 
L 552.471016 330.488888 
L 552.711743 329.795498 
L 552.952469 330.331979 
L 553.915375 340.250012 
L 554.156101 340.411951 
L 554.396828 339.936955 
L 554.878281 338.042866 
L 555.119007 336.831627 
L 555.841186 329.691084 
L 556.322639 323.3762 
L 556.563366 321.702032 
L 556.804092 321.1855 
L 557.044819 321.709029 
L 557.526271 325.433363 
L 557.766998 326.04897 
L 558.007724 325.050708 
L 558.248451 322.3553 
L 559.211357 305.191684 
L 559.452083 304.502276 
L 559.692809 306.352719 
L 560.655715 321.1284 
L 560.896442 320.030487 
L 561.137168 315.330914 
L 561.859347 295.405649 
L 562.100074 292.523324 
L 562.3408 293.510237 
L 563.06298 305.744668 
L 563.303706 305.577708 
L 563.544433 302.210601 
L 564.266612 286.88276 
L 564.507338 285.866063 
L 564.748065 287.768995 
L 565.229518 294.687631 
L 565.470244 296.469207 
L 565.71097 296.147172 
L 566.192423 292.973805 
L 566.43315 292.218862 
L 566.673876 292.490912 
L 567.155329 296.431144 
L 567.636782 299.966996 
L 567.877508 300.006809 
L 568.358961 298.044958 
L 568.599688 297.937975 
L 568.840414 298.657773 
L 569.321867 303.173522 
L 569.562594 305.651293 
L 569.80332 306.723543 
L 570.044046 306.084974 
L 570.766226 300.319707 
L 571.006952 300.230636 
L 571.247679 301.694788 
L 572.210584 313.759494 
L 572.451311 313.692446 
L 572.932764 311.345429 
L 573.17349 311.078355 
L 573.414217 312.235389 
L 573.89567 316.785291 
L 574.377122 323.001435 
L 574.617849 324.002609 
L 574.858575 323.075708 
L 575.340028 318.981438 
L 575.580755 318.144128 
L 575.821481 319.408744 
L 576.062208 322.644798 
L 576.784387 336.266465 
L 577.025113 337.377699 
L 577.26584 335.587338 
L 578.228746 322.17119 
L 578.469472 323.4324 
L 579.432378 339.84958 
L 579.673104 340.171114 
L 579.913831 338.136279 
L 580.876736 321.49207 
L 581.117463 321.205346 
L 581.358189 322.326283 
L 581.839642 326.358263 
L 582.080369 326.887666 
L 582.321095 326.290406 
L 582.561821 324.7081 
L 583.284001 316.400909 
L 583.524727 315.338462 
L 583.765454 315.53486 
L 584.00618 316.478064 
L 584.969086 322.762294 
L 585.209812 323.561473 
L 585.450539 323.708404 
L 585.691265 322.6943 
L 585.931992 320.555234 
L 586.894897 308.04262 
L 587.135624 306.419748 
L 587.37635 306.12635 
L 587.617077 306.851261 
L 588.339256 310.43951 
L 588.579983 309.67415 
L 589.302162 303.342721 
L 589.783615 298.281802 
L 590.024341 296.729052 
L 590.265068 296.174975 
L 590.505794 296.588339 
L 591.227973 299.593852 
L 591.4687 300.716116 
L 591.709426 300.716951 
L 592.672332 296.237051 
L 592.913059 296.438194 
L 593.153785 297.247931 
L 594.116691 301.644386 
L 594.357417 301.784255 
L 594.598144 301.654142 
L 595.320323 300.552617 
L 595.801776 300.647043 
L 596.042502 301.418861 
L 596.523955 304.585466 
L 597.486861 311.878203 
L 597.968314 313.911553 
L 598.20904 314.266897 
L 598.690493 314.053521 
L 599.171946 314.866844 
L 599.171946 314.866844 
" style="fill:none;stroke:#1f77b4;stroke-linecap:square;stroke-width:1.5;"/>
   </g>
   <g id="patch_3">
    <path d="M 42.082813 598.84375 
L 42.082813 14.3 
" style="fill:none;stroke:#000000;stroke-linecap:square;stroke-linejoin:miter;stroke-width:0.8;"/>
   </g>
   <g id="patch_4">
    <path d="M 625.7 598.84375 
L 625.7 14.3 
" style="fill:none;stroke:#000000;stroke-linecap:square;stroke-linejoin:miter;stroke-width:0.8;"/>
   </g>
   <g id="patch_5">
    <path d="M 42.082813 598.84375 
L 625.7 598.84375 
" style="fill:none;stroke:#000000;stroke-linecap:square;stroke-linejoin:miter;stroke-width:0.8;"/>
   </g>
   <g id="patch_6">
    <path d="M 42.082813 14.3 
L 625.7 14.3 
" style="fill:none;stroke:#000000;stroke-linecap:square;stroke-linejoin:miter;stroke-width:0.8;"/>
   </g>
  </g>
 </g>
 <defs>
  <clipPath id="p3c5f91974a">
   <rect height="584.54375" width="583.617188" x="42.082813" y="14.3"/>
  </clipPath>
 </defs>
</svg>
