<?xml version="1.0" encoding="utf-8" standalone="no"?>
<!DOCTYPE svg PUBLIC "-//W3C//DTD SVG 1.1//EN"
  "http://www.w3.org/Graphics/SVG/1.1/DTD/svg11.dtd">
<!-- Created with matplotlib (http://matplotlib.org/) -->
<svg height="640pt" version="1.1" viewBox="0 0 640 640" width="640pt" xmlns="http://www.w3.org/2000/svg" xmlns:xlink="http://www.w3.org/1999/xlink">
 <defs>
  <style type="text/css">
*{stroke-linecap:butt;stroke-linejoin:round;}
  </style>
 </defs>
 <g id="figure_1">
  <g id="patch_1">
   <path d="M 0 640 
L 640 640 
L 640 0 
L 0 0 
z
" style="fill:#ffffff;"/>
  </g>
  <g id="axes_1">
   <g id="patch_2">
    <path d="M 40.065625 598.84375 
L 625.7 598.84375 
L 625.7 14.3 
L 40.065625 14.3 
z
" style="fill:#ffffff;"/>
   </g>
   <g id="matplotlib.axis_1">
    <g id="xtick_1">
     <g id="line2d_1">
      <defs>
       <path d="M 0 0 
L 0 3.5 
" id="mdbeafd06df" style="stroke:#000000;stroke-width:0.8;"/>
      </defs>
      <g>
       <use style="stroke:#000000;stroke-width:0.8;" x="54.579871" xlink:href="#mdbeafd06df" y="598.84375"/>
      </g>
     </g>
     <g id="text_1">
      <!-- 0.0 -->
      <defs>
       <path d="M 31.78125 66.40625 
Q 24.171875 66.40625 20.328125 58.90625 
Q 16.5 51.421875 16.5 36.375 
Q 16.5 21.390625 20.328125 13.890625 
Q 24.171875 6.390625 31.78125 6.390625 
Q 39.453125 6.390625 43.28125 13.890625 
Q 47.125 21.390625 47.125 36.375 
Q 47.125 51.421875 43.28125 58.90625 
Q 39.453125 66.40625 31.78125 66.40625 
z
M 31.78125 74.21875 
Q 44.046875 74.21875 50.515625 64.515625 
Q 56.984375 54.828125 56.984375 36.375 
Q 56.984375 17.96875 50.515625 8.265625 
Q 44.046875 -1.421875 31.78125 -1.421875 
Q 19.53125 -1.421875 13.0625 8.265625 
Q 6.59375 17.96875 6.59375 36.375 
Q 6.59375 54.828125 13.0625 64.515625 
Q 19.53125 74.21875 31.78125 74.21875 
z
" id="DejaVuSans-30"/>
       <path d="M 10.6875 12.40625 
L 21 12.40625 
L 21 0 
L 10.6875 0 
z
" id="DejaVuSans-2e"/>
      </defs>
      <g transform="translate(46.628308 613.442188)scale(0.1 -0.1)">
       <use xlink:href="#DejaVuSans-30"/>
       <use x="63.623047" xlink:href="#DejaVuSans-2e"/>
       <use x="95.410156" xlink:href="#DejaVuSans-30"/>
      </g>
     </g>
    </g>
    <g id="xtick_2">
     <g id="line2d_2">
      <g>
       <use style="stroke:#000000;stroke-width:0.8;" x="163.529358" xlink:href="#mdbeafd06df" y="598.84375"/>
      </g>
     </g>
     <g id="text_2">
      <!-- 0.2 -->
      <defs>
       <path d="M 19.1875 8.296875 
L 53.609375 8.296875 
L 53.609375 0 
L 7.328125 0 
L 7.328125 8.296875 
Q 12.9375 14.109375 22.625 23.890625 
Q 32.328125 33.6875 34.8125 36.53125 
Q 39.546875 41.84375 41.421875 45.53125 
Q 43.3125 49.21875 43.3125 52.78125 
Q 43.3125 58.59375 39.234375 62.25 
Q 35.15625 65.921875 28.609375 65.921875 
Q 23.96875 65.921875 18.8125 64.3125 
Q 13.671875 62.703125 7.8125 59.421875 
L 7.8125 69.390625 
Q 13.765625 71.78125 18.9375 73 
Q 24.125 74.21875 28.421875 74.21875 
Q 39.75 74.21875 46.484375 68.546875 
Q 53.21875 62.890625 53.21875 53.421875 
Q 53.21875 48.921875 51.53125 44.890625 
Q 49.859375 40.875 45.40625 35.40625 
Q 44.1875 33.984375 37.640625 27.21875 
Q 31.109375 20.453125 19.1875 8.296875 
z
" id="DejaVuSans-32"/>
      </defs>
      <g transform="translate(155.577795 613.442188)scale(0.1 -0.1)">
       <use xlink:href="#DejaVuSans-30"/>
       <use x="63.623047" xlink:href="#DejaVuSans-2e"/>
       <use x="95.410156" xlink:href="#DejaVuSans-32"/>
      </g>
     </g>
    </g>
    <g id="xtick_3">
     <g id="line2d_3">
      <g>
       <use style="stroke:#000000;stroke-width:0.8;" x="272.478845" xlink:href="#mdbeafd06df" y="598.84375"/>
      </g>
     </g>
     <g id="text_3">
      <!-- 0.4 -->
      <defs>
       <path d="M 37.796875 64.3125 
L 12.890625 25.390625 
L 37.796875 25.390625 
z
M 35.203125 72.90625 
L 47.609375 72.90625 
L 47.609375 25.390625 
L 58.015625 25.390625 
L 58.015625 17.1875 
L 47.609375 17.1875 
L 47.609375 0 
L 37.796875 0 
L 37.796875 17.1875 
L 4.890625 17.1875 
L 4.890625 26.703125 
z
" id="DejaVuSans-34"/>
      </defs>
      <g transform="translate(264.527283 613.442188)scale(0.1 -0.1)">
       <use xlink:href="#DejaVuSans-30"/>
       <use x="63.623047" xlink:href="#DejaVuSans-2e"/>
       <use x="95.410156" xlink:href="#DejaVuSans-34"/>
      </g>
     </g>
    </g>
    <g id="xtick_4">
     <g id="line2d_4">
      <g>
       <use style="stroke:#000000;stroke-width:0.8;" x="381.428332" xlink:href="#mdbeafd06df" y="598.84375"/>
      </g>
     </g>
     <g id="text_4">
      <!-- 0.6 -->
      <defs>
       <path d="M 33.015625 40.375 
Q 26.375 40.375 22.484375 35.828125 
Q 18.609375 31.296875 18.609375 23.390625 
Q 18.609375 15.53125 22.484375 10.953125 
Q 26.375 6.390625 33.015625 6.390625 
Q 39.65625 6.390625 43.53125 10.953125 
Q 47.40625 15.53125 47.40625 23.390625 
Q 47.40625 31.296875 43.53125 35.828125 
Q 39.65625 40.375 33.015625 40.375 
z
M 52.59375 71.296875 
L 52.59375 62.3125 
Q 48.875 64.0625 45.09375 64.984375 
Q 41.3125 65.921875 37.59375 65.921875 
Q 27.828125 65.921875 22.671875 59.328125 
Q 17.53125 52.734375 16.796875 39.40625 
Q 19.671875 43.65625 24.015625 45.921875 
Q 28.375 48.1875 33.59375 48.1875 
Q 44.578125 48.1875 50.953125 41.515625 
Q 57.328125 34.859375 57.328125 23.390625 
Q 57.328125 12.15625 50.6875 5.359375 
Q 44.046875 -1.421875 33.015625 -1.421875 
Q 20.359375 -1.421875 13.671875 8.265625 
Q 6.984375 17.96875 6.984375 36.375 
Q 6.984375 53.65625 15.1875 63.9375 
Q 23.390625 74.21875 37.203125 74.21875 
Q 40.921875 74.21875 44.703125 73.484375 
Q 48.484375 72.75 52.59375 71.296875 
z
" id="DejaVuSans-36"/>
      </defs>
      <g transform="translate(373.47677 613.442188)scale(0.1 -0.1)">
       <use xlink:href="#DejaVuSans-30"/>
       <use x="63.623047" xlink:href="#DejaVuSans-2e"/>
       <use x="95.410156" xlink:href="#DejaVuSans-36"/>
      </g>
     </g>
    </g>
    <g id="xtick_5">
     <g id="line2d_5">
      <g>
       <use style="stroke:#000000;stroke-width:0.8;" x="490.377819" xlink:href="#mdbeafd06df" y="598.84375"/>
      </g>
     </g>
     <g id="text_5">
      <!-- 0.8 -->
      <defs>
       <path d="M 31.78125 34.625 
Q 24.75 34.625 20.71875 30.859375 
Q 16.703125 27.09375 16.703125 20.515625 
Q 16.703125 13.921875 20.71875 10.15625 
Q 24.75 6.390625 31.78125 6.390625 
Q 38.8125 6.390625 42.859375 10.171875 
Q 46.921875 13.96875 46.921875 20.515625 
Q 46.921875 27.09375 42.890625 30.859375 
Q 38.875 34.625 31.78125 34.625 
z
M 21.921875 38.8125 
Q 15.578125 40.375 12.03125 44.71875 
Q 8.5 49.078125 8.5 55.328125 
Q 8.5 64.0625 14.71875 69.140625 
Q 20.953125 74.21875 31.78125 74.21875 
Q 42.671875 74.21875 48.875 69.140625 
Q 55.078125 64.0625 55.078125 55.328125 
Q 55.078125 49.078125 51.53125 44.71875 
Q 48 40.375 41.703125 38.8125 
Q 48.828125 37.15625 52.796875 32.3125 
Q 56.78125 27.484375 56.78125 20.515625 
Q 56.78125 9.90625 50.3125 4.234375 
Q 43.84375 -1.421875 31.78125 -1.421875 
Q 19.734375 -1.421875 13.25 4.234375 
Q 6.78125 9.90625 6.78125 20.515625 
Q 6.78125 27.484375 10.78125 32.3125 
Q 14.796875 37.15625 21.921875 38.8125 
z
M 18.3125 54.390625 
Q 18.3125 48.734375 21.84375 45.5625 
Q 25.390625 42.390625 31.78125 42.390625 
Q 38.140625 42.390625 41.71875 45.5625 
Q 45.3125 48.734375 45.3125 54.390625 
Q 45.3125 60.0625 41.71875 63.234375 
Q 38.140625 66.40625 31.78125 66.40625 
Q 25.390625 66.40625 21.84375 63.234375 
Q 18.3125 60.0625 18.3125 54.390625 
z
" id="DejaVuSans-38"/>
      </defs>
      <g transform="translate(482.426257 613.442188)scale(0.1 -0.1)">
       <use xlink:href="#DejaVuSans-30"/>
       <use x="63.623047" xlink:href="#DejaVuSans-2e"/>
       <use x="95.410156" xlink:href="#DejaVuSans-38"/>
      </g>
     </g>
    </g>
    <g id="xtick_6">
     <g id="line2d_6">
      <g>
       <use style="stroke:#000000;stroke-width:0.8;" x="599.327307" xlink:href="#mdbeafd06df" y="598.84375"/>
      </g>
     </g>
     <g id="text_6">
      <!-- 1.0 -->
      <defs>
       <path d="M 12.40625 8.296875 
L 28.515625 8.296875 
L 28.515625 63.921875 
L 10.984375 60.40625 
L 10.984375 69.390625 
L 28.421875 72.90625 
L 38.28125 72.90625 
L 38.28125 8.296875 
L 54.390625 8.296875 
L 54.390625 0 
L 12.40625 0 
z
" id="DejaVuSans-31"/>
      </defs>
      <g transform="translate(591.375744 613.442188)scale(0.1 -0.1)">
       <use xlink:href="#DejaVuSans-31"/>
       <use x="63.623047" xlink:href="#DejaVuSans-2e"/>
       <use x="95.410156" xlink:href="#DejaVuSans-30"/>
      </g>
     </g>
    </g>
    <g id="text_7">
     <!-- time -->
     <defs>
      <path d="M 18.3125 70.21875 
L 18.3125 54.6875 
L 36.8125 54.6875 
L 36.8125 47.703125 
L 18.3125 47.703125 
L 18.3125 18.015625 
Q 18.3125 11.328125 20.140625 9.421875 
Q 21.96875 7.515625 27.59375 7.515625 
L 36.8125 7.515625 
L 36.8125 0 
L 27.59375 0 
Q 17.1875 0 13.234375 3.875 
Q 9.28125 7.765625 9.28125 18.015625 
L 9.28125 47.703125 
L 2.6875 47.703125 
L 2.6875 54.6875 
L 9.28125 54.6875 
L 9.28125 70.21875 
z
" id="DejaVuSans-74"/>
      <path d="M 9.421875 54.6875 
L 18.40625 54.6875 
L 18.40625 0 
L 9.421875 0 
z
M 9.421875 75.984375 
L 18.40625 75.984375 
L 18.40625 64.59375 
L 9.421875 64.59375 
z
" id="DejaVuSans-69"/>
      <path d="M 52 44.1875 
Q 55.375 50.25 60.0625 53.125 
Q 64.75 56 71.09375 56 
Q 79.640625 56 84.28125 50.015625 
Q 88.921875 44.046875 88.921875 33.015625 
L 88.921875 0 
L 79.890625 0 
L 79.890625 32.71875 
Q 79.890625 40.578125 77.09375 44.375 
Q 74.3125 48.1875 68.609375 48.1875 
Q 61.625 48.1875 57.5625 43.546875 
Q 53.515625 38.921875 53.515625 30.90625 
L 53.515625 0 
L 44.484375 0 
L 44.484375 32.71875 
Q 44.484375 40.625 41.703125 44.40625 
Q 38.921875 48.1875 33.109375 48.1875 
Q 26.21875 48.1875 22.15625 43.53125 
Q 18.109375 38.875 18.109375 30.90625 
L 18.109375 0 
L 9.078125 0 
L 9.078125 54.6875 
L 18.109375 54.6875 
L 18.109375 46.1875 
Q 21.1875 51.21875 25.484375 53.609375 
Q 29.78125 56 35.6875 56 
Q 41.65625 56 45.828125 52.96875 
Q 50 49.953125 52 44.1875 
z
" id="DejaVuSans-6d"/>
      <path d="M 56.203125 29.59375 
L 56.203125 25.203125 
L 14.890625 25.203125 
Q 15.484375 15.921875 20.484375 11.0625 
Q 25.484375 6.203125 34.421875 6.203125 
Q 39.59375 6.203125 44.453125 7.46875 
Q 49.3125 8.734375 54.109375 11.28125 
L 54.109375 2.78125 
Q 49.265625 0.734375 44.1875 -0.34375 
Q 39.109375 -1.421875 33.890625 -1.421875 
Q 20.796875 -1.421875 13.15625 6.1875 
Q 5.515625 13.8125 5.515625 26.8125 
Q 5.515625 40.234375 12.765625 48.109375 
Q 20.015625 56 32.328125 56 
Q 43.359375 56 49.78125 48.890625 
Q 56.203125 41.796875 56.203125 29.59375 
z
M 47.21875 32.234375 
Q 47.125 39.59375 43.09375 43.984375 
Q 39.0625 48.390625 32.421875 48.390625 
Q 24.90625 48.390625 20.390625 44.140625 
Q 15.875 39.890625 15.1875 32.171875 
z
" id="DejaVuSans-65"/>
     </defs>
     <g transform="translate(321.586719 627.120312)scale(0.1 -0.1)">
      <use xlink:href="#DejaVuSans-74"/>
      <use x="39.208984" xlink:href="#DejaVuSans-69"/>
      <use x="66.992188" xlink:href="#DejaVuSans-6d"/>
      <use x="164.404297" xlink:href="#DejaVuSans-65"/>
     </g>
    </g>
   </g>
   <g id="matplotlib.axis_2">
    <g id="ytick_1">
     <g id="line2d_7">
      <defs>
       <path d="M 0 0 
L -3.5 0 
" id="m400a6b898d" style="stroke:#000000;stroke-width:0.8;"/>
      </defs>
      <g>
       <use style="stroke:#000000;stroke-width:0.8;" x="40.065625" xlink:href="#m400a6b898d" y="574.630175"/>
      </g>
     </g>
     <g id="text_8">
      <!-- 0.00 -->
      <g transform="translate(10.8 578.429394)scale(0.1 -0.1)">
       <use xlink:href="#DejaVuSans-30"/>
       <use x="63.623047" xlink:href="#DejaVuSans-2e"/>
       <use x="95.410156" xlink:href="#DejaVuSans-30"/>
       <use x="159.033203" xlink:href="#DejaVuSans-30"/>
      </g>
     </g>
    </g>
    <g id="ytick_2">
     <g id="line2d_8">
      <g>
       <use style="stroke:#000000;stroke-width:0.8;" x="40.065625" xlink:href="#m400a6b898d" y="498.401224"/>
      </g>
     </g>
     <g id="text_9">
      <!-- 0.05 -->
      <defs>
       <path d="M 10.796875 72.90625 
L 49.515625 72.90625 
L 49.515625 64.59375 
L 19.828125 64.59375 
L 19.828125 46.734375 
Q 21.96875 47.46875 24.109375 47.828125 
Q 26.265625 48.1875 28.421875 48.1875 
Q 40.625 48.1875 47.75 41.5 
Q 54.890625 34.8125 54.890625 23.390625 
Q 54.890625 11.625 47.5625 5.09375 
Q 40.234375 -1.421875 26.90625 -1.421875 
Q 22.3125 -1.421875 17.546875 -0.640625 
Q 12.796875 0.140625 7.71875 1.703125 
L 7.71875 11.625 
Q 12.109375 9.234375 16.796875 8.0625 
Q 21.484375 6.890625 26.703125 6.890625 
Q 35.15625 6.890625 40.078125 11.328125 
Q 45.015625 15.765625 45.015625 23.390625 
Q 45.015625 31 40.078125 35.4375 
Q 35.15625 39.890625 26.703125 39.890625 
Q 22.75 39.890625 18.8125 39.015625 
Q 14.890625 38.140625 10.796875 36.28125 
z
" id="DejaVuSans-35"/>
      </defs>
      <g transform="translate(10.8 502.200443)scale(0.1 -0.1)">
       <use xlink:href="#DejaVuSans-30"/>
       <use x="63.623047" xlink:href="#DejaVuSans-2e"/>
       <use x="95.410156" xlink:href="#DejaVuSans-30"/>
       <use x="159.033203" xlink:href="#DejaVuSans-35"/>
      </g>
     </g>
    </g>
    <g id="ytick_3">
     <g id="line2d_9">
      <g>
       <use style="stroke:#000000;stroke-width:0.8;" x="40.065625" xlink:href="#m400a6b898d" y="422.172274"/>
      </g>
     </g>
     <g id="text_10">
      <!-- 0.10 -->
      <g transform="translate(10.8 425.971492)scale(0.1 -0.1)">
       <use xlink:href="#DejaVuSans-30"/>
       <use x="63.623047" xlink:href="#DejaVuSans-2e"/>
       <use x="95.410156" xlink:href="#DejaVuSans-31"/>
       <use x="159.033203" xlink:href="#DejaVuSans-30"/>
      </g>
     </g>
    </g>
    <g id="ytick_4">
     <g id="line2d_10">
      <g>
       <use style="stroke:#000000;stroke-width:0.8;" x="40.065625" xlink:href="#m400a6b898d" y="345.943323"/>
      </g>
     </g>
     <g id="text_11">
      <!-- 0.15 -->
      <g transform="translate(10.8 349.742542)scale(0.1 -0.1)">
       <use xlink:href="#DejaVuSans-30"/>
       <use x="63.623047" xlink:href="#DejaVuSans-2e"/>
       <use x="95.410156" xlink:href="#DejaVuSans-31"/>
       <use x="159.033203" xlink:href="#DejaVuSans-35"/>
      </g>
     </g>
    </g>
    <g id="ytick_5">
     <g id="line2d_11">
      <g>
       <use style="stroke:#000000;stroke-width:0.8;" x="40.065625" xlink:href="#m400a6b898d" y="269.714372"/>
      </g>
     </g>
     <g id="text_12">
      <!-- 0.20 -->
      <g transform="translate(10.8 273.513591)scale(0.1 -0.1)">
       <use xlink:href="#DejaVuSans-30"/>
       <use x="63.623047" xlink:href="#DejaVuSans-2e"/>
       <use x="95.410156" xlink:href="#DejaVuSans-32"/>
       <use x="159.033203" xlink:href="#DejaVuSans-30"/>
      </g>
     </g>
    </g>
    <g id="ytick_6">
     <g id="line2d_12">
      <g>
       <use style="stroke:#000000;stroke-width:0.8;" x="40.065625" xlink:href="#m400a6b898d" y="193.485422"/>
      </g>
     </g>
     <g id="text_13">
      <!-- 0.25 -->
      <g transform="translate(10.8 197.28464)scale(0.1 -0.1)">
       <use xlink:href="#DejaVuSans-30"/>
       <use x="63.623047" xlink:href="#DejaVuSans-2e"/>
       <use x="95.410156" xlink:href="#DejaVuSans-32"/>
       <use x="159.033203" xlink:href="#DejaVuSans-35"/>
      </g>
     </g>
    </g>
    <g id="ytick_7">
     <g id="line2d_13">
      <g>
       <use style="stroke:#000000;stroke-width:0.8;" x="40.065625" xlink:href="#m400a6b898d" y="117.256471"/>
      </g>
     </g>
     <g id="text_14">
      <!-- 0.30 -->
      <defs>
       <path d="M 40.578125 39.3125 
Q 47.65625 37.796875 51.625 33 
Q 55.609375 28.21875 55.609375 21.1875 
Q 55.609375 10.40625 48.1875 4.484375 
Q 40.765625 -1.421875 27.09375 -1.421875 
Q 22.515625 -1.421875 17.65625 -0.515625 
Q 12.796875 0.390625 7.625 2.203125 
L 7.625 11.71875 
Q 11.71875 9.328125 16.59375 8.109375 
Q 21.484375 6.890625 26.8125 6.890625 
Q 36.078125 6.890625 40.9375 10.546875 
Q 45.796875 14.203125 45.796875 21.1875 
Q 45.796875 27.640625 41.28125 31.265625 
Q 36.765625 34.90625 28.71875 34.90625 
L 20.21875 34.90625 
L 20.21875 43.015625 
L 29.109375 43.015625 
Q 36.375 43.015625 40.234375 45.921875 
Q 44.09375 48.828125 44.09375 54.296875 
Q 44.09375 59.90625 40.109375 62.90625 
Q 36.140625 65.921875 28.71875 65.921875 
Q 24.65625 65.921875 20.015625 65.03125 
Q 15.375 64.15625 9.8125 62.3125 
L 9.8125 71.09375 
Q 15.4375 72.65625 20.34375 73.4375 
Q 25.25 74.21875 29.59375 74.21875 
Q 40.828125 74.21875 47.359375 69.109375 
Q 53.90625 64.015625 53.90625 55.328125 
Q 53.90625 49.265625 50.4375 45.09375 
Q 46.96875 40.921875 40.578125 39.3125 
z
" id="DejaVuSans-33"/>
      </defs>
      <g transform="translate(10.8 121.05569)scale(0.1 -0.1)">
       <use xlink:href="#DejaVuSans-30"/>
       <use x="63.623047" xlink:href="#DejaVuSans-2e"/>
       <use x="95.410156" xlink:href="#DejaVuSans-33"/>
       <use x="159.033203" xlink:href="#DejaVuSans-30"/>
      </g>
     </g>
    </g>
    <g id="ytick_8">
     <g id="line2d_14">
      <g>
       <use style="stroke:#000000;stroke-width:0.8;" x="40.065625" xlink:href="#m400a6b898d" y="41.02752"/>
      </g>
     </g>
     <g id="text_15">
      <!-- 0.35 -->
      <g transform="translate(10.8 44.826739)scale(0.1 -0.1)">
       <use xlink:href="#DejaVuSans-30"/>
       <use x="63.623047" xlink:href="#DejaVuSans-2e"/>
       <use x="95.410156" xlink:href="#DejaVuSans-33"/>
       <use x="159.033203" xlink:href="#DejaVuSans-35"/>
      </g>
     </g>
    </g>
   </g>
   <g id="line2d_15">
    <path clip-path="url(#ped3a3fd0c9)" d="M 66.685369 516.534976 
L 66.93242 515.667952 
L 67.179471 516.070313 
L 67.426522 517.025433 
L 68.167675 521.084164 
L 68.414726 521.278297 
L 68.661777 520.65738 
L 69.155879 518.307864 
L 69.40293 517.75484 
L 69.649981 518.099356 
L 70.391134 521.874361 
L 70.638185 521.920685 
L 71.379338 518.270376 
L 71.87344 517.526983 
L 72.120491 516.722708 
L 72.367542 517.210391 
L 73.108695 520.600042 
L 73.355746 520.040911 
L 73.602797 519.003374 
L 73.849848 519.136024 
L 74.34395 521.727461 
L 74.591001 523.031358 
L 74.838052 523.315068 
L 75.085103 523.428694 
L 75.332154 523.969558 
L 75.579205 524.046416 
L 75.826256 523.295744 
L 76.073307 523.207013 
L 76.320358 524.03296 
L 76.81446 527.113342 
L 77.061511 527.765569 
L 77.308562 527.679162 
L 77.802664 526.742371 
L 78.296766 527.009147 
L 78.543817 527.583413 
L 79.037919 530.035192 
L 79.28497 530.580527 
L 79.532021 530.293279 
L 80.026123 527.882521 
L 80.273174 526.708335 
L 80.520225 526.125685 
L 80.767276 526.239337 
L 81.261378 527.867225 
L 81.508429 528.756045 
L 81.75548 529.22379 
L 82.002531 529.203088 
L 82.743684 527.834949 
L 82.990735 527.86744 
L 83.237786 528.293387 
L 83.978939 530.104794 
L 84.720092 530.910127 
L 85.214194 531.984353 
L 85.708296 533.560134 
L 85.955347 533.830067 
L 86.202398 533.555278 
L 86.6965 531.715458 
L 86.943551 530.806637 
L 87.190602 530.815685 
L 87.437653 530.473221 
L 87.931755 529.114447 
L 88.178806 529.127911 
L 88.425857 529.701832 
L 88.672908 529.980137 
L 89.414061 528.172086 
L 89.661112 528.329221 
L 89.908163 528.931602 
L 90.155213 528.900183 
L 90.649315 526.623387 
L 91.390468 522.40135 
L 91.637519 522.13272 
L 91.88457 522.804743 
L 92.378672 526.000637 
L 92.872774 529.166699 
L 93.119825 529.995894 
L 93.366876 530.196005 
L 93.613927 529.789372 
L 94.602131 526.114495 
L 94.849182 525.852099 
L 95.096233 526.036612 
L 95.590335 527.283764 
L 96.084437 528.337126 
L 96.331488 528.288748 
L 96.578539 527.826102 
L 97.319692 525.94215 
L 97.566743 526.054796 
L 97.813794 525.92286 
L 98.060845 526.199658 
L 98.307896 527.106346 
L 98.801998 530.069872 
L 99.049049 531.06171 
L 99.2961 531.560641 
L 99.543151 531.543328 
L 100.037253 532.453207 
L 100.531355 533.166759 
L 100.778406 533.106804 
L 101.025457 533.413647 
L 101.519559 534.819244 
L 102.013661 536.316206 
L 102.754814 535.387897 
L 103.001865 535.542203 
L 103.248916 536.100078 
L 103.743018 538.169299 
L 104.23712 540.388724 
L 104.484171 541.132337 
L 104.731222 541.474186 
L 104.978273 541.204961 
L 105.472375 539.375427 
L 105.966477 537.624067 
L 106.213528 537.419666 
L 106.460579 537.706975 
L 107.201732 539.528792 
L 107.448783 539.820066 
L 107.942885 540.061012 
L 108.189936 540.382217 
L 108.684038 542.00098 
L 109.17814 543.737126 
L 109.425191 543.921181 
L 109.672242 543.561879 
L 109.919293 542.884047 
L 110.166344 542.813617 
L 110.413395 543.177507 
L 110.660446 543.049643 
L 110.907497 542.417031 
L 111.154548 542.096578 
L 111.401599 542.255152 
L 111.64865 542.572187 
L 111.895701 542.337375 
L 112.142752 541.823006 
L 112.389803 541.724046 
L 112.636854 542.166376 
L 112.883905 542.233752 
L 113.130956 541.560643 
L 113.625058 539.144773 
L 113.872109 538.427617 
L 114.11916 538.093468 
L 114.366211 537.957596 
L 114.613262 538.356056 
L 115.354415 541.005525 
L 115.601466 541.197491 
L 115.848517 540.688868 
L 116.342619 537.847535 
L 117.083772 533.892723 
L 117.330823 533.410151 
L 117.577874 533.504834 
L 117.824925 534.066845 
L 118.566078 536.592496 
L 118.813128 537.093331 
L 119.060179 537.288952 
L 119.30723 537.148915 
L 119.554281 536.737316 
L 120.048383 535.252905 
L 120.789536 533.027467 
L 121.036587 532.816135 
L 121.283638 532.971126 
L 122.024791 534.543639 
L 122.271842 534.610157 
L 122.518893 534.070753 
L 123.012995 532.157114 
L 123.260046 531.752927 
L 123.507097 531.718879 
L 123.754148 531.807971 
L 124.24825 531.77973 
L 125.483505 532.920649 
L 126.471709 535.940627 
L 126.71876 535.826971 
L 127.459913 534.802801 
L 127.706964 535.075661 
L 127.954015 535.850708 
L 128.695168 540.035429 
L 129.18927 542.607552 
L 129.683372 544.059055 
L 129.930423 544.331821 
L 130.177474 544.334855 
L 130.671576 543.771527 
L 131.165678 543.215428 
L 131.412729 543.264723 
L 131.65978 543.668231 
L 132.153882 545.254568 
L 132.647984 546.822526 
L 132.895035 547.038309 
L 133.142086 546.788163 
L 134.13029 544.36476 
L 134.377341 544.368799 
L 134.624392 544.797694 
L 135.612596 547.433809 
L 135.859647 547.360477 
L 136.353749 546.543526 
L 136.6008 546.550122 
L 137.094902 546.769211 
L 137.341953 546.743709 
L 137.589004 547.028514 
L 138.083106 547.967922 
L 138.330157 548.210442 
L 138.577208 548.187993 
L 138.824259 548.03453 
L 139.07131 548.162359 
L 139.812463 549.191963 
L 140.059514 549.227045 
L 140.553616 548.876201 
L 141.788871 547.859918 
L 142.035922 547.871123 
L 142.282973 548.08264 
L 142.777075 549.025983 
L 143.271177 550.154241 
L 143.518228 550.501737 
L 143.765279 550.607377 
L 144.01233 550.467673 
L 144.506432 549.706404 
L 145.000534 549.078173 
L 145.247585 549.039855 
L 145.988738 549.171149 
L 146.235789 548.99831 
L 146.729891 548.163434 
L 147.223992 547.164682 
L 147.471043 546.863729 
L 147.718094 546.756467 
L 148.459247 546.812452 
L 148.953349 546.481444 
L 151.67091 543.918707 
L 151.917961 543.894426 
L 153.894369 544.881222 
L 155.623726 545.688121 
L 156.364879 545.913927 
L 156.858981 546.35208 
L 157.353083 547.225409 
L 158.835389 550.908226 
L 159.329491 551.445858 
L 160.070644 551.914225 
L 160.811797 552.357118 
L 161.058848 552.372286 
L 161.305899 552.203367 
L 161.800001 551.349545 
L 163.035256 548.760151 
L 164.02346 548.030404 
L 164.517562 547.434959 
L 164.764613 547.382788 
L 165.505766 547.911117 
L 165.999868 548.312065 
L 166.49397 549.103172 
L 167.482174 551.256716 
L 169.211531 555.433103 
L 170.446786 557.535326 
L 171.682041 559.714134 
L 172.670245 561.337935 
L 173.164347 562.199891 
L 173.9055 564.406285 
L 175.634857 569.920387 
L 176.376009 571.125294 
L 177.117162 571.933878 
L 178.105366 572.18801 
L 178.846519 572.246853 
L 179.340621 572.037411 
L 179.834723 571.769799 
L 180.328825 571.525929 
L 180.822927 571.005881 
L 181.56408 569.831986 
L 183.046386 567.521247 
L 183.540488 567.214147 
L 185.022794 567.295364 
L 185.516896 567.094625 
L 186.258049 566.457846 
L 186.999202 566.318598 
L 188.234457 566.509245 
L 188.97561 566.590949 
L 189.963814 566.056751 
L 190.704967 565.385882 
L 191.44612 564.443289 
L 191.940222 564.104384 
L 192.928426 563.669369 
L 193.422528 563.877456 
L 194.163681 564.533576 
L 194.904834 565.353683 
L 195.398936 565.468859 
L 195.893038 565.270388 
L 196.881242 564.527224 
L 197.375344 564.559577 
L 198.116497 564.905297 
L 198.85765 565.271288 
L 199.351752 565.43128 
L 200.834058 565.404974 
L 201.822262 565.508177 
L 202.810466 565.535061 
L 204.292772 566.076448 
L 206.51623 566.75378 
L 207.010332 566.531168 
L 207.504434 566.381793 
L 209.233791 566.57823 
L 210.716097 566.545541 
L 211.210199 566.525349 
L 211.951352 566.225421 
L 213.680709 565.229489 
L 214.174811 565.43612 
L 214.915964 565.886939 
L 215.657117 566.255697 
L 217.633525 568.118387 
L 219.362882 569.149145 
L 219.856984 569.503384 
L 220.845188 569.716929 
L 222.821596 569.74855 
L 223.315698 569.764232 
L 224.550953 569.527748 
L 225.292106 569.661948 
L 226.033259 569.877467 
L 226.527361 569.766425 
L 227.515565 569.348372 
L 229.739024 569.062699 
L 230.480177 569.122801 
L 231.22133 568.81472 
L 232.209534 568.452208 
L 234.680043 568.792796 
L 235.421196 568.93703 
L 235.915298 568.792325 
L 236.4094 568.384552 
L 237.150553 567.111988 
L 238.385808 564.865219 
L 238.87991 564.408982 
L 239.126961 564.351335 
L 240.609267 564.801998 
L 241.103369 564.591389 
L 242.091573 563.872131 
L 242.832726 563.420087 
L 243.326828 563.488466 
L 244.809134 564.28143 
L 245.303236 564.190728 
L 245.797338 563.968743 
L 247.032593 562.920002 
L 247.773746 562.898419 
L 248.267848 563.09584 
L 248.76195 563.615141 
L 250.491307 566.4396 
L 250.985409 566.770261 
L 251.726562 566.666176 
L 252.220664 566.598388 
L 253.455919 566.838783 
L 255.185276 567.834272 
L 255.432327 567.804518 
L 255.926429 567.318638 
L 256.667582 566.499589 
L 257.161684 566.36389 
L 257.655786 566.567933 
L 258.149888 566.980571 
L 258.891041 567.87187 
L 259.138092 567.996461 
L 259.385143 567.975595 
L 260.373347 567.339191 
L 260.867449 567.420313 
L 261.361551 567.465529 
L 261.855652 567.523707 
L 263.585009 568.299434 
L 264.079111 568.615487 
L 264.573213 568.600611 
L 265.067315 568.59934 
L 265.808468 568.614783 
L 266.796672 568.098389 
L 267.290774 568.160431 
L 267.784876 567.884026 
L 268.278978 567.962978 
L 269.514233 568.923529 
L 270.749488 569.012573 
L 271.24359 568.854367 
L 271.490641 568.869263 
L 271.984743 569.123505 
L 272.231794 569.05311 
L 272.478845 568.7387 
L 272.972947 567.420139 
L 273.7141 564.984819 
L 273.961151 564.589917 
L 274.208202 564.449734 
L 274.455253 564.5434 
L 274.702304 564.371155 
L 274.949355 563.875235 
L 275.443457 561.8434 
L 276.18461 556.509515 
L 277.172814 548.82566 
L 277.913967 544.832262 
L 278.161018 544.088771 
L 278.408069 543.813393 
L 278.65512 543.87804 
L 278.902171 543.17282 
L 279.149222 541.471853 
L 279.643324 534.725665 
L 281.12563 505.766387 
L 281.372681 503.765663 
L 281.619732 503.329046 
L 281.866783 502.314572 
L 282.113834 500.062772 
L 282.607936 492.408149 
L 283.349089 476.020629 
L 284.584344 446.876388 
L 285.078446 439.503076 
L 285.572548 435.919995 
L 285.819599 435.288587 
L 286.807803 434.038421 
L 287.054854 434.079768 
L 287.301905 434.45578 
L 287.548956 434.178476 
L 287.796007 432.752153 
L 288.043058 429.736722 
L 288.53716 417.747894 
L 289.031262 398.465964 
L 290.760618 313.183923 
L 291.25472 290.825787 
L 291.748822 277.63868 
L 291.995873 275.695866 
L 292.242924 277.015303 
L 293.231128 292.089952 
L 293.478179 292.094235 
L 293.72523 290.084702 
L 294.466383 276.192731 
L 294.960485 263.416766 
L 295.701638 234.532442 
L 298.66625 101.756842 
L 299.160352 93.336733 
L 300.395607 88.95436 
L 300.642658 89.404275 
L 300.889709 90.846938 
L 302.124964 100.908156 
L 302.619066 102.303254 
L 303.360219 103.767172 
L 303.60727 103.934367 
L 303.854321 103.454825 
L 304.101372 102.006069 
L 304.348423 99.399452 
L 304.842525 90.76801 
L 305.089576 86.241708 
L 305.336627 84.371963 
L 305.583678 84.649517 
L 305.830729 86.590858 
L 306.324831 94.488555 
L 306.818933 105.105981 
L 307.313035 121.212403 
L 308.054188 157.246064 
L 310.277647 274.93172 
L 310.771749 293.745181 
L 311.265851 304.604543 
L 311.512902 306.771609 
L 311.759953 306.928487 
L 312.007004 306.925818 
L 312.254055 308.880614 
L 312.748157 317.536886 
L 313.242259 331.371826 
L 313.983412 359.873912 
L 316.453922 469.130156 
L 317.195075 489.130289 
L 317.689177 496.43974 
L 317.936228 498.373883 
L 318.183279 499.390848 
L 318.43033 499.642521 
L 318.67738 499.563594 
L 318.924431 500.275574 
L 319.418533 503.598706 
L 319.912635 508.761921 
L 320.900839 522.914924 
L 321.889043 535.870794 
L 322.630196 542.624041 
L 323.371349 547.61764 
L 323.865451 549.436868 
L 324.112502 549.731668 
L 324.359553 549.631835 
L 324.606604 549.185 
L 325.100706 547.631947 
L 325.841859 545.059266 
L 326.335961 543.884438 
L 326.830063 543.229127 
L 327.324165 542.932481 
L 328.312369 542.710924 
L 328.55942 542.845441 
L 329.053522 543.52492 
L 330.782879 546.466362 
L 331.276981 546.848529 
L 331.771083 546.813245 
L 332.265185 546.509073 
L 332.759287 545.885325 
L 333.747491 544.359743 
L 333.994542 544.241609 
L 334.488644 544.344158 
L 335.723899 545.106464 
L 336.218001 545.426302 
L 336.712103 546.02928 
L 339.182613 550.256247 
L 340.417868 552.84881 
L 340.91197 553.507532 
L 341.653123 553.849987 
L 342.147225 554.165541 
L 342.888378 554.656482 
L 343.135429 554.697166 
L 343.38248 554.612224 
L 343.876582 554.142839 
L 344.370684 553.325152 
L 345.111837 552.093872 
L 345.358888 551.990685 
L 345.85299 552.258936 
L 346.347092 552.561815 
L 346.841194 552.592023 
L 348.076448 552.51837 
L 348.817601 553.15497 
L 349.805805 554.010664 
L 350.794009 554.683396 
L 352.029264 555.960198 
L 352.770417 556.688094 
L 353.51157 557.401742 
L 354.252723 557.780538 
L 354.499774 557.795258 
L 354.993876 557.428307 
L 355.735029 556.806332 
L 356.229131 556.744897 
L 356.723233 556.997748 
L 357.464386 557.595974 
L 357.958488 557.486319 
L 358.946692 556.602857 
L 360.181947 556.15816 
L 360.9231 554.871894 
L 361.417202 554.111144 
L 361.911304 553.723404 
L 362.158355 553.691959 
L 362.405406 553.797181 
L 362.899508 554.367356 
L 364.628865 557.016217 
L 365.122967 557.309387 
L 366.358222 557.133957 
L 366.852324 556.970284 
L 367.346426 557.161167 
L 368.33463 557.825637 
L 369.075783 558.224587 
L 369.569885 558.635664 
L 370.558089 559.842458 
L 371.299242 560.807783 
L 371.793344 561.175744 
L 372.534497 561.365717 
L 373.028599 561.868251 
L 374.263854 563.565356 
L 374.510905 563.66183 
L 375.005007 563.456337 
L 375.499109 562.893672 
L 376.734363 561.008527 
L 377.228465 560.657367 
L 377.475516 560.650227 
L 378.46372 561.025167 
L 378.957822 561.017628 
L 379.451924 560.784864 
L 379.946026 560.225252 
L 380.687179 559.250319 
L 381.428332 558.832222 
L 383.157689 557.937708 
L 384.887046 558.042157 
L 385.381148 557.949375 
L 385.87525 557.520937 
L 386.369352 556.728841 
L 388.098709 553.377719 
L 388.592811 552.855207 
L 389.086913 552.456808 
L 389.581015 551.759129 
L 390.81627 549.515715 
L 391.310372 549.093515 
L 391.557423 549.036156 
L 392.051525 549.280783 
L 392.545627 549.952569 
L 393.28678 551.114378 
L 394.027933 551.648992 
L 394.769086 552.089271 
L 395.510239 552.787099 
L 397.239596 554.876353 
L 398.474851 556.995828 
L 398.968953 558.342716 
L 400.69831 564.036079 
L 401.439463 565.032442 
L 401.933565 565.682084 
L 403.662922 568.533036 
L 404.157024 568.901361 
L 404.651125 568.746729 
L 405.145227 568.202524 
L 405.639329 567.513994 
L 406.133431 567.235761 
L 407.368686 567.370513 
L 407.862788 566.996008 
L 408.603941 565.956374 
L 409.098043 565.213397 
L 410.333298 563.99462 
L 412.062655 563.165132 
L 412.556757 562.98662 
L 413.050859 563.164445 
L 414.533165 564.30975 
L 415.027267 564.186822 
L 416.262522 563.70139 
L 416.509573 563.664287 
L 417.003675 563.908776 
L 417.497777 564.41682 
L 418.23893 565.231955 
L 419.227134 565.983492 
L 419.968287 566.233279 
L 420.462389 566.412551 
L 420.956491 566.851839 
L 422.191746 568.298344 
L 423.674052 569.470432 
L 424.415205 569.678996 
L 424.909307 569.645037 
L 425.403409 569.442848 
L 425.897511 568.992118 
L 427.132766 567.4507 
L 427.379817 567.386229 
L 429.603276 567.926767 
L 430.838531 567.707959 
L 431.332633 567.553333 
L 431.826735 567.775627 
L 433.061989 568.628286 
L 433.556091 568.545841 
L 434.050193 568.036728 
L 435.038397 566.223667 
L 435.77955 565.030108 
L 436.273652 564.718388 
L 436.767754 564.748637 
L 437.755958 565.157972 
L 439.485315 566.52244 
L 439.979417 566.345746 
L 440.473519 566.110369 
L 441.955825 565.899508 
L 443.19108 566.304545 
L 443.685182 566.03719 
L 444.426335 565.514131 
L 444.920437 565.398803 
L 445.414539 565.557594 
L 446.155692 566.206456 
L 446.649794 567.004756 
L 447.637998 568.86996 
L 448.1321 569.384867 
L 448.873253 569.741112 
L 450.108508 569.759942 
L 450.849661 569.54424 
L 452.826069 568.820855 
L 453.320171 568.921795 
L 453.567222 568.707455 
L 453.814273 568.080409 
L 454.308375 565.423614 
L 455.54363 555.758639 
L 455.790681 555.31927 
L 456.037732 555.365625 
L 456.284783 554.487315 
L 456.778885 550.234161 
L 457.520038 540.149429 
L 459.249395 514.707908 
L 459.743497 510.636124 
L 459.990548 510.452244 
L 460.237599 509.072822 
L 460.48465 505.572047 
L 460.978752 491.638033 
L 461.966955 453.842051 
L 462.214006 448.424664 
L 462.461057 446.134707 
L 462.708108 445.303375 
L 462.955159 441.804339 
L 463.449261 429.442224 
L 464.437465 397.073245 
L 465.919771 343.581908 
L 466.166822 340.277373 
L 466.413873 340.94947 
L 466.660924 339.272641 
L 466.907975 334.804921 
L 467.402077 320.288189 
L 468.390281 282.191107 
L 469.131434 249.098565 
L 470.860791 160.437752 
L 471.107842 155.52677 
L 471.354893 153.112455 
L 471.601944 152.708608 
L 471.848995 153.643611 
L 472.096046 155.180498 
L 472.837199 152.301504 
L 473.331301 152.170895 
L 473.578352 151.545168 
L 473.825403 149.356295 
L 474.072454 144.640286 
L 474.566556 125.441231 
L 475.307709 84.87566 
L 475.801811 71.634623 
L 477.531168 41.419577 
L 477.778219 40.87017 
L 478.519372 43.41043 
L 478.766423 41.649389 
L 479.013474 43.475169 
L 479.260525 48.901524 
L 479.754627 66.769503 
L 480.49578 95.148776 
L 481.483984 125.617199 
L 482.96629 185.419635 
L 483.213341 188.938486 
L 483.460392 189.820408 
L 483.707443 188.527829 
L 484.201545 181.114035 
L 484.695647 171.300801 
L 485.189749 166.225026 
L 485.4368 165.696226 
L 485.683851 167.082668 
L 485.930902 170.892614 
L 486.425004 186.676872 
L 490.377819 366.282091 
L 490.62487 371.468129 
L 490.871921 374.237828 
L 491.118972 375.206658 
L 491.366023 375.109504 
L 492.354227 373.074968 
L 492.601278 374.055888 
L 493.09538 379.093009 
L 493.836533 387.597886 
L 494.330635 392.447191 
L 494.824737 400.935894 
L 495.56589 423.055898 
L 496.059992 436.64617 
L 496.554094 444.643736 
L 497.295247 452.991871 
L 497.789349 462.411234 
L 498.777553 484.371264 
L 499.271655 492.063914 
L 499.765757 497.474053 
L 500.259859 501.193421 
L 501.495114 507.446932 
L 501.742165 508.343402 
L 501.989216 508.251242 
L 502.483318 507.555033 
L 502.730369 507.215381 
L 503.224471 504.830466 
L 503.718573 502.870749 
L 503.965624 502.987391 
L 504.212675 503.945805 
L 504.459726 504.338351 
L 504.706777 503.532274 
L 505.200879 500.868671 
L 505.44793 500.590896 
L 505.694981 501.843799 
L 506.189083 506.359067 
L 507.177287 517.985814 
L 507.424338 517.941205 
L 507.91844 514.354246 
L 508.165491 512.539414 
L 508.412542 511.834488 
L 508.659593 512.687302 
L 509.400746 519.772193 
L 510.141899 523.814835 
L 510.38895 524.126695 
L 510.636001 523.390416 
L 511.624205 517.790009 
L 511.871256 517.606579 
L 512.118307 518.225337 
L 512.365358 519.19678 
L 512.85946 521.817046 
L 513.106511 522.227538 
L 513.353562 521.583178 
L 513.600613 519.893362 
L 514.094715 515.497735 
L 514.341766 515.056808 
L 514.588817 515.596292 
L 514.835868 515.680828 
L 515.082919 515.427735 
L 515.32997 516.366661 
L 515.824072 519.911194 
L 516.071123 520.253215 
L 516.318174 519.288381 
L 516.812276 515.374658 
L 517.059327 514.918458 
L 517.306378 515.38873 
L 517.80048 516.945145 
L 518.047531 516.887233 
L 518.541633 517.852938 
L 518.788683 518.031652 
L 519.035734 517.649902 
L 519.282785 516.597624 
L 519.529836 516.097797 
L 519.776887 516.446101 
L 520.023938 517.613606 
L 521.012142 523.822334 
L 521.259193 523.687881 
L 521.506244 523.7218 
L 521.753295 524.320893 
L 522.247397 525.870683 
L 522.494448 525.552975 
L 522.741499 525.574365 
L 522.98855 526.378803 
L 523.482652 529.803014 
L 523.729703 530.435001 
L 523.976754 529.780791 
L 524.964958 523.528046 
L 525.45906 525.162615 
L 525.706111 526.806476 
L 526.200213 531.742169 
L 526.447264 532.56455 
L 526.694315 531.723905 
L 527.188417 527.751301 
L 527.435468 526.821276 
L 527.682519 526.467356 
L 527.92957 526.386806 
L 528.176621 527.34507 
L 528.917774 532.736994 
L 529.164825 533.521286 
L 529.411876 533.441776 
L 529.905978 531.698376 
L 530.153029 530.758388 
L 530.647131 530.206329 
L 530.894182 530.406715 
L 531.882386 532.075949 
L 532.376488 532.2916 
L 533.364692 532.530958 
L 533.858794 533.1897 
L 534.105845 533.206674 
L 534.599947 532.688928 
L 534.846998 532.934766 
L 535.094049 533.476721 
L 535.3411 533.734795 
L 535.835202 533.027442 
L 536.082253 533.335447 
L 536.823406 536.31949 
L 537.070457 536.456673 
L 537.317508 535.60434 
L 537.81161 532.922247 
L 538.552763 531.139158 
L 538.799814 531.855437 
L 539.293916 534.262585 
L 539.540967 534.695233 
L 539.788018 534.112776 
L 540.776222 528.020946 
L 541.023273 527.862597 
L 541.270324 528.518945 
L 541.764426 530.688491 
L 542.011477 531.236794 
L 542.258528 531.030549 
L 542.75263 528.953943 
L 542.999681 527.861353 
L 543.246732 527.288074 
L 544.234936 528.067932 
L 544.729038 529.145726 
L 544.976089 528.962773 
L 545.22314 528.291433 
L 545.964293 525.498457 
L 546.211344 525.059649 
L 546.705446 525.403319 
L 546.952497 525.103832 
L 547.693649 522.53125 
L 547.9407 522.26981 
L 548.187751 522.508294 
L 548.681853 524.185181 
L 549.423006 526.973762 
L 549.670057 527.344269 
L 549.917108 527.413077 
L 550.164159 527.301892 
L 550.658261 526.534163 
L 551.152363 525.647764 
L 551.399414 525.477566 
L 551.646465 525.646974 
L 552.140567 526.765944 
L 552.387618 527.328586 
L 552.634669 527.614272 
L 552.88172 527.461082 
L 553.128771 526.766717 
L 554.116975 522.370081 
L 554.364026 522.296327 
L 554.611077 522.829424 
L 555.35223 525.487621 
L 555.599281 525.63017 
L 556.093383 524.77821 
L 556.587485 524.037122 
L 556.834536 523.343892 
L 557.081587 522.981951 
L 557.328638 523.284697 
L 557.82274 524.724717 
L 558.316842 525.441955 
L 559.305046 525.914842 
L 559.799148 527.05825 
L 560.29325 528.558073 
L 560.540301 528.274863 
L 561.034403 525.918843 
L 561.281454 524.667459 
L 561.528505 524.028281 
L 561.775556 524.165766 
L 562.269658 526.147468 
L 562.76376 527.813294 
L 563.010811 527.863704 
L 563.257862 527.400602 
L 563.751964 526.07155 
L 563.999015 525.725665 
L 564.246066 525.783715 
L 564.740168 526.741727 
L 565.481321 528.137023 
L 566.222474 529.317141 
L 566.716576 530.163502 
L 566.963627 530.37376 
L 567.210678 530.275045 
L 567.70478 529.436445 
L 568.198882 528.672519 
L 568.445933 528.675412 
L 569.187086 529.711309 
L 569.434137 529.707053 
L 569.681188 529.232168 
L 570.17529 527.879269 
L 570.422341 527.639123 
L 570.669392 527.663032 
L 571.163494 527.991256 
L 571.410545 528.066402 
L 572.151698 529.25659 
L 572.398749 529.241005 
L 572.6458 529.502559 
L 573.139902 531.260734 
L 573.634004 532.910034 
L 573.881055 533.211354 
L 574.622208 533.381357 
L 574.869259 533.812734 
L 575.857462 536.847955 
L 576.104513 537.02656 
L 576.845666 536.516977 
L 577.092717 536.707691 
L 577.586819 538.064687 
L 578.080921 539.284909 
L 578.327972 539.312253 
L 578.575023 538.866995 
L 579.563227 535.91984 
L 579.810278 535.953349 
L 580.551431 537.084297 
L 580.798482 537.162339 
L 581.045533 536.919792 
L 581.786686 535.776012 
L 582.033737 535.775528 
L 582.280788 536.098065 
L 583.021941 537.677931 
L 583.268992 537.821846 
L 583.516043 537.679327 
L 584.010145 536.92979 
L 585.492451 533.857493 
L 585.739502 534.049984 
L 586.233604 535.229532 
L 586.480655 535.537337 
L 586.727706 535.589866 
L 587.221808 535.372219 
L 587.468859 535.437421 
L 587.71591 535.824127 
L 588.210012 537.673478 
L 588.951165 540.854556 
L 589.198216 541.253158 
L 589.445267 541.209038 
L 590.433471 539.651325 
L 590.680522 539.923562 
L 591.174624 541.542613 
L 591.668726 543.278442 
L 591.915777 543.664769 
L 592.162828 543.556916 
L 593.398083 541.355104 
L 593.892185 541.532527 
L 594.386287 541.612496 
L 594.633338 541.356062 
L 595.12744 540.176324 
L 595.868593 538.120884 
L 596.115644 537.734487 
L 596.362695 537.609286 
L 596.609746 537.719798 
L 596.856797 538.03929 
L 598.092052 540.446317 
L 598.339103 540.410599 
L 598.586154 540.560691 
L 599.080256 541.21036 
L 599.080256 541.21036 
" style="fill:none;stroke:#1f77b4;stroke-linecap:square;stroke-width:1.5;"/>
   </g>
   <g id="patch_3">
    <path d="M 40.065625 598.84375 
L 40.065625 14.3 
" style="fill:none;stroke:#000000;stroke-linecap:square;stroke-linejoin:miter;stroke-width:0.8;"/>
   </g>
   <g id="patch_4">
    <path d="M 625.7 598.84375 
L 625.7 14.3 
" style="fill:none;stroke:#000000;stroke-linecap:square;stroke-linejoin:miter;stroke-width:0.8;"/>
   </g>
   <g id="patch_5">
    <path d="M 40.065625 598.84375 
L 625.7 598.84375 
" style="fill:none;stroke:#000000;stroke-linecap:square;stroke-linejoin:miter;stroke-width:0.8;"/>
   </g>
   <g id="patch_6">
    <path d="M 40.065625 14.3 
L 625.7 14.3 
" style="fill:none;stroke:#000000;stroke-linecap:square;stroke-linejoin:miter;stroke-width:0.8;"/>
   </g>
  </g>
 </g>
 <defs>
  <clipPath id="ped3a3fd0c9">
   <rect height="584.54375" width="585.634375" x="40.065625" y="14.3"/>
  </clipPath>
 </defs>
</svg>
