<?xml version="1.0" encoding="utf-8" standalone="no"?>
<!DOCTYPE svg PUBLIC "-//W3C//DTD SVG 1.1//EN"
  "http://www.w3.org/Graphics/SVG/1.1/DTD/svg11.dtd">
<!-- Created with matplotlib (http://matplotlib.org/) -->
<svg height="640pt" version="1.1" viewBox="0 0 640 640" width="640pt" xmlns="http://www.w3.org/2000/svg" xmlns:xlink="http://www.w3.org/1999/xlink">
 <defs>
  <style type="text/css">
*{stroke-linecap:butt;stroke-linejoin:round;}
  </style>
 </defs>
 <g id="figure_1">
  <g id="patch_1">
   <path d="M 0 640 
L 640 640 
L 640 0 
L 0 0 
z
" style="fill:#ffffff;"/>
  </g>
  <g id="axes_1">
   <g id="patch_2">
    <path d="M 42.082813 297.921875 
L 625.7 297.921875 
L 625.7 14.3 
L 42.082813 14.3 
z
" style="fill:#ffffff;"/>
   </g>
   <g id="matplotlib.axis_1">
    <g id="xtick_1">
     <g id="line2d_1">
      <defs>
       <path d="M 0 0 
L 0 3.5 
" id="me7df3dc1d4" style="stroke:#000000;stroke-width:0.8;"/>
      </defs>
      <g>
       <use style="stroke:#000000;stroke-width:0.8;" x="68.610866" xlink:href="#me7df3dc1d4" y="297.921875"/>
      </g>
     </g>
     <g id="text_1">
      <!-- 0 -->
      <defs>
       <path d="M 31.78125 66.40625 
Q 24.171875 66.40625 20.328125 58.90625 
Q 16.5 51.421875 16.5 36.375 
Q 16.5 21.390625 20.328125 13.890625 
Q 24.171875 6.390625 31.78125 6.390625 
Q 39.453125 6.390625 43.28125 13.890625 
Q 47.125 21.390625 47.125 36.375 
Q 47.125 51.421875 43.28125 58.90625 
Q 39.453125 66.40625 31.78125 66.40625 
z
M 31.78125 74.21875 
Q 44.046875 74.21875 50.515625 64.515625 
Q 56.984375 54.828125 56.984375 36.375 
Q 56.984375 17.96875 50.515625 8.265625 
Q 44.046875 -1.421875 31.78125 -1.421875 
Q 19.53125 -1.421875 13.0625 8.265625 
Q 6.59375 17.96875 6.59375 36.375 
Q 6.59375 54.828125 13.0625 64.515625 
Q 19.53125 74.21875 31.78125 74.21875 
z
" id="DejaVuSans-30"/>
      </defs>
      <g transform="translate(65.429616 312.520312)scale(0.1 -0.1)">
       <use xlink:href="#DejaVuSans-30"/>
      </g>
     </g>
    </g>
    <g id="xtick_2">
     <g id="line2d_2">
      <g>
       <use style="stroke:#000000;stroke-width:0.8;" x="174.829301" xlink:href="#me7df3dc1d4" y="297.921875"/>
      </g>
     </g>
     <g id="text_2">
      <!-- 200 -->
      <defs>
       <path d="M 19.1875 8.296875 
L 53.609375 8.296875 
L 53.609375 0 
L 7.328125 0 
L 7.328125 8.296875 
Q 12.9375 14.109375 22.625 23.890625 
Q 32.328125 33.6875 34.8125 36.53125 
Q 39.546875 41.84375 41.421875 45.53125 
Q 43.3125 49.21875 43.3125 52.78125 
Q 43.3125 58.59375 39.234375 62.25 
Q 35.15625 65.921875 28.609375 65.921875 
Q 23.96875 65.921875 18.8125 64.3125 
Q 13.671875 62.703125 7.8125 59.421875 
L 7.8125 69.390625 
Q 13.765625 71.78125 18.9375 73 
Q 24.125 74.21875 28.421875 74.21875 
Q 39.75 74.21875 46.484375 68.546875 
Q 53.21875 62.890625 53.21875 53.421875 
Q 53.21875 48.921875 51.53125 44.890625 
Q 49.859375 40.875 45.40625 35.40625 
Q 44.1875 33.984375 37.640625 27.21875 
Q 31.109375 20.453125 19.1875 8.296875 
z
" id="DejaVuSans-32"/>
      </defs>
      <g transform="translate(165.285551 312.520312)scale(0.1 -0.1)">
       <use xlink:href="#DejaVuSans-32"/>
       <use x="63.623047" xlink:href="#DejaVuSans-30"/>
       <use x="127.246094" xlink:href="#DejaVuSans-30"/>
      </g>
     </g>
    </g>
    <g id="xtick_3">
     <g id="line2d_3">
      <g>
       <use style="stroke:#000000;stroke-width:0.8;" x="281.047735" xlink:href="#me7df3dc1d4" y="297.921875"/>
      </g>
     </g>
     <g id="text_3">
      <!-- 400 -->
      <defs>
       <path d="M 37.796875 64.3125 
L 12.890625 25.390625 
L 37.796875 25.390625 
z
M 35.203125 72.90625 
L 47.609375 72.90625 
L 47.609375 25.390625 
L 58.015625 25.390625 
L 58.015625 17.1875 
L 47.609375 17.1875 
L 47.609375 0 
L 37.796875 0 
L 37.796875 17.1875 
L 4.890625 17.1875 
L 4.890625 26.703125 
z
" id="DejaVuSans-34"/>
      </defs>
      <g transform="translate(271.503985 312.520312)scale(0.1 -0.1)">
       <use xlink:href="#DejaVuSans-34"/>
       <use x="63.623047" xlink:href="#DejaVuSans-30"/>
       <use x="127.246094" xlink:href="#DejaVuSans-30"/>
      </g>
     </g>
    </g>
    <g id="xtick_4">
     <g id="line2d_4">
      <g>
       <use style="stroke:#000000;stroke-width:0.8;" x="387.26617" xlink:href="#me7df3dc1d4" y="297.921875"/>
      </g>
     </g>
     <g id="text_4">
      <!-- 600 -->
      <defs>
       <path d="M 33.015625 40.375 
Q 26.375 40.375 22.484375 35.828125 
Q 18.609375 31.296875 18.609375 23.390625 
Q 18.609375 15.53125 22.484375 10.953125 
Q 26.375 6.390625 33.015625 6.390625 
Q 39.65625 6.390625 43.53125 10.953125 
Q 47.40625 15.53125 47.40625 23.390625 
Q 47.40625 31.296875 43.53125 35.828125 
Q 39.65625 40.375 33.015625 40.375 
z
M 52.59375 71.296875 
L 52.59375 62.3125 
Q 48.875 64.0625 45.09375 64.984375 
Q 41.3125 65.921875 37.59375 65.921875 
Q 27.828125 65.921875 22.671875 59.328125 
Q 17.53125 52.734375 16.796875 39.40625 
Q 19.671875 43.65625 24.015625 45.921875 
Q 28.375 48.1875 33.59375 48.1875 
Q 44.578125 48.1875 50.953125 41.515625 
Q 57.328125 34.859375 57.328125 23.390625 
Q 57.328125 12.15625 50.6875 5.359375 
Q 44.046875 -1.421875 33.015625 -1.421875 
Q 20.359375 -1.421875 13.671875 8.265625 
Q 6.984375 17.96875 6.984375 36.375 
Q 6.984375 53.65625 15.1875 63.9375 
Q 23.390625 74.21875 37.203125 74.21875 
Q 40.921875 74.21875 44.703125 73.484375 
Q 48.484375 72.75 52.59375 71.296875 
z
" id="DejaVuSans-36"/>
      </defs>
      <g transform="translate(377.72242 312.520312)scale(0.1 -0.1)">
       <use xlink:href="#DejaVuSans-36"/>
       <use x="63.623047" xlink:href="#DejaVuSans-30"/>
       <use x="127.246094" xlink:href="#DejaVuSans-30"/>
      </g>
     </g>
    </g>
    <g id="xtick_5">
     <g id="line2d_5">
      <g>
       <use style="stroke:#000000;stroke-width:0.8;" x="493.484604" xlink:href="#me7df3dc1d4" y="297.921875"/>
      </g>
     </g>
     <g id="text_5">
      <!-- 800 -->
      <defs>
       <path d="M 31.78125 34.625 
Q 24.75 34.625 20.71875 30.859375 
Q 16.703125 27.09375 16.703125 20.515625 
Q 16.703125 13.921875 20.71875 10.15625 
Q 24.75 6.390625 31.78125 6.390625 
Q 38.8125 6.390625 42.859375 10.171875 
Q 46.921875 13.96875 46.921875 20.515625 
Q 46.921875 27.09375 42.890625 30.859375 
Q 38.875 34.625 31.78125 34.625 
z
M 21.921875 38.8125 
Q 15.578125 40.375 12.03125 44.71875 
Q 8.5 49.078125 8.5 55.328125 
Q 8.5 64.0625 14.71875 69.140625 
Q 20.953125 74.21875 31.78125 74.21875 
Q 42.671875 74.21875 48.875 69.140625 
Q 55.078125 64.0625 55.078125 55.328125 
Q 55.078125 49.078125 51.53125 44.71875 
Q 48 40.375 41.703125 38.8125 
Q 48.828125 37.15625 52.796875 32.3125 
Q 56.78125 27.484375 56.78125 20.515625 
Q 56.78125 9.90625 50.3125 4.234375 
Q 43.84375 -1.421875 31.78125 -1.421875 
Q 19.734375 -1.421875 13.25 4.234375 
Q 6.78125 9.90625 6.78125 20.515625 
Q 6.78125 27.484375 10.78125 32.3125 
Q 14.796875 37.15625 21.921875 38.8125 
z
M 18.3125 54.390625 
Q 18.3125 48.734375 21.84375 45.5625 
Q 25.390625 42.390625 31.78125 42.390625 
Q 38.140625 42.390625 41.71875 45.5625 
Q 45.3125 48.734375 45.3125 54.390625 
Q 45.3125 60.0625 41.71875 63.234375 
Q 38.140625 66.40625 31.78125 66.40625 
Q 25.390625 66.40625 21.84375 63.234375 
Q 18.3125 60.0625 18.3125 54.390625 
z
" id="DejaVuSans-38"/>
      </defs>
      <g transform="translate(483.940854 312.520312)scale(0.1 -0.1)">
       <use xlink:href="#DejaVuSans-38"/>
       <use x="63.623047" xlink:href="#DejaVuSans-30"/>
       <use x="127.246094" xlink:href="#DejaVuSans-30"/>
      </g>
     </g>
    </g>
    <g id="xtick_6">
     <g id="line2d_6">
      <g>
       <use style="stroke:#000000;stroke-width:0.8;" x="599.703038" xlink:href="#me7df3dc1d4" y="297.921875"/>
      </g>
     </g>
     <g id="text_6">
      <!-- 1000 -->
      <defs>
       <path d="M 12.40625 8.296875 
L 28.515625 8.296875 
L 28.515625 63.921875 
L 10.984375 60.40625 
L 10.984375 69.390625 
L 28.421875 72.90625 
L 38.28125 72.90625 
L 38.28125 8.296875 
L 54.390625 8.296875 
L 54.390625 0 
L 12.40625 0 
z
" id="DejaVuSans-31"/>
      </defs>
      <g transform="translate(586.978038 312.520312)scale(0.1 -0.1)">
       <use xlink:href="#DejaVuSans-31"/>
       <use x="63.623047" xlink:href="#DejaVuSans-30"/>
       <use x="127.246094" xlink:href="#DejaVuSans-30"/>
       <use x="190.869141" xlink:href="#DejaVuSans-30"/>
      </g>
     </g>
    </g>
   </g>
   <g id="matplotlib.axis_2">
    <g id="ytick_1">
     <g id="line2d_7">
      <defs>
       <path d="M 0 0 
L -3.5 0 
" id="m1978534ded" style="stroke:#000000;stroke-width:0.8;"/>
      </defs>
      <g>
       <use style="stroke:#000000;stroke-width:0.8;" x="42.082813" xlink:href="#m1978534ded" y="281.011127"/>
      </g>
     </g>
     <g id="text_7">
      <!-- 200 -->
      <g transform="translate(15.995313 284.810346)scale(0.1 -0.1)">
       <use xlink:href="#DejaVuSans-32"/>
       <use x="63.623047" xlink:href="#DejaVuSans-30"/>
       <use x="127.246094" xlink:href="#DejaVuSans-30"/>
      </g>
     </g>
    </g>
    <g id="ytick_2">
     <g id="line2d_8">
      <g>
       <use style="stroke:#000000;stroke-width:0.8;" x="42.082813" xlink:href="#m1978534ded" y="230.459601"/>
      </g>
     </g>
     <g id="text_8">
      <!-- 300 -->
      <defs>
       <path d="M 40.578125 39.3125 
Q 47.65625 37.796875 51.625 33 
Q 55.609375 28.21875 55.609375 21.1875 
Q 55.609375 10.40625 48.1875 4.484375 
Q 40.765625 -1.421875 27.09375 -1.421875 
Q 22.515625 -1.421875 17.65625 -0.515625 
Q 12.796875 0.390625 7.625 2.203125 
L 7.625 11.71875 
Q 11.71875 9.328125 16.59375 8.109375 
Q 21.484375 6.890625 26.8125 6.890625 
Q 36.078125 6.890625 40.9375 10.546875 
Q 45.796875 14.203125 45.796875 21.1875 
Q 45.796875 27.640625 41.28125 31.265625 
Q 36.765625 34.90625 28.71875 34.90625 
L 20.21875 34.90625 
L 20.21875 43.015625 
L 29.109375 43.015625 
Q 36.375 43.015625 40.234375 45.921875 
Q 44.09375 48.828125 44.09375 54.296875 
Q 44.09375 59.90625 40.109375 62.90625 
Q 36.140625 65.921875 28.71875 65.921875 
Q 24.65625 65.921875 20.015625 65.03125 
Q 15.375 64.15625 9.8125 62.3125 
L 9.8125 71.09375 
Q 15.4375 72.65625 20.34375 73.4375 
Q 25.25 74.21875 29.59375 74.21875 
Q 40.828125 74.21875 47.359375 69.109375 
Q 53.90625 64.015625 53.90625 55.328125 
Q 53.90625 49.265625 50.4375 45.09375 
Q 46.96875 40.921875 40.578125 39.3125 
z
" id="DejaVuSans-33"/>
      </defs>
      <g transform="translate(15.995313 234.258819)scale(0.1 -0.1)">
       <use xlink:href="#DejaVuSans-33"/>
       <use x="63.623047" xlink:href="#DejaVuSans-30"/>
       <use x="127.246094" xlink:href="#DejaVuSans-30"/>
      </g>
     </g>
    </g>
    <g id="ytick_3">
     <g id="line2d_9">
      <g>
       <use style="stroke:#000000;stroke-width:0.8;" x="42.082813" xlink:href="#m1978534ded" y="179.908074"/>
      </g>
     </g>
     <g id="text_9">
      <!-- 400 -->
      <g transform="translate(15.995313 183.707293)scale(0.1 -0.1)">
       <use xlink:href="#DejaVuSans-34"/>
       <use x="63.623047" xlink:href="#DejaVuSans-30"/>
       <use x="127.246094" xlink:href="#DejaVuSans-30"/>
      </g>
     </g>
    </g>
    <g id="ytick_4">
     <g id="line2d_10">
      <g>
       <use style="stroke:#000000;stroke-width:0.8;" x="42.082813" xlink:href="#m1978534ded" y="129.356548"/>
      </g>
     </g>
     <g id="text_10">
      <!-- 500 -->
      <defs>
       <path d="M 10.796875 72.90625 
L 49.515625 72.90625 
L 49.515625 64.59375 
L 19.828125 64.59375 
L 19.828125 46.734375 
Q 21.96875 47.46875 24.109375 47.828125 
Q 26.265625 48.1875 28.421875 48.1875 
Q 40.625 48.1875 47.75 41.5 
Q 54.890625 34.8125 54.890625 23.390625 
Q 54.890625 11.625 47.5625 5.09375 
Q 40.234375 -1.421875 26.90625 -1.421875 
Q 22.3125 -1.421875 17.546875 -0.640625 
Q 12.796875 0.140625 7.71875 1.703125 
L 7.71875 11.625 
Q 12.109375 9.234375 16.796875 8.0625 
Q 21.484375 6.890625 26.703125 6.890625 
Q 35.15625 6.890625 40.078125 11.328125 
Q 45.015625 15.765625 45.015625 23.390625 
Q 45.015625 31 40.078125 35.4375 
Q 35.15625 39.890625 26.703125 39.890625 
Q 22.75 39.890625 18.8125 39.015625 
Q 14.890625 38.140625 10.796875 36.28125 
z
" id="DejaVuSans-35"/>
      </defs>
      <g transform="translate(15.995313 133.155767)scale(0.1 -0.1)">
       <use xlink:href="#DejaVuSans-35"/>
       <use x="63.623047" xlink:href="#DejaVuSans-30"/>
       <use x="127.246094" xlink:href="#DejaVuSans-30"/>
      </g>
     </g>
    </g>
    <g id="ytick_5">
     <g id="line2d_11">
      <g>
       <use style="stroke:#000000;stroke-width:0.8;" x="42.082813" xlink:href="#m1978534ded" y="78.805022"/>
      </g>
     </g>
     <g id="text_11">
      <!-- 600 -->
      <g transform="translate(15.995313 82.604241)scale(0.1 -0.1)">
       <use xlink:href="#DejaVuSans-36"/>
       <use x="63.623047" xlink:href="#DejaVuSans-30"/>
       <use x="127.246094" xlink:href="#DejaVuSans-30"/>
      </g>
     </g>
    </g>
    <g id="ytick_6">
     <g id="line2d_12">
      <g>
       <use style="stroke:#000000;stroke-width:0.8;" x="42.082813" xlink:href="#m1978534ded" y="28.253496"/>
      </g>
     </g>
     <g id="text_12">
      <!-- 700 -->
      <defs>
       <path d="M 8.203125 72.90625 
L 55.078125 72.90625 
L 55.078125 68.703125 
L 28.609375 0 
L 18.3125 0 
L 43.21875 64.59375 
L 8.203125 64.59375 
z
" id="DejaVuSans-37"/>
      </defs>
      <g transform="translate(15.995313 32.052715)scale(0.1 -0.1)">
       <use xlink:href="#DejaVuSans-37"/>
       <use x="63.623047" xlink:href="#DejaVuSans-30"/>
       <use x="127.246094" xlink:href="#DejaVuSans-30"/>
      </g>
     </g>
    </g>
   </g>
   <g id="line2d_13">
    <path clip-path="url(#p65c23a4b0c)" d="M 68.610866 273.928859 
L 69.141959 273.741821 
L 69.673051 275.465627 
L 70.204143 275.662775 
L 70.735235 274.955051 
L 71.266327 275.900366 
L 71.79742 277.108548 
L 72.328512 275.627388 
L 72.859604 276.244118 
L 73.390696 278.013421 
L 73.921788 273.40818 
L 74.983973 276.931621 
L 75.515065 282.148536 
L 76.046157 279.459194 
L 76.577249 278.008366 
L 77.108341 277.027664 
L 78.170526 285.024916 
L 78.701618 283.675193 
L 79.23271 283.103961 
L 79.763802 281.400377 
L 80.294894 285.029972 
L 80.825986 283.306166 
L 81.357079 283.983558 
L 81.888171 282.937138 
L 82.419263 283.478038 
L 82.950355 281.683465 
L 83.481447 280.819035 
L 84.012539 279.292377 
L 84.543632 279.722061 
L 85.074724 279.529968 
L 86.136908 280.798813 
L 86.668 282.497343 
L 87.199092 280.677487 
L 87.730185 280.000094 
L 88.261277 278.675648 
L 88.792369 276.466543 
L 89.323461 276.537317 
L 89.854553 276.29467 
L 90.385646 275.597057 
L 90.916738 271.43161 
L 91.44783 271.365899 
L 91.978922 269.374163 
L 92.510014 268.454131 
L 93.041106 268.120484 
L 93.572199 267.564418 
L 94.103291 268.959645 
L 94.634383 268.65128 
L 95.165475 268.818097 
L 95.696567 268.550175 
L 96.227659 269.763412 
L 96.758752 268.499622 
L 97.289844 266.674718 
L 97.820936 266.164142 
L 98.352028 267.539148 
L 98.88312 265.390706 
L 99.414212 264.637492 
L 99.945305 262.888409 
L 100.476397 263.318087 
L 101.007489 262.827746 
L 101.538581 261.553845 
L 102.600765 260.487204 
L 103.131858 260.81579 
L 103.66295 259.885648 
L 104.194042 259.632884 
L 104.725134 259.56211 
L 105.787318 256.281315 
L 106.318411 257.049702 
L 106.849503 257.21652 
L 107.380595 258.470199 
L 107.911687 251.07451 
L 108.442779 247.409529 
L 108.973872 245.205486 
L 109.504964 245.877816 
L 110.036056 249.648966 
L 110.567148 249.871384 
L 111.09824 246.312556 
L 111.629332 250.129195 
L 112.160425 247.470192 
L 112.691517 251.347495 
L 113.222609 252.707328 
L 114.284793 262.883347 
L 114.815885 253.718355 
L 115.346978 252.439406 
L 115.87807 249.623682 
L 116.940254 253.804301 
L 117.471346 253.602091 
L 118.002438 254.542344 
L 118.533531 256.574521 
L 119.064623 261.922873 
L 120.126807 257.37324 
L 120.657899 258.151724 
L 121.188991 258.712852 
L 121.720084 254.041892 
L 123.31336 248.683429 
L 123.844452 249.10301 
L 124.375545 252.722487 
L 124.906637 255.260178 
L 125.437729 256.074056 
L 125.968821 259.172861 
L 126.499913 255.477548 
L 127.031005 253.961008 
L 127.562098 253.571759 
L 128.09319 250.83692 
L 128.624282 247.015231 
L 129.155374 244.679752 
L 129.686466 243.567606 
L 130.217558 245.53912 
L 130.748651 243.678822 
L 131.279743 245.134712 
L 132.341927 247.293264 
L 132.873019 246.484435 
L 133.404111 252.616334 
L 133.935204 254.961924 
L 134.466296 256.503747 
L 134.997388 257.282245 
L 135.52848 256.427925 
L 136.059572 251.352543 
L 136.590664 251.645749 
L 137.121757 250.872313 
L 137.652849 252.050157 
L 138.183941 254.825439 
L 138.715033 254.355306 
L 139.777217 255.785913 
L 140.30831 257.969735 
L 140.839402 254.779934 
L 141.370494 253.59198 
L 141.901586 251.175616 
L 142.432678 250.710545 
L 142.963771 251.044179 
L 143.494863 248.617704 
L 144.557047 251.635638 
L 145.088139 252.070378 
L 145.619231 249.745009 
L 146.150324 249.704567 
L 146.681416 249.17377 
L 147.7436 250.634709 
L 148.274692 249.795561 
L 148.805784 250.978467 
L 149.336877 255.639316 
L 149.867969 254.830487 
L 150.399061 256.190334 
L 150.930153 256.928376 
L 151.461245 254.739492 
L 151.992337 254.183426 
L 152.52343 255.796023 
L 153.054522 255.91735 
L 153.585614 257.858532 
L 154.116706 260.8259 
L 154.647798 259.329581 
L 155.17889 260.648973 
L 155.709983 259.97158 
L 156.772167 259.223414 
L 157.303259 255.568543 
L 157.834351 254.6384 
L 158.365443 251.301991 
L 158.896536 251.787283 
L 159.427628 249.204101 
L 160.489812 248.956401 
L 161.020904 247.121385 
L 161.551997 246.605761 
L 162.083089 245.51385 
L 162.614181 242.303829 
L 163.145273 242.910448 
L 163.676365 238.937088 
L 164.207457 238.664117 
L 164.73855 236.652161 
L 165.269642 236.060714 
L 165.800734 234.341964 
L 166.331826 234.928362 
L 166.862918 237.102073 
L 167.39401 236.844261 
L 167.925103 238.674228 
L 168.456195 239.296005 
L 168.987287 241.257409 
L 169.518379 236.050604 
L 170.580563 235.909057 
L 171.111656 233.457312 
L 171.642748 232.805189 
L 172.17384 231.197654 
L 172.704932 230.388825 
L 173.236024 229.291865 
L 173.767116 223.008309 
L 174.298209 221.360331 
L 174.829301 225.662264 
L 175.360393 225.136529 
L 175.891485 225.647091 
L 176.422577 226.683401 
L 176.95367 225.990849 
L 177.484762 226.390209 
L 178.015854 226.501412 
L 178.546946 227.810706 
L 179.078038 229.964196 
L 179.60913 228.34655 
L 180.140223 225.727976 
L 180.671315 223.989004 
L 181.202407 221.223833 
L 181.733499 221.80012 
L 182.264591 221.046905 
L 182.795683 222.330916 
L 183.326776 221.345159 
L 183.857868 222.042773 
L 184.38896 226.40032 
L 184.920052 226.900771 
L 185.451144 229.655831 
L 185.982236 230.206849 
L 186.513329 226.198109 
L 187.044421 227.057477 
L 187.575513 223.705922 
L 188.106605 226.046451 
L 188.637697 222.977977 
L 189.168789 222.876872 
L 189.699882 221.931557 
L 190.230974 224.823103 
L 190.762066 222.169148 
L 191.293158 221.284496 
L 191.82425 221.643413 
L 192.355342 220.273469 
L 192.886435 221.254164 
L 193.417527 219.83873 
L 193.948619 220.470618 
L 194.479711 220.06621 
L 195.010803 219.505082 
L 195.541896 220.202695 
L 196.072988 220.167315 
L 196.60408 219.717403 
L 197.135172 220.040927 
L 198.728449 217.740841 
L 199.259541 218.529435 
L 200.321725 217.58412 
L 200.852817 217.675115 
L 201.383909 218.499104 
L 201.915002 219.05517 
L 202.446094 215.511514 
L 202.977186 214.642022 
L 203.508278 213.272078 
L 204.03937 213.408577 
L 204.570462 212.200388 
L 205.101555 209.000477 
L 205.632647 209.409947 
L 206.163739 208.00461 
L 206.694831 207.367659 
L 207.225923 205.952225 
L 207.757015 209.910399 
L 208.288108 210.825382 
L 209.350292 216.952232 
L 209.881384 211.528058 
L 210.412476 209.531274 
L 210.943568 208.292753 
L 211.474661 208.616291 
L 212.005753 212.210499 
L 212.536845 210.582743 
L 213.067937 207.696245 
L 214.130122 208.500013 
L 214.661214 206.953141 
L 215.192306 204.233474 
L 216.25449 201.058833 
L 216.785582 202.8888 
L 217.847767 200.543209 
L 218.378859 200.17923 
L 218.909951 198.546426 
L 219.441043 200.988059 
L 219.972135 204.900742 
L 220.503228 210.94166 
L 221.03432 208.914545 
L 221.565412 208.783108 
L 222.627596 203.56113 
L 223.158688 205.532644 
L 223.689781 204.112148 
L 224.220873 200.351109 
L 224.751965 200.128691 
L 225.283057 202.474281 
L 225.814149 202.272071 
L 226.345241 203.93522 
L 226.876334 206.867208 
L 227.407426 204.17786 
L 227.938518 203.384203 
L 228.46961 207.494048 
L 229.000702 215.289083 
L 229.531795 212.948554 
L 230.062887 214.955449 
L 230.593979 210.592853 
L 231.125071 209.632366 
L 231.656163 210.648455 
L 232.718348 204.40534 
L 233.24944 204.961406 
L 233.780532 204.698545 
L 234.311624 205.876389 
L 234.842716 205.937052 
L 235.904901 209.637428 
L 236.435993 210.800113 
L 236.967085 211.229804 
L 237.498177 211.209583 
L 238.029269 212.736233 
L 238.560361 214.889737 
L 239.091454 214.080907 
L 239.622546 212.195339 
L 240.153638 214.070797 
L 240.68473 216.578156 
L 241.215822 214.358941 
L 241.746914 211.320798 
L 242.278007 209.020698 
L 242.809099 204.829982 
L 243.340191 203.662236 
L 243.871283 204.971516 
L 244.402375 205.108015 
L 244.933467 206.826766 
L 245.46456 205.118126 
L 245.995652 207.064357 
L 246.526744 206.093759 
L 247.057836 205.401207 
L 247.588928 206.826766 
L 248.120021 206.872257 
L 248.651113 206.397075 
L 249.182205 205.46187 
L 249.713297 206.584113 
L 250.244389 206.917761 
L 251.306574 213.625946 
L 251.837666 212.190278 
L 252.368758 210.30471 
L 252.89985 209.971062 
L 253.430942 212.655349 
L 253.962034 213.069881 
L 254.493127 214.187061 
L 255.024219 211.866754 
L 255.555311 212.766564 
L 256.086403 211.548279 
L 256.617495 206.280811 
L 257.148587 207.453606 
L 257.67968 207.155352 
L 258.210772 208.500013 
L 259.272956 214.262897 
L 259.804048 214.161792 
L 260.33514 214.54093 
L 260.866233 217.366751 
L 261.397325 217.012896 
L 261.928417 214.060686 
L 262.459509 216.937073 
L 262.990601 217.740841 
L 264.052786 222.715103 
L 264.583878 217.670067 
L 265.11497 219.0299 
L 265.646062 214.672353 
L 266.177154 217.13927 
L 266.708247 214.262897 
L 267.239339 212.635127 
L 267.770431 213.251857 
L 268.301523 212.427868 
L 269.363707 205.471981 
L 269.8948 204.294137 
L 270.425892 201.544125 
L 270.956984 200.275287 
L 271.488076 203.161771 
L 272.019168 203.288159 
L 272.55026 201.129607 
L 273.081353 201.255982 
L 273.612445 197.641553 
L 274.143537 193.152569 
L 274.674629 191.610759 
L 275.205721 186.530329 
L 275.736813 186.333167 
L 276.798998 180.666353 
L 277.33009 178.184264 
L 277.861182 183.653943 
L 278.392274 184.043191 
L 278.923366 184.720584 
L 279.454459 181.551005 
L 279.985551 185.514241 
L 280.516643 183.664053 
L 281.047735 191.347885 
L 281.578827 193.243564 
L 282.10992 203.56113 
L 282.641012 193.046415 
L 283.172104 198.263331 
L 283.703196 193.203122 
L 284.234288 191.539986 
L 284.76538 188.294571 
L 285.296473 189.775731 
L 285.827565 189.795952 
L 286.358657 197.070314 
L 286.889749 202.135585 
L 287.420841 201.928326 
L 287.951933 193.253674 
L 288.483026 191.949442 
L 289.014118 193.193011 
L 289.54521 188.208638 
L 290.076302 184.978396 
L 290.607394 184.968285 
L 291.138486 187.576736 
L 291.669579 189.497697 
L 292.200671 193.026194 
L 292.731763 190.149807 
L 293.262855 188.03171 
L 293.793947 187.925543 
L 294.325039 191.292284 
L 294.856132 190.048715 
L 295.918316 185.317092 
L 296.449408 183.466904 
L 296.9805 179.655313 
L 297.511592 174.028927 
L 298.042685 173.108896 
L 298.573777 173.771116 
L 299.104869 178.988031 
L 299.635961 177.734365 
L 300.167053 178.30559 
L 300.698146 180.282153 
L 301.229238 181.419568 
L 301.76033 184.67508 
L 302.291422 189.351102 
L 302.822514 192.748161 
L 303.353606 193.80974 
L 303.884699 190.903035 
L 304.415791 191.347885 
L 304.946883 195.174636 
L 305.477975 185.564793 
L 306.009067 179.761481 
L 306.540159 178.800993 
L 307.071252 175.646586 
L 307.602344 168.786743 
L 308.133436 169.802818 
L 308.664528 168.665416 
L 309.19562 180.60569 
L 309.726712 182.278937 
L 310.257805 183.512395 
L 310.788897 176.991247 
L 311.319989 181.035367 
L 311.851081 179.60476 
L 312.382173 177.537203 
L 312.913265 177.40578 
L 313.444358 177.491712 
L 313.97545 181.672318 
L 314.506542 181.217357 
L 315.037634 178.356143 
L 315.568726 179.78675 
L 316.099818 180.044562 
L 316.630911 176.758718 
L 317.693095 187.379588 
L 318.224187 187.682904 
L 318.755279 190.39246 
L 319.286372 185.554683 
L 319.817464 187.607068 
L 320.348556 191.327664 
L 320.879648 192.576282 
L 321.41074 195.573995 
L 321.941832 191.782625 
L 322.472925 196.595132 
L 323.004017 198.323993 
L 323.535109 191.979774 
L 324.066201 193.455885 
L 324.597293 188.906252 
L 325.128385 186.009644 
L 325.659478 185.114881 
L 326.19057 183.441621 
L 327.252754 185.423246 
L 327.783846 184.629589 
L 328.314938 183.133257 
L 328.846031 184.033081 
L 329.377123 185.564793 
L 329.908215 189.922327 
L 330.439307 190.554228 
L 330.970399 189.50276 
L 331.501491 188.901189 
L 332.032584 181.955413 
L 332.563676 181.70265 
L 333.094768 180.64107 
L 333.62586 178.224706 
L 334.156952 176.60706 
L 334.688045 178.573513 
L 335.219137 177.319833 
L 335.750229 177.380496 
L 336.281321 174.231138 
L 336.812413 173.113944 
L 337.874598 168.584532 
L 338.40569 168.923228 
L 338.936782 168.159903 
L 339.467874 168.508709 
L 339.998966 169.095107 
L 340.530058 169.893813 
L 341.592243 165.192521 
L 342.123335 165.880024 
L 342.654427 169.646111 
L 343.185519 166.051903 
L 343.716611 169.59051 
L 344.247704 156.320734 
L 344.778796 157.346933 
L 345.309888 156.007308 
L 345.84098 153.110713 
L 346.372072 151.356583 
L 346.903164 151.503179 
L 347.434257 152.044072 
L 349.027533 145.113455 
L 349.558625 141.145156 
L 350.089717 132.809215 
L 350.62081 132.68284 
L 351.151902 128.042198 
L 351.682994 124.574379 
L 352.214086 130.534412 
L 352.745178 128.23936 
L 353.276271 128.284851 
L 353.807363 121.849636 
L 354.338455 122.764633 
L 354.869547 121.071165 
L 355.400639 118.027961 
L 355.931731 116.334467 
L 356.462824 111.456247 
L 356.993916 107.902468 
L 357.525008 106.876296 
L 358.0561 106.517365 
L 358.587192 112.593649 
L 359.118284 114.059663 
L 359.649377 113.84228 
L 360.180469 108.129975 
L 360.711561 106.522413 
L 361.242653 103.069766 
L 361.773745 94.93096 
L 362.304837 84.072487 
L 362.83593 86.104664 
L 363.367022 86.099616 
L 363.898114 78.248952 
L 364.429206 75.792159 
L 366.022483 80.801802 
L 366.553575 75.276536 
L 367.084667 71.485152 
L 367.615759 69.897838 
L 368.146851 73.820645 
L 368.677943 79.032499 
L 369.209036 69.387263 
L 369.740128 63.983323 
L 370.27122 66.515951 
L 370.802312 61.77928 
L 371.333404 60.490206 
L 371.864497 64.428159 
L 372.395589 65.560512 
L 372.926681 67.294449 
L 373.457773 76.161188 
L 373.988865 88.8496 
L 374.519957 73.90153 
L 375.05105 74.589019 
L 375.582142 85.1543 
L 376.113234 92.464043 
L 376.644326 93.111117 
L 377.175418 98.884085 
L 377.70651 73.749858 
L 378.237603 74.912556 
L 378.768695 77.288465 
L 379.299787 86.903383 
L 379.830879 87.838573 
L 380.361971 85.892356 
L 380.893063 87.995294 
L 381.424156 96.371678 
L 381.955248 94.233346 
L 382.48634 94.890518 
L 383.017432 94.384991 
L 383.548524 93.707625 
L 384.079616 95.633622 
L 384.610709 99.925457 
L 385.141801 102.478306 
L 385.672893 106.062404 
L 386.203985 114.130424 
L 386.735077 113.999 
L 387.26617 98.378585 
L 387.797262 100.557332 
L 388.328354 93.687404 
L 388.859446 96.336284 
L 389.390538 97.86801 
L 389.92163 92.822974 
L 390.452723 89.334906 
L 390.983815 90.062837 
L 391.514907 98.525181 
L 392.045999 96.856983 
L 392.577091 97.595012 
L 393.108183 93.232417 
L 393.639276 93.100993 
L 394.170368 88.753571 
L 394.70146 93.37904 
L 395.232552 90.856508 
L 395.763644 92.878562 
L 396.294736 93.19705 
L 396.825829 91.882707 
L 397.356921 85.993461 
L 397.888013 85.169446 
L 398.419105 86.013682 
L 398.950197 90.093183 
L 399.481289 87.853746 
L 400.012382 93.581223 
L 400.543474 92.944273 
L 401.074566 91.695669 
L 401.605658 94.45073 
L 402.13675 86.893259 
L 403.730027 73.780203 
L 404.261119 75.832602 
L 404.792211 71.783419 
L 405.323303 74.654731 
L 405.854396 76.565582 
L 406.385488 79.361084 
L 406.91658 76.292611 
L 407.447672 75.311902 
L 407.978764 75.296756 
L 408.509856 75.640488 
L 409.040949 71.566036 
L 409.572041 76.631293 
L 410.103133 76.868898 
L 410.634225 78.339961 
L 411.165317 91.458065 
L 411.696409 91.503555 
L 412.758594 81.317426 
L 413.289686 73.365685 
L 413.820778 75.362468 
L 414.35187 74.867065 
L 415.414055 67.405652 
L 415.945147 68.234688 
L 416.476239 68.765485 
L 417.538423 67.835343 
L 418.069515 63.639564 
L 418.600608 62.785231 
L 419.1317 63.219997 
L 419.662792 60.434592 
L 420.193884 54.484682 
L 420.724976 45.870694 
L 421.256068 50.465846 
L 421.787161 43.990189 
L 422.318253 47.144595 
L 422.849345 46.846354 
L 423.380437 40.547639 
L 423.911529 40.992475 
L 424.442622 41.664819 
L 424.973714 46.517769 
L 425.504806 45.825204 
L 426.035898 40.906543 
L 426.56699 43.302672 
L 427.098082 40.249371 
L 427.629175 38.141385 
L 428.160267 47.089007 
L 428.691359 48.175843 
L 429.222451 43.525104 
L 429.753543 36.85736 
L 430.815728 28.364698 
L 431.34682 27.28796 
L 431.877912 27.191903 
L 432.409004 28.910667 
L 432.940096 28.208005 
L 433.471188 32.909284 
L 434.002281 41.629425 
L 434.533373 45.855549 
L 435.064465 37.696521 
L 435.595557 44.884938 
L 436.126649 48.782475 
L 436.657741 47.811891 
L 437.188834 42.68597 
L 437.719926 45.036609 
L 438.78211 59.509498 
L 439.313202 60.682293 
L 439.844295 58.124395 
L 440.375387 64.600052 
L 440.906479 63.78616 
L 441.437571 61.233311 
L 441.968663 53.635424 
L 442.499755 56.253986 
L 443.030848 62.305001 
L 443.56194 73.830742 
L 444.093032 61.602338 
L 444.624124 72.051342 
L 445.155216 70.297211 
L 445.686308 73.982414 
L 446.217401 76.782965 
L 446.748493 81.17083 
L 447.279585 80.5541 
L 447.810677 90.532971 
L 448.341769 86.579845 
L 448.872861 87.474621 
L 449.935046 110.273355 
L 450.466138 105.567001 
L 450.99723 107.705333 
L 451.528322 107.669939 
L 452.059414 110.713143 
L 452.590507 116.405254 
L 453.121599 115.363882 
L 453.652691 96.129025 
L 454.183783 98.565623 
L 454.714875 98.166251 
L 455.245967 93.212196 
L 455.77706 84.097756 
L 456.308152 86.498961 
L 456.839244 87.429103 
L 457.370336 84.183716 
L 457.901428 86.246211 
L 458.432521 85.786175 
L 458.963613 91.013228 
L 459.494705 109.747607 
L 460.025797 105.47602 
L 460.556889 112.548158 
L 461.087981 114.282095 
L 461.619074 108.433264 
L 462.150166 109.641453 
L 462.681258 114.347807 
L 463.21235 124.407561 
L 463.743442 119.837707 
L 464.274534 112.219572 
L 464.805627 116.056447 
L 465.336719 118.371692 
L 465.867811 119.58493 
L 466.398903 119.160314 
L 466.929995 122.784854 
L 467.461087 121.743482 
L 467.99218 124.508667 
L 468.523272 113.094127 
L 469.054364 104.571147 
L 469.585456 108.07436 
L 470.116548 115.70764 
L 470.64764 117.274733 
L 471.178733 116.561947 
L 471.709825 120.712234 
L 472.240917 117.471895 
L 472.772009 119.094575 
L 473.834193 136.474197 
L 474.365286 126.27797 
L 475.42747 129.356541 
L 475.958562 126.945239 
L 476.489654 122.274279 
L 477.020747 154.379565 
L 477.551839 159.748125 
L 478.614023 150.45171 
L 480.2073 152.802349 
L 480.738392 158.514667 
L 481.269484 150.669066 
L 481.800576 150.916767 
L 482.331668 145.421819 
L 482.86276 142.004539 
L 483.393853 139.502228 
L 483.924945 145.583587 
L 484.456037 146.033499 
L 484.987129 146.245807 
L 485.518221 149.496271 
L 486.049313 149.582203 
L 486.580406 155.213651 
L 487.111498 156.624037 
L 487.64259 154.222845 
L 488.173682 158.272027 
L 488.704774 155.152988 
L 489.235866 157.377265 
L 489.766959 158.979738 
L 490.829143 169.7725 
L 491.360235 164.166335 
L 491.891327 166.936555 
L 492.42242 164.449417 
L 492.953512 163.87313 
L 493.484604 160.764214 
L 494.015696 165.536279 
L 494.546788 165.576721 
L 495.07788 163.478833 
L 496.140065 151.740756 
L 496.671157 152.362561 
L 497.202249 153.580846 
L 497.733341 153.252261 
L 498.264433 148.611619 
L 498.795526 147.76741 
L 499.326618 149.000868 
L 500.388802 158.342788 
L 500.919894 165.293626 
L 501.450986 164.848776 
L 501.982079 163.736644 
L 503.044263 168.180124 
L 503.575355 166.658522 
L 504.106447 166.269273 
L 504.637539 161.866235 
L 505.168632 162.553739 
L 505.699724 164.843714 
L 506.230816 169.873592 
L 506.761908 166.643349 
L 507.293 178.492628 
L 507.824092 183.926927 
L 508.355185 184.695301 
L 509.417369 176.809271 
L 509.948461 177.147967 
L 510.479553 175.671856 
L 511.010646 171.213218 
L 512.07283 158.282138 
L 512.603922 160.046379 
L 513.135014 156.897021 
L 513.666106 154.642412 
L 514.197199 149.218251 
L 514.728291 150.254547 
L 515.259383 147.635986 
L 515.790475 151.209986 
L 516.321567 153.130934 
L 516.852659 152.236158 
L 517.383752 157.736169 
L 517.914844 165.323958 
L 518.445936 162.42735 
L 518.977028 163.094632 
L 519.50812 158.206302 
L 520.039212 159.859341 
L 520.570305 159.005021 
L 521.101397 158.605662 
L 521.632489 157.084059 
L 522.163581 158.959517 
L 522.694673 157.185165 
L 523.225765 153.833596 
L 523.756858 154.768787 
L 524.28795 154.268336 
L 524.819042 154.981122 
L 525.350134 157.104281 
L 525.881226 160.46596 
L 526.412318 158.772479 
L 526.943411 160.24859 
L 527.474503 160.9007 
L 528.005595 163.635539 
L 528.536687 161.72975 
L 529.067779 164.717339 
L 529.598872 163.731582 
L 530.129964 163.84786 
L 530.661056 168.281229 
L 531.192148 171.395193 
L 531.72324 173.083613 
L 532.254332 178.624065 
L 532.785425 178.578574 
L 533.847609 183.052386 
L 534.378701 181.662207 
L 534.909793 175.247227 
L 535.440885 170.561095 
L 535.971978 169.393361 
L 536.50307 171.102002 
L 537.034162 172.300066 
L 537.565254 168.609815 
L 538.096346 169.428742 
L 538.627438 166.112567 
L 539.158531 166.506864 
L 539.689623 166.036731 
L 540.220715 164.641517 
L 540.751807 164.585902 
L 541.282899 163.852909 
L 541.813991 167.295472 
L 542.345084 166.607969 
L 542.876176 170.308345 
L 543.407268 159.42965 
L 543.93836 160.445739 
L 544.469452 159.186997 
L 545.531637 152.953993 
L 546.062729 153.353366 
L 546.593821 151.255477 
L 547.656005 144.800041 
L 548.187098 146.9232 
L 548.71819 147.059699 
L 549.249282 149.06658 
L 549.780374 152.382782 
L 550.311466 145.856558 
L 550.842558 134.629084 
L 551.373651 130.114817 
L 551.904743 130.413085 
L 552.435835 128.178697 
L 552.966927 125.443858 
L 553.498019 128.815647 
L 554.029111 128.163524 
L 554.560204 127.860235 
L 555.091296 128.840917 
L 555.622388 127.85516 
L 556.15348 135.124487 
L 556.684572 133.95674 
L 557.215664 133.552319 
L 557.746757 135.817025 
L 558.277849 135.129536 
L 558.808941 130.018761 
L 559.340033 131.747649 
L 559.871125 130.256365 
L 560.402217 126.237528 
L 560.93331 132.066111 
L 561.464402 145.679644 
L 561.995494 143.162161 
L 562.526586 147.100141 
L 563.057678 154.571652 
L 563.588771 151.942967 
L 564.650955 143.359324 
L 565.182047 145.831289 
L 565.713139 134.088164 
L 566.244231 134.866662 
L 566.775324 138.693412 
L 567.306416 136.322552 
L 567.837508 138.076683 
L 568.3686 141.10979 
L 568.899692 135.442949 
L 569.430784 134.634133 
L 569.961877 137.743049 
L 570.492969 137.935135 
L 571.024061 135.549103 
L 571.555153 138.991679 
L 572.086245 136.135514 
L 574.210614 130.023836 
L 574.741706 128.795426 
L 575.272798 127.081737 
L 575.80389 124.862522 
L 576.334983 118.558731 
L 576.866075 119.311959 
L 577.397167 116.738888 
L 577.928259 113.225551 
L 578.459351 116.233361 
L 578.990443 114.25175 
L 579.521536 120.924542 
L 580.052628 116.769206 
L 581.114812 119.231075 
L 581.645904 115.834015 
L 582.176997 116.491186 
L 582.708089 118.781163 
L 583.239181 123.042652 
L 583.770273 118.963152 
L 584.301365 119.726477 
L 584.832457 119.241199 
L 585.36355 118.927758 
L 585.894642 115.121229 
L 586.425734 116.723715 
L 586.956826 119.938812 
L 587.487918 119.473728 
L 588.01901 121.773827 
L 588.550103 118.66996 
L 589.081195 119.347352 
L 589.612287 117.355617 
L 590.143379 112.472349 
L 591.205563 101.012319 
L 591.736656 103.458988 
L 592.267748 95.830784 
L 592.79884 96.498052 
L 593.329932 95.032065 
L 593.861024 99.015536 
L 594.392116 95.77517 
L 594.923209 96.220033 
L 595.454301 98.338143 
L 595.985393 98.752662 
L 596.516485 101.841356 
L 597.047577 100.289409 
L 597.57867 101.558262 
L 598.109762 103.691544 
L 598.640854 106.881344 
L 599.171946 104.576196 
L 599.171946 104.576196 
" style="fill:none;stroke:#1f77b4;stroke-linecap:square;stroke-width:1.5;"/>
   </g>
   <g id="patch_3">
    <path d="M 42.082813 297.921875 
L 42.082813 14.3 
" style="fill:none;stroke:#000000;stroke-linecap:square;stroke-linejoin:miter;stroke-width:0.8;"/>
   </g>
   <g id="patch_4">
    <path d="M 625.7 297.921875 
L 625.7 14.3 
" style="fill:none;stroke:#000000;stroke-linecap:square;stroke-linejoin:miter;stroke-width:0.8;"/>
   </g>
   <g id="patch_5">
    <path d="M 42.082813 297.921875 
L 625.7 297.921875 
" style="fill:none;stroke:#000000;stroke-linecap:square;stroke-linejoin:miter;stroke-width:0.8;"/>
   </g>
   <g id="patch_6">
    <path d="M 42.082813 14.3 
L 625.7 14.3 
" style="fill:none;stroke:#000000;stroke-linecap:square;stroke-linejoin:miter;stroke-width:0.8;"/>
   </g>
   <g id="legend_1">
    <g id="patch_7">
     <path d="M 526.65 37.25625 
L 618.7 37.25625 
Q 620.7 37.25625 620.7 35.25625 
L 620.7 21.3 
Q 620.7 19.3 618.7 19.3 
L 526.65 19.3 
Q 524.65 19.3 524.65 21.3 
L 524.65 35.25625 
Q 524.65 37.25625 526.65 37.25625 
z
" style="fill:#ffffff;opacity:0.8;stroke:#cccccc;stroke-linejoin:miter;"/>
    </g>
    <g id="line2d_14">
     <path d="M 528.65 27.398438 
L 548.65 27.398438 
" style="fill:none;stroke:#1f77b4;stroke-linecap:square;stroke-width:1.5;"/>
    </g>
    <g id="line2d_15"/>
    <g id="text_13">
     <!-- data_values -->
     <defs>
      <path d="M 45.40625 46.390625 
L 45.40625 75.984375 
L 54.390625 75.984375 
L 54.390625 0 
L 45.40625 0 
L 45.40625 8.203125 
Q 42.578125 3.328125 38.25 0.953125 
Q 33.9375 -1.421875 27.875 -1.421875 
Q 17.96875 -1.421875 11.734375 6.484375 
Q 5.515625 14.40625 5.515625 27.296875 
Q 5.515625 40.1875 11.734375 48.09375 
Q 17.96875 56 27.875 56 
Q 33.9375 56 38.25 53.625 
Q 42.578125 51.265625 45.40625 46.390625 
z
M 14.796875 27.296875 
Q 14.796875 17.390625 18.875 11.75 
Q 22.953125 6.109375 30.078125 6.109375 
Q 37.203125 6.109375 41.296875 11.75 
Q 45.40625 17.390625 45.40625 27.296875 
Q 45.40625 37.203125 41.296875 42.84375 
Q 37.203125 48.484375 30.078125 48.484375 
Q 22.953125 48.484375 18.875 42.84375 
Q 14.796875 37.203125 14.796875 27.296875 
z
" id="DejaVuSans-64"/>
      <path d="M 34.28125 27.484375 
Q 23.390625 27.484375 19.1875 25 
Q 14.984375 22.515625 14.984375 16.5 
Q 14.984375 11.71875 18.140625 8.90625 
Q 21.296875 6.109375 26.703125 6.109375 
Q 34.1875 6.109375 38.703125 11.40625 
Q 43.21875 16.703125 43.21875 25.484375 
L 43.21875 27.484375 
z
M 52.203125 31.203125 
L 52.203125 0 
L 43.21875 0 
L 43.21875 8.296875 
Q 40.140625 3.328125 35.546875 0.953125 
Q 30.953125 -1.421875 24.3125 -1.421875 
Q 15.921875 -1.421875 10.953125 3.296875 
Q 6 8.015625 6 15.921875 
Q 6 25.140625 12.171875 29.828125 
Q 18.359375 34.515625 30.609375 34.515625 
L 43.21875 34.515625 
L 43.21875 35.40625 
Q 43.21875 41.609375 39.140625 45 
Q 35.0625 48.390625 27.6875 48.390625 
Q 23 48.390625 18.546875 47.265625 
Q 14.109375 46.140625 10.015625 43.890625 
L 10.015625 52.203125 
Q 14.9375 54.109375 19.578125 55.046875 
Q 24.21875 56 28.609375 56 
Q 40.484375 56 46.34375 49.84375 
Q 52.203125 43.703125 52.203125 31.203125 
z
" id="DejaVuSans-61"/>
      <path d="M 18.3125 70.21875 
L 18.3125 54.6875 
L 36.8125 54.6875 
L 36.8125 47.703125 
L 18.3125 47.703125 
L 18.3125 18.015625 
Q 18.3125 11.328125 20.140625 9.421875 
Q 21.96875 7.515625 27.59375 7.515625 
L 36.8125 7.515625 
L 36.8125 0 
L 27.59375 0 
Q 17.1875 0 13.234375 3.875 
Q 9.28125 7.765625 9.28125 18.015625 
L 9.28125 47.703125 
L 2.6875 47.703125 
L 2.6875 54.6875 
L 9.28125 54.6875 
L 9.28125 70.21875 
z
" id="DejaVuSans-74"/>
      <path d="M 50.984375 -16.609375 
L 50.984375 -23.578125 
L -0.984375 -23.578125 
L -0.984375 -16.609375 
z
" id="DejaVuSans-5f"/>
      <path d="M 2.984375 54.6875 
L 12.5 54.6875 
L 29.59375 8.796875 
L 46.6875 54.6875 
L 56.203125 54.6875 
L 35.6875 0 
L 23.484375 0 
z
" id="DejaVuSans-76"/>
      <path d="M 9.421875 75.984375 
L 18.40625 75.984375 
L 18.40625 0 
L 9.421875 0 
z
" id="DejaVuSans-6c"/>
      <path d="M 8.5 21.578125 
L 8.5 54.6875 
L 17.484375 54.6875 
L 17.484375 21.921875 
Q 17.484375 14.15625 20.5 10.265625 
Q 23.53125 6.390625 29.59375 6.390625 
Q 36.859375 6.390625 41.078125 11.03125 
Q 45.3125 15.671875 45.3125 23.6875 
L 45.3125 54.6875 
L 54.296875 54.6875 
L 54.296875 0 
L 45.3125 0 
L 45.3125 8.40625 
Q 42.046875 3.421875 37.71875 1 
Q 33.40625 -1.421875 27.6875 -1.421875 
Q 18.265625 -1.421875 13.375 4.4375 
Q 8.5 10.296875 8.5 21.578125 
z
M 31.109375 56 
z
" id="DejaVuSans-75"/>
      <path d="M 56.203125 29.59375 
L 56.203125 25.203125 
L 14.890625 25.203125 
Q 15.484375 15.921875 20.484375 11.0625 
Q 25.484375 6.203125 34.421875 6.203125 
Q 39.59375 6.203125 44.453125 7.46875 
Q 49.3125 8.734375 54.109375 11.28125 
L 54.109375 2.78125 
Q 49.265625 0.734375 44.1875 -0.34375 
Q 39.109375 -1.421875 33.890625 -1.421875 
Q 20.796875 -1.421875 13.15625 6.1875 
Q 5.515625 13.8125 5.515625 26.8125 
Q 5.515625 40.234375 12.765625 48.109375 
Q 20.015625 56 32.328125 56 
Q 43.359375 56 49.78125 48.890625 
Q 56.203125 41.796875 56.203125 29.59375 
z
M 47.21875 32.234375 
Q 47.125 39.59375 43.09375 43.984375 
Q 39.0625 48.390625 32.421875 48.390625 
Q 24.90625 48.390625 20.390625 44.140625 
Q 15.875 39.890625 15.1875 32.171875 
z
" id="DejaVuSans-65"/>
      <path d="M 44.28125 53.078125 
L 44.28125 44.578125 
Q 40.484375 46.53125 36.375 47.5 
Q 32.28125 48.484375 27.875 48.484375 
Q 21.1875 48.484375 17.84375 46.4375 
Q 14.5 44.390625 14.5 40.28125 
Q 14.5 37.15625 16.890625 35.375 
Q 19.28125 33.59375 26.515625 31.984375 
L 29.59375 31.296875 
Q 39.15625 29.25 43.1875 25.515625 
Q 47.21875 21.78125 47.21875 15.09375 
Q 47.21875 7.46875 41.1875 3.015625 
Q 35.15625 -1.421875 24.609375 -1.421875 
Q 20.21875 -1.421875 15.453125 -0.5625 
Q 10.6875 0.296875 5.421875 2 
L 5.421875 11.28125 
Q 10.40625 8.6875 15.234375 7.390625 
Q 20.0625 6.109375 24.8125 6.109375 
Q 31.15625 6.109375 34.5625 8.28125 
Q 37.984375 10.453125 37.984375 14.40625 
Q 37.984375 18.0625 35.515625 20.015625 
Q 33.0625 21.96875 24.703125 23.78125 
L 21.578125 24.515625 
Q 13.234375 26.265625 9.515625 29.90625 
Q 5.8125 33.546875 5.8125 39.890625 
Q 5.8125 47.609375 11.28125 51.796875 
Q 16.75 56 26.8125 56 
Q 31.78125 56 36.171875 55.265625 
Q 40.578125 54.546875 44.28125 53.078125 
z
" id="DejaVuSans-73"/>
     </defs>
     <g transform="translate(556.65 30.898438)scale(0.1 -0.1)">
      <use xlink:href="#DejaVuSans-64"/>
      <use x="63.476562" xlink:href="#DejaVuSans-61"/>
      <use x="124.755859" xlink:href="#DejaVuSans-74"/>
      <use x="163.964844" xlink:href="#DejaVuSans-61"/>
      <use x="225.244141" xlink:href="#DejaVuSans-5f"/>
      <use x="275.244141" xlink:href="#DejaVuSans-76"/>
      <use x="334.423828" xlink:href="#DejaVuSans-61"/>
      <use x="395.703125" xlink:href="#DejaVuSans-6c"/>
      <use x="423.486328" xlink:href="#DejaVuSans-75"/>
      <use x="486.865234" xlink:href="#DejaVuSans-65"/>
      <use x="548.388672" xlink:href="#DejaVuSans-73"/>
     </g>
    </g>
   </g>
  </g>
  <g id="axes_2">
   <g id="patch_8">
    <path d="M 42.082813 612.521875 
L 625.7 612.521875 
L 625.7 328.9 
L 42.082813 328.9 
z
" style="fill:#ffffff;"/>
   </g>
   <g id="matplotlib.axis_3">
    <g id="xtick_7">
     <g id="line2d_16">
      <g>
       <use style="stroke:#000000;stroke-width:0.8;" x="68.610866" xlink:href="#me7df3dc1d4" y="612.521875"/>
      </g>
     </g>
     <g id="text_14">
      <!-- 0 -->
      <g transform="translate(65.429616 627.120312)scale(0.1 -0.1)">
       <use xlink:href="#DejaVuSans-30"/>
      </g>
     </g>
    </g>
    <g id="xtick_8">
     <g id="line2d_17">
      <g>
       <use style="stroke:#000000;stroke-width:0.8;" x="174.829301" xlink:href="#me7df3dc1d4" y="612.521875"/>
      </g>
     </g>
     <g id="text_15">
      <!-- 200 -->
      <g transform="translate(165.285551 627.120312)scale(0.1 -0.1)">
       <use xlink:href="#DejaVuSans-32"/>
       <use x="63.623047" xlink:href="#DejaVuSans-30"/>
       <use x="127.246094" xlink:href="#DejaVuSans-30"/>
      </g>
     </g>
    </g>
    <g id="xtick_9">
     <g id="line2d_18">
      <g>
       <use style="stroke:#000000;stroke-width:0.8;" x="281.047735" xlink:href="#me7df3dc1d4" y="612.521875"/>
      </g>
     </g>
     <g id="text_16">
      <!-- 400 -->
      <g transform="translate(271.503985 627.120312)scale(0.1 -0.1)">
       <use xlink:href="#DejaVuSans-34"/>
       <use x="63.623047" xlink:href="#DejaVuSans-30"/>
       <use x="127.246094" xlink:href="#DejaVuSans-30"/>
      </g>
     </g>
    </g>
    <g id="xtick_10">
     <g id="line2d_19">
      <g>
       <use style="stroke:#000000;stroke-width:0.8;" x="387.26617" xlink:href="#me7df3dc1d4" y="612.521875"/>
      </g>
     </g>
     <g id="text_17">
      <!-- 600 -->
      <g transform="translate(377.72242 627.120312)scale(0.1 -0.1)">
       <use xlink:href="#DejaVuSans-36"/>
       <use x="63.623047" xlink:href="#DejaVuSans-30"/>
       <use x="127.246094" xlink:href="#DejaVuSans-30"/>
      </g>
     </g>
    </g>
    <g id="xtick_11">
     <g id="line2d_20">
      <g>
       <use style="stroke:#000000;stroke-width:0.8;" x="493.484604" xlink:href="#me7df3dc1d4" y="612.521875"/>
      </g>
     </g>
     <g id="text_18">
      <!-- 800 -->
      <g transform="translate(483.940854 627.120312)scale(0.1 -0.1)">
       <use xlink:href="#DejaVuSans-38"/>
       <use x="63.623047" xlink:href="#DejaVuSans-30"/>
       <use x="127.246094" xlink:href="#DejaVuSans-30"/>
      </g>
     </g>
    </g>
    <g id="xtick_12">
     <g id="line2d_21">
      <g>
       <use style="stroke:#000000;stroke-width:0.8;" x="599.703038" xlink:href="#me7df3dc1d4" y="612.521875"/>
      </g>
     </g>
     <g id="text_19">
      <!-- 1000 -->
      <g transform="translate(586.978038 627.120312)scale(0.1 -0.1)">
       <use xlink:href="#DejaVuSans-31"/>
       <use x="63.623047" xlink:href="#DejaVuSans-30"/>
       <use x="127.246094" xlink:href="#DejaVuSans-30"/>
       <use x="190.869141" xlink:href="#DejaVuSans-30"/>
      </g>
     </g>
    </g>
   </g>
   <g id="matplotlib.axis_4">
    <g id="ytick_7">
     <g id="line2d_22">
      <g>
       <use style="stroke:#000000;stroke-width:0.8;" x="42.082813" xlink:href="#m1978534ded" y="596.691611"/>
      </g>
     </g>
     <g id="text_20">
      <!-- −0.2 -->
      <defs>
       <path d="M 10.59375 35.5 
L 73.1875 35.5 
L 73.1875 27.203125 
L 10.59375 27.203125 
z
" id="DejaVuSans-2212"/>
       <path d="M 10.6875 12.40625 
L 21 12.40625 
L 21 0 
L 10.6875 0 
z
" id="DejaVuSans-2e"/>
      </defs>
      <g transform="translate(10.8 600.49083)scale(0.1 -0.1)">
       <use xlink:href="#DejaVuSans-2212"/>
       <use x="83.789062" xlink:href="#DejaVuSans-30"/>
       <use x="147.412109" xlink:href="#DejaVuSans-2e"/>
       <use x="179.199219" xlink:href="#DejaVuSans-32"/>
      </g>
     </g>
    </g>
    <g id="ytick_8">
     <g id="line2d_23">
      <g>
       <use style="stroke:#000000;stroke-width:0.8;" x="42.082813" xlink:href="#m1978534ded" y="557.823195"/>
      </g>
     </g>
     <g id="text_21">
      <!-- −0.1 -->
      <g transform="translate(10.8 561.622414)scale(0.1 -0.1)">
       <use xlink:href="#DejaVuSans-2212"/>
       <use x="83.789062" xlink:href="#DejaVuSans-30"/>
       <use x="147.412109" xlink:href="#DejaVuSans-2e"/>
       <use x="179.199219" xlink:href="#DejaVuSans-31"/>
      </g>
     </g>
    </g>
    <g id="ytick_9">
     <g id="line2d_24">
      <g>
       <use style="stroke:#000000;stroke-width:0.8;" x="42.082813" xlink:href="#m1978534ded" y="518.954779"/>
      </g>
     </g>
     <g id="text_22">
      <!-- 0.0 -->
      <g transform="translate(19.179688 522.753998)scale(0.1 -0.1)">
       <use xlink:href="#DejaVuSans-30"/>
       <use x="63.623047" xlink:href="#DejaVuSans-2e"/>
       <use x="95.410156" xlink:href="#DejaVuSans-30"/>
      </g>
     </g>
    </g>
    <g id="ytick_10">
     <g id="line2d_25">
      <g>
       <use style="stroke:#000000;stroke-width:0.8;" x="42.082813" xlink:href="#m1978534ded" y="480.086363"/>
      </g>
     </g>
     <g id="text_23">
      <!-- 0.1 -->
      <g transform="translate(19.179688 483.885582)scale(0.1 -0.1)">
       <use xlink:href="#DejaVuSans-30"/>
       <use x="63.623047" xlink:href="#DejaVuSans-2e"/>
       <use x="95.410156" xlink:href="#DejaVuSans-31"/>
      </g>
     </g>
    </g>
    <g id="ytick_11">
     <g id="line2d_26">
      <g>
       <use style="stroke:#000000;stroke-width:0.8;" x="42.082813" xlink:href="#m1978534ded" y="441.217947"/>
      </g>
     </g>
     <g id="text_24">
      <!-- 0.2 -->
      <g transform="translate(19.179688 445.017166)scale(0.1 -0.1)">
       <use xlink:href="#DejaVuSans-30"/>
       <use x="63.623047" xlink:href="#DejaVuSans-2e"/>
       <use x="95.410156" xlink:href="#DejaVuSans-32"/>
      </g>
     </g>
    </g>
    <g id="ytick_12">
     <g id="line2d_27">
      <g>
       <use style="stroke:#000000;stroke-width:0.8;" x="42.082813" xlink:href="#m1978534ded" y="402.349531"/>
      </g>
     </g>
     <g id="text_25">
      <!-- 0.3 -->
      <g transform="translate(19.179688 406.14875)scale(0.1 -0.1)">
       <use xlink:href="#DejaVuSans-30"/>
       <use x="63.623047" xlink:href="#DejaVuSans-2e"/>
       <use x="95.410156" xlink:href="#DejaVuSans-33"/>
      </g>
     </g>
    </g>
    <g id="ytick_13">
     <g id="line2d_28">
      <g>
       <use style="stroke:#000000;stroke-width:0.8;" x="42.082813" xlink:href="#m1978534ded" y="363.481115"/>
      </g>
     </g>
     <g id="text_26">
      <!-- 0.4 -->
      <g transform="translate(19.179688 367.280334)scale(0.1 -0.1)">
       <use xlink:href="#DejaVuSans-30"/>
       <use x="63.623047" xlink:href="#DejaVuSans-2e"/>
       <use x="95.410156" xlink:href="#DejaVuSans-34"/>
      </g>
     </g>
    </g>
   </g>
   <g id="line2d_29">
    <path clip-path="url(#p0864dee904)" d="M 68.610866 521.647705 
L 70.735235 523.095392 
L 71.79742 523.62705 
L 72.859604 523.968721 
L 73.921788 524.112538 
L 75.515065 524.018504 
L 80.294894 523.285674 
L 82.419263 523.366454 
L 86.136908 523.644493 
L 88.792369 523.566555 
L 93.041106 523.40983 
L 98.88312 523.367834 
L 103.131858 523.27584 
L 109.504964 523.357501 
L 112.160425 523.015639 
L 117.471346 522.256995 
L 123.844452 521.735628 
L 132.873019 521.079835 
L 136.059572 520.456921 
L 153.054522 516.776254 
L 168.987287 513.822241 
L 172.17384 513.543066 
L 177.484762 513.412944 
L 181.733499 513.423663 
L 183.857868 513.617071 
L 185.982236 513.997433 
L 189.168789 514.839565 
L 193.417527 516.233001 
L 196.072988 517.323658 
L 198.197356 518.405492 
L 200.852817 520.030182 
L 204.570462 522.634345 
L 209.350292 526.236036 
L 213.067937 529.292978 
L 217.316675 533.08793 
L 228.46961 543.287005 
L 231.125071 545.22436 
L 234.311624 547.242928 
L 238.029269 549.326483 
L 240.153638 550.29843 
L 241.746914 550.844491 
L 243.340191 551.196317 
L 244.933467 551.344698 
L 246.526744 551.303666 
L 248.651113 551.006292 
L 251.306574 550.356343 
L 255.024219 549.147087 
L 260.866233 546.954954 
L 264.052786 545.556009 
L 266.708247 544.161307 
L 269.8948 542.217044 
L 275.205721 538.666479 
L 278.923366 535.990765 
L 281.578827 533.825495 
L 284.234288 531.331646 
L 286.358657 529.05881 
L 288.483026 526.514598 
L 290.607394 523.661579 
L 292.731763 520.43586 
L 294.856132 516.760726 
L 296.9805 512.583266 
L 299.104869 507.910133 
L 301.76033 501.487841 
L 305.477975 491.809286 
L 313.444358 470.732964 
L 316.099818 464.465927 
L 318.224187 460.0856 
L 319.817464 457.271065 
L 321.41074 454.921377 
L 323.004017 453.081331 
L 324.066201 452.154838 
L 325.128385 451.477464 
L 326.19057 451.054376 
L 327.252754 450.889326 
L 328.314938 450.985181 
L 329.377123 451.343939 
L 330.439307 451.967773 
L 331.501491 452.858715 
L 332.563676 454.018411 
L 333.62586 455.447572 
L 335.219137 458.093443 
L 336.812413 461.327181 
L 338.40569 465.116797 
L 339.998966 469.41518 
L 342.123335 475.838629 
L 344.778796 484.777025 
L 347.965349 496.445181 
L 356.462824 528.246174 
L 359.649377 539.17758 
L 362.83593 549.296426 
L 365.49139 556.979477 
L 368.146851 563.888651 
L 370.27122 568.856756 
L 372.395589 573.360154 
L 374.519957 577.435296 
L 376.644326 581.115875 
L 378.768695 584.433791 
L 380.893063 587.413562 
L 383.017432 590.058351 
L 385.141801 592.349182 
L 387.26617 594.270962 
L 389.390538 595.845325 
L 391.514907 597.131983 
L 393.639276 598.184501 
L 395.763644 598.997902 
L 397.356921 599.410495 
L 398.950197 599.613407 
L 400.543474 599.584558 
L 402.13675 599.326085 
L 403.730027 598.860907 
L 405.854396 597.967955 
L 407.978764 596.794226 
L 410.103133 595.324459 
L 412.227502 593.530724 
L 414.35187 591.424728 
L 417.007331 588.438377 
L 419.662792 585.128986 
L 422.318253 581.43848 
L 424.442622 578.133613 
L 427.098082 573.546327 
L 430.284635 567.510804 
L 434.002281 559.972599 
L 440.375387 546.890639 
L 443.030848 542.095277 
L 445.155216 538.697949 
L 447.279585 535.672015 
L 449.403954 533.020132 
L 450.99723 531.317512 
L 452.590507 529.910422 
L 454.183783 528.833373 
L 455.77706 528.087817 
L 457.370336 527.63233 
L 459.494705 527.338092 
L 464.274534 526.893334 
L 465.867811 526.53044 
L 467.461087 525.955582 
L 469.054364 525.108127 
L 470.64764 523.926059 
L 472.240917 522.351574 
L 473.834193 520.337688 
L 475.42747 517.850527 
L 477.020747 514.864948 
L 478.614023 511.356254 
L 480.2073 507.293799 
L 481.800576 502.64206 
L 483.393853 497.370269 
L 484.987129 491.466586 
L 487.111498 482.649807 
L 489.235866 472.882764 
L 491.891327 459.649967 
L 495.608973 439.93445 
L 503.044263 400.028062 
L 505.699724 387.000442 
L 507.824092 377.49863 
L 509.948461 368.982868 
L 511.541738 363.317331 
L 513.135014 358.316386 
L 514.728291 354.008898 
L 516.321567 350.406393 
L 517.914844 347.498539 
L 518.977028 345.931161 
L 520.039212 344.6447 
L 521.101397 343.622428 
L 522.163581 342.845903 
L 523.225765 342.296118 
L 524.28795 341.95426 
L 525.350134 341.80219 
L 526.412318 341.822913 
L 528.005595 342.143654 
L 529.598872 342.767922 
L 531.192148 343.647865 
L 533.316517 345.132987 
L 535.971978 347.304779 
L 541.282899 351.704751 
L 549.249282 357.878395 
L 550.842558 359.504525 
L 552.435835 361.394798 
L 554.029111 363.589038 
L 555.622388 366.125554 
L 557.215664 369.044841 
L 558.808941 372.38838 
L 560.402217 376.194503 
L 561.995494 380.492261 
L 563.588771 385.299678 
L 565.713139 392.515738 
L 567.837508 400.655203 
L 569.961877 409.702274 
L 572.617337 422.196733 
L 575.80389 438.571438 
L 582.176997 473.145016 
L 586.425734 495.486194 
L 589.081195 508.405708 
L 591.205563 517.855913 
L 593.329932 526.357568 
L 595.454301 533.840228 
L 597.57867 540.312028 
L 599.171946 544.542028 
L 599.171946 544.542028 
" style="fill:none;stroke:#1f77b4;stroke-linecap:square;stroke-width:1.5;"/>
   </g>
   <g id="patch_9">
    <path d="M 42.082813 612.521875 
L 42.082813 328.9 
" style="fill:none;stroke:#000000;stroke-linecap:square;stroke-linejoin:miter;stroke-width:0.8;"/>
   </g>
   <g id="patch_10">
    <path d="M 625.7 612.521875 
L 625.7 328.9 
" style="fill:none;stroke:#000000;stroke-linecap:square;stroke-linejoin:miter;stroke-width:0.8;"/>
   </g>
   <g id="patch_11">
    <path d="M 42.082813 612.521875 
L 625.7 612.521875 
" style="fill:none;stroke:#000000;stroke-linecap:square;stroke-linejoin:miter;stroke-width:0.8;"/>
   </g>
   <g id="patch_12">
    <path d="M 42.082813 328.9 
L 625.7 328.9 
" style="fill:none;stroke:#000000;stroke-linecap:square;stroke-linejoin:miter;stroke-width:0.8;"/>
   </g>
   <g id="legend_2">
    <g id="patch_13">
     <path d="M 49.082813 351.85625 
L 141.132812 351.85625 
Q 143.132812 351.85625 143.132812 349.85625 
L 143.132812 335.9 
Q 143.132812 333.9 141.132812 333.9 
L 49.082813 333.9 
Q 47.082813 333.9 47.082813 335.9 
L 47.082813 349.85625 
Q 47.082813 351.85625 49.082813 351.85625 
z
" style="fill:#ffffff;opacity:0.8;stroke:#cccccc;stroke-linejoin:miter;"/>
    </g>
    <g id="line2d_30">
     <path d="M 51.082813 341.998437 
L 71.082813 341.998437 
" style="fill:none;stroke:#1f77b4;stroke-linecap:square;stroke-width:1.5;"/>
    </g>
    <g id="line2d_31"/>
    <g id="text_27">
     <!-- data_values -->
     <g transform="translate(79.082813 345.498437)scale(0.1 -0.1)">
      <use xlink:href="#DejaVuSans-64"/>
      <use x="63.476562" xlink:href="#DejaVuSans-61"/>
      <use x="124.755859" xlink:href="#DejaVuSans-74"/>
      <use x="163.964844" xlink:href="#DejaVuSans-61"/>
      <use x="225.244141" xlink:href="#DejaVuSans-5f"/>
      <use x="275.244141" xlink:href="#DejaVuSans-76"/>
      <use x="334.423828" xlink:href="#DejaVuSans-61"/>
      <use x="395.703125" xlink:href="#DejaVuSans-6c"/>
      <use x="423.486328" xlink:href="#DejaVuSans-75"/>
      <use x="486.865234" xlink:href="#DejaVuSans-65"/>
      <use x="548.388672" xlink:href="#DejaVuSans-73"/>
     </g>
    </g>
   </g>
  </g>
 </g>
 <defs>
  <clipPath id="p65c23a4b0c">
   <rect height="283.621875" width="583.617188" x="42.082813" y="14.3"/>
  </clipPath>
  <clipPath id="p0864dee904">
   <rect height="283.621875" width="583.617188" x="42.082813" y="328.9"/>
  </clipPath>
 </defs>
</svg>
