<?xml version="1.0" encoding="utf-8" standalone="no"?>
<!DOCTYPE svg PUBLIC "-//W3C//DTD SVG 1.1//EN"
  "http://www.w3.org/Graphics/SVG/1.1/DTD/svg11.dtd">
<!-- Created with matplotlib (http://matplotlib.org/) -->
<svg height="640pt" version="1.1" viewBox="0 0 640 640" width="640pt" xmlns="http://www.w3.org/2000/svg" xmlns:xlink="http://www.w3.org/1999/xlink">
 <defs>
  <style type="text/css">
*{stroke-linecap:butt;stroke-linejoin:round;}
  </style>
 </defs>
 <g id="figure_1">
  <g id="patch_1">
   <path d="M 0 640 
L 640 640 
L 640 0 
L 0 0 
z
" style="fill:#ffffff;"/>
  </g>
  <g id="axes_1">
   <g id="patch_2">
    <path d="M 36.8875 612.521875 
L 624.633818 612.521875 
L 624.633818 14.3 
L 36.8875 14.3 
z
" style="fill:#ffffff;"/>
   </g>
   <g id="matplotlib.axis_1">
    <g id="xtick_1">
     <g id="line2d_1">
      <defs>
       <path d="M 0 0 
L 0 3.5 
" id="m82fb78864c" style="stroke:#000000;stroke-width:0.8;"/>
      </defs>
      <g>
       <use style="stroke:#000000;stroke-width:0.8;" x="63.603242" xlink:href="#m82fb78864c" y="612.521875"/>
      </g>
     </g>
     <g id="text_1">
      <!-- 0 -->
      <defs>
       <path d="M 31.78125 66.40625 
Q 24.171875 66.40625 20.328125 58.90625 
Q 16.5 51.421875 16.5 36.375 
Q 16.5 21.390625 20.328125 13.890625 
Q 24.171875 6.390625 31.78125 6.390625 
Q 39.453125 6.390625 43.28125 13.890625 
Q 47.125 21.390625 47.125 36.375 
Q 47.125 51.421875 43.28125 58.90625 
Q 39.453125 66.40625 31.78125 66.40625 
z
M 31.78125 74.21875 
Q 44.046875 74.21875 50.515625 64.515625 
Q 56.984375 54.828125 56.984375 36.375 
Q 56.984375 17.96875 50.515625 8.265625 
Q 44.046875 -1.421875 31.78125 -1.421875 
Q 19.53125 -1.421875 13.0625 8.265625 
Q 6.59375 17.96875 6.59375 36.375 
Q 6.59375 54.828125 13.0625 64.515625 
Q 19.53125 74.21875 31.78125 74.21875 
z
" id="DejaVuSans-30"/>
      </defs>
      <g transform="translate(60.421992 627.120312)scale(0.1 -0.1)">
       <use xlink:href="#DejaVuSans-30"/>
      </g>
     </g>
    </g>
    <g id="xtick_2">
     <g id="line2d_2">
      <g>
       <use style="stroke:#000000;stroke-width:0.8;" x="132.994779" xlink:href="#m82fb78864c" y="612.521875"/>
      </g>
     </g>
     <g id="text_2">
      <!-- 20 -->
      <defs>
       <path d="M 19.1875 8.296875 
L 53.609375 8.296875 
L 53.609375 0 
L 7.328125 0 
L 7.328125 8.296875 
Q 12.9375 14.109375 22.625 23.890625 
Q 32.328125 33.6875 34.8125 36.53125 
Q 39.546875 41.84375 41.421875 45.53125 
Q 43.3125 49.21875 43.3125 52.78125 
Q 43.3125 58.59375 39.234375 62.25 
Q 35.15625 65.921875 28.609375 65.921875 
Q 23.96875 65.921875 18.8125 64.3125 
Q 13.671875 62.703125 7.8125 59.421875 
L 7.8125 69.390625 
Q 13.765625 71.78125 18.9375 73 
Q 24.125 74.21875 28.421875 74.21875 
Q 39.75 74.21875 46.484375 68.546875 
Q 53.21875 62.890625 53.21875 53.421875 
Q 53.21875 48.921875 51.53125 44.890625 
Q 49.859375 40.875 45.40625 35.40625 
Q 44.1875 33.984375 37.640625 27.21875 
Q 31.109375 20.453125 19.1875 8.296875 
z
" id="DejaVuSans-32"/>
      </defs>
      <g transform="translate(126.632279 627.120312)scale(0.1 -0.1)">
       <use xlink:href="#DejaVuSans-32"/>
       <use x="63.623047" xlink:href="#DejaVuSans-30"/>
      </g>
     </g>
    </g>
    <g id="xtick_3">
     <g id="line2d_3">
      <g>
       <use style="stroke:#000000;stroke-width:0.8;" x="202.386316" xlink:href="#m82fb78864c" y="612.521875"/>
      </g>
     </g>
     <g id="text_3">
      <!-- 40 -->
      <defs>
       <path d="M 37.796875 64.3125 
L 12.890625 25.390625 
L 37.796875 25.390625 
z
M 35.203125 72.90625 
L 47.609375 72.90625 
L 47.609375 25.390625 
L 58.015625 25.390625 
L 58.015625 17.1875 
L 47.609375 17.1875 
L 47.609375 0 
L 37.796875 0 
L 37.796875 17.1875 
L 4.890625 17.1875 
L 4.890625 26.703125 
z
" id="DejaVuSans-34"/>
      </defs>
      <g transform="translate(196.023816 627.120312)scale(0.1 -0.1)">
       <use xlink:href="#DejaVuSans-34"/>
       <use x="63.623047" xlink:href="#DejaVuSans-30"/>
      </g>
     </g>
    </g>
    <g id="xtick_4">
     <g id="line2d_4">
      <g>
       <use style="stroke:#000000;stroke-width:0.8;" x="271.777853" xlink:href="#m82fb78864c" y="612.521875"/>
      </g>
     </g>
     <g id="text_4">
      <!-- 60 -->
      <defs>
       <path d="M 33.015625 40.375 
Q 26.375 40.375 22.484375 35.828125 
Q 18.609375 31.296875 18.609375 23.390625 
Q 18.609375 15.53125 22.484375 10.953125 
Q 26.375 6.390625 33.015625 6.390625 
Q 39.65625 6.390625 43.53125 10.953125 
Q 47.40625 15.53125 47.40625 23.390625 
Q 47.40625 31.296875 43.53125 35.828125 
Q 39.65625 40.375 33.015625 40.375 
z
M 52.59375 71.296875 
L 52.59375 62.3125 
Q 48.875 64.0625 45.09375 64.984375 
Q 41.3125 65.921875 37.59375 65.921875 
Q 27.828125 65.921875 22.671875 59.328125 
Q 17.53125 52.734375 16.796875 39.40625 
Q 19.671875 43.65625 24.015625 45.921875 
Q 28.375 48.1875 33.59375 48.1875 
Q 44.578125 48.1875 50.953125 41.515625 
Q 57.328125 34.859375 57.328125 23.390625 
Q 57.328125 12.15625 50.6875 5.359375 
Q 44.046875 -1.421875 33.015625 -1.421875 
Q 20.359375 -1.421875 13.671875 8.265625 
Q 6.984375 17.96875 6.984375 36.375 
Q 6.984375 53.65625 15.1875 63.9375 
Q 23.390625 74.21875 37.203125 74.21875 
Q 40.921875 74.21875 44.703125 73.484375 
Q 48.484375 72.75 52.59375 71.296875 
z
" id="DejaVuSans-36"/>
      </defs>
      <g transform="translate(265.415353 627.120312)scale(0.1 -0.1)">
       <use xlink:href="#DejaVuSans-36"/>
       <use x="63.623047" xlink:href="#DejaVuSans-30"/>
      </g>
     </g>
    </g>
    <g id="xtick_5">
     <g id="line2d_5">
      <g>
       <use style="stroke:#000000;stroke-width:0.8;" x="341.169389" xlink:href="#m82fb78864c" y="612.521875"/>
      </g>
     </g>
     <g id="text_5">
      <!-- 80 -->
      <defs>
       <path d="M 31.78125 34.625 
Q 24.75 34.625 20.71875 30.859375 
Q 16.703125 27.09375 16.703125 20.515625 
Q 16.703125 13.921875 20.71875 10.15625 
Q 24.75 6.390625 31.78125 6.390625 
Q 38.8125 6.390625 42.859375 10.171875 
Q 46.921875 13.96875 46.921875 20.515625 
Q 46.921875 27.09375 42.890625 30.859375 
Q 38.875 34.625 31.78125 34.625 
z
M 21.921875 38.8125 
Q 15.578125 40.375 12.03125 44.71875 
Q 8.5 49.078125 8.5 55.328125 
Q 8.5 64.0625 14.71875 69.140625 
Q 20.953125 74.21875 31.78125 74.21875 
Q 42.671875 74.21875 48.875 69.140625 
Q 55.078125 64.0625 55.078125 55.328125 
Q 55.078125 49.078125 51.53125 44.71875 
Q 48 40.375 41.703125 38.8125 
Q 48.828125 37.15625 52.796875 32.3125 
Q 56.78125 27.484375 56.78125 20.515625 
Q 56.78125 9.90625 50.3125 4.234375 
Q 43.84375 -1.421875 31.78125 -1.421875 
Q 19.734375 -1.421875 13.25 4.234375 
Q 6.78125 9.90625 6.78125 20.515625 
Q 6.78125 27.484375 10.78125 32.3125 
Q 14.796875 37.15625 21.921875 38.8125 
z
M 18.3125 54.390625 
Q 18.3125 48.734375 21.84375 45.5625 
Q 25.390625 42.390625 31.78125 42.390625 
Q 38.140625 42.390625 41.71875 45.5625 
Q 45.3125 48.734375 45.3125 54.390625 
Q 45.3125 60.0625 41.71875 63.234375 
Q 38.140625 66.40625 31.78125 66.40625 
Q 25.390625 66.40625 21.84375 63.234375 
Q 18.3125 60.0625 18.3125 54.390625 
z
" id="DejaVuSans-38"/>
      </defs>
      <g transform="translate(334.806889 627.120312)scale(0.1 -0.1)">
       <use xlink:href="#DejaVuSans-38"/>
       <use x="63.623047" xlink:href="#DejaVuSans-30"/>
      </g>
     </g>
    </g>
    <g id="xtick_6">
     <g id="line2d_6">
      <g>
       <use style="stroke:#000000;stroke-width:0.8;" x="410.560926" xlink:href="#m82fb78864c" y="612.521875"/>
      </g>
     </g>
     <g id="text_6">
      <!-- 100 -->
      <defs>
       <path d="M 12.40625 8.296875 
L 28.515625 8.296875 
L 28.515625 63.921875 
L 10.984375 60.40625 
L 10.984375 69.390625 
L 28.421875 72.90625 
L 38.28125 72.90625 
L 38.28125 8.296875 
L 54.390625 8.296875 
L 54.390625 0 
L 12.40625 0 
z
" id="DejaVuSans-31"/>
      </defs>
      <g transform="translate(401.017176 627.120312)scale(0.1 -0.1)">
       <use xlink:href="#DejaVuSans-31"/>
       <use x="63.623047" xlink:href="#DejaVuSans-30"/>
       <use x="127.246094" xlink:href="#DejaVuSans-30"/>
      </g>
     </g>
    </g>
    <g id="xtick_7">
     <g id="line2d_7">
      <g>
       <use style="stroke:#000000;stroke-width:0.8;" x="479.952463" xlink:href="#m82fb78864c" y="612.521875"/>
      </g>
     </g>
     <g id="text_7">
      <!-- 120 -->
      <g transform="translate(470.408713 627.120312)scale(0.1 -0.1)">
       <use xlink:href="#DejaVuSans-31"/>
       <use x="63.623047" xlink:href="#DejaVuSans-32"/>
       <use x="127.246094" xlink:href="#DejaVuSans-30"/>
      </g>
     </g>
    </g>
    <g id="xtick_8">
     <g id="line2d_8">
      <g>
       <use style="stroke:#000000;stroke-width:0.8;" x="549.344" xlink:href="#m82fb78864c" y="612.521875"/>
      </g>
     </g>
     <g id="text_8">
      <!-- 140 -->
      <g transform="translate(539.80025 627.120312)scale(0.1 -0.1)">
       <use xlink:href="#DejaVuSans-31"/>
       <use x="63.623047" xlink:href="#DejaVuSans-34"/>
       <use x="127.246094" xlink:href="#DejaVuSans-30"/>
      </g>
     </g>
    </g>
    <g id="xtick_9">
     <g id="line2d_9">
      <g>
       <use style="stroke:#000000;stroke-width:0.8;" x="618.735537" xlink:href="#m82fb78864c" y="612.521875"/>
      </g>
     </g>
     <g id="text_9">
      <!-- 160 -->
      <g transform="translate(609.191787 627.120312)scale(0.1 -0.1)">
       <use xlink:href="#DejaVuSans-31"/>
       <use x="63.623047" xlink:href="#DejaVuSans-36"/>
       <use x="127.246094" xlink:href="#DejaVuSans-30"/>
      </g>
     </g>
    </g>
   </g>
   <g id="matplotlib.axis_2">
    <g id="ytick_1">
     <g id="line2d_10">
      <defs>
       <path d="M 0 0 
L -3.5 0 
" id="m71447f875f" style="stroke:#000000;stroke-width:0.8;"/>
      </defs>
      <g>
       <use style="stroke:#000000;stroke-width:0.8;" x="36.8875" xlink:href="#m71447f875f" y="571.808096"/>
      </g>
     </g>
     <g id="text_10">
      <!-- 450 -->
      <defs>
       <path d="M 10.796875 72.90625 
L 49.515625 72.90625 
L 49.515625 64.59375 
L 19.828125 64.59375 
L 19.828125 46.734375 
Q 21.96875 47.46875 24.109375 47.828125 
Q 26.265625 48.1875 28.421875 48.1875 
Q 40.625 48.1875 47.75 41.5 
Q 54.890625 34.8125 54.890625 23.390625 
Q 54.890625 11.625 47.5625 5.09375 
Q 40.234375 -1.421875 26.90625 -1.421875 
Q 22.3125 -1.421875 17.546875 -0.640625 
Q 12.796875 0.140625 7.71875 1.703125 
L 7.71875 11.625 
Q 12.109375 9.234375 16.796875 8.0625 
Q 21.484375 6.890625 26.703125 6.890625 
Q 35.15625 6.890625 40.078125 11.328125 
Q 45.015625 15.765625 45.015625 23.390625 
Q 45.015625 31 40.078125 35.4375 
Q 35.15625 39.890625 26.703125 39.890625 
Q 22.75 39.890625 18.8125 39.015625 
Q 14.890625 38.140625 10.796875 36.28125 
z
" id="DejaVuSans-35"/>
      </defs>
      <g transform="translate(10.8 575.607315)scale(0.1 -0.1)">
       <use xlink:href="#DejaVuSans-34"/>
       <use x="63.623047" xlink:href="#DejaVuSans-35"/>
       <use x="127.246094" xlink:href="#DejaVuSans-30"/>
      </g>
     </g>
    </g>
    <g id="ytick_2">
     <g id="line2d_11">
      <g>
       <use style="stroke:#000000;stroke-width:0.8;" x="36.8875" xlink:href="#m71447f875f" y="505.000403"/>
      </g>
     </g>
     <g id="text_11">
      <!-- 500 -->
      <g transform="translate(10.8 508.799621)scale(0.1 -0.1)">
       <use xlink:href="#DejaVuSans-35"/>
       <use x="63.623047" xlink:href="#DejaVuSans-30"/>
       <use x="127.246094" xlink:href="#DejaVuSans-30"/>
      </g>
     </g>
    </g>
    <g id="ytick_3">
     <g id="line2d_12">
      <g>
       <use style="stroke:#000000;stroke-width:0.8;" x="36.8875" xlink:href="#m71447f875f" y="438.192709"/>
      </g>
     </g>
     <g id="text_12">
      <!-- 550 -->
      <g transform="translate(10.8 441.991928)scale(0.1 -0.1)">
       <use xlink:href="#DejaVuSans-35"/>
       <use x="63.623047" xlink:href="#DejaVuSans-35"/>
       <use x="127.246094" xlink:href="#DejaVuSans-30"/>
      </g>
     </g>
    </g>
    <g id="ytick_4">
     <g id="line2d_13">
      <g>
       <use style="stroke:#000000;stroke-width:0.8;" x="36.8875" xlink:href="#m71447f875f" y="371.385016"/>
      </g>
     </g>
     <g id="text_13">
      <!-- 600 -->
      <g transform="translate(10.8 375.184235)scale(0.1 -0.1)">
       <use xlink:href="#DejaVuSans-36"/>
       <use x="63.623047" xlink:href="#DejaVuSans-30"/>
       <use x="127.246094" xlink:href="#DejaVuSans-30"/>
      </g>
     </g>
    </g>
    <g id="ytick_5">
     <g id="line2d_14">
      <g>
       <use style="stroke:#000000;stroke-width:0.8;" x="36.8875" xlink:href="#m71447f875f" y="304.577323"/>
      </g>
     </g>
     <g id="text_14">
      <!-- 650 -->
      <g transform="translate(10.8 308.376541)scale(0.1 -0.1)">
       <use xlink:href="#DejaVuSans-36"/>
       <use x="63.623047" xlink:href="#DejaVuSans-35"/>
       <use x="127.246094" xlink:href="#DejaVuSans-30"/>
      </g>
     </g>
    </g>
    <g id="ytick_6">
     <g id="line2d_15">
      <g>
       <use style="stroke:#000000;stroke-width:0.8;" x="36.8875" xlink:href="#m71447f875f" y="237.769629"/>
      </g>
     </g>
     <g id="text_15">
      <!-- 700 -->
      <defs>
       <path d="M 8.203125 72.90625 
L 55.078125 72.90625 
L 55.078125 68.703125 
L 28.609375 0 
L 18.3125 0 
L 43.21875 64.59375 
L 8.203125 64.59375 
z
" id="DejaVuSans-37"/>
      </defs>
      <g transform="translate(10.8 241.568848)scale(0.1 -0.1)">
       <use xlink:href="#DejaVuSans-37"/>
       <use x="63.623047" xlink:href="#DejaVuSans-30"/>
       <use x="127.246094" xlink:href="#DejaVuSans-30"/>
      </g>
     </g>
    </g>
    <g id="ytick_7">
     <g id="line2d_16">
      <g>
       <use style="stroke:#000000;stroke-width:0.8;" x="36.8875" xlink:href="#m71447f875f" y="170.961936"/>
      </g>
     </g>
     <g id="text_16">
      <!-- 750 -->
      <g transform="translate(10.8 174.761155)scale(0.1 -0.1)">
       <use xlink:href="#DejaVuSans-37"/>
       <use x="63.623047" xlink:href="#DejaVuSans-35"/>
       <use x="127.246094" xlink:href="#DejaVuSans-30"/>
      </g>
     </g>
    </g>
    <g id="ytick_8">
     <g id="line2d_17">
      <g>
       <use style="stroke:#000000;stroke-width:0.8;" x="36.8875" xlink:href="#m71447f875f" y="104.154243"/>
      </g>
     </g>
     <g id="text_17">
      <!-- 800 -->
      <g transform="translate(10.8 107.953461)scale(0.1 -0.1)">
       <use xlink:href="#DejaVuSans-38"/>
       <use x="63.623047" xlink:href="#DejaVuSans-30"/>
       <use x="127.246094" xlink:href="#DejaVuSans-30"/>
      </g>
     </g>
    </g>
    <g id="ytick_9">
     <g id="line2d_18">
      <g>
       <use style="stroke:#000000;stroke-width:0.8;" x="36.8875" xlink:href="#m71447f875f" y="37.346549"/>
      </g>
     </g>
     <g id="text_18">
      <!-- 850 -->
      <g transform="translate(10.8 41.145768)scale(0.1 -0.1)">
       <use xlink:href="#DejaVuSans-38"/>
       <use x="63.623047" xlink:href="#DejaVuSans-35"/>
       <use x="127.246094" xlink:href="#DejaVuSans-30"/>
      </g>
     </g>
    </g>
   </g>
   <g id="line2d_19">
    <path clip-path="url(#pc5b8a6ce4d)" d="M 63.603242 388.207157 
L 67.072819 390.438603 
L 70.542395 401.221344 
L 74.011972 395.302173 
L 77.481549 410.440767 
L 80.951126 408.75721 
L 84.420703 405.45696 
L 87.89028 412.739005 
L 91.359856 392.763458 
L 94.829433 381.379451 
L 98.29901 372.173372 
L 101.768587 358.103653 
L 105.238164 363.528455 
L 108.707741 352.825849 
L 112.177318 360.415163 
L 115.646894 365.465833 
L 119.116471 372.854773 
L 122.586048 364.74433 
L 126.055625 362.152167 
L 129.525202 362.112135 
L 132.994779 363.02067 
L 136.464356 352.251272 
L 139.933932 365.63952 
L 143.403509 366.267544 
L 146.873086 370.155788 
L 150.342663 404.828935 
L 153.81224 404.949174 
L 157.281817 391.213555 
L 160.751393 378.025682 
L 164.22097 357.008018 
L 167.690547 362.285821 
L 171.160124 360.976396 
L 174.629701 350.407373 
L 178.099278 341.254742 
L 181.568855 343.446013 
L 185.038431 344.848989 
L 188.508008 343.686562 
L 191.977585 342.390481 
L 195.447162 331.3004 
L 198.916739 329.042266 
L 202.386316 330.19142 
L 205.855892 322.829168 
L 209.325469 307.102652 
L 212.795046 284.334569 
L 216.264623 296.480254 
L 219.7342 279.364106 
L 223.203777 287.701682 
L 226.673354 286.913387 
L 230.14293 270.264922 
L 233.612507 271.440692 
L 237.082084 273.217799 
L 240.551661 286.044886 
L 244.021238 284.214331 
L 247.490815 271.213559 
L 250.960391 277.546895 
L 254.429968 269.476555 
L 257.899545 263.904826 
L 261.369122 287.554756 
L 264.838699 290.427428 
L 268.308276 278.134816 
L 271.777853 260.510953 
L 278.717006 238.063554 
L 282.186583 235.21757 
L 285.65616 234.963678 
L 289.125737 239.506633 
L 292.595314 237.64939 
L 296.06489 250.075585 
L 299.534467 273.124249 
L 303.004044 284.294538 
L 306.473621 262.728984 
L 309.943198 281.729063 
L 313.412775 292.030848 
L 316.882352 289.465446 
L 320.351928 275.916857 
L 323.821505 282.129954 
L 330.760659 320.384005 
L 334.230236 323.483881 
L 337.699813 316.722967 
L 341.169389 333.839115 
L 344.638966 331.687875 
L 348.108543 324.940305 
L 351.57812 304.857934 
L 355.047697 311.779191 
L 358.517274 327.772944 
L 361.986851 358.237236 
L 365.456427 325.915701 
L 368.926004 353.53401 
L 372.395581 348.897574 
L 375.865158 358.638127 
L 379.334735 366.040411 
L 382.804312 377.638207 
L 386.273888 376.008096 
L 389.743465 402.383771 
L 393.213042 391.935058 
L 396.682619 394.300087 
L 400.152196 427.503468 
L 403.621773 454.560614 
L 407.09135 442.121004 
L 410.560926 447.77294 
L 414.030503 447.67939 
L 417.50008 455.723041 
L 420.969657 470.768158 
L 424.439234 468.015653 
L 427.908811 417.174994 
L 431.378388 423.615296 
L 434.847964 422.559693 
L 438.317541 409.46537 
L 441.787118 385.374517 
L 445.256695 391.72127 
L 448.726272 394.179777 
L 452.195849 385.601722 
L 455.665425 391.053213 
L 459.135002 389.837267 
L 462.604579 403.653164 
L 466.074156 453.170982 
L 469.543733 441.880527 
L 473.01331 460.573266 
L 476.482887 465.156325 
L 479.952463 449.696974 
L 483.42204 452.890402 
L 486.891617 465.330012 
L 490.361194 491.919475 
L 493.830771 479.840653 
L 497.300348 459.704764 
L 500.769924 469.846208 
L 504.239501 475.965754 
L 507.709078 479.172526 
L 511.178655 478.050202 
L 514.648232 487.630413 
L 518.117809 484.877908 
L 521.587386 492.186712 
L 525.056962 462.016345 
L 528.526539 439.488811 
L 531.996116 448.748337 
L 535.465693 468.924259 
L 538.93527 473.066322 
L 542.404847 471.182321 
L 545.874423 482.152163 
L 549.344 473.587453 
L 552.813577 477.876444 
L 556.283154 502.662113 
L 559.752731 523.813432 
L 563.222308 496.863251 
L 566.691885 501.419479 
L 570.161461 505.000382 
L 573.631038 498.626943 
L 577.100615 486.280884 
L 580.570192 571.14005 
L 584.039769 585.329972 
L 587.509346 572.035239 
L 590.978922 560.758129 
L 594.448499 562.682162 
L 597.918076 564.472614 
L 597.918076 564.472614 
" style="fill:none;stroke:#000000;stroke-linecap:square;stroke-width:3;"/>
   </g>
   <g id="line2d_20">
    <path clip-path="url(#pc5b8a6ce4d)" d="M 63.603242 320.683474 
L 67.072819 338.157639 
L 70.542395 359.009774 
L 74.011972 336.338712 
L 77.481549 356.231671 
L 80.951126 338.09762 
L 84.420703 349.560009 
L 87.89028 388.858126 
L 91.359856 367.19289 
L 94.829433 384.810684 
L 98.29901 390.35987 
L 101.768587 394.332014 
L 105.238164 404.677944 
L 108.707741 395.646394 
L 112.177318 419.363652 
L 115.646894 431.646218 
L 119.116471 423.550192 
L 122.586048 408.922364 
L 126.055625 443.235946 
L 129.525202 428.260263 
L 132.994779 399.29983 
L 136.464356 309.655951 
L 139.933932 285.636978 
L 143.403509 300.714143 
L 146.873086 313.546877 
L 150.342663 325.325442 
L 153.81224 314.508265 
L 157.281817 284.461348 
L 160.751393 271.363598 
L 164.22097 305.102536 
L 167.690547 316.704072 
L 171.160124 316.790619 
L 174.629701 303.302086 
L 178.099278 299.745578 
L 181.568855 281.603883 
L 185.038431 299.071679 
L 188.508008 318.372089 
L 191.977585 312.457143 
L 195.447162 277.448858 
L 198.916739 270.317289 
L 202.386316 279.738919 
L 205.855892 264.476338 
L 209.325469 235.722311 
L 212.795046 246.988972 
L 216.264623 261.162469 
L 219.7342 230.646022 
L 223.203777 232.05938 
L 226.673354 227.690413 
L 230.14293 227.670153 
L 233.612507 226.317905 
L 237.082084 213.942251 
L 240.551661 233.728039 
L 244.021238 209.227738 
L 247.490815 209.154613 
L 250.960391 217.620919 
L 254.429968 175.696132 
L 257.899545 165.84023 
L 261.369122 181.770431 
L 264.838699 189.091386 
L 268.308276 202.737749 
L 271.777853 183.151064 
L 275.247429 158.503576 
L 278.717006 140.618376 
L 282.186583 158.309118 
L 285.65616 147.71955 
L 289.125737 153.948903 
L 292.595314 169.677428 
L 296.06489 177.539611 
L 299.534467 204.207393 
L 303.004044 214.026502 
L 306.473621 179.828548 
L 309.943198 199.070363 
L 313.412775 198.670561 
L 316.882352 196.250633 
L 320.351928 194.084385 
L 323.821505 176.405561 
L 327.291082 190.914773 
L 330.760659 210.096848 
L 334.230236 249.510593 
L 337.699813 233.226296 
L 341.169389 216.055311 
L 344.638966 205.126774 
L 348.108543 215.357971 
L 351.57812 200.055978 
L 355.047697 202.707559 
L 358.517274 130.969638 
L 361.986851 144.698102 
L 365.456427 137.781264 
L 368.926004 174.808614 
L 372.395581 183.980218 
L 375.865158 199.045276 
L 379.334735 169.968059 
L 382.804312 202.754797 
L 386.273888 184.146919 
L 389.743465 199.79983 
L 393.213042 190.861461 
L 396.682619 188.421666 
L 400.152196 212.462115 
L 403.621773 224.73716 
L 407.09135 224.487565 
L 410.560926 232.590555 
L 414.030503 229.690791 
L 417.50008 260.101341 
L 420.969657 260.092485 
L 424.439234 238.523079 
L 427.908811 231.263079 
L 431.378388 218.841498 
L 434.847964 214.318523 
L 438.317541 207.537775 
L 441.787118 149.639784 
L 445.256695 159.063595 
L 448.726272 151.268989 
L 452.195849 129.730393 
L 455.665425 111.481433 
L 459.135002 126.790407 
L 462.604579 136.600809 
L 466.074156 134.038052 
L 469.543733 139.484818 
L 473.01331 145.845884 
L 476.482887 167.498614 
L 479.952463 149.860604 
L 483.42204 150.115422 
L 490.361194 193.676474 
L 493.830771 169.149536 
L 497.300348 152.628914 
L 500.769924 168.003918 
L 504.239501 148.3186 
L 507.709078 161.550507 
L 511.178655 172.095576 
L 514.648232 192.799626 
L 518.117809 191.242505 
L 521.587386 201.821875 
L 525.056962 177.893701 
L 528.526539 116.766612 
L 531.996116 142.293462 
L 535.465693 138.427618 
L 538.93527 109.433 
L 542.404847 132.489067 
L 545.874423 123.073955 
L 549.344 112.192966 
L 552.813577 98.077543 
L 556.283154 113.607658 
L 559.752731 130.53384 
L 563.222308 129.254441 
L 566.691885 98.309702 
L 570.161461 94.985499 
L 573.631038 114.681687 
L 577.100615 117.634437 
L 580.570192 75.635094 
L 584.039769 41.491903 
L 587.509346 57.490985 
L 590.978922 53.917528 
L 594.448499 56.695936 
L 597.918076 44.1179 
L 597.918076 44.1179 
" style="fill:none;stroke:#ff0000;stroke-linecap:square;stroke-width:2;"/>
   </g>
   <g id="patch_3">
    <path d="M 36.8875 612.521875 
L 36.8875 14.3 
" style="fill:none;stroke:#000000;stroke-linecap:square;stroke-linejoin:miter;stroke-width:0.8;"/>
   </g>
   <g id="patch_4">
    <path d="M 624.633818 612.521875 
L 624.633818 14.3 
" style="fill:none;stroke:#000000;stroke-linecap:square;stroke-linejoin:miter;stroke-width:0.8;"/>
   </g>
   <g id="patch_5">
    <path d="M 36.8875 612.521875 
L 624.633818 612.521875 
" style="fill:none;stroke:#000000;stroke-linecap:square;stroke-linejoin:miter;stroke-width:0.8;"/>
   </g>
   <g id="patch_6">
    <path d="M 36.8875 14.3 
L 624.633818 14.3 
" style="fill:none;stroke:#000000;stroke-linecap:square;stroke-linejoin:miter;stroke-width:0.8;"/>
   </g>
  </g>
 </g>
 <defs>
  <clipPath id="pc5b8a6ce4d">
   <rect height="598.221875" width="587.746318" x="36.8875" y="14.3"/>
  </clipPath>
 </defs>
</svg>
