<?xml version="1.0" encoding="utf-8" standalone="no"?>
<!DOCTYPE svg PUBLIC "-//W3C//DTD SVG 1.1//EN"
  "http://www.w3.org/Graphics/SVG/1.1/DTD/svg11.dtd">
<!-- Created with matplotlib (http://matplotlib.org/) -->
<svg height="262pt" version="1.1" viewBox="0 0 400 262" width="400pt" xmlns="http://www.w3.org/2000/svg" xmlns:xlink="http://www.w3.org/1999/xlink">
 <defs>
  <style type="text/css">
*{stroke-linecap:butt;stroke-linejoin:round;}
  </style>
 </defs>
 <g id="figure_1">
  <g id="patch_1">
   <path d="M 0 262 
L 400 262 
L 400 0 
L 0 0 
z
" style="fill:#ffffff;"/>
  </g>
  <g id="axes_1">
   <g id="patch_2">
    <path d="M 48.445313 193.08256 
L 385.7 193.08256 
L 385.7 14.3 
L 48.445313 14.3 
z
" style="fill:#ffffff;"/>
   </g>
   <g id="matplotlib.axis_1">
    <g id="xtick_1">
     <g id="line2d_1">
      <defs>
       <path d="M 0 0 
L 0 3.5 
" id="mb025d42cc6" style="stroke:#000000;stroke-width:0.8;"/>
      </defs>
      <g>
       <use style="stroke:#000000;stroke-width:0.8;" x="79.911659" xlink:href="#mb025d42cc6" y="193.08256"/>
      </g>
     </g>
     <g id="text_1">
      <!-- 2010-02-07 -->
      <defs>
       <path d="M 19.1875 8.296875 
L 53.609375 8.296875 
L 53.609375 0 
L 7.328125 0 
L 7.328125 8.296875 
Q 12.9375 14.109375 22.625 23.890625 
Q 32.328125 33.6875 34.8125 36.53125 
Q 39.546875 41.84375 41.421875 45.53125 
Q 43.3125 49.21875 43.3125 52.78125 
Q 43.3125 58.59375 39.234375 62.25 
Q 35.15625 65.921875 28.609375 65.921875 
Q 23.96875 65.921875 18.8125 64.3125 
Q 13.671875 62.703125 7.8125 59.421875 
L 7.8125 69.390625 
Q 13.765625 71.78125 18.9375 73 
Q 24.125 74.21875 28.421875 74.21875 
Q 39.75 74.21875 46.484375 68.546875 
Q 53.21875 62.890625 53.21875 53.421875 
Q 53.21875 48.921875 51.53125 44.890625 
Q 49.859375 40.875 45.40625 35.40625 
Q 44.1875 33.984375 37.640625 27.21875 
Q 31.109375 20.453125 19.1875 8.296875 
z
" id="DejaVuSans-32"/>
       <path d="M 31.78125 66.40625 
Q 24.171875 66.40625 20.328125 58.90625 
Q 16.5 51.421875 16.5 36.375 
Q 16.5 21.390625 20.328125 13.890625 
Q 24.171875 6.390625 31.78125 6.390625 
Q 39.453125 6.390625 43.28125 13.890625 
Q 47.125 21.390625 47.125 36.375 
Q 47.125 51.421875 43.28125 58.90625 
Q 39.453125 66.40625 31.78125 66.40625 
z
M 31.78125 74.21875 
Q 44.046875 74.21875 50.515625 64.515625 
Q 56.984375 54.828125 56.984375 36.375 
Q 56.984375 17.96875 50.515625 8.265625 
Q 44.046875 -1.421875 31.78125 -1.421875 
Q 19.53125 -1.421875 13.0625 8.265625 
Q 6.59375 17.96875 6.59375 36.375 
Q 6.59375 54.828125 13.0625 64.515625 
Q 19.53125 74.21875 31.78125 74.21875 
z
" id="DejaVuSans-30"/>
       <path d="M 12.40625 8.296875 
L 28.515625 8.296875 
L 28.515625 63.921875 
L 10.984375 60.40625 
L 10.984375 69.390625 
L 28.421875 72.90625 
L 38.28125 72.90625 
L 38.28125 8.296875 
L 54.390625 8.296875 
L 54.390625 0 
L 12.40625 0 
z
" id="DejaVuSans-31"/>
       <path d="M 4.890625 31.390625 
L 31.203125 31.390625 
L 31.203125 23.390625 
L 4.890625 23.390625 
z
" id="DejaVuSans-2d"/>
       <path d="M 8.203125 72.90625 
L 55.078125 72.90625 
L 55.078125 68.703125 
L 28.609375 0 
L 18.3125 0 
L 43.21875 64.59375 
L 8.203125 64.59375 
z
" id="DejaVuSans-37"/>
      </defs>
      <g transform="translate(28.542208 235.720813)rotate(-30)scale(0.1 -0.1)">
       <use xlink:href="#DejaVuSans-32"/>
       <use x="63.623047" xlink:href="#DejaVuSans-30"/>
       <use x="127.246094" xlink:href="#DejaVuSans-31"/>
       <use x="190.869141" xlink:href="#DejaVuSans-30"/>
       <use x="254.492188" xlink:href="#DejaVuSans-2d"/>
       <use x="290.576172" xlink:href="#DejaVuSans-30"/>
       <use x="354.199219" xlink:href="#DejaVuSans-32"/>
       <use x="417.822266" xlink:href="#DejaVuSans-2d"/>
       <use x="453.90625" xlink:href="#DejaVuSans-30"/>
       <use x="517.529297" xlink:href="#DejaVuSans-37"/>
      </g>
     </g>
    </g>
    <g id="xtick_2">
     <g id="line2d_2">
      <g>
       <use style="stroke:#000000;stroke-width:0.8;" x="117.563697" xlink:href="#mb025d42cc6" y="193.08256"/>
      </g>
     </g>
     <g id="text_2">
      <!-- 2010-02-21 -->
      <g transform="translate(66.194246 235.720813)rotate(-30)scale(0.1 -0.1)">
       <use xlink:href="#DejaVuSans-32"/>
       <use x="63.623047" xlink:href="#DejaVuSans-30"/>
       <use x="127.246094" xlink:href="#DejaVuSans-31"/>
       <use x="190.869141" xlink:href="#DejaVuSans-30"/>
       <use x="254.492188" xlink:href="#DejaVuSans-2d"/>
       <use x="290.576172" xlink:href="#DejaVuSans-30"/>
       <use x="354.199219" xlink:href="#DejaVuSans-32"/>
       <use x="417.822266" xlink:href="#DejaVuSans-2d"/>
       <use x="453.90625" xlink:href="#DejaVuSans-32"/>
       <use x="517.529297" xlink:href="#DejaVuSans-31"/>
      </g>
     </g>
    </g>
    <g id="xtick_3">
     <g id="line2d_3">
      <g>
       <use style="stroke:#000000;stroke-width:0.8;" x="155.215736" xlink:href="#mb025d42cc6" y="193.08256"/>
      </g>
     </g>
     <g id="text_3">
      <!-- 2010-03-07 -->
      <defs>
       <path d="M 40.578125 39.3125 
Q 47.65625 37.796875 51.625 33 
Q 55.609375 28.21875 55.609375 21.1875 
Q 55.609375 10.40625 48.1875 4.484375 
Q 40.765625 -1.421875 27.09375 -1.421875 
Q 22.515625 -1.421875 17.65625 -0.515625 
Q 12.796875 0.390625 7.625 2.203125 
L 7.625 11.71875 
Q 11.71875 9.328125 16.59375 8.109375 
Q 21.484375 6.890625 26.8125 6.890625 
Q 36.078125 6.890625 40.9375 10.546875 
Q 45.796875 14.203125 45.796875 21.1875 
Q 45.796875 27.640625 41.28125 31.265625 
Q 36.765625 34.90625 28.71875 34.90625 
L 20.21875 34.90625 
L 20.21875 43.015625 
L 29.109375 43.015625 
Q 36.375 43.015625 40.234375 45.921875 
Q 44.09375 48.828125 44.09375 54.296875 
Q 44.09375 59.90625 40.109375 62.90625 
Q 36.140625 65.921875 28.71875 65.921875 
Q 24.65625 65.921875 20.015625 65.03125 
Q 15.375 64.15625 9.8125 62.3125 
L 9.8125 71.09375 
Q 15.4375 72.65625 20.34375 73.4375 
Q 25.25 74.21875 29.59375 74.21875 
Q 40.828125 74.21875 47.359375 69.109375 
Q 53.90625 64.015625 53.90625 55.328125 
Q 53.90625 49.265625 50.4375 45.09375 
Q 46.96875 40.921875 40.578125 39.3125 
z
" id="DejaVuSans-33"/>
      </defs>
      <g transform="translate(103.846285 235.720813)rotate(-30)scale(0.1 -0.1)">
       <use xlink:href="#DejaVuSans-32"/>
       <use x="63.623047" xlink:href="#DejaVuSans-30"/>
       <use x="127.246094" xlink:href="#DejaVuSans-31"/>
       <use x="190.869141" xlink:href="#DejaVuSans-30"/>
       <use x="254.492188" xlink:href="#DejaVuSans-2d"/>
       <use x="290.576172" xlink:href="#DejaVuSans-30"/>
       <use x="354.199219" xlink:href="#DejaVuSans-33"/>
       <use x="417.822266" xlink:href="#DejaVuSans-2d"/>
       <use x="453.90625" xlink:href="#DejaVuSans-30"/>
       <use x="517.529297" xlink:href="#DejaVuSans-37"/>
      </g>
     </g>
    </g>
    <g id="xtick_4">
     <g id="line2d_4">
      <g>
       <use style="stroke:#000000;stroke-width:0.8;" x="192.867774" xlink:href="#mb025d42cc6" y="193.08256"/>
      </g>
     </g>
     <g id="text_4">
      <!-- 2010-03-21 -->
      <g transform="translate(141.498323 235.720813)rotate(-30)scale(0.1 -0.1)">
       <use xlink:href="#DejaVuSans-32"/>
       <use x="63.623047" xlink:href="#DejaVuSans-30"/>
       <use x="127.246094" xlink:href="#DejaVuSans-31"/>
       <use x="190.869141" xlink:href="#DejaVuSans-30"/>
       <use x="254.492188" xlink:href="#DejaVuSans-2d"/>
       <use x="290.576172" xlink:href="#DejaVuSans-30"/>
       <use x="354.199219" xlink:href="#DejaVuSans-33"/>
       <use x="417.822266" xlink:href="#DejaVuSans-2d"/>
       <use x="453.90625" xlink:href="#DejaVuSans-32"/>
       <use x="517.529297" xlink:href="#DejaVuSans-31"/>
      </g>
     </g>
    </g>
    <g id="xtick_5">
     <g id="line2d_5">
      <g>
       <use style="stroke:#000000;stroke-width:0.8;" x="230.519813" xlink:href="#mb025d42cc6" y="193.08256"/>
      </g>
     </g>
     <g id="text_5">
      <!-- 2010-04-04 -->
      <defs>
       <path d="M 37.796875 64.3125 
L 12.890625 25.390625 
L 37.796875 25.390625 
z
M 35.203125 72.90625 
L 47.609375 72.90625 
L 47.609375 25.390625 
L 58.015625 25.390625 
L 58.015625 17.1875 
L 47.609375 17.1875 
L 47.609375 0 
L 37.796875 0 
L 37.796875 17.1875 
L 4.890625 17.1875 
L 4.890625 26.703125 
z
" id="DejaVuSans-34"/>
      </defs>
      <g transform="translate(179.150361 235.720813)rotate(-30)scale(0.1 -0.1)">
       <use xlink:href="#DejaVuSans-32"/>
       <use x="63.623047" xlink:href="#DejaVuSans-30"/>
       <use x="127.246094" xlink:href="#DejaVuSans-31"/>
       <use x="190.869141" xlink:href="#DejaVuSans-30"/>
       <use x="254.492188" xlink:href="#DejaVuSans-2d"/>
       <use x="290.576172" xlink:href="#DejaVuSans-30"/>
       <use x="354.199219" xlink:href="#DejaVuSans-34"/>
       <use x="417.822266" xlink:href="#DejaVuSans-2d"/>
       <use x="453.90625" xlink:href="#DejaVuSans-30"/>
       <use x="517.529297" xlink:href="#DejaVuSans-34"/>
      </g>
     </g>
    </g>
    <g id="xtick_6">
     <g id="line2d_6">
      <g>
       <use style="stroke:#000000;stroke-width:0.8;" x="268.171851" xlink:href="#mb025d42cc6" y="193.08256"/>
      </g>
     </g>
     <g id="text_6">
      <!-- 2010-04-18 -->
      <defs>
       <path d="M 31.78125 34.625 
Q 24.75 34.625 20.71875 30.859375 
Q 16.703125 27.09375 16.703125 20.515625 
Q 16.703125 13.921875 20.71875 10.15625 
Q 24.75 6.390625 31.78125 6.390625 
Q 38.8125 6.390625 42.859375 10.171875 
Q 46.921875 13.96875 46.921875 20.515625 
Q 46.921875 27.09375 42.890625 30.859375 
Q 38.875 34.625 31.78125 34.625 
z
M 21.921875 38.8125 
Q 15.578125 40.375 12.03125 44.71875 
Q 8.5 49.078125 8.5 55.328125 
Q 8.5 64.0625 14.71875 69.140625 
Q 20.953125 74.21875 31.78125 74.21875 
Q 42.671875 74.21875 48.875 69.140625 
Q 55.078125 64.0625 55.078125 55.328125 
Q 55.078125 49.078125 51.53125 44.71875 
Q 48 40.375 41.703125 38.8125 
Q 48.828125 37.15625 52.796875 32.3125 
Q 56.78125 27.484375 56.78125 20.515625 
Q 56.78125 9.90625 50.3125 4.234375 
Q 43.84375 -1.421875 31.78125 -1.421875 
Q 19.734375 -1.421875 13.25 4.234375 
Q 6.78125 9.90625 6.78125 20.515625 
Q 6.78125 27.484375 10.78125 32.3125 
Q 14.796875 37.15625 21.921875 38.8125 
z
M 18.3125 54.390625 
Q 18.3125 48.734375 21.84375 45.5625 
Q 25.390625 42.390625 31.78125 42.390625 
Q 38.140625 42.390625 41.71875 45.5625 
Q 45.3125 48.734375 45.3125 54.390625 
Q 45.3125 60.0625 41.71875 63.234375 
Q 38.140625 66.40625 31.78125 66.40625 
Q 25.390625 66.40625 21.84375 63.234375 
Q 18.3125 60.0625 18.3125 54.390625 
z
" id="DejaVuSans-38"/>
      </defs>
      <g transform="translate(216.8024 235.720813)rotate(-30)scale(0.1 -0.1)">
       <use xlink:href="#DejaVuSans-32"/>
       <use x="63.623047" xlink:href="#DejaVuSans-30"/>
       <use x="127.246094" xlink:href="#DejaVuSans-31"/>
       <use x="190.869141" xlink:href="#DejaVuSans-30"/>
       <use x="254.492188" xlink:href="#DejaVuSans-2d"/>
       <use x="290.576172" xlink:href="#DejaVuSans-30"/>
       <use x="354.199219" xlink:href="#DejaVuSans-34"/>
       <use x="417.822266" xlink:href="#DejaVuSans-2d"/>
       <use x="453.90625" xlink:href="#DejaVuSans-31"/>
       <use x="517.529297" xlink:href="#DejaVuSans-38"/>
      </g>
     </g>
    </g>
    <g id="xtick_7">
     <g id="line2d_7">
      <g>
       <use style="stroke:#000000;stroke-width:0.8;" x="305.82389" xlink:href="#mb025d42cc6" y="193.08256"/>
      </g>
     </g>
     <g id="text_7">
      <!-- 2010-05-02 -->
      <defs>
       <path d="M 10.796875 72.90625 
L 49.515625 72.90625 
L 49.515625 64.59375 
L 19.828125 64.59375 
L 19.828125 46.734375 
Q 21.96875 47.46875 24.109375 47.828125 
Q 26.265625 48.1875 28.421875 48.1875 
Q 40.625 48.1875 47.75 41.5 
Q 54.890625 34.8125 54.890625 23.390625 
Q 54.890625 11.625 47.5625 5.09375 
Q 40.234375 -1.421875 26.90625 -1.421875 
Q 22.3125 -1.421875 17.546875 -0.640625 
Q 12.796875 0.140625 7.71875 1.703125 
L 7.71875 11.625 
Q 12.109375 9.234375 16.796875 8.0625 
Q 21.484375 6.890625 26.703125 6.890625 
Q 35.15625 6.890625 40.078125 11.328125 
Q 45.015625 15.765625 45.015625 23.390625 
Q 45.015625 31 40.078125 35.4375 
Q 35.15625 39.890625 26.703125 39.890625 
Q 22.75 39.890625 18.8125 39.015625 
Q 14.890625 38.140625 10.796875 36.28125 
z
" id="DejaVuSans-35"/>
      </defs>
      <g transform="translate(254.454438 235.720813)rotate(-30)scale(0.1 -0.1)">
       <use xlink:href="#DejaVuSans-32"/>
       <use x="63.623047" xlink:href="#DejaVuSans-30"/>
       <use x="127.246094" xlink:href="#DejaVuSans-31"/>
       <use x="190.869141" xlink:href="#DejaVuSans-30"/>
       <use x="254.492188" xlink:href="#DejaVuSans-2d"/>
       <use x="290.576172" xlink:href="#DejaVuSans-30"/>
       <use x="354.199219" xlink:href="#DejaVuSans-35"/>
       <use x="417.822266" xlink:href="#DejaVuSans-2d"/>
       <use x="453.90625" xlink:href="#DejaVuSans-30"/>
       <use x="517.529297" xlink:href="#DejaVuSans-32"/>
      </g>
     </g>
    </g>
    <g id="xtick_8">
     <g id="line2d_8">
      <g>
       <use style="stroke:#000000;stroke-width:0.8;" x="343.475928" xlink:href="#mb025d42cc6" y="193.08256"/>
      </g>
     </g>
     <g id="text_8">
      <!-- 2010-05-16 -->
      <defs>
       <path d="M 33.015625 40.375 
Q 26.375 40.375 22.484375 35.828125 
Q 18.609375 31.296875 18.609375 23.390625 
Q 18.609375 15.53125 22.484375 10.953125 
Q 26.375 6.390625 33.015625 6.390625 
Q 39.65625 6.390625 43.53125 10.953125 
Q 47.40625 15.53125 47.40625 23.390625 
Q 47.40625 31.296875 43.53125 35.828125 
Q 39.65625 40.375 33.015625 40.375 
z
M 52.59375 71.296875 
L 52.59375 62.3125 
Q 48.875 64.0625 45.09375 64.984375 
Q 41.3125 65.921875 37.59375 65.921875 
Q 27.828125 65.921875 22.671875 59.328125 
Q 17.53125 52.734375 16.796875 39.40625 
Q 19.671875 43.65625 24.015625 45.921875 
Q 28.375 48.1875 33.59375 48.1875 
Q 44.578125 48.1875 50.953125 41.515625 
Q 57.328125 34.859375 57.328125 23.390625 
Q 57.328125 12.15625 50.6875 5.359375 
Q 44.046875 -1.421875 33.015625 -1.421875 
Q 20.359375 -1.421875 13.671875 8.265625 
Q 6.984375 17.96875 6.984375 36.375 
Q 6.984375 53.65625 15.1875 63.9375 
Q 23.390625 74.21875 37.203125 74.21875 
Q 40.921875 74.21875 44.703125 73.484375 
Q 48.484375 72.75 52.59375 71.296875 
z
" id="DejaVuSans-36"/>
      </defs>
      <g transform="translate(292.106477 235.720813)rotate(-30)scale(0.1 -0.1)">
       <use xlink:href="#DejaVuSans-32"/>
       <use x="63.623047" xlink:href="#DejaVuSans-30"/>
       <use x="127.246094" xlink:href="#DejaVuSans-31"/>
       <use x="190.869141" xlink:href="#DejaVuSans-30"/>
       <use x="254.492188" xlink:href="#DejaVuSans-2d"/>
       <use x="290.576172" xlink:href="#DejaVuSans-30"/>
       <use x="354.199219" xlink:href="#DejaVuSans-35"/>
       <use x="417.822266" xlink:href="#DejaVuSans-2d"/>
       <use x="453.90625" xlink:href="#DejaVuSans-31"/>
       <use x="517.529297" xlink:href="#DejaVuSans-36"/>
      </g>
     </g>
    </g>
    <g id="xtick_9">
     <g id="line2d_9">
      <g>
       <use style="stroke:#000000;stroke-width:0.8;" x="381.127967" xlink:href="#mb025d42cc6" y="193.08256"/>
      </g>
     </g>
     <g id="text_9">
      <!-- 2010-05-30 -->
      <g transform="translate(329.758515 235.720813)rotate(-30)scale(0.1 -0.1)">
       <use xlink:href="#DejaVuSans-32"/>
       <use x="63.623047" xlink:href="#DejaVuSans-30"/>
       <use x="127.246094" xlink:href="#DejaVuSans-31"/>
       <use x="190.869141" xlink:href="#DejaVuSans-30"/>
       <use x="254.492188" xlink:href="#DejaVuSans-2d"/>
       <use x="290.576172" xlink:href="#DejaVuSans-30"/>
       <use x="354.199219" xlink:href="#DejaVuSans-35"/>
       <use x="417.822266" xlink:href="#DejaVuSans-2d"/>
       <use x="453.90625" xlink:href="#DejaVuSans-33"/>
       <use x="517.529297" xlink:href="#DejaVuSans-30"/>
      </g>
     </g>
    </g>
    <g id="text_10">
     <!-- date -->
     <defs>
      <path d="M 45.40625 46.390625 
L 45.40625 75.984375 
L 54.390625 75.984375 
L 54.390625 0 
L 45.40625 0 
L 45.40625 8.203125 
Q 42.578125 3.328125 38.25 0.953125 
Q 33.9375 -1.421875 27.875 -1.421875 
Q 17.96875 -1.421875 11.734375 6.484375 
Q 5.515625 14.40625 5.515625 27.296875 
Q 5.515625 40.1875 11.734375 48.09375 
Q 17.96875 56 27.875 56 
Q 33.9375 56 38.25 53.625 
Q 42.578125 51.265625 45.40625 46.390625 
z
M 14.796875 27.296875 
Q 14.796875 17.390625 18.875 11.75 
Q 22.953125 6.109375 30.078125 6.109375 
Q 37.203125 6.109375 41.296875 11.75 
Q 45.40625 17.390625 45.40625 27.296875 
Q 45.40625 37.203125 41.296875 42.84375 
Q 37.203125 48.484375 30.078125 48.484375 
Q 22.953125 48.484375 18.875 42.84375 
Q 14.796875 37.203125 14.796875 27.296875 
z
" id="DejaVuSans-64"/>
      <path d="M 34.28125 27.484375 
Q 23.390625 27.484375 19.1875 25 
Q 14.984375 22.515625 14.984375 16.5 
Q 14.984375 11.71875 18.140625 8.90625 
Q 21.296875 6.109375 26.703125 6.109375 
Q 34.1875 6.109375 38.703125 11.40625 
Q 43.21875 16.703125 43.21875 25.484375 
L 43.21875 27.484375 
z
M 52.203125 31.203125 
L 52.203125 0 
L 43.21875 0 
L 43.21875 8.296875 
Q 40.140625 3.328125 35.546875 0.953125 
Q 30.953125 -1.421875 24.3125 -1.421875 
Q 15.921875 -1.421875 10.953125 3.296875 
Q 6 8.015625 6 15.921875 
Q 6 25.140625 12.171875 29.828125 
Q 18.359375 34.515625 30.609375 34.515625 
L 43.21875 34.515625 
L 43.21875 35.40625 
Q 43.21875 41.609375 39.140625 45 
Q 35.0625 48.390625 27.6875 48.390625 
Q 23 48.390625 18.546875 47.265625 
Q 14.109375 46.140625 10.015625 43.890625 
L 10.015625 52.203125 
Q 14.9375 54.109375 19.578125 55.046875 
Q 24.21875 56 28.609375 56 
Q 40.484375 56 46.34375 49.84375 
Q 52.203125 43.703125 52.203125 31.203125 
z
" id="DejaVuSans-61"/>
      <path d="M 18.3125 70.21875 
L 18.3125 54.6875 
L 36.8125 54.6875 
L 36.8125 47.703125 
L 18.3125 47.703125 
L 18.3125 18.015625 
Q 18.3125 11.328125 20.140625 9.421875 
Q 21.96875 7.515625 27.59375 7.515625 
L 36.8125 7.515625 
L 36.8125 0 
L 27.59375 0 
Q 17.1875 0 13.234375 3.875 
Q 9.28125 7.765625 9.28125 18.015625 
L 9.28125 47.703125 
L 2.6875 47.703125 
L 2.6875 54.6875 
L 9.28125 54.6875 
L 9.28125 70.21875 
z
" id="DejaVuSans-74"/>
      <path d="M 56.203125 29.59375 
L 56.203125 25.203125 
L 14.890625 25.203125 
Q 15.484375 15.921875 20.484375 11.0625 
Q 25.484375 6.203125 34.421875 6.203125 
Q 39.59375 6.203125 44.453125 7.46875 
Q 49.3125 8.734375 54.109375 11.28125 
L 54.109375 2.78125 
Q 49.265625 0.734375 44.1875 -0.34375 
Q 39.109375 -1.421875 33.890625 -1.421875 
Q 20.796875 -1.421875 13.15625 6.1875 
Q 5.515625 13.8125 5.515625 26.8125 
Q 5.515625 40.234375 12.765625 48.109375 
Q 20.015625 56 32.328125 56 
Q 43.359375 56 49.78125 48.890625 
Q 56.203125 41.796875 56.203125 29.59375 
z
M 47.21875 32.234375 
Q 47.125 39.59375 43.09375 43.984375 
Q 39.0625 48.390625 32.421875 48.390625 
Q 24.90625 48.390625 20.390625 44.140625 
Q 15.875 39.890625 15.1875 32.171875 
z
" id="DejaVuSans-65"/>
     </defs>
     <g transform="translate(205.797656 249.120313)scale(0.1 -0.1)">
      <use xlink:href="#DejaVuSans-64"/>
      <use x="63.476562" xlink:href="#DejaVuSans-61"/>
      <use x="124.755859" xlink:href="#DejaVuSans-74"/>
      <use x="163.964844" xlink:href="#DejaVuSans-65"/>
     </g>
    </g>
   </g>
   <g id="matplotlib.axis_2">
    <g id="ytick_1">
     <g id="line2d_10">
      <defs>
       <path d="M 0 0 
L -3.5 0 
" id="m65386ab569" style="stroke:#000000;stroke-width:0.8;"/>
      </defs>
      <g>
       <use style="stroke:#000000;stroke-width:0.8;" x="48.445313" xlink:href="#m65386ab569" y="160.767082"/>
      </g>
     </g>
     <g id="text_11">
      <!-- −0.05 -->
      <defs>
       <path d="M 10.59375 35.5 
L 73.1875 35.5 
L 73.1875 27.203125 
L 10.59375 27.203125 
z
" id="DejaVuSans-2212"/>
       <path d="M 10.6875 12.40625 
L 21 12.40625 
L 21 0 
L 10.6875 0 
z
" id="DejaVuSans-2e"/>
      </defs>
      <g transform="translate(10.8 164.566301)scale(0.1 -0.1)">
       <use xlink:href="#DejaVuSans-2212"/>
       <use x="83.789062" xlink:href="#DejaVuSans-30"/>
       <use x="147.412109" xlink:href="#DejaVuSans-2e"/>
       <use x="179.199219" xlink:href="#DejaVuSans-30"/>
       <use x="242.822266" xlink:href="#DejaVuSans-35"/>
      </g>
     </g>
    </g>
    <g id="ytick_2">
     <g id="line2d_11">
      <g>
       <use style="stroke:#000000;stroke-width:0.8;" x="48.445313" xlink:href="#m65386ab569" y="118.875143"/>
      </g>
     </g>
     <g id="text_12">
      <!-- 0.00 -->
      <g transform="translate(19.179688 122.674362)scale(0.1 -0.1)">
       <use xlink:href="#DejaVuSans-30"/>
       <use x="63.623047" xlink:href="#DejaVuSans-2e"/>
       <use x="95.410156" xlink:href="#DejaVuSans-30"/>
       <use x="159.033203" xlink:href="#DejaVuSans-30"/>
      </g>
     </g>
    </g>
    <g id="ytick_3">
     <g id="line2d_12">
      <g>
       <use style="stroke:#000000;stroke-width:0.8;" x="48.445313" xlink:href="#m65386ab569" y="76.983204"/>
      </g>
     </g>
     <g id="text_13">
      <!-- 0.05 -->
      <g transform="translate(19.179688 80.782423)scale(0.1 -0.1)">
       <use xlink:href="#DejaVuSans-30"/>
       <use x="63.623047" xlink:href="#DejaVuSans-2e"/>
       <use x="95.410156" xlink:href="#DejaVuSans-30"/>
       <use x="159.033203" xlink:href="#DejaVuSans-35"/>
      </g>
     </g>
    </g>
    <g id="ytick_4">
     <g id="line2d_13">
      <g>
       <use style="stroke:#000000;stroke-width:0.8;" x="48.445313" xlink:href="#m65386ab569" y="35.091265"/>
      </g>
     </g>
     <g id="text_14">
      <!-- 0.10 -->
      <g transform="translate(19.179688 38.890484)scale(0.1 -0.1)">
       <use xlink:href="#DejaVuSans-30"/>
       <use x="63.623047" xlink:href="#DejaVuSans-2e"/>
       <use x="95.410156" xlink:href="#DejaVuSans-31"/>
       <use x="159.033203" xlink:href="#DejaVuSans-30"/>
      </g>
     </g>
    </g>
   </g>
   <g id="line2d_14">
    <path clip-path="url(#p02252148cd)" d="M 104.116541 171.252413 
L 106.805972 162.816084 
L 109.495403 145.329917 
L 112.184835 172.214913 
L 120.253129 154.470952 
L 122.94256 156.562713 
L 125.631991 144.668118 
L 128.321423 146.668475 
L 131.010854 128.576586 
L 139.079148 119.08858 
L 141.768579 105.223459 
L 144.458011 106.178256 
L 147.147442 102.514139 
L 149.836873 106.662573 
L 157.905167 112.807339 
L 160.594599 126.373216 
L 163.28403 109.212051 
L 165.973461 101.915001 
L 168.662892 91.451363 
L 176.731186 75.910906 
L 179.420618 79.811589 
L 182.110049 80.797273 
L 184.79948 77.357358 
L 187.488912 47.417524 
L 195.557206 52.419336 
L 198.246637 42.075718 
L 200.936068 40.941613 
L 203.6255 45.184745 
L 206.314931 46.936475 
L 214.383225 63.921628 
L 217.072656 66.049972 
L 219.762088 72.188206 
L 222.451519 74.729962 
L 233.209244 89.069815 
L 235.898675 83.982212 
L 238.588107 75.913507 
L 241.277538 77.915928 
L 243.966969 94.020147 
L 252.035263 82.448592 
L 254.724695 81.368674 
L 257.414126 73.256713 
L 260.103557 81.899753 
L 262.792989 83.250305 
L 270.861283 77.402264 
L 273.550714 77.483515 
L 276.240145 76.943921 
L 278.929577 82.485454 
L 281.619008 78.685482 
L 289.687302 79.907959 
L 292.376733 83.06558 
L 295.066165 74.906713 
L 297.755596 67.637632 
L 300.445027 77.852508 
L 308.513321 83.923185 
L 311.202752 96.942423 
L 313.892184 48.769649 
L 316.581615 29.465814 
L 319.271046 22.42648 
L 327.33934 34.990287 
L 330.028772 67.593368 
L 332.718203 74.013774 
L 335.407634 55.341298 
L 338.097066 86.665127 
L 346.16536 73.316204 
L 348.854791 103.52092 
L 351.544222 115.544241 
L 354.233654 150.219649 
L 356.923085 184.95608 
L 364.991379 124.533009 
L 367.68081 118.238627 
L 370.370241 101.933005 
" style="fill:none;stroke:#440154;stroke-linecap:square;stroke-width:1.5;"/>
   </g>
   <g id="line2d_15">
    <path clip-path="url(#p02252148cd)" d="M 66.464502 171.252413 
L 69.153934 162.816084 
L 71.843365 145.329917 
L 74.532796 172.214913 
L 82.60109 154.470952 
L 85.290522 156.562713 
L 87.979953 144.668118 
L 90.669384 146.668475 
L 93.358816 128.576586 
L 104.116541 119.08858 
L 106.805972 105.223459 
L 109.495403 106.178256 
L 112.184835 102.514139 
L 120.253129 106.662573 
L 122.94256 112.807339 
L 125.631991 126.373216 
L 128.321423 109.212051 
L 131.010854 101.915001 
L 139.079148 91.451363 
L 141.768579 75.910906 
L 144.458011 79.811589 
L 147.147442 80.797273 
L 149.836873 77.357358 
L 157.905167 47.417524 
L 160.594599 52.419336 
L 163.28403 42.075718 
L 165.973461 40.941613 
L 168.662892 45.184745 
L 176.731186 46.936475 
L 179.420618 63.921628 
L 182.110049 66.049972 
L 184.79948 72.188206 
L 187.488912 74.729962 
L 195.557206 89.069815 
L 198.246637 83.982212 
L 200.936068 75.913507 
L 203.6255 77.915928 
L 206.314931 94.020147 
L 214.383225 82.448592 
L 217.072656 81.368674 
L 219.762088 73.256713 
L 222.451519 81.899753 
L 233.209244 83.250305 
L 235.898675 77.402264 
L 238.588107 77.483515 
L 241.277538 76.943921 
L 243.966969 82.485454 
L 252.035263 78.685482 
L 254.724695 79.907959 
L 257.414126 83.06558 
L 260.103557 74.906713 
L 262.792989 67.637632 
L 270.861283 77.852508 
L 273.550714 83.923185 
L 276.240145 96.942423 
L 278.929577 48.769649 
L 281.619008 29.465814 
L 289.687302 22.42648 
L 292.376733 34.990287 
L 295.066165 67.593368 
L 297.755596 74.013774 
L 300.445027 55.341298 
L 308.513321 86.665127 
L 311.202752 73.316204 
L 313.892184 103.52092 
L 316.581615 115.544241 
L 319.271046 150.219649 
L 327.33934 184.95608 
L 330.028772 124.533009 
L 332.718203 118.238627 
L 335.407634 101.933005 
L 338.097066 116.365446 
L 346.16536 132.977119 
L 348.854791 132.81272 
L 351.544222 140.441097 
L 354.233654 152.322832 
L 356.923085 183.740746 
L 364.991379 163.559121 
L 367.68081 144.487034 
L 370.370241 146.997727 
" style="fill:none;stroke:#482878;stroke-linecap:square;stroke-width:1.5;"/>
   </g>
   <g id="line2d_16">
    <path clip-path="url(#p02252148cd)" d="M 69.153934 171.252413 
L 71.843365 162.816084 
L 74.532796 145.329917 
L 82.60109 172.214913 
L 85.290522 154.470952 
L 87.979953 156.562713 
L 90.669384 144.668118 
L 93.358816 146.668475 
L 104.116541 128.576586 
L 106.805972 119.08858 
L 109.495403 105.223459 
L 112.184835 106.178256 
L 120.253129 102.514139 
L 122.94256 106.662573 
L 125.631991 112.807339 
L 128.321423 126.373216 
L 131.010854 109.212051 
L 139.079148 101.915001 
L 141.768579 91.451363 
L 144.458011 75.910906 
L 147.147442 79.811589 
L 149.836873 80.797273 
L 157.905167 77.357358 
L 160.594599 47.417524 
L 163.28403 52.419336 
L 165.973461 42.075718 
L 168.662892 40.941613 
L 176.731186 45.184745 
L 179.420618 46.936475 
L 182.110049 63.921628 
L 184.79948 66.049972 
L 187.488912 72.188206 
L 195.557206 74.729962 
L 198.246637 89.069815 
L 200.936068 83.982212 
L 203.6255 75.913507 
L 206.314931 77.915928 
L 214.383225 94.020147 
L 217.072656 82.448592 
L 219.762088 81.368674 
L 222.451519 73.256713 
L 233.209244 81.899753 
L 235.898675 83.250305 
L 238.588107 77.402264 
L 241.277538 77.483515 
L 243.966969 76.943921 
L 252.035263 82.485454 
L 254.724695 78.685482 
L 257.414126 79.907959 
L 260.103557 83.06558 
L 262.792989 74.906713 
L 270.861283 67.637632 
L 273.550714 77.852508 
L 276.240145 83.923185 
L 278.929577 96.942423 
L 281.619008 48.769649 
L 289.687302 29.465814 
L 292.376733 22.42648 
L 295.066165 34.990287 
L 297.755596 67.593368 
L 300.445027 74.013774 
L 308.513321 55.341298 
L 311.202752 86.665127 
L 313.892184 73.316204 
L 316.581615 103.52092 
L 319.271046 115.544241 
L 327.33934 150.219649 
L 330.028772 184.95608 
L 332.718203 124.533009 
L 335.407634 118.238627 
L 338.097066 101.933005 
L 346.16536 116.365446 
L 348.854791 132.977119 
L 351.544222 132.81272 
L 354.233654 140.441097 
L 356.923085 152.322832 
L 364.991379 183.740746 
L 367.68081 163.559121 
L 370.370241 144.487034 
" style="fill:none;stroke:#3e4989;stroke-linecap:square;stroke-width:1.5;"/>
   </g>
   <g id="line2d_17">
    <path clip-path="url(#p02252148cd)" d="M 71.843365 171.252413 
L 74.532796 162.816084 
L 82.60109 145.329917 
L 85.290522 172.214913 
L 87.979953 154.470952 
L 90.669384 156.562713 
L 93.358816 144.668118 
L 104.116541 146.668475 
L 106.805972 128.576586 
L 109.495403 119.08858 
L 112.184835 105.223459 
L 120.253129 106.178256 
L 122.94256 102.514139 
L 125.631991 106.662573 
L 128.321423 112.807339 
L 131.010854 126.373216 
L 139.079148 109.212051 
L 141.768579 101.915001 
L 144.458011 91.451363 
L 147.147442 75.910906 
L 149.836873 79.811589 
L 157.905167 80.797273 
L 160.594599 77.357358 
L 163.28403 47.417524 
L 165.973461 52.419336 
L 168.662892 42.075718 
L 176.731186 40.941613 
L 179.420618 45.184745 
L 182.110049 46.936475 
L 184.79948 63.921628 
L 187.488912 66.049972 
L 195.557206 72.188206 
L 198.246637 74.729962 
L 200.936068 89.069815 
L 203.6255 83.982212 
L 206.314931 75.913507 
L 214.383225 77.915928 
L 217.072656 94.020147 
L 219.762088 82.448592 
L 222.451519 81.368674 
L 233.209244 73.256713 
L 235.898675 81.899753 
L 238.588107 83.250305 
L 241.277538 77.402264 
L 243.966969 77.483515 
L 252.035263 76.943921 
L 254.724695 82.485454 
L 257.414126 78.685482 
L 260.103557 79.907959 
L 262.792989 83.06558 
L 270.861283 74.906713 
L 273.550714 67.637632 
L 276.240145 77.852508 
L 278.929577 83.923185 
L 281.619008 96.942423 
L 289.687302 48.769649 
L 292.376733 29.465814 
L 295.066165 22.42648 
L 297.755596 34.990287 
L 300.445027 67.593368 
L 308.513321 74.013774 
L 311.202752 55.341298 
L 313.892184 86.665127 
L 316.581615 73.316204 
L 319.271046 103.52092 
L 327.33934 115.544241 
L 330.028772 150.219649 
L 332.718203 184.95608 
L 335.407634 124.533009 
L 338.097066 118.238627 
L 346.16536 101.933005 
L 348.854791 116.365446 
L 351.544222 132.977119 
L 354.233654 132.81272 
L 356.923085 140.441097 
L 364.991379 152.322832 
L 367.68081 183.740746 
L 370.370241 163.559121 
" style="fill:none;stroke:#31688e;stroke-linecap:square;stroke-width:1.5;"/>
   </g>
   <g id="line2d_18">
    <path clip-path="url(#p02252148cd)" d="M 74.532796 171.252413 
L 82.60109 162.816084 
L 85.290522 145.329917 
L 87.979953 172.214913 
L 90.669384 154.470952 
L 93.358816 156.562713 
L 104.116541 144.668118 
L 106.805972 146.668475 
L 109.495403 128.576586 
L 112.184835 119.08858 
L 120.253129 105.223459 
L 122.94256 106.178256 
L 125.631991 102.514139 
L 128.321423 106.662573 
L 131.010854 112.807339 
L 139.079148 126.373216 
L 141.768579 109.212051 
L 144.458011 101.915001 
L 147.147442 91.451363 
L 149.836873 75.910906 
L 157.905167 79.811589 
L 160.594599 80.797273 
L 163.28403 77.357358 
L 165.973461 47.417524 
L 168.662892 52.419336 
L 176.731186 42.075718 
L 179.420618 40.941613 
L 182.110049 45.184745 
L 184.79948 46.936475 
L 187.488912 63.921628 
L 195.557206 66.049972 
L 198.246637 72.188206 
L 200.936068 74.729962 
L 203.6255 89.069815 
L 206.314931 83.982212 
L 214.383225 75.913507 
L 217.072656 77.915928 
L 219.762088 94.020147 
L 222.451519 82.448592 
L 233.209244 81.368674 
L 235.898675 73.256713 
L 238.588107 81.899753 
L 241.277538 83.250305 
L 243.966969 77.402264 
L 252.035263 77.483515 
L 254.724695 76.943921 
L 257.414126 82.485454 
L 260.103557 78.685482 
L 262.792989 79.907959 
L 270.861283 83.06558 
L 273.550714 74.906713 
L 276.240145 67.637632 
L 278.929577 77.852508 
L 281.619008 83.923185 
L 289.687302 96.942423 
L 292.376733 48.769649 
L 295.066165 29.465814 
L 297.755596 22.42648 
L 300.445027 34.990287 
L 308.513321 67.593368 
L 311.202752 74.013774 
L 313.892184 55.341298 
L 316.581615 86.665127 
L 319.271046 73.316204 
L 327.33934 103.52092 
L 330.028772 115.544241 
L 332.718203 150.219649 
L 335.407634 184.95608 
L 338.097066 124.533009 
L 346.16536 118.238627 
L 348.854791 101.933005 
L 351.544222 116.365446 
L 354.233654 132.977119 
L 356.923085 132.81272 
L 364.991379 140.441097 
L 367.68081 152.322832 
L 370.370241 183.740746 
" style="fill:none;stroke:#26828e;stroke-linecap:square;stroke-width:1.5;"/>
   </g>
   <g id="line2d_19">
    <path clip-path="url(#p02252148cd)" d="M 82.60109 171.252413 
L 85.290522 162.816084 
L 87.979953 145.329917 
L 90.669384 172.214913 
L 93.358816 154.470952 
L 104.116541 156.562713 
L 106.805972 144.668118 
L 109.495403 146.668475 
L 112.184835 128.576586 
L 120.253129 119.08858 
L 122.94256 105.223459 
L 125.631991 106.178256 
L 128.321423 102.514139 
L 131.010854 106.662573 
L 139.079148 112.807339 
L 141.768579 126.373216 
L 144.458011 109.212051 
L 147.147442 101.915001 
L 149.836873 91.451363 
L 157.905167 75.910906 
L 160.594599 79.811589 
L 163.28403 80.797273 
L 165.973461 77.357358 
L 168.662892 47.417524 
L 176.731186 52.419336 
L 179.420618 42.075718 
L 182.110049 40.941613 
L 184.79948 45.184745 
L 187.488912 46.936475 
L 195.557206 63.921628 
L 198.246637 66.049972 
L 200.936068 72.188206 
L 203.6255 74.729962 
L 206.314931 89.069815 
L 214.383225 83.982212 
L 217.072656 75.913507 
L 219.762088 77.915928 
L 222.451519 94.020147 
L 233.209244 82.448592 
L 235.898675 81.368674 
L 238.588107 73.256713 
L 241.277538 81.899753 
L 243.966969 83.250305 
L 252.035263 77.402264 
L 254.724695 77.483515 
L 257.414126 76.943921 
L 260.103557 82.485454 
L 262.792989 78.685482 
L 270.861283 79.907959 
L 273.550714 83.06558 
L 276.240145 74.906713 
L 278.929577 67.637632 
L 281.619008 77.852508 
L 289.687302 83.923185 
L 292.376733 96.942423 
L 295.066165 48.769649 
L 297.755596 29.465814 
L 300.445027 22.42648 
L 308.513321 34.990287 
L 311.202752 67.593368 
L 313.892184 74.013774 
L 316.581615 55.341298 
L 319.271046 86.665127 
L 327.33934 73.316204 
L 330.028772 103.52092 
L 332.718203 115.544241 
L 335.407634 150.219649 
L 338.097066 184.95608 
L 346.16536 124.533009 
L 348.854791 118.238627 
L 351.544222 101.933005 
L 354.233654 116.365446 
L 356.923085 132.977119 
L 364.991379 132.81272 
L 367.68081 140.441097 
L 370.370241 152.322832 
" style="fill:none;stroke:#1f9e89;stroke-linecap:square;stroke-width:1.5;"/>
   </g>
   <g id="line2d_20">
    <path clip-path="url(#p02252148cd)" d="M 85.290522 171.252413 
L 87.979953 162.816084 
L 90.669384 145.329917 
L 93.358816 172.214913 
L 104.116541 154.470952 
L 106.805972 156.562713 
L 109.495403 144.668118 
L 112.184835 146.668475 
L 120.253129 128.576586 
L 122.94256 119.08858 
L 125.631991 105.223459 
L 128.321423 106.178256 
L 131.010854 102.514139 
L 139.079148 106.662573 
L 141.768579 112.807339 
L 144.458011 126.373216 
L 147.147442 109.212051 
L 149.836873 101.915001 
L 157.905167 91.451363 
L 160.594599 75.910906 
L 163.28403 79.811589 
L 165.973461 80.797273 
L 168.662892 77.357358 
L 176.731186 47.417524 
L 179.420618 52.419336 
L 182.110049 42.075718 
L 184.79948 40.941613 
L 187.488912 45.184745 
L 195.557206 46.936475 
L 198.246637 63.921628 
L 200.936068 66.049972 
L 203.6255 72.188206 
L 206.314931 74.729962 
L 214.383225 89.069815 
L 217.072656 83.982212 
L 219.762088 75.913507 
L 222.451519 77.915928 
L 233.209244 94.020147 
L 235.898675 82.448592 
L 238.588107 81.368674 
L 241.277538 73.256713 
L 243.966969 81.899753 
L 252.035263 83.250305 
L 254.724695 77.402264 
L 257.414126 77.483515 
L 260.103557 76.943921 
L 262.792989 82.485454 
L 270.861283 78.685482 
L 273.550714 79.907959 
L 276.240145 83.06558 
L 278.929577 74.906713 
L 281.619008 67.637632 
L 289.687302 77.852508 
L 292.376733 83.923185 
L 295.066165 96.942423 
L 297.755596 48.769649 
L 300.445027 29.465814 
L 308.513321 22.42648 
L 311.202752 34.990287 
L 313.892184 67.593368 
L 316.581615 74.013774 
L 319.271046 55.341298 
L 327.33934 86.665127 
L 330.028772 73.316204 
L 332.718203 103.52092 
L 335.407634 115.544241 
L 338.097066 150.219649 
L 346.16536 184.95608 
L 348.854791 124.533009 
L 351.544222 118.238627 
L 354.233654 101.933005 
L 356.923085 116.365446 
L 364.991379 132.977119 
L 367.68081 132.81272 
L 370.370241 140.441097 
" style="fill:none;stroke:#35b779;stroke-linecap:square;stroke-width:1.5;"/>
   </g>
   <g id="line2d_21">
    <path clip-path="url(#p02252148cd)" d="M 87.979953 171.252413 
L 90.669384 162.816084 
L 93.358816 145.329917 
L 104.116541 172.214913 
L 106.805972 154.470952 
L 109.495403 156.562713 
L 112.184835 144.668118 
L 120.253129 146.668475 
L 122.94256 128.576586 
L 125.631991 119.08858 
L 128.321423 105.223459 
L 131.010854 106.178256 
L 139.079148 102.514139 
L 141.768579 106.662573 
L 144.458011 112.807339 
L 147.147442 126.373216 
L 149.836873 109.212051 
L 157.905167 101.915001 
L 160.594599 91.451363 
L 163.28403 75.910906 
L 165.973461 79.811589 
L 168.662892 80.797273 
L 176.731186 77.357358 
L 179.420618 47.417524 
L 182.110049 52.419336 
L 184.79948 42.075718 
L 187.488912 40.941613 
L 195.557206 45.184745 
L 198.246637 46.936475 
L 200.936068 63.921628 
L 203.6255 66.049972 
L 206.314931 72.188206 
L 214.383225 74.729962 
L 217.072656 89.069815 
L 219.762088 83.982212 
L 222.451519 75.913507 
L 233.209244 77.915928 
L 235.898675 94.020147 
L 238.588107 82.448592 
L 241.277538 81.368674 
L 243.966969 73.256713 
L 252.035263 81.899753 
L 254.724695 83.250305 
L 257.414126 77.402264 
L 260.103557 77.483515 
L 262.792989 76.943921 
L 270.861283 82.485454 
L 273.550714 78.685482 
L 276.240145 79.907959 
L 278.929577 83.06558 
L 281.619008 74.906713 
L 289.687302 67.637632 
L 292.376733 77.852508 
L 295.066165 83.923185 
L 297.755596 96.942423 
L 300.445027 48.769649 
L 308.513321 29.465814 
L 311.202752 22.42648 
L 313.892184 34.990287 
L 316.581615 67.593368 
L 319.271046 74.013774 
L 327.33934 55.341298 
L 330.028772 86.665127 
L 332.718203 73.316204 
L 335.407634 103.52092 
L 338.097066 115.544241 
L 346.16536 150.219649 
L 348.854791 184.95608 
L 351.544222 124.533009 
L 354.233654 118.238627 
L 356.923085 101.933005 
L 364.991379 116.365446 
L 367.68081 132.977119 
L 370.370241 132.81272 
" style="fill:none;stroke:#6ece58;stroke-linecap:square;stroke-width:1.5;"/>
   </g>
   <g id="line2d_22">
    <path clip-path="url(#p02252148cd)" d="M 90.669384 171.252413 
L 93.358816 162.816084 
L 104.116541 145.329917 
L 106.805972 172.214913 
L 109.495403 154.470952 
L 112.184835 156.562713 
L 120.253129 144.668118 
L 122.94256 146.668475 
L 125.631991 128.576586 
L 128.321423 119.08858 
L 131.010854 105.223459 
L 139.079148 106.178256 
L 141.768579 102.514139 
L 144.458011 106.662573 
L 147.147442 112.807339 
L 149.836873 126.373216 
L 157.905167 109.212051 
L 160.594599 101.915001 
L 163.28403 91.451363 
L 165.973461 75.910906 
L 168.662892 79.811589 
L 176.731186 80.797273 
L 179.420618 77.357358 
L 182.110049 47.417524 
L 184.79948 52.419336 
L 187.488912 42.075718 
L 195.557206 40.941613 
L 198.246637 45.184745 
L 200.936068 46.936475 
L 203.6255 63.921628 
L 206.314931 66.049972 
L 214.383225 72.188206 
L 217.072656 74.729962 
L 219.762088 89.069815 
L 222.451519 83.982212 
L 233.209244 75.913507 
L 235.898675 77.915928 
L 238.588107 94.020147 
L 241.277538 82.448592 
L 243.966969 81.368674 
L 252.035263 73.256713 
L 254.724695 81.899753 
L 257.414126 83.250305 
L 260.103557 77.402264 
L 262.792989 77.483515 
L 270.861283 76.943921 
L 273.550714 82.485454 
L 276.240145 78.685482 
L 278.929577 79.907959 
L 281.619008 83.06558 
L 289.687302 74.906713 
L 292.376733 67.637632 
L 295.066165 77.852508 
L 297.755596 83.923185 
L 300.445027 96.942423 
L 308.513321 48.769649 
L 311.202752 29.465814 
L 313.892184 22.42648 
L 316.581615 34.990287 
L 319.271046 67.593368 
L 327.33934 74.013774 
L 330.028772 55.341298 
L 332.718203 86.665127 
L 335.407634 73.316204 
L 338.097066 103.52092 
L 346.16536 115.544241 
L 348.854791 150.219649 
L 351.544222 184.95608 
L 354.233654 124.533009 
L 356.923085 118.238627 
L 364.991379 101.933005 
L 367.68081 116.365446 
L 370.370241 132.977119 
" style="fill:none;stroke:#b5de2b;stroke-linecap:square;stroke-width:1.5;"/>
   </g>
   <g id="line2d_23">
    <path clip-path="url(#p02252148cd)" d="M 93.358816 171.252413 
L 104.116541 162.816084 
L 106.805972 145.329917 
L 109.495403 172.214913 
L 112.184835 154.470952 
L 120.253129 156.562713 
L 122.94256 144.668118 
L 125.631991 146.668475 
L 128.321423 128.576586 
L 131.010854 119.08858 
L 139.079148 105.223459 
L 141.768579 106.178256 
L 144.458011 102.514139 
L 147.147442 106.662573 
L 149.836873 112.807339 
L 157.905167 126.373216 
L 160.594599 109.212051 
L 163.28403 101.915001 
L 165.973461 91.451363 
L 168.662892 75.910906 
L 176.731186 79.811589 
L 179.420618 80.797273 
L 182.110049 77.357358 
L 184.79948 47.417524 
L 187.488912 52.419336 
L 195.557206 42.075718 
L 198.246637 40.941613 
L 200.936068 45.184745 
L 203.6255 46.936475 
L 206.314931 63.921628 
L 214.383225 66.049972 
L 217.072656 72.188206 
L 219.762088 74.729962 
L 222.451519 89.069815 
L 233.209244 83.982212 
L 235.898675 75.913507 
L 238.588107 77.915928 
L 241.277538 94.020147 
L 243.966969 82.448592 
L 252.035263 81.368674 
L 254.724695 73.256713 
L 257.414126 81.899753 
L 260.103557 83.250305 
L 262.792989 77.402264 
L 270.861283 77.483515 
L 273.550714 76.943921 
L 276.240145 82.485454 
L 278.929577 78.685482 
L 281.619008 79.907959 
L 289.687302 83.06558 
L 292.376733 74.906713 
L 295.066165 67.637632 
L 297.755596 77.852508 
L 300.445027 83.923185 
L 308.513321 96.942423 
L 311.202752 48.769649 
L 313.892184 29.465814 
L 316.581615 22.42648 
L 319.271046 34.990287 
L 327.33934 67.593368 
L 330.028772 74.013774 
L 332.718203 55.341298 
L 335.407634 86.665127 
L 338.097066 73.316204 
L 346.16536 103.52092 
L 348.854791 115.544241 
L 351.544222 150.219649 
L 354.233654 184.95608 
L 356.923085 124.533009 
L 364.991379 118.238627 
L 367.68081 101.933005 
L 370.370241 116.365446 
" style="fill:none;stroke:#fde725;stroke-linecap:square;stroke-width:1.5;"/>
   </g>
   <g id="line2d_24">
    <path clip-path="url(#p02252148cd)" d="M 63.775071 171.252413 
L 66.464502 162.816084 
L 69.153934 145.329917 
L 71.843365 172.214913 
L 74.532796 154.470952 
L 82.60109 156.562713 
L 85.290522 144.668118 
L 87.979953 146.668475 
L 90.669384 128.576586 
L 93.358816 119.08858 
L 104.116541 105.223459 
L 106.805972 106.178256 
L 109.495403 102.514139 
L 112.184835 106.662573 
L 120.253129 112.807339 
L 122.94256 126.373216 
L 125.631991 109.212051 
L 128.321423 101.915001 
L 131.010854 91.451363 
L 139.079148 75.910906 
L 141.768579 79.811589 
L 144.458011 80.797273 
L 147.147442 77.357358 
L 149.836873 47.417524 
L 157.905167 52.419336 
L 160.594599 42.075718 
L 163.28403 40.941613 
L 165.973461 45.184745 
L 168.662892 46.936475 
L 176.731186 63.921628 
L 179.420618 66.049972 
L 182.110049 72.188206 
L 184.79948 74.729962 
L 187.488912 89.069815 
L 195.557206 83.982212 
L 198.246637 75.913507 
L 200.936068 77.915928 
L 203.6255 94.020147 
L 206.314931 82.448592 
L 214.383225 81.368674 
L 217.072656 73.256713 
L 219.762088 81.899753 
L 222.451519 83.250305 
L 233.209244 77.402264 
L 235.898675 77.483515 
L 238.588107 76.943921 
L 241.277538 82.485454 
L 243.966969 78.685482 
L 252.035263 79.907959 
L 254.724695 83.06558 
L 257.414126 74.906713 
L 260.103557 67.637632 
L 262.792989 77.852508 
L 270.861283 83.923185 
L 273.550714 96.942423 
L 276.240145 48.769649 
L 278.929577 29.465814 
L 281.619008 22.42648 
L 289.687302 34.990287 
L 292.376733 67.593368 
L 295.066165 74.013774 
L 297.755596 55.341298 
L 300.445027 86.665127 
L 308.513321 73.316204 
L 311.202752 103.52092 
L 313.892184 115.544241 
L 316.581615 150.219649 
L 319.271046 184.95608 
L 327.33934 124.533009 
L 330.028772 118.238627 
L 332.718203 101.933005 
L 335.407634 116.365446 
L 338.097066 132.977119 
L 346.16536 132.81272 
L 348.854791 140.441097 
L 351.544222 152.322832 
L 354.233654 183.740746 
L 356.923085 163.559121 
L 364.991379 144.487034 
L 367.68081 146.997727 
L 370.370241 147.914981 
" style="fill:none;stroke:#ff0000;stroke-linecap:square;stroke-width:2;"/>
   </g>
   <g id="patch_3">
    <path d="M 48.445313 193.08256 
L 48.445313 14.3 
" style="fill:none;stroke:#000000;stroke-linecap:square;stroke-linejoin:miter;stroke-width:0.8;"/>
   </g>
   <g id="patch_4">
    <path d="M 385.7 193.08256 
L 385.7 14.3 
" style="fill:none;stroke:#000000;stroke-linecap:square;stroke-linejoin:miter;stroke-width:0.8;"/>
   </g>
   <g id="patch_5">
    <path d="M 48.445312 193.08256 
L 385.7 193.08256 
" style="fill:none;stroke:#000000;stroke-linecap:square;stroke-linejoin:miter;stroke-width:0.8;"/>
   </g>
   <g id="patch_6">
    <path d="M 48.445312 14.3 
L 385.7 14.3 
" style="fill:none;stroke:#000000;stroke-linecap:square;stroke-linejoin:miter;stroke-width:0.8;"/>
   </g>
   <g id="legend_1">
    <g id="patch_7">
     <path d="M 55.445313 186.540625 
L 143.820312 186.540625 
Q 145.820312 186.540625 145.820312 184.540625 
L 145.820312 21.3 
Q 145.820312 19.3 143.820312 19.3 
L 55.445313 19.3 
Q 53.445313 19.3 53.445313 21.3 
L 53.445313 184.540625 
Q 53.445313 186.540625 55.445313 186.540625 
z
" style="fill:#ffffff;opacity:0.8;stroke:#cccccc;stroke-linejoin:miter;"/>
    </g>
    <g id="line2d_25">
     <path d="M 57.445313 27.398437 
L 77.445312 27.398437 
" style="fill:none;stroke:#440154;stroke-linecap:square;stroke-width:1.5;"/>
    </g>
    <g id="line2d_26"/>
    <g id="text_15">
     <!-- lag_10_day -->
     <defs>
      <path d="M 9.421875 75.984375 
L 18.40625 75.984375 
L 18.40625 0 
L 9.421875 0 
z
" id="DejaVuSans-6c"/>
      <path d="M 45.40625 27.984375 
Q 45.40625 37.75 41.375 43.109375 
Q 37.359375 48.484375 30.078125 48.484375 
Q 22.859375 48.484375 18.828125 43.109375 
Q 14.796875 37.75 14.796875 27.984375 
Q 14.796875 18.265625 18.828125 12.890625 
Q 22.859375 7.515625 30.078125 7.515625 
Q 37.359375 7.515625 41.375 12.890625 
Q 45.40625 18.265625 45.40625 27.984375 
z
M 54.390625 6.78125 
Q 54.390625 -7.171875 48.1875 -13.984375 
Q 42 -20.796875 29.203125 -20.796875 
Q 24.46875 -20.796875 20.265625 -20.09375 
Q 16.0625 -19.390625 12.109375 -17.921875 
L 12.109375 -9.1875 
Q 16.0625 -11.328125 19.921875 -12.34375 
Q 23.78125 -13.375 27.78125 -13.375 
Q 36.625 -13.375 41.015625 -8.765625 
Q 45.40625 -4.15625 45.40625 5.171875 
L 45.40625 9.625 
Q 42.625 4.78125 38.28125 2.390625 
Q 33.9375 0 27.875 0 
Q 17.828125 0 11.671875 7.65625 
Q 5.515625 15.328125 5.515625 27.984375 
Q 5.515625 40.671875 11.671875 48.328125 
Q 17.828125 56 27.875 56 
Q 33.9375 56 38.28125 53.609375 
Q 42.625 51.21875 45.40625 46.390625 
L 45.40625 54.6875 
L 54.390625 54.6875 
z
" id="DejaVuSans-67"/>
      <path d="M 50.984375 -16.609375 
L 50.984375 -23.578125 
L -0.984375 -23.578125 
L -0.984375 -16.609375 
z
" id="DejaVuSans-5f"/>
      <path d="M 32.171875 -5.078125 
Q 28.375 -14.84375 24.75 -17.8125 
Q 21.140625 -20.796875 15.09375 -20.796875 
L 7.90625 -20.796875 
L 7.90625 -13.28125 
L 13.1875 -13.28125 
Q 16.890625 -13.28125 18.9375 -11.515625 
Q 21 -9.765625 23.484375 -3.21875 
L 25.09375 0.875 
L 2.984375 54.6875 
L 12.5 54.6875 
L 29.59375 11.921875 
L 46.6875 54.6875 
L 56.203125 54.6875 
z
" id="DejaVuSans-79"/>
     </defs>
     <g transform="translate(85.445312 30.898437)scale(0.1 -0.1)">
      <use xlink:href="#DejaVuSans-6c"/>
      <use x="27.783203" xlink:href="#DejaVuSans-61"/>
      <use x="89.0625" xlink:href="#DejaVuSans-67"/>
      <use x="152.539062" xlink:href="#DejaVuSans-5f"/>
      <use x="202.539062" xlink:href="#DejaVuSans-31"/>
      <use x="266.162109" xlink:href="#DejaVuSans-30"/>
      <use x="329.785156" xlink:href="#DejaVuSans-5f"/>
      <use x="379.785156" xlink:href="#DejaVuSans-64"/>
      <use x="443.261719" xlink:href="#DejaVuSans-61"/>
      <use x="504.541016" xlink:href="#DejaVuSans-79"/>
     </g>
    </g>
    <g id="line2d_27">
     <path d="M 57.445313 42.354687 
L 77.445312 42.354687 
" style="fill:none;stroke:#482878;stroke-linecap:square;stroke-width:1.5;"/>
    </g>
    <g id="line2d_28"/>
    <g id="text_16">
     <!-- lag_1_day -->
     <g transform="translate(85.445312 45.854687)scale(0.1 -0.1)">
      <use xlink:href="#DejaVuSans-6c"/>
      <use x="27.783203" xlink:href="#DejaVuSans-61"/>
      <use x="89.0625" xlink:href="#DejaVuSans-67"/>
      <use x="152.539062" xlink:href="#DejaVuSans-5f"/>
      <use x="202.539062" xlink:href="#DejaVuSans-31"/>
      <use x="266.162109" xlink:href="#DejaVuSans-5f"/>
      <use x="316.162109" xlink:href="#DejaVuSans-64"/>
      <use x="379.638672" xlink:href="#DejaVuSans-61"/>
      <use x="440.917969" xlink:href="#DejaVuSans-79"/>
     </g>
    </g>
    <g id="line2d_29">
     <path d="M 57.445313 57.310937 
L 77.445312 57.310937 
" style="fill:none;stroke:#3e4989;stroke-linecap:square;stroke-width:1.5;"/>
    </g>
    <g id="line2d_30"/>
    <g id="text_17">
     <!-- lag_2_day -->
     <g transform="translate(85.445312 60.810937)scale(0.1 -0.1)">
      <use xlink:href="#DejaVuSans-6c"/>
      <use x="27.783203" xlink:href="#DejaVuSans-61"/>
      <use x="89.0625" xlink:href="#DejaVuSans-67"/>
      <use x="152.539062" xlink:href="#DejaVuSans-5f"/>
      <use x="202.539062" xlink:href="#DejaVuSans-32"/>
      <use x="266.162109" xlink:href="#DejaVuSans-5f"/>
      <use x="316.162109" xlink:href="#DejaVuSans-64"/>
      <use x="379.638672" xlink:href="#DejaVuSans-61"/>
      <use x="440.917969" xlink:href="#DejaVuSans-79"/>
     </g>
    </g>
    <g id="line2d_31">
     <path d="M 57.445313 72.267187 
L 77.445312 72.267187 
" style="fill:none;stroke:#31688e;stroke-linecap:square;stroke-width:1.5;"/>
    </g>
    <g id="line2d_32"/>
    <g id="text_18">
     <!-- lag_3_day -->
     <g transform="translate(85.445312 75.767187)scale(0.1 -0.1)">
      <use xlink:href="#DejaVuSans-6c"/>
      <use x="27.783203" xlink:href="#DejaVuSans-61"/>
      <use x="89.0625" xlink:href="#DejaVuSans-67"/>
      <use x="152.539062" xlink:href="#DejaVuSans-5f"/>
      <use x="202.539062" xlink:href="#DejaVuSans-33"/>
      <use x="266.162109" xlink:href="#DejaVuSans-5f"/>
      <use x="316.162109" xlink:href="#DejaVuSans-64"/>
      <use x="379.638672" xlink:href="#DejaVuSans-61"/>
      <use x="440.917969" xlink:href="#DejaVuSans-79"/>
     </g>
    </g>
    <g id="line2d_33">
     <path d="M 57.445313 87.223437 
L 77.445312 87.223437 
" style="fill:none;stroke:#26828e;stroke-linecap:square;stroke-width:1.5;"/>
    </g>
    <g id="line2d_34"/>
    <g id="text_19">
     <!-- lag_4_day -->
     <g transform="translate(85.445312 90.723437)scale(0.1 -0.1)">
      <use xlink:href="#DejaVuSans-6c"/>
      <use x="27.783203" xlink:href="#DejaVuSans-61"/>
      <use x="89.0625" xlink:href="#DejaVuSans-67"/>
      <use x="152.539062" xlink:href="#DejaVuSans-5f"/>
      <use x="202.539062" xlink:href="#DejaVuSans-34"/>
      <use x="266.162109" xlink:href="#DejaVuSans-5f"/>
      <use x="316.162109" xlink:href="#DejaVuSans-64"/>
      <use x="379.638672" xlink:href="#DejaVuSans-61"/>
      <use x="440.917969" xlink:href="#DejaVuSans-79"/>
     </g>
    </g>
    <g id="line2d_35">
     <path d="M 57.445313 102.179688 
L 77.445312 102.179688 
" style="fill:none;stroke:#1f9e89;stroke-linecap:square;stroke-width:1.5;"/>
    </g>
    <g id="line2d_36"/>
    <g id="text_20">
     <!-- lag_5_day -->
     <g transform="translate(85.445312 105.679688)scale(0.1 -0.1)">
      <use xlink:href="#DejaVuSans-6c"/>
      <use x="27.783203" xlink:href="#DejaVuSans-61"/>
      <use x="89.0625" xlink:href="#DejaVuSans-67"/>
      <use x="152.539062" xlink:href="#DejaVuSans-5f"/>
      <use x="202.539062" xlink:href="#DejaVuSans-35"/>
      <use x="266.162109" xlink:href="#DejaVuSans-5f"/>
      <use x="316.162109" xlink:href="#DejaVuSans-64"/>
      <use x="379.638672" xlink:href="#DejaVuSans-61"/>
      <use x="440.917969" xlink:href="#DejaVuSans-79"/>
     </g>
    </g>
    <g id="line2d_37">
     <path d="M 57.445313 117.135937 
L 77.445312 117.135937 
" style="fill:none;stroke:#35b779;stroke-linecap:square;stroke-width:1.5;"/>
    </g>
    <g id="line2d_38"/>
    <g id="text_21">
     <!-- lag_6_day -->
     <g transform="translate(85.445312 120.635937)scale(0.1 -0.1)">
      <use xlink:href="#DejaVuSans-6c"/>
      <use x="27.783203" xlink:href="#DejaVuSans-61"/>
      <use x="89.0625" xlink:href="#DejaVuSans-67"/>
      <use x="152.539062" xlink:href="#DejaVuSans-5f"/>
      <use x="202.539062" xlink:href="#DejaVuSans-36"/>
      <use x="266.162109" xlink:href="#DejaVuSans-5f"/>
      <use x="316.162109" xlink:href="#DejaVuSans-64"/>
      <use x="379.638672" xlink:href="#DejaVuSans-61"/>
      <use x="440.917969" xlink:href="#DejaVuSans-79"/>
     </g>
    </g>
    <g id="line2d_39">
     <path d="M 57.445313 132.092187 
L 77.445312 132.092187 
" style="fill:none;stroke:#6ece58;stroke-linecap:square;stroke-width:1.5;"/>
    </g>
    <g id="line2d_40"/>
    <g id="text_22">
     <!-- lag_7_day -->
     <g transform="translate(85.445312 135.592187)scale(0.1 -0.1)">
      <use xlink:href="#DejaVuSans-6c"/>
      <use x="27.783203" xlink:href="#DejaVuSans-61"/>
      <use x="89.0625" xlink:href="#DejaVuSans-67"/>
      <use x="152.539062" xlink:href="#DejaVuSans-5f"/>
      <use x="202.539062" xlink:href="#DejaVuSans-37"/>
      <use x="266.162109" xlink:href="#DejaVuSans-5f"/>
      <use x="316.162109" xlink:href="#DejaVuSans-64"/>
      <use x="379.638672" xlink:href="#DejaVuSans-61"/>
      <use x="440.917969" xlink:href="#DejaVuSans-79"/>
     </g>
    </g>
    <g id="line2d_41">
     <path d="M 57.445313 147.048437 
L 77.445312 147.048437 
" style="fill:none;stroke:#b5de2b;stroke-linecap:square;stroke-width:1.5;"/>
    </g>
    <g id="line2d_42"/>
    <g id="text_23">
     <!-- lag_8_day -->
     <g transform="translate(85.445312 150.548437)scale(0.1 -0.1)">
      <use xlink:href="#DejaVuSans-6c"/>
      <use x="27.783203" xlink:href="#DejaVuSans-61"/>
      <use x="89.0625" xlink:href="#DejaVuSans-67"/>
      <use x="152.539062" xlink:href="#DejaVuSans-5f"/>
      <use x="202.539062" xlink:href="#DejaVuSans-38"/>
      <use x="266.162109" xlink:href="#DejaVuSans-5f"/>
      <use x="316.162109" xlink:href="#DejaVuSans-64"/>
      <use x="379.638672" xlink:href="#DejaVuSans-61"/>
      <use x="440.917969" xlink:href="#DejaVuSans-79"/>
     </g>
    </g>
    <g id="line2d_43">
     <path d="M 57.445313 162.004687 
L 77.445312 162.004687 
" style="fill:none;stroke:#fde725;stroke-linecap:square;stroke-width:1.5;"/>
    </g>
    <g id="line2d_44"/>
    <g id="text_24">
     <!-- lag_9_day -->
     <defs>
      <path d="M 10.984375 1.515625 
L 10.984375 10.5 
Q 14.703125 8.734375 18.5 7.8125 
Q 22.3125 6.890625 25.984375 6.890625 
Q 35.75 6.890625 40.890625 13.453125 
Q 46.046875 20.015625 46.78125 33.40625 
Q 43.953125 29.203125 39.59375 26.953125 
Q 35.25 24.703125 29.984375 24.703125 
Q 19.046875 24.703125 12.671875 31.3125 
Q 6.296875 37.9375 6.296875 49.421875 
Q 6.296875 60.640625 12.9375 67.421875 
Q 19.578125 74.21875 30.609375 74.21875 
Q 43.265625 74.21875 49.921875 64.515625 
Q 56.59375 54.828125 56.59375 36.375 
Q 56.59375 19.140625 48.40625 8.859375 
Q 40.234375 -1.421875 26.421875 -1.421875 
Q 22.703125 -1.421875 18.890625 -0.6875 
Q 15.09375 0.046875 10.984375 1.515625 
z
M 30.609375 32.421875 
Q 37.25 32.421875 41.125 36.953125 
Q 45.015625 41.5 45.015625 49.421875 
Q 45.015625 57.28125 41.125 61.84375 
Q 37.25 66.40625 30.609375 66.40625 
Q 23.96875 66.40625 20.09375 61.84375 
Q 16.21875 57.28125 16.21875 49.421875 
Q 16.21875 41.5 20.09375 36.953125 
Q 23.96875 32.421875 30.609375 32.421875 
z
" id="DejaVuSans-39"/>
     </defs>
     <g transform="translate(85.445312 165.504687)scale(0.1 -0.1)">
      <use xlink:href="#DejaVuSans-6c"/>
      <use x="27.783203" xlink:href="#DejaVuSans-61"/>
      <use x="89.0625" xlink:href="#DejaVuSans-67"/>
      <use x="152.539062" xlink:href="#DejaVuSans-5f"/>
      <use x="202.539062" xlink:href="#DejaVuSans-39"/>
      <use x="266.162109" xlink:href="#DejaVuSans-5f"/>
      <use x="316.162109" xlink:href="#DejaVuSans-64"/>
      <use x="379.638672" xlink:href="#DejaVuSans-61"/>
      <use x="440.917969" xlink:href="#DejaVuSans-79"/>
     </g>
    </g>
    <g id="line2d_45">
     <path d="M 57.445313 176.960937 
L 77.445312 176.960937 
" style="fill:none;stroke:#ff0000;stroke-linecap:square;stroke-width:2;"/>
    </g>
    <g id="line2d_46"/>
    <g id="text_25">
     <!-- AAPL -->
     <defs>
      <path d="M 34.1875 63.1875 
L 20.796875 26.90625 
L 47.609375 26.90625 
z
M 28.609375 72.90625 
L 39.796875 72.90625 
L 67.578125 0 
L 57.328125 0 
L 50.6875 18.703125 
L 17.828125 18.703125 
L 11.1875 0 
L 0.78125 0 
z
" id="DejaVuSans-41"/>
      <path d="M 19.671875 64.796875 
L 19.671875 37.40625 
L 32.078125 37.40625 
Q 38.96875 37.40625 42.71875 40.96875 
Q 46.484375 44.53125 46.484375 51.125 
Q 46.484375 57.671875 42.71875 61.234375 
Q 38.96875 64.796875 32.078125 64.796875 
z
M 9.8125 72.90625 
L 32.078125 72.90625 
Q 44.34375 72.90625 50.609375 67.359375 
Q 56.890625 61.8125 56.890625 51.125 
Q 56.890625 40.328125 50.609375 34.8125 
Q 44.34375 29.296875 32.078125 29.296875 
L 19.671875 29.296875 
L 19.671875 0 
L 9.8125 0 
z
" id="DejaVuSans-50"/>
      <path d="M 9.8125 72.90625 
L 19.671875 72.90625 
L 19.671875 8.296875 
L 55.171875 8.296875 
L 55.171875 0 
L 9.8125 0 
z
" id="DejaVuSans-4c"/>
     </defs>
     <g transform="translate(85.445312 180.460937)scale(0.1 -0.1)">
      <use xlink:href="#DejaVuSans-41"/>
      <use x="68.439453" xlink:href="#DejaVuSans-41"/>
      <use x="136.847656" xlink:href="#DejaVuSans-50"/>
      <use x="197.150391" xlink:href="#DejaVuSans-4c"/>
     </g>
    </g>
   </g>
  </g>
 </g>
 <defs>
  <clipPath id="p02252148cd">
   <rect height="178.78256" width="337.254687" x="48.445313" y="14.3"/>
  </clipPath>
 </defs>
</svg>
