<?xml version="1.0" encoding="utf-8" standalone="no"?>
<!DOCTYPE svg PUBLIC "-//W3C//DTD SVG 1.1//EN"
  "http://www.w3.org/Graphics/SVG/1.1/DTD/svg11.dtd">
<!-- Created with matplotlib (http://matplotlib.org/) -->
<svg height="640pt" version="1.1" viewBox="0 0 640 640" width="640pt" xmlns="http://www.w3.org/2000/svg" xmlns:xlink="http://www.w3.org/1999/xlink">
 <defs>
  <style type="text/css">
*{stroke-linecap:butt;stroke-linejoin:round;}
  </style>
 </defs>
 <g id="figure_1">
  <g id="patch_1">
   <path d="M 0 640 
L 640 640 
L 640 0 
L 0 0 
z
" style="fill:#ffffff;"/>
  </g>
  <g id="axes_1">
   <g id="patch_2">
    <path d="M 30.525 587.415373 
L 625.7 587.415373 
L 625.7 14.3 
L 30.525 14.3 
z
" style="fill:#ffffff;"/>
   </g>
   <g id="matplotlib.axis_1">
    <g id="xtick_1">
     <g id="line2d_1">
      <defs>
       <path d="M 0 0 
L 0 3.5 
" id="m11550dd677" style="stroke:#000000;stroke-width:0.8;"/>
      </defs>
      <g>
       <use style="stroke:#000000;stroke-width:0.8;" x="56.701949" xlink:href="#m11550dd677" y="587.415373"/>
      </g>
     </g>
     <g id="text_1">
      <!-- 2010 -->
      <defs>
       <path d="M 19.1875 8.296875 
L 53.609375 8.296875 
L 53.609375 0 
L 7.328125 0 
L 7.328125 8.296875 
Q 12.9375 14.109375 22.625 23.890625 
Q 32.328125 33.6875 34.8125 36.53125 
Q 39.546875 41.84375 41.421875 45.53125 
Q 43.3125 49.21875 43.3125 52.78125 
Q 43.3125 58.59375 39.234375 62.25 
Q 35.15625 65.921875 28.609375 65.921875 
Q 23.96875 65.921875 18.8125 64.3125 
Q 13.671875 62.703125 7.8125 59.421875 
L 7.8125 69.390625 
Q 13.765625 71.78125 18.9375 73 
Q 24.125 74.21875 28.421875 74.21875 
Q 39.75 74.21875 46.484375 68.546875 
Q 53.21875 62.890625 53.21875 53.421875 
Q 53.21875 48.921875 51.53125 44.890625 
Q 49.859375 40.875 45.40625 35.40625 
Q 44.1875 33.984375 37.640625 27.21875 
Q 31.109375 20.453125 19.1875 8.296875 
z
" id="DejaVuSans-32"/>
       <path d="M 31.78125 66.40625 
Q 24.171875 66.40625 20.328125 58.90625 
Q 16.5 51.421875 16.5 36.375 
Q 16.5 21.390625 20.328125 13.890625 
Q 24.171875 6.390625 31.78125 6.390625 
Q 39.453125 6.390625 43.28125 13.890625 
Q 47.125 21.390625 47.125 36.375 
Q 47.125 51.421875 43.28125 58.90625 
Q 39.453125 66.40625 31.78125 66.40625 
z
M 31.78125 74.21875 
Q 44.046875 74.21875 50.515625 64.515625 
Q 56.984375 54.828125 56.984375 36.375 
Q 56.984375 17.96875 50.515625 8.265625 
Q 44.046875 -1.421875 31.78125 -1.421875 
Q 19.53125 -1.421875 13.0625 8.265625 
Q 6.59375 17.96875 6.59375 36.375 
Q 6.59375 54.828125 13.0625 64.515625 
Q 19.53125 74.21875 31.78125 74.21875 
z
" id="DejaVuSans-30"/>
       <path d="M 12.40625 8.296875 
L 28.515625 8.296875 
L 28.515625 63.921875 
L 10.984375 60.40625 
L 10.984375 69.390625 
L 28.421875 72.90625 
L 38.28125 72.90625 
L 38.28125 8.296875 
L 54.390625 8.296875 
L 54.390625 0 
L 12.40625 0 
z
" id="DejaVuSans-31"/>
      </defs>
      <g transform="translate(33.621758 613.720813)rotate(-30)scale(0.1 -0.1)">
       <use xlink:href="#DejaVuSans-32"/>
       <use x="63.623047" xlink:href="#DejaVuSans-30"/>
       <use x="127.246094" xlink:href="#DejaVuSans-31"/>
       <use x="190.869141" xlink:href="#DejaVuSans-30"/>
      </g>
     </g>
    </g>
    <g id="xtick_2">
     <g id="line2d_2">
      <g>
       <use style="stroke:#000000;stroke-width:0.8;" x="163.337957" xlink:href="#m11550dd677" y="587.415373"/>
      </g>
     </g>
     <g id="text_2">
      <!-- 2011 -->
      <g transform="translate(140.257766 613.720813)rotate(-30)scale(0.1 -0.1)">
       <use xlink:href="#DejaVuSans-32"/>
       <use x="63.623047" xlink:href="#DejaVuSans-30"/>
       <use x="127.246094" xlink:href="#DejaVuSans-31"/>
       <use x="190.869141" xlink:href="#DejaVuSans-31"/>
      </g>
     </g>
    </g>
    <g id="xtick_3">
     <g id="line2d_3">
      <g>
       <use style="stroke:#000000;stroke-width:0.8;" x="269.973964" xlink:href="#m11550dd677" y="587.415373"/>
      </g>
     </g>
     <g id="text_3">
      <!-- 2012 -->
      <g transform="translate(246.893774 613.720813)rotate(-30)scale(0.1 -0.1)">
       <use xlink:href="#DejaVuSans-32"/>
       <use x="63.623047" xlink:href="#DejaVuSans-30"/>
       <use x="127.246094" xlink:href="#DejaVuSans-31"/>
       <use x="190.869141" xlink:href="#DejaVuSans-32"/>
      </g>
     </g>
    </g>
    <g id="xtick_4">
     <g id="line2d_4">
      <g>
       <use style="stroke:#000000;stroke-width:0.8;" x="376.902125" xlink:href="#m11550dd677" y="587.415373"/>
      </g>
     </g>
     <g id="text_4">
      <!-- 2013 -->
      <defs>
       <path d="M 40.578125 39.3125 
Q 47.65625 37.796875 51.625 33 
Q 55.609375 28.21875 55.609375 21.1875 
Q 55.609375 10.40625 48.1875 4.484375 
Q 40.765625 -1.421875 27.09375 -1.421875 
Q 22.515625 -1.421875 17.65625 -0.515625 
Q 12.796875 0.390625 7.625 2.203125 
L 7.625 11.71875 
Q 11.71875 9.328125 16.59375 8.109375 
Q 21.484375 6.890625 26.8125 6.890625 
Q 36.078125 6.890625 40.9375 10.546875 
Q 45.796875 14.203125 45.796875 21.1875 
Q 45.796875 27.640625 41.28125 31.265625 
Q 36.765625 34.90625 28.71875 34.90625 
L 20.21875 34.90625 
L 20.21875 43.015625 
L 29.109375 43.015625 
Q 36.375 43.015625 40.234375 45.921875 
Q 44.09375 48.828125 44.09375 54.296875 
Q 44.09375 59.90625 40.109375 62.90625 
Q 36.140625 65.921875 28.71875 65.921875 
Q 24.65625 65.921875 20.015625 65.03125 
Q 15.375 64.15625 9.8125 62.3125 
L 9.8125 71.09375 
Q 15.4375 72.65625 20.34375 73.4375 
Q 25.25 74.21875 29.59375 74.21875 
Q 40.828125 74.21875 47.359375 69.109375 
Q 53.90625 64.015625 53.90625 55.328125 
Q 53.90625 49.265625 50.4375 45.09375 
Q 46.96875 40.921875 40.578125 39.3125 
z
" id="DejaVuSans-33"/>
      </defs>
      <g transform="translate(353.821935 613.720813)rotate(-30)scale(0.1 -0.1)">
       <use xlink:href="#DejaVuSans-32"/>
       <use x="63.623047" xlink:href="#DejaVuSans-30"/>
       <use x="127.246094" xlink:href="#DejaVuSans-31"/>
       <use x="190.869141" xlink:href="#DejaVuSans-33"/>
      </g>
     </g>
    </g>
    <g id="xtick_5">
     <g id="line2d_5">
      <g>
       <use style="stroke:#000000;stroke-width:0.8;" x="483.538133" xlink:href="#m11550dd677" y="587.415373"/>
      </g>
     </g>
     <g id="text_5">
      <!-- 2014 -->
      <defs>
       <path d="M 37.796875 64.3125 
L 12.890625 25.390625 
L 37.796875 25.390625 
z
M 35.203125 72.90625 
L 47.609375 72.90625 
L 47.609375 25.390625 
L 58.015625 25.390625 
L 58.015625 17.1875 
L 47.609375 17.1875 
L 47.609375 0 
L 37.796875 0 
L 37.796875 17.1875 
L 4.890625 17.1875 
L 4.890625 26.703125 
z
" id="DejaVuSans-34"/>
      </defs>
      <g transform="translate(460.457943 613.720813)rotate(-30)scale(0.1 -0.1)">
       <use xlink:href="#DejaVuSans-32"/>
       <use x="63.623047" xlink:href="#DejaVuSans-30"/>
       <use x="127.246094" xlink:href="#DejaVuSans-31"/>
       <use x="190.869141" xlink:href="#DejaVuSans-34"/>
      </g>
     </g>
    </g>
    <g id="xtick_6">
     <g id="line2d_6">
      <g>
       <use style="stroke:#000000;stroke-width:0.8;" x="590.174141" xlink:href="#m11550dd677" y="587.415373"/>
      </g>
     </g>
     <g id="text_6">
      <!-- 2015 -->
      <defs>
       <path d="M 10.796875 72.90625 
L 49.515625 72.90625 
L 49.515625 64.59375 
L 19.828125 64.59375 
L 19.828125 46.734375 
Q 21.96875 47.46875 24.109375 47.828125 
Q 26.265625 48.1875 28.421875 48.1875 
Q 40.625 48.1875 47.75 41.5 
Q 54.890625 34.8125 54.890625 23.390625 
Q 54.890625 11.625 47.5625 5.09375 
Q 40.234375 -1.421875 26.90625 -1.421875 
Q 22.3125 -1.421875 17.546875 -0.640625 
Q 12.796875 0.140625 7.71875 1.703125 
L 7.71875 11.625 
Q 12.109375 9.234375 16.796875 8.0625 
Q 21.484375 6.890625 26.703125 6.890625 
Q 35.15625 6.890625 40.078125 11.328125 
Q 45.015625 15.765625 45.015625 23.390625 
Q 45.015625 31 40.078125 35.4375 
Q 35.15625 39.890625 26.703125 39.890625 
Q 22.75 39.890625 18.8125 39.015625 
Q 14.890625 38.140625 10.796875 36.28125 
z
" id="DejaVuSans-35"/>
      </defs>
      <g transform="translate(567.093951 613.720813)rotate(-30)scale(0.1 -0.1)">
       <use xlink:href="#DejaVuSans-32"/>
       <use x="63.623047" xlink:href="#DejaVuSans-30"/>
       <use x="127.246094" xlink:href="#DejaVuSans-31"/>
       <use x="190.869141" xlink:href="#DejaVuSans-35"/>
      </g>
     </g>
    </g>
    <g id="text_7">
     <!-- date -->
     <defs>
      <path d="M 45.40625 46.390625 
L 45.40625 75.984375 
L 54.390625 75.984375 
L 54.390625 0 
L 45.40625 0 
L 45.40625 8.203125 
Q 42.578125 3.328125 38.25 0.953125 
Q 33.9375 -1.421875 27.875 -1.421875 
Q 17.96875 -1.421875 11.734375 6.484375 
Q 5.515625 14.40625 5.515625 27.296875 
Q 5.515625 40.1875 11.734375 48.09375 
Q 17.96875 56 27.875 56 
Q 33.9375 56 38.25 53.625 
Q 42.578125 51.265625 45.40625 46.390625 
z
M 14.796875 27.296875 
Q 14.796875 17.390625 18.875 11.75 
Q 22.953125 6.109375 30.078125 6.109375 
Q 37.203125 6.109375 41.296875 11.75 
Q 45.40625 17.390625 45.40625 27.296875 
Q 45.40625 37.203125 41.296875 42.84375 
Q 37.203125 48.484375 30.078125 48.484375 
Q 22.953125 48.484375 18.875 42.84375 
Q 14.796875 37.203125 14.796875 27.296875 
z
" id="DejaVuSans-64"/>
      <path d="M 34.28125 27.484375 
Q 23.390625 27.484375 19.1875 25 
Q 14.984375 22.515625 14.984375 16.5 
Q 14.984375 11.71875 18.140625 8.90625 
Q 21.296875 6.109375 26.703125 6.109375 
Q 34.1875 6.109375 38.703125 11.40625 
Q 43.21875 16.703125 43.21875 25.484375 
L 43.21875 27.484375 
z
M 52.203125 31.203125 
L 52.203125 0 
L 43.21875 0 
L 43.21875 8.296875 
Q 40.140625 3.328125 35.546875 0.953125 
Q 30.953125 -1.421875 24.3125 -1.421875 
Q 15.921875 -1.421875 10.953125 3.296875 
Q 6 8.015625 6 15.921875 
Q 6 25.140625 12.171875 29.828125 
Q 18.359375 34.515625 30.609375 34.515625 
L 43.21875 34.515625 
L 43.21875 35.40625 
Q 43.21875 41.609375 39.140625 45 
Q 35.0625 48.390625 27.6875 48.390625 
Q 23 48.390625 18.546875 47.265625 
Q 14.109375 46.140625 10.015625 43.890625 
L 10.015625 52.203125 
Q 14.9375 54.109375 19.578125 55.046875 
Q 24.21875 56 28.609375 56 
Q 40.484375 56 46.34375 49.84375 
Q 52.203125 43.703125 52.203125 31.203125 
z
" id="DejaVuSans-61"/>
      <path d="M 18.3125 70.21875 
L 18.3125 54.6875 
L 36.8125 54.6875 
L 36.8125 47.703125 
L 18.3125 47.703125 
L 18.3125 18.015625 
Q 18.3125 11.328125 20.140625 9.421875 
Q 21.96875 7.515625 27.59375 7.515625 
L 36.8125 7.515625 
L 36.8125 0 
L 27.59375 0 
Q 17.1875 0 13.234375 3.875 
Q 9.28125 7.765625 9.28125 18.015625 
L 9.28125 47.703125 
L 2.6875 47.703125 
L 2.6875 54.6875 
L 9.28125 54.6875 
L 9.28125 70.21875 
z
" id="DejaVuSans-74"/>
      <path d="M 56.203125 29.59375 
L 56.203125 25.203125 
L 14.890625 25.203125 
Q 15.484375 15.921875 20.484375 11.0625 
Q 25.484375 6.203125 34.421875 6.203125 
Q 39.59375 6.203125 44.453125 7.46875 
Q 49.3125 8.734375 54.109375 11.28125 
L 54.109375 2.78125 
Q 49.265625 0.734375 44.1875 -0.34375 
Q 39.109375 -1.421875 33.890625 -1.421875 
Q 20.796875 -1.421875 13.15625 6.1875 
Q 5.515625 13.8125 5.515625 26.8125 
Q 5.515625 40.234375 12.765625 48.109375 
Q 20.015625 56 32.328125 56 
Q 43.359375 56 49.78125 48.890625 
Q 56.203125 41.796875 56.203125 29.59375 
z
M 47.21875 32.234375 
Q 47.125 39.59375 43.09375 43.984375 
Q 39.0625 48.390625 32.421875 48.390625 
Q 24.90625 48.390625 20.390625 44.140625 
Q 15.875 39.890625 15.1875 32.171875 
z
" id="DejaVuSans-65"/>
     </defs>
     <g transform="translate(316.8375 627.120313)scale(0.1 -0.1)">
      <use xlink:href="#DejaVuSans-64"/>
      <use x="63.476562" xlink:href="#DejaVuSans-61"/>
      <use x="124.755859" xlink:href="#DejaVuSans-74"/>
      <use x="163.964844" xlink:href="#DejaVuSans-65"/>
     </g>
    </g>
   </g>
   <g id="matplotlib.axis_2">
    <g id="ytick_1">
     <g id="line2d_7">
      <defs>
       <path d="M 0 0 
L -3.5 0 
" id="me0861bd3ea" style="stroke:#000000;stroke-width:0.8;"/>
      </defs>
      <g>
       <use style="stroke:#000000;stroke-width:0.8;" x="30.525" xlink:href="#me0861bd3ea" y="549.791178"/>
      </g>
     </g>
     <g id="text_8">
      <!-- 10 -->
      <g transform="translate(10.8 553.590397)scale(0.1 -0.1)">
       <use xlink:href="#DejaVuSans-31"/>
       <use x="63.623047" xlink:href="#DejaVuSans-30"/>
      </g>
     </g>
    </g>
    <g id="ytick_2">
     <g id="line2d_8">
      <g>
       <use style="stroke:#000000;stroke-width:0.8;" x="30.525" xlink:href="#me0861bd3ea" y="446.456391"/>
      </g>
     </g>
     <g id="text_9">
      <!-- 20 -->
      <g transform="translate(10.8 450.25561)scale(0.1 -0.1)">
       <use xlink:href="#DejaVuSans-32"/>
       <use x="63.623047" xlink:href="#DejaVuSans-30"/>
      </g>
     </g>
    </g>
    <g id="ytick_3">
     <g id="line2d_9">
      <g>
       <use style="stroke:#000000;stroke-width:0.8;" x="30.525" xlink:href="#me0861bd3ea" y="343.121604"/>
      </g>
     </g>
     <g id="text_10">
      <!-- 30 -->
      <g transform="translate(10.8 346.920823)scale(0.1 -0.1)">
       <use xlink:href="#DejaVuSans-33"/>
       <use x="63.623047" xlink:href="#DejaVuSans-30"/>
      </g>
     </g>
    </g>
    <g id="ytick_4">
     <g id="line2d_10">
      <g>
       <use style="stroke:#000000;stroke-width:0.8;" x="30.525" xlink:href="#me0861bd3ea" y="239.786817"/>
      </g>
     </g>
     <g id="text_11">
      <!-- 40 -->
      <g transform="translate(10.8 243.586036)scale(0.1 -0.1)">
       <use xlink:href="#DejaVuSans-34"/>
       <use x="63.623047" xlink:href="#DejaVuSans-30"/>
      </g>
     </g>
    </g>
    <g id="ytick_5">
     <g id="line2d_11">
      <g>
       <use style="stroke:#000000;stroke-width:0.8;" x="30.525" xlink:href="#me0861bd3ea" y="136.45203"/>
      </g>
     </g>
     <g id="text_12">
      <!-- 50 -->
      <g transform="translate(10.8 140.251249)scale(0.1 -0.1)">
       <use xlink:href="#DejaVuSans-35"/>
       <use x="63.623047" xlink:href="#DejaVuSans-30"/>
      </g>
     </g>
    </g>
    <g id="ytick_6">
     <g id="line2d_12">
      <g>
       <use style="stroke:#000000;stroke-width:0.8;" x="30.525" xlink:href="#me0861bd3ea" y="33.117243"/>
      </g>
     </g>
     <g id="text_13">
      <!-- 60 -->
      <defs>
       <path d="M 33.015625 40.375 
Q 26.375 40.375 22.484375 35.828125 
Q 18.609375 31.296875 18.609375 23.390625 
Q 18.609375 15.53125 22.484375 10.953125 
Q 26.375 6.390625 33.015625 6.390625 
Q 39.65625 6.390625 43.53125 10.953125 
Q 47.40625 15.53125 47.40625 23.390625 
Q 47.40625 31.296875 43.53125 35.828125 
Q 39.65625 40.375 33.015625 40.375 
z
M 52.59375 71.296875 
L 52.59375 62.3125 
Q 48.875 64.0625 45.09375 64.984375 
Q 41.3125 65.921875 37.59375 65.921875 
Q 27.828125 65.921875 22.671875 59.328125 
Q 17.53125 52.734375 16.796875 39.40625 
Q 19.671875 43.65625 24.015625 45.921875 
Q 28.375 48.1875 33.59375 48.1875 
Q 44.578125 48.1875 50.953125 41.515625 
Q 57.328125 34.859375 57.328125 23.390625 
Q 57.328125 12.15625 50.6875 5.359375 
Q 44.046875 -1.421875 33.015625 -1.421875 
Q 20.359375 -1.421875 13.671875 8.265625 
Q 6.984375 17.96875 6.984375 36.375 
Q 6.984375 53.65625 15.1875 63.9375 
Q 23.390625 74.21875 37.203125 74.21875 
Q 40.921875 74.21875 44.703125 73.484375 
Q 48.484375 72.75 52.59375 71.296875 
z
" id="DejaVuSans-36"/>
      </defs>
      <g transform="translate(10.8 36.916462)scale(0.1 -0.1)">
       <use xlink:href="#DejaVuSans-36"/>
       <use x="63.623047" xlink:href="#DejaVuSans-30"/>
      </g>
     </g>
    </g>
   </g>
   <g id="line2d_13">
    <path clip-path="url(#p3ac32daf06)" d="M 57.578409 406.155824 
L 57.870563 408.739194 
L 58.162716 410.289216 
L 58.454869 413.079275 
L 58.747023 410.185891 
L 59.623483 410.805889 
L 59.915637 413.492594 
L 60.20779 409.255868 
L 60.499944 416.695972 
L 60.792097 420.932719 
L 61.960711 412.769261 
L 62.252864 423.412733 
L 62.545018 403.779145 
L 62.837171 409.462558 
L 63.713631 408.325855 
L 64.005785 404.399143 
L 64.297938 405.432491 
L 64.590092 412.045928 
L 64.882245 415.249296 
L 65.758706 413.699274 
L 66.050859 414.629297 
L 66.343012 413.079275 
L 66.635166 421.139379 
L 66.927319 418.452674 
L 67.80378 420.726029 
L 68.095933 421.966067 
L 68.388087 426.202783 
L 68.68024 424.446081 
L 68.972393 428.166154 
L 70.725314 417.109311 
L 71.017468 411.115904 
L 71.893928 412.562602 
L 72.186081 416.592638 
L 72.478235 412.769261 
L 72.770388 415.455955 
L 73.062542 415.249296 
L 73.939002 406.362514 
L 74.231156 405.225811 
L 74.523309 410.185891 
L 74.815462 407.395862 
L 75.107616 398.612395 
L 75.984076 396.442375 
L 76.27623 389.518923 
L 76.568383 389.002249 
L 76.860537 390.242288 
L 77.15269 384.765533 
L 78.02915 381.562155 
L 78.321304 376.292081 
L 78.613457 374.32872 
L 78.905611 369.36864 
L 79.197764 372.158689 
L 80.074224 373.398697 
L 80.366378 373.605387 
L 80.658531 374.742059 
L 80.950685 368.335313 
L 81.242838 369.471995 
L 82.119299 371.228676 
L 82.703605 374.432044 
L 82.995759 378.565436 
L 84.164373 370.298653 
L 84.456526 371.332001 
L 85.040833 379.702119 
L 85.332986 378.772126 
L 86.209447 377.945438 
L 86.5016 377.842103 
L 86.793754 373.708711 
L 87.085907 374.32872 
L 87.378061 381.045481 
L 88.254521 381.148806 
L 88.546674 380.322148 
L 88.838828 381.45882 
L 89.130981 397.062373 
L 89.423135 399.439063 
L 90.299595 399.335738 
L 90.591748 407.499187 
L 91.176055 402.642441 
L 91.468209 407.395862 
L 92.344669 406.0525 
L 92.636823 414.629297 
L 93.221129 422.999415 
L 93.513283 431.162843 
L 94.389743 422.379386 
L 94.681897 421.862712 
L 95.266204 418.762668 
L 95.558357 423.206074 
L 96.434817 420.51937 
L 96.726971 424.032763 
L 97.019124 429.509486 
L 97.311278 438.086294 
L 97.603431 431.782851 
L 98.479892 432.40287 
L 98.772045 430.02616 
L 99.064198 432.19619 
L 99.356352 426.719457 
L 99.648505 431.886196 
L 100.817119 436.536262 
L 101.109273 433.539553 
L 101.401426 423.929407 
L 101.693579 425.892768 
L 102.57004 430.439509 
L 103.154347 428.062799 
L 103.738654 419.072683 
L 104.615114 423.619413 
L 104.907267 421.759377 
L 105.199421 424.446081 
L 105.491574 424.756096 
L 105.783728 424.136087 
L 106.660188 427.132806 
L 107.536648 437.56962 
L 107.828802 436.639597 
L 108.705262 439.119642 
L 108.997416 449.65978 
L 109.289569 450.486448 
L 109.581722 450.176454 
L 109.873876 454.103165 
L 111.04249 453.173162 
L 111.334643 448.419752 
L 111.626797 447.593084 
L 111.91895 443.459692 
L 112.79541 444.183026 
L 113.087564 436.019588 
L 113.379717 434.98624 
L 113.671871 435.812908 
L 113.964024 445.526388 
L 114.840484 442.32301 
L 115.132638 438.292953 
L 115.424791 444.6997 
L 115.716945 436.742931 
L 116.009098 435.19291 
L 116.885559 434.676236 
L 117.177712 435.709583 
L 117.469866 435.709583 
L 117.762019 438.499612 
L 118.054172 437.052946 
L 118.930633 431.369522 
L 119.222786 436.432917 
L 119.51494 435.089575 
L 119.807093 435.399569 
L 120.099247 431.472857 
L 120.975707 425.996103 
L 121.26786 426.719457 
L 121.560014 433.539553 
L 121.852167 430.02616 
L 122.144321 430.956183 
L 123.020781 425.27277 
L 123.605088 418.142659 
L 123.897241 414.112623 
L 124.189395 411.632578 
L 125.065855 412.665926 
L 125.358009 416.799317 
L 125.650162 413.802609 
L 125.942315 418.245994 
L 126.234469 413.595949 
L 127.110929 414.112623 
L 127.403083 413.079275 
L 127.695236 404.812492 
L 127.98739 404.502478 
L 128.279543 403.779145 
L 129.448157 409.979232 
L 129.74031 399.232404 
L 130.324617 404.089128 
L 131.201077 402.022433 
L 131.785384 403.159115 
L 132.077538 406.155824 
L 132.369691 402.849121 
L 133.538305 397.475723 
L 133.830458 401.609093 
L 134.122612 402.539107 
L 134.414765 397.475723 
L 135.291226 397.165708 
L 135.875533 394.892353 
L 136.167686 400.989085 
L 136.459839 400.369086 
L 137.3363 404.295819 
L 137.628453 399.025744 
L 137.920607 400.472411 
L 138.21276 397.372367 
L 138.504914 398.819054 
L 139.381374 402.125767 
L 139.673527 400.472411 
L 140.549988 387.762242 
L 141.426448 387.348903 
L 141.718602 389.312264 
L 142.010755 387.968902 
L 142.302908 372.055365 
L 142.595062 363.065218 
L 143.471522 364.511905 
L 144.055829 350.561709 
L 144.347983 346.014999 
L 144.640136 344.568301 
L 145.516596 349.735041 
L 145.80875 342.398281 
L 146.393057 341.571593 
L 146.68521 334.131488 
L 147.56167 334.441482 
L 147.853824 337.644881 
L 148.145977 333.511489 
L 148.438131 334.958156 
L 148.730284 341.674917 
L 149.606745 342.501606 
L 149.898898 345.498325 
L 150.483205 337.231542 
L 150.775358 340.021571 
L 151.651819 336.508178 
L 151.943972 341.261578 
L 152.236126 330.618105 
L 152.820432 331.238114 
L 153.696893 340.744904 
L 153.989046 352.008406 
L 154.2812 350.768389 
L 154.573353 344.051627 
L 154.865507 347.151671 
L 155.741967 348.391688 
L 156.03412 343.121614 
L 156.618427 339.504897 
L 156.910581 335.991504 
L 157.787041 340.22823 
L 158.079194 335.371505 
L 158.371348 341.158243 
L 158.663501 337.644881 
L 158.955655 344.981651 
L 159.832115 347.461665 
L 160.124269 357.071811 
L 160.416422 357.898479 
L 160.708575 360.481848 
L 161.877189 360.585204 
L 162.169343 360.171854 
L 162.461496 360.06853 
L 163.045803 365.545263 
L 163.922263 356.761796 
L 164.214417 358.931826 
L 164.50657 356.245122 
L 164.798724 359.4485 
L 165.090877 366.888615 
L 165.967338 361.101878 
L 166.259491 360.06853 
L 166.551644 355.211774 
L 166.843798 356.451812 
L 167.135951 351.595057 
L 168.304565 348.805028 
L 168.596719 352.421745 
L 168.888872 335.061511 
L 169.181025 342.914955 
L 170.057486 337.85154 
L 170.349639 333.718149 
L 170.641793 332.168127 
L 170.933946 333.201475 
L 171.2261 339.918236 
L 172.10256 339.401562 
L 172.394713 326.174699 
L 172.97902 321.937973 
L 173.271174 320.284626 
L 174.147634 319.974632 
L 174.439787 315.841241 
L 174.731941 322.971321 
L 175.024094 296.724295 
L 175.316248 296.517615 
L 176.192708 303.234376 
L 176.484862 297.034289 
L 176.777015 297.034289 
L 177.069168 294.657599 
L 177.361322 296.310956 
L 178.529936 305.404427 
L 178.822089 313.67119 
L 179.114243 311.191175 
L 179.406396 305.611087 
L 180.282856 306.851094 
L 180.57501 319.457958 
L 181.159317 312.844522 
L 181.45147 322.351322 
L 182.32793 327.621386 
L 182.620084 325.864705 
L 183.204391 331.961468 
L 183.496544 333.614814 
L 184.373005 335.164846 
L 184.665158 338.574873 
L 184.957312 345.911643 
L 185.249465 343.638288 
L 185.541618 338.26489 
L 186.418079 337.128207 
L 186.710232 340.848259 
L 187.002386 336.198194 
L 187.294539 324.934692 
L 187.586693 325.55469 
L 188.463153 339.608221 
L 189.04746 326.278054 
L 189.339613 332.374786 
L 189.631767 329.068083 
L 190.508227 328.758069 
L 190.80038 324.108003 
L 191.092534 324.004668 
L 191.676841 331.341438 
L 192.553301 330.824764 
L 192.845455 335.888179 
L 193.137608 336.198194 
L 193.429761 334.338157 
L 193.721915 326.484714 
L 194.598375 331.238114 
L 194.890529 331.238114 
L 195.182682 324.934692 
L 195.474836 322.971321 
L 196.643449 312.534507 
L 196.935603 311.2945 
L 197.227756 301.477695 
L 197.51991 301.78771 
L 197.812063 297.757643 
L 198.688523 305.507762 
L 198.980677 306.54111 
L 199.564984 315.427891 
L 199.857137 315.014552 
L 200.733598 310.881161 
L 201.025751 302.511043 
L 201.317904 308.917789 
L 201.610058 306.127761 
L 201.902211 306.231095 
L 202.778672 318.63127 
L 203.362979 313.361196 
L 203.655132 313.154516 
L 203.947285 317.494597 
L 204.823746 326.278054 
L 205.115899 334.648172 
L 205.408053 335.888179 
L 205.700206 336.301518 
L 205.99236 336.094859 
L 207.160973 331.031444 
L 207.453127 336.508178 
L 207.74528 329.894772 
L 208.037434 340.021571 
L 208.913894 347.668345 
L 209.206048 343.948303 
L 209.498201 337.231542 
L 209.790354 336.301518 
L 210.082508 343.534953 
L 210.958968 344.568301 
L 211.251122 345.601649 
L 211.543275 356.968486 
L 211.835429 358.931826 
L 212.127582 355.211774 
L 213.004042 355.315109 
L 213.296196 345.394969 
L 213.588349 349.838375 
L 213.880503 350.871723 
L 214.172656 360.171854 
L 215.049116 356.451812 
L 215.34127 353.868443 
L 215.925577 319.664618 
L 216.21773 314.807893 
L 217.386344 315.841241 
L 217.678497 312.947857 
L 217.970651 308.71113 
L 218.262804 307.781117 
L 219.139265 313.051181 
L 219.431418 319.767952 
L 219.723572 318.527945 
L 220.015725 320.491306 
L 220.307878 314.084539 
L 221.184339 315.221212 
L 221.476492 304.267724 
L 221.768646 310.364487 
L 222.060799 307.574458 
L 222.352953 306.954449 
L 223.229413 303.854406 
L 223.521566 297.447638 
L 223.81372 308.401116 
L 224.105873 308.50445 
L 224.398027 314.704538 
L 225.274487 311.914509 
L 225.56664 325.038016 
L 225.858794 319.871277 
L 226.150947 342.708265 
L 227.319561 374.638735 
L 227.611715 341.468258 
L 227.903868 351.905071 
L 228.196022 341.054919 
L 228.488175 337.644881 
L 229.364635 333.924808 
L 229.656789 339.401562 
L 229.948942 340.538245 
L 230.241096 364.40858 
L 230.533249 372.468683 
L 231.409709 370.401988 
L 231.701863 354.281761 
L 231.994016 352.938419 
L 232.28617 360.378513 
L 232.578323 348.701693 
L 233.746937 333.30481 
L 234.03909 334.131488 
L 234.331244 339.091547 
L 234.623397 349.218367 
L 235.792011 350.665064 
L 236.084165 345.704984 
L 236.376318 337.85154 
L 236.668471 359.035182 
L 237.544932 349.115042 
L 237.837085 349.321702 
L 238.129239 341.674917 
L 238.713546 304.991088 
L 239.590006 311.08782 
L 240.174313 319.974632 
L 240.466466 325.864705 
L 240.75862 321.627989 
L 241.63508 316.771233 
L 241.927233 317.081248 
L 242.51154 336.198194 
L 242.803694 348.391688 
L 243.680154 362.651899 
L 244.556614 328.241395 
L 244.848768 332.064792 
L 246.017382 313.87787 
L 246.309535 314.704538 
L 246.601689 314.807893 
L 246.893842 304.991088 
L 247.770302 309.847813 
L 248.062456 303.131052 
L 248.354609 310.261152 
L 248.646763 320.904625 
L 248.938916 321.214639 
L 249.815376 318.63127 
L 250.399683 331.961468 
L 250.98399 309.537798 
L 251.860451 324.211359 
L 252.152604 333.924808 
L 252.444758 324.728033 
L 252.736911 311.604494 
L 253.029064 315.117887 
L 253.905525 317.597922 
L 254.197678 312.947857 
L 254.489832 330.92812 
L 254.781985 335.371505 
L 255.074139 324.934692 
L 255.950599 328.551409 
L 256.242752 328.13806 
L 256.827059 346.738332 
L 257.119213 345.084975 
L 257.995673 356.038463 
L 258.287826 353.041754 
L 258.57998 358.105158 
L 259.164287 361.411861 
L 260.040747 346.634997 
L 260.332901 356.038463 
L 260.625054 347.35833 
L 260.917207 346.428317 
L 261.209361 347.255006 
L 262.085821 335.888179 
L 262.377975 333.821483 
L 262.670128 333.408134 
L 262.962282 332.478142 
L 263.254435 326.174699 
L 264.130895 331.444794 
L 264.423049 334.441482 
L 265.007356 347.255006 
L 265.299509 338.988223 
L 266.175969 345.498325 
L 266.468123 336.611533 
L 266.760276 339.608221 
L 267.344583 334.441482 
L 268.513197 333.614814 
L 268.80535 338.884888 
L 269.389657 339.711556 
L 270.558271 329.274743 
L 270.850425 341.468258 
L 271.142578 335.784844 
L 271.434731 336.611533 
L 272.311192 337.85154 
L 272.603345 330.72143 
L 272.895499 327.414727 
L 273.187652 326.794728 
L 273.479806 336.714868 
L 274.648419 337.644881 
L 274.940573 339.608221 
L 275.232726 327.518061 
L 275.52488 323.178011 
L 276.40134 322.558002 
L 276.693494 322.971321 
L 276.985647 323.074676 
L 277.2778 325.451366 
L 277.569954 324.004668 
L 278.446414 326.794728 
L 278.738568 326.588038 
L 279.322875 315.221212 
L 279.615028 312.637842 
L 280.491488 315.841241 
L 281.367949 309.434463 
L 281.660102 311.811174 
L 282.536562 310.467811 
L 282.828716 312.534507 
L 283.120869 308.917789 
L 283.413023 296.517615 
L 283.705176 290.834222 
L 284.87379 290.007534 
L 285.165943 294.864258 
L 285.458097 280.914062 
L 285.75025 277.4007 
L 286.918864 274.713996 
L 287.211018 283.807447 
L 287.503171 277.297345 
L 287.795324 278.537372 
L 288.671785 284.014106 
L 288.963938 290.317549 
L 289.256092 285.357468 
L 289.548245 283.394107 
L 289.840399 278.537372 
L 290.716859 279.260706 
L 291.009012 267.377205 
L 291.301166 264.380517 
L 291.593319 272.543944 
L 291.885473 263.657163 
L 292.761933 262.623805 
L 293.054086 266.757207 
L 293.34624 266.447213 
L 293.638393 264.380517 
L 293.930547 269.85725 
L 294.807007 259.627117 
L 295.099161 261.797147 
L 295.391314 268.307229 
L 295.683468 270.890598 
L 295.975621 271.820611 
L 296.852081 275.02399 
L 297.144235 274.61064 
L 297.436388 283.910781 
L 297.728542 285.047454 
L 298.897155 278.020699 
L 299.189309 286.597476 
L 299.481462 283.600787 
L 299.773616 276.367352 
L 300.065769 279.880714 
L 300.94223 286.287492 
L 301.234383 280.294064 
L 301.526536 282.464084 
L 301.81869 233.380091 
L 302.110843 236.790108 
L 302.987304 243.403566 
L 303.279457 247.020283 
L 303.571611 241.233514 
L 303.863764 228.936685 
L 304.155917 227.076649 
L 305.032378 229.2467 
L 305.324531 232.036729 
L 305.616685 227.799982 
L 306.200992 245.573565 
L 307.077452 239.063463 
L 307.369605 237.823456 
L 307.661759 234.000079 
L 307.953912 227.283308 
L 308.246066 232.140043 
L 309.414679 239.270174 
L 309.706833 241.233514 
L 310.29114 256.733732 
L 311.1676 244.850232 
L 311.459754 247.84692 
L 311.751907 243.093551 
L 312.04406 243.30021 
L 312.336214 236.17013 
L 313.504828 224.389923 
L 313.796981 244.023543 
L 314.381288 251.980312 
L 315.257748 248.466949 
L 315.549902 242.266862 
L 315.842055 230.073347 
L 316.134209 230.486707 
L 316.426362 228.936685 
L 317.302823 230.176692 
L 317.594976 230.383362 
L 317.887129 238.030157 
L 318.179283 238.443485 
L 319.347897 214.056445 
L 319.64005 203.619662 
L 319.932204 209.303076 
L 320.224357 220.876561 
L 320.51651 210.853097 
L 321.392971 221.083221 
L 321.685124 213.953141 
L 321.977278 216.12314 
L 322.269431 231.726714 
L 322.561585 219.016525 
L 323.438045 227.180004 
L 323.730198 227.386663 
L 324.314505 230.176692 
L 324.606659 235.550101 
L 325.483119 232.760072 
L 325.775272 243.093551 
L 326.067426 248.776964 
L 326.359579 246.916928 
L 326.651733 240.303522 
L 327.528193 254.253718 
L 327.820347 249.396942 
L 328.1125 235.033427 
L 328.404653 198.969597 
L 328.696807 189.669456 
L 329.573267 195.972898 
L 329.865421 203.413003 
L 330.157574 206.823061 
L 330.449728 200.622964 
L 330.741881 185.846079 
L 331.618341 181.919347 
L 331.910495 195.352869 
L 332.202648 199.589616 
L 332.494802 200.829623 
L 332.786955 193.286173 
L 333.663415 190.496144 
L 333.955569 181.815991 
L 334.539876 195.662884 
L 334.832029 198.556268 
L 335.70849 184.812731 
L 336.000643 184.399361 
L 336.292796 188.326093 
L 336.877103 168.795839 
L 337.753564 173.652564 
L 338.045717 179.335977 
L 338.337871 167.452476 
L 338.630024 169.415858 
L 338.922177 166.419129 
L 340.090791 168.072506 
L 340.382945 162.389082 
L 340.675098 172.102542 
L 340.967252 162.595741 
L 342.135865 163.732445 
L 342.428019 165.799141 
L 342.720172 147.715553 
L 343.012326 144.305494 
L 344.473093 157.222343 
L 345.0574 136.762045 
L 345.93386 131.491991 
L 346.226014 136.8654 
L 346.518167 132.421994 
L 346.810321 135.625383 
L 347.102474 141.928784 
L 347.978934 143.582161 
L 348.271088 156.808973 
L 348.563241 161.872408 
L 348.855395 145.545502 
L 349.147548 153.295611 
L 350.024008 154.742277 
L 350.608315 151.022256 
L 350.900469 141.722125 
L 351.192622 149.575538 
L 352.069083 157.945676 
L 352.361236 175.5126 
L 353.237696 158.669009 
L 354.114157 163.319085 
L 354.40631 154.638973 
L 354.698464 155.052292 
L 354.990617 127.875274 
L 355.28277 136.762045 
L 356.159231 134.902008 
L 356.451384 143.168791 
L 357.035691 153.605625 
L 357.327845 141.515466 
L 358.788612 154.432314 
L 359.080765 144.512154 
L 359.372919 149.988908 
L 360.541532 141.722125 
L 360.833686 152.985596 
L 361.125839 158.46235 
L 361.417993 159.909027 
L 362.294453 162.595741 
L 362.586607 159.805713 
L 362.87876 172.92923 
L 363.170914 172.412557 
L 363.463067 164.765793 
L 364.339527 157.945676 
L 364.923834 150.608885 
L 365.508141 146.682205 
L 366.384601 121.985149 
L 366.676755 124.56853 
L 366.968908 121.261816 
L 367.553215 107.31162 
L 368.429676 115.371744 
L 368.721829 115.888418 
L 369.013982 115.578403 
L 369.306136 115.888418 
L 369.598289 118.471787 
L 370.47475 124.36186 
L 370.766903 115.888418 
L 371.059057 117.23178 
L 371.643363 132.731998 
L 372.519824 122.915194 
L 372.811977 116.715106 
L 373.104131 122.605179 
L 373.396284 114.338396 
L 373.688438 122.501823 
L 374.564898 125.291904 
L 375.149205 133.972016 
L 375.441358 133.455342 
L 375.733512 138.415422 
L 376.609972 126.118551 
L 492.302737 126.118551 
L 493.47135 106.381628 
L 493.763504 100.078185 
L 494.055657 91.294769 
L 494.347811 89.021363 
L 495.224271 97.391501 
L 495.808578 86.541307 
L 496.100731 85.611356 
L 496.392885 87.161326 
L 497.561499 83.234594 
L 497.853652 87.471341 
L 498.145806 85.197986 
L 498.437959 89.021363 
L 499.314419 71.351145 
L 499.606573 72.901115 
L 500.19088 50.270807 
L 500.483033 45.827453 
L 501.359493 50.580822 
L 501.651647 42.830713 
L 501.9438 44.897409 
L 502.235954 40.350699 
L 502.528107 42.830713 
L 503.404568 51.510825 
L 503.696721 58.537601 
L 503.988874 53.99088 
L 504.281028 67.217754 
L 504.573181 66.804384 
L 505.449642 59.777649 
L 505.741795 55.437557 
L 506.033949 61.017656 
L 506.618255 64.531029 
L 507.494716 68.871079 
L 507.786869 71.041131 
L 508.079023 78.58458 
L 508.371176 82.924631 
L 508.66333 82.821327 
L 509.53979 82.304602 
L 509.831943 74.037819 
L 510.124097 80.134602 
L 510.708404 95.118146 
L 511.584864 105.968258 
L 511.877017 86.851363 
L 512.169171 75.58784 
L 512.461324 94.291416 
L 512.753478 100.698214 
L 513.629938 95.324805 
L 513.922092 96.151453 
L 514.214245 87.988067 
L 514.506398 85.094631 
L 515.675012 85.508001 
L 515.967166 79.927891 
L 516.259319 85.404697 
L 516.551473 86.437993 
L 516.843626 98.011489 
L 517.720086 98.838178 
L 518.01224 89.538037 
L 518.304393 117.541743 
L 518.596547 118.988461 
L 518.8887 115.681758 
L 519.765161 115.785114 
L 520.057314 126.635225 
L 520.641621 133.765357 
L 522.102388 120.125123 
L 522.394542 119.40178 
L 522.686695 122.39852 
L 522.978848 116.301736 
L 523.855309 112.375004 
L 524.147462 116.198432 
L 524.439616 117.025069 
L 524.731769 120.951802 
L 525.023923 115.578403 
L 526.192536 118.161773 
L 526.48469 132.421994 
L 526.776843 135.005364 
L 527.068997 128.908622 
L 528.23761 132.112021 
L 528.529764 131.801965 
L 528.821917 130.458602 
L 529.114071 139.552074 
L 529.990531 140.792081 
L 530.282685 154.535618 
L 530.574838 148.54219 
L 530.866991 151.332219 
L 531.159145 146.37219 
L 532.035605 146.785509 
L 532.327759 146.165479 
L 532.619912 139.965444 
L 532.912066 140.585473 
L 533.204219 143.272147 
L 534.080679 142.755473 
L 534.372833 148.335582 
L 534.664986 143.478806 
L 534.95714 141.928784 
L 535.249293 135.625341 
L 536.125753 135.832001 
L 536.417907 131.285291 
L 536.71006 130.768658 
L 537.002214 126.73857 
L 538.170828 128.805266 
L 538.462981 134.592035 
L 538.755134 126.841926 
L 539.047288 132.938668 
L 539.339441 120.951802 
L 540.215902 124.465215 
L 540.508055 127.978588 
L 540.800209 129.218595 
L 541.384516 121.158513 
L 542.260976 118.885106 
L 542.553129 115.26844 
L 543.137436 103.074925 
L 543.42959 108.035005 
L 544.30605 106.174968 
L 544.598203 103.281584 
L 544.890357 103.074925 
L 545.474664 110.30836 
L 547.227584 99.664867 
L 547.519738 94.188112 
L 548.396198 96.358153 
L 548.980505 106.071613 
L 549.272659 106.174968 
L 549.564812 109.171657 
L 550.441272 104.314932 
L 550.733426 97.701516 
L 551.025579 101.318192 
L 551.317733 75.58784 
L 551.609886 79.617928 
L 552.486346 79.721232 
L 552.7785 71.867819 
L 553.070653 75.277877 
L 553.362807 80.341261 
L 553.65496 79.617928 
L 554.823574 86.024675 
L 555.115727 89.434733 
L 555.407881 90.571436 
L 555.700034 96.151453 
L 556.576495 92.741436 
L 557.160802 125.085245 
L 557.452955 129.425295 
L 557.745108 113.821722 
L 558.621569 126.531911 
L 558.913722 119.81515 
L 559.205876 116.301736 
L 559.498029 108.551627 
L 559.790183 111.651671 
L 560.666643 110.928338 
L 561.25095 106.174968 
L 561.543103 114.23504 
L 561.835257 106.174968 
L 562.711717 108.964997 
L 563.003871 67.941087 
L 563.296024 80.031247 
L 563.880331 90.571436 
L 564.756791 99.768212 
L 565.048945 105.761598 
L 565.341098 89.848051 
L 565.633252 106.898302 
L 565.925405 117.23178 
L 566.801865 131.69865 
L 567.094019 130.355298 
L 567.386172 133.972016 
L 567.678326 158.359005 
L 567.970479 157.635661 
L 568.846939 144.718813 
L 569.139093 127.565259 
L 569.431246 135.108667 
L 569.7234 128.288592 
L 570.015553 124.878534 
L 571.184167 124.051856 
L 571.47632 122.708493 
L 571.768474 120.435179 
L 572.060627 110.618375 
L 572.937088 108.551627 
L 573.229241 102.661555 
L 573.521395 99.354852 
L 573.813548 102.76491 
L 574.105701 100.078185 
L 574.982162 96.254808 
L 575.274315 93.154806 
L 575.566469 94.498117 
L 575.858622 91.294769 
L 576.150776 91.398073 
L 577.027236 86.541307 
L 577.319389 80.857935 
L 577.903696 89.538037 
L 578.19585 90.778095 
L 579.07231 91.088059 
L 579.364463 90.984713 
L 580.240924 86.024675 
L 581.117384 86.12803 
L 581.409538 84.577957 
L 581.993844 88.194726 
L 582.285998 86.748008 
L 583.162458 83.234594 
L 583.454612 80.651224 
L 583.746765 81.994587 
L 584.038919 66.28771 
L 584.331072 76.827848 
L 585.207532 80.237958 
L 585.791839 70.214442 
L 586.083993 58.640946 
L 586.376146 62.671033 
L 587.252607 60.707641 
L 587.836913 63.084352 
L 588.42122 63.70434 
L 589.297681 63.807695 
L 589.589834 61.844303 
L 589.881988 73.211182 
L 590.466294 72.281138 
L 591.342755 77.137862 
L 591.634908 84.578008 
L 591.927062 85.508001 
L 592.219215 70.214442 
L 592.511369 78.274566 
L 593.387829 82.717972 
L 593.679982 83.441305 
L 594.264289 105.244924 
L 594.556443 98.631519 
L 595.725056 98.424849 
L 596.01721 101.524903 
L 596.309363 62.567678 
L 596.601517 66.597724 
L 597.477977 73.831159 
L 598.062284 96.771482 
L 598.354437 95.531465 
L 598.646591 105.451635 
L 598.646591 105.451635 
" style="fill:none;opacity:0.6;stroke:#000000;stroke-linecap:square;stroke-width:1.5;"/>
   </g>
   <g id="line2d_14">
    <path clip-path="url(#p3ac32daf06)" d="M 57.578409 462.059944 
L 57.870563 459.269905 
L 58.162716 458.029897 
L 58.454869 461.853274 
L 58.747023 461.439945 
L 59.623483 464.126629 
L 59.915637 470.533396 
L 60.20779 468.053361 
L 60.499944 470.946746 
L 60.792097 476.320134 
L 61.960711 473.013431 
L 62.252864 473.736764 
L 62.545018 476.940163 
L 62.837171 483.036916 
L 63.713631 480.143532 
L 64.005785 485.620286 
L 64.297938 481.073545 
L 64.882245 494.093728 
L 65.758706 481.900223 
L 66.343012 478.696855 
L 66.635166 488.823654 
L 66.927319 485.516951 
L 67.80378 485.826934 
L 68.095933 487.170307 
L 68.388087 483.966908 
L 68.68024 476.216799 
L 68.972393 473.84011 
L 70.141007 470.533396 
L 70.433161 468.776705 
L 70.725314 480.866875 
L 71.017468 481.796888 
L 71.893928 481.486873 
L 72.186081 485.620286 
L 72.478235 482.106903 
L 73.062542 485.7236 
L 73.939002 479.006849 
L 74.231156 479.110184 
L 74.523309 481.280225 
L 74.815462 480.97021 
L 75.107616 475.700136 
L 75.984076 478.283505 
L 76.27623 471.773424 
L 76.568383 471.360075 
L 76.860537 475.493456 
L 77.15269 474.873457 
L 78.02915 475.80347 
L 78.321304 469.603383 
L 78.613457 466.090001 
L 78.905611 472.703437 
L 79.197764 474.873457 
L 80.074224 471.980073 
L 80.366378 468.260041 
L 80.658531 474.460108 
L 80.950685 473.943444 
L 81.242838 473.943444 
L 82.411452 470.946746 
L 82.995759 475.183472 
L 84.164373 472.496757 
L 84.456526 476.940163 
L 84.74868 475.80347 
L 85.040833 478.696855 
L 86.209447 474.356794 
L 86.5016 470.636731 
L 86.793754 468.363376 
L 87.085907 467.020014 
L 87.378061 476.836829 
L 88.254521 477.663497 
L 88.546674 477.043478 
L 88.838828 481.590219 
L 89.130981 480.866875 
L 89.423135 483.243565 
L 90.299595 481.590219 
L 90.591748 486.446964 
L 90.883902 486.136949 
L 91.176055 481.073545 
L 91.468209 490.787015 
L 92.344669 492.543706 
L 92.636823 500.707154 
L 93.513283 508.870602 
L 94.389743 502.670515 
L 94.681897 504.323872 
L 94.97405 501.430498 
L 95.266204 501.740502 
L 95.558357 519.204081 
L 96.434817 518.894077 
L 96.726971 523.337473 
L 97.019124 521.270777 
L 97.311278 524.37082 
L 97.603431 521.580781 
L 98.479892 525.404168 
L 98.772045 521.99412 
L 99.064198 521.374112 
L 99.356352 513.624003 
L 99.648505 517.344055 
L 100.817119 523.130803 
L 101.109273 521.684116 
L 101.401426 521.890785 
L 101.693579 528.090873 
L 102.57004 534.29096 
L 103.154347 540.387712 
L 103.4465 535.840982 
L 103.738654 533.154277 
L 104.615114 535.737647 
L 104.907267 529.950899 
L 105.199421 531.500921 
L 105.491574 526.850855 
L 105.783728 526.024177 
L 106.660188 529.020886 
L 106.952341 533.670951 
L 107.244495 532.327599 
L 107.536648 538.321017 
L 107.828802 538.631021 
L 108.705262 538.424351 
L 108.997416 544.831108 
L 109.289569 547.621147 
L 109.581722 545.864456 
L 109.873876 547.207808 
L 111.04249 548.344491 
L 111.334643 543.281086 
L 111.626797 546.5878 
L 111.91895 546.17446 
L 112.79541 544.211099 
L 113.087564 540.284378 
L 113.379717 539.147695 
L 113.671871 542.351073 
L 113.964024 549.274504 
L 114.840484 545.037778 
L 115.132638 542.351073 
L 115.424791 545.967791 
L 115.716945 544.211099 
L 116.009098 546.071126 
L 116.885559 544.107765 
L 117.177712 545.037778 
L 117.469866 548.447826 
L 117.762019 558.781304 
L 118.054172 558.161296 
L 118.930633 558.264631 
L 119.222786 560.744665 
L 119.51494 556.817943 
L 120.099247 554.441243 
L 120.975707 553.51123 
L 121.560014 561.364674 
L 121.852167 560.537996 
L 122.144321 556.0946 
L 123.020781 558.574635 
L 123.312934 557.334617 
L 123.605088 556.817943 
L 123.897241 551.031195 
L 124.189395 550.101182 
L 125.065855 551.651204 
L 125.358009 552.684552 
L 125.650162 550.617856 
L 125.942315 551.857874 
L 126.234469 548.551161 
L 127.110929 553.51123 
L 127.403083 556.714609 
L 127.695236 555.991265 
L 127.98739 554.234574 
L 128.279543 550.824526 
L 129.448157 549.894513 
L 129.74031 546.484465 
L 130.324617 549.067834 
L 131.201077 543.177752 
L 131.493231 544.211099 
L 132.077538 543.901095 
L 132.369691 544.107765 
L 133.246152 542.454408 
L 133.538305 536.46099 
L 133.830458 535.427643 
L 134.122612 533.050942 
L 134.414765 526.437516 
L 135.291226 529.124221 
L 135.583379 529.434225 
L 135.875533 530.364238 
L 136.167686 532.430934 
L 136.459839 535.840982 
L 137.3363 536.977664 
L 137.628453 536.150986 
L 137.920607 541.731065 
L 138.21276 542.557743 
L 138.504914 540.904386 
L 139.381374 541.42106 
L 139.673527 539.25103 
L 139.965681 535.944317 
L 140.257834 537.804343 
L 140.549988 536.46099 
L 141.426448 535.737647 
L 141.718602 536.46099 
L 142.010755 536.46099 
L 142.302908 538.527686 
L 142.595062 531.190916 
L 143.471522 530.054234 
L 143.763676 530.467573 
L 144.055829 528.710881 
L 144.347983 528.607547 
L 144.640136 528.917551 
L 145.516596 528.710881 
L 145.80875 526.127512 
L 146.100903 525.197499 
L 146.393057 524.990829 
L 146.68521 522.820799 
L 147.56167 522.304125 
L 147.853824 523.027468 
L 148.145977 521.477446 
L 148.438131 522.820799 
L 148.730284 516.104037 
L 149.606745 517.757394 
L 149.898898 521.787451 
L 150.191051 519.61742 
L 150.775358 511.040633 
L 151.651819 510.937298 
L 151.943972 514.244011 
L 152.236126 510.833963 
L 152.820432 512.590655 
L 153.696893 511.040633 
L 153.989046 512.48732 
L 154.2812 506.287233 
L 154.573353 504.530541 
L 154.865507 500.293815 
L 155.741967 503.187189 
L 156.03412 498.330454 
L 156.326274 496.987102 
L 156.618427 499.570471 
L 156.910581 498.640458 
L 157.787041 502.56718 
L 158.079194 502.360511 
L 158.371348 505.667224 
L 158.663501 505.460554 
L 158.955655 504.633876 
L 159.832115 505.253885 
L 160.124269 499.467137 
L 160.416422 497.81378 
L 160.708575 498.950463 
L 161.877189 498.123784 
L 162.169343 498.743793 
L 162.461496 498.743793 
L 162.75365 498.227119 
L 163.045803 493.990393 
L 376.609972 493.990393 
L 377.194279 521.684116 
L 377.486432 521.580781 
L 377.778586 517.24072 
L 378.655046 521.167442 
L 379.239353 526.95419 
L 379.531506 526.74752 
L 379.82366 526.95419 
L 380.70012 527.057525 
L 380.992274 529.33089 
L 381.284427 528.194207 
L 381.576581 526.540851 
L 381.868734 527.367529 
L 383.037348 527.987538 
L 383.329501 527.780868 
L 383.621655 527.16086 
L 383.913808 524.887494 
L 384.790269 522.820799 
L 385.082422 525.610838 
L 385.374575 525.817507 
L 385.666729 526.437516 
L 385.958882 525.300833 
L 386.835343 527.470864 
L 387.127496 524.57749 
L 387.41965 525.610838 
L 387.711803 526.127512 
L 388.003956 525.300833 
L 388.880417 523.854146 
L 389.464724 525.300833 
L 389.756877 521.580781 
L 390.049031 521.580781 
L 391.217644 523.337473 
L 391.509798 525.197499 
L 391.801951 526.127512 
L 392.094105 523.750812 
L 392.970565 526.024177 
L 393.262718 525.300833 
L 393.554872 522.924133 
L 394.139179 521.787451 
L 395.015639 522.304125 
L 395.307793 520.857438 
L 395.599946 520.960772 
L 395.892099 521.270777 
L 396.184253 520.650768 
L 397.060713 521.890785 
L 397.352867 521.477446 
L 397.937174 521.374112 
L 398.229327 522.510794 
L 399.105787 523.440807 
L 399.397941 524.267486 
L 399.690094 522.717464 
L 399.982248 524.78416 
L 400.274401 524.164151 
L 401.150861 524.887494 
L 401.443015 523.957481 
L 402.027322 520.547433 
L 403.488089 526.230847 
L 403.780242 527.780868 
L 404.072396 526.540851 
L 404.364549 524.37082 
L 405.24101 524.680825 
L 405.825317 520.547433 
L 406.11747 521.167442 
L 406.409624 517.860729 
L 407.286084 520.650768 
L 407.578237 519.204081 
L 407.870391 520.960772 
L 408.162544 523.544142 
L 408.454698 523.234138 
L 409.331158 523.027468 
L 410.207618 513.934007 
L 410.499772 514.554016 
L 411.376232 512.900659 
L 411.668386 510.833963 
L 411.960539 512.073981 
L 412.252692 510.420624 
L 412.544846 509.800615 
L 413.421306 510.213955 
L 413.71346 512.073981 
L 414.005613 509.490611 
L 414.297767 509.387276 
L 414.58992 502.877185 
L 415.46638 505.977228 
L 416.050687 501.223828 
L 416.342841 501.947172 
L 416.634994 499.467137 
L 417.511454 499.777141 
L 417.803608 498.950463 
L 418.095761 504.323872 
L 418.387915 501.947172 
L 418.680068 502.877185 
L 419.848682 502.980519 
L 420.140835 503.910533 
L 420.432989 501.947172 
L 420.725142 503.600528 
L 421.601603 503.807198 
L 421.893756 503.600528 
L 422.18591 506.803907 
L 422.478063 505.873894 
L 422.770216 503.807198 
L 423.646677 503.910533 
L 423.93883 506.700572 
L 424.230984 507.940589 
L 424.523137 504.633876 
L 424.815291 504.840546 
L 425.691751 503.393859 
L 425.983904 504.323872 
L 426.276058 499.777141 
L 426.568211 503.910533 
L 426.860365 504.117202 
L 427.736825 507.217246 
L 428.028978 506.183898 
L 428.321132 507.010576 
L 428.613285 508.353928 
L 428.905439 508.043924 
L 429.781899 507.423915 
L 430.074053 507.52725 
L 430.366206 507.113911 
L 430.950513 505.977228 
L 431.826973 506.700572 
L 432.119127 505.977228 
L 432.703434 501.947172 
L 432.995587 501.843837 
L 433.872047 502.153841 
L 434.164201 501.327163 
L 434.748508 502.77385 
L 435.040661 505.977228 
L 435.917122 506.080563 
L 436.209275 506.287233 
L 436.501428 506.287233 
L 436.793582 505.770559 
L 437.085735 506.390567 
L 437.962196 506.700572 
L 438.254349 504.220537 
L 438.546503 503.910533 
L 438.838656 501.843837 
L 439.130809 500.603819 
L 440.00727 499.880476 
L 440.299423 502.153841 
L 440.591577 502.257176 
L 440.88373 501.223828 
L 441.175884 503.393859 
L 442.052344 504.633876 
L 442.344497 504.117202 
L 442.636651 497.81378 
L 442.928804 496.780432 
L 443.220958 496.160424 
L 444.097418 498.640458 
L 444.389571 498.640458 
L 444.681725 499.363802 
L 444.973878 498.537124 
L 445.266032 498.537124 
L 446.142492 498.227119 
L 446.434646 500.19048 
L 446.726799 500.19048 
L 447.311106 500.707154 
L 448.47972 500.603819 
L 448.771873 499.157132 
L 449.064027 498.743793 
L 449.35618 499.363802 
L 450.23264 496.780432 
L 450.816947 490.787015 
L 451.109101 490.890349 
L 451.401254 489.857002 
L 452.277715 489.753667 
L 452.569868 489.236993 
L 452.862021 487.790306 
L 453.154175 488.513649 
L 453.446328 489.960336 
L 454.322789 491.510358 
L 454.614942 490.890349 
L 454.907096 490.68368 
L 455.199249 491.200354 
L 455.491402 492.130367 
L 456.95217 492.543706 
L 457.244323 494.197063 
L 457.536477 492.027032 
L 458.412937 492.027032 
L 458.70509 493.370384 
L 458.997244 495.850419 
L 459.289397 494.093728 
L 459.581551 495.43708 
L 460.458011 493.06038 
L 460.750164 493.887058 
L 461.042318 491.923697 
L 461.334471 491.613693 
L 461.626625 489.753667 
L 462.503085 489.340328 
L 462.795239 490.167006 
L 463.087392 492.957045 
L 463.671699 495.64375 
L 464.548159 495.953754 
L 464.840313 495.747084 
L 465.132466 495.850419 
L 465.42462 496.160424 
L 465.716773 495.43708 
L 466.593233 499.983811 
L 466.885387 500.19048 
L 467.17754 499.157132 
L 467.469694 502.77385 
L 467.761847 492.337036 
L 468.930461 490.68368 
L 469.222614 486.240284 
L 469.514768 485.516951 
L 469.806921 486.033614 
L 470.683382 490.063671 
L 471.267688 495.953754 
L 471.559842 494.713737 
L 471.851995 496.263758 
L 473.312763 490.890349 
L 473.89707 491.923697 
L 474.77353 490.373675 
L 475.065683 490.47701 
L 475.357837 488.203645 
L 475.942144 493.267049 
L 476.818604 495.953754 
L 477.110757 492.337036 
L 477.402911 493.887058 
L 477.695064 496.987102 
L 477.987218 497.917115 
L 478.863678 497.710445 
L 479.155832 496.987102 
L 479.447985 494.817071 
L 479.740138 494.197063 
L 480.032292 490.993684 
L 481.200906 489.650332 
L 481.785213 491.200354 
L 482.077366 490.270341 
L 483.24598 487.583636 
L 483.830287 489.236993 
L 484.12244 491.200354 
L 484.9989 489.030323 
L 485.583207 484.070243 
L 485.875361 490.373675 
L 486.167514 490.580345 
L 487.043975 494.403732 
L 487.336128 489.443662 
L 487.628281 487.686971 
L 487.920435 487.170307 
L 488.212588 487.893641 
L 489.381202 487.273642 
L 489.673356 487.480291 
L 489.965509 488.10031 
L 490.257662 492.337036 
L 491.134123 493.370384 
L 491.426276 491.820362 
L 491.71843 493.370384 
L 492.010583 490.68368 
L 492.302737 490.890349 
L 493.179197 493.06038 
L 493.47135 492.130367 
L 493.763504 493.577054 
L 494.347811 489.133658 
L 495.224271 488.616984 
L 495.516425 485.206936 
L 496.392885 468.053361 
L 497.561499 468.156696 
L 497.853652 465.676672 
L 498.145806 459.063225 
L 498.437959 460.509932 
L 499.314419 457.719883 
L 499.606573 459.476574 
L 499.898726 459.786589 
L 500.19088 461.956609 
L 500.483033 463.196637 
L 501.359493 464.126629 
L 501.9438 460.509932 
L 502.235954 463.196637 
L 502.528107 463.403286 
L 503.404568 466.193335 
L 503.696721 464.333309 
L 503.988874 463.816635 
L 504.281028 469.810053 
L 504.573181 468.983375 
L 505.449642 468.983375 
L 506.033949 461.336611 
L 506.326102 461.233266 
L 507.494716 462.473273 
L 507.786869 462.473273 
L 508.079023 466.813334 
L 508.371176 469.293369 
L 508.66333 468.156696 
L 509.53979 468.053361 
L 509.831943 460.406587 
L 510.124097 461.646594 
L 510.41625 459.579909 
L 510.708404 465.573327 
L 511.584864 464.953328 
L 511.877017 458.236546 
L 512.169171 458.443226 
L 512.461324 463.196637 
L 512.753478 465.883321 
L 513.629938 463.816635 
L 513.922092 462.473273 
L 514.214245 462.059944 
L 514.506398 461.336611 
L 515.675012 459.786589 
L 516.259319 455.859857 
L 516.551473 454.103165 
L 516.843626 459.579909 
L 517.720086 460.406587 
L 518.01224 459.993238 
L 518.304393 462.266624 
L 518.596547 461.233266 
L 518.8887 462.679953 
L 519.765161 460.613267 
L 520.057314 464.539979 
L 520.349467 464.333309 
L 520.641621 461.956609 
L 520.933774 466.606685 
L 521.810235 461.129931 
L 522.102388 464.229964 
L 522.394542 466.090001 
L 522.686695 467.123348 
L 522.978848 467.536698 
L 523.855309 461.54326 
L 524.147462 464.643313 
L 524.439616 464.643313 
L 524.731769 463.816635 
L 525.023923 462.059944 
L 526.192536 458.649896 
L 526.48469 456.996539 
L 526.776843 457.306533 
L 527.068997 456.78987 
L 527.945457 457.409868 
L 528.23761 458.236546 
L 528.529764 458.029897 
L 529.114071 456.479855 
L 529.990531 456.273206 
L 530.282685 455.239848 
L 530.574838 452.656478 
L 530.866991 451.416461 
L 531.159145 451.209781 
L 532.035605 451.8298 
L 532.327759 450.486437 
L 532.619912 450.693117 
L 532.912066 455.343193 
L 533.204219 457.513213 
L 534.080679 459.786589 
L 534.372833 462.783287 
L 534.664986 460.819916 
L 534.95714 463.403286 
L 535.249293 463.196637 
L 536.125753 461.54326 
L 536.417907 459.373239 
L 536.71006 460.096583 
L 537.002214 458.339891 
L 538.170828 459.889903 
L 538.462981 461.439945 
L 538.755134 455.653177 
L 539.047288 456.686535 
L 539.339441 456.273206 
L 540.508055 452.966472 
L 540.800209 453.173152 
L 541.092362 453.689836 
L 541.384516 462.576607 
L 542.260976 461.439945 
L 542.553129 462.266624 
L 542.845283 466.29667 
L 543.137436 465.986655 
L 543.42959 469.293369 
L 544.30605 470.016733 
L 544.598203 469.396703 
L 544.890357 466.29667 
L 545.18251 472.290088 
L 545.474664 470.326716 
L 546.351124 470.740066 
L 546.643278 470.636731 
L 546.935431 470.843411 
L 547.227584 472.703437 
L 547.519738 456.78987 
L 548.396198 457.823218 
L 548.688352 457.823218 
L 548.980505 456.686535 
L 549.272659 458.856576 
L 549.564812 456.37652 
L 550.733426 452.966472 
L 551.025579 454.2065 
L 551.317733 456.066526 
L 552.486346 455.653177 
L 552.7785 452.139794 
L 553.070653 454.41317 
L 553.362807 452.759823 
L 553.65496 452.139794 
L 554.823574 451.62313 
L 555.115727 449.763104 
L 555.407881 446.146376 
L 556.576495 448.626411 
L 556.868648 451.209781 
L 557.160802 450.486437 
L 557.452955 452.553143 
L 557.745108 455.549842 
L 558.621569 458.236546 
L 558.913722 455.343193 
L 559.205876 455.239848 
L 559.498029 452.243129 
L 559.790183 455.963191 
L 560.958796 458.753241 
L 561.25095 457.616548 
L 561.543103 461.853274 
L 561.835257 461.439945 
L 562.711717 461.749939 
L 563.003871 462.473273 
L 563.296024 464.333309 
L 563.588177 465.159977 
L 563.880331 464.746648 
L 564.756791 465.883321 
L 565.048945 467.846692 
L 565.341098 464.436644 
L 565.633252 468.053361 
L 565.925405 479.006849 
L 566.801865 479.626847 
L 567.386172 472.910086 
L 567.678326 472.806751 
L 567.970479 473.116766 
L 568.846939 471.566744 
L 569.139093 463.816635 
L 569.431246 468.260041 
L 569.7234 464.126629 
L 570.015553 462.163279 
L 570.892014 462.059944 
L 571.184167 457.513213 
L 571.768474 459.993238 
L 572.060627 451.209781 
L 572.937088 447.799733 
L 573.229241 445.113049 
L 573.521395 445.113049 
L 573.813548 444.183036 
L 574.105701 448.626411 
L 574.982162 446.249721 
L 575.274315 448.729746 
L 575.858622 451.106467 
L 576.150776 448.626411 
L 577.027236 449.556424 
L 577.319389 444.6997 
L 577.611543 446.353056 
L 577.903696 442.943008 
L 578.19585 441.806315 
L 579.07231 440.462973 
L 579.364463 440.566308 
L 579.656617 436.949591 
L 580.240924 436.432927 
L 581.117384 440.462973 
L 581.409538 440.152959 
L 581.701691 434.676236 
L 581.993844 436.639576 
L 582.285998 435.399569 
L 583.454612 438.912952 
L 583.746765 443.666352 
L 584.038919 443.769687 
L 584.331072 450.279788 
L 585.207532 450.899787 
L 585.499686 453.173152 
L 585.791839 445.009714 
L 586.083993 444.183036 
L 586.376146 442.11633 
L 587.252607 438.396267 
L 587.836913 440.566308 
L 588.42122 440.359639 
L 589.297681 440.669653 
L 589.589834 442.632994 
L 589.881988 445.939727 
L 590.466294 445.113049 
L 591.342755 448.626411 
L 591.634908 454.826498 
L 591.927062 455.343193 
L 592.219215 447.903068 
L 592.511369 447.076389 
L 593.387829 449.659759 
L 593.679982 449.969774 
L 593.972136 449.143095 
L 594.264289 450.589782 
L 594.556443 446.86974 
L 595.725056 446.249721 
L 596.309363 439.73963 
L 596.601517 439.119631 
L 597.477977 440.049624 
L 597.770131 450.279788 
L 598.062284 453.586502 
L 598.354437 448.729746 
L 598.646591 454.723164 
L 598.646591 454.723164 
" style="fill:none;opacity:0.6;stroke:#000000;stroke-linecap:square;stroke-width:1.5;"/>
   </g>
   <g id="line2d_15">
    <path clip-path="url(#p3ac32daf06)" d="M 57.578409 476.423479 
L 57.870563 475.080127 
L 58.162716 475.700136 
L 58.454869 480.55686 
L 58.747023 480.55686 
L 59.623483 480.143532 
L 59.915637 480.76354 
L 60.499944 476.216799 
L 60.792097 479.316853 
L 61.960711 480.040197 
L 62.252864 483.863594 
L 62.545018 485.7236 
L 62.837171 489.030323 
L 63.713631 489.236993 
L 64.005785 487.893641 
L 64.297938 487.996975 
L 64.882245 498.02045 
L 65.758706 497.607111 
L 66.050859 496.367093 
L 66.343012 493.370384 
L 66.635166 498.02045 
L 66.927319 496.160424 
L 67.80378 498.227119 
L 68.095933 497.400441 
L 68.388087 500.19048 
L 68.68024 495.850419 
L 68.972393 496.367093 
L 70.141007 493.887058 
L 70.433161 493.577054 
L 70.725314 492.543706 
L 71.017468 492.130367 
L 71.893928 493.06038 
L 72.186081 494.197063 
L 72.478235 492.027032 
L 72.770388 495.64375 
L 73.062542 494.920406 
L 73.939002 489.960336 
L 74.231156 490.580345 
L 74.523309 492.233702 
L 75.107616 487.170307 
L 75.984076 482.416897 
L 76.27623 482.313552 
L 76.568383 479.626847 
L 77.15269 484.483593 
L 78.02915 483.036916 
L 78.321304 484.070243 
L 78.613457 482.623566 
L 78.905611 482.003568 
L 79.197764 483.243565 
L 80.074224 484.276923 
L 80.366378 487.480291 
L 80.658531 486.860293 
L 81.242838 482.210217 
L 82.119299 482.003568 
L 82.411452 481.486873 
L 82.703605 482.313552 
L 82.995759 484.793587 
L 84.164373 482.520232 
L 84.456526 478.283505 
L 84.74868 478.800169 
L 85.040833 473.84011 
L 85.332986 472.083418 
L 86.209447 470.843411 
L 86.5016 465.263322 
L 86.793754 463.196637 
L 87.085907 457.099884 
L 87.378061 465.366657 
L 88.254521 463.093302 
L 88.546674 463.196637 
L 88.838828 472.806751 
L 89.130981 470.016733 
L 90.299595 473.426781 
L 90.591748 478.283505 
L 90.883902 480.040197 
L 91.176055 477.766842 
L 91.468209 482.313552 
L 92.344669 477.973491 
L 92.636823 484.483593 
L 92.928976 482.726901 
L 93.513283 495.127076 
L 94.389743 484.380258 
L 94.97405 482.933581 
L 95.266204 486.343629 
L 95.558357 483.760259 
L 96.434817 485.000267 
L 97.019124 489.960336 
L 97.311278 497.090437 
L 97.603431 493.163715 
L 98.479892 492.543706 
L 98.772045 494.920406 
L 99.064198 493.473719 
L 99.356352 490.993684 
L 99.648505 494.610402 
L 100.817119 497.917115 
L 101.109273 496.263758 
L 101.401426 493.680389 
L 101.693579 498.123784 
L 102.57004 498.743793 
L 103.154347 501.327163 
L 103.4465 497.090437 
L 103.738654 495.127076 
L 104.615114 496.367093 
L 104.907267 491.407023 
L 105.199421 493.06038 
L 105.491574 491.923697 
L 105.783728 492.543706 
L 106.952341 497.193771 
L 107.244495 495.747084 
L 107.536648 499.880476 
L 107.828802 500.087145 
L 108.705262 500.913824 
L 108.997416 508.043924 
L 109.289569 510.11062 
L 109.581722 507.52725 
L 109.873876 507.73392 
L 111.04249 507.113911 
L 111.91895 499.260467 
L 112.79541 498.743793 
L 113.087564 492.750376 
L 113.379717 494.300397 
L 113.671871 494.300397 
L 113.964024 499.157132 
L 114.840484 497.090437 
L 115.132638 496.057089 
L 115.424791 509.387276 
L 115.716945 509.697281 
L 116.009098 508.560598 
L 116.885559 506.907241 
L 117.177712 508.973937 
L 117.762019 510.937298 
L 118.054172 509.697281 
L 118.930633 508.457263 
L 119.222786 509.077272 
L 119.51494 506.597237 
L 119.807093 506.803907 
L 120.099247 504.94388 
L 120.975707 504.323872 
L 121.26786 504.840546 
L 121.560014 509.800615 
L 122.144321 510.213955 
L 123.020781 510.627294 
L 123.312934 509.077272 
L 123.605088 508.560598 
L 123.897241 510.007285 
L 124.189395 510.627294 
L 125.065855 512.073981 
L 125.358009 514.65735 
L 125.650162 516.104037 
L 125.942315 516.620711 
L 126.234469 514.347346 
L 127.403083 517.654059 
L 127.695236 514.967355 
L 128.279543 512.383985 
L 129.448157 513.313998 
L 129.74031 511.040633 
L 130.032464 512.073981 
L 130.324617 511.763976 
L 131.201077 511.247302 
L 131.493231 512.28065 
L 131.785384 505.667224 
L 132.077538 506.493902 
L 132.369691 509.593946 
L 133.246152 509.90395 
L 133.538305 506.597237 
L 133.830458 508.043924 
L 134.122612 506.700572 
L 134.414765 503.290524 
L 135.291226 505.563889 
L 135.583379 504.427206 
L 135.875533 504.94388 
L 136.167686 506.700572 
L 136.459839 505.667224 
L 137.3363 505.563889 
L 137.628453 502.153841 
L 137.920607 503.083854 
L 138.21276 506.080563 
L 138.504914 503.393859 
L 139.381374 504.220537 
L 139.673527 504.013867 
L 140.257834 488.513649 
L 140.549988 485.206936 
L 141.426448 488.513649 
L 141.718602 493.06038 
L 142.010755 489.857002 
L 142.302908 488.10031 
L 142.595062 484.586938 
L 143.471522 483.656914 
L 143.763676 483.036916 
L 144.055829 483.450245 
L 144.347983 483.656914 
L 144.640136 482.726901 
L 145.516596 486.240284 
L 145.80875 485.826934 
L 146.100903 486.033614 
L 146.393057 485.7236 
L 146.68521 485.000267 
L 147.56167 483.243565 
L 147.853824 477.766842 
L 148.145977 478.076825 
L 148.438131 479.523533 
L 148.730284 482.106903 
L 149.606745 481.590219 
L 149.898898 485.310271 
L 150.191051 486.240284 
L 150.483205 477.560162 
L 150.775358 481.900223 
L 151.651819 482.003568 
L 151.943972 485.826934 
L 152.236126 483.55358 
L 152.820432 485.516951 
L 153.696893 483.863594 
L 153.989046 489.650332 
L 154.2812 486.240284 
L 154.573353 484.380258 
L 154.865507 484.173588 
L 155.741967 484.380258 
L 156.03412 478.076825 
L 156.326274 477.250158 
L 156.618427 477.973491 
L 156.910581 477.353492 
L 158.079194 481.280225 
L 158.371348 483.14023 
L 158.663501 482.520232 
L 158.955655 483.863594 
L 159.832115 484.896921 
L 160.124269 481.590219 
L 160.416422 481.280225 
L 160.708575 480.350211 
L 162.169343 483.34691 
L 162.75365 479.936862 
L 163.045803 481.280225 
L 163.922263 480.040197 
L 164.214417 481.693553 
L 164.50657 478.38684 
L 164.798724 476.836829 
L 165.090877 478.490175 
L 165.967338 481.590219 
L 166.259491 481.796888 
L 166.551644 481.073545 
L 166.843798 480.040197 
L 167.135951 479.420198 
L 168.304565 482.623566 
L 168.596719 484.586938 
L 168.888872 485.413606 
L 169.181025 488.10031 
L 170.057486 486.860293 
L 170.349639 487.583636 
L 170.641793 492.233702 
L 170.933946 485.7236 
L 171.2261 489.546997 
L 172.10256 486.550278 
L 172.686867 481.900223 
L 173.271174 479.626847 
L 174.147634 479.523533 
L 174.731941 483.34691 
L 175.316248 479.006849 
L 176.192708 478.59352 
L 176.484862 475.390121 
L 176.777015 469.603383 
L 177.069168 469.500048 
L 177.361322 470.636731 
L 178.529936 478.38684 
L 179.114243 483.966908 
L 179.406396 482.623566 
L 180.282856 483.656914 
L 180.57501 486.756958 
L 180.867163 481.280225 
L 181.45147 476.630149 
L 182.32793 480.55686 
L 182.620084 478.076825 
L 182.912237 470.740066 
L 183.204391 476.836829 
L 183.496544 473.116766 
L 184.373005 474.253459 
L 184.665158 484.380258 
L 184.957312 488.720319 
L 185.249465 489.236993 
L 185.541618 487.480291 
L 186.710232 484.070243 
L 187.002386 486.446964 
L 187.294539 479.213518 
L 187.586693 477.870177 
L 188.463153 481.796888 
L 188.755306 480.040197 
L 189.04746 480.143532 
L 189.339613 480.76354 
L 189.631767 479.110184 
L 190.508227 478.800169 
L 190.80038 476.320134 
L 191.384687 477.456827 
L 191.676841 479.833527 
L 192.553301 481.693553 
L 192.845455 484.070243 
L 193.137608 481.17689 
L 193.429761 480.660195 
L 193.721915 481.383539 
L 194.598375 484.173588 
L 194.890529 486.550278 
L 195.182682 478.800169 
L 195.474836 479.006849 
L 196.643449 476.320134 
L 196.935603 474.563443 
L 197.227756 474.770123 
L 197.812063 470.223382 
L 295.975621 470.223382 
L 296.852081 493.370384 
L 297.144235 496.263758 
L 297.436388 495.333745 
L 297.728542 497.400441 
L 298.897155 497.090437 
L 299.481462 499.363802 
L 299.773616 497.503776 
L 300.065769 499.467137 
L 300.94223 500.293815 
L 301.234383 498.02045 
L 301.526536 493.06038 
L 301.81869 493.990393 
L 302.110843 491.923697 
L 302.987304 494.713737 
L 303.571611 492.957045 
L 304.155917 492.233702 
L 305.032378 492.543706 
L 305.324531 491.613693 
L 305.616685 491.200354 
L 306.200992 496.573763 
L 307.077452 494.507067 
L 307.369605 494.403732 
L 307.661759 495.023741 
L 307.953912 493.577054 
L 308.246066 496.160424 
L 309.122526 492.957045 
L 309.706833 495.23041 
L 309.998986 499.467137 
L 310.29114 493.783723 
L 311.1676 492.130367 
L 311.459754 495.127076 
L 311.751907 494.197063 
L 312.04406 494.507067 
L 312.336214 494.403732 
L 313.504828 493.267049 
L 313.796981 495.540415 
L 314.089135 495.64375 
L 314.381288 498.950463 
L 315.257748 498.02045 
L 315.549902 497.090437 
L 315.842055 494.403732 
L 316.134209 494.403732 
L 316.426362 491.407023 
L 317.302823 495.023741 
L 317.594976 493.267049 
L 317.887129 494.610402 
L 318.179283 494.403732 
L 318.471436 494.403732 
L 319.347897 493.06038 
L 319.64005 491.407023 
L 319.932204 490.47701 
L 320.224357 492.750376 
L 320.51651 491.820362 
L 321.392971 493.577054 
L 321.685124 494.507067 
L 321.977278 492.750376 
L 322.269431 493.473719 
L 322.561585 489.546997 
L 323.438045 489.443662 
L 323.730198 487.996975 
L 324.606659 490.063671 
L 325.483119 490.373675 
L 325.775272 489.650332 
L 326.067426 489.857002 
L 326.359579 490.993684 
L 326.651733 490.47701 
L 327.528193 491.407023 
L 327.820347 491.923697 
L 328.1125 490.890349 
L 328.404653 490.580345 
L 328.696807 488.616984 
L 329.573267 490.270341 
L 329.865421 493.680389 
L 330.157574 492.957045 
L 330.741881 486.653613 
L 331.618341 487.996975 
L 331.910495 489.443662 
L 332.202648 487.893641 
L 332.494802 490.373675 
L 332.786955 488.10031 
L 333.663415 487.376956 
L 333.955569 485.516951 
L 334.247722 486.033614 
L 334.539876 487.686971 
L 334.832029 496.573763 
L 335.70849 497.917115 
L 336.000643 500.913824 
L 336.292796 500.603819 
L 336.58495 498.227119 
L 336.877103 497.81378 
L 337.753564 498.537124 
L 338.045717 498.433789 
L 338.630024 499.467137 
L 338.922177 498.950463 
L 339.798638 499.673806 
L 340.090791 501.017159 
L 340.382945 499.777141 
L 340.675098 501.533832 
L 340.967252 501.740502 
L 342.135865 499.260467 
L 342.428019 497.193771 
L 342.720172 496.987102 
L 343.012326 495.850419 
L 343.888786 496.987102 
L 344.18094 496.470428 
L 344.765246 491.923697 
L 345.0574 490.167006 
L 345.93386 491.097019 
L 346.226014 488.720319 
L 347.102474 490.47701 
L 347.978934 487.790306 
L 348.271088 491.097019 
L 348.563241 491.820362 
L 348.855395 487.376956 
L 349.147548 487.996975 
L 350.024008 489.546997 
L 350.316162 488.410315 
L 350.608315 485.620286 
L 350.900469 485.000267 
L 351.192622 486.860293 
L 352.069083 487.480291 
L 352.361236 489.340328 
L 352.653389 489.546997 
L 352.945543 488.616984 
L 353.237696 489.030323 
L 354.114157 491.097019 
L 354.698464 486.860293 
L 354.990617 487.790306 
L 355.28277 489.443662 
L 356.159231 490.167006 
L 356.451384 480.866875 
L 356.743538 482.106903 
L 357.035691 481.486873 
L 357.327845 479.626847 
L 358.788612 479.110184 
L 359.080765 477.973491 
L 359.372919 476.320134 
L 360.541532 472.703437 
L 360.833686 473.426781 
L 361.125839 474.976792 
L 361.417993 474.770123 
L 362.294453 472.186753 
L 362.586607 468.67337 
L 362.87876 468.88004 
L 363.170914 468.260041 
L 363.463067 468.570025 
L 364.339527 463.403286 
L 364.631681 464.643313 
L 364.923834 462.989957 
L 365.508141 461.233266 
L 366.384601 459.269905 
L 366.676755 457.513213 
L 366.968908 457.719883 
L 367.261062 458.133212 
L 367.553215 459.16657 
L 368.429676 461.439945 
L 368.721829 457.513213 
L 369.013982 457.926563 
L 369.306136 454.723164 
L 369.598289 454.723164 
L 370.766903 451.416461 
L 371.059057 452.863158 
L 371.35121 453.173152 
L 371.643363 450.176454 
L 372.519824 449.659759 
L 372.811977 450.383103 
L 373.104131 450.589782 
L 373.396284 449.659759 
L 373.688438 453.173152 
L 374.564898 450.073109 
L 375.149205 450.899787 
L 375.441358 450.589782 
L 375.733512 451.62313 
L 376.609972 447.489739 
L 377.194279 445.629713 
L 377.486432 448.729746 
L 377.778586 447.903068 
L 378.655046 452.656478 
L 378.9472 449.969774 
L 379.531506 456.893204 
L 379.82366 453.793151 
L 380.70012 452.346474 
L 380.992274 451.416461 
L 381.284427 445.733047 
L 381.576581 445.113049 
L 381.868734 446.249721 
L 383.037348 447.489739 
L 383.329501 445.319698 
L 383.621655 441.90965 
L 383.913808 442.632994 
L 384.790269 443.253023 
L 385.082422 449.556424 
L 385.374575 445.216363 
L 385.666729 450.279788 
L 385.958882 448.936426 
L 386.835343 453.276487 
L 387.127496 449.969774 
L 387.41965 448.006413 
L 387.711803 443.149678 
L 388.003956 441.289652 
L 388.880417 437.15626 
L 389.17257 433.952892 
L 389.464724 434.57289 
L 389.756877 434.262886 
L 390.049031 435.916243 
L 391.217644 433.126193 
L 391.509798 436.949591 
L 391.801951 437.879604 
L 392.094105 433.849557 
L 392.970565 438.912952 
L 393.262718 438.602947 
L 393.554872 434.469556 
L 393.847025 432.919544 
L 394.139179 426.409432 
L 395.307793 415.972618 
L 395.892099 418.555988 
L 396.184253 416.489303 
L 397.060713 419.589346 
L 397.352867 421.656042 
L 397.64502 422.276051 
L 397.937174 421.346038 
L 398.229327 425.06609 
L 399.105787 425.686099 
L 399.397941 424.032742 
L 399.690094 424.756086 
L 399.982248 416.902632 
L 400.274401 412.76925 
L 401.150861 411.529243 
L 401.443015 409.359202 
L 401.735168 409.359202 
L 402.027322 409.979201 
L 403.195936 410.289216 
L 403.488089 407.395831 
L 403.780242 411.529243 
L 404.072396 410.082546 
L 404.364549 412.355922 
L 405.24101 410.495885 
L 406.11747 400.059072 
L 406.409624 397.992366 
L 407.578237 407.292496 
L 407.870391 408.222509 
L 408.162544 412.76925 
L 408.454698 410.59923 
L 409.331158 405.63914 
L 410.207618 392.722291 
L 410.499772 398.095711 
L 411.376232 400.67908 
L 411.668386 397.579037 
L 411.960539 402.022443 
L 412.252692 395.099012 
L 412.544846 394.065654 
L 413.421306 393.032306 
L 413.71346 383.732175 
L 414.005613 380.218793 
L 414.297767 381.975484 
L 414.58992 375.878731 
L 415.46638 380.425472 
L 415.758534 377.842103 
L 416.050687 370.608657 
L 416.342841 378.462101 
L 416.634994 379.08211 
L 417.511454 378.462101 
L 417.803608 374.12204 
L 418.387915 384.248849 
L 418.680068 381.045471 
L 419.848682 383.732175 
L 420.140835 386.41889 
L 420.432989 381.045471 
L 420.725142 381.355486 
L 421.601603 380.425472 
L 421.893756 381.768814 
L 422.18591 387.038888 
L 422.478063 382.285499 
L 422.770216 373.708691 
L 423.646677 376.808745 
L 423.93883 380.322127 
L 424.230984 385.592212 
L 424.523137 380.632121 
L 424.815291 381.562134 
L 425.983904 377.635423 
L 426.276058 381.975484 
L 426.568211 391.17228 
L 426.860365 392.825626 
L 427.736825 404.399133 
L 428.028978 395.202347 
L 428.321132 391.792278 
L 428.613285 389.932273 
L 428.905439 393.445656 
L 429.781899 392.308963 
L 430.074053 394.892332 
L 430.366206 388.692245 
L 430.950513 387.762232 
L 431.826973 389.312243 
L 432.119127 377.428753 
L 432.41128 378.668781 
L 432.703434 373.708691 
L 432.995587 371.74534 
L 433.872047 370.608657 
L 434.164201 375.362068 
L 434.456354 346.634987 
L 434.748508 346.634987 
L 435.040661 352.31839 
L 436.209275 370.401977 
L 436.793582 360.998522 
L 437.085735 362.651868 
L 437.962196 364.511905 
L 438.254349 363.271898 
L 438.546503 362.858548 
L 438.838656 364.201911 
L 439.130809 367.405279 
L 440.00727 367.198609 
L 440.299423 370.815327 
L 440.88373 369.16197 
L 442.052344 360.171844 
L 442.344497 360.275179 
L 442.636651 363.271898 
L 442.928804 372.675363 
L 443.220958 370.815327 
L 444.097418 375.052053 
L 444.389571 372.882012 
L 444.681725 373.502042 
L 444.973878 364.821909 
L 445.266032 363.891896 
L 446.142492 366.888595 
L 446.434646 374.12204 
L 446.726799 372.985347 
L 447.018952 371.022007 
L 447.311106 372.882012 
L 448.47972 366.061916 
L 448.771873 363.065218 
L 449.064027 361.411861 
L 449.35618 362.03187 
L 450.524794 348.495013 
L 450.816947 351.491711 
L 451.109101 346.738322 
L 451.401254 350.768378 
L 452.277715 347.048316 
L 452.862021 338.574863 
L 453.154175 332.478111 
L 453.446328 333.511469 
L 454.322789 340.4349 
L 454.614942 329.998086 
L 454.907096 329.274743 
L 455.199249 314.704538 
L 455.491402 306.437765 
L 456.367863 310.364497 
L 456.660016 298.5843 
L 456.95217 300.341013 
L 457.244323 303.027696 
L 457.536477 292.590903 
L 458.412937 300.341013 
L 458.70509 312.844511 
L 458.997244 312.017854 
L 459.289397 303.131052 
L 459.581551 300.237647 
L 460.458011 301.787689 
L 460.750164 308.194436 
L 461.334471 314.807852 
L 461.626625 307.677772 
L 462.503085 301.16767 
L 462.795239 302.407708 
L 463.087392 311.087841 
L 463.379545 311.294469 
L 463.671699 319.871277 
L 464.548159 318.83795 
L 464.840313 310.364497 
L 465.132466 316.564564 
L 465.716773 310.261142 
L 466.593233 310.157817 
L 466.885387 312.431162 
L 467.17754 313.361175 
L 467.469694 321.317954 
L 467.761847 310.881161 
L 468.930461 301.064346 
L 469.222614 290.420883 
L 469.514768 284.324121 
L 469.806921 286.597465 
L 470.683382 291.66088 
L 470.975535 295.277587 
L 471.559842 278.020699 
L 471.851995 276.057307 
L 472.728456 278.124013 
L 473.312763 271.200603 
L 474.77353 270.683939 
L 475.065683 275.333973 
L 475.357837 259.110412 
L 475.64999 251.463658 
L 475.942144 251.566972 
L 476.818604 251.463658 
L 477.110757 237.513441 
L 477.402911 248.466939 
L 477.695064 246.503599 
L 477.987218 242.576856 
L 478.863678 242.576856 
L 479.155832 244.850242 
L 479.447985 239.373468 
L 479.740138 237.720111 
L 480.032292 238.54681 
L 480.908752 231.830038 
L 481.200906 231.003381 
L 481.785213 233.070035 
L 482.077366 234.723392 
L 482.953826 237.720111 
L 483.24598 235.240097 
L 483.830287 244.023543 
L 484.12244 238.54681 
L 484.9989 240.510161 
L 485.291054 230.280037 
L 485.583207 229.246669 
L 485.875361 230.280037 
L 486.167514 227.076638 
L 487.043975 239.890131 
L 487.336128 228.006662 
L 487.628281 228.729995 
L 487.920435 236.273434 
L 488.212588 239.683503 
L 489.381202 244.746887 
L 489.673356 237.926791 
L 489.965509 246.090249 
L 490.257662 261.383787 
L 491.134123 274.40395 
L 491.426276 258.180399 
L 491.71843 292.590903 
L 492.010583 288.250822 
L 492.302737 281.017418 
L 493.179197 292.487538 
L 493.47135 284.634115 
L 493.763504 286.390785 
L 494.347811 268.410553 
L 495.224271 262.93383 
L 495.516425 255.287035 
L 495.808578 259.317081 
L 496.100731 255.080365 
L 496.392885 258.077074 
L 497.561499 257.250386 
L 497.853652 262.417125 
L 498.145806 262.623795 
L 498.437959 267.790534 
L 499.314419 266.447213 
L 499.606573 268.100569 
L 499.898726 264.380507 
L 500.19088 255.597029 
L 500.483033 253.530364 
L 501.359493 257.870405 
L 501.651647 243.610194 
L 501.9438 244.953556 
L 502.235954 243.3002 
L 502.528107 253.220329 
L 503.404568 259.937111 
L 503.696721 265.000495 
L 503.988874 265.620514 
L 504.281028 268.410553 
L 504.573181 264.587187 
L 505.741795 245.47022 
L 506.326102 262.830474 
L 506.618255 261.073793 
L 507.494716 274.093966 
L 508.079023 286.804135 
L 508.371176 285.357458 
L 508.66333 282.154059 
L 509.53979 282.154059 
L 509.831943 276.057307 
L 510.124097 274.507316 
L 510.41625 283.600787 
L 510.708404 299.101005 
L 511.584864 311.397824 
L 512.169171 292.797573 
L 512.461324 307.987756 
L 512.753478 313.46453 
L 513.629938 307.471092 
L 513.922092 299.617669 
L 514.214245 277.504035 
L 514.506398 277.194 
L 515.675012 276.98732 
L 515.967166 279.674055 
L 516.259319 286.90749 
L 516.551473 288.974155 
L 516.843626 296.827619 
L 517.720086 301.891003 
L 518.01224 282.877403 
L 518.304393 281.637395 
L 518.8887 272.130616 
L 519.765161 271.717266 
L 520.057314 276.057307 
L 520.349467 301.064346 
L 520.933774 304.267745 
L 521.810235 297.137613 
L 522.102388 297.654277 
L 522.394542 300.031018 
L 522.978848 307.884442 
L 523.855309 302.924382 
L 524.147462 303.131052 
L 524.731769 294.554244 
L 525.023923 291.247541 
L 526.192536 290.214203 
L 526.48469 293.727586 
L 526.776843 292.487538 
L 527.068997 295.070907 
L 527.945457 292.797573 
L 528.23761 295.070907 
L 528.529764 294.24425 
L 528.821917 292.07423 
L 529.114071 281.947431 
L 529.990531 280.707382 
L 530.866991 273.060629 
L 531.159145 271.407272 
L 532.035605 293.417561 
L 532.327759 297.344293 
L 532.619912 292.07423 
L 532.912066 294.760924 
L 533.204219 301.271026 
L 534.372833 307.161098 
L 534.664986 309.537798 
L 534.95714 305.301072 
L 535.249293 299.20432 
L 536.417907 287.837514 
L 536.71006 282.360739 
L 537.002214 279.674055 
L 538.170828 286.080802 
L 538.462981 296.310956 
L 538.755134 293.004253 
L 539.047288 292.177554 
L 539.339441 287.010815 
L 540.215902 284.220765 
L 540.508055 285.150778 
L 540.800209 303.957709 
L 541.092362 309.951148 
L 541.384516 308.711099 
L 542.260976 309.227804 
L 542.553129 305.921101 
L 543.137436 279.364061 
L 543.42959 279.880725 
L 544.30605 282.154059 
L 544.598203 284.427445 
L 544.890357 274.920665 
L 545.18251 283.084082 
L 545.474664 285.047464 
L 546.351124 275.643998 
L 546.643278 284.220765 
L 546.935431 283.290752 
L 547.227584 284.634115 
L 547.519738 282.050745 
L 548.396198 283.290752 
L 548.688352 286.080802 
L 548.980505 279.157381 
L 549.564812 276.263986 
L 550.441272 266.860521 
L 550.733426 262.210445 
L 551.025579 265.620514 
L 551.317733 264.173837 
L 551.609886 260.35046 
L 552.486346 263.450494 
L 552.7785 262.623795 
L 553.070653 258.593748 
L 553.362807 257.250386 
L 554.823574 247.330256 
L 555.115727 251.463658 
L 555.700034 244.023543 
L 556.576495 221.08321 
L 556.868648 231.726714 
L 557.160802 228.006662 
L 557.452955 226.766655 
L 557.745108 210.026388 
L 558.621569 213.436457 
L 558.913722 211.7831 
L 559.205876 213.023107 
L 559.498029 218.189847 
L 559.790183 230.176682 
L 560.666643 253.736993 
L 560.958796 249.603632 
L 561.25095 241.026824 
L 561.543103 250.636959 
L 561.835257 232.966721 
L 562.711717 234.413408 
L 563.003871 232.036708 
L 563.296024 236.480104 
L 563.588177 234.620078 
L 563.880331 229.143344 
L 564.756791 224.079929 
L 565.048945 230.176682 
L 565.341098 228.626639 
L 565.633252 228.420011 
L 565.925405 243.920229 
L 567.094019 260.763768 
L 567.386172 262.313801 
L 568.846939 247.226932 
L 569.139093 237.926791 
L 569.431246 219.11986 
L 569.7234 212.919793 
L 570.015553 203.619642 
L 570.892014 191.219457 
L 571.184167 179.129307 
L 571.47632 183.676028 
L 571.768474 181.609322 
L 572.060627 177.269281 
L 572.937088 174.272562 
L 573.229241 166.625767 
L 573.813548 157.842331 
L 574.105701 151.435584 
L 574.982162 142.548782 
L 575.274315 146.268845 
L 575.566469 130.251963 
L 575.858622 131.285291 
L 576.150776 118.368442 
L 577.027236 111.961696 
L 577.319389 118.368442 
L 577.611543 130.458592 
L 577.903696 123.535182 
L 578.19585 125.705202 
L 579.07231 117.541743 
L 579.364463 118.678436 
L 579.656617 116.508416 
L 580.240924 118.471756 
L 581.117384 135.418703 
L 581.409538 129.52862 
L 581.701691 133.558666 
L 581.993844 132.215304 
L 582.285998 126.221865 
L 583.162458 140.378762 
L 583.454612 131.181977 
L 583.746765 144.615489 
L 584.038919 137.072049 
L 584.331072 133.971974 
L 585.207532 138.312056 
L 585.499686 148.335551 
L 586.083993 127.048564 
L 586.376146 127.358558 
L 587.252607 124.568509 
L 587.54476 136.24536 
L 587.836913 129.735248 
L 588.42122 127.565228 
L 589.297681 130.975297 
L 589.589834 123.845176 
L 589.881988 131.181977 
L 590.466294 134.695359 
L 591.342755 145.442146 
L 591.634908 144.615489 
L 591.927062 151.022235 
L 592.219215 134.07533 
L 592.511369 139.345394 
L 593.387829 148.852215 
L 593.679982 154.018954 
L 593.972136 162.182413 
L 594.264289 175.409245 
L 594.556443 172.929199 
L 595.725056 160.942364 
L 596.309363 147.922202 
L 596.601517 147.302172 
L 597.477977 142.238788 
L 598.062284 173.032555 
L 598.354437 201.242941 
L 598.646591 198.556216 
L 598.646591 198.556216 
" style="fill:none;opacity:0.6;stroke:#000000;stroke-linecap:square;stroke-width:1.5;"/>
   </g>
   <g id="line2d_16">
    <path clip-path="url(#p3ac32daf06)" d="M 377.194279 126.118551 
L 492.302737 126.118551 
L 492.302737 126.118551 
" style="fill:none;stroke:#ff0000;stroke-linecap:square;stroke-width:3;"/>
   </g>
   <g id="line2d_17">
    <path clip-path="url(#p3ac32daf06)" d="M 163.922263 493.990393 
L 376.609972 493.990393 
L 376.609972 493.990393 
" style="fill:none;stroke:#ff0000;stroke-linecap:square;stroke-width:3;"/>
   </g>
   <g id="line2d_18">
    <path clip-path="url(#p3ac32daf06)" d="M 198.688523 470.223382 
L 295.975621 470.223382 
L 295.975621 470.223382 
" style="fill:none;stroke:#ff0000;stroke-linecap:square;stroke-width:3;"/>
   </g>
   <g id="patch_3">
    <path d="M 30.525 587.415373 
L 30.525 14.3 
" style="fill:none;stroke:#000000;stroke-linecap:square;stroke-linejoin:miter;stroke-width:0.8;"/>
   </g>
   <g id="patch_4">
    <path d="M 625.7 587.415373 
L 625.7 14.3 
" style="fill:none;stroke:#000000;stroke-linecap:square;stroke-linejoin:miter;stroke-width:0.8;"/>
   </g>
   <g id="patch_5">
    <path d="M 30.525 587.415373 
L 625.7 587.415373 
" style="fill:none;stroke:#000000;stroke-linecap:square;stroke-linejoin:miter;stroke-width:0.8;"/>
   </g>
   <g id="patch_6">
    <path d="M 30.525 14.3 
L 625.7 14.3 
" style="fill:none;stroke:#000000;stroke-linecap:square;stroke-linejoin:miter;stroke-width:0.8;"/>
   </g>
  </g>
 </g>
 <defs>
  <clipPath id="p3ac32daf06">
   <rect height="573.115373" width="595.175" x="30.525" y="14.3"/>
  </clipPath>
 </defs>
</svg>
