<?xml version="1.0" encoding="utf-8" standalone="no"?>
<!DOCTYPE svg PUBLIC "-//W3C//DTD SVG 1.1//EN"
  "http://www.w3.org/Graphics/SVG/1.1/DTD/svg11.dtd">
<!-- Created with matplotlib (http://matplotlib.org/) -->
<svg height="233pt" version="1.1" viewBox="0 0 400 233" width="400pt" xmlns="http://www.w3.org/2000/svg" xmlns:xlink="http://www.w3.org/1999/xlink">
 <defs>
  <style type="text/css">
*{stroke-linecap:butt;stroke-linejoin:round;}
  </style>
 </defs>
 <g id="figure_1">
  <g id="patch_1">
   <path d="M 0 233 
L 400 233 
L 400 0 
L 0 0 
z
" style="fill:#ffffff;"/>
  </g>
  <g id="axes_1">
   <g id="patch_2">
    <path d="M 42.082813 172.248967 
L 385.7 172.248967 
L 385.7 14.3 
L 42.082813 14.3 
z
" style="fill:#ffffff;"/>
   </g>
   <g id="matplotlib.axis_1">
    <g id="xtick_1">
     <g id="line2d_1">
      <defs>
       <path d="M 0 0 
L 0 3.5 
" id="m3bd7269e79" style="stroke:#000000;stroke-width:0.8;"/>
      </defs>
      <g>
       <use style="stroke:#000000;stroke-width:0.8;" x="81.547521" xlink:href="#m3bd7269e79" y="172.248967"/>
      </g>
     </g>
     <g id="text_1">
      <!-- 2014-02 -->
      <defs>
       <path d="M 19.1875 8.296875 
L 53.609375 8.296875 
L 53.609375 0 
L 7.328125 0 
L 7.328125 8.296875 
Q 12.9375 14.109375 22.625 23.890625 
Q 32.328125 33.6875 34.8125 36.53125 
Q 39.546875 41.84375 41.421875 45.53125 
Q 43.3125 49.21875 43.3125 52.78125 
Q 43.3125 58.59375 39.234375 62.25 
Q 35.15625 65.921875 28.609375 65.921875 
Q 23.96875 65.921875 18.8125 64.3125 
Q 13.671875 62.703125 7.8125 59.421875 
L 7.8125 69.390625 
Q 13.765625 71.78125 18.9375 73 
Q 24.125 74.21875 28.421875 74.21875 
Q 39.75 74.21875 46.484375 68.546875 
Q 53.21875 62.890625 53.21875 53.421875 
Q 53.21875 48.921875 51.53125 44.890625 
Q 49.859375 40.875 45.40625 35.40625 
Q 44.1875 33.984375 37.640625 27.21875 
Q 31.109375 20.453125 19.1875 8.296875 
z
" id="DejaVuSans-32"/>
       <path d="M 31.78125 66.40625 
Q 24.171875 66.40625 20.328125 58.90625 
Q 16.5 51.421875 16.5 36.375 
Q 16.5 21.390625 20.328125 13.890625 
Q 24.171875 6.390625 31.78125 6.390625 
Q 39.453125 6.390625 43.28125 13.890625 
Q 47.125 21.390625 47.125 36.375 
Q 47.125 51.421875 43.28125 58.90625 
Q 39.453125 66.40625 31.78125 66.40625 
z
M 31.78125 74.21875 
Q 44.046875 74.21875 50.515625 64.515625 
Q 56.984375 54.828125 56.984375 36.375 
Q 56.984375 17.96875 50.515625 8.265625 
Q 44.046875 -1.421875 31.78125 -1.421875 
Q 19.53125 -1.421875 13.0625 8.265625 
Q 6.59375 17.96875 6.59375 36.375 
Q 6.59375 54.828125 13.0625 64.515625 
Q 19.53125 74.21875 31.78125 74.21875 
z
" id="DejaVuSans-30"/>
       <path d="M 12.40625 8.296875 
L 28.515625 8.296875 
L 28.515625 63.921875 
L 10.984375 60.40625 
L 10.984375 69.390625 
L 28.421875 72.90625 
L 38.28125 72.90625 
L 38.28125 8.296875 
L 54.390625 8.296875 
L 54.390625 0 
L 12.40625 0 
z
" id="DejaVuSans-31"/>
       <path d="M 37.796875 64.3125 
L 12.890625 25.390625 
L 37.796875 25.390625 
z
M 35.203125 72.90625 
L 47.609375 72.90625 
L 47.609375 25.390625 
L 58.015625 25.390625 
L 58.015625 17.1875 
L 47.609375 17.1875 
L 47.609375 0 
L 37.796875 0 
L 37.796875 17.1875 
L 4.890625 17.1875 
L 4.890625 26.703125 
z
" id="DejaVuSans-34"/>
       <path d="M 4.890625 31.390625 
L 31.203125 31.390625 
L 31.203125 23.390625 
L 4.890625 23.390625 
z
" id="DejaVuSans-2d"/>
      </defs>
      <g transform="translate(44.3227 206.720813)rotate(-30)scale(0.1 -0.1)">
       <use xlink:href="#DejaVuSans-32"/>
       <use x="63.623047" xlink:href="#DejaVuSans-30"/>
       <use x="127.246094" xlink:href="#DejaVuSans-31"/>
       <use x="190.869141" xlink:href="#DejaVuSans-34"/>
       <use x="254.492188" xlink:href="#DejaVuSans-2d"/>
       <use x="290.576172" xlink:href="#DejaVuSans-30"/>
       <use x="354.199219" xlink:href="#DejaVuSans-32"/>
      </g>
     </g>
    </g>
    <g id="xtick_2">
     <g id="line2d_2">
      <g>
       <use style="stroke:#000000;stroke-width:0.8;" x="128.444153" xlink:href="#m3bd7269e79" y="172.248967"/>
      </g>
     </g>
     <g id="text_2">
      <!-- 2014-04 -->
      <g transform="translate(91.219332 206.720813)rotate(-30)scale(0.1 -0.1)">
       <use xlink:href="#DejaVuSans-32"/>
       <use x="63.623047" xlink:href="#DejaVuSans-30"/>
       <use x="127.246094" xlink:href="#DejaVuSans-31"/>
       <use x="190.869141" xlink:href="#DejaVuSans-34"/>
       <use x="254.492188" xlink:href="#DejaVuSans-2d"/>
       <use x="290.576172" xlink:href="#DejaVuSans-30"/>
       <use x="354.199219" xlink:href="#DejaVuSans-34"/>
      </g>
     </g>
    </g>
    <g id="xtick_3">
     <g id="line2d_3">
      <g>
       <use style="stroke:#000000;stroke-width:0.8;" x="176.930501" xlink:href="#m3bd7269e79" y="172.248967"/>
      </g>
     </g>
     <g id="text_3">
      <!-- 2014-06 -->
      <defs>
       <path d="M 33.015625 40.375 
Q 26.375 40.375 22.484375 35.828125 
Q 18.609375 31.296875 18.609375 23.390625 
Q 18.609375 15.53125 22.484375 10.953125 
Q 26.375 6.390625 33.015625 6.390625 
Q 39.65625 6.390625 43.53125 10.953125 
Q 47.40625 15.53125 47.40625 23.390625 
Q 47.40625 31.296875 43.53125 35.828125 
Q 39.65625 40.375 33.015625 40.375 
z
M 52.59375 71.296875 
L 52.59375 62.3125 
Q 48.875 64.0625 45.09375 64.984375 
Q 41.3125 65.921875 37.59375 65.921875 
Q 27.828125 65.921875 22.671875 59.328125 
Q 17.53125 52.734375 16.796875 39.40625 
Q 19.671875 43.65625 24.015625 45.921875 
Q 28.375 48.1875 33.59375 48.1875 
Q 44.578125 48.1875 50.953125 41.515625 
Q 57.328125 34.859375 57.328125 23.390625 
Q 57.328125 12.15625 50.6875 5.359375 
Q 44.046875 -1.421875 33.015625 -1.421875 
Q 20.359375 -1.421875 13.671875 8.265625 
Q 6.984375 17.96875 6.984375 36.375 
Q 6.984375 53.65625 15.1875 63.9375 
Q 23.390625 74.21875 37.203125 74.21875 
Q 40.921875 74.21875 44.703125 73.484375 
Q 48.484375 72.75 52.59375 71.296875 
z
" id="DejaVuSans-36"/>
      </defs>
      <g transform="translate(139.70568 206.720813)rotate(-30)scale(0.1 -0.1)">
       <use xlink:href="#DejaVuSans-32"/>
       <use x="63.623047" xlink:href="#DejaVuSans-30"/>
       <use x="127.246094" xlink:href="#DejaVuSans-31"/>
       <use x="190.869141" xlink:href="#DejaVuSans-34"/>
       <use x="254.492188" xlink:href="#DejaVuSans-2d"/>
       <use x="290.576172" xlink:href="#DejaVuSans-30"/>
       <use x="354.199219" xlink:href="#DejaVuSans-36"/>
      </g>
     </g>
    </g>
    <g id="xtick_4">
     <g id="line2d_4">
      <g>
       <use style="stroke:#000000;stroke-width:0.8;" x="225.41685" xlink:href="#m3bd7269e79" y="172.248967"/>
      </g>
     </g>
     <g id="text_4">
      <!-- 2014-08 -->
      <defs>
       <path d="M 31.78125 34.625 
Q 24.75 34.625 20.71875 30.859375 
Q 16.703125 27.09375 16.703125 20.515625 
Q 16.703125 13.921875 20.71875 10.15625 
Q 24.75 6.390625 31.78125 6.390625 
Q 38.8125 6.390625 42.859375 10.171875 
Q 46.921875 13.96875 46.921875 20.515625 
Q 46.921875 27.09375 42.890625 30.859375 
Q 38.875 34.625 31.78125 34.625 
z
M 21.921875 38.8125 
Q 15.578125 40.375 12.03125 44.71875 
Q 8.5 49.078125 8.5 55.328125 
Q 8.5 64.0625 14.71875 69.140625 
Q 20.953125 74.21875 31.78125 74.21875 
Q 42.671875 74.21875 48.875 69.140625 
Q 55.078125 64.0625 55.078125 55.328125 
Q 55.078125 49.078125 51.53125 44.71875 
Q 48 40.375 41.703125 38.8125 
Q 48.828125 37.15625 52.796875 32.3125 
Q 56.78125 27.484375 56.78125 20.515625 
Q 56.78125 9.90625 50.3125 4.234375 
Q 43.84375 -1.421875 31.78125 -1.421875 
Q 19.734375 -1.421875 13.25 4.234375 
Q 6.78125 9.90625 6.78125 20.515625 
Q 6.78125 27.484375 10.78125 32.3125 
Q 14.796875 37.15625 21.921875 38.8125 
z
M 18.3125 54.390625 
Q 18.3125 48.734375 21.84375 45.5625 
Q 25.390625 42.390625 31.78125 42.390625 
Q 38.140625 42.390625 41.71875 45.5625 
Q 45.3125 48.734375 45.3125 54.390625 
Q 45.3125 60.0625 41.71875 63.234375 
Q 38.140625 66.40625 31.78125 66.40625 
Q 25.390625 66.40625 21.84375 63.234375 
Q 18.3125 60.0625 18.3125 54.390625 
z
" id="DejaVuSans-38"/>
      </defs>
      <g transform="translate(188.192029 206.720813)rotate(-30)scale(0.1 -0.1)">
       <use xlink:href="#DejaVuSans-32"/>
       <use x="63.623047" xlink:href="#DejaVuSans-30"/>
       <use x="127.246094" xlink:href="#DejaVuSans-31"/>
       <use x="190.869141" xlink:href="#DejaVuSans-34"/>
       <use x="254.492188" xlink:href="#DejaVuSans-2d"/>
       <use x="290.576172" xlink:href="#DejaVuSans-30"/>
       <use x="354.199219" xlink:href="#DejaVuSans-38"/>
      </g>
     </g>
    </g>
    <g id="xtick_5">
     <g id="line2d_5">
      <g>
       <use style="stroke:#000000;stroke-width:0.8;" x="273.903198" xlink:href="#m3bd7269e79" y="172.248967"/>
      </g>
     </g>
     <g id="text_5">
      <!-- 2014-10 -->
      <g transform="translate(236.678377 206.720813)rotate(-30)scale(0.1 -0.1)">
       <use xlink:href="#DejaVuSans-32"/>
       <use x="63.623047" xlink:href="#DejaVuSans-30"/>
       <use x="127.246094" xlink:href="#DejaVuSans-31"/>
       <use x="190.869141" xlink:href="#DejaVuSans-34"/>
       <use x="254.492188" xlink:href="#DejaVuSans-2d"/>
       <use x="290.576172" xlink:href="#DejaVuSans-31"/>
       <use x="354.199219" xlink:href="#DejaVuSans-30"/>
      </g>
     </g>
    </g>
    <g id="xtick_6">
     <g id="line2d_6">
      <g>
       <use style="stroke:#000000;stroke-width:0.8;" x="322.389547" xlink:href="#m3bd7269e79" y="172.248967"/>
      </g>
     </g>
     <g id="text_6">
      <!-- 2014-12 -->
      <g transform="translate(285.164726 206.720813)rotate(-30)scale(0.1 -0.1)">
       <use xlink:href="#DejaVuSans-32"/>
       <use x="63.623047" xlink:href="#DejaVuSans-30"/>
       <use x="127.246094" xlink:href="#DejaVuSans-31"/>
       <use x="190.869141" xlink:href="#DejaVuSans-34"/>
       <use x="254.492188" xlink:href="#DejaVuSans-2d"/>
       <use x="290.576172" xlink:href="#DejaVuSans-31"/>
       <use x="354.199219" xlink:href="#DejaVuSans-32"/>
      </g>
     </g>
    </g>
    <g id="xtick_7">
     <g id="line2d_7">
      <g>
       <use style="stroke:#000000;stroke-width:0.8;" x="371.670753" xlink:href="#m3bd7269e79" y="172.248967"/>
      </g>
     </g>
     <g id="text_7">
      <!-- 2015-02 -->
      <defs>
       <path d="M 10.796875 72.90625 
L 49.515625 72.90625 
L 49.515625 64.59375 
L 19.828125 64.59375 
L 19.828125 46.734375 
Q 21.96875 47.46875 24.109375 47.828125 
Q 26.265625 48.1875 28.421875 48.1875 
Q 40.625 48.1875 47.75 41.5 
Q 54.890625 34.8125 54.890625 23.390625 
Q 54.890625 11.625 47.5625 5.09375 
Q 40.234375 -1.421875 26.90625 -1.421875 
Q 22.3125 -1.421875 17.546875 -0.640625 
Q 12.796875 0.140625 7.71875 1.703125 
L 7.71875 11.625 
Q 12.109375 9.234375 16.796875 8.0625 
Q 21.484375 6.890625 26.703125 6.890625 
Q 35.15625 6.890625 40.078125 11.328125 
Q 45.015625 15.765625 45.015625 23.390625 
Q 45.015625 31 40.078125 35.4375 
Q 35.15625 39.890625 26.703125 39.890625 
Q 22.75 39.890625 18.8125 39.015625 
Q 14.890625 38.140625 10.796875 36.28125 
z
" id="DejaVuSans-35"/>
      </defs>
      <g transform="translate(334.445932 206.720813)rotate(-30)scale(0.1 -0.1)">
       <use xlink:href="#DejaVuSans-32"/>
       <use x="63.623047" xlink:href="#DejaVuSans-30"/>
       <use x="127.246094" xlink:href="#DejaVuSans-31"/>
       <use x="190.869141" xlink:href="#DejaVuSans-35"/>
       <use x="254.492188" xlink:href="#DejaVuSans-2d"/>
       <use x="290.576172" xlink:href="#DejaVuSans-30"/>
       <use x="354.199219" xlink:href="#DejaVuSans-32"/>
      </g>
     </g>
    </g>
    <g id="text_8">
     <!-- date -->
     <defs>
      <path d="M 45.40625 46.390625 
L 45.40625 75.984375 
L 54.390625 75.984375 
L 54.390625 0 
L 45.40625 0 
L 45.40625 8.203125 
Q 42.578125 3.328125 38.25 0.953125 
Q 33.9375 -1.421875 27.875 -1.421875 
Q 17.96875 -1.421875 11.734375 6.484375 
Q 5.515625 14.40625 5.515625 27.296875 
Q 5.515625 40.1875 11.734375 48.09375 
Q 17.96875 56 27.875 56 
Q 33.9375 56 38.25 53.625 
Q 42.578125 51.265625 45.40625 46.390625 
z
M 14.796875 27.296875 
Q 14.796875 17.390625 18.875 11.75 
Q 22.953125 6.109375 30.078125 6.109375 
Q 37.203125 6.109375 41.296875 11.75 
Q 45.40625 17.390625 45.40625 27.296875 
Q 45.40625 37.203125 41.296875 42.84375 
Q 37.203125 48.484375 30.078125 48.484375 
Q 22.953125 48.484375 18.875 42.84375 
Q 14.796875 37.203125 14.796875 27.296875 
z
" id="DejaVuSans-64"/>
      <path d="M 34.28125 27.484375 
Q 23.390625 27.484375 19.1875 25 
Q 14.984375 22.515625 14.984375 16.5 
Q 14.984375 11.71875 18.140625 8.90625 
Q 21.296875 6.109375 26.703125 6.109375 
Q 34.1875 6.109375 38.703125 11.40625 
Q 43.21875 16.703125 43.21875 25.484375 
L 43.21875 27.484375 
z
M 52.203125 31.203125 
L 52.203125 0 
L 43.21875 0 
L 43.21875 8.296875 
Q 40.140625 3.328125 35.546875 0.953125 
Q 30.953125 -1.421875 24.3125 -1.421875 
Q 15.921875 -1.421875 10.953125 3.296875 
Q 6 8.015625 6 15.921875 
Q 6 25.140625 12.171875 29.828125 
Q 18.359375 34.515625 30.609375 34.515625 
L 43.21875 34.515625 
L 43.21875 35.40625 
Q 43.21875 41.609375 39.140625 45 
Q 35.0625 48.390625 27.6875 48.390625 
Q 23 48.390625 18.546875 47.265625 
Q 14.109375 46.140625 10.015625 43.890625 
L 10.015625 52.203125 
Q 14.9375 54.109375 19.578125 55.046875 
Q 24.21875 56 28.609375 56 
Q 40.484375 56 46.34375 49.84375 
Q 52.203125 43.703125 52.203125 31.203125 
z
" id="DejaVuSans-61"/>
      <path d="M 18.3125 70.21875 
L 18.3125 54.6875 
L 36.8125 54.6875 
L 36.8125 47.703125 
L 18.3125 47.703125 
L 18.3125 18.015625 
Q 18.3125 11.328125 20.140625 9.421875 
Q 21.96875 7.515625 27.59375 7.515625 
L 36.8125 7.515625 
L 36.8125 0 
L 27.59375 0 
Q 17.1875 0 13.234375 3.875 
Q 9.28125 7.765625 9.28125 18.015625 
L 9.28125 47.703125 
L 2.6875 47.703125 
L 2.6875 54.6875 
L 9.28125 54.6875 
L 9.28125 70.21875 
z
" id="DejaVuSans-74"/>
      <path d="M 56.203125 29.59375 
L 56.203125 25.203125 
L 14.890625 25.203125 
Q 15.484375 15.921875 20.484375 11.0625 
Q 25.484375 6.203125 34.421875 6.203125 
Q 39.59375 6.203125 44.453125 7.46875 
Q 49.3125 8.734375 54.109375 11.28125 
L 54.109375 2.78125 
Q 49.265625 0.734375 44.1875 -0.34375 
Q 39.109375 -1.421875 33.890625 -1.421875 
Q 20.796875 -1.421875 13.15625 6.1875 
Q 5.515625 13.8125 5.515625 26.8125 
Q 5.515625 40.234375 12.765625 48.109375 
Q 20.015625 56 32.328125 56 
Q 43.359375 56 49.78125 48.890625 
Q 56.203125 41.796875 56.203125 29.59375 
z
M 47.21875 32.234375 
Q 47.125 39.59375 43.09375 43.984375 
Q 39.0625 48.390625 32.421875 48.390625 
Q 24.90625 48.390625 20.390625 44.140625 
Q 15.875 39.890625 15.1875 32.171875 
z
" id="DejaVuSans-65"/>
     </defs>
     <g transform="translate(202.616406 220.120313)scale(0.1 -0.1)">
      <use xlink:href="#DejaVuSans-64"/>
      <use x="63.476562" xlink:href="#DejaVuSans-61"/>
      <use x="124.755859" xlink:href="#DejaVuSans-74"/>
      <use x="163.964844" xlink:href="#DejaVuSans-65"/>
     </g>
    </g>
   </g>
   <g id="matplotlib.axis_2">
    <g id="ytick_1">
     <g id="line2d_8">
      <defs>
       <path d="M 0 0 
L -3.5 0 
" id="mcaa5e3a276" style="stroke:#000000;stroke-width:0.8;"/>
      </defs>
      <g>
       <use style="stroke:#000000;stroke-width:0.8;" x="42.082813" xlink:href="#mcaa5e3a276" y="154.908659"/>
      </g>
     </g>
     <g id="text_9">
      <!-- −0.2 -->
      <defs>
       <path d="M 10.59375 35.5 
L 73.1875 35.5 
L 73.1875 27.203125 
L 10.59375 27.203125 
z
" id="DejaVuSans-2212"/>
       <path d="M 10.6875 12.40625 
L 21 12.40625 
L 21 0 
L 10.6875 0 
z
" id="DejaVuSans-2e"/>
      </defs>
      <g transform="translate(10.8 158.707878)scale(0.1 -0.1)">
       <use xlink:href="#DejaVuSans-2212"/>
       <use x="83.789062" xlink:href="#DejaVuSans-30"/>
       <use x="147.412109" xlink:href="#DejaVuSans-2e"/>
       <use x="179.199219" xlink:href="#DejaVuSans-32"/>
      </g>
     </g>
    </g>
    <g id="ytick_2">
     <g id="line2d_9">
      <g>
       <use style="stroke:#000000;stroke-width:0.8;" x="42.082813" xlink:href="#mcaa5e3a276" y="113.82799"/>
      </g>
     </g>
     <g id="text_10">
      <!-- −0.1 -->
      <g transform="translate(10.8 117.627209)scale(0.1 -0.1)">
       <use xlink:href="#DejaVuSans-2212"/>
       <use x="83.789062" xlink:href="#DejaVuSans-30"/>
       <use x="147.412109" xlink:href="#DejaVuSans-2e"/>
       <use x="179.199219" xlink:href="#DejaVuSans-31"/>
      </g>
     </g>
    </g>
    <g id="ytick_3">
     <g id="line2d_10">
      <g>
       <use style="stroke:#000000;stroke-width:0.8;" x="42.082813" xlink:href="#mcaa5e3a276" y="72.747321"/>
      </g>
     </g>
     <g id="text_11">
      <!-- 0.0 -->
      <g transform="translate(19.179688 76.546539)scale(0.1 -0.1)">
       <use xlink:href="#DejaVuSans-30"/>
       <use x="63.623047" xlink:href="#DejaVuSans-2e"/>
       <use x="95.410156" xlink:href="#DejaVuSans-30"/>
      </g>
     </g>
    </g>
    <g id="ytick_4">
     <g id="line2d_11">
      <g>
       <use style="stroke:#000000;stroke-width:0.8;" x="42.082813" xlink:href="#mcaa5e3a276" y="31.666651"/>
      </g>
     </g>
     <g id="text_12">
      <!-- 0.1 -->
      <g transform="translate(19.179688 35.46587)scale(0.1 -0.1)">
       <use xlink:href="#DejaVuSans-30"/>
       <use x="63.623047" xlink:href="#DejaVuSans-2e"/>
       <use x="95.410156" xlink:href="#DejaVuSans-31"/>
      </g>
     </g>
    </g>
   </g>
   <g id="line2d_12">
    <path clip-path="url(#p61ced739a5)" d="M 57.701776 72.348334 
L 83.137237 72.349146 
L 84.726953 63.778593 
L 85.521812 57.632334 
L 86.31667 56.791707 
L 88.701244 64.080234 
L 90.290961 57.358447 
L 91.085819 57.719475 
L 91.880677 59.970556 
L 95.06011 58.056482 
L 95.854968 62.387778 
L 96.649826 61.68923 
L 97.444684 65.600207 
L 99.829259 53.449068 
L 100.624117 56.240867 
L 101.418975 48.787197 
L 102.213833 43.328279 
L 103.008691 42.624234 
L 105.393266 48.74405 
L 106.188124 45.628181 
L 106.982982 49.64623 
L 107.77784 48.596311 
L 108.572699 52.354348 
L 110.957273 60.257109 
L 111.752131 66.924273 
L 112.546989 64.992529 
L 113.341848 75.422 
L 114.136706 75.803387 
L 116.52128 71.663795 
L 117.316138 69.514754 
L 118.110997 74.543116 
L 119.700713 78.772811 
L 122.085287 81.998792 
L 122.880146 83.632174 
L 123.675004 88.451933 
L 124.469862 90.455902 
L 125.26472 89.092193 
L 127.649295 87.603564 
L 128.444153 80.455237 
L 129.239011 83.659919 
L 130.033869 88.528947 
L 130.828727 91.096446 
L 133.213302 97.209454 
L 134.00816 81.98813 
L 134.803018 72.774387 
L 135.597876 85.774092 
L 136.392735 89.346321 
L 138.777309 84.017193 
L 139.572167 83.143662 
L 140.367025 75.95601 
L 141.161884 72.916366 
L 144.341316 72.432191 
L 145.136174 67.748628 
L 145.931033 71.381153 
L 146.725891 71.870177 
L 147.520749 80.146101 
L 149.905323 80.176379 
L 150.700182 72.775062 
L 151.49504 92.620112 
L 152.289898 92.30746 
L 153.084756 88.778986 
L 155.469331 88.089604 
L 156.264189 95.715918 
L 157.059047 97.157732 
L 157.853905 97.515963 
L 158.648763 93.900591 
L 161.033338 86.665091 
L 161.828196 83.682347 
L 162.623054 82.214876 
L 163.417912 83.256854 
L 164.212771 77.193578 
L 166.597345 72.995054 
L 167.392203 74.607234 
L 168.187061 74.006208 
L 168.98192 75.785259 
L 169.776778 70.73833 
L 172.95621 72.044476 
L 173.751069 81.880754 
L 174.545927 83.284931 
L 175.340785 77.931923 
L 177.725359 79.320845 
L 178.520218 79.255102 
L 179.315076 78.794116 
L 180.109934 77.701059 
L 180.904792 84.893317 
L 183.289367 85.512262 
L 184.084225 95.491365 
L 184.879083 89.47436 
L 185.673941 90.507332 
L 186.468799 85.46635 
L 188.853374 84.583583 
L 189.648232 82.702575 
L 190.44309 76.564727 
L 191.237948 76.106722 
L 192.032807 77.430406 
L 194.417381 75.866643 
L 195.212239 79.306601 
L 196.007097 74.749721 
L 196.801956 73.149022 
L 197.596814 67.531279 
L 199.981388 67.515873 
L 200.776246 63.698209 
L 201.571105 63.304925 
L 202.365963 60.049087 
L 205.545395 62.268272 
L 206.340254 67.431344 
L 207.135112 62.076127 
L 207.92997 67.884242 
L 208.724828 59.105072 
L 211.109403 62.999692 
L 211.904261 66.742797 
L 212.699119 68.494596 
L 213.493977 66.248248 
L 214.288835 63.198087 
L 216.67341 62.344634 
L 217.468268 60.513186 
L 219.057984 53.848926 
L 219.852843 59.373322 
L 222.237417 59.093449 
L 223.032275 58.102556 
L 223.827133 59.120917 
L 224.621992 63.460424 
L 225.41685 66.648742 
L 227.801424 63.207446 
L 228.596282 62.852772 
L 229.391141 62.266353 
L 230.185999 62.803682 
L 230.980857 59.519308 
L 233.365431 62.404954 
L 234.955148 72.137873 
L 235.750006 72.996356 
L 236.544864 75.833265 
L 238.929439 72.576264 
L 239.724297 68.060438 
L 240.519155 71.211069 
L 241.314013 52.056421 
L 242.108871 56.394135 
L 244.493446 57.550652 
L 245.288304 52.682316 
L 246.083162 56.475856 
L 246.87802 61.49421 
L 247.672879 62.153368 
L 250.852311 67.847605 
L 251.647169 70.995912 
L 252.442028 72.262236 
L 253.236886 76.688423 
L 255.62146 74.1222 
L 257.211177 97.622789 
L 258.006035 100.112141 
L 258.800893 87.824472 
L 261.185467 96.981937 
L 261.980326 91.231401 
L 262.775184 87.822037 
L 263.570042 81.539974 
L 264.3649 82.578369 
L 266.749475 80.818737 
L 268.339191 74.662352 
L 269.134049 79.492198 
L 269.928907 72.109097 
L 272.313482 73.157499 
L 273.10834 41.237564 
L 273.903198 51.275754 
L 274.698056 56.387506 
L 275.492915 60.063429 
L 277.877489 67.073919 
L 278.672347 71.921123 
L 279.467205 60.740893 
L 280.262064 75.093957 
L 281.056922 83.086789 
L 283.441496 94.244348 
L 284.236354 92.797188 
L 285.031213 94.977627 
L 285.826071 112.325878 
L 286.620929 110.106415 
L 289.005503 98.635044 
L 289.800362 84.231052 
L 290.59522 89.141307 
L 291.390078 83.133252 
L 292.184936 79.658543 
L 294.569511 78.474022 
L 295.364369 76.147945 
L 296.159227 73.33197 
L 296.954085 70.079357 
L 297.748943 61.205261 
L 300.133518 59.136966 
L 300.928376 54.426958 
L 301.723234 51.29595 
L 302.518092 54.28158 
L 303.312951 52.808695 
L 305.697525 51.195034 
L 306.492383 50.257921 
L 307.287241 53.039396 
L 308.0821 53.283695 
L 308.876958 56.144888 
L 311.261532 54.678683 
L 312.05639 52.093205 
L 312.851249 57.752559 
L 313.646107 62.587334 
L 314.440965 64.929353 
L 316.825539 66.487743 
L 317.620398 67.714256 
L 318.415256 67.665202 
L 320.004972 66.532312 
L 322.389547 67.572155 
L 323.184405 67.312243 
L 323.979263 69.603103 
L 324.774121 71.147308 
L 325.568979 70.65385 
L 327.953554 68.609129 
L 328.748412 67.233799 
L 329.54327 68.69403 
L 330.338128 57.78026 
L 331.132987 66.397222 
L 333.517561 69.425231 
L 335.107277 62.650728 
L 335.902136 54.896218 
L 336.696994 59.013898 
L 339.081568 58.702212 
L 340.671285 62.712132 
L 342.261001 64.156266 
L 344.645575 65.081293 
L 345.440434 64.537954 
L 346.235292 73.43966 
L 347.825008 73.285129 
L 350.209583 77.300621 
L 351.004441 82.896206 
L 351.799299 83.503053 
L 352.594157 72.544072 
L 353.389015 78.658128 
L 355.77359 81.352779 
L 356.568448 81.648957 
L 357.363306 89.554027 
L 358.158164 96.228019 
L 358.953023 90.304945 
L 362.132455 88.723719 
L 362.927313 89.645972 
L 363.722172 60.24512 
L 364.51703 63.101915 
L 366.901604 68.153157 
L 367.696462 77.92738 
L 368.491321 83.341813 
L 369.286179 81.154515 
L 370.081037 87.496263 
L 370.081037 87.496263 
" style="fill:none;stroke:#1f77b4;stroke-linecap:square;stroke-width:1.5;"/>
   </g>
   <g id="line2d_13">
    <path clip-path="url(#p61ced739a5)" d="M 57.701776 63.918458 
L 58.496634 68.805025 
L 60.881208 63.204044 
L 61.676066 56.914984 
L 62.470925 52.457289 
L 63.265783 69.649085 
L 64.060641 70.64735 
L 66.445215 81.198658 
L 67.240074 69.09797 
L 68.034932 65.770295 
L 68.82979 65.722786 
L 69.624648 68.56754 
L 72.804081 67.853544 
L 73.598939 68.866876 
L 74.393797 70.761103 
L 75.188655 81.558478 
L 77.57323 83.996521 
L 78.368088 79.718683 
L 79.162946 83.121432 
L 79.957804 75.629071 
L 80.752663 75.958348 
L 83.137237 81.450388 
L 83.932095 78.588821 
L 84.726953 81.477974 
L 86.31667 68.855177 
L 88.701244 67.743517 
L 89.496102 59.918186 
L 91.085819 32.832236 
L 91.880677 74.259029 
L 100.624117 74.259029 
L 101.418975 27.585288 
L 102.213833 37.232025 
L 103.008691 43.904889 
L 105.393266 49.621546 
L 106.188124 48.813827 
L 106.982982 48.849388 
L 107.77784 58.972326 
L 108.572699 62.845867 
L 110.957273 72.04093 
L 111.752131 70.558189 
L 112.546989 71.836543 
L 113.341848 86.574355 
L 114.136706 85.218109 
L 116.52128 85.115412 
L 117.316138 75.631121 
L 118.110997 68.593499 
L 118.905855 68.108093 
L 119.700713 68.695993 
L 122.085287 70.271491 
L 122.880146 69.927249 
L 123.675004 79.041061 
L 124.469862 83.885656 
L 125.26472 80.730364 
L 127.649295 80.051608 
L 128.444153 62.687382 
L 129.239011 65.407439 
L 130.033869 61.077493 
L 130.828727 74.597326 
L 133.213302 73.316481 
L 134.00816 58.599548 
L 134.803018 59.710919 
L 135.597876 71.366387 
L 136.392735 77.849833 
L 138.777309 73.724569 
L 139.572167 70.910981 
L 140.367025 69.886 
L 141.161884 68.224709 
L 144.341316 64.892064 
L 145.136174 61.626289 
L 145.931033 57.220124 
L 146.725891 54.72414 
L 147.520749 68.266176 
L 149.905323 71.012634 
L 150.700182 70.993006 
L 151.49504 75.895422 
L 152.289898 73.618708 
L 153.084756 76.52504 
L 155.469331 72.43375 
L 156.264189 81.297093 
L 157.059047 80.161386 
L 157.853905 74.423416 
L 158.648763 84.51094 
L 161.033338 72.712404 
L 161.828196 79.643499 
L 162.623054 83.428199 
L 163.417912 85.19883 
L 164.212771 85.451982 
L 166.597345 71.718468 
L 167.392203 78.001619 
L 168.187061 77.017269 
L 168.98192 74.041458 
L 169.776778 69.755522 
L 172.95621 62.176951 
L 173.751069 58.752986 
L 174.545927 60.043754 
L 175.340785 59.387849 
L 177.725359 61.415509 
L 178.520218 63.57034 
L 179.315076 63.855427 
L 180.904792 61.806141 
L 183.289367 62.534466 
L 184.084225 60.886854 
L 184.879083 56.41981 
L 185.673941 55.347988 
L 186.468799 56.732587 
L 188.853374 59.916411 
L 189.648232 58.203249 
L 190.44309 60.248665 
L 191.237948 71.512331 
L 192.032807 76.952724 
L 194.417381 82.164181 
L 195.212239 88.266083 
L 196.007097 83.572887 
L 196.801956 88.5763 
L 197.596814 87.447368 
L 199.981388 83.380424 
L 200.776246 78.489291 
L 201.571105 79.856278 
L 202.365963 75.866307 
L 205.545395 78.90866 
L 206.340254 81.764664 
L 207.135112 68.944804 
L 207.92997 70.781687 
L 208.724828 69.325483 
L 211.904261 61.567874 
L 212.699119 61.721034 
L 213.493977 62.528844 
L 214.288835 81.469311 
L 216.67341 78.51636 
L 217.468268 80.082564 
L 218.263126 88.65723 
L 219.057984 87.414445 
L 219.852843 94.141322 
L 222.237417 95.030773 
L 223.032275 92.815144 
L 223.827133 85.134154 
L 224.621992 97.260957 
L 225.41685 91.570352 
L 227.801424 91.332103 
L 229.391141 88.913976 
L 230.185999 91.401032 
L 230.980857 54.851051 
L 233.365431 56.749583 
L 234.16029 56.168424 
L 234.955148 53.119835 
L 235.750006 57.516378 
L 236.544864 52.528062 
L 238.929439 47.262289 
L 239.724297 46.729897 
L 240.519155 51.04812 
L 241.314013 56.493736 
L 242.108871 57.833235 
L 244.493446 58.815105 
L 245.288304 52.889291 
L 246.083162 59.40899 
L 246.87802 57.960567 
L 247.672879 58.674716 
L 250.852311 59.717641 
L 251.647169 57.985822 
L 252.442028 52.851486 
L 253.236886 57.160605 
L 255.62146 62.122121 
L 256.416318 68.453857 
L 257.211177 67.691187 
L 258.006035 72.602464 
L 258.800893 79.411081 
L 261.185467 84.993094 
L 261.980326 78.593587 
L 262.775184 78.12922 
L 263.570042 71.877945 
L 264.3649 79.9068 
L 267.544333 85.381383 
L 268.339191 82.356511 
L 269.134049 90.719698 
L 269.928907 88.926569 
L 272.313482 88.595931 
L 273.10834 89.032362 
L 273.903198 91.560484 
L 274.698056 91.379585 
L 275.492915 88.575214 
L 277.877489 89.251036 
L 278.672347 91.834824 
L 279.467205 82.740511 
L 280.262064 89.147601 
L 281.056922 111.219381 
L 283.441496 110.421928 
L 284.236354 99.182987 
L 285.031213 91.150114 
L 285.826071 88.648342 
L 286.620929 87.455321 
L 289.005503 82.326405 
L 289.800362 63.67619 
L 290.59522 72.807769 
L 291.390078 62.85666 
L 292.184936 58.160468 
L 294.569511 57.880061 
L 295.364369 47.801857 
L 296.954085 54.944391 
L 297.748943 36.056511 
L 300.133518 30.387064 
L 300.928376 27.045135 
L 301.723234 29.512036 
L 302.518092 30.38921 
L 303.312951 44.276822 
L 305.697525 42.930708 
L 306.492383 51.671451 
L 307.287241 57.300114 
L 308.0821 62.046534 
L 308.876958 59.367737 
L 311.261532 63.855478 
L 312.05639 55.454902 
L 312.851249 61.467709 
L 313.646107 56.491865 
L 316.825539 55.847776 
L 317.620398 57.925525 
L 318.415256 52.693697 
L 320.004972 54.190404 
L 322.389547 63.750458 
L 323.184405 63.917126 
L 323.979263 53.664199 
L 324.774121 58.645971 
L 325.568979 57.021239 
L 328.748412 66.134228 
L 329.54327 76.394661 
L 330.338128 77.243818 
L 331.132987 90.595219 
L 333.517561 91.635469 
L 334.312419 95.912001 
L 335.107277 79.234873 
L 335.902136 77.764518 
L 336.696994 73.624274 
L 339.081568 66.365094 
L 339.876426 69.188218 
L 340.671285 70.878382 
L 342.261001 70.105202 
L 344.645575 70.303635 
L 345.440434 74.101454 
L 346.235292 80.284492 
L 347.825008 77.535022 
L 350.209583 83.54512 
L 351.004441 94.382745 
L 351.799299 93.766253 
L 352.594157 77.41849 
L 353.389015 75.343999 
L 355.77359 80.123379 
L 356.568448 80.801509 
L 357.363306 79.258139 
L 358.158164 82.535869 
L 358.953023 74.591363 
L 362.132455 73.081847 
L 362.927313 66.903213 
L 363.722172 59.183918 
L 364.51703 57.950902 
L 366.901604 59.956555 
L 367.696462 80.326042 
L 368.491321 85.926102 
L 369.286179 75.105695 
L 370.081037 86.799038 
L 370.081037 86.799038 
" style="fill:none;stroke:#ff7f0e;stroke-linecap:square;stroke-width:1.5;"/>
   </g>
   <g id="line2d_14">
    <path clip-path="url(#p61ced739a5)" d="M 57.701776 74.90949 
L 58.496634 70.23689 
L 60.881208 72.871823 
L 61.676066 63.282196 
L 62.470925 63.388504 
L 63.265783 64.852388 
L 64.060641 62.651503 
L 66.445215 76.31156 
L 67.240074 64.742514 
L 68.034932 66.222588 
L 68.82979 74.471268 
L 69.624648 77.975856 
L 72.804081 82.844048 
L 73.598939 75.834243 
L 74.393797 83.543825 
L 75.188655 97.840719 
L 77.57323 109.323878 
L 79.162946 71.750829 
L 79.957804 71.750829 
L 80.752663 108.173628 
L 83.137237 71.750829 
L 83.932095 107.228376 
L 84.726953 106.339736 
L 85.521812 95.445577 
L 86.31667 82.266534 
L 88.701244 74.293254 
L 89.496102 64.976602 
L 90.290961 67.687464 
L 91.085819 61.466748 
L 91.880677 63.571387 
L 95.06011 61.635499 
L 95.854968 66.429979 
L 96.649826 65.249395 
L 97.444684 69.845263 
L 99.829259 68.036853 
L 100.624117 70.266242 
L 101.418975 65.703062 
L 102.213833 57.915504 
L 103.008691 57.610652 
L 105.393266 63.812473 
L 106.188124 50.707473 
L 106.982982 54.510843 
L 107.77784 55.163491 
L 108.572699 67.502101 
L 110.957273 75.316637 
L 111.752131 80.734387 
L 112.546989 80.857765 
L 113.341848 83.421371 
L 114.136706 78.7257 
L 116.52128 62.10168 
L 117.316138 58.90683 
L 118.905855 78.365295 
L 119.700713 76.809918 
L 122.085287 90.598674 
L 122.880146 98.326809 
L 123.675004 102.588785 
L 124.469862 99.487327 
L 125.26472 94.485187 
L 127.649295 93.211525 
L 128.444153 84.724106 
L 129.239011 81.389574 
L 130.033869 89.374546 
L 130.828727 104.334416 
L 133.213302 115.528338 
L 134.00816 104.644828 
L 134.803018 90.928764 
L 135.597876 106.195771 
L 136.392735 109.912284 
L 138.777309 99.832141 
L 139.572167 87.62241 
L 140.367025 60.092236 
L 141.161884 58.842591 
L 144.341316 57.615265 
L 145.136174 60.480127 
L 145.931033 68.805325 
L 146.725891 71.139673 
L 147.520749 79.822122 
L 149.905323 84.709963 
L 150.700182 61.908398 
L 151.49504 60.074865 
L 152.289898 53.029966 
L 153.084756 49.276918 
L 155.469331 50.511349 
L 156.264189 57.895833 
L 157.059047 87.69898 
L 157.853905 88.97194 
L 158.648763 91.137292 
L 161.033338 83.646923 
L 161.828196 84.820338 
L 163.417912 90.613816 
L 164.212771 93.649436 
L 166.597345 86.271629 
L 167.392203 85.159813 
L 168.187061 78.437702 
L 168.98192 73.884416 
L 169.776778 70.24403 
L 172.95621 69.708361 
L 173.751069 73.275063 
L 174.545927 71.130188 
L 175.340785 73.083976 
L 177.725359 69.08137 
L 178.520218 70.412846 
L 180.109934 66.202841 
L 180.904792 55.165644 
L 183.289367 55.148368 
L 184.084225 52.981504 
L 184.879083 50.443653 
L 185.673941 50.284685 
L 186.468799 50.348225 
L 188.853374 77.481011 
L 189.648232 82.46537 
L 190.44309 76.864101 
L 191.237948 80.239237 
L 192.032807 87.5541 
L 194.417381 91.756114 
L 195.212239 92.756554 
L 196.007097 94.685244 
L 196.801956 88.914495 
L 197.596814 81.399133 
L 199.981388 70.681305 
L 200.776246 68.395799 
L 201.571105 62.564057 
L 202.365963 60.111773 
L 205.545395 67.513524 
L 206.340254 78.793414 
L 207.135112 73.947427 
L 207.92997 71.903757 
L 208.724828 64.841685 
L 211.109403 60.684008 
L 211.904261 62.319001 
L 212.699119 84.561525 
L 213.493977 90.726777 
L 214.288835 88.427082 
L 216.67341 88.58795 
L 217.468268 84.571817 
L 218.263126 71.466371 
L 219.057984 55.084337 
L 219.852843 57.300386 
L 222.237417 61.091006 
L 223.032275 64.166805 
L 223.827133 53.566716 
L 224.621992 63.303259 
L 225.41685 65.325532 
L 227.801424 54.705372 
L 228.596282 65.706172 
L 229.391141 65.186032 
L 230.185999 67.241878 
L 230.980857 64.467428 
L 233.365431 65.99898 
L 234.16029 69.260496 
L 234.955148 62.534259 
L 235.750006 62.427001 
L 236.544864 63.043641 
L 239.724297 51.807815 
L 240.519155 57.517643 
L 241.314013 56.75335 
L 242.108871 53.50753 
L 244.493446 58.202666 
L 245.288304 58.547066 
L 246.083162 54.895925 
L 246.87802 54.897672 
L 247.672879 54.315103 
L 250.852311 47.07812 
L 251.647169 53.709211 
L 252.442028 52.05343 
L 253.236886 49.80908 
L 255.62146 27.840873 
L 256.416318 42.772943 
L 257.211177 42.097363 
L 258.006035 43.80228 
L 258.800893 29.57371 
L 261.185467 36.95055 
L 261.980326 38.366227 
L 262.775184 42.491404 
L 263.570042 50.593346 
L 264.3649 64.980505 
L 266.749475 89.803474 
L 267.544333 86.215962 
L 268.339191 78.436025 
L 269.134049 88.756851 
L 269.928907 71.766542 
L 272.313482 74.326016 
L 273.10834 72.667716 
L 273.903198 77.988416 
L 274.698056 76.770224 
L 275.492915 71.928906 
L 277.877489 66.595049 
L 278.672347 72.911013 
L 279.467205 71.29479 
L 280.262064 70.998644 
L 281.056922 85.143397 
L 283.441496 95.943754 
L 284.236354 97.923941 
L 285.031213 97.124365 
L 286.620929 87.012073 
L 289.005503 78.34507 
L 289.800362 69.186699 
L 290.59522 50.589064 
L 291.390078 46.165762 
L 292.184936 38.062006 
L 294.569511 27.555511 
L 295.364369 71.750829 
L 296.159227 25.792224 
L 296.954085 26.684641 
L 297.748943 25.184154 
L 300.133518 24.946877 
L 300.928376 71.750829 
L 305.697525 71.750829 
L 306.492383 25.816937 
L 307.287241 71.750829 
L 308.0821 25.276556 
L 308.876958 71.750829 
L 311.261532 21.479498 
L 312.05639 33.156293 
L 312.851249 48.073613 
L 313.646107 46.155273 
L 314.440965 51.607893 
L 316.825539 47.91682 
L 317.620398 51.613581 
L 318.415256 52.759086 
L 320.004972 57.190092 
L 322.389547 73.169837 
L 323.184405 70.13213 
L 323.979263 74.84793 
L 324.774121 74.991069 
L 325.568979 71.351753 
L 327.953554 83.437971 
L 328.748412 76.349713 
L 329.54327 87.427469 
L 330.338128 80.974069 
L 331.132987 78.321291 
L 333.517561 81.080976 
L 334.312419 87.872875 
L 335.107277 76.360536 
L 335.902136 69.74414 
L 336.696994 69.841498 
L 339.081568 67.576747 
L 339.876426 76.478071 
L 340.671285 70.619015 
L 342.261001 68.351842 
L 344.645575 70.665835 
L 345.440434 65.216042 
L 346.235292 71.252261 
L 347.825008 74.126085 
L 350.209583 82.51267 
L 351.004441 81.076759 
L 351.799299 85.976782 
L 352.594157 71.728944 
L 353.389015 76.346607 
L 355.77359 83.789153 
L 356.568448 87.286216 
L 357.363306 93.143866 
L 358.158164 103.125472 
L 358.953023 99.575735 
L 362.132455 88.132136 
L 362.927313 82.178604 
L 363.722172 74.968594 
L 364.51703 73.971588 
L 366.901604 69.116321 
L 368.491321 92.43319 
L 369.286179 113.515789 
L 370.081037 108.559355 
L 370.081037 108.559355 
" style="fill:none;stroke:#2ca02c;stroke-linecap:square;stroke-width:1.5;"/>
   </g>
   <g id="line2d_15">
    <path clip-path="url(#p61ced739a5)" d="M 57.701776 77.606195 
L 58.496634 86.079563 
L 60.881208 82.896851 
L 61.676066 85.157253 
L 62.470925 81.631773 
L 63.265783 85.93211 
L 64.060641 87.651541 
L 66.445215 84.530774 
L 68.034932 67.236042 
L 68.82979 69.652902 
L 69.624648 79.928533 
L 73.598939 71.688853 
L 74.393797 67.461623 
L 75.188655 74.574748 
L 77.57323 70.550304 
L 78.368088 103.210035 
L 79.162946 105.782599 
L 79.957804 104.305146 
L 80.752663 101.70237 
L 83.137237 99.477327 
L 83.932095 92.289853 
L 84.726953 88.150239 
L 85.521812 87.002142 
L 86.31667 80.495073 
L 88.701244 72.733014 
L 89.496102 67.040704 
L 90.290961 66.638839 
L 91.085819 59.111563 
L 91.880677 59.038174 
L 95.06011 57.618815 
L 95.854968 64.214331 
L 96.649826 68.481371 
L 97.444684 72.060797 
L 99.829259 69.393425 
L 100.624117 72.755174 
L 101.418975 77.098982 
L 102.213833 69.682605 
L 103.008691 71.957783 
L 105.393266 71.826745 
L 106.188124 70.195571 
L 106.982982 70.249056 
L 107.77784 72.307711 
L 108.572699 73.290748 
L 110.957273 73.356893 
L 111.752131 69.441583 
L 112.546989 69.045223 
L 114.136706 77.727198 
L 116.52128 75.360903 
L 117.316138 70.961141 
L 118.110997 70.824718 
L 118.905855 72.818052 
L 119.700713 69.72059 
L 122.085287 65.033903 
L 122.880146 61.251347 
L 123.675004 66.433053 
L 124.469862 68.723216 
L 125.26472 69.645558 
L 127.649295 70.109707 
L 128.444153 66.553918 
L 129.239011 66.243425 
L 130.033869 69.616802 
L 130.828727 75.307177 
L 133.213302 81.752581 
L 134.00816 81.276332 
L 134.803018 75.459678 
L 135.597876 80.710118 
L 136.392735 83.640565 
L 138.777309 81.764965 
L 139.572167 84.247048 
L 140.367025 82.911277 
L 141.161884 77.944976 
L 144.341316 72.808761 
L 145.136174 72.071977 
L 145.931033 76.914755 
L 146.725891 42.920191 
L 147.520749 41.017637 
L 149.905323 25.472109 
L 151.49504 33.360842 
L 152.289898 34.387506 
L 153.084756 35.847255 
L 155.469331 32.170744 
L 156.264189 40.394998 
L 157.059047 44.919214 
L 157.853905 50.679728 
L 158.648763 55.090397 
L 161.033338 52.420788 
L 161.828196 54.588171 
L 162.623054 57.497941 
L 163.417912 64.007705 
L 164.212771 60.284129 
L 166.597345 57.831931 
L 167.392203 60.529116 
L 168.187061 62.427803 
L 168.98192 63.202654 
L 169.776778 59.781904 
L 172.95621 52.609951 
L 173.751069 54.98528 
L 174.545927 48.474963 
L 175.340785 51.767601 
L 177.725359 56.244288 
L 178.520218 51.244005 
L 179.315076 47.939717 
L 180.109934 48.208362 
L 180.904792 51.614519 
L 183.289367 68.02182 
L 201.571105 68.02182 
L 202.365963 165.069468 
L 205.545395 56.222902 
L 206.340254 59.532725 
L 207.135112 59.620525 
L 207.92997 61.543627 
L 208.724828 61.404791 
L 211.109403 56.906515 
L 211.904261 62.918211 
L 212.699119 66.065922 
L 213.493977 74.110831 
L 214.288835 68.504688 
L 216.67341 71.475192 
L 217.468268 68.778592 
L 218.263126 59.020037 
L 219.057984 61.332784 
L 219.852843 59.995354 
L 222.237417 55.494156 
L 223.032275 59.690516 
L 223.827133 61.812818 
L 224.621992 73.82331 
L 225.41685 71.906668 
L 227.801424 74.254985 
L 228.596282 76.321025 
L 229.391141 76.945827 
L 230.185999 78.983361 
L 230.980857 77.705279 
L 233.365431 71.964231 
L 234.16029 72.201378 
L 234.955148 67.03003 
L 235.750006 66.865316 
L 238.929439 61.414301 
L 239.724297 56.615913 
L 240.519155 57.220805 
L 241.314013 57.996589 
L 242.108871 55.540791 
L 244.493446 55.144709 
L 245.288304 58.612995 
L 246.083162 54.025302 
L 246.87802 55.028384 
L 247.672879 55.387619 
L 250.852311 53.635691 
L 251.647169 73.569524 
L 252.442028 77.824694 
L 253.236886 75.097578 
L 255.62146 78.520996 
L 256.416318 80.548514 
L 257.211177 68.610865 
L 258.006035 67.66735 
L 258.800893 67.583042 
L 261.185467 68.50652 
L 261.980326 72.182749 
L 262.775184 69.317558 
L 263.570042 68.680117 
L 264.3649 72.322856 
L 266.749475 71.838191 
L 267.544333 65.296519 
L 268.339191 69.301737 
L 269.134049 85.019281 
L 269.928907 72.352071 
L 272.313482 74.589935 
L 273.10834 71.287132 
L 273.903198 78.096278 
L 274.698056 75.379449 
L 275.492915 76.721534 
L 277.877489 76.989561 
L 278.672347 80.883363 
L 279.467205 72.040398 
L 280.262064 71.006338 
L 281.056922 72.052828 
L 283.441496 75.619068 
L 285.826071 88.446287 
L 286.620929 81.66553 
L 289.005503 72.330763 
L 289.800362 60.516378 
L 290.59522 58.531478 
L 291.390078 52.106038 
L 292.184936 51.430573 
L 294.569511 53.039843 
L 295.364369 47.361598 
L 296.159227 46.639042 
L 296.954085 49.787308 
L 297.748943 47.319438 
L 300.133518 43.57256 
L 300.928376 49.173659 
L 301.723234 49.867178 
L 302.518092 52.230598 
L 303.312951 52.74601 
L 305.697525 55.451541 
L 306.492383 54.210348 
L 307.287241 50.782705 
L 308.0821 47.929756 
L 308.876958 45.958079 
L 311.261532 49.757712 
L 312.05639 46.579813 
L 312.851249 52.217189 
L 313.646107 48.113152 
L 314.440965 49.821277 
L 316.825539 44.15898 
L 317.620398 50.417862 
L 318.415256 47.37321 
L 320.004972 50.076592 
L 322.389547 66.275322 
L 323.184405 68.96304 
L 323.979263 65.429518 
L 325.568979 71.423218 
L 327.953554 81.845751 
L 328.748412 76.364218 
L 329.54327 84.912452 
L 330.338128 86.214414 
L 331.132987 92.728456 
L 333.517561 97.286651 
L 334.312419 101.562644 
L 335.902136 77.850008 
L 336.696994 80.302291 
L 339.081568 75.232416 
L 339.876426 75.603389 
L 340.671285 76.568204 
L 342.261001 68.02182 
L 344.645575 67.353192 
L 345.440434 72.208592 
L 346.235292 79.632729 
L 347.825008 82.431326 
L 350.209583 92.599579 
L 351.004441 90.943293 
L 351.799299 84.277536 
L 352.594157 67.678755 
L 353.389015 67.220831 
L 355.77359 77.554963 
L 356.568448 73.856577 
L 357.363306 75.804165 
L 358.158164 87.445408 
L 358.953023 90.039003 
L 362.132455 78.620354 
L 362.927313 74.932307 
L 363.722172 63.621511 
L 364.51703 61.426309 
L 366.901604 61.174093 
L 367.696462 75.789349 
L 368.491321 51.751323 
L 369.286179 38.902976 
L 370.081037 47.191344 
L 370.081037 47.191344 
" style="fill:none;stroke:#d62728;stroke-linecap:square;stroke-width:1.5;"/>
   </g>
   <g id="patch_3">
    <path d="M 42.082813 172.248967 
L 42.082813 14.3 
" style="fill:none;stroke:#000000;stroke-linecap:square;stroke-linejoin:miter;stroke-width:0.8;"/>
   </g>
   <g id="patch_4">
    <path d="M 385.7 172.248967 
L 385.7 14.3 
" style="fill:none;stroke:#000000;stroke-linecap:square;stroke-linejoin:miter;stroke-width:0.8;"/>
   </g>
   <g id="patch_5">
    <path d="M 42.082812 172.248967 
L 385.7 172.248967 
" style="fill:none;stroke:#000000;stroke-linecap:square;stroke-linejoin:miter;stroke-width:0.8;"/>
   </g>
   <g id="patch_6">
    <path d="M 42.082812 14.3 
L 385.7 14.3 
" style="fill:none;stroke:#000000;stroke-linecap:square;stroke-linejoin:miter;stroke-width:0.8;"/>
   </g>
   <g id="legend_1">
    <g id="patch_7">
     <path d="M 49.082813 167.248967 
L 110.454688 167.248967 
Q 112.454688 167.248967 112.454688 165.248967 
L 112.454688 92.858342 
Q 112.454688 90.858342 110.454688 90.858342 
L 49.082813 90.858342 
Q 47.082813 90.858342 47.082813 92.858342 
L 47.082813 165.248967 
Q 47.082813 167.248967 49.082813 167.248967 
z
" style="fill:#ffffff;opacity:0.8;stroke:#cccccc;stroke-linejoin:miter;"/>
    </g>
    <g id="text_13">
     <!-- symbol -->
     <defs>
      <path d="M 44.28125 53.078125 
L 44.28125 44.578125 
Q 40.484375 46.53125 36.375 47.5 
Q 32.28125 48.484375 27.875 48.484375 
Q 21.1875 48.484375 17.84375 46.4375 
Q 14.5 44.390625 14.5 40.28125 
Q 14.5 37.15625 16.890625 35.375 
Q 19.28125 33.59375 26.515625 31.984375 
L 29.59375 31.296875 
Q 39.15625 29.25 43.1875 25.515625 
Q 47.21875 21.78125 47.21875 15.09375 
Q 47.21875 7.46875 41.1875 3.015625 
Q 35.15625 -1.421875 24.609375 -1.421875 
Q 20.21875 -1.421875 15.453125 -0.5625 
Q 10.6875 0.296875 5.421875 2 
L 5.421875 11.28125 
Q 10.40625 8.6875 15.234375 7.390625 
Q 20.0625 6.109375 24.8125 6.109375 
Q 31.15625 6.109375 34.5625 8.28125 
Q 37.984375 10.453125 37.984375 14.40625 
Q 37.984375 18.0625 35.515625 20.015625 
Q 33.0625 21.96875 24.703125 23.78125 
L 21.578125 24.515625 
Q 13.234375 26.265625 9.515625 29.90625 
Q 5.8125 33.546875 5.8125 39.890625 
Q 5.8125 47.609375 11.28125 51.796875 
Q 16.75 56 26.8125 56 
Q 31.78125 56 36.171875 55.265625 
Q 40.578125 54.546875 44.28125 53.078125 
z
" id="DejaVuSans-73"/>
      <path d="M 32.171875 -5.078125 
Q 28.375 -14.84375 24.75 -17.8125 
Q 21.140625 -20.796875 15.09375 -20.796875 
L 7.90625 -20.796875 
L 7.90625 -13.28125 
L 13.1875 -13.28125 
Q 16.890625 -13.28125 18.9375 -11.515625 
Q 21 -9.765625 23.484375 -3.21875 
L 25.09375 0.875 
L 2.984375 54.6875 
L 12.5 54.6875 
L 29.59375 11.921875 
L 46.6875 54.6875 
L 56.203125 54.6875 
z
" id="DejaVuSans-79"/>
      <path d="M 52 44.1875 
Q 55.375 50.25 60.0625 53.125 
Q 64.75 56 71.09375 56 
Q 79.640625 56 84.28125 50.015625 
Q 88.921875 44.046875 88.921875 33.015625 
L 88.921875 0 
L 79.890625 0 
L 79.890625 32.71875 
Q 79.890625 40.578125 77.09375 44.375 
Q 74.3125 48.1875 68.609375 48.1875 
Q 61.625 48.1875 57.5625 43.546875 
Q 53.515625 38.921875 53.515625 30.90625 
L 53.515625 0 
L 44.484375 0 
L 44.484375 32.71875 
Q 44.484375 40.625 41.703125 44.40625 
Q 38.921875 48.1875 33.109375 48.1875 
Q 26.21875 48.1875 22.15625 43.53125 
Q 18.109375 38.875 18.109375 30.90625 
L 18.109375 0 
L 9.078125 0 
L 9.078125 54.6875 
L 18.109375 54.6875 
L 18.109375 46.1875 
Q 21.1875 51.21875 25.484375 53.609375 
Q 29.78125 56 35.6875 56 
Q 41.65625 56 45.828125 52.96875 
Q 50 49.953125 52 44.1875 
z
" id="DejaVuSans-6d"/>
      <path d="M 48.6875 27.296875 
Q 48.6875 37.203125 44.609375 42.84375 
Q 40.53125 48.484375 33.40625 48.484375 
Q 26.265625 48.484375 22.1875 42.84375 
Q 18.109375 37.203125 18.109375 27.296875 
Q 18.109375 17.390625 22.1875 11.75 
Q 26.265625 6.109375 33.40625 6.109375 
Q 40.53125 6.109375 44.609375 11.75 
Q 48.6875 17.390625 48.6875 27.296875 
z
M 18.109375 46.390625 
Q 20.953125 51.265625 25.265625 53.625 
Q 29.59375 56 35.59375 56 
Q 45.5625 56 51.78125 48.09375 
Q 58.015625 40.1875 58.015625 27.296875 
Q 58.015625 14.40625 51.78125 6.484375 
Q 45.5625 -1.421875 35.59375 -1.421875 
Q 29.59375 -1.421875 25.265625 0.953125 
Q 20.953125 3.328125 18.109375 8.203125 
L 18.109375 0 
L 9.078125 0 
L 9.078125 75.984375 
L 18.109375 75.984375 
z
" id="DejaVuSans-62"/>
      <path d="M 30.609375 48.390625 
Q 23.390625 48.390625 19.1875 42.75 
Q 14.984375 37.109375 14.984375 27.296875 
Q 14.984375 17.484375 19.15625 11.84375 
Q 23.34375 6.203125 30.609375 6.203125 
Q 37.796875 6.203125 41.984375 11.859375 
Q 46.1875 17.53125 46.1875 27.296875 
Q 46.1875 37.015625 41.984375 42.703125 
Q 37.796875 48.390625 30.609375 48.390625 
z
M 30.609375 56 
Q 42.328125 56 49.015625 48.375 
Q 55.71875 40.765625 55.71875 27.296875 
Q 55.71875 13.875 49.015625 6.21875 
Q 42.328125 -1.421875 30.609375 -1.421875 
Q 18.84375 -1.421875 12.171875 6.21875 
Q 5.515625 13.875 5.515625 27.296875 
Q 5.515625 40.765625 12.171875 48.375 
Q 18.84375 56 30.609375 56 
z
" id="DejaVuSans-6f"/>
      <path d="M 9.421875 75.984375 
L 18.40625 75.984375 
L 18.40625 0 
L 9.421875 0 
z
" id="DejaVuSans-6c"/>
     </defs>
     <g transform="translate(61.711719 102.456779)scale(0.1 -0.1)">
      <use xlink:href="#DejaVuSans-73"/>
      <use x="52.099609" xlink:href="#DejaVuSans-79"/>
      <use x="111.279297" xlink:href="#DejaVuSans-6d"/>
      <use x="208.691406" xlink:href="#DejaVuSans-62"/>
      <use x="272.167969" xlink:href="#DejaVuSans-6f"/>
      <use x="333.349609" xlink:href="#DejaVuSans-6c"/>
     </g>
    </g>
    <g id="line2d_16">
     <path d="M 51.082813 113.634904 
L 71.082813 113.634904 
" style="fill:none;stroke:#1f77b4;stroke-linecap:square;stroke-width:1.5;"/>
    </g>
    <g id="line2d_17"/>
    <g id="text_14">
     <!-- EBAY -->
     <defs>
      <path d="M 9.8125 72.90625 
L 55.90625 72.90625 
L 55.90625 64.59375 
L 19.671875 64.59375 
L 19.671875 43.015625 
L 54.390625 43.015625 
L 54.390625 34.71875 
L 19.671875 34.71875 
L 19.671875 8.296875 
L 56.78125 8.296875 
L 56.78125 0 
L 9.8125 0 
z
" id="DejaVuSans-45"/>
      <path d="M 19.671875 34.8125 
L 19.671875 8.109375 
L 35.5 8.109375 
Q 43.453125 8.109375 47.28125 11.40625 
Q 51.125 14.703125 51.125 21.484375 
Q 51.125 28.328125 47.28125 31.5625 
Q 43.453125 34.8125 35.5 34.8125 
z
M 19.671875 64.796875 
L 19.671875 42.828125 
L 34.28125 42.828125 
Q 41.5 42.828125 45.03125 45.53125 
Q 48.578125 48.25 48.578125 53.8125 
Q 48.578125 59.328125 45.03125 62.0625 
Q 41.5 64.796875 34.28125 64.796875 
z
M 9.8125 72.90625 
L 35.015625 72.90625 
Q 46.296875 72.90625 52.390625 68.21875 
Q 58.5 63.53125 58.5 54.890625 
Q 58.5 48.1875 55.375 44.234375 
Q 52.25 40.28125 46.1875 39.3125 
Q 53.46875 37.75 57.5 32.78125 
Q 61.53125 27.828125 61.53125 20.40625 
Q 61.53125 10.640625 54.890625 5.3125 
Q 48.25 0 35.984375 0 
L 9.8125 0 
z
" id="DejaVuSans-42"/>
      <path d="M 34.1875 63.1875 
L 20.796875 26.90625 
L 47.609375 26.90625 
z
M 28.609375 72.90625 
L 39.796875 72.90625 
L 67.578125 0 
L 57.328125 0 
L 50.6875 18.703125 
L 17.828125 18.703125 
L 11.1875 0 
L 0.78125 0 
z
" id="DejaVuSans-41"/>
      <path d="M -0.203125 72.90625 
L 10.40625 72.90625 
L 30.609375 42.921875 
L 50.6875 72.90625 
L 61.28125 72.90625 
L 35.5 34.71875 
L 35.5 0 
L 25.59375 0 
L 25.59375 34.71875 
z
" id="DejaVuSans-59"/>
     </defs>
     <g transform="translate(79.082813 117.134904)scale(0.1 -0.1)">
      <use xlink:href="#DejaVuSans-45"/>
      <use x="63.183594" xlink:href="#DejaVuSans-42"/>
      <use x="131.787109" xlink:href="#DejaVuSans-41"/>
      <use x="200.085938" xlink:href="#DejaVuSans-59"/>
     </g>
    </g>
    <g id="line2d_18">
     <path d="M 51.082813 128.313029 
L 71.082813 128.313029 
" style="fill:none;stroke:#ff7f0e;stroke-linecap:square;stroke-width:1.5;"/>
    </g>
    <g id="line2d_19"/>
    <g id="text_15">
     <!-- NVDA -->
     <defs>
      <path d="M 9.8125 72.90625 
L 23.09375 72.90625 
L 55.421875 11.921875 
L 55.421875 72.90625 
L 64.984375 72.90625 
L 64.984375 0 
L 51.703125 0 
L 19.390625 60.984375 
L 19.390625 0 
L 9.8125 0 
z
" id="DejaVuSans-4e"/>
      <path d="M 28.609375 0 
L 0.78125 72.90625 
L 11.078125 72.90625 
L 34.1875 11.53125 
L 57.328125 72.90625 
L 67.578125 72.90625 
L 39.796875 0 
z
" id="DejaVuSans-56"/>
      <path d="M 19.671875 64.796875 
L 19.671875 8.109375 
L 31.59375 8.109375 
Q 46.6875 8.109375 53.6875 14.9375 
Q 60.6875 21.78125 60.6875 36.53125 
Q 60.6875 51.171875 53.6875 57.984375 
Q 46.6875 64.796875 31.59375 64.796875 
z
M 9.8125 72.90625 
L 30.078125 72.90625 
Q 51.265625 72.90625 61.171875 64.09375 
Q 71.09375 55.28125 71.09375 36.53125 
Q 71.09375 17.671875 61.125 8.828125 
Q 51.171875 0 30.078125 0 
L 9.8125 0 
z
" id="DejaVuSans-44"/>
     </defs>
     <g transform="translate(79.082813 131.813029)scale(0.1 -0.1)">
      <use xlink:href="#DejaVuSans-4e"/>
      <use x="74.804688" xlink:href="#DejaVuSans-56"/>
      <use x="143.212891" xlink:href="#DejaVuSans-44"/>
      <use x="220.199219" xlink:href="#DejaVuSans-41"/>
     </g>
    </g>
    <g id="line2d_20">
     <path d="M 51.082813 142.991154 
L 71.082813 142.991154 
" style="fill:none;stroke:#2ca02c;stroke-linecap:square;stroke-width:1.5;"/>
    </g>
    <g id="line2d_21"/>
    <g id="text_16">
     <!-- YHOO -->
     <defs>
      <path d="M 9.8125 72.90625 
L 19.671875 72.90625 
L 19.671875 43.015625 
L 55.515625 43.015625 
L 55.515625 72.90625 
L 65.375 72.90625 
L 65.375 0 
L 55.515625 0 
L 55.515625 34.71875 
L 19.671875 34.71875 
L 19.671875 0 
L 9.8125 0 
z
" id="DejaVuSans-48"/>
      <path d="M 39.40625 66.21875 
Q 28.65625 66.21875 22.328125 58.203125 
Q 16.015625 50.203125 16.015625 36.375 
Q 16.015625 22.609375 22.328125 14.59375 
Q 28.65625 6.59375 39.40625 6.59375 
Q 50.140625 6.59375 56.421875 14.59375 
Q 62.703125 22.609375 62.703125 36.375 
Q 62.703125 50.203125 56.421875 58.203125 
Q 50.140625 66.21875 39.40625 66.21875 
z
M 39.40625 74.21875 
Q 54.734375 74.21875 63.90625 63.9375 
Q 73.09375 53.65625 73.09375 36.375 
Q 73.09375 19.140625 63.90625 8.859375 
Q 54.734375 -1.421875 39.40625 -1.421875 
Q 24.03125 -1.421875 14.8125 8.828125 
Q 5.609375 19.09375 5.609375 36.375 
Q 5.609375 53.65625 14.8125 63.9375 
Q 24.03125 74.21875 39.40625 74.21875 
z
" id="DejaVuSans-4f"/>
     </defs>
     <g transform="translate(79.082813 146.491154)scale(0.1 -0.1)">
      <use xlink:href="#DejaVuSans-59"/>
      <use x="61.083984" xlink:href="#DejaVuSans-48"/>
      <use x="136.279297" xlink:href="#DejaVuSans-4f"/>
      <use x="214.990234" xlink:href="#DejaVuSans-4f"/>
     </g>
    </g>
    <g id="line2d_22">
     <path d="M 51.082813 157.669279 
L 71.082813 157.669279 
" style="fill:none;stroke:#d62728;stroke-linecap:square;stroke-width:1.5;"/>
    </g>
    <g id="line2d_23"/>
    <g id="text_17">
     <!-- AAPL -->
     <defs>
      <path d="M 19.671875 64.796875 
L 19.671875 37.40625 
L 32.078125 37.40625 
Q 38.96875 37.40625 42.71875 40.96875 
Q 46.484375 44.53125 46.484375 51.125 
Q 46.484375 57.671875 42.71875 61.234375 
Q 38.96875 64.796875 32.078125 64.796875 
z
M 9.8125 72.90625 
L 32.078125 72.90625 
Q 44.34375 72.90625 50.609375 67.359375 
Q 56.890625 61.8125 56.890625 51.125 
Q 56.890625 40.328125 50.609375 34.8125 
Q 44.34375 29.296875 32.078125 29.296875 
L 19.671875 29.296875 
L 19.671875 0 
L 9.8125 0 
z
" id="DejaVuSans-50"/>
      <path d="M 9.8125 72.90625 
L 19.671875 72.90625 
L 19.671875 8.296875 
L 55.171875 8.296875 
L 55.171875 0 
L 9.8125 0 
z
" id="DejaVuSans-4c"/>
     </defs>
     <g transform="translate(79.082813 161.169279)scale(0.1 -0.1)">
      <use xlink:href="#DejaVuSans-41"/>
      <use x="68.439453" xlink:href="#DejaVuSans-41"/>
      <use x="136.847656" xlink:href="#DejaVuSans-50"/>
      <use x="197.150391" xlink:href="#DejaVuSans-4c"/>
     </g>
    </g>
   </g>
  </g>
 </g>
 <defs>
  <clipPath id="p61ced739a5">
   <rect height="157.948967" width="343.617188" x="42.082813" y="14.3"/>
  </clipPath>
 </defs>
</svg>
