<?xml version="1.0" encoding="utf-8" standalone="no"?>
<!DOCTYPE svg PUBLIC "-//W3C//DTD SVG 1.1//EN"
  "http://www.w3.org/Graphics/SVG/1.1/DTD/svg11.dtd">
<!-- Created with matplotlib (http://matplotlib.org/) -->
<svg height="233pt" version="1.1" viewBox="0 0 400 233" width="400pt" xmlns="http://www.w3.org/2000/svg" xmlns:xlink="http://www.w3.org/1999/xlink">
 <defs>
  <style type="text/css">
*{stroke-linecap:butt;stroke-linejoin:round;}
  </style>
 </defs>
 <g id="figure_1">
  <g id="patch_1">
   <path d="M 0 233 
L 400 233 
L 400 0 
L 0 0 
z
" style="fill:#ffffff;"/>
  </g>
  <g id="axes_1">
   <g id="patch_2">
    <path d="M 44.359561 70.946358 
L 385.7 70.946358 
L 385.7 14.3 
L 44.359561 14.3 
z
" style="fill:#ffffff;"/>
   </g>
   <g id="matplotlib.axis_1">
    <g id="xtick_1">
     <g id="line2d_1">
      <defs>
       <path d="M 0 0 
L 0 3.5 
" id="m7e2b6be0e7" style="stroke:#000000;stroke-width:0.8;"/>
      </defs>
      <g>
       <use style="stroke:#000000;stroke-width:0.8;" x="52.578685" xlink:href="#m7e2b6be0e7" y="70.946358"/>
      </g>
     </g>
     <g id="text_1">
      <!-- 2009-12 -->
      <defs>
       <path d="M 19.1875 8.296875 
L 53.609375 8.296875 
L 53.609375 0 
L 7.328125 0 
L 7.328125 8.296875 
Q 12.9375 14.109375 22.625 23.890625 
Q 32.328125 33.6875 34.8125 36.53125 
Q 39.546875 41.84375 41.421875 45.53125 
Q 43.3125 49.21875 43.3125 52.78125 
Q 43.3125 58.59375 39.234375 62.25 
Q 35.15625 65.921875 28.609375 65.921875 
Q 23.96875 65.921875 18.8125 64.3125 
Q 13.671875 62.703125 7.8125 59.421875 
L 7.8125 69.390625 
Q 13.765625 71.78125 18.9375 73 
Q 24.125 74.21875 28.421875 74.21875 
Q 39.75 74.21875 46.484375 68.546875 
Q 53.21875 62.890625 53.21875 53.421875 
Q 53.21875 48.921875 51.53125 44.890625 
Q 49.859375 40.875 45.40625 35.40625 
Q 44.1875 33.984375 37.640625 27.21875 
Q 31.109375 20.453125 19.1875 8.296875 
z
" id="DejaVuSans-32"/>
       <path d="M 31.78125 66.40625 
Q 24.171875 66.40625 20.328125 58.90625 
Q 16.5 51.421875 16.5 36.375 
Q 16.5 21.390625 20.328125 13.890625 
Q 24.171875 6.390625 31.78125 6.390625 
Q 39.453125 6.390625 43.28125 13.890625 
Q 47.125 21.390625 47.125 36.375 
Q 47.125 51.421875 43.28125 58.90625 
Q 39.453125 66.40625 31.78125 66.40625 
z
M 31.78125 74.21875 
Q 44.046875 74.21875 50.515625 64.515625 
Q 56.984375 54.828125 56.984375 36.375 
Q 56.984375 17.96875 50.515625 8.265625 
Q 44.046875 -1.421875 31.78125 -1.421875 
Q 19.53125 -1.421875 13.0625 8.265625 
Q 6.59375 17.96875 6.59375 36.375 
Q 6.59375 54.828125 13.0625 64.515625 
Q 19.53125 74.21875 31.78125 74.21875 
z
" id="DejaVuSans-30"/>
       <path d="M 10.984375 1.515625 
L 10.984375 10.5 
Q 14.703125 8.734375 18.5 7.8125 
Q 22.3125 6.890625 25.984375 6.890625 
Q 35.75 6.890625 40.890625 13.453125 
Q 46.046875 20.015625 46.78125 33.40625 
Q 43.953125 29.203125 39.59375 26.953125 
Q 35.25 24.703125 29.984375 24.703125 
Q 19.046875 24.703125 12.671875 31.3125 
Q 6.296875 37.9375 6.296875 49.421875 
Q 6.296875 60.640625 12.9375 67.421875 
Q 19.578125 74.21875 30.609375 74.21875 
Q 43.265625 74.21875 49.921875 64.515625 
Q 56.59375 54.828125 56.59375 36.375 
Q 56.59375 19.140625 48.40625 8.859375 
Q 40.234375 -1.421875 26.421875 -1.421875 
Q 22.703125 -1.421875 18.890625 -0.6875 
Q 15.09375 0.046875 10.984375 1.515625 
z
M 30.609375 32.421875 
Q 37.25 32.421875 41.125 36.953125 
Q 45.015625 41.5 45.015625 49.421875 
Q 45.015625 57.28125 41.125 61.84375 
Q 37.25 66.40625 30.609375 66.40625 
Q 23.96875 66.40625 20.09375 61.84375 
Q 16.21875 57.28125 16.21875 49.421875 
Q 16.21875 41.5 20.09375 36.953125 
Q 23.96875 32.421875 30.609375 32.421875 
z
" id="DejaVuSans-39"/>
       <path d="M 4.890625 31.390625 
L 31.203125 31.390625 
L 31.203125 23.390625 
L 4.890625 23.390625 
z
" id="DejaVuSans-2d"/>
       <path d="M 12.40625 8.296875 
L 28.515625 8.296875 
L 28.515625 63.921875 
L 10.984375 60.40625 
L 10.984375 69.390625 
L 28.421875 72.90625 
L 38.28125 72.90625 
L 38.28125 8.296875 
L 54.390625 8.296875 
L 54.390625 0 
L 12.40625 0 
z
" id="DejaVuSans-31"/>
      </defs>
      <g transform="translate(15.353864 105.418204)rotate(-30)scale(0.1 -0.1)">
       <use xlink:href="#DejaVuSans-32"/>
       <use x="63.623047" xlink:href="#DejaVuSans-30"/>
       <use x="127.246094" xlink:href="#DejaVuSans-30"/>
       <use x="190.869141" xlink:href="#DejaVuSans-39"/>
       <use x="254.492188" xlink:href="#DejaVuSans-2d"/>
       <use x="290.576172" xlink:href="#DejaVuSans-31"/>
       <use x="354.199219" xlink:href="#DejaVuSans-32"/>
      </g>
     </g>
    </g>
    <g id="xtick_2">
     <g id="line2d_2">
      <g>
       <use style="stroke:#000000;stroke-width:0.8;" x="91.635619" xlink:href="#m7e2b6be0e7" y="70.946358"/>
      </g>
     </g>
     <g id="text_2">
      <!-- 2010-06 -->
      <defs>
       <path d="M 33.015625 40.375 
Q 26.375 40.375 22.484375 35.828125 
Q 18.609375 31.296875 18.609375 23.390625 
Q 18.609375 15.53125 22.484375 10.953125 
Q 26.375 6.390625 33.015625 6.390625 
Q 39.65625 6.390625 43.53125 10.953125 
Q 47.40625 15.53125 47.40625 23.390625 
Q 47.40625 31.296875 43.53125 35.828125 
Q 39.65625 40.375 33.015625 40.375 
z
M 52.59375 71.296875 
L 52.59375 62.3125 
Q 48.875 64.0625 45.09375 64.984375 
Q 41.3125 65.921875 37.59375 65.921875 
Q 27.828125 65.921875 22.671875 59.328125 
Q 17.53125 52.734375 16.796875 39.40625 
Q 19.671875 43.65625 24.015625 45.921875 
Q 28.375 48.1875 33.59375 48.1875 
Q 44.578125 48.1875 50.953125 41.515625 
Q 57.328125 34.859375 57.328125 23.390625 
Q 57.328125 12.15625 50.6875 5.359375 
Q 44.046875 -1.421875 33.015625 -1.421875 
Q 20.359375 -1.421875 13.671875 8.265625 
Q 6.984375 17.96875 6.984375 36.375 
Q 6.984375 53.65625 15.1875 63.9375 
Q 23.390625 74.21875 37.203125 74.21875 
Q 40.921875 74.21875 44.703125 73.484375 
Q 48.484375 72.75 52.59375 71.296875 
z
" id="DejaVuSans-36"/>
      </defs>
      <g transform="translate(54.410799 105.418204)rotate(-30)scale(0.1 -0.1)">
       <use xlink:href="#DejaVuSans-32"/>
       <use x="63.623047" xlink:href="#DejaVuSans-30"/>
       <use x="127.246094" xlink:href="#DejaVuSans-31"/>
       <use x="190.869141" xlink:href="#DejaVuSans-30"/>
       <use x="254.492188" xlink:href="#DejaVuSans-2d"/>
       <use x="290.576172" xlink:href="#DejaVuSans-30"/>
       <use x="354.199219" xlink:href="#DejaVuSans-36"/>
      </g>
     </g>
    </g>
    <g id="xtick_3">
     <g id="line2d_3">
      <g>
       <use style="stroke:#000000;stroke-width:0.8;" x="130.907152" xlink:href="#m7e2b6be0e7" y="70.946358"/>
      </g>
     </g>
     <g id="text_3">
      <!-- 2010-12 -->
      <g transform="translate(93.682332 105.418204)rotate(-30)scale(0.1 -0.1)">
       <use xlink:href="#DejaVuSans-32"/>
       <use x="63.623047" xlink:href="#DejaVuSans-30"/>
       <use x="127.246094" xlink:href="#DejaVuSans-31"/>
       <use x="190.869141" xlink:href="#DejaVuSans-30"/>
       <use x="254.492188" xlink:href="#DejaVuSans-2d"/>
       <use x="290.576172" xlink:href="#DejaVuSans-31"/>
       <use x="354.199219" xlink:href="#DejaVuSans-32"/>
      </g>
     </g>
    </g>
    <g id="xtick_4">
     <g id="line2d_4">
      <g>
       <use style="stroke:#000000;stroke-width:0.8;" x="169.964087" xlink:href="#m7e2b6be0e7" y="70.946358"/>
      </g>
     </g>
     <g id="text_4">
      <!-- 2011-06 -->
      <g transform="translate(132.739266 105.418204)rotate(-30)scale(0.1 -0.1)">
       <use xlink:href="#DejaVuSans-32"/>
       <use x="63.623047" xlink:href="#DejaVuSans-30"/>
       <use x="127.246094" xlink:href="#DejaVuSans-31"/>
       <use x="190.869141" xlink:href="#DejaVuSans-31"/>
       <use x="254.492188" xlink:href="#DejaVuSans-2d"/>
       <use x="290.576172" xlink:href="#DejaVuSans-30"/>
       <use x="354.199219" xlink:href="#DejaVuSans-36"/>
      </g>
     </g>
    </g>
    <g id="xtick_5">
     <g id="line2d_5">
      <g>
       <use style="stroke:#000000;stroke-width:0.8;" x="209.23562" xlink:href="#m7e2b6be0e7" y="70.946358"/>
      </g>
     </g>
     <g id="text_5">
      <!-- 2011-12 -->
      <g transform="translate(172.010799 105.418204)rotate(-30)scale(0.1 -0.1)">
       <use xlink:href="#DejaVuSans-32"/>
       <use x="63.623047" xlink:href="#DejaVuSans-30"/>
       <use x="127.246094" xlink:href="#DejaVuSans-31"/>
       <use x="190.869141" xlink:href="#DejaVuSans-31"/>
       <use x="254.492188" xlink:href="#DejaVuSans-2d"/>
       <use x="290.576172" xlink:href="#DejaVuSans-31"/>
       <use x="354.199219" xlink:href="#DejaVuSans-32"/>
      </g>
     </g>
    </g>
    <g id="xtick_6">
     <g id="line2d_6">
      <g>
       <use style="stroke:#000000;stroke-width:0.8;" x="248.507153" xlink:href="#m7e2b6be0e7" y="70.946358"/>
      </g>
     </g>
     <g id="text_6">
      <!-- 2012-06 -->
      <g transform="translate(211.282332 105.418204)rotate(-30)scale(0.1 -0.1)">
       <use xlink:href="#DejaVuSans-32"/>
       <use x="63.623047" xlink:href="#DejaVuSans-30"/>
       <use x="127.246094" xlink:href="#DejaVuSans-31"/>
       <use x="190.869141" xlink:href="#DejaVuSans-32"/>
       <use x="254.492188" xlink:href="#DejaVuSans-2d"/>
       <use x="290.576172" xlink:href="#DejaVuSans-30"/>
       <use x="354.199219" xlink:href="#DejaVuSans-36"/>
      </g>
     </g>
    </g>
    <g id="xtick_7">
     <g id="line2d_7">
      <g>
       <use style="stroke:#000000;stroke-width:0.8;" x="287.778686" xlink:href="#m7e2b6be0e7" y="70.946358"/>
      </g>
     </g>
     <g id="text_7">
      <!-- 2012-12 -->
      <g transform="translate(250.553865 105.418204)rotate(-30)scale(0.1 -0.1)">
       <use xlink:href="#DejaVuSans-32"/>
       <use x="63.623047" xlink:href="#DejaVuSans-30"/>
       <use x="127.246094" xlink:href="#DejaVuSans-31"/>
       <use x="190.869141" xlink:href="#DejaVuSans-32"/>
       <use x="254.492188" xlink:href="#DejaVuSans-2d"/>
       <use x="290.576172" xlink:href="#DejaVuSans-31"/>
       <use x="354.199219" xlink:href="#DejaVuSans-32"/>
      </g>
     </g>
    </g>
    <g id="xtick_8">
     <g id="line2d_8">
      <g>
       <use style="stroke:#000000;stroke-width:0.8;" x="326.83562" xlink:href="#m7e2b6be0e7" y="70.946358"/>
      </g>
     </g>
     <g id="text_8">
      <!-- 2013-06 -->
      <defs>
       <path d="M 40.578125 39.3125 
Q 47.65625 37.796875 51.625 33 
Q 55.609375 28.21875 55.609375 21.1875 
Q 55.609375 10.40625 48.1875 4.484375 
Q 40.765625 -1.421875 27.09375 -1.421875 
Q 22.515625 -1.421875 17.65625 -0.515625 
Q 12.796875 0.390625 7.625 2.203125 
L 7.625 11.71875 
Q 11.71875 9.328125 16.59375 8.109375 
Q 21.484375 6.890625 26.8125 6.890625 
Q 36.078125 6.890625 40.9375 10.546875 
Q 45.796875 14.203125 45.796875 21.1875 
Q 45.796875 27.640625 41.28125 31.265625 
Q 36.765625 34.90625 28.71875 34.90625 
L 20.21875 34.90625 
L 20.21875 43.015625 
L 29.109375 43.015625 
Q 36.375 43.015625 40.234375 45.921875 
Q 44.09375 48.828125 44.09375 54.296875 
Q 44.09375 59.90625 40.109375 62.90625 
Q 36.140625 65.921875 28.71875 65.921875 
Q 24.65625 65.921875 20.015625 65.03125 
Q 15.375 64.15625 9.8125 62.3125 
L 9.8125 71.09375 
Q 15.4375 72.65625 20.34375 73.4375 
Q 25.25 74.21875 29.59375 74.21875 
Q 40.828125 74.21875 47.359375 69.109375 
Q 53.90625 64.015625 53.90625 55.328125 
Q 53.90625 49.265625 50.4375 45.09375 
Q 46.96875 40.921875 40.578125 39.3125 
z
" id="DejaVuSans-33"/>
      </defs>
      <g transform="translate(289.610799 105.418204)rotate(-30)scale(0.1 -0.1)">
       <use xlink:href="#DejaVuSans-32"/>
       <use x="63.623047" xlink:href="#DejaVuSans-30"/>
       <use x="127.246094" xlink:href="#DejaVuSans-31"/>
       <use x="190.869141" xlink:href="#DejaVuSans-33"/>
       <use x="254.492188" xlink:href="#DejaVuSans-2d"/>
       <use x="290.576172" xlink:href="#DejaVuSans-30"/>
       <use x="354.199219" xlink:href="#DejaVuSans-36"/>
      </g>
     </g>
    </g>
    <g id="xtick_9">
     <g id="line2d_9">
      <g>
       <use style="stroke:#000000;stroke-width:0.8;" x="366.107153" xlink:href="#m7e2b6be0e7" y="70.946358"/>
      </g>
     </g>
     <g id="text_9">
      <!-- 2013-12 -->
      <g transform="translate(328.882332 105.418204)rotate(-30)scale(0.1 -0.1)">
       <use xlink:href="#DejaVuSans-32"/>
       <use x="63.623047" xlink:href="#DejaVuSans-30"/>
       <use x="127.246094" xlink:href="#DejaVuSans-31"/>
       <use x="190.869141" xlink:href="#DejaVuSans-33"/>
       <use x="254.492188" xlink:href="#DejaVuSans-2d"/>
       <use x="290.576172" xlink:href="#DejaVuSans-31"/>
       <use x="354.199219" xlink:href="#DejaVuSans-32"/>
      </g>
     </g>
    </g>
    <g id="text_10">
     <!-- time -->
     <defs>
      <path d="M 18.3125 70.21875 
L 18.3125 54.6875 
L 36.8125 54.6875 
L 36.8125 47.703125 
L 18.3125 47.703125 
L 18.3125 18.015625 
Q 18.3125 11.328125 20.140625 9.421875 
Q 21.96875 7.515625 27.59375 7.515625 
L 36.8125 7.515625 
L 36.8125 0 
L 27.59375 0 
Q 17.1875 0 13.234375 3.875 
Q 9.28125 7.765625 9.28125 18.015625 
L 9.28125 47.703125 
L 2.6875 47.703125 
L 2.6875 54.6875 
L 9.28125 54.6875 
L 9.28125 70.21875 
z
" id="DejaVuSans-74"/>
      <path d="M 9.421875 54.6875 
L 18.40625 54.6875 
L 18.40625 0 
L 9.421875 0 
z
M 9.421875 75.984375 
L 18.40625 75.984375 
L 18.40625 64.59375 
L 9.421875 64.59375 
z
" id="DejaVuSans-69"/>
      <path d="M 52 44.1875 
Q 55.375 50.25 60.0625 53.125 
Q 64.75 56 71.09375 56 
Q 79.640625 56 84.28125 50.015625 
Q 88.921875 44.046875 88.921875 33.015625 
L 88.921875 0 
L 79.890625 0 
L 79.890625 32.71875 
Q 79.890625 40.578125 77.09375 44.375 
Q 74.3125 48.1875 68.609375 48.1875 
Q 61.625 48.1875 57.5625 43.546875 
Q 53.515625 38.921875 53.515625 30.90625 
L 53.515625 0 
L 44.484375 0 
L 44.484375 32.71875 
Q 44.484375 40.625 41.703125 44.40625 
Q 38.921875 48.1875 33.109375 48.1875 
Q 26.21875 48.1875 22.15625 43.53125 
Q 18.109375 38.875 18.109375 30.90625 
L 18.109375 0 
L 9.078125 0 
L 9.078125 54.6875 
L 18.109375 54.6875 
L 18.109375 46.1875 
Q 21.1875 51.21875 25.484375 53.609375 
Q 29.78125 56 35.6875 56 
Q 41.65625 56 45.828125 52.96875 
Q 50 49.953125 52 44.1875 
z
" id="DejaVuSans-6d"/>
      <path d="M 56.203125 29.59375 
L 56.203125 25.203125 
L 14.890625 25.203125 
Q 15.484375 15.921875 20.484375 11.0625 
Q 25.484375 6.203125 34.421875 6.203125 
Q 39.59375 6.203125 44.453125 7.46875 
Q 49.3125 8.734375 54.109375 11.28125 
L 54.109375 2.78125 
Q 49.265625 0.734375 44.1875 -0.34375 
Q 39.109375 -1.421875 33.890625 -1.421875 
Q 20.796875 -1.421875 13.15625 6.1875 
Q 5.515625 13.8125 5.515625 26.8125 
Q 5.515625 40.234375 12.765625 48.109375 
Q 20.015625 56 32.328125 56 
Q 43.359375 56 49.78125 48.890625 
Q 56.203125 41.796875 56.203125 29.59375 
z
M 47.21875 32.234375 
Q 47.125 39.59375 43.09375 43.984375 
Q 39.0625 48.390625 32.421875 48.390625 
Q 24.90625 48.390625 20.390625 44.140625 
Q 15.875 39.890625 15.1875 32.171875 
z
" id="DejaVuSans-65"/>
     </defs>
     <g transform="translate(203.733687 118.817704)scale(0.1 -0.1)">
      <use xlink:href="#DejaVuSans-74"/>
      <use x="39.208984" xlink:href="#DejaVuSans-69"/>
      <use x="66.992188" xlink:href="#DejaVuSans-6d"/>
      <use x="164.404297" xlink:href="#DejaVuSans-65"/>
     </g>
    </g>
   </g>
   <g id="matplotlib.axis_2">
    <g id="ytick_1">
     <g id="line2d_10">
      <defs>
       <path d="M 0 0 
L -3.5 0 
" id="md2eea24525" style="stroke:#000000;stroke-width:0.8;"/>
      </defs>
      <g>
       <use style="stroke:#000000;stroke-width:0.8;" x="44.359561" xlink:href="#md2eea24525" y="62.52066"/>
      </g>
     </g>
     <g id="text_11">
      <!-- 250 -->
      <defs>
       <path d="M 10.796875 72.90625 
L 49.515625 72.90625 
L 49.515625 64.59375 
L 19.828125 64.59375 
L 19.828125 46.734375 
Q 21.96875 47.46875 24.109375 47.828125 
Q 26.265625 48.1875 28.421875 48.1875 
Q 40.625 48.1875 47.75 41.5 
Q 54.890625 34.8125 54.890625 23.390625 
Q 54.890625 11.625 47.5625 5.09375 
Q 40.234375 -1.421875 26.90625 -1.421875 
Q 22.3125 -1.421875 17.546875 -0.640625 
Q 12.796875 0.140625 7.71875 1.703125 
L 7.71875 11.625 
Q 12.109375 9.234375 16.796875 8.0625 
Q 21.484375 6.890625 26.703125 6.890625 
Q 35.15625 6.890625 40.078125 11.328125 
Q 45.015625 15.765625 45.015625 23.390625 
Q 45.015625 31 40.078125 35.4375 
Q 35.15625 39.890625 26.703125 39.890625 
Q 22.75 39.890625 18.8125 39.015625 
Q 14.890625 38.140625 10.796875 36.28125 
z
" id="DejaVuSans-35"/>
      </defs>
      <g transform="translate(18.272061 66.319879)scale(0.1 -0.1)">
       <use xlink:href="#DejaVuSans-32"/>
       <use x="63.623047" xlink:href="#DejaVuSans-35"/>
       <use x="127.246094" xlink:href="#DejaVuSans-30"/>
      </g>
     </g>
    </g>
    <g id="ytick_2">
     <g id="line2d_11">
      <g>
       <use style="stroke:#000000;stroke-width:0.8;" x="44.359561" xlink:href="#md2eea24525" y="37.279661"/>
      </g>
     </g>
     <g id="text_12">
      <!-- 500 -->
      <g transform="translate(18.272061 41.078879)scale(0.1 -0.1)">
       <use xlink:href="#DejaVuSans-35"/>
       <use x="63.623047" xlink:href="#DejaVuSans-30"/>
       <use x="127.246094" xlink:href="#DejaVuSans-30"/>
      </g>
     </g>
    </g>
   </g>
   <g id="line2d_12">
    <path clip-path="url(#p20fa86577f)" d="M 59.875035 66.154355 
L 60.089634 66.116999 
L 60.304232 66.461286 
L 60.518831 66.500661 
L 60.733429 66.359311 
L 61.377225 66.548114 
L 61.591824 66.789418 
L 61.806422 66.493594 
L 62.021021 66.61677 
L 62.235619 66.970144 
L 63.094013 66.050362 
L 63.52321 66.754081 
L 63.737809 67.796029 
L 64.810802 66.773264 
L 65.239999 68.370514 
L 66.098393 67.986852 
L 66.312991 67.646603 
L 66.52759 68.371524 
L 66.742189 68.027237 
L 67.385984 68.162529 
L 67.600583 67.953533 
L 67.815181 68.061564 
L 68.244378 67.530495 
L 69.102773 67.225583 
L 69.317371 67.311402 
L 69.53197 67.273036 
L 69.746568 67.400251 
L 70.390364 67.526456 
L 70.604962 67.865695 
L 70.819561 67.502224 
L 71.248758 67.102407 
L 71.892554 66.661194 
L 72.321751 66.626866 
L 72.536349 66.487536 
L 72.750948 65.655592 
L 73.394743 65.642468 
L 73.82394 65.060915 
L 74.253138 64.883217 
L 74.896933 65.161879 
L 75.540729 65.080098 
L 75.755327 65.322411 
L 76.399123 65.070001 
L 76.613721 64.705522 
L 76.82832 64.603547 
L 77.042919 64.87817 
L 77.257517 64.449073 
L 77.901313 64.298637 
L 78.115911 63.949302 
L 78.33051 64.035119 
L 78.545108 63.937186 
L 81.120291 63.284957 
L 81.549488 62.629701 
L 81.764086 62.783167 
L 82.407882 62.816484 
L 82.622481 63.066875 
L 83.051678 60.857784 
L 83.266276 60.417581 
L 83.910072 60.551862 
L 84.12467 61.305055 
L 84.339269 61.349477 
L 84.553867 60.638691 
L 84.768466 61.400969 
L 85.412262 60.8699 
L 85.62686 61.644294 
L 85.841459 61.915886 
L 86.270656 63.948291 
L 86.914451 62.117814 
L 87.12905 61.862375 
L 87.343649 61.300005 
L 87.772846 62.134979 
L 88.416641 62.094593 
L 88.63124 62.282385 
L 88.845838 62.688261 
L 89.060437 63.75646 
L 89.275035 63.296065 
L 89.918831 62.847785 
L 90.348028 63.115339 
L 90.562627 62.182432 
L 90.777225 61.826028 
L 91.635619 61.42722 
L 91.850218 61.112213 
L 92.064816 61.196014 
L 92.279415 61.918914 
L 93.137809 62.588306 
L 93.352408 63.207214 
L 93.567006 62.469168 
L 93.781605 62.166277 
L 94.4254 62.088535 
L 95.283795 60.090456 
L 95.92759 60.484216 
L 96.142189 60.112668 
L 96.785984 60.834563 
L 97.42978 60.673019 
L 97.644378 61.897712 
L 98.073576 62.674126 
L 98.288174 62.829611 
L 99.146568 62.658982 
L 99.361167 61.645302 
L 99.575765 61.703862 
L 99.790364 61.549388 
L 100.43416 61.784633 
L 100.648758 62.338926 
L 100.863357 62.245028 
L 101.936349 62.96692 
L 102.150948 62.329837 
L 102.365546 62.092573 
L 102.580145 61.609965 
L 102.794743 61.517079 
L 103.438539 61.583714 
L 103.653138 61.099086 
L 104.082335 61.701843 
L 104.296933 61.788671 
L 104.940729 61.324237 
L 105.584524 61.339381 
L 105.799123 61.501932 
L 106.442919 61.334334 
L 106.657517 61.57059 
L 106.872116 62.501477 
L 107.086714 62.339934 
L 107.301313 62.611529 
L 107.945108 62.758935 
L 108.159707 62.32176 
L 108.374306 62.2107 
L 108.588904 62.532776 
L 108.803503 62.557008 
L 109.447298 62.94471 
L 109.661897 63.537367 
L 109.876495 63.238515 
L 110.091094 63.502031 
L 110.305692 63.366738 
L 111.164087 63.217311 
L 111.378685 62.487342 
L 111.593284 62.301569 
L 111.807882 61.635205 
L 112.666276 61.73213 
L 112.880875 61.216205 
L 113.310072 61.166732 
L 114.383065 60.479169 
L 114.597663 59.838048 
L 114.812262 59.959205 
L 115.456057 59.165626 
L 115.670656 59.111107 
L 115.885254 58.709269 
L 116.099853 58.591143 
L 116.314452 58.247865 
L 116.958247 58.364983 
L 117.172846 58.799128 
L 117.387444 58.747636 
L 117.602043 59.113126 
L 118.460437 59.629052 
L 118.675035 58.589123 
L 119.104233 58.560853 
L 119.318831 58.071178 
L 119.962627 57.940933 
L 120.391824 57.458325 
L 120.606422 57.239235 
L 120.821021 55.984252 
L 121.464817 55.65511 
L 121.679415 56.514313 
L 121.894014 56.40931 
L 122.323211 56.718259 
L 122.967006 56.579939 
L 123.396203 56.681911 
L 123.8254 57.373516 
L 124.469196 57.050432 
L 125.112992 55.627847 
L 125.32759 55.742946 
L 125.971386 55.592511 
L 126.185984 55.84896 
L 126.400583 55.652079 
L 126.615182 55.79141 
L 126.82978 56.661721 
L 127.473576 56.761673 
L 127.688174 57.311928 
L 127.902773 57.42198 
L 128.117371 56.621334 
L 128.33197 56.792972 
L 128.975765 56.123583 
L 129.190364 56.591044 
L 129.404963 55.978194 
L 129.83416 55.958001 
L 130.477955 55.769198 
L 130.692554 56.346711 
L 130.907152 55.81665 
L 131.121751 55.639963 
L 131.336349 55.711648 
L 131.980145 55.438036 
L 132.194744 55.633905 
L 132.409342 55.351208 
L 132.623941 55.477412 
L 132.838539 55.396641 
L 133.482335 55.28457 
L 133.696933 55.423901 
L 134.340729 55.391592 
L 134.984525 55.230051 
L 135.413722 54.932207 
L 135.62832 55.089709 
L 136.915911 54.91908 
L 137.345109 55.194711 
L 138.418101 54.039684 
L 138.6327 54.066946 
L 139.491094 53.186539 
L 139.705693 53.26832 
L 140.349488 52.577727 
L 141.422481 53.551018 
L 141.851678 54.774702 
L 142.924671 53.045189 
L 143.139269 53.109807 
L 143.353868 53.82766 
L 143.997663 53.502556 
L 144.212262 52.926051 
L 144.641459 53.086583 
L 144.856057 52.777635 
L 145.499853 52.234449 
L 145.92905 51.600394 
L 146.143649 51.965884 
L 146.358247 51.732656 
L 147.216641 51.424716 
L 147.43124 51.098604 
L 147.645839 51.586259 
L 147.860437 52.367719 
L 148.718831 53.574241 
L 148.93343 53.169376 
L 149.148028 53.143125 
L 149.362627 52.610033 
L 150.006422 52.100165 
L 150.221021 52.493926 
L 150.43562 52.210217 
L 150.650218 51.459044 
L 150.864817 51.414622 
L 151.508612 51.883095 
L 151.723211 51.842708 
L 151.937809 52.17488 
L 152.152408 52.760472 
L 152.367006 52.223342 
L 153.010802 52.064829 
L 153.225401 52.885667 
L 153.439999 54.44253 
L 153.654598 53.975068 
L 153.869196 54.375895 
L 154.72759 53.312743 
L 154.942189 53.515681 
L 155.371386 52.268775 
L 156.658977 52.574696 
L 156.873576 52.973504 
L 158.161167 53.627752 
L 158.375766 53.932662 
L 159.019561 54.362771 
L 159.23416 54.201227 
L 159.448758 53.824632 
L 159.877955 54.69999 
L 160.521751 54.256757 
L 161.165547 52.353587 
L 162.023941 52.120359 
L 162.238539 52.381855 
L 162.453138 52.409117 
L 162.667736 52.752394 
L 162.882335 52.411136 
L 163.526131 52.799847 
L 163.955328 52.467675 
L 164.169926 52.752394 
L 164.384525 52.76148 
L 165.02832 52.666574 
L 165.242919 52.479791 
L 165.672116 52.770568 
L 165.886714 53.383419 
L 166.53051 54.11036 
L 167.174306 53.380389 
L 167.388904 53.916508 
L 168.0327 53.9993 
L 168.247298 54.222429 
L 168.461897 53.759006 
L 168.676496 53.93872 
L 169.749488 52.643353 
L 169.964087 52.87759 
L 170.178685 52.818021 
L 170.393284 53.086583 
L 171.037079 53.631791 
L 171.251678 54.237575 
L 171.680875 54.293105 
L 171.895474 54.857492 
L 172.539269 54.786818 
L 172.753868 54.197188 
L 172.968466 54.771675 
L 173.183065 54.932207 
L 173.397663 55.426931 
L 174.041459 55.925691 
L 174.256058 54.918072 
L 174.470656 55.189664 
L 174.685255 54.319354 
L 174.899853 54.812059 
L 175.758247 53.912469 
L 175.972846 54.035645 
L 176.187444 53.871074 
L 176.402043 53.104757 
L 177.475036 52.246565 
L 177.904233 51.443901 
L 178.548028 52.020403 
L 178.762627 52.045646 
L 178.977225 51.61453 
L 179.191824 51.63977 
L 179.406423 50.917878 
L 180.264817 49.713378 
L 180.479415 48.69869 
L 180.694014 48.659312 
L 180.908612 48.052519 
L 181.552408 47.527508 
L 181.767007 47.031773 
L 181.981605 48.124204 
L 182.410802 48.337239 
L 183.054598 47.704195 
L 183.269196 48.495752 
L 183.483795 48.126223 
L 183.698393 49.660876 
L 183.912992 50.03949 
L 184.556788 52.100165 
L 184.771386 50.000115 
L 184.985985 51.042063 
L 185.200583 50.031413 
L 185.415182 49.699243 
L 186.058977 49.051053 
L 186.273576 49.346878 
L 186.488174 49.350916 
L 186.917372 51.815449 
L 187.561167 51.774054 
L 187.775766 50.04151 
L 187.990364 49.781022 
L 188.204963 50.029394 
L 188.419561 49.03389 
L 189.063357 48.38873 
L 189.277955 48.386711 
L 189.921751 49.996076 
L 190.780145 49.42159 
L 190.994744 48.998553 
L 191.209342 48.977349 
L 191.423941 49.649771 
L 192.067736 49.401399 
L 193.569926 46.201848 
L 193.784525 46.018095 
L 193.999123 46.150357 
L 194.213722 47.192305 
L 194.42832 46.941917 
L 195.072116 47.056005 
L 195.715912 48.32815 
L 195.93051 49.262069 
L 196.788904 50.15257 
L 197.003503 49.572028 
L 197.218101 49.660876 
L 197.4327 50.425173 
L 198.076496 48.505848 
L 198.291094 47.346782 
L 198.505693 47.154949 
L 198.720291 46.524935 
L 198.93489 45.154853 
L 199.578685 45.357789 
L 199.793284 45.130621 
L 200.007883 47.515392 
L 200.43708 48.095933 
L 201.080875 46.793498 
L 201.295474 47.601209 
L 201.939269 46.87629 
L 202.583065 46.893453 
L 202.797664 47.728424 
L 203.012262 47.637557 
L 203.226861 47.066101 
L 203.441459 47.351829 
L 204.085255 47.403321 
L 204.299853 46.747056 
L 204.72905 48.868308 
L 204.943649 48.928888 
L 205.587445 49.470054 
L 205.802043 48.503829 
L 206.016642 48.913742 
L 206.23124 49.656837 
L 207.089634 50.504935 
L 207.304233 49.747704 
L 207.518831 50.708882 
L 207.948029 51.054179 
L 208.591824 49.78708 
L 208.806423 50.081896 
L 209.23562 48.594696 
L 209.450218 48.41599 
L 210.094014 48.081798 
L 210.523211 48.477578 
L 210.73781 48.319065 
L 210.952408 48.02021 
L 211.596204 48.199927 
L 211.810802 48.505848 
L 212.025401 49.376156 
L 212.239999 49.502363 
L 212.454598 49.292358 
L 213.098394 49.17221 
L 213.312992 47.784965 
L 213.527591 47.734482 
L 213.742189 47.522458 
L 213.956788 47.03985 
L 214.815182 46.716766 
L 215.02978 47.109515 
L 215.244379 46.859124 
L 215.458977 46.87124 
L 216.53197 46.019103 
L 216.961167 45.114467 
L 217.604963 45.182113 
L 217.819561 45.029658 
L 218.248758 45.216441 
L 218.463357 45.375963 
L 219.321751 44.88225 
L 219.53635 44.436998 
L 219.750948 44.574309 
L 219.965547 45.326491 
L 220.609342 44.608638 
L 220.823941 45.315386 
L 221.03854 42.665081 
L 221.253138 42.870038 
L 221.467737 42.602482 
L 222.111532 42.02396 
L 222.326131 41.673616 
L 222.755328 41.810925 
L 222.969926 41.350529 
L 223.613722 40.917396 
L 223.828321 40.426708 
L 224.042919 39.63414 
L 224.257518 37.969244 
L 224.472116 37.944004 
L 225.115912 37.017152 
L 225.33051 36.324542 
L 225.545109 37.514909 
L 225.759707 37.05653 
L 225.974306 37.065616 
L 226.8327 35.780343 
L 227.047299 35.963091 
L 227.261897 35.624863 
L 227.476496 35.017059 
L 228.120291 34.678826 
L 228.549488 32.994746 
L 228.978686 32.718106 
L 229.83708 34.224491 
L 230.051678 34.181075 
L 230.266277 33.040185 
L 230.480875 32.719115 
L 231.124671 32.029535 
L 231.553868 28.235305 
L 231.768467 28.641181 
L 231.983065 28.640173 
L 232.841459 26.581517 
L 233.485255 27.582068 
L 234.129051 26.478534 
L 234.343649 25.7213 
L 234.558248 25.404274 
L 234.987445 27.228694 
L 235.63124 25.3023 
L 235.845839 24.222998 
L 236.060437 24.728827 
L 236.275036 23.782796 
L 237.13343 23.525336 
L 237.348029 24.311843 
L 237.777226 24.884313 
L 237.991824 26.655221 
L 238.63562 29.189413 
L 238.850218 26.203911 
L 239.064817 26.34122 
L 239.494014 29.911308 
L 240.13781 30.040545 
L 240.352408 31.19355 
L 240.567007 26.173619 
L 240.781605 26.405838 
L 240.996204 26.880367 
L 241.639999 28.800705 
L 241.854598 28.987486 
L 242.069197 28.598778 
L 242.283795 29.018787 
L 242.498394 30.69176 
L 243.142189 30.264682 
L 243.356788 30.395935 
L 243.785985 30.159682 
L 244.000583 30.544352 
L 244.644379 31.401538 
L 245.073576 32.627239 
L 245.288175 34.238624 
L 245.502773 34.212375 
L 246.146569 31.092589 
L 246.361167 31.527739 
L 246.575766 30.155644 
L 247.004963 30.990615 
L 247.863357 29.982995 
L 248.077956 29.286341 
L 248.292554 29.431727 
L 248.507153 31.121868 
L 249.150948 30.788687 
L 249.365547 30.93609 
L 249.580145 30.064771 
L 249.794744 30.038523 
L 250.009343 29.170234 
L 250.653138 30.094055 
L 250.867737 29.590243 
L 251.082335 29.994097 
L 251.296934 30.057708 
L 251.511532 29.795201 
L 252.369927 28.454395 
L 252.584525 28.62301 
L 252.799124 29.437788 
L 253.013722 28.990517 
L 253.657518 30.134437 
L 254.086715 29.757844 
L 254.301313 30.308099 
L 254.515912 28.798683 
L 255.159708 27.938472 
L 255.803503 26.179679 
L 256.018102 26.589594 
L 256.661897 25.780872 
L 257.305693 27.29432 
L 257.520291 26.68147 
L 258.378686 26.482573 
L 258.593284 26.551225 
L 258.807883 25.737455 
L 259.022481 26.749113 
L 259.666277 26.796569 
L 259.880875 27.090377 
L 260.095474 29.710389 
L 260.310073 29.719474 
L 260.524671 28.681568 
L 261.168467 27.685051 
L 261.383065 26.09689 
L 261.597664 26.495697 
L 261.812262 26.396753 
L 262.026861 25.598124 
L 262.670656 24.906522 
L 263.099854 25.178115 
L 263.529051 24.992342 
L 264.387445 23.983709 
L 264.602043 24.070543 
L 264.816642 23.514228 
L 265.03124 22.325883 
L 265.675036 20.605455 
L 265.889635 21.523221 
L 266.104233 20.229871 
L 266.318832 20.859884 
L 266.53343 20.800318 
L 267.177226 19.542308 
L 267.606423 19.765436 
L 267.821021 20.734692 
L 268.03562 20.596369 
L 268.894014 19.61399 
L 269.108613 20.092557 
L 269.53781 19.061719 
L 270.181605 20.848782 
L 270.396204 21.06585 
L 271.04 17.967266 
L 271.898394 16.894019 
L 272.112992 16.874834 
L 272.327591 17.218114 
L 272.542189 17.077775 
L 273.185985 18.016738 
L 273.615182 20.60243 
L 273.829781 18.972868 
L 274.044379 20.408574 
L 274.688175 21.18701 
L 274.902773 20.99316 
L 275.117372 19.969386 
L 275.33197 20.438867 
L 275.546569 21.873565 
L 276.404963 23.5637 
L 276.619562 23.052824 
L 276.83416 24.346174 
L 277.692554 23.673752 
L 277.907153 22.156265 
L 278.121751 22.679257 
L 278.33635 23.887795 
L 278.550949 26.189773 
L 279.194744 23.747456 
L 279.409343 25.834383 
L 279.623941 25.484039 
L 280.053138 26.779406 
L 281.126131 27.655772 
L 281.34073 27.532595 
L 281.555328 29.525625 
L 282.199124 28.736087 
L 282.413722 28.914796 
L 282.842919 33.468271 
L 283.057518 32.528295 
L 283.701313 32.955373 
L 283.915912 32.948304 
L 284.130511 33.556108 
L 284.345109 34.692964 
L 284.559708 34.484976 
L 285.203503 30.643296 
L 285.418102 31.129945 
L 285.6327 31.050181 
L 286.061897 30.060733 
L 286.705693 28.240352 
L 286.920292 28.719932 
L 287.13489 28.905705 
L 287.349489 28.25752 
L 287.564087 28.669452 
L 288.207883 28.577571 
L 288.422481 29.621544 
L 288.63708 33.363266 
L 288.851678 32.510124 
L 289.066277 33.922606 
L 289.710073 34.268917 
L 289.924671 33.100759 
L 290.13927 33.342065 
L 290.353868 34.282041 
L 290.568467 36.291225 
L 291.212262 35.378511 
L 291.426861 33.856979 
L 291.856058 35.085711 
L 292.070657 35.328025 
L 292.714452 35.243219 
L 293.143649 35.96713 
L 293.358248 35.759142 
L 293.572846 36.311418 
L 294.645839 32.329398 
L 294.860438 33.029077 
L 295.075036 34.553634 
L 295.718832 34.866621 
L 295.93343 34.72426 
L 296.148029 35.553176 
L 296.362627 34.905999 
L 296.577226 35.230089 
L 297.221022 37.102972 
L 297.43562 38.701233 
L 297.650219 36.664792 
L 298.079416 37.279659 
L 298.93781 36.798062 
L 299.152408 35.865155 
L 299.367007 42.277381 
L 299.581606 43.349616 
L 300.225401 42.345024 
L 300.44 41.49289 
L 301.083795 41.962372 
L 301.727591 43.103264 
L 301.942189 41.536302 
L 302.156788 41.585774 
L 302.585985 39.80578 
L 303.229781 39.306006 
L 303.444379 40.520605 
L 303.873576 40.652867 
L 304.088175 41.302065 
L 304.946569 41.319228 
L 305.161168 42.443969 
L 305.375766 42.725658 
L 305.590365 42.24608 
L 306.23416 43.054803 
L 306.448759 42.431853 
L 306.877956 43.19615 
L 307.092554 44.299686 
L 307.73635 45.351734 
L 307.950949 44.232043 
L 308.165547 44.785325 
L 308.380146 44.288581 
L 308.594744 44.173482 
L 309.23854 43.552554 
L 309.453138 44.505655 
L 309.667737 44.513732 
L 309.882335 44.094731 
L 310.096934 42.967972 
L 310.74073 41.750345 
L 311.384525 42.05223 
L 311.599124 41.125378 
L 312.242919 40.956769 
L 312.457518 41.203121 
L 312.886715 43.068935 
L 313.745109 44.457191 
L 313.959708 44.368343 
L 314.174306 44.146223 
L 314.603503 45.033697 
L 315.461898 44.652052 
L 315.676496 43.772656 
L 315.891095 43.909967 
L 316.105693 44.367332 
L 316.749489 45.371924 
L 316.964087 44.726764 
L 317.178686 47.093361 
L 317.393284 48.178726 
L 317.607883 48.332189 
L 318.251679 47.510342 
L 318.466277 46.757152 
L 318.680876 46.824798 
L 318.895474 46.529982 
L 319.110073 45.639481 
L 319.753868 44.335026 
L 319.968467 43.056822 
L 320.183065 43.409185 
L 320.612263 42.329878 
L 321.256058 41.246538 
L 321.470657 41.453512 
L 321.685255 40.93052 
L 322.114452 42.027998 
L 322.758248 41.849289 
L 323.187445 44.463249 
L 323.402044 43.884724 
L 323.616642 44.017997 
L 324.260438 43.041676 
L 324.475036 43.371829 
L 325.118832 42.817536 
L 325.977226 43.192111 
L 326.191825 42.837729 
L 326.406423 42.168337 
L 326.621022 42.355118 
L 327.264817 42.255166 
L 327.479416 42.397527 
L 327.694014 42.821575 
L 327.908613 43.492986 
L 328.123211 43.154755 
L 328.981606 43.579814 
L 329.196204 44.12603 
L 329.410803 43.745396 
L 329.625401 44.342092 
L 330.483795 44.168435 
L 330.912992 45.675826 
L 331.771387 47.119612 
L 331.985985 47.110526 
L 332.415182 48.004058 
L 332.629781 47.726405 
L 333.273576 46.445173 
L 333.488175 45.509236 
L 333.702774 45.27601 
L 334.131971 45.617268 
L 334.775766 45.856552 
L 334.990365 45.119517 
L 335.204963 45.283077 
L 335.419562 44.620754 
L 335.63416 44.699505 
L 336.277956 44.605607 
L 336.492555 44.326949 
L 336.707153 44.315841 
L 336.921752 44.169444 
L 337.13635 44.85701 
L 337.780146 44.719698 
L 337.994744 45.458755 
L 338.209343 43.286009 
L 338.423941 43.488947 
L 339.282336 42.55099 
L 339.496934 41.992659 
L 339.711533 42.072423 
L 340.14073 41.061774 
L 340.784525 40.364111 
L 340.999124 40.788159 
L 341.213722 40.815421 
L 341.428321 41.216245 
L 341.64292 41.878574 
L 342.286715 40.575124 
L 342.501314 38.332718 
L 342.715912 37.431106 
L 342.930511 37.490677 
L 343.145109 37.044414 
L 343.788905 36.498199 
L 344.003503 37.171629 
L 344.432701 36.98081 
L 344.647299 37.176676 
L 345.291095 36.979796 
L 345.505693 38.431662 
L 345.93489 38.117661 
L 346.149489 38.569979 
L 347.007883 38.43267 
L 347.222482 37.411921 
L 347.43708 37.757223 
L 348.295474 36.656715 
L 348.510073 37.820828 
L 348.724671 40.53979 
L 348.93927 40.036986 
L 349.153868 40.823499 
L 349.797664 42.315745 
L 350.012263 41.790731 
L 350.44146 40.076364 
L 350.656058 40.570077 
L 351.299854 38.224682 
L 351.514452 38.380168 
L 351.729051 39.144465 
L 351.94365 38.670945 
L 352.158248 39.021289 
L 352.802044 39.627076 
L 353.016642 38.495267 
L 353.231241 38.333726 
L 353.445839 38.954654 
L 353.660438 38.993018 
L 354.304233 38.516468 
L 354.518832 39.204037 
L 354.948029 38.325649 
L 355.162628 38.005592 
L 355.806423 37.67948 
L 356.450219 36.825324 
L 357.308613 35.123067 
L 357.523212 35.273506 
L 357.952409 34.057898 
L 358.167007 34.658633 
L 358.810803 34.262856 
L 359.025401 35.595579 
L 359.24 34.765655 
L 359.669197 35.257351 
L 360.312993 34.578874 
L 360.527591 34.710127 
L 360.74219 35.167493 
L 360.956788 36.018618 
L 361.171387 35.20384 
L 361.815182 35.356295 
L 362.244379 35.196771 
L 362.458978 34.436513 
L 362.673577 34.756569 
L 363.317372 35.398704 
L 363.531971 35.305815 
L 363.746569 35.765202 
L 363.961168 35.145283 
L 364.175766 35.280575 
L 364.819562 34.882776 
L 365.248759 32.639355 
L 365.677956 31.618612 
L 366.321752 32.107272 
L 366.53635 30.58373 
L 366.750949 30.717 
L 366.965547 30.424206 
L 367.180146 31.219804 
L 367.823942 30.572622 
L 368.03854 30.661473 
L 368.253139 31.084512 
L 368.467737 31.167302 
L 368.682336 31.784191 
L 369.326131 31.474228 
L 369.54073 31.72765 
L 369.969927 32.790802 
L 370.184525 32.330407 
L 370.184525 32.330407 
" style="fill:none;stroke:#1f77b4;stroke-linecap:square;stroke-width:1.5;"/>
   </g>
   <g id="patch_3">
    <path d="M 44.359561 70.946358 
L 44.359561 14.3 
" style="fill:none;stroke:#000000;stroke-linecap:square;stroke-linejoin:miter;stroke-width:0.8;"/>
   </g>
   <g id="patch_4">
    <path d="M 385.7 70.946358 
L 385.7 14.3 
" style="fill:none;stroke:#000000;stroke-linecap:square;stroke-linejoin:miter;stroke-width:0.8;"/>
   </g>
   <g id="patch_5">
    <path d="M 44.359561 70.946358 
L 385.7 70.946358 
" style="fill:none;stroke:#000000;stroke-linecap:square;stroke-linejoin:miter;stroke-width:0.8;"/>
   </g>
   <g id="patch_6">
    <path d="M 44.359561 14.3 
L 385.7 14.3 
" style="fill:none;stroke:#000000;stroke-linecap:square;stroke-linejoin:miter;stroke-width:0.8;"/>
   </g>
   <g id="legend_1">
    <g id="patch_7">
     <path d="M 51.359561 37.25625 
L 143.409561 37.25625 
Q 145.409561 37.25625 145.409561 35.25625 
L 145.409561 21.3 
Q 145.409561 19.3 143.409561 19.3 
L 51.359561 19.3 
Q 49.359561 19.3 49.359561 21.3 
L 49.359561 35.25625 
Q 49.359561 37.25625 51.359561 37.25625 
z
" style="fill:#ffffff;opacity:0.8;stroke:#cccccc;stroke-linejoin:miter;"/>
    </g>
    <g id="line2d_13">
     <path d="M 53.359561 27.398438 
L 73.359561 27.398438 
" style="fill:none;stroke:#1f77b4;stroke-linecap:square;stroke-width:1.5;"/>
    </g>
    <g id="line2d_14"/>
    <g id="text_13">
     <!-- data_values -->
     <defs>
      <path d="M 45.40625 46.390625 
L 45.40625 75.984375 
L 54.390625 75.984375 
L 54.390625 0 
L 45.40625 0 
L 45.40625 8.203125 
Q 42.578125 3.328125 38.25 0.953125 
Q 33.9375 -1.421875 27.875 -1.421875 
Q 17.96875 -1.421875 11.734375 6.484375 
Q 5.515625 14.40625 5.515625 27.296875 
Q 5.515625 40.1875 11.734375 48.09375 
Q 17.96875 56 27.875 56 
Q 33.9375 56 38.25 53.625 
Q 42.578125 51.265625 45.40625 46.390625 
z
M 14.796875 27.296875 
Q 14.796875 17.390625 18.875 11.75 
Q 22.953125 6.109375 30.078125 6.109375 
Q 37.203125 6.109375 41.296875 11.75 
Q 45.40625 17.390625 45.40625 27.296875 
Q 45.40625 37.203125 41.296875 42.84375 
Q 37.203125 48.484375 30.078125 48.484375 
Q 22.953125 48.484375 18.875 42.84375 
Q 14.796875 37.203125 14.796875 27.296875 
z
" id="DejaVuSans-64"/>
      <path d="M 34.28125 27.484375 
Q 23.390625 27.484375 19.1875 25 
Q 14.984375 22.515625 14.984375 16.5 
Q 14.984375 11.71875 18.140625 8.90625 
Q 21.296875 6.109375 26.703125 6.109375 
Q 34.1875 6.109375 38.703125 11.40625 
Q 43.21875 16.703125 43.21875 25.484375 
L 43.21875 27.484375 
z
M 52.203125 31.203125 
L 52.203125 0 
L 43.21875 0 
L 43.21875 8.296875 
Q 40.140625 3.328125 35.546875 0.953125 
Q 30.953125 -1.421875 24.3125 -1.421875 
Q 15.921875 -1.421875 10.953125 3.296875 
Q 6 8.015625 6 15.921875 
Q 6 25.140625 12.171875 29.828125 
Q 18.359375 34.515625 30.609375 34.515625 
L 43.21875 34.515625 
L 43.21875 35.40625 
Q 43.21875 41.609375 39.140625 45 
Q 35.0625 48.390625 27.6875 48.390625 
Q 23 48.390625 18.546875 47.265625 
Q 14.109375 46.140625 10.015625 43.890625 
L 10.015625 52.203125 
Q 14.9375 54.109375 19.578125 55.046875 
Q 24.21875 56 28.609375 56 
Q 40.484375 56 46.34375 49.84375 
Q 52.203125 43.703125 52.203125 31.203125 
z
" id="DejaVuSans-61"/>
      <path d="M 50.984375 -16.609375 
L 50.984375 -23.578125 
L -0.984375 -23.578125 
L -0.984375 -16.609375 
z
" id="DejaVuSans-5f"/>
      <path d="M 2.984375 54.6875 
L 12.5 54.6875 
L 29.59375 8.796875 
L 46.6875 54.6875 
L 56.203125 54.6875 
L 35.6875 0 
L 23.484375 0 
z
" id="DejaVuSans-76"/>
      <path d="M 9.421875 75.984375 
L 18.40625 75.984375 
L 18.40625 0 
L 9.421875 0 
z
" id="DejaVuSans-6c"/>
      <path d="M 8.5 21.578125 
L 8.5 54.6875 
L 17.484375 54.6875 
L 17.484375 21.921875 
Q 17.484375 14.15625 20.5 10.265625 
Q 23.53125 6.390625 29.59375 6.390625 
Q 36.859375 6.390625 41.078125 11.03125 
Q 45.3125 15.671875 45.3125 23.6875 
L 45.3125 54.6875 
L 54.296875 54.6875 
L 54.296875 0 
L 45.3125 0 
L 45.3125 8.40625 
Q 42.046875 3.421875 37.71875 1 
Q 33.40625 -1.421875 27.6875 -1.421875 
Q 18.265625 -1.421875 13.375 4.4375 
Q 8.5 10.296875 8.5 21.578125 
z
M 31.109375 56 
z
" id="DejaVuSans-75"/>
      <path d="M 44.28125 53.078125 
L 44.28125 44.578125 
Q 40.484375 46.53125 36.375 47.5 
Q 32.28125 48.484375 27.875 48.484375 
Q 21.1875 48.484375 17.84375 46.4375 
Q 14.5 44.390625 14.5 40.28125 
Q 14.5 37.15625 16.890625 35.375 
Q 19.28125 33.59375 26.515625 31.984375 
L 29.59375 31.296875 
Q 39.15625 29.25 43.1875 25.515625 
Q 47.21875 21.78125 47.21875 15.09375 
Q 47.21875 7.46875 41.1875 3.015625 
Q 35.15625 -1.421875 24.609375 -1.421875 
Q 20.21875 -1.421875 15.453125 -0.5625 
Q 10.6875 0.296875 5.421875 2 
L 5.421875 11.28125 
Q 10.40625 8.6875 15.234375 7.390625 
Q 20.0625 6.109375 24.8125 6.109375 
Q 31.15625 6.109375 34.5625 8.28125 
Q 37.984375 10.453125 37.984375 14.40625 
Q 37.984375 18.0625 35.515625 20.015625 
Q 33.0625 21.96875 24.703125 23.78125 
L 21.578125 24.515625 
Q 13.234375 26.265625 9.515625 29.90625 
Q 5.8125 33.546875 5.8125 39.890625 
Q 5.8125 47.609375 11.28125 51.796875 
Q 16.75 56 26.8125 56 
Q 31.78125 56 36.171875 55.265625 
Q 40.578125 54.546875 44.28125 53.078125 
z
" id="DejaVuSans-73"/>
     </defs>
     <g transform="translate(81.359561 30.898438)scale(0.1 -0.1)">
      <use xlink:href="#DejaVuSans-64"/>
      <use x="63.476562" xlink:href="#DejaVuSans-61"/>
      <use x="124.755859" xlink:href="#DejaVuSans-74"/>
      <use x="163.964844" xlink:href="#DejaVuSans-61"/>
      <use x="225.244141" xlink:href="#DejaVuSans-5f"/>
      <use x="275.244141" xlink:href="#DejaVuSans-76"/>
      <use x="334.423828" xlink:href="#DejaVuSans-61"/>
      <use x="395.703125" xlink:href="#DejaVuSans-6c"/>
      <use x="423.486328" xlink:href="#DejaVuSans-75"/>
      <use x="486.865234" xlink:href="#DejaVuSans-65"/>
      <use x="548.388672" xlink:href="#DejaVuSans-73"/>
     </g>
    </g>
   </g>
  </g>
  <g id="axes_2">
   <g id="patch_8">
    <path d="M 44.359561 191.84375 
L 385.7 191.84375 
L 385.7 135.197392 
L 44.359561 135.197392 
z
" style="fill:#ffffff;"/>
   </g>
   <g id="matplotlib.axis_3">
    <g id="xtick_10">
     <g id="line2d_15">
      <g>
       <use style="stroke:#000000;stroke-width:0.8;" x="59.875035" xlink:href="#m7e2b6be0e7" y="191.84375"/>
      </g>
     </g>
     <g id="text_14">
      <!-- 0.00 -->
      <defs>
       <path d="M 10.6875 12.40625 
L 21 12.40625 
L 21 0 
L 10.6875 0 
z
" id="DejaVuSans-2e"/>
      </defs>
      <g transform="translate(48.742223 206.442187)scale(0.1 -0.1)">
       <use xlink:href="#DejaVuSans-30"/>
       <use x="63.623047" xlink:href="#DejaVuSans-2e"/>
       <use x="95.410156" xlink:href="#DejaVuSans-30"/>
       <use x="159.033203" xlink:href="#DejaVuSans-30"/>
      </g>
     </g>
    </g>
    <g id="xtick_11">
     <g id="line2d_16">
      <g>
       <use style="stroke:#000000;stroke-width:0.8;" x="128.36677" xlink:href="#m7e2b6be0e7" y="191.84375"/>
      </g>
     </g>
     <g id="text_15">
      <!-- 0.01 -->
      <g transform="translate(117.233957 206.442187)scale(0.1 -0.1)">
       <use xlink:href="#DejaVuSans-30"/>
       <use x="63.623047" xlink:href="#DejaVuSans-2e"/>
       <use x="95.410156" xlink:href="#DejaVuSans-30"/>
       <use x="159.033203" xlink:href="#DejaVuSans-31"/>
      </g>
     </g>
    </g>
    <g id="xtick_12">
     <g id="line2d_17">
      <g>
       <use style="stroke:#000000;stroke-width:0.8;" x="196.858504" xlink:href="#m7e2b6be0e7" y="191.84375"/>
      </g>
     </g>
     <g id="text_16">
      <!-- 0.02 -->
      <g transform="translate(185.725691 206.442187)scale(0.1 -0.1)">
       <use xlink:href="#DejaVuSans-30"/>
       <use x="63.623047" xlink:href="#DejaVuSans-2e"/>
       <use x="95.410156" xlink:href="#DejaVuSans-30"/>
       <use x="159.033203" xlink:href="#DejaVuSans-32"/>
      </g>
     </g>
    </g>
    <g id="xtick_13">
     <g id="line2d_18">
      <g>
       <use style="stroke:#000000;stroke-width:0.8;" x="265.350238" xlink:href="#m7e2b6be0e7" y="191.84375"/>
      </g>
     </g>
     <g id="text_17">
      <!-- 0.03 -->
      <g transform="translate(254.217426 206.442187)scale(0.1 -0.1)">
       <use xlink:href="#DejaVuSans-30"/>
       <use x="63.623047" xlink:href="#DejaVuSans-2e"/>
       <use x="95.410156" xlink:href="#DejaVuSans-30"/>
       <use x="159.033203" xlink:href="#DejaVuSans-33"/>
      </g>
     </g>
    </g>
    <g id="xtick_14">
     <g id="line2d_19">
      <g>
       <use style="stroke:#000000;stroke-width:0.8;" x="333.841973" xlink:href="#m7e2b6be0e7" y="191.84375"/>
      </g>
     </g>
     <g id="text_18">
      <!-- 0.04 -->
      <defs>
       <path d="M 37.796875 64.3125 
L 12.890625 25.390625 
L 37.796875 25.390625 
z
M 35.203125 72.90625 
L 47.609375 72.90625 
L 47.609375 25.390625 
L 58.015625 25.390625 
L 58.015625 17.1875 
L 47.609375 17.1875 
L 47.609375 0 
L 37.796875 0 
L 37.796875 17.1875 
L 4.890625 17.1875 
L 4.890625 26.703125 
z
" id="DejaVuSans-34"/>
      </defs>
      <g transform="translate(322.70916 206.442187)scale(0.1 -0.1)">
       <use xlink:href="#DejaVuSans-30"/>
       <use x="63.623047" xlink:href="#DejaVuSans-2e"/>
       <use x="95.410156" xlink:href="#DejaVuSans-30"/>
       <use x="159.033203" xlink:href="#DejaVuSans-34"/>
      </g>
     </g>
    </g>
    <g id="text_19">
     <!-- time -->
     <g transform="translate(203.733687 220.120312)scale(0.1 -0.1)">
      <use xlink:href="#DejaVuSans-74"/>
      <use x="39.208984" xlink:href="#DejaVuSans-69"/>
      <use x="66.992188" xlink:href="#DejaVuSans-6d"/>
      <use x="164.404297" xlink:href="#DejaVuSans-65"/>
     </g>
    </g>
   </g>
   <g id="matplotlib.axis_4">
    <g id="ytick_3">
     <g id="line2d_20">
      <g>
       <use style="stroke:#000000;stroke-width:0.8;" x="44.359561" xlink:href="#md2eea24525" y="173.156069"/>
      </g>
     </g>
     <g id="text_20">
      <!-- 0.00 -->
      <g transform="translate(15.093936 176.955287)scale(0.1 -0.1)">
       <use xlink:href="#DejaVuSans-30"/>
       <use x="63.623047" xlink:href="#DejaVuSans-2e"/>
       <use x="95.410156" xlink:href="#DejaVuSans-30"/>
       <use x="159.033203" xlink:href="#DejaVuSans-30"/>
      </g>
     </g>
    </g>
    <g id="ytick_4">
     <g id="line2d_21">
      <g>
       <use style="stroke:#000000;stroke-width:0.8;" x="44.359561" xlink:href="#md2eea24525" y="153.74859"/>
      </g>
     </g>
     <g id="text_21">
      <!-- 0.25 -->
      <g transform="translate(15.093936 157.547808)scale(0.1 -0.1)">
       <use xlink:href="#DejaVuSans-30"/>
       <use x="63.623047" xlink:href="#DejaVuSans-2e"/>
       <use x="95.410156" xlink:href="#DejaVuSans-32"/>
       <use x="159.033203" xlink:href="#DejaVuSans-35"/>
      </g>
     </g>
    </g>
   </g>
   <g id="line2d_22">
    <path clip-path="url(#pfd0d29e6ea)" d="M 59.875035 173.693913 
L 62.049376 174.128357 
L 63.602477 174.18033 
L 68.883018 174.067684 
L 72.29984 174.064266 
L 80.375963 174.022258 
L 85.035264 173.983776 
L 92.179527 173.711473 
L 99.323789 173.456084 
L 117.339756 172.193938 
L 121.688437 172.061119 
L 127.900839 172.123433 
L 131.628281 172.466353 
L 135.355722 172.988507 
L 138.772543 173.737697 
L 144.363705 175.220865 
L 149.954867 176.978471 
L 153.992929 178.177638 
L 157.72037 178.991966 
L 160.826571 179.492959 
L 163.000912 179.625143 
L 165.485873 179.535754 
L 169.213314 179.148535 
L 174.804476 178.3631 
L 178.531917 177.594007 
L 184.123079 176.21733 
L 186.91866 175.29247 
L 189.403621 174.244983 
L 191.577962 173.096962 
L 193.441683 171.883519 
L 195.616023 170.193649 
L 198.722225 167.450992 
L 204.002766 162.755971 
L 205.866487 161.398426 
L 207.419588 160.512523 
L 208.972688 159.900847 
L 210.215169 159.630511 
L 211.457649 159.564739 
L 212.70013 159.708154 
L 213.94261 160.064123 
L 215.18509 160.634947 
L 216.427571 161.418393 
L 217.980671 162.678692 
L 219.844392 164.544699 
L 222.018733 167.088619 
L 226.056794 172.291252 
L 229.162995 176.122122 
L 231.958576 179.216052 
L 234.132917 181.321468 
L 236.307258 183.122737 
L 238.481599 184.640254 
L 240.655939 185.9112 
L 243.1409 187.101631 
L 245.315241 187.917617 
L 247.489582 188.513027 
L 250.285163 189.025679 
L 252.770124 189.257125 
L 254.944465 189.208222 
L 257.429425 188.883591 
L 259.914386 188.325603 
L 262.399347 187.516463 
L 265.505548 186.232174 
L 267.990509 184.975557 
L 270.47547 183.46862 
L 273.892291 181.127178 
L 278.240973 178.146426 
L 280.415314 176.941407 
L 282.589654 175.96527 
L 284.453375 175.344184 
L 286.317096 174.980164 
L 288.491436 174.830425 
L 292.529498 174.636136 
L 294.393219 174.314377 
L 295.946319 173.834493 
L 297.49942 173.111936 
L 299.05252 172.117519 
L 300.605621 170.82708 
L 302.158721 169.210089 
L 303.711822 167.245362 
L 305.575543 164.457713 
L 307.749883 160.762292 
L 311.787945 153.332833 
L 314.894146 147.814987 
L 316.757867 144.903749 
L 318.310967 142.811477 
L 319.864068 141.072577 
L 321.106548 139.956802 
L 322.349028 139.090458 
L 323.591509 138.463652 
L 324.833989 138.054378 
L 326.38709 137.804653 
L 327.94019 137.792412 
L 329.803911 138.020549 
L 331.978252 138.522141 
L 342.228716 141.429452 
L 344.092436 142.286546 
L 345.645537 143.215317 
L 347.198637 144.379221 
L 348.751738 145.810282 
L 350.304838 147.525406 
L 352.168559 149.963677 
L 354.03228 152.803571 
L 356.206621 156.540635 
L 364.593364 171.537402 
L 366.457084 174.228905 
L 368.010185 176.129064 
L 369.563285 177.714649 
L 370.184525 178.26648 
L 370.184525 178.26648 
" style="fill:none;stroke:#1f77b4;stroke-linecap:square;stroke-width:1.5;"/>
   </g>
   <g id="patch_9">
    <path d="M 44.359561 191.84375 
L 44.359561 135.197392 
" style="fill:none;stroke:#000000;stroke-linecap:square;stroke-linejoin:miter;stroke-width:0.8;"/>
   </g>
   <g id="patch_10">
    <path d="M 385.7 191.84375 
L 385.7 135.197392 
" style="fill:none;stroke:#000000;stroke-linecap:square;stroke-linejoin:miter;stroke-width:0.8;"/>
   </g>
   <g id="patch_11">
    <path d="M 44.359561 191.84375 
L 385.7 191.84375 
" style="fill:none;stroke:#000000;stroke-linecap:square;stroke-linejoin:miter;stroke-width:0.8;"/>
   </g>
   <g id="patch_12">
    <path d="M 44.359561 135.197392 
L 385.7 135.197392 
" style="fill:none;stroke:#000000;stroke-linecap:square;stroke-linejoin:miter;stroke-width:0.8;"/>
   </g>
   <g id="legend_2">
    <g id="patch_13">
     <path d="M 51.359561 158.153642 
L 143.409561 158.153642 
Q 145.409561 158.153642 145.409561 156.153642 
L 145.409561 142.197392 
Q 145.409561 140.197392 143.409561 140.197392 
L 51.359561 140.197392 
Q 49.359561 140.197392 49.359561 142.197392 
L 49.359561 156.153642 
Q 49.359561 158.153642 51.359561 158.153642 
z
" style="fill:#ffffff;opacity:0.8;stroke:#cccccc;stroke-linejoin:miter;"/>
    </g>
    <g id="line2d_23">
     <path d="M 53.359561 148.295829 
L 73.359561 148.295829 
" style="fill:none;stroke:#1f77b4;stroke-linecap:square;stroke-width:1.5;"/>
    </g>
    <g id="line2d_24"/>
    <g id="text_22">
     <!-- data_values -->
     <g transform="translate(81.359561 151.795829)scale(0.1 -0.1)">
      <use xlink:href="#DejaVuSans-64"/>
      <use x="63.476562" xlink:href="#DejaVuSans-61"/>
      <use x="124.755859" xlink:href="#DejaVuSans-74"/>
      <use x="163.964844" xlink:href="#DejaVuSans-61"/>
      <use x="225.244141" xlink:href="#DejaVuSans-5f"/>
      <use x="275.244141" xlink:href="#DejaVuSans-76"/>
      <use x="334.423828" xlink:href="#DejaVuSans-61"/>
      <use x="395.703125" xlink:href="#DejaVuSans-6c"/>
      <use x="423.486328" xlink:href="#DejaVuSans-75"/>
      <use x="486.865234" xlink:href="#DejaVuSans-65"/>
      <use x="548.388672" xlink:href="#DejaVuSans-73"/>
     </g>
    </g>
   </g>
  </g>
 </g>
 <defs>
  <clipPath id="p20fa86577f">
   <rect height="56.646358" width="341.340439" x="44.359561" y="14.3"/>
  </clipPath>
  <clipPath id="pfd0d29e6ea">
   <rect height="56.646358" width="341.340439" x="44.359561" y="135.197392"/>
  </clipPath>
 </defs>
</svg>
