<?xml version="1.0" encoding="utf-8" standalone="no"?>
<!DOCTYPE svg PUBLIC "-//W3C//DTD SVG 1.1//EN"
  "http://www.w3.org/Graphics/SVG/1.1/DTD/svg11.dtd">
<!-- Created with matplotlib (http://matplotlib.org/) -->
<svg height="233pt" version="1.1" viewBox="0 0 400 233" width="400pt" xmlns="http://www.w3.org/2000/svg" xmlns:xlink="http://www.w3.org/1999/xlink">
 <defs>
  <style type="text/css">
*{stroke-linecap:butt;stroke-linejoin:round;}
  </style>
 </defs>
 <g id="figure_1">
  <g id="patch_1">
   <path d="M 0 233 
L 400 233 
L 400 0 
L 0 0 
z
" style="fill:#ffffff;"/>
  </g>
  <g id="axes_1">
   <g id="patch_2">
    <path d="M 36.8875 180.415373 
L 385.7 180.415373 
L 385.7 14.3 
L 36.8875 14.3 
z
" style="fill:#ffffff;"/>
   </g>
   <g id="matplotlib.axis_1">
    <g id="xtick_1">
     <g id="line2d_1">
      <defs>
       <path d="M 0 0 
L 0 3.5 
" id="m945f1f7df8" style="stroke:#000000;stroke-width:0.8;"/>
      </defs>
      <g>
       <use style="stroke:#000000;stroke-width:0.8;" x="52.369845" xlink:href="#m945f1f7df8" y="180.415373"/>
      </g>
     </g>
     <g id="text_1">
      <!-- 2010 -->
      <defs>
       <path d="M 19.1875 8.296875 
L 53.609375 8.296875 
L 53.609375 0 
L 7.328125 0 
L 7.328125 8.296875 
Q 12.9375 14.109375 22.625 23.890625 
Q 32.328125 33.6875 34.8125 36.53125 
Q 39.546875 41.84375 41.421875 45.53125 
Q 43.3125 49.21875 43.3125 52.78125 
Q 43.3125 58.59375 39.234375 62.25 
Q 35.15625 65.921875 28.609375 65.921875 
Q 23.96875 65.921875 18.8125 64.3125 
Q 13.671875 62.703125 7.8125 59.421875 
L 7.8125 69.390625 
Q 13.765625 71.78125 18.9375 73 
Q 24.125 74.21875 28.421875 74.21875 
Q 39.75 74.21875 46.484375 68.546875 
Q 53.21875 62.890625 53.21875 53.421875 
Q 53.21875 48.921875 51.53125 44.890625 
Q 49.859375 40.875 45.40625 35.40625 
Q 44.1875 33.984375 37.640625 27.21875 
Q 31.109375 20.453125 19.1875 8.296875 
z
" id="DejaVuSans-32"/>
       <path d="M 31.78125 66.40625 
Q 24.171875 66.40625 20.328125 58.90625 
Q 16.5 51.421875 16.5 36.375 
Q 16.5 21.390625 20.328125 13.890625 
Q 24.171875 6.390625 31.78125 6.390625 
Q 39.453125 6.390625 43.28125 13.890625 
Q 47.125 21.390625 47.125 36.375 
Q 47.125 51.421875 43.28125 58.90625 
Q 39.453125 66.40625 31.78125 66.40625 
z
M 31.78125 74.21875 
Q 44.046875 74.21875 50.515625 64.515625 
Q 56.984375 54.828125 56.984375 36.375 
Q 56.984375 17.96875 50.515625 8.265625 
Q 44.046875 -1.421875 31.78125 -1.421875 
Q 19.53125 -1.421875 13.0625 8.265625 
Q 6.59375 17.96875 6.59375 36.375 
Q 6.59375 54.828125 13.0625 64.515625 
Q 19.53125 74.21875 31.78125 74.21875 
z
" id="DejaVuSans-30"/>
       <path d="M 12.40625 8.296875 
L 28.515625 8.296875 
L 28.515625 63.921875 
L 10.984375 60.40625 
L 10.984375 69.390625 
L 28.421875 72.90625 
L 38.28125 72.90625 
L 38.28125 8.296875 
L 54.390625 8.296875 
L 54.390625 0 
L 12.40625 0 
z
" id="DejaVuSans-31"/>
      </defs>
      <g transform="translate(29.289654 206.720813)rotate(-30)scale(0.1 -0.1)">
       <use xlink:href="#DejaVuSans-32"/>
       <use x="63.623047" xlink:href="#DejaVuSans-30"/>
       <use x="127.246094" xlink:href="#DejaVuSans-31"/>
       <use x="190.869141" xlink:href="#DejaVuSans-30"/>
      </g>
     </g>
    </g>
    <g id="xtick_2">
     <g id="line2d_2">
      <g>
       <use style="stroke:#000000;stroke-width:0.8;" x="97.723422" xlink:href="#m945f1f7df8" y="180.415373"/>
      </g>
     </g>
     <g id="text_2">
      <!-- 2011 -->
      <g transform="translate(74.643232 206.720813)rotate(-30)scale(0.1 -0.1)">
       <use xlink:href="#DejaVuSans-32"/>
       <use x="63.623047" xlink:href="#DejaVuSans-30"/>
       <use x="127.246094" xlink:href="#DejaVuSans-31"/>
       <use x="190.869141" xlink:href="#DejaVuSans-31"/>
      </g>
     </g>
    </g>
    <g id="xtick_3">
     <g id="line2d_3">
      <g>
       <use style="stroke:#000000;stroke-width:0.8;" x="143.076999" xlink:href="#m945f1f7df8" y="180.415373"/>
      </g>
     </g>
     <g id="text_3">
      <!-- 2012 -->
      <g transform="translate(119.996809 206.720813)rotate(-30)scale(0.1 -0.1)">
       <use xlink:href="#DejaVuSans-32"/>
       <use x="63.623047" xlink:href="#DejaVuSans-30"/>
       <use x="127.246094" xlink:href="#DejaVuSans-31"/>
       <use x="190.869141" xlink:href="#DejaVuSans-32"/>
      </g>
     </g>
    </g>
    <g id="xtick_4">
     <g id="line2d_4">
      <g>
       <use style="stroke:#000000;stroke-width:0.8;" x="188.554833" xlink:href="#m945f1f7df8" y="180.415373"/>
      </g>
     </g>
     <g id="text_4">
      <!-- 2013 -->
      <defs>
       <path d="M 40.578125 39.3125 
Q 47.65625 37.796875 51.625 33 
Q 55.609375 28.21875 55.609375 21.1875 
Q 55.609375 10.40625 48.1875 4.484375 
Q 40.765625 -1.421875 27.09375 -1.421875 
Q 22.515625 -1.421875 17.65625 -0.515625 
Q 12.796875 0.390625 7.625 2.203125 
L 7.625 11.71875 
Q 11.71875 9.328125 16.59375 8.109375 
Q 21.484375 6.890625 26.8125 6.890625 
Q 36.078125 6.890625 40.9375 10.546875 
Q 45.796875 14.203125 45.796875 21.1875 
Q 45.796875 27.640625 41.28125 31.265625 
Q 36.765625 34.90625 28.71875 34.90625 
L 20.21875 34.90625 
L 20.21875 43.015625 
L 29.109375 43.015625 
Q 36.375 43.015625 40.234375 45.921875 
Q 44.09375 48.828125 44.09375 54.296875 
Q 44.09375 59.90625 40.109375 62.90625 
Q 36.140625 65.921875 28.71875 65.921875 
Q 24.65625 65.921875 20.015625 65.03125 
Q 15.375 64.15625 9.8125 62.3125 
L 9.8125 71.09375 
Q 15.4375 72.65625 20.34375 73.4375 
Q 25.25 74.21875 29.59375 74.21875 
Q 40.828125 74.21875 47.359375 69.109375 
Q 53.90625 64.015625 53.90625 55.328125 
Q 53.90625 49.265625 50.4375 45.09375 
Q 46.96875 40.921875 40.578125 39.3125 
z
" id="DejaVuSans-33"/>
      </defs>
      <g transform="translate(165.474643 206.720813)rotate(-30)scale(0.1 -0.1)">
       <use xlink:href="#DejaVuSans-32"/>
       <use x="63.623047" xlink:href="#DejaVuSans-30"/>
       <use x="127.246094" xlink:href="#DejaVuSans-31"/>
       <use x="190.869141" xlink:href="#DejaVuSans-33"/>
      </g>
     </g>
    </g>
    <g id="xtick_5">
     <g id="line2d_5">
      <g>
       <use style="stroke:#000000;stroke-width:0.8;" x="233.908411" xlink:href="#m945f1f7df8" y="180.415373"/>
      </g>
     </g>
     <g id="text_5">
      <!-- 2014 -->
      <defs>
       <path d="M 37.796875 64.3125 
L 12.890625 25.390625 
L 37.796875 25.390625 
z
M 35.203125 72.90625 
L 47.609375 72.90625 
L 47.609375 25.390625 
L 58.015625 25.390625 
L 58.015625 17.1875 
L 47.609375 17.1875 
L 47.609375 0 
L 37.796875 0 
L 37.796875 17.1875 
L 4.890625 17.1875 
L 4.890625 26.703125 
z
" id="DejaVuSans-34"/>
      </defs>
      <g transform="translate(210.82822 206.720813)rotate(-30)scale(0.1 -0.1)">
       <use xlink:href="#DejaVuSans-32"/>
       <use x="63.623047" xlink:href="#DejaVuSans-30"/>
       <use x="127.246094" xlink:href="#DejaVuSans-31"/>
       <use x="190.869141" xlink:href="#DejaVuSans-34"/>
      </g>
     </g>
    </g>
    <g id="xtick_6">
     <g id="line2d_6">
      <g>
       <use style="stroke:#000000;stroke-width:0.8;" x="279.261988" xlink:href="#m945f1f7df8" y="180.415373"/>
      </g>
     </g>
     <g id="text_6">
      <!-- 2015 -->
      <defs>
       <path d="M 10.796875 72.90625 
L 49.515625 72.90625 
L 49.515625 64.59375 
L 19.828125 64.59375 
L 19.828125 46.734375 
Q 21.96875 47.46875 24.109375 47.828125 
Q 26.265625 48.1875 28.421875 48.1875 
Q 40.625 48.1875 47.75 41.5 
Q 54.890625 34.8125 54.890625 23.390625 
Q 54.890625 11.625 47.5625 5.09375 
Q 40.234375 -1.421875 26.90625 -1.421875 
Q 22.3125 -1.421875 17.546875 -0.640625 
Q 12.796875 0.140625 7.71875 1.703125 
L 7.71875 11.625 
Q 12.109375 9.234375 16.796875 8.0625 
Q 21.484375 6.890625 26.703125 6.890625 
Q 35.15625 6.890625 40.078125 11.328125 
Q 45.015625 15.765625 45.015625 23.390625 
Q 45.015625 31 40.078125 35.4375 
Q 35.15625 39.890625 26.703125 39.890625 
Q 22.75 39.890625 18.8125 39.015625 
Q 14.890625 38.140625 10.796875 36.28125 
z
" id="DejaVuSans-35"/>
      </defs>
      <g transform="translate(256.181798 206.720813)rotate(-30)scale(0.1 -0.1)">
       <use xlink:href="#DejaVuSans-32"/>
       <use x="63.623047" xlink:href="#DejaVuSans-30"/>
       <use x="127.246094" xlink:href="#DejaVuSans-31"/>
       <use x="190.869141" xlink:href="#DejaVuSans-35"/>
      </g>
     </g>
    </g>
    <g id="xtick_7">
     <g id="line2d_7">
      <g>
       <use style="stroke:#000000;stroke-width:0.8;" x="324.615565" xlink:href="#m945f1f7df8" y="180.415373"/>
      </g>
     </g>
     <g id="text_7">
      <!-- 2016 -->
      <defs>
       <path d="M 33.015625 40.375 
Q 26.375 40.375 22.484375 35.828125 
Q 18.609375 31.296875 18.609375 23.390625 
Q 18.609375 15.53125 22.484375 10.953125 
Q 26.375 6.390625 33.015625 6.390625 
Q 39.65625 6.390625 43.53125 10.953125 
Q 47.40625 15.53125 47.40625 23.390625 
Q 47.40625 31.296875 43.53125 35.828125 
Q 39.65625 40.375 33.015625 40.375 
z
M 52.59375 71.296875 
L 52.59375 62.3125 
Q 48.875 64.0625 45.09375 64.984375 
Q 41.3125 65.921875 37.59375 65.921875 
Q 27.828125 65.921875 22.671875 59.328125 
Q 17.53125 52.734375 16.796875 39.40625 
Q 19.671875 43.65625 24.015625 45.921875 
Q 28.375 48.1875 33.59375 48.1875 
Q 44.578125 48.1875 50.953125 41.515625 
Q 57.328125 34.859375 57.328125 23.390625 
Q 57.328125 12.15625 50.6875 5.359375 
Q 44.046875 -1.421875 33.015625 -1.421875 
Q 20.359375 -1.421875 13.671875 8.265625 
Q 6.984375 17.96875 6.984375 36.375 
Q 6.984375 53.65625 15.1875 63.9375 
Q 23.390625 74.21875 37.203125 74.21875 
Q 40.921875 74.21875 44.703125 73.484375 
Q 48.484375 72.75 52.59375 71.296875 
z
" id="DejaVuSans-36"/>
      </defs>
      <g transform="translate(301.535375 206.720813)rotate(-30)scale(0.1 -0.1)">
       <use xlink:href="#DejaVuSans-32"/>
       <use x="63.623047" xlink:href="#DejaVuSans-30"/>
       <use x="127.246094" xlink:href="#DejaVuSans-31"/>
       <use x="190.869141" xlink:href="#DejaVuSans-36"/>
      </g>
     </g>
    </g>
    <g id="xtick_8">
     <g id="line2d_8">
      <g>
       <use style="stroke:#000000;stroke-width:0.8;" x="370.093399" xlink:href="#m945f1f7df8" y="180.415373"/>
      </g>
     </g>
     <g id="text_8">
      <!-- 2017 -->
      <defs>
       <path d="M 8.203125 72.90625 
L 55.078125 72.90625 
L 55.078125 68.703125 
L 28.609375 0 
L 18.3125 0 
L 43.21875 64.59375 
L 8.203125 64.59375 
z
" id="DejaVuSans-37"/>
      </defs>
      <g transform="translate(347.013209 206.720813)rotate(-30)scale(0.1 -0.1)">
       <use xlink:href="#DejaVuSans-32"/>
       <use x="63.623047" xlink:href="#DejaVuSans-30"/>
       <use x="127.246094" xlink:href="#DejaVuSans-31"/>
       <use x="190.869141" xlink:href="#DejaVuSans-37"/>
      </g>
     </g>
    </g>
    <g id="text_9">
     <!-- date -->
     <defs>
      <path d="M 45.40625 46.390625 
L 45.40625 75.984375 
L 54.390625 75.984375 
L 54.390625 0 
L 45.40625 0 
L 45.40625 8.203125 
Q 42.578125 3.328125 38.25 0.953125 
Q 33.9375 -1.421875 27.875 -1.421875 
Q 17.96875 -1.421875 11.734375 6.484375 
Q 5.515625 14.40625 5.515625 27.296875 
Q 5.515625 40.1875 11.734375 48.09375 
Q 17.96875 56 27.875 56 
Q 33.9375 56 38.25 53.625 
Q 42.578125 51.265625 45.40625 46.390625 
z
M 14.796875 27.296875 
Q 14.796875 17.390625 18.875 11.75 
Q 22.953125 6.109375 30.078125 6.109375 
Q 37.203125 6.109375 41.296875 11.75 
Q 45.40625 17.390625 45.40625 27.296875 
Q 45.40625 37.203125 41.296875 42.84375 
Q 37.203125 48.484375 30.078125 48.484375 
Q 22.953125 48.484375 18.875 42.84375 
Q 14.796875 37.203125 14.796875 27.296875 
z
" id="DejaVuSans-64"/>
      <path d="M 34.28125 27.484375 
Q 23.390625 27.484375 19.1875 25 
Q 14.984375 22.515625 14.984375 16.5 
Q 14.984375 11.71875 18.140625 8.90625 
Q 21.296875 6.109375 26.703125 6.109375 
Q 34.1875 6.109375 38.703125 11.40625 
Q 43.21875 16.703125 43.21875 25.484375 
L 43.21875 27.484375 
z
M 52.203125 31.203125 
L 52.203125 0 
L 43.21875 0 
L 43.21875 8.296875 
Q 40.140625 3.328125 35.546875 0.953125 
Q 30.953125 -1.421875 24.3125 -1.421875 
Q 15.921875 -1.421875 10.953125 3.296875 
Q 6 8.015625 6 15.921875 
Q 6 25.140625 12.171875 29.828125 
Q 18.359375 34.515625 30.609375 34.515625 
L 43.21875 34.515625 
L 43.21875 35.40625 
Q 43.21875 41.609375 39.140625 45 
Q 35.0625 48.390625 27.6875 48.390625 
Q 23 48.390625 18.546875 47.265625 
Q 14.109375 46.140625 10.015625 43.890625 
L 10.015625 52.203125 
Q 14.9375 54.109375 19.578125 55.046875 
Q 24.21875 56 28.609375 56 
Q 40.484375 56 46.34375 49.84375 
Q 52.203125 43.703125 52.203125 31.203125 
z
" id="DejaVuSans-61"/>
      <path d="M 18.3125 70.21875 
L 18.3125 54.6875 
L 36.8125 54.6875 
L 36.8125 47.703125 
L 18.3125 47.703125 
L 18.3125 18.015625 
Q 18.3125 11.328125 20.140625 9.421875 
Q 21.96875 7.515625 27.59375 7.515625 
L 36.8125 7.515625 
L 36.8125 0 
L 27.59375 0 
Q 17.1875 0 13.234375 3.875 
Q 9.28125 7.765625 9.28125 18.015625 
L 9.28125 47.703125 
L 2.6875 47.703125 
L 2.6875 54.6875 
L 9.28125 54.6875 
L 9.28125 70.21875 
z
" id="DejaVuSans-74"/>
      <path d="M 56.203125 29.59375 
L 56.203125 25.203125 
L 14.890625 25.203125 
Q 15.484375 15.921875 20.484375 11.0625 
Q 25.484375 6.203125 34.421875 6.203125 
Q 39.59375 6.203125 44.453125 7.46875 
Q 49.3125 8.734375 54.109375 11.28125 
L 54.109375 2.78125 
Q 49.265625 0.734375 44.1875 -0.34375 
Q 39.109375 -1.421875 33.890625 -1.421875 
Q 20.796875 -1.421875 13.15625 6.1875 
Q 5.515625 13.8125 5.515625 26.8125 
Q 5.515625 40.234375 12.765625 48.109375 
Q 20.015625 56 32.328125 56 
Q 43.359375 56 49.78125 48.890625 
Q 56.203125 41.796875 56.203125 29.59375 
z
M 47.21875 32.234375 
Q 47.125 39.59375 43.09375 43.984375 
Q 39.0625 48.390625 32.421875 48.390625 
Q 24.90625 48.390625 20.390625 44.140625 
Q 15.875 39.890625 15.1875 32.171875 
z
" id="DejaVuSans-65"/>
     </defs>
     <g transform="translate(200.01875 220.120312)scale(0.1 -0.1)">
      <use xlink:href="#DejaVuSans-64"/>
      <use x="63.476562" xlink:href="#DejaVuSans-61"/>
      <use x="124.755859" xlink:href="#DejaVuSans-74"/>
      <use x="163.964844" xlink:href="#DejaVuSans-65"/>
     </g>
    </g>
   </g>
   <g id="matplotlib.axis_2">
    <g id="ytick_1">
     <g id="line2d_9">
      <defs>
       <path d="M 0 0 
L -3.5 0 
" id="m9c3a5620ca" style="stroke:#000000;stroke-width:0.8;"/>
      </defs>
      <g>
       <use style="stroke:#000000;stroke-width:0.8;" x="36.8875" xlink:href="#m9c3a5620ca" y="157.378918"/>
      </g>
     </g>
     <g id="text_10">
      <!-- 20 -->
      <g transform="translate(17.1625 161.178137)scale(0.1 -0.1)">
       <use xlink:href="#DejaVuSans-32"/>
       <use x="63.623047" xlink:href="#DejaVuSans-30"/>
      </g>
     </g>
    </g>
    <g id="ytick_2">
     <g id="line2d_10">
      <g>
       <use style="stroke:#000000;stroke-width:0.8;" x="36.8875" xlink:href="#m9c3a5620ca" y="129.526838"/>
      </g>
     </g>
     <g id="text_11">
      <!-- 40 -->
      <g transform="translate(17.1625 133.326057)scale(0.1 -0.1)">
       <use xlink:href="#DejaVuSans-34"/>
       <use x="63.623047" xlink:href="#DejaVuSans-30"/>
      </g>
     </g>
    </g>
    <g id="ytick_3">
     <g id="line2d_11">
      <g>
       <use style="stroke:#000000;stroke-width:0.8;" x="36.8875" xlink:href="#m9c3a5620ca" y="101.674759"/>
      </g>
     </g>
     <g id="text_12">
      <!-- 60 -->
      <g transform="translate(17.1625 105.473978)scale(0.1 -0.1)">
       <use xlink:href="#DejaVuSans-36"/>
       <use x="63.623047" xlink:href="#DejaVuSans-30"/>
      </g>
     </g>
    </g>
    <g id="ytick_4">
     <g id="line2d_12">
      <g>
       <use style="stroke:#000000;stroke-width:0.8;" x="36.8875" xlink:href="#m9c3a5620ca" y="73.822679"/>
      </g>
     </g>
     <g id="text_13">
      <!-- 80 -->
      <defs>
       <path d="M 31.78125 34.625 
Q 24.75 34.625 20.71875 30.859375 
Q 16.703125 27.09375 16.703125 20.515625 
Q 16.703125 13.921875 20.71875 10.15625 
Q 24.75 6.390625 31.78125 6.390625 
Q 38.8125 6.390625 42.859375 10.171875 
Q 46.921875 13.96875 46.921875 20.515625 
Q 46.921875 27.09375 42.890625 30.859375 
Q 38.875 34.625 31.78125 34.625 
z
M 21.921875 38.8125 
Q 15.578125 40.375 12.03125 44.71875 
Q 8.5 49.078125 8.5 55.328125 
Q 8.5 64.0625 14.71875 69.140625 
Q 20.953125 74.21875 31.78125 74.21875 
Q 42.671875 74.21875 48.875 69.140625 
Q 55.078125 64.0625 55.078125 55.328125 
Q 55.078125 49.078125 51.53125 44.71875 
Q 48 40.375 41.703125 38.8125 
Q 48.828125 37.15625 52.796875 32.3125 
Q 56.78125 27.484375 56.78125 20.515625 
Q 56.78125 9.90625 50.3125 4.234375 
Q 43.84375 -1.421875 31.78125 -1.421875 
Q 19.734375 -1.421875 13.25 4.234375 
Q 6.78125 9.90625 6.78125 20.515625 
Q 6.78125 27.484375 10.78125 32.3125 
Q 14.796875 37.15625 21.921875 38.8125 
z
M 18.3125 54.390625 
Q 18.3125 48.734375 21.84375 45.5625 
Q 25.390625 42.390625 31.78125 42.390625 
Q 38.140625 42.390625 41.71875 45.5625 
Q 45.3125 48.734375 45.3125 54.390625 
Q 45.3125 60.0625 41.71875 63.234375 
Q 38.140625 66.40625 31.78125 66.40625 
Q 25.390625 66.40625 21.84375 63.234375 
Q 18.3125 60.0625 18.3125 54.390625 
z
" id="DejaVuSans-38"/>
      </defs>
      <g transform="translate(17.1625 77.621898)scale(0.1 -0.1)">
       <use xlink:href="#DejaVuSans-38"/>
       <use x="63.623047" xlink:href="#DejaVuSans-30"/>
      </g>
     </g>
    </g>
    <g id="ytick_5">
     <g id="line2d_13">
      <g>
       <use style="stroke:#000000;stroke-width:0.8;" x="36.8875" xlink:href="#m9c3a5620ca" y="45.9706"/>
      </g>
     </g>
     <g id="text_14">
      <!-- 100 -->
      <g transform="translate(10.8 49.769818)scale(0.1 -0.1)">
       <use xlink:href="#DejaVuSans-31"/>
       <use x="63.623047" xlink:href="#DejaVuSans-30"/>
       <use x="127.246094" xlink:href="#DejaVuSans-30"/>
      </g>
     </g>
    </g>
    <g id="ytick_6">
     <g id="line2d_14">
      <g>
       <use style="stroke:#000000;stroke-width:0.8;" x="36.8875" xlink:href="#m9c3a5620ca" y="18.11852"/>
      </g>
     </g>
     <g id="text_15">
      <!-- 120 -->
      <g transform="translate(10.8 21.917739)scale(0.1 -0.1)">
       <use xlink:href="#DejaVuSans-31"/>
       <use x="63.623047" xlink:href="#DejaVuSans-32"/>
       <use x="127.246094" xlink:href="#DejaVuSans-30"/>
      </g>
     </g>
    </g>
   </g>
   <g id="line2d_15">
    <path clip-path="url(#p869e04bb93)" d="M 52.742614 151.947762 
L 53.115383 152.88081 
L 53.239639 152.490879 
L 53.612408 152.574434 
L 53.736665 152.936511 
L 53.860921 152.365544 
L 54.109434 153.939189 
L 54.606459 152.83903 
L 54.730716 154.273411 
L 54.854972 151.627466 
L 54.979228 152.393398 
L 55.351998 152.240209 
L 55.476254 151.711021 
L 55.60051 151.850281 
L 55.849023 153.173255 
L 56.221792 152.964365 
L 56.346049 153.0897 
L 56.470305 152.88081 
L 56.594561 153.96704 
L 56.718818 153.604963 
L 57.215843 154.078449 
L 57.3401 154.649415 
L 57.464356 154.412671 
L 57.588612 154.914012 
L 58.334151 153.423923 
L 58.458407 152.616214 
L 58.831176 152.81118 
L 58.955432 153.354292 
L 59.079689 152.83903 
L 59.203945 153.201106 
L 59.328202 153.173255 
L 59.825227 151.822428 
L 59.949483 152.490879 
L 60.07374 152.114878 
L 60.197996 150.931163 
L 60.570765 150.638717 
L 60.695022 149.70567 
L 60.819278 149.63604 
L 60.943534 149.803155 
L 61.067791 149.065074 
L 61.44056 148.633366 
L 61.813329 146.990092 
L 61.937585 147.366097 
L 62.558867 147.714248 
L 62.683124 146.850835 
L 62.80738 147.004021 
L 63.304406 147.435727 
L 63.428662 147.672468 
L 63.552918 148.22951 
L 64.049944 147.115427 
L 64.1742 147.254687 
L 64.422713 148.382696 
L 64.546969 148.257365 
L 65.043995 148.132029 
L 65.168251 147.574987 
L 65.292508 147.658544 
L 65.416764 148.563736 
L 65.789533 148.577661 
L 65.91379 148.466255 
L 66.038046 148.61944 
L 66.286559 151.04257 
L 66.659328 151.028645 
L 66.783584 152.128802 
L 67.032097 151.474277 
L 67.156353 152.114878 
L 67.529122 151.933838 
L 67.777635 153.674593 
L 67.901892 154.21771 
L 68.026148 155.317864 
L 68.523173 154.06452 
L 68.771686 153.646739 
L 68.895943 154.24556 
L 69.268712 153.883483 
L 69.517224 155.095047 
L 69.641481 156.250911 
L 69.765737 155.40142 
L 70.138506 155.484978 
L 70.262763 155.164678 
L 70.387019 155.457124 
L 70.511275 154.719046 
L 70.635532 155.415348 
L 71.132557 156.042019 
L 71.256814 155.638164 
L 71.38107 154.343041 
L 71.878096 155.220383 
L 72.126608 154.900083 
L 72.375121 153.688519 
L 72.74789 154.301264 
L 72.872147 154.050594 
L 73.120659 154.454451 
L 73.244916 154.370895 
L 73.617685 154.774751 
L 73.990454 156.181281 
L 74.11471 156.055946 
L 74.48748 156.390172 
L 74.611736 157.810627 
L 74.735992 157.922033 
L 74.860249 157.880257 
L 74.984505 158.409445 
L 75.481531 158.284112 
L 75.730043 157.532106 
L 75.8543 156.975064 
L 76.227069 157.072545 
L 76.475582 155.833129 
L 76.599838 155.944536 
L 76.724094 157.253585 
L 77.096863 156.821878 
L 77.22112 156.278762 
L 77.345376 157.142175 
L 77.593889 155.860981 
L 77.966658 155.791351 
L 78.339427 156.306613 
L 78.836453 155.345717 
L 78.960709 156.028092 
L 79.084965 155.847055 
L 79.209222 155.888832 
L 79.333478 155.359644 
L 79.706247 154.621562 
L 79.830504 154.719046 
L 79.95476 155.638164 
L 80.079016 155.164678 
L 80.203273 155.290013 
L 80.700298 154.1063 
L 81.073067 152.685844 
L 81.445837 152.825104 
L 81.570093 153.382146 
L 81.694349 152.978291 
L 81.818606 153.577109 
L 81.942862 152.95044 
L 82.315631 153.02007 
L 82.439888 152.88081 
L 82.564144 151.766727 
L 82.812657 151.627466 
L 83.309682 152.463029 
L 83.433939 151.014719 
L 83.682451 151.669242 
L 84.055221 151.390721 
L 84.303733 151.543907 
L 84.42799 151.947762 
L 84.552246 151.50213 
L 85.049272 150.777978 
L 85.297784 151.460351 
L 85.422041 150.777978 
L 85.79481 150.736198 
L 86.043323 150.429827 
L 86.167579 151.25146 
L 86.291835 151.167906 
L 86.664604 151.697096 
L 86.788861 150.986868 
L 86.913117 151.18183 
L 87.037374 150.764049 
L 87.534399 151.404647 
L 87.658655 151.18183 
L 88.031425 149.468929 
L 88.404194 149.413225 
L 88.52845 149.677819 
L 88.652706 149.496779 
L 88.901219 146.140604 
L 89.273988 146.335568 
L 89.646757 143.84281 
L 89.771014 143.647844 
L 90.143783 144.344146 
L 90.268039 143.355399 
L 90.516552 143.243989 
L 90.640808 142.241314 
L 91.013578 142.283091 
L 91.137834 142.714801 
L 91.26209 142.157759 
L 91.386347 142.352721 
L 91.510603 143.257914 
L 91.883372 143.369323 
L 92.007629 143.77318 
L 92.256141 142.659097 
L 92.380398 143.035098 
L 92.753167 142.561612 
L 92.877423 143.202209 
L 93.00168 141.767829 
L 93.250192 141.851385 
L 93.622961 143.132579 
L 93.747218 144.650519 
L 93.871474 144.483406 
L 93.995731 143.578214 
L 94.119987 143.995995 
L 94.492756 144.163108 
L 94.741269 143.243989 
L 94.989782 142.491981 
L 95.362551 143.062949 
L 95.486807 142.408427 
L 95.611064 143.188283 
L 95.73532 142.714801 
L 95.859576 143.70355 
L 96.232345 144.037772 
L 96.356602 145.332895 
L 96.480858 145.444302 
L 96.605115 145.792453 
L 97.350653 145.736751 
L 97.599166 146.47483 
L 97.971935 145.291115 
L 98.096191 145.583562 
L 98.220447 145.221485 
L 98.344704 145.653192 
L 98.46896 146.655869 
L 98.965986 145.736751 
L 99.090242 145.082225 
L 99.214498 145.24934 
L 99.338755 144.594813 
L 99.83578 144.218812 
L 99.960037 144.706223 
L 100.084293 142.36665 
L 100.208549 143.425029 
L 100.581319 142.742651 
L 100.829831 141.976719 
L 100.954088 142.11598 
L 101.078344 143.021172 
L 101.451113 142.951542 
L 101.699626 140.834785 
L 101.948139 140.375225 
L 102.320908 140.333448 
L 102.445164 139.776406 
L 102.569421 140.7373 
L 102.693677 137.200088 
L 102.817933 137.172234 
L 103.190702 138.077427 
L 103.314959 137.241864 
L 103.439215 137.241864 
L 103.563472 136.921567 
L 103.687728 137.144383 
L 104.184753 138.369876 
L 104.30901 139.483957 
L 104.433266 139.149735 
L 104.557523 138.397727 
L 104.930292 138.564838 
L 105.054548 140.263818 
L 105.303061 139.37255 
L 105.427317 140.653746 
L 105.800086 141.363972 
L 105.924343 141.127231 
L 106.297112 142.171684 
L 106.669881 142.380576 
L 106.794137 142.840132 
L 106.918394 143.828881 
L 107.04265 143.52251 
L 107.166907 142.798357 
L 107.539676 142.645171 
L 107.663932 143.146508 
L 107.788188 142.519836 
L 107.912445 141.001897 
L 108.036701 141.085451 
L 108.40947 142.979393 
L 108.657983 141.182936 
L 108.782239 142.00457 
L 108.906496 141.558938 
L 109.279265 141.517159 
L 109.403521 140.890487 
L 109.527778 140.876561 
L 109.77629 141.86531 
L 110.14906 141.795679 
L 110.273316 142.478057 
L 110.397572 142.519836 
L 110.521829 142.269166 
L 110.646085 141.210787 
L 111.143111 141.851385 
L 111.391623 140.7373 
L 112.012905 139.163659 
L 112.137162 137.840685 
L 112.261418 137.882465 
L 112.385674 137.339348 
L 113.131213 139.720701 
L 113.255469 139.664997 
L 113.628238 139.107955 
L 113.752494 137.979946 
L 113.876751 138.843359 
L 114.001007 138.467357 
L 114.125264 138.481283 
L 114.498033 140.152408 
L 114.746545 139.44218 
L 114.870802 139.414327 
L 114.995058 139.999223 
L 115.367827 141.182936 
L 115.61634 142.478057 
L 115.864853 142.50591 
L 116.361878 141.823533 
L 116.486135 142.561612 
L 116.610391 141.670348 
L 116.734648 143.035098 
L 117.107417 144.065625 
L 117.480186 142.533761 
L 117.604442 143.508584 
L 118.101468 143.787104 
L 118.34998 145.583562 
L 118.474237 145.082225 
L 118.847006 145.096151 
L 118.971262 143.759251 
L 119.344031 145.750676 
L 119.841057 144.901189 
L 120.08957 140.291668 
L 120.213826 139.637146 
L 120.710852 139.776406 
L 121.083621 138.690174 
L 121.45639 139.400401 
L 121.580646 140.305595 
L 121.704903 140.138483 
L 121.829159 140.403078 
L 121.953415 139.539662 
L 122.326184 139.692847 
L 122.450441 138.216687 
L 122.574697 139.038325 
L 122.82321 138.578767 
L 123.195979 138.160986 
L 123.320235 137.29757 
L 123.444492 138.773729 
L 123.568748 138.787655 
L 123.693005 139.623217 
L 124.065774 139.247215 
L 124.19003 141.015821 
L 124.314286 140.319519 
L 124.562799 144.427702 
L 124.935568 147.700323 
L 125.059825 143.230063 
L 125.184081 144.636593 
L 125.432594 142.714801 
L 125.805363 142.213461 
L 126.053876 143.104729 
L 126.302389 147.407873 
L 126.675158 147.129353 
L 126.799414 144.95689 
L 126.92367 144.775853 
L 127.047927 145.778527 
L 127.172183 144.204886 
L 127.669209 142.129906 
L 127.793465 142.241314 
L 127.917721 142.909763 
L 128.041978 144.274516 
L 128.539003 144.469482 
L 128.787516 142.742651 
L 128.911772 145.597491 
L 129.284542 144.260591 
L 129.408798 144.288442 
L 129.533054 143.257914 
L 129.781567 138.314172 
L 130.278593 139.651071 
L 130.527105 141.127231 
L 130.651362 140.556265 
L 131.024131 139.901738 
L 131.148387 139.943517 
L 131.521156 144.163108 
L 131.893925 146.084902 
L 132.266695 141.447528 
L 132.390951 141.962793 
L 132.887976 139.51181 
L 133.012233 139.623217 
L 133.136489 139.637146 
L 133.260746 138.314172 
L 133.633515 138.968695 
L 133.757771 138.063502 
L 134.13054 140.500559 
L 134.503309 140.152408 
L 134.751822 141.948869 
L 135.000335 138.926915 
L 135.373104 140.904416 
L 135.49736 142.213461 
L 135.745873 139.205436 
L 135.870129 139.678923 
L 136.242899 140.013148 
L 136.367155 139.386476 
L 136.615668 142.408427 
L 136.739924 141.001897 
L 137.112693 141.489308 
L 137.23695 141.433602 
L 137.485462 143.940291 
L 137.609719 143.717474 
L 137.982488 145.193634 
L 138.106744 144.789779 
L 138.231001 145.472155 
L 138.479513 145.917787 
L 138.852283 143.926365 
L 138.976539 145.193634 
L 139.225052 143.898511 
L 139.349308 144.009921 
L 139.846334 142.199536 
L 140.094846 142.018499 
L 140.219103 141.169008 
L 140.716128 142.283091 
L 140.964641 144.009921 
L 141.088897 142.895838 
L 141.461666 143.77318 
L 141.585923 142.57554 
L 141.710179 142.979393 
L 141.958692 142.283091 
L 142.455717 142.171684 
L 142.70423 142.951542 
L 142.828487 142.993319 
L 143.325512 141.586789 
L 143.449768 143.230063 
L 143.574025 142.464131 
L 143.698281 142.57554 
L 144.07105 142.742651 
L 144.319563 141.336121 
L 144.443819 141.252567 
L 144.568076 142.589466 
L 145.065101 142.714801 
L 145.189358 142.979393 
L 145.43787 140.765155 
L 145.934896 140.7373 
L 146.059152 140.751229 
L 146.183409 141.071527 
L 146.307665 140.876561 
L 146.804691 141.224712 
L 147.17746 139.344696 
L 147.550229 139.776406 
L 147.922998 138.912989 
L 148.047254 139.233289 
L 148.420024 139.05225 
L 148.54428 139.33077 
L 148.668536 138.843359 
L 148.917049 136.406305 
L 149.414075 136.294895 
L 149.538331 136.949418 
L 149.786844 134.59592 
L 150.283869 134.233843 
L 150.408126 135.459333 
L 150.532382 134.581991 
L 150.656638 134.749105 
L 151.029407 135.487183 
L 151.153664 136.336675 
L 151.526433 134.749105 
L 151.899202 134.846586 
L 152.147715 132.841239 
L 152.271971 133.941393 
L 152.396228 132.743755 
L 152.768997 132.604493 
L 152.893253 133.161536 
L 153.017509 133.119759 
L 153.141766 132.841239 
L 153.266022 133.579317 
L 153.638791 132.200641 
L 153.763048 132.493088 
L 154.01156 133.718578 
L 154.632842 134.219914 
L 154.881355 135.626444 
L 155.378381 134.679474 
L 155.502637 135.835334 
L 155.626893 135.431482 
L 155.75115 134.456659 
L 155.875406 134.930142 
L 156.248175 135.793559 
L 156.372432 134.985847 
L 156.496688 135.278293 
L 156.620944 128.663428 
L 156.745201 129.122983 
L 157.242226 130.501665 
L 157.366483 129.721804 
L 157.614995 127.813937 
L 157.987764 128.106386 
L 158.112021 128.482388 
L 158.236277 127.911418 
L 158.48479 130.306697 
L 159.106072 128.746981 
L 159.230328 127.841788 
L 159.354585 128.496311 
L 159.975867 129.721804 
L 160.224379 131.81071 
L 160.597148 130.209216 
L 160.721405 130.613068 
L 160.845661 129.972474 
L 160.969918 130.000325 
L 161.094174 129.039431 
L 161.591199 127.451857 
L 161.839712 130.654848 
L 161.963969 131.17011 
L 162.336738 130.696627 
L 162.460994 129.861065 
L 162.58525 128.217791 
L 162.709507 128.273498 
L 162.833763 128.064607 
L 163.330789 128.25957 
L 163.455045 129.2901 
L 163.579301 129.345803 
L 164.076327 126.059253 
L 164.200583 124.652727 
L 164.32484 125.418659 
L 164.449096 126.978374 
L 164.573352 125.62755 
L 164.946122 127.006225 
L 165.070378 126.045331 
L 165.194634 126.337774 
L 165.318891 128.440609 
L 165.443147 126.727704 
L 165.940173 127.855716 
L 166.188685 128.231718 
L 166.312942 128.955872 
L 166.685711 128.57987 
L 166.934224 130.738407 
L 167.05848 130.487736 
L 167.182736 129.596473 
L 167.555505 131.476488 
L 167.679762 130.821959 
L 167.804018 128.886242 
L 168.052531 122.77271 
L 168.4253 123.622202 
L 168.673813 125.084437 
L 168.798069 124.248873 
L 168.922326 122.257448 
L 169.295095 121.728257 
L 169.543608 124.109613 
L 169.667864 124.276724 
L 169.79212 123.260122 
L 170.164889 122.88412 
L 170.289146 121.714329 
L 170.661915 123.970353 
L 171.15894 122.06248 
L 171.283197 122.591671 
L 171.53171 119.959652 
L 171.904479 120.614174 
L 172.028735 121.380106 
L 172.152991 119.778612 
L 172.277248 120.043209 
L 172.401504 119.639351 
L 172.89853 119.862171 
L 173.022786 119.096237 
L 173.147042 120.405284 
L 173.271299 119.124088 
L 173.768324 119.277277 
L 173.892581 119.555798 
L 174.141093 116.65918 
L 174.762375 118.399935 
L 175.010888 115.642578 
L 175.383657 114.932353 
L 175.507914 115.656507 
L 175.63217 115.057686 
L 175.756426 115.489394 
L 175.880683 116.33888 
L 176.253452 116.561699 
L 176.501965 119.026607 
L 176.626221 116.826291 
L 176.750477 117.870744 
L 177.123246 118.065706 
L 177.371759 117.564373 
L 177.496016 116.311029 
L 177.620272 117.369404 
L 177.993041 118.497416 
L 178.117297 120.864844 
L 178.490067 118.594897 
L 178.862836 119.22157 
L 178.987092 118.051784 
L 179.111348 118.107486 
L 179.235605 114.444941 
L 179.359861 115.642578 
L 179.73263 115.391908 
L 180.1054 117.912524 
L 180.229656 116.283179 
L 180.850938 118.023934 
L 180.975194 116.687031 
L 181.099451 117.425113 
L 181.596476 116.311029 
L 181.844989 118.567046 
L 181.969245 118.76201 
L 182.342014 119.124088 
L 182.466271 118.748086 
L 182.590527 120.516693 
L 182.714783 120.447063 
L 182.83904 119.416538 
L 183.336065 118.023934 
L 183.460322 117.508665 
L 183.708834 116.979481 
L 184.081604 113.651152 
L 184.20586 113.999304 
L 184.330116 113.553671 
L 184.578629 111.673655 
L 185.075655 112.829518 
L 185.324167 112.829518 
L 185.821193 113.971452 
L 185.945449 112.829518 
L 186.069706 113.010558 
L 186.318218 115.099464 
L 186.815244 112.940928 
L 186.9395 113.734711 
L 187.063757 112.620627 
L 187.188013 113.720782 
L 187.560782 114.09679 
L 187.809295 115.266576 
L 187.933551 115.196946 
L 188.057808 115.865397 
L 188.430577 114.208195 
M 238.008871 112.272476 
L 238.505896 109.208746 
L 238.878666 110.336758 
L 239.251435 108.749193 
L 239.375691 108.958076 
L 239.872717 108.428885 
L 239.996973 108.999856 
L 240.121229 108.693484 
L 240.245486 109.208746 
L 240.618255 106.827398 
L 240.742511 107.036281 
L 241.11528 103.387666 
L 241.488049 104.028259 
L 241.612306 102.983807 
L 241.736562 103.262327 
L 241.860819 102.649584 
L 242.357844 104.153592 
L 242.4821 105.100565 
L 242.606357 104.48782 
L 242.730613 106.270356 
L 242.85487 106.214648 
L 243.351895 104.682783 
L 243.600408 105.685462 
L 244.22169 106.785618 
L 244.470203 108.387113 
L 244.967228 108.303554 
L 245.091484 107.189471 
L 245.837023 111.492615 
L 246.085535 107.398361 
L 246.334048 110.782392 
L 246.706817 110.058238 
L 246.831074 110.169642 
L 247.079586 108.679555 
L 247.576612 108.735264 
L 247.700868 107.983253 
L 248.073637 110.420312 
L 248.446407 110.531721 
L 248.570663 109.278376 
L 248.694919 113.05233 
L 248.819176 113.247299 
L 248.943432 112.801667 
L 249.316201 112.815596 
L 249.564714 114.807016 
L 249.68897 115.238726 
L 250.310252 113.400483 
L 250.434509 113.303001 
L 250.558765 113.70686 
L 250.683021 112.885219 
L 251.05579 112.356029 
L 251.42856 113.511891 
L 251.552816 112.787739 
L 252.049841 113.13589 
L 252.298354 115.405837 
L 252.422611 114.584202 
L 252.919636 115.015912 
L 253.043892 114.974127 
L 253.168149 114.793087 
L 253.292405 116.01858 
L 253.665174 116.185691 
L 253.789431 118.037856 
L 253.913687 117.230144 
L 254.037944 117.606145 
L 254.1622 116.937701 
L 254.659225 116.909844 
L 254.783482 116.074288 
L 254.907738 116.157847 
L 255.031995 116.51992 
L 255.404764 116.45029 
L 255.52902 117.2023 
L 255.901789 115.489389 
L 256.274558 115.51724 
L 256.523071 114.834872 
L 256.647327 114.291752 
L 257.144353 114.570273 
L 257.268609 115.350134 
L 257.392866 114.305681 
L 257.517122 115.127316 
L 257.641378 113.511891 
L 258.014148 113.985381 
L 258.26266 114.625976 
L 258.511173 113.539749 
L 258.883942 113.23337 
L 259.132455 111.896475 
L 259.256711 111.102692 
L 259.380968 111.771143 
L 259.753737 111.520473 
L 260.00225 111.102692 
L 260.250762 112.077515 
L 260.996301 110.643131 
L 261.120557 109.90505 
L 261.493326 110.197498 
L 261.866095 111.520473 
L 261.990352 111.924325 
L 262.363121 111.269803 
L 262.487377 110.378538 
L 262.611633 110.865944 
L 262.73589 107.398361 
L 262.860146 107.941481 
L 263.232915 107.955403 
L 263.357172 106.897028 
L 263.605684 108.038962 
L 263.729941 107.941481 
L 264.226966 108.804894 
L 264.599736 110.169642 
L 264.972505 109.710087 
L 265.345274 114.653832 
L 265.46953 112.550997 
L 265.842299 114.263902 
L 266.215068 111.840766 
L 266.339325 112.258548 
L 266.712094 112.161067 
L 266.960607 111.520473 
L 267.084863 112.606699 
L 267.209119 111.520473 
L 267.581889 111.896475 
L 267.706145 106.367837 
L 267.954658 108.832745 
L 268.57594 111.464765 
L 268.700196 109.320156 
L 268.948709 113.010558 
L 269.321478 114.960204 
L 269.445734 114.779165 
L 269.569991 115.266576 
L 269.694247 118.553119 
L 269.818503 118.455637 
L 270.191272 116.714882 
L 270.315529 114.403162 
L 270.439785 115.419759 
L 270.688298 114.041082 
L 271.185323 113.929674 
L 271.433836 113.442268 
L 271.558093 112.119294 
L 271.930862 111.840766 
L 272.179374 110.601352 
L 272.303631 111.060912 
L 272.427887 110.698833 
L 272.800656 110.18357 
L 272.924913 109.765795 
L 273.049169 109.946828 
L 273.173425 109.515125 
L 273.297682 109.529047 
L 273.670451 108.874519 
L 273.794707 108.108592 
L 274.167476 109.445495 
L 274.664502 109.47334 
L 275.037271 108.804894 
L 275.41004 108.818823 
L 275.534297 108.609925 
L 275.782809 109.097344 
L 276.404091 108.080734 
L 276.528348 108.261774 
L 276.652604 106.145018 
L 276.77686 107.565472 
L 277.14963 108.02504 
L 277.398142 106.674208 
L 277.522399 105.114492 
L 277.646655 105.657612 
L 278.019424 105.393013 
L 278.51645 105.796867 
L 278.889219 105.810795 
L 279.013475 105.546196 
L 279.137732 107.078068 
L 279.386244 106.952729 
L 279.759013 107.607252 
L 280.007526 108.735264 
L 280.131783 106.674208 
L 280.256039 107.760441 
L 280.753064 108.456743 
L 281.001577 111.395135 
L 281.125834 110.503871 
L 281.622859 110.476019 
L 281.747115 110.893801 
L 281.871372 105.643683 
L 281.995628 106.186797 
L 282.368397 107.16162 
L 282.61691 110.253201 
L 282.741166 110.086088 
L 282.865423 111.422992 
L 283.238192 110.434241 
L 283.362448 109.682236 
L 283.486705 110.434241 
L 283.735217 109.334085 
L 284.107987 109.570826 
L 284.232243 108.261781 
L 284.356499 108.442814 
L 284.480756 108.999856 
L 284.605012 106.590656 
L 285.102038 106.660287 
L 285.474807 104.432119 
L 285.847576 104.362489 
L 285.971832 103.902928 
L 286.096089 103.972558 
L 286.220345 103.707966 
L 286.344601 104.585301 
L 286.717371 103.930779 
L 286.841627 104.09789 
L 286.965883 104.028259 
L 287.214396 101.855801 
L 287.587165 100.54675 
L 287.711422 102.774916 
L 287.835678 102.120393 
L 288.084191 102.969885 
L 288.45696 102.273583 
L 288.581216 102.384992 
L 288.829729 104.627081 
L 288.953985 104.55745 
L 289.326754 103.596556 
L 289.451011 102.357135 
L 289.699524 105.128421 
L 290.196549 104.55745 
L 290.320805 104.905601 
L 290.569318 105.977906 
L 291.066344 106.103244 
L 291.314856 105.699386 
L 291.439113 105.838646 
L 291.563369 105.379085 
L 292.060395 105.922204 
L 292.308907 105.796867 
L 292.433164 107.537622 
L 292.805933 107.147698 
L 293.054446 106.200726 
L 293.302958 102.788845 
L 293.675728 102.942034 
L 293.799984 102.398914 
L 294.048497 104.09789 
L 294.172753 102.649584 
L 294.545522 102.914176 
L 294.794035 105.170195 
L 295.042548 103.318036 
L 295.539573 104.042188 
L 295.66383 103.331958 
L 295.788086 101.535501 
L 295.912342 102.496395 
L 296.285111 102.426765 
L 296.533624 102.858475 
L 296.657881 102.036841 
L 296.782137 102.064692 
L 297.279163 103.443367 
L 297.527675 100.894901 
L 297.651932 99.780823 
L 298.024701 98.109698 
L 298.148957 98.889552 
L 298.273214 98.87563 
L 298.521726 97.176648 
L 299.018752 101.103791 
L 299.267265 101.04809 
L 299.391521 101.646911 
L 299.76429 101.674762 
L 299.888546 100.950607 
L 300.012803 100.908828 
L 300.137059 100.713866 
L 300.261316 100.045415 
L 300.758341 98.987033 
L 300.882597 99.432672 
L 301.006854 99.446594 
L 301.503879 102.552103 
L 301.876648 99.098443 
L 302.373674 99.223781 
L 302.49793 98.917403 
L 302.622187 100.296085 
L 302.870699 98.37429 
L 303.367725 96.675313 
L 303.491981 96.884205 
L 303.740494 92.915283 
L 304.113263 145.444302 
L 304.23752 145.402524 
L 304.610289 145.917787 
L 304.983058 146.238086 
L 305.231571 145.193633 
L 305.480083 146.070972 
L 306.101365 145.458229 
L 306.225622 146.015269 
L 306.349878 145.472155 
L 306.722647 145.318967 
L 306.97116 146.22416 
L 307.095416 146.252012 
L 307.219673 145.876009 
L 307.592442 145.83423 
L 308.462236 150.51338 
L 308.586493 150.095599 
L 308.959262 147.282539 
L 309.332031 147.477502 
L 309.456287 148.354844 
L 309.7048 147.574984 
L 309.829057 148.354844 
L 310.326082 148.521955 
L 310.574595 148.814403 
L 310.698851 148.577661 
L 311.07162 149.371445 
L 311.195877 149.051146 
L 311.320133 147.992767 
L 311.568646 148.995442 
L 311.941415 149.134702 
L 312.065671 149.566408 
L 312.314184 149.566408 
L 312.43844 149.956339 
L 312.935466 151.697094 
L 313.183979 150.541232 
L 313.308235 149.677816 
L 313.681004 149.385371 
L 313.929517 149.468927 
L 314.053773 151.599611 
L 314.17803 151.390722 
L 314.675055 150.945086 
L 314.799312 151.808502 
L 314.923568 151.098274 
L 315.047824 151.042571 
L 315.420593 151.028645 
L 315.669106 151.516057 
L 315.917619 146.015269 
L 316.290388 146.001343 
L 316.414644 145.722821 
L 316.787414 146.377346 
L 317.160183 145.541784 
L 317.408695 144.427702 
L 317.532952 144.427702 
L 317.657208 144.28844 
L 318.27849 144.915111 
L 318.527003 145.97349 
L 318.899772 145.569636 
L 319.024028 145.611413 
L 319.148285 145.193633 
L 319.272541 145.165781 
L 319.396798 144.761927 
L 319.769567 145.068299 
L 320.018079 144.845482 
L 320.266592 144.706222 
L 320.639361 144.023846 
L 320.887874 144.887262 
L 321.01213 145.41645 
L 321.136387 144.358071 
L 321.509156 144.775853 
L 321.757669 145.764601 
L 321.881925 145.444302 
L 322.006181 146.279866 
L 322.378951 146.182381 
L 322.627463 145.444302 
L 322.875976 146.990094 
L 323.248745 146.809054 
L 323.373002 146.391274 
L 323.621514 146.711571 
L 324.11854 146.739425 
L 324.242796 146.36342 
L 324.491309 146.96224 
L 325.112591 148.85618 
L 325.236847 148.452326 
L 325.361104 149.455 
L 325.48536 149.371445 
L 325.982385 148.730849 
L 326.106642 149.84493 
L 326.230898 149.218257 
L 326.355155 150.053821 
L 327.100693 148.89796 
L 327.224949 148.424474 
L 327.597718 148.828331 
L 327.721975 148.118101 
L 327.846231 148.4384 
L 327.970487 153.020069 
L 328.094744 152.56051 
L 328.467513 151.892057 
L 328.591769 152.797249 
L 328.716026 152.504804 
L 328.840282 152.51873 
L 329.461564 154.579784 
L 329.58582 154.148077 
L 329.710077 154.482302 
L 329.834333 153.911334 
L 330.331359 153.270735 
L 330.704128 152.073098 
L 331.076897 151.474277 
L 331.201153 152.33769 
L 331.449666 151.557833 
L 331.573922 151.557833 
L 331.946692 152.087024 
L 332.070948 151.460351 
L 332.195204 152.198432 
L 332.319461 151.892057 
L 332.443717 151.237534 
L 332.816486 151.446425 
L 333.189255 152.240208 
L 333.313512 151.78065 
L 333.686281 151.418571 
L 333.810537 152.393396 
L 334.183306 152.128801 
L 334.556075 151.335017 
L 334.680332 151.627465 
L 334.804588 151.571759 
L 334.928845 151.348943 
L 335.674383 151.752796 
L 335.798639 152.003465 
L 335.922896 151.975616 
L 336.295665 151.766722 
L 336.419921 151.265388 
L 336.544177 149.817078 
L 336.668434 151.669242 
L 337.165459 151.724947 
L 337.662485 150.109527 
L 338.035254 149.984192 
L 338.15951 151.390722 
L 338.408023 150.847604 
L 338.532279 151.25146 
L 338.905049 151.50213 
L 339.029305 151.126126 
L 339.153561 150.039895 
L 339.402074 151.209682 
L 339.774843 151.446425 
L 340.023356 152.087024 
L 340.271869 152.059171 
L 340.768894 151.585685 
L 341.017407 152.393396 
L 341.141663 152.114873 
L 341.514433 152.087024 
L 341.638689 152.825103 
L 341.762945 152.240208 
L 341.887202 152.616212 
L 342.011458 152.295913 
L 342.384227 152.56051 
L 342.508484 151.738873 
L 342.63274 151.752796 
L 342.756996 151.641388 
L 342.881253 151.307163 
L 343.378278 151.167906 
L 343.502535 151.71102 
L 343.626791 151.460351 
L 343.751047 151.836354 
L 344.123816 151.822428 
L 344.248073 151.418571 
L 344.372329 151.488203 
L 344.496586 151.348943 
L 344.620842 151.71102 
L 345.117867 151.975616 
L 345.242124 151.864208 
L 345.490637 152.100947 
L 345.987662 150.833678 
L 346.111918 151.335017 
L 346.236175 150.624789 
L 346.360431 153.020069 
L 346.7332 153.591036 
L 347.230226 152.114873 
L 347.851508 152.045245 
L 347.975764 151.905984 
L 348.10002 150.959012 
L 348.47279 150.610861 
L 348.597046 150.234861 
L 348.721302 150.248784 
L 348.969815 148.549809 
L 349.466841 148.326992 
L 349.591097 147.644616 
L 349.83961 142.770502 
L 350.212379 142.505907 
L 350.336635 141.503233 
L 350.709404 141.837457 
L 351.082174 141.712123 
L 351.20643 142.35272 
L 351.579199 141.51716 
L 352.076225 141.907086 
L 352.324737 141.781752 
L 352.448994 142.213462 
L 352.821763 141.990645 
L 353.194532 142.728724 
L 353.318788 142.575539 
L 353.815814 142.519833 
L 354.064327 141.586789 
L 354.188583 141.628568 
L 354.561352 141.503233 
L 354.809865 140.444854 
L 354.934121 140.48663 
L 355.058378 140.277742 
L 355.679659 139.957445 
L 355.803916 139.692846 
L 355.928172 140.820858 
L 356.300941 139.985291 
L 356.549454 140.946192 
L 356.67371 140.695522 
L 356.797967 140.987969 
L 357.170736 141.26649 
L 357.294992 141.558935 
L 357.543505 140.277742 
L 357.667761 140.570188 
L 358.040531 141.127229 
L 358.164787 140.751225 
L 358.289043 140.876561 
L 358.537556 139.414324 
L 359.034582 139.887811 
L 359.158838 140.458777 
L 359.283094 140.48663 
L 359.407351 141.196858 
L 359.78012 140.737299 
L 359.904376 141.419678 
L 360.152889 141.350046 
L 360.277145 140.820858 
L 360.649915 140.932266 
L 360.774171 141.169009 
L 360.898427 139.943516 
L 361.022684 144.81763 
L 361.519709 144.539111 
L 362.016735 145.402524 
L 362.389504 145.527858 
L 362.886529 146.307715 
L 363.259298 145.903861 
L 363.383555 146.196307 
L 363.507811 145.83423 
L 363.632068 146.015269 
L 363.756324 145.346821 
L 364.129093 146.391274 
L 364.253349 145.55571 
L 364.377606 145.778527 
L 364.501862 145.026519 
L 364.626119 145.277188 
L 365.123144 144.761927 
L 365.2474 144.984742 
L 365.495913 144.915111 
L 365.992939 145.527858 
L 366.241451 147.087576 
L 366.365708 145.653192 
L 366.738477 145.750675 
L 366.862733 145.945641 
L 367.235502 143.494658 
L 367.608272 143.160433 
L 367.732528 143.703547 
L 367.856784 143.703547 
L 368.602323 144.483405 
L 368.850835 144.093475 
L 368.975092 143.745324 
L 369.472117 143.118653 
L 369.844886 143.884584 
L 369.844886 143.884584 
" style="fill:none;stroke:#1f77b4;stroke-linecap:square;stroke-width:1.5;"/>
   </g>
   <g id="line2d_16">
    <path clip-path="url(#p869e04bb93)" d="M 52.742614 159.48175 
L 52.991126 158.938636 
L 53.115383 159.453898 
L 53.239639 159.398195 
L 53.612408 159.760269 
L 53.736665 160.623685 
L 53.860921 160.28946 
L 54.109434 161.403542 
L 54.606459 160.95791 
L 54.730716 161.055391 
L 54.979228 162.308737 
L 55.351998 161.918807 
L 55.476254 162.656888 
L 55.60051 162.044141 
L 55.849023 163.798822 
L 56.346049 161.918807 
L 56.470305 161.723844 
L 56.594561 163.088594 
L 56.718818 162.642962 
L 57.091587 162.684738 
L 57.215843 162.865779 
L 57.3401 162.434069 
L 57.588612 161.069318 
L 58.209894 160.386942 
L 58.334151 162.016289 
L 58.458407 162.141623 
L 58.831176 162.099844 
L 58.955432 162.656888 
L 59.079689 162.183403 
L 59.328202 162.670812 
L 59.700971 161.76562 
L 59.825227 161.779546 
L 59.949483 162.071995 
L 60.07374 162.030215 
L 60.197996 161.319987 
L 60.570765 161.668138 
L 60.695022 160.790799 
L 60.819278 160.735093 
L 60.943534 161.292134 
L 61.067791 161.208579 
L 61.44056 161.333913 
L 61.689073 160.024865 
L 61.937585 161.208579 
L 62.310355 160.818648 
L 62.434611 160.317314 
L 62.558867 161.152873 
L 63.304406 160.679391 
L 63.552918 161.250358 
L 64.049944 160.88828 
L 64.1742 161.487101 
L 64.298457 161.333913 
L 64.422713 161.723844 
L 64.919739 161.13895 
L 65.168251 160.33124 
L 65.292508 160.1502 
L 65.416764 161.473175 
L 65.789533 161.584582 
L 65.91379 161.501024 
L 66.038046 162.113771 
L 66.162302 162.016289 
L 66.286559 162.336587 
L 66.659328 162.113771 
L 66.783584 162.768297 
L 66.907841 162.726517 
L 67.032097 162.044141 
L 67.156353 163.353189 
L 67.529122 163.589932 
L 67.777635 165.03824 
L 68.026148 165.790246 
L 68.398917 164.954684 
L 68.523173 165.1775 
L 68.64743 164.787571 
L 68.771686 164.829349 
L 68.895943 167.18285 
L 69.268712 167.141072 
L 69.392968 167.739891 
L 69.517224 167.461371 
L 69.641481 167.879152 
L 69.765737 167.503149 
L 70.138506 168.018412 
L 70.511275 166.430844 
L 70.635532 166.932181 
L 71.132557 167.712039 
L 71.256814 167.517075 
L 71.38107 167.544927 
L 71.505326 168.380489 
L 72.126608 170.037688 
L 72.375121 169.062865 
L 72.74789 169.411016 
L 72.872147 168.631158 
L 72.996403 168.840049 
L 73.244916 168.101969 
L 73.617685 168.505824 
L 73.741941 169.132495 
L 73.866198 168.951457 
L 73.990454 169.759167 
L 74.11471 169.800945 
L 74.48748 169.773093 
L 74.735992 171.012511 
L 74.860249 170.775768 
L 74.984505 170.956807 
L 75.481531 171.109993 
L 75.605787 170.427617 
L 75.730043 170.87325 
L 76.227069 170.552952 
L 76.475582 169.870576 
L 76.599838 170.302283 
L 76.724094 171.235327 
L 77.22112 170.302283 
L 77.345376 170.789694 
L 77.469633 170.552952 
L 77.593889 170.80362 
L 77.966658 170.539025 
L 78.090914 170.66436 
L 78.215171 171.123919 
L 78.339427 172.516523 
L 78.463684 172.432967 
L 78.836453 172.446893 
L 78.960709 172.781118 
L 79.209222 172.084816 
L 79.333478 171.931629 
L 79.706247 171.806295 
L 79.95476 172.864674 
L 80.079016 172.753266 
L 80.203273 172.154446 
L 80.576042 172.488671 
L 80.824555 172.251928 
L 81.073067 171.346736 
L 81.570093 171.694887 
L 81.694349 171.416366 
L 81.818606 171.583478 
L 81.942862 171.137845 
L 82.439888 172.238002 
L 82.564144 172.14052 
L 82.812657 171.444218 
L 83.309682 171.318884 
L 83.433939 170.859324 
L 83.682451 171.207475 
L 84.055221 170.413691 
L 84.179477 170.552952 
L 84.925015 170.316209 
L 85.173528 169.369238 
L 85.297784 169.048939 
L 85.422041 168.157673 
L 86.167579 168.965383 
L 86.291835 169.424942 
L 86.664604 169.578129 
L 86.788861 169.46672 
L 87.037374 170.330135 
L 87.16163 170.107318 
L 87.534399 170.176948 
L 87.782912 169.438868 
L 87.907168 169.689537 
L 88.031425 169.508499 
L 88.404194 169.411016 
L 88.776963 169.787019 
L 88.901219 168.798271 
L 89.771014 168.491898 
L 90.143783 168.464046 
L 90.392296 167.99056 
L 90.516552 167.962708 
L 90.640808 167.670261 
L 91.013578 167.600631 
L 91.137834 167.698113 
L 91.26209 167.489223 
L 91.386347 167.670261 
L 91.510603 166.765069 
L 91.883372 166.987885 
L 92.007629 167.531001 
L 92.256141 166.681512 
L 92.380398 166.082693 
L 92.753167 166.068767 
L 92.877423 166.5144 
L 93.00168 166.054841 
L 93.250192 166.291583 
L 93.622961 166.082693 
L 93.747218 166.277657 
L 93.995731 165.205352 
L 94.119987 164.634385 
L 94.492756 165.024314 
L 94.741269 164.188751 
L 94.865525 164.536902 
L 94.989782 164.411568 
L 95.362551 164.940757 
L 95.486807 164.912905 
L 95.611064 165.358539 
L 96.232345 165.302835 
L 96.480858 164.30016 
L 96.605115 164.453346 
L 97.226396 164.425494 
L 97.474909 164.355864 
L 97.599166 163.784896 
M 188.679089 167.517075 
L 188.803346 167.503149 
L 188.927602 166.918255 
L 189.300371 167.447445 
L 189.548884 168.227303 
L 189.797397 168.227303 
L 190.170166 168.241229 
L 190.294422 168.547602 
L 190.542935 168.171599 
L 190.667192 168.283007 
L 191.288473 168.338711 
L 191.41273 168.255155 
L 191.536986 167.948782 
L 191.909755 167.670261 
L 192.158268 168.074116 
L 192.282524 168.157673 
L 192.406781 168.004486 
L 192.77955 168.296933 
L 192.903806 167.907004 
L 193.152319 168.115895 
L 193.649345 167.809522 
L 193.897857 168.004486 
L 194.022114 167.503149 
L 194.14637 167.503149 
L 194.643396 167.739891 
L 194.891908 168.115895 
L 195.016165 167.795596 
L 195.388934 168.101969 
L 195.51319 168.004486 
L 195.761703 167.600631 
L 195.885959 167.531001 
L 196.258728 167.600631 
L 196.382985 167.405667 
L 197.625549 167.628483 
L 198.122574 167.865226 
L 198.24683 167.656335 
L 198.371087 167.934856 
L 198.495343 167.8513 
L 198.868112 167.948782 
L 199.116625 167.614557 
L 199.240881 167.363888 
L 199.98642 168.338711 
L 200.234932 167.879152 
L 200.607702 167.92093 
L 200.856214 167.363888 
L 200.980471 167.447445 
L 201.104727 167.001811 
L 201.477496 167.377814 
L 201.601753 167.18285 
L 201.974522 167.725965 
L 202.347291 167.698113 
L 202.72006 166.472622 
L 202.844316 166.556178 
L 203.217086 166.333361 
L 203.341342 166.054841 
L 203.465598 166.221953 
L 203.714111 165.91558 
L 204.08688 165.971284 
L 204.211137 166.221953 
L 204.335393 165.873802 
L 204.459649 165.859876 
L 204.583906 164.982536 
L 204.956675 165.400317 
L 205.205188 164.759719 
L 205.329444 164.857201 
L 205.4537 164.522976 
L 205.826469 164.564754 
L 205.950726 164.453346 
L 206.074982 165.1775 
L 206.199239 164.857201 
L 206.323495 164.982536 
L 206.82052 164.996462 
L 206.944777 165.121796 
L 207.069033 164.857201 
L 207.19329 165.080018 
L 207.690315 165.080018 
L 207.814571 165.511725 
L 208.063084 165.10787 
L 208.435853 165.121796 
L 208.684366 165.664912 
L 208.808622 165.219278 
L 208.932879 165.24713 
L 209.305648 165.052166 
L 209.429904 165.1775 
L 209.554161 164.564754 
L 209.678417 165.121796 
L 209.802673 165.149648 
L 210.175443 165.567429 
L 210.299699 165.428169 
L 210.672468 165.678838 
L 212.039288 165.400317 
L 212.412057 164.843275 
L 212.784827 164.885053 
L 212.909083 164.773645 
L 213.157596 164.96861 
L 213.281852 165.400317 
L 214.524416 165.497799 
L 214.772929 165.121796 
L 215.021441 164.676163 
L 215.39421 164.57868 
L 215.642723 164.898979 
L 215.76698 164.759719 
L 215.891236 165.052166 
L 216.264005 165.219278 
L 216.388261 165.149648 
L 216.636774 164.160899 
L 216.761031 164.077343 
L 217.382312 164.50905 
L 217.630825 164.397642 
L 218.003594 164.355864 
L 218.127851 164.620459 
L 218.997645 164.676163 
L 219.246158 164.425494 
L 219.370414 164.50905 
L 219.743184 164.160899 
L 219.991696 163.353189 
L 220.115953 163.367115 
L 220.240209 163.227855 
L 220.737235 163.144298 
L 220.861491 162.949334 
L 221.482773 163.450671 
L 221.731286 163.339263 
L 222.352568 163.56208 
L 222.60108 163.589932 
L 222.725337 163.812748 
L 222.849593 163.520301 
L 223.222362 163.520301 
L 223.470875 164.035565 
L 223.595131 163.798822 
L 223.719388 163.979861 
L 224.092157 163.659562 
L 224.216413 163.77097 
L 224.589182 163.213929 
L 224.961951 163.158224 
L 225.086208 163.269633 
L 225.334721 163.798822 
L 225.458977 164.007713 
L 226.204515 164.077343 
L 226.328772 163.979861 
L 226.825797 164.620459 
L 226.950053 164.481198 
L 227.07431 164.96861 
L 227.198566 163.56208 
L 227.695592 163.339263 
L 227.944104 162.642962 
L 228.068361 162.712591 
L 228.44113 163.255707 
L 228.689643 164.049491 
L 228.813899 163.882378 
L 228.938155 164.091269 
L 229.559437 163.367115 
L 229.80795 163.506375 
L 230.304976 163.311411 
L 230.429232 163.005038 
L 230.677745 163.687414 
L 231.050514 164.049491 
L 231.17477 163.56208 
L 231.547539 164.314086 
L 232.044565 164.188751 
L 232.417334 163.381041 
L 232.91436 163.200003 
L 233.162872 163.408893 
L 233.784154 162.921482 
L 234.032667 163.144298 
L 234.156923 163.408893 
L 234.529692 163.116446 
L 234.778205 162.447995 
L 234.902462 163.297485 
L 235.026718 163.325337 
L 235.399487 163.8406 
L 235.648 162.935408 
L 235.772256 162.865779 
L 235.896513 162.96326 
L 236.517794 162.907554 
L 236.642051 162.991112 
L 236.766307 163.56208 
L 237.139076 163.70134 
L 237.263333 163.492449 
L 237.387589 163.70134 
L 237.511845 163.339263 
L 237.636102 163.367115 
L 238.008871 163.659562 
L 238.133127 163.534227 
L 238.257384 163.729192 
L 238.505896 163.130372 
L 238.878666 163.060742 
L 239.127178 161.793472 
L 239.375691 160.28946 
L 239.872717 160.303386 
L 239.996973 159.969163 
L 240.121229 159.077893 
L 240.245486 159.272861 
L 240.618255 158.896856 
L 241.11528 159.634938 
L 241.488049 159.760269 
L 241.736562 159.272861 
L 241.985075 159.662787 
L 242.357844 160.038791 
L 242.606357 159.718493 
L 242.730613 160.526203 
L 242.85487 160.414795 
L 243.227639 160.414795 
L 243.476152 159.384269 
L 243.724664 159.412118 
L 244.22169 159.537453 
L 244.470203 160.456571 
L 244.594459 160.303386 
L 244.967228 160.28946 
L 245.091484 159.258933 
L 245.215741 159.426044 
L 245.339997 159.147525 
L 245.464254 159.955235 
L 245.837023 159.87168 
L 245.961279 158.966485 
L 246.085535 158.994339 
L 246.334048 159.997012 
L 247.700868 158.952559 
L 247.949381 158.409445 
L 248.073637 159.147525 
L 248.570663 159.203228 
L 248.694919 159.509603 
L 248.819176 159.370342 
L 248.943432 159.565306 
L 249.316201 159.286787 
L 249.440458 159.815975 
L 249.564714 159.788123 
L 249.68897 159.467824 
L 249.813227 160.094497 
L 250.185996 159.356416 
L 250.434509 160.024865 
L 250.683021 160.219831 
L 251.05579 159.412118 
L 251.180047 159.829901 
L 251.304303 159.829901 
L 252.049841 159.022191 
L 252.174098 158.799374 
L 252.422611 158.771522 
L 253.168149 158.827227 
L 253.292405 158.729742 
L 253.665174 158.701893 
L 253.789431 158.562631 
L 254.037944 158.047368 
L 254.1622 158.019514 
L 254.534969 158.103072 
L 254.659225 157.922032 
L 254.783482 157.949886 
L 255.031995 158.869004 
L 255.404764 159.175378 
L 255.52902 159.579232 
L 255.653276 159.314636 
L 255.777533 159.662787 
L 255.901789 159.634938 
L 256.274558 159.412118 
L 256.398815 159.119673 
L 256.523071 159.217155 
L 256.647327 158.980412 
L 257.144353 159.189302 
L 257.268609 159.398195 
L 257.392866 158.618334 
L 257.517122 158.757596 
L 257.641378 158.701893 
L 258.26266 158.28411 
L 258.386917 158.353742 
L 258.511173 159.551379 
L 258.883942 159.398195 
L 259.008199 159.509603 
L 259.132455 160.052718 
L 259.256711 160.010938 
L 259.380968 160.456571 
L 259.753737 160.554056 
L 259.877993 160.470497 
L 260.00225 160.052718 
L 260.126506 160.860428 
L 260.250762 160.595832 
L 260.872044 160.665465 
L 260.996301 160.916133 
L 261.120557 158.771522 
L 261.617582 158.910782 
L 261.741839 158.757596 
L 261.866095 159.050044 
L 261.990352 158.715816 
L 262.487377 158.256257 
L 262.860146 158.660114 
L 263.232915 158.618334 
L 263.357172 158.144849 
L 263.481428 158.451223 
L 263.729941 158.144849 
L 264.226966 158.07522 
L 264.475479 157.337138 
L 264.599736 157.420697 
L 264.972505 157.671363 
L 265.096761 158.019514 
L 265.221017 157.922032 
L 265.46953 158.604408 
L 265.842299 158.966485 
L 265.966556 158.576559 
L 266.090812 158.562631 
L 266.215068 158.158775 
L 266.339325 158.660114 
L 266.83635 159.036118 
L 266.960607 158.88293 
L 267.084863 159.453898 
L 267.209119 159.398195 
L 267.706145 159.537453 
L 267.954658 159.89953 
L 268.078914 159.843827 
L 268.451683 159.997012 
L 268.57594 160.261608 
L 268.700196 159.802049 
L 268.824452 160.28946 
L 268.948709 161.76562 
L 269.321478 161.849175 
L 269.569991 160.943983 
L 270.191272 160.762946 
L 270.315529 159.718493 
L 270.439785 160.317314 
L 270.688298 159.495676 
L 271.061067 159.48175 
L 271.185323 158.869004 
L 271.433836 159.203228 
L 271.558093 158.019514 
L 271.930862 157.559955 
L 272.055118 157.197881 
L 272.179374 157.197881 
L 272.303631 157.072546 
L 272.427887 157.671363 
L 272.800656 157.351066 
L 273.049169 157.866329 
L 273.173425 158.005591 
L 273.297682 157.671363 
L 273.670451 157.796698 
L 273.794707 157.142175 
L 273.918964 157.364992 
L 274.167476 156.752245 
L 274.664502 156.585134 
L 274.788758 156.097722 
L 275.037271 156.028093 
L 275.41004 156.571208 
L 275.534297 156.529428 
L 275.658553 155.791351 
L 275.782809 156.055943 
L 275.907066 155.888832 
L 276.404091 156.362317 
L 276.528348 157.002915 
L 276.652604 157.016841 
L 276.77686 157.894183 
L 277.14963 157.977738 
L 277.273886 158.28411 
L 277.522399 157.072546 
L 277.646655 156.794024 
L 278.019424 156.292685 
L 278.267937 156.585134 
L 278.889219 156.599061 
L 279.137732 157.309289 
L 279.386244 157.197881 
L 279.759013 157.671363 
L 279.88327 158.506926 
L 280.007526 158.576559 
L 280.256039 157.462473 
L 280.753064 157.852403 
L 280.877321 157.740995 
L 281.001577 157.935959 
L 281.125834 157.434623 
L 281.622859 157.351066 
L 281.995628 156.39017 
L 282.368397 156.515502 
L 282.61691 158.339816 
L 282.741166 157.685289 
L 282.865423 158.493 
L 283.238192 157.908106 
L 283.486705 157.156101 
L 283.610961 156.696542 
L 283.735217 156.821876 
L 284.107987 156.84973 
L 284.232243 156.055943 
L 284.356499 156.25091 
L 284.480756 154.17593 
L 285.102038 154.064522 
L 285.226294 154.426596 
L 285.35055 154.343041 
L 285.474807 154.120225 
L 285.847576 154.370893 
L 285.971832 154.162004 
L 286.096089 154.398747 
L 286.220345 154.315188 
L 286.344601 154.510155 
L 286.717371 153.758148 
L 286.841627 154.343041 
L 287.09014 153.396069 
L 287.214396 153.827779 
L 287.587165 153.74422 
L 287.711422 153.201106 
L 288.084191 153.618886 
L 288.45696 153.242885 
L 288.581216 152.852955 
L 288.705473 153.382143 
L 288.953985 152.546583 
L 289.451011 154.036668 
L 289.575267 155.930608 
L 289.699524 156.028093 
L 289.82378 155.457126 
L 290.196549 155.331791 
L 290.320805 156.083796 
L 290.569318 155.902759 
L 291.314856 154.565858 
L 291.563369 153.535331 
L 291.936138 153.827779 
L 292.060395 154.092371 
L 292.184651 153.716371 
L 292.308907 153.911334 
L 292.433164 154.315188 
L 292.930189 154.510155 
L 293.054446 154.162004 
L 293.302958 154.55193 
L 293.799984 154.162004 
L 293.92424 154.398747 
L 294.048497 154.315188 
L 294.172753 153.549257 
L 294.545522 153.74422 
L 294.669779 154.55193 
L 294.794035 154.45445 
L 294.918291 153.911334 
L 295.042548 156.223057 
L 295.415317 156.501579 
L 295.912342 155.568534 
L 296.285111 155.610311 
L 296.409368 155.930608 
L 296.533624 155.930608 
L 296.782137 156.181277 
L 297.279163 156.362317 
L 297.527675 154.398747 
L 297.651932 154.412673 
L 298.024701 154.064522 
L 298.273214 155.01149 
L 298.521726 154.231633 
L 298.894495 154.941861 
L 299.018752 154.788673 
L 299.143008 155.331791 
L 299.267265 155.01149 
L 299.391521 155.833126 
L 299.76429 155.888832 
L 300.137059 154.677265 
L 300.261316 154.774747 
L 300.634085 154.900081 
L 300.882597 155.972388 
L 301.006854 155.749571 
L 301.13111 156.348391 
L 301.628136 157.22573 
L 301.876648 156.794024 
L 302.373674 157.142175 
L 302.622187 157.866329 
L 302.746443 158.200554 
L 302.870699 157.727069 
L 303.367725 157.532106 
L 303.491981 157.727069 
L 303.616238 157.114322 
L 304.113263 157.796698 
L 304.23752 157.671363 
L 304.361776 158.200554 
L 304.486032 157.866329 
L 304.610289 158.186628 
L 304.983058 158.339816 
L 305.231571 157.420697 
L 305.355827 157.351066 
L 305.480083 157.448547 
L 306.101365 156.571208 
L 306.225622 156.752245 
L 306.349878 153.228958 
L 306.722647 152.114873 
L 306.846903 152.281987 
L 306.97116 152.198432 
L 307.095416 152.476952 
L 307.219673 152.449098 
L 307.592442 152.657992 
L 307.840955 153.215032 
L 308.089467 155.331791 
L 308.586493 156.988987 
L 308.835006 153.716371 
L 308.959262 153.577109 
L 309.332031 153.92526 
L 309.456287 155.206457 
L 309.580544 154.301264 
L 309.7048 154.217707 
L 309.829057 154.941861 
L 310.326082 153.646739 
L 310.450338 154.273411 
L 310.698851 153.688517 
L 311.07162 153.632812 
L 311.444389 152.7694 
L 311.568646 152.797249 
L 311.941415 152.463024 
L 312.065671 153.354294 
L 312.189928 153.201106 
L 312.43844 152.351616 
L 312.81121 152.783326 
L 312.935466 152.212359 
L 313.059722 150.903309 
L 313.183979 151.571759 
L 313.308235 150.69442 
L 314.053773 148.786551 
L 314.17803 148.925812 
L 314.675055 148.466252 
L 314.799312 147.129351 
L 314.923568 147.03187 
L 315.047824 146.433049 
L 315.54485 146.558385 
L 315.669106 147.059722 
L 315.917619 145.41645 
L 316.414644 145.625339 
L 316.538901 145.305041 
L 316.663157 146.683719 
L 316.787414 145.722821 
L 317.160183 145.263262 
L 317.284439 145.541784 
L 317.532952 146.641943 
L 317.657208 141.294343 
L 318.029977 141.489307 
L 318.27849 142.74265 
L 318.402747 142.895837 
L 318.527003 143.7314 
L 318.899772 142.895837 
L 319.024028 142.895837 
L 319.272541 141.89316 
L 319.396798 141.51716 
L 319.769567 142.171682 
L 319.893823 141.823531 
L 320.018079 141.879237 
L 320.639361 141.057601 
L 320.763618 139.623217 
L 321.01213 140.06885 
L 321.136387 138.230613 
L 321.509156 139.121878 
L 321.633412 138.495207 
L 321.757669 139.678923 
L 321.881925 139.302918 
L 322.006181 139.985291 
L 322.378951 139.873886 
L 322.627463 139.038326 
L 322.875976 140.472707 
L 323.373002 139.372548 
L 323.621514 139.038326 
L 324.11854 139.080103 
L 324.242796 138.328095 
L 324.491309 139.330772 
L 324.988334 140.152408 
L 325.112591 139.428254 
L 325.48536 143.968143 
L 325.858129 143.898511 
L 325.982385 143.202209 
L 326.355155 147.477502 
L 326.85218 147.171131 
L 326.976436 146.96224 
L 327.100693 146.516608 
L 327.224949 145.611413 
L 327.597718 145.653192 
L 327.721975 145.263262 
L 327.970487 146.168457 
L 328.094744 144.441626 
L 328.467513 144.427702 
L 328.591769 146.154531 
L 328.840282 145.945641 
L 328.964539 148.424474 
L 329.337308 150.109527 
L 329.461564 149.733522 
L 329.710077 149.998118 
L 329.834333 149.399297 
L 330.331359 147.644616 
L 330.455615 146.711571 
L 330.704128 142.840131 
L 331.201153 141.224712 
L 331.449666 140.820858 
L 331.573922 141.113303 
L 331.946692 141.558935 
L 332.195204 139.358624 
L 332.443717 139.901739 
L 332.816486 140.194185 
L 332.940743 141.015821 
L 333.189255 141.113303 
L 333.313512 140.361296 
L 333.686281 140.24989 
L 333.810537 140.472707 
L 333.934794 139.135809 
L 334.05905 139.525735 
L 334.183306 138.147056 
L 334.556075 138.007797 
L 334.680332 138.091356 
L 334.804588 137.283642 
L 334.928845 137.214012 
L 335.42587 136.726598 
L 335.674383 135.431482 
L 335.798639 135.612516 
L 335.922896 134.888361 
L 336.419921 135.445405 
L 336.544177 135.375776 
L 336.668434 135.891039 
L 336.79269 135.57074 
L 337.165459 135.264365 
L 337.289716 135.320071 
L 337.538228 133.927467 
L 337.662485 133.52361 
L 338.035254 133.746427 
L 338.15951 134.665546 
L 338.283767 134.470581 
L 338.408023 134.526287 
L 338.532279 134.721251 
L 339.029305 134.428804 
L 339.153561 133.272942 
L 339.402074 135.75178 
L 339.774843 135.097254 
L 340.023356 136.824086 
L 340.147612 136.531635 
L 340.271869 136.030296 
L 340.644638 136.09993 
L 340.893151 135.013697 
L 341.017407 135.696074 
L 341.141663 128.162086 
L 341.887202 124.583096 
L 342.011458 123.49686 
L 342.384227 123.399378 
L 342.508484 122.06248 
L 342.63274 122.327079 
L 342.881253 121.310472 
L 343.626791 119.583647 
L 343.751047 120.502765 
L 344.123816 120.836987 
L 344.248073 120.711652 
L 344.372329 120.920546 
L 344.496586 119.24942 
L 344.620842 120.892692 
L 345.36638 119.01268 
L 345.490637 120.168538 
L 345.863406 118.998751 
L 346.111918 119.458312 
L 346.236175 117.703628 
L 346.360431 121.547218 
L 346.7332 122.229591 
L 347.105969 119.764687 
L 347.230226 120.252096 
L 347.851508 118.873415 
L 348.10002 114.417088 
L 348.47279 112.787739 
L 348.597046 111.701509 
L 348.721302 111.729361 
L 348.845559 110.977353 
L 348.969815 111.840766 
L 349.342584 111.464763 
L 349.591097 109.724008 
L 349.715353 111.116612 
L 349.83961 109.097341 
L 350.212379 107.690808 
L 350.336635 106.367833 
L 350.460892 107.161617 
L 350.585148 106.994506 
L 350.709404 105.713313 
L 351.082174 106.228574 
L 351.20643 107.189469 
L 351.330686 106.980581 
L 351.579199 104.181445 
L 352.076225 103.220551 
L 352.200481 103.749741 
L 352.324737 102.092539 
L 352.448994 97.441241 
L 352.821763 97.524799 
L 352.946019 98.053991 
L 353.070276 100.073261 
L 353.318788 98.527477 
L 353.691557 98.165397 
L 353.815814 97.622281 
L 354.064327 99.544076 
L 354.188583 98.847774 
L 354.561352 98.903474 
L 354.809865 99.808669 
L 354.934121 97.288053 
L 355.058378 98.151472 
L 355.555403 97.329836 
L 355.679659 98.624957 
L 355.803916 97.998286 
L 355.928172 102.343209 
L 356.300941 100.630306 
L 356.425198 101.855799 
L 356.549454 101.117714 
L 356.67371 97.928655 
L 356.797967 97.719763 
L 357.170736 96.563905 
L 357.294992 97.371612 
L 357.419249 94.906702 
L 357.543505 94.683891 
L 357.667761 94.781373 
L 358.040531 95.630863 
L 358.289043 92.232905 
L 358.537556 89.809777 
L 358.910325 89.907259 
L 359.158838 90.213624 
L 359.407351 92.135424 
L 359.78012 91.787273 
L 359.904376 93.138101 
L 360.028633 92.720315 
L 360.152889 94.22433 
L 360.277145 93.333064 
L 360.649915 93.862249 
L 360.774171 92.469645 
L 360.898427 92.66461 
L 361.022684 90.909926 
L 361.14694 91.174523 
L 361.768222 84.740689 
L 361.892478 86.801748 
L 362.016735 86.968864 
L 362.389504 86.133293 
L 362.638017 89.475545 
L 362.886529 91.132747 
L 363.259298 85.980116 
L 363.383555 86.133293 
L 363.632068 90.85423 
L 363.756324 62.723624 
L 364.129093 68.753602 
L 364.253349 65.202458 
L 364.501862 56.568317 
L 364.626119 55.217489 
L 364.998888 55.746675 
L 365.2474 54.368 
L 365.495913 54.103401 
L 365.868682 54.173036 
L 366.117195 56.832915 
L 366.241451 63.183186 
L 366.365708 62.05518 
L 366.98699 52.836137 
L 367.235502 57.3621 
L 367.608272 60.467613 
L 367.732528 58.267296 
L 367.981041 47.76706 
L 368.105297 45.399626 
L 368.478066 43.700659 
L 368.726579 37.851716 
L 368.850835 36.069184 
L 368.975092 32.350934 
L 369.472117 21.850699 
L 369.596374 33.089013 
L 369.72063 30.053136 
L 369.844886 36.584452 
L 369.844886 36.584452 
" style="fill:none;stroke:#ff7f0e;stroke-linecap:square;stroke-width:1.5;"/>
   </g>
   <g id="line2d_17">
    <path clip-path="url(#p869e04bb93)" d="M 52.742614 161.417469 
L 52.86687 161.236431 
L 52.991126 161.319987 
L 53.115383 161.97451 
L 53.736665 162.002363 
L 53.985177 161.389616 
L 54.109434 161.807399 
L 54.606459 161.904881 
L 54.979228 163.116446 
L 55.351998 163.144298 
L 55.60051 162.977186 
L 55.849023 164.328012 
L 56.221792 164.272308 
L 56.346049 164.105195 
L 56.470305 163.70134 
L 56.594561 164.328012 
L 56.718818 164.077343 
L 57.091587 164.355864 
L 57.215843 164.244455 
L 57.3401 164.620459 
L 57.464356 164.035565 
L 57.588612 164.105195 
L 58.458407 163.534227 
L 58.955432 163.812748 
L 59.079689 163.520301 
L 59.203945 164.007713 
L 59.328202 163.910231 
L 59.700971 163.241781 
L 59.825227 163.325337 
L 59.949483 163.548154 
L 60.197996 162.865779 
L 60.819278 161.849175 
L 61.067791 162.503701 
L 61.44056 162.308737 
L 61.564816 162.447995 
L 61.813329 162.169477 
L 61.937585 162.336587 
L 62.310355 162.475848 
L 62.434611 162.907554 
L 62.558867 162.823999 
L 62.80738 162.197326 
L 63.428662 162.211252 
L 63.552918 162.545477 
L 64.049944 162.239106 
L 64.1742 161.668138 
L 64.298457 161.737767 
L 64.546969 160.832576 
L 64.919739 160.665465 
L 65.292508 158.813301 
L 65.416764 159.927383 
L 65.91379 159.634938 
L 66.038046 160.930057 
L 66.162302 160.554056 
L 66.659328 161.013616 
L 66.907841 161.904881 
L 67.032097 161.598509 
L 67.156353 162.211252 
L 67.529122 161.626359 
L 67.653379 162.503701 
L 67.777635 162.266958 
L 68.026148 163.938083 
L 68.523173 162.378366 
L 68.64743 162.294811 
L 68.771686 162.754371 
L 68.895943 162.40622 
L 69.268712 162.573331 
L 69.517224 163.241781 
L 69.641481 164.202677 
L 69.765737 163.673488 
L 70.138506 163.589932 
L 70.262763 163.910231 
L 70.511275 163.381041 
L 70.635532 163.868452 
L 71.132557 164.314086 
L 71.38107 163.743118 
L 71.505326 164.341938 
L 71.878096 164.425494 
L 72.126608 164.773645 
L 72.375121 163.938083 
L 72.74789 164.105195 
L 72.872147 163.436745 
L 72.996403 163.659562 
L 73.120659 163.506375 
L 73.244916 163.589932 
L 73.741941 164.216603 
L 73.866198 164.021639 
L 73.990454 164.57868 
L 74.48748 164.717941 
L 74.735992 165.957358 
L 74.860249 165.609207 
L 74.984505 165.637059 
L 75.481531 165.553503 
L 75.8543 164.495124 
L 76.227069 164.425494 
L 76.351325 163.617784 
L 76.599838 163.826674 
L 76.724094 164.481198 
L 77.22112 164.063417 
L 77.345376 165.859876 
L 77.469633 165.901654 
L 77.593889 165.748468 
L 77.966658 165.525651 
L 78.215171 165.91558 
L 78.339427 166.068767 
L 78.463684 165.901654 
L 78.836453 165.734542 
L 78.960709 165.818098 
L 79.084965 165.483873 
L 79.209222 165.511725 
L 79.333478 165.261056 
L 79.830504 165.24713 
L 79.95476 165.91558 
L 80.576042 166.026989 
L 80.824555 165.748468 
L 81.073067 166.026989 
L 81.445837 166.221953 
L 81.694349 166.765069 
L 81.818606 166.834699 
L 81.942862 166.528326 
L 82.439888 166.973959 
L 82.6884 166.416918 
L 82.812657 166.263731 
L 83.309682 166.389066 
L 83.433939 166.082693 
L 83.558195 166.221953 
L 84.055221 166.110545 
L 84.179477 166.249805 
L 84.303733 165.358539 
L 84.42799 165.469947 
L 84.552246 165.887728 
L 84.925015 165.929506 
L 85.049272 165.483873 
L 85.173528 165.678838 
L 85.297784 165.497799 
L 85.422041 165.03824 
L 85.79481 165.344613 
L 85.919066 165.191426 
L 86.043323 165.261056 
L 86.167579 165.497799 
L 86.291835 165.358539 
L 86.664604 165.344613 
L 86.788861 164.885053 
L 86.913117 165.010388 
L 87.037374 165.414243 
L 87.16163 165.052166 
L 87.658655 165.135722 
L 88.031425 162.601183 
L 88.404194 163.046816 
L 88.52845 163.659562 
L 88.901219 162.517628 
L 89.522501 162.36444 
L 89.646757 162.392292 
L 89.771014 162.266958 
L 90.143783 162.740443 
L 91.013578 162.336587 
L 91.137834 161.598509 
L 91.26209 161.640285 
L 91.510603 162.183403 
L 91.883372 162.113771 
L 92.131885 162.740443 
L 92.256141 161.570656 
L 92.380398 162.15555 
L 92.753167 162.169477 
L 92.877423 162.684738 
L 93.00168 162.378366 
L 93.250192 162.642962 
L 93.622961 162.420146 
L 93.747218 163.200003 
L 93.995731 162.489774 
L 94.492756 162.489774 
L 94.741269 161.528878 
L 94.865525 161.626359 
L 94.989782 161.542804 
L 95.859576 162.420146 
L 96.232345 162.559403 
L 96.480858 162.071995 
L 96.605115 161.94666 
L 97.226396 162.350514 
L 97.474909 161.890955 
L 97.599166 162.071995 
L 97.971935 161.904881 
L 98.096191 162.127697 
L 98.344704 161.473175 
L 98.46896 161.69599 
L 98.965986 162.141623 
L 99.338755 161.821326 
L 99.83578 162.253032 
L 100.208549 162.991112 
L 100.581319 162.823999 
L 100.705575 162.921482 
L 100.829831 163.548154 
L 100.954088 162.670812 
L 101.078344 163.186076 
L 101.451113 162.78222 
L 101.823882 161.988436 
L 101.948139 161.849175 
L 102.320908 161.835252 
L 102.569421 162.350514 
L 102.817933 161.76562 
L 103.190702 161.709918 
L 103.563472 160.484425 
L 103.687728 160.637611 
L 104.433266 162.434069 
L 104.557523 162.253032 
L 104.930292 162.392292 
L 105.054548 162.810073 
L 105.303061 161.751693 
L 105.427317 161.445322 
L 105.800086 161.97451 
L 105.924343 161.640285 
L 106.048599 160.651537 
L 106.172856 161.473175 
L 106.297112 160.971836 
L 106.669881 161.125024 
L 106.918394 163.074668 
L 107.04265 163.144298 
L 107.166907 162.907554 
L 107.663932 162.447995 
L 107.788188 162.768297 
L 108.036701 161.612435 
L 108.40947 162.141623 
L 108.533727 161.904881 
L 108.782239 162.002363 
L 108.906496 161.779546 
L 109.279265 161.737767 
L 109.403521 161.403542 
L 109.652034 161.55673 
L 109.77629 161.877029 
L 110.14906 162.127697 
L 110.273316 162.447995 
L 110.521829 161.988436 
L 111.018854 162.461922 
L 111.143111 162.78222 
L 111.267367 161.737767 
L 111.391623 161.76562 
L 111.888649 161.403542 
L 112.012905 161.166799 
L 112.137162 161.194653 
L 112.385674 160.581906 
M 154.508586 163.70134 
L 154.632842 164.091269 
L 154.757099 163.965935 
L 154.881355 164.244455 
L 155.378381 164.202677 
L 155.626893 164.50905 
L 155.75115 164.258382 
L 155.875406 164.522976 
L 156.248175 164.634385 
L 156.372432 164.328012 
L 156.496688 163.659562 
L 156.620944 163.784896 
L 156.745201 163.506375 
L 157.11797 163.882378 
L 157.490739 163.603858 
L 157.614995 163.548154 
L 157.987764 163.589932 
L 158.236277 163.408893 
L 158.48479 164.133047 
L 158.981816 163.8406 
L 159.106072 163.924157 
L 159.230328 163.729192 
L 159.354585 164.077343 
L 159.727354 163.645636 
L 159.975867 163.952009 
L 160.100123 164.522976 
L 160.224379 163.757044 
L 160.597148 163.534227 
L 160.721405 163.938083 
L 160.845661 163.812748 
L 161.094174 163.8406 
L 161.591199 163.687414 
L 161.963969 164.453346 
L 162.460994 164.202677 
L 162.58525 163.8406 
L 162.709507 163.8406 
L 162.833763 163.436745 
L 163.206532 163.924157 
L 163.330789 163.687414 
L 163.455045 163.868452 
L 164.076327 163.659562 
L 164.32484 163.311411 
L 164.449096 163.617784 
L 164.573352 163.492449 
L 165.070378 163.854526 
L 165.194634 163.617784 
L 165.318891 163.715266 
L 165.443147 163.186076 
L 165.815916 163.17215 
L 165.940173 162.977186 
L 166.312942 163.255707 
L 167.928275 163.325337 
L 168.052531 163.060742 
L 168.4253 163.283559 
L 168.549556 163.743118 
L 168.673813 163.645636 
L 168.922326 162.796146 
L 169.295095 162.977186 
L 169.419351 163.17215 
L 169.543608 162.96326 
L 169.667864 163.297485 
L 169.79212 162.991112 
L 170.164889 162.893628 
L 170.289146 162.642962 
L 170.413402 162.712591 
L 170.537659 162.935408 
L 170.661915 164.133047 
L 171.034684 164.314086 
L 171.15894 164.717941 
L 171.283197 164.676163 
L 171.53171 164.30016 
L 172.89853 164.731867 
L 173.022786 164.564754 
L 173.271299 164.829349 
L 173.768324 164.495124 
L 174.016837 164.188751 
L 174.141093 164.035565 
L 174.513863 164.188751 
L 174.638119 164.119121 
L 175.010888 163.269633 
L 175.383657 163.394967 
L 175.507914 163.074668 
L 175.880683 163.311411 
L 176.253452 162.949334 
L 176.501965 163.492449 
L 176.626221 162.893628 
L 177.123246 163.186076 
L 177.247503 163.03289 
L 177.496016 162.573331 
L 177.620272 162.823999 
L 177.993041 162.907554 
L 178.241554 163.186076 
L 178.36581 163.060742 
L 178.862836 163.394967 
L 179.111348 162.823999 
L 179.359861 163.17215 
L 179.73263 163.269633 
L 179.856887 162.016289 
L 179.981143 162.183403 
L 180.1054 162.099844 
L 180.229656 161.849175 
L 180.850938 161.779546 
L 181.596476 160.916133 
L 181.969245 161.194653 
L 182.342014 160.846502 
L 182.466271 160.373016 
L 182.83904 160.359089 
L 183.211809 159.662787 
L 183.336065 159.829901 
L 183.708834 159.370342 
L 184.081604 159.105747 
L 184.20586 158.869004 
L 184.454373 158.952559 
L 184.951398 159.398195 
L 185.075655 158.869004 
L 185.199911 158.92471 
L 185.324167 158.493 
L 185.448424 158.493 
L 185.945449 158.047368 
L 186.193962 158.28411 
L 186.318218 157.880257 
L 186.690987 157.810624 
L 186.9395 157.935959 
L 187.063757 157.810624 
L 187.188013 158.28411 
L 187.560782 157.866329 
L 188.057808 158.07522 
L 188.679089 157.26751 
L 188.803346 157.685289 
L 188.927602 157.573881 
L 189.300371 158.21448 
L 189.424628 157.852403 
L 189.67314 158.785448 
L 189.797397 158.367665 
L 190.294422 158.047368 
L 190.542935 157.197881 
L 190.667192 157.351066 
L 191.164217 157.518178 
L 191.41273 156.766171 
L 191.536986 156.863653 
L 191.909755 156.947212 
L 192.034012 157.796698 
L 192.158268 157.211804 
L 192.282524 157.894183 
L 192.406781 157.713143 
L 192.77955 158.298037 
L 193.276575 156.682616 
L 193.649345 156.125574 
L 193.773601 155.693868 
L 194.14637 155.958462 
L 194.643396 155.582457 
L 194.891908 156.223057 
L 195.016165 155.679942 
L 195.388934 156.362317 
L 195.51319 156.320539 
L 195.885959 154.677265 
L 196.382985 153.270735 
L 196.631498 153.618886 
L 196.755754 153.340366 
L 197.377036 154.120225 
L 197.501292 153.99489 
L 197.625549 154.496228 
L 197.998318 154.579784 
L 198.122574 154.356967 
L 198.24683 154.45445 
L 198.495343 152.839029 
L 198.868112 152.671918 
L 198.992369 152.37947 
L 199.240881 152.463024 
L 199.737907 152.504804 
L 199.862163 152.114873 
L 199.98642 152.671918 
L 200.110676 152.476952 
L 200.234932 152.783326 
L 200.607702 152.532656 
L 201.104727 150.847604 
L 201.850265 152.839029 
L 202.471547 151.279314 
L 202.72006 150.137376 
L 202.844316 150.861531 
L 203.217086 151.209682 
L 203.341342 150.791901 
L 203.465598 151.390722 
L 203.714111 150.318416 
L 204.08688 150.179155 
L 204.335393 148.452326 
L 204.459649 148.689069 
L 204.583906 147.867433 
L 204.956675 148.48018 
L 205.080931 148.132029 
L 205.205188 147.157205 
L 205.329444 148.215584 
L 205.4537 148.29914 
L 205.826469 148.215584 
L 205.950726 147.63069 
L 206.199239 148.995442 
L 206.323495 148.563735 
L 206.82052 148.925812 
L 206.944777 149.28789 
L 207.069033 148.563735 
L 207.19329 148.605514 
L 207.566059 148.48018 
L 207.690315 148.661217 
L 207.814571 149.371445 
L 208.063084 147.574984 
L 208.435853 147.992767 
L 208.684366 149.176482 
L 208.808622 148.508029 
L 208.932879 148.633364 
L 209.429904 148.104175 
L 209.554161 148.689069 
L 209.802673 150.151302 
L 210.175443 151.71102 
L 210.423955 150.012041 
L 210.548212 149.761376 
L 210.672468 150.234861 
L 211.045237 150.081673 
L 211.169494 150.429824 
L 211.29375 149.594262 
L 211.542263 149.468927 
L 211.915032 149.677816 
L 212.039288 148.076323 
L 212.163545 148.243437 
L 212.412057 147.310391 
L 212.784827 147.157205 
L 212.909083 147.797804 
L 213.033339 143.926363 
L 213.157596 143.926363 
L 213.778878 147.129351 
L 214.02739 145.862083 
L 214.151647 146.084898 
L 214.524416 146.335568 
L 214.772929 146.112752 
L 214.897185 146.293792 
L 215.021441 146.725497 
L 215.39421 146.697645 
L 215.518467 147.185057 
L 215.76698 146.96224 
L 216.388261 145.764601 
L 216.512518 146.168457 
L 216.636774 147.435727 
L 216.761031 147.185057 
L 217.1338 147.756024 
L 217.258056 147.463576 
L 217.382312 147.547135 
L 217.630825 146.252012 
L 218.003594 146.655866 
L 218.127851 147.63069 
L 218.376363 147.21291 
L 218.50062 147.463576 
L 219.246158 145.917787 
L 219.370414 146.001343 
L 219.86744 144.177032 
L 219.991696 144.580886 
L 220.115953 143.94029 
L 220.240209 144.483405 
L 220.612978 143.982066 
L 220.985747 142.018495 
L 221.110004 142.157756 
L 221.482773 143.090801 
L 221.607029 141.684271 
L 221.731286 141.586789 
L 221.979798 138.509135 
L 222.352568 139.038326 
L 222.476824 137.450754 
L 222.725337 138.049573 
L 222.849593 136.643046 
L 223.222362 137.687499 
L 223.346619 139.372548 
L 223.470875 139.261143 
L 223.719388 137.673569 
L 224.092157 137.882462 
L 224.34067 139.149732 
L 224.464926 139.63714 
L 224.589182 138.676246 
L 224.961951 137.798905 
L 225.086208 137.96602 
L 225.210464 139.135809 
L 225.334721 139.163655 
L 225.458977 140.319519 
L 225.831746 140.180262 
L 225.956002 139.038326 
L 226.080259 139.873886 
L 226.328772 139.024397 
L 226.701541 139.010473 
L 226.950053 139.442177 
L 227.07431 140.514482 
L 227.198566 139.107955 
L 227.695592 137.78498 
L 227.944104 135.528963 
L 228.565386 137.00512 
L 228.813899 134.679474 
L 228.938155 134.414876 
L 229.310925 134.693398 
L 229.559437 133.760356 
L 230.180719 133.690727 
L 230.304976 134.317395 
L 230.553488 131.100482 
L 231.050514 131.100482 
L 231.17477 129.220464 
L 231.299027 130.696626 
L 231.423283 130.432034 
L 231.547539 129.902841 
L 231.920308 129.902841 
L 232.044565 130.209217 
L 232.293078 129.248316 
L 232.417334 129.359727 
L 232.91436 128.343128 
L 233.659898 129.248316 
L 233.784154 128.914094 
L 234.032667 130.097806 
L 234.156923 129.359727 
L 234.529692 129.624321 
L 234.653949 128.245645 
L 234.778205 128.106382 
L 234.902462 128.245645 
L 235.026718 127.813935 
L 235.399487 129.540762 
L 235.523743 127.939271 
L 235.648 128.036752 
L 235.896513 129.512915 
L 236.393538 130.195288 
L 236.517794 129.27617 
L 237.139076 134.192059 
L 237.263333 132.005672 
L 237.387589 136.643046 
L 237.636102 135.083331 
L 238.008871 136.629116 
L 238.133127 135.57074 
L 238.257384 135.807479 
L 238.505896 133.384351 
L 238.878666 132.646274 
L 239.002922 131.615744 
L 239.127178 132.158858 
L 239.251435 131.587892 
L 239.375691 131.991747 
L 239.872717 131.880338 
L 239.996973 132.57664 
L 240.121229 132.604492 
L 240.245486 133.300794 
L 240.618255 133.119759 
L 240.742511 133.342576 
L 240.866768 132.841237 
L 241.11528 131.379004 
L 241.488049 131.963895 
L 241.612306 130.0421 
L 241.736562 130.22314 
L 241.860819 130.000324 
L 241.985075 131.337222 
L 242.357844 132.242417 
L 242.606357 133.008348 
L 242.730613 133.384351 
L 242.85487 132.869091 
L 243.351895 130.292769 
L 243.600408 132.632345 
L 243.724664 132.395604 
L 244.22169 135.194737 
L 244.345946 135.863185 
L 244.470203 135.668222 
L 244.594459 135.236512 
L 244.967228 135.236512 
L 245.215741 134.205989 
L 245.464254 137.520388 
L 245.837023 139.177584 
L 246.085535 136.670898 
L 246.334048 139.456106 
L 246.706817 138.648393 
L 246.831074 137.590017 
L 246.95533 134.609846 
L 247.079586 134.568063 
L 247.576612 134.54021 
L 247.700868 134.902291 
L 248.073637 137.214012 
L 248.446407 137.896385 
L 248.570663 135.333994 
L 248.694919 135.166883 
L 248.943432 133.88569 
L 249.316201 133.829985 
L 249.440458 134.414876 
L 249.564714 137.78498 
L 249.813227 138.21669 
L 250.185996 137.255789 
L 250.310252 137.325418 
L 250.558765 138.160984 
L 250.683021 138.704099 
L 251.05579 138.03565 
L 251.180047 138.063502 
L 251.552816 136.462006 
L 252.049841 136.322747 
L 252.174098 136.796232 
L 252.298354 136.629116 
L 252.422611 136.977267 
L 252.79538 136.670898 
L 252.919636 136.977267 
L 253.043892 136.865861 
L 253.168149 136.573416 
L 253.292405 135.208665 
L 253.665174 135.041549 
L 254.1622 133.788208 
L 254.659225 137.283642 
L 254.783482 136.573416 
L 254.907738 136.935491 
L 255.031995 137.812833 
L 255.653276 138.926915 
L 256.523071 135.264365 
L 256.647327 134.902291 
L 257.144353 135.765704 
L 257.268609 137.144383 
L 257.641378 135.891039 
L 258.014148 135.515034 
L 258.138404 135.640368 
L 258.386917 138.982621 
L 258.511173 138.815504 
L 258.883942 138.885138 
L 259.008199 138.439507 
L 259.256711 134.860514 
L 259.380968 134.930143 
L 259.753737 135.236512 
L 259.877993 135.542888 
L 260.00225 134.261695 
L 260.250762 135.626445 
L 260.623531 134.359176 
L 260.747788 135.515034 
L 260.872044 135.3897 
L 260.996301 135.57074 
L 261.120557 135.222589 
L 261.493326 135.3897 
L 261.617582 135.765704 
L 261.866095 134.595915 
L 261.990352 134.442729 
L 262.487377 132.548786 
L 262.611633 133.008348 
L 262.73589 132.813385 
L 262.860146 132.298123 
L 263.232915 132.715903 
L 263.357172 132.604492 
L 263.605684 131.880338 
L 264.226966 130.543439 
L 264.351223 131.100482 
L 264.599736 130.097806 
L 264.972505 127.006224 
L 265.096761 128.440609 
L 265.345274 127.77216 
L 265.46953 125.516137 
L 265.842299 125.9757 
L 265.966556 125.752883 
L 266.090812 125.919994 
L 266.215068 126.616296 
L 266.339325 128.231717 
L 266.712094 131.406851 
L 266.83635 130.849814 
L 266.960607 129.693949 
L 267.084863 130.989071 
L 267.209119 128.60772 
L 267.581889 128.802684 
L 267.706145 128.482385 
L 267.830401 129.081205 
L 267.954658 128.830536 
L 268.078914 128.092458 
L 268.451683 127.41008 
L 268.57594 128.231717 
L 268.824452 127.994977 
L 268.948709 130.083883 
L 269.569991 132.562715 
L 270.191272 130.529515 
L 270.315529 129.27617 
L 270.564042 125.906071 
L 270.688298 124.652724 
L 271.061067 122.981598 
L 271.185323 121.352254 
L 271.30958 121.964999 
L 271.433836 121.686477 
L 271.558093 121.101586 
L 271.930862 120.697729 
L 272.303631 118.483489 
L 272.427887 117.620076 
L 272.800656 116.422435 
L 272.924913 116.923774 
L 273.049169 114.765239 
L 273.173425 114.904497 
L 273.297682 113.163742 
L 273.670451 112.300329 
L 273.918964 114.793085 
L 274.04322 113.860044 
L 274.167476 114.152489 
L 274.540246 113.05233 
L 274.664502 113.205518 
L 274.788758 112.913073 
L 275.037271 113.177665 
L 275.41004 115.461541 
L 275.534297 114.667757 
L 275.658553 115.210871 
L 275.782809 115.029831 
L 275.907066 114.222118 
L 276.279835 116.129989 
L 276.404091 114.890573 
L 276.528348 116.700957 
L 276.77686 115.266571 
L 277.14963 115.851467 
L 277.273886 117.202296 
L 277.522399 114.333529 
L 277.646655 114.375306 
L 278.019424 113.999301 
L 278.143681 115.572946 
L 278.267937 114.695603 
L 278.51645 114.403158 
L 278.889219 114.86272 
L 279.013475 113.90182 
L 279.137732 114.890573 
L 279.386244 115.364059 
L 279.759013 116.812363 
L 279.88327 116.700957 
L 280.007526 117.56437 
L 280.131783 115.2805 
L 280.256039 115.990726 
L 280.753064 117.968227 
L 281.001577 120.850916 
L 281.125834 120.516689 
L 281.747115 118.135338 
L 281.871372 117.14659 
L 281.995628 117.063031 
L 282.368397 116.380658 
L 282.61691 120.530618 
L 282.741166 124.332425 
L 283.238192 122.995527 
L 283.362448 122.981598 
L 283.735217 125.432584 
L 284.107987 125.947846 
L 284.232243 125.251544 
L 284.356499 125.404732 
L 284.605012 123.371532 
L 285.102038 124.610948 
L 285.226294 124.443831 
L 285.35055 123.44116 
L 285.847576 124.610948 
L 285.971832 124.819835 
L 286.096089 123.357603 
L 286.220345 123.329749 
L 286.344601 123.566495 
L 286.717371 123.803235 
L 286.841627 125.878217 
L 287.09014 123.733606 
L 287.214396 124.736282 
L 287.711422 125.79466 
L 287.835678 126.045328 
L 287.959934 125.418655 
L 288.084191 125.530066 
L 288.581216 124.248868 
L 288.829729 122.591671 
L 288.953985 122.508113 
L 289.326754 122.953746 
L 289.575267 123.6779 
L 289.699524 123.301897 
L 289.82378 122.424561 
L 290.196549 122.633447 
L 290.445062 123.775383 
L 290.569318 123.747529 
L 291.1906 124.499537 
L 291.439113 121.686477 
L 291.563369 122.31315 
L 291.936138 122.884117 
L 292.184651 121.547218 
L 292.308907 121.477589 
L 292.433164 123.329749 
L 292.805933 123.037304 
L 292.930189 123.274044 
L 293.178702 124.374202 
L 293.302958 123.232268 
L 293.799984 123.482937 
L 294.048497 125.947846 
L 294.172753 126.031405 
L 294.545522 126.685925 
L 294.669779 127.716455 
L 294.794035 127.215116 
L 294.918291 124.137462 
L 295.042548 123.831088 
L 295.415317 124.513467 
L 295.539573 124.179239 
L 295.788086 122.633447 
L 295.912342 122.911969 
L 296.285111 123.455084 
L 296.409368 128.162086 
L 296.657881 124.402056 
L 297.279163 125.55792 
L 297.403419 124.819835 
L 297.651932 125.432584 
L 298.024701 124.861618 
L 298.148957 125.140133 
L 298.273214 125.056581 
L 298.521726 125.61362 
L 299.018752 127.256892 
L 299.143008 126.658073 
L 299.391521 128.78876 
L 299.76429 128.872313 
L 300.012803 128.18994 
L 300.137059 128.259569 
L 300.261316 128.816613 
L 300.634085 128.510237 
L 300.758341 128.621643 
L 301.006854 128.036752 
L 301.13111 129.443281 
L 301.503879 131.044777 
L 301.752392 130.45988 
L 301.876648 130.390251 
L 302.49793 131.991747 
L 302.622187 133.384351 
L 302.870699 132.423457 
L 303.243469 131.25367 
L 303.491981 131.782855 
L 303.740494 129.972472 
L 304.113263 130.167435 
L 304.23752 129.902841 
L 304.361776 130.585215 
L 304.486032 130.626997 
L 305.107314 132.701974 
L 305.231571 132.771608 
L 305.355827 133.119759 
L 305.480083 134.164212 
L 305.852852 134.136359 
L 306.101365 133.356499 
L 306.225622 134.456658 
L 306.722647 133.495757 
L 306.97116 137.200083 
L 307.219673 134.763027 
L 307.592442 134.957997 
L 307.840955 136.225265 
L 308.089467 139.372548 
L 308.462236 141.628568 
L 308.710749 139.943516 
L 308.835006 138.314171 
L 308.959262 139.080103 
L 309.332031 140.333442 
L 309.456287 141.224712 
L 309.580544 140.987969 
L 309.7048 139.915663 
L 309.829057 141.252564 
L 310.326082 142.199535 
L 310.450338 141.33612 
L 310.574595 141.851384 
L 310.698851 141.461454 
L 311.07162 143.007245 
L 311.320133 141.503233 
L 311.568646 142.422351 
L 311.941415 141.823531 
L 312.314184 144.371997 
L 312.43844 144.664445 
L 312.81121 146.795128 
L 313.059722 144.970816 
L 313.183979 144.970816 
L 313.308235 142.464131 
L 313.805261 142.11598 
L 314.053773 140.152408 
L 314.550799 139.470029 
L 314.799312 140.542336 
L 314.923568 138.606616 
L 315.047824 138.759804 
L 315.420593 138.578764 
L 315.54485 139.511806 
L 315.669106 141.89316 
L 315.793363 141.127229 
L 315.917619 139.038326 
L 316.290388 138.718022 
L 316.538901 136.225265 
L 316.663157 136.420229 
L 316.787414 135.626445 
L 317.160183 136.113855 
L 317.284439 136.879786 
L 317.532952 136.322747 
L 317.657208 137.60394 
L 318.029977 138.328095 
L 318.154234 137.896385 
L 318.527003 140.403077 
L 318.899772 139.344695 
L 319.024028 139.470029 
L 319.148285 139.302918 
L 319.272541 139.790328 
L 319.396798 139.121878 
L 319.769567 138.773727 
L 319.893823 139.330772 
L 320.018079 139.05225 
L 320.266592 139.358624 
L 320.639361 138.147056 
L 320.763618 138.286319 
L 320.887874 135.584663 
L 321.01213 137.408977 
L 321.136387 136.615193 
L 321.509156 136.935491 
L 321.633412 136.698752 
L 321.757669 137.325418 
L 321.881925 137.00512 
L 322.006181 139.400401 
L 322.378951 139.846034 
L 322.627463 138.188836 
L 322.875976 139.344695 
L 323.248745 139.316843 
L 323.497258 137.255789 
L 323.621514 137.729274 
L 324.11854 138.439507 
L 324.242796 137.826757 
L 324.491309 138.912992 
L 324.988334 141.503233 
L 325.112591 140.389148 
L 325.236847 140.444854 
L 325.361104 143.230061 
L 325.48536 142.575539 
L 325.858129 143.216135 
L 325.982385 142.49198 
L 326.106642 144.232735 
L 326.230898 143.007245 
L 326.355155 144.650519 
L 326.85218 143.814955 
L 326.976436 145.151854 
L 327.224949 143.801029 
L 327.597718 143.75925 
L 327.721975 143.48073 
L 327.846231 143.884584 
L 327.970487 145.193633 
L 328.094744 144.135254 
L 328.467513 144.051698 
L 328.591769 144.761927 
L 328.716026 146.683719 
L 328.840282 144.636591 
L 328.964539 146.279866 
L 329.461564 147.881359 
L 329.58582 147.49143 
L 329.710077 147.964915 
L 329.834333 147.574984 
L 330.455615 144.330217 
L 330.579871 144.260588 
L 330.704128 143.397173 
L 331.076897 141.823531 
L 331.201153 142.519833 
L 331.573922 141.545009 
L 331.946692 140.960116 
L 332.195204 139.400401 
L 332.319461 139.442177 
L 332.443717 138.077425 
L 332.816486 137.938168 
L 332.940743 139.372548 
L 333.064999 138.564841 
L 333.189255 139.525735 
L 333.313512 138.147056 
L 333.686281 138.467353 
L 333.810537 138.912992 
L 334.183306 136.253118 
L 334.556075 135.835333 
L 334.680332 135.918891 
L 334.804588 136.76838 
L 334.928845 136.684821 
L 335.42587 136.169559 
L 335.674383 134.317395 
L 335.798639 133.969244 
L 335.922896 134.428804 
L 336.295665 133.676798 
L 336.419921 134.526287 
L 336.544177 134.178136 
L 336.79269 134.999772 
L 337.289716 134.178136 
L 337.413972 133.272942 
L 337.538228 133.46791 
L 337.662485 134.387029 
L 338.035254 134.3731 
L 338.15951 134.637692 
L 338.283767 132.534863 
L 338.532279 133.0362 
L 339.029305 133.551462 
L 339.153561 133.774279 
L 339.277818 134.275618 
L 339.402074 134.261695 
L 339.774843 134.359176 
L 339.8991 135.083331 
L 340.023356 135.097254 
L 340.271869 133.384351 
L 340.644638 133.453982 
L 340.768894 133.091906 
L 340.893151 133.189388 
L 341.141663 134.428804 
L 341.514433 133.0362 
L 342.011458 134.400952 
L 342.384227 134.178136 
L 342.508484 132.966572 
L 342.63274 135.668222 
L 342.881253 132.562715 
L 343.378278 132.395604 
L 343.502535 134.192059 
L 343.626791 133.495757 
L 343.751047 134.261695 
L 344.123816 133.607168 
L 344.248073 134.080653 
L 344.496586 133.217242 
L 344.620842 133.94139 
L 344.993611 134.442729 
L 345.117867 133.147606 
L 345.242124 133.259017 
L 345.36638 133.161536 
L 345.490637 133.788208 
L 345.987662 133.147606 
L 346.111918 133.203311 
L 346.236175 132.618421 
L 346.360431 134.763027 
L 346.7332 136.183484 
L 347.230226 132.32597 
L 347.851508 132.994425 
L 347.975764 132.980496 
L 348.10002 132.674121 
L 348.47279 132.367752 
L 348.597046 132.465234 
L 348.721302 132.813385 
L 348.845559 132.367752 
L 348.969815 132.701974 
L 349.342584 132.381675 
L 349.466841 132.075306 
L 349.591097 131.0587 
L 349.715353 131.128336 
L 349.83961 130.390251 
L 350.212379 131.866413 
L 350.336635 131.25367 
L 350.585148 131.587892 
L 350.709404 132.047453 
L 351.082174 131.197964 
L 351.330686 131.768932 
L 351.579199 130.933366 
L 352.076225 130.585215 
L 352.200481 129.624321 
L 352.448994 125.432584 
L 352.946019 126.059252 
L 353.318788 125.321174 
L 353.691557 126.017476 
L 353.815814 125.906071 
L 353.94007 126.866965 
L 354.188583 126.365627 
L 354.561352 126.379556 
L 355.555403 122.967675 
L 355.679659 123.469014 
L 355.803916 123.455084 
L 355.928172 125.460438 
L 356.300941 124.70843 
L 356.425198 125.293321 
L 356.67371 123.970346 
L 356.797967 124.415985 
L 357.170736 125.084433 
L 357.294992 125.641472 
L 357.419249 123.761459 
L 357.543505 123.747529 
L 357.667761 125.627549 
L 358.040531 126.337774 
L 358.289043 124.388131 
L 358.4133 125.947846 
L 358.537556 125.209769 
L 359.034582 125.098358 
L 359.158838 124.360279 
L 359.283094 124.402056 
L 359.407351 125.042652 
L 359.78012 124.067834 
L 360.028633 126.240292 
L 360.277145 127.52149 
L 360.649915 127.034076 
L 360.774171 127.187264 
L 360.898427 125.725029 
L 361.14694 126.50489 
L 361.519709 125.919994 
L 361.643966 125.9757 
L 361.892478 126.92267 
L 362.51376 127.674672 
L 362.762273 129.206539 
L 362.886529 129.136911 
L 363.383555 127.911418 
L 363.507811 127.841789 
L 363.632068 129.304022 
L 363.756324 128.941947 
L 364.129093 130.501663 
L 364.501862 127.507561 
L 364.626119 127.869641 
L 365.123144 128.120311 
L 365.495913 128.315274 
L 365.992939 127.298675 
L 366.117195 128.106382 
L 366.241451 130.0421 
L 366.365708 129.429356 
L 366.738477 129.248316 
L 366.862733 129.568615 
L 367.235502 127.075858 
L 367.608272 127.716455 
L 367.732528 127.479709 
L 367.856784 128.259569 
L 367.981041 131.741079 
L 368.105297 131.462556 
L 368.478066 131.727155 
L 368.602323 130.696626 
L 368.726579 130.710549 
L 368.850835 131.615744 
L 368.975092 131.392928 
L 369.472117 131.030853 
L 369.72063 131.420781 
L 369.844886 131.379004 
L 369.844886 131.379004 
" style="fill:none;stroke:#2ca02c;stroke-linecap:square;stroke-width:1.5;"/>
   </g>
   <g id="patch_3">
    <path d="M 36.8875 180.415373 
L 36.8875 14.3 
" style="fill:none;stroke:#000000;stroke-linecap:square;stroke-linejoin:miter;stroke-width:0.8;"/>
   </g>
   <g id="patch_4">
    <path d="M 385.7 180.415373 
L 385.7 14.3 
" style="fill:none;stroke:#000000;stroke-linecap:square;stroke-linejoin:miter;stroke-width:0.8;"/>
   </g>
   <g id="patch_5">
    <path d="M 36.8875 180.415373 
L 385.7 180.415373 
" style="fill:none;stroke:#000000;stroke-linecap:square;stroke-linejoin:miter;stroke-width:0.8;"/>
   </g>
   <g id="patch_6">
    <path d="M 36.8875 14.3 
L 385.7 14.3 
" style="fill:none;stroke:#000000;stroke-linecap:square;stroke-linejoin:miter;stroke-width:0.8;"/>
   </g>
  </g>
 </g>
 <defs>
  <clipPath id="p869e04bb93">
   <rect height="166.115373" width="348.8125" x="36.8875" y="14.3"/>
  </clipPath>
 </defs>
</svg>
