<?xml version="1.0" encoding="utf-8" standalone="no"?>
<!DOCTYPE svg PUBLIC "-//W3C//DTD SVG 1.1//EN"
  "http://www.w3.org/Graphics/SVG/1.1/DTD/svg11.dtd">
<!-- Created with matplotlib (http://matplotlib.org/) -->
<svg height="640pt" version="1.1" viewBox="0 0 640 640" width="640pt" xmlns="http://www.w3.org/2000/svg" xmlns:xlink="http://www.w3.org/1999/xlink">
 <defs>
  <style type="text/css">
*{stroke-linecap:butt;stroke-linejoin:round;}
  </style>
 </defs>
 <g id="figure_1">
  <g id="patch_1">
   <path d="M 0 640 
L 640 640 
L 640 0 
L 0 0 
z
" style="fill:#ffffff;"/>
  </g>
  <g id="axes_1">
   <g id="patch_2">
    <path d="M 68.485938 255.833782 
L 625.7 255.833782 
L 625.7 14.3 
L 68.485938 14.3 
z
" style="fill:#ffffff;"/>
   </g>
   <g id="matplotlib.axis_1">
    <g id="xtick_1">
     <g id="line2d_1">
      <defs>
       <path d="M 0 0 
L 0 3.5 
" id="m73342a03dc" style="stroke:#000000;stroke-width:0.8;"/>
      </defs>
      <g>
       <use style="stroke:#000000;stroke-width:0.8;" x="129.996581" xlink:href="#m73342a03dc" y="255.833782"/>
      </g>
     </g>
     <g id="text_1">
      <!-- 2010-02 -->
      <defs>
       <path d="M 19.1875 8.296875 
L 53.609375 8.296875 
L 53.609375 0 
L 7.328125 0 
L 7.328125 8.296875 
Q 12.9375 14.109375 22.625 23.890625 
Q 32.328125 33.6875 34.8125 36.53125 
Q 39.546875 41.84375 41.421875 45.53125 
Q 43.3125 49.21875 43.3125 52.78125 
Q 43.3125 58.59375 39.234375 62.25 
Q 35.15625 65.921875 28.609375 65.921875 
Q 23.96875 65.921875 18.8125 64.3125 
Q 13.671875 62.703125 7.8125 59.421875 
L 7.8125 69.390625 
Q 13.765625 71.78125 18.9375 73 
Q 24.125 74.21875 28.421875 74.21875 
Q 39.75 74.21875 46.484375 68.546875 
Q 53.21875 62.890625 53.21875 53.421875 
Q 53.21875 48.921875 51.53125 44.890625 
Q 49.859375 40.875 45.40625 35.40625 
Q 44.1875 33.984375 37.640625 27.21875 
Q 31.109375 20.453125 19.1875 8.296875 
z
" id="DejaVuSans-32"/>
       <path d="M 31.78125 66.40625 
Q 24.171875 66.40625 20.328125 58.90625 
Q 16.5 51.421875 16.5 36.375 
Q 16.5 21.390625 20.328125 13.890625 
Q 24.171875 6.390625 31.78125 6.390625 
Q 39.453125 6.390625 43.28125 13.890625 
Q 47.125 21.390625 47.125 36.375 
Q 47.125 51.421875 43.28125 58.90625 
Q 39.453125 66.40625 31.78125 66.40625 
z
M 31.78125 74.21875 
Q 44.046875 74.21875 50.515625 64.515625 
Q 56.984375 54.828125 56.984375 36.375 
Q 56.984375 17.96875 50.515625 8.265625 
Q 44.046875 -1.421875 31.78125 -1.421875 
Q 19.53125 -1.421875 13.0625 8.265625 
Q 6.59375 17.96875 6.59375 36.375 
Q 6.59375 54.828125 13.0625 64.515625 
Q 19.53125 74.21875 31.78125 74.21875 
z
" id="DejaVuSans-30"/>
       <path d="M 12.40625 8.296875 
L 28.515625 8.296875 
L 28.515625 63.921875 
L 10.984375 60.40625 
L 10.984375 69.390625 
L 28.421875 72.90625 
L 38.28125 72.90625 
L 38.28125 8.296875 
L 54.390625 8.296875 
L 54.390625 0 
L 12.40625 0 
z
" id="DejaVuSans-31"/>
       <path d="M 4.890625 31.390625 
L 31.203125 31.390625 
L 31.203125 23.390625 
L 4.890625 23.390625 
z
" id="DejaVuSans-2d"/>
      </defs>
      <g transform="translate(92.77176 290.305629)rotate(-30)scale(0.1 -0.1)">
       <use xlink:href="#DejaVuSans-32"/>
       <use x="63.623047" xlink:href="#DejaVuSans-30"/>
       <use x="127.246094" xlink:href="#DejaVuSans-31"/>
       <use x="190.869141" xlink:href="#DejaVuSans-30"/>
       <use x="254.492188" xlink:href="#DejaVuSans-2d"/>
       <use x="290.576172" xlink:href="#DejaVuSans-30"/>
       <use x="354.199219" xlink:href="#DejaVuSans-32"/>
      </g>
     </g>
    </g>
    <g id="xtick_2">
     <g id="line2d_2">
      <g>
       <use style="stroke:#000000;stroke-width:0.8;" x="206.238765" xlink:href="#m73342a03dc" y="255.833782"/>
      </g>
     </g>
     <g id="text_2">
      <!-- 2010-04 -->
      <defs>
       <path d="M 37.796875 64.3125 
L 12.890625 25.390625 
L 37.796875 25.390625 
z
M 35.203125 72.90625 
L 47.609375 72.90625 
L 47.609375 25.390625 
L 58.015625 25.390625 
L 58.015625 17.1875 
L 47.609375 17.1875 
L 47.609375 0 
L 37.796875 0 
L 37.796875 17.1875 
L 4.890625 17.1875 
L 4.890625 26.703125 
z
" id="DejaVuSans-34"/>
      </defs>
      <g transform="translate(169.013944 290.305629)rotate(-30)scale(0.1 -0.1)">
       <use xlink:href="#DejaVuSans-32"/>
       <use x="63.623047" xlink:href="#DejaVuSans-30"/>
       <use x="127.246094" xlink:href="#DejaVuSans-31"/>
       <use x="190.869141" xlink:href="#DejaVuSans-30"/>
       <use x="254.492188" xlink:href="#DejaVuSans-2d"/>
       <use x="290.576172" xlink:href="#DejaVuSans-30"/>
       <use x="354.199219" xlink:href="#DejaVuSans-34"/>
      </g>
     </g>
    </g>
    <g id="xtick_3">
     <g id="line2d_3">
      <g>
       <use style="stroke:#000000;stroke-width:0.8;" x="285.065429" xlink:href="#m73342a03dc" y="255.833782"/>
      </g>
     </g>
     <g id="text_3">
      <!-- 2010-06 -->
      <defs>
       <path d="M 33.015625 40.375 
Q 26.375 40.375 22.484375 35.828125 
Q 18.609375 31.296875 18.609375 23.390625 
Q 18.609375 15.53125 22.484375 10.953125 
Q 26.375 6.390625 33.015625 6.390625 
Q 39.65625 6.390625 43.53125 10.953125 
Q 47.40625 15.53125 47.40625 23.390625 
Q 47.40625 31.296875 43.53125 35.828125 
Q 39.65625 40.375 33.015625 40.375 
z
M 52.59375 71.296875 
L 52.59375 62.3125 
Q 48.875 64.0625 45.09375 64.984375 
Q 41.3125 65.921875 37.59375 65.921875 
Q 27.828125 65.921875 22.671875 59.328125 
Q 17.53125 52.734375 16.796875 39.40625 
Q 19.671875 43.65625 24.015625 45.921875 
Q 28.375 48.1875 33.59375 48.1875 
Q 44.578125 48.1875 50.953125 41.515625 
Q 57.328125 34.859375 57.328125 23.390625 
Q 57.328125 12.15625 50.6875 5.359375 
Q 44.046875 -1.421875 33.015625 -1.421875 
Q 20.359375 -1.421875 13.671875 8.265625 
Q 6.984375 17.96875 6.984375 36.375 
Q 6.984375 53.65625 15.1875 63.9375 
Q 23.390625 74.21875 37.203125 74.21875 
Q 40.921875 74.21875 44.703125 73.484375 
Q 48.484375 72.75 52.59375 71.296875 
z
" id="DejaVuSans-36"/>
      </defs>
      <g transform="translate(247.840609 290.305629)rotate(-30)scale(0.1 -0.1)">
       <use xlink:href="#DejaVuSans-32"/>
       <use x="63.623047" xlink:href="#DejaVuSans-30"/>
       <use x="127.246094" xlink:href="#DejaVuSans-31"/>
       <use x="190.869141" xlink:href="#DejaVuSans-30"/>
       <use x="254.492188" xlink:href="#DejaVuSans-2d"/>
       <use x="290.576172" xlink:href="#DejaVuSans-30"/>
       <use x="354.199219" xlink:href="#DejaVuSans-36"/>
      </g>
     </g>
    </g>
    <g id="xtick_4">
     <g id="line2d_4">
      <g>
       <use style="stroke:#000000;stroke-width:0.8;" x="363.892094" xlink:href="#m73342a03dc" y="255.833782"/>
      </g>
     </g>
     <g id="text_4">
      <!-- 2010-08 -->
      <defs>
       <path d="M 31.78125 34.625 
Q 24.75 34.625 20.71875 30.859375 
Q 16.703125 27.09375 16.703125 20.515625 
Q 16.703125 13.921875 20.71875 10.15625 
Q 24.75 6.390625 31.78125 6.390625 
Q 38.8125 6.390625 42.859375 10.171875 
Q 46.921875 13.96875 46.921875 20.515625 
Q 46.921875 27.09375 42.890625 30.859375 
Q 38.875 34.625 31.78125 34.625 
z
M 21.921875 38.8125 
Q 15.578125 40.375 12.03125 44.71875 
Q 8.5 49.078125 8.5 55.328125 
Q 8.5 64.0625 14.71875 69.140625 
Q 20.953125 74.21875 31.78125 74.21875 
Q 42.671875 74.21875 48.875 69.140625 
Q 55.078125 64.0625 55.078125 55.328125 
Q 55.078125 49.078125 51.53125 44.71875 
Q 48 40.375 41.703125 38.8125 
Q 48.828125 37.15625 52.796875 32.3125 
Q 56.78125 27.484375 56.78125 20.515625 
Q 56.78125 9.90625 50.3125 4.234375 
Q 43.84375 -1.421875 31.78125 -1.421875 
Q 19.734375 -1.421875 13.25 4.234375 
Q 6.78125 9.90625 6.78125 20.515625 
Q 6.78125 27.484375 10.78125 32.3125 
Q 14.796875 37.15625 21.921875 38.8125 
z
M 18.3125 54.390625 
Q 18.3125 48.734375 21.84375 45.5625 
Q 25.390625 42.390625 31.78125 42.390625 
Q 38.140625 42.390625 41.71875 45.5625 
Q 45.3125 48.734375 45.3125 54.390625 
Q 45.3125 60.0625 41.71875 63.234375 
Q 38.140625 66.40625 31.78125 66.40625 
Q 25.390625 66.40625 21.84375 63.234375 
Q 18.3125 60.0625 18.3125 54.390625 
z
" id="DejaVuSans-38"/>
      </defs>
      <g transform="translate(326.667273 290.305629)rotate(-30)scale(0.1 -0.1)">
       <use xlink:href="#DejaVuSans-32"/>
       <use x="63.623047" xlink:href="#DejaVuSans-30"/>
       <use x="127.246094" xlink:href="#DejaVuSans-31"/>
       <use x="190.869141" xlink:href="#DejaVuSans-30"/>
       <use x="254.492188" xlink:href="#DejaVuSans-2d"/>
       <use x="290.576172" xlink:href="#DejaVuSans-30"/>
       <use x="354.199219" xlink:href="#DejaVuSans-38"/>
      </g>
     </g>
    </g>
    <g id="xtick_5">
     <g id="line2d_5">
      <g>
       <use style="stroke:#000000;stroke-width:0.8;" x="442.718759" xlink:href="#m73342a03dc" y="255.833782"/>
      </g>
     </g>
     <g id="text_5">
      <!-- 2010-10 -->
      <g transform="translate(405.493938 290.305629)rotate(-30)scale(0.1 -0.1)">
       <use xlink:href="#DejaVuSans-32"/>
       <use x="63.623047" xlink:href="#DejaVuSans-30"/>
       <use x="127.246094" xlink:href="#DejaVuSans-31"/>
       <use x="190.869141" xlink:href="#DejaVuSans-30"/>
       <use x="254.492188" xlink:href="#DejaVuSans-2d"/>
       <use x="290.576172" xlink:href="#DejaVuSans-31"/>
       <use x="354.199219" xlink:href="#DejaVuSans-30"/>
      </g>
     </g>
    </g>
    <g id="xtick_6">
     <g id="line2d_6">
      <g>
       <use style="stroke:#000000;stroke-width:0.8;" x="521.545423" xlink:href="#m73342a03dc" y="255.833782"/>
      </g>
     </g>
     <g id="text_6">
      <!-- 2010-12 -->
      <g transform="translate(484.320603 290.305629)rotate(-30)scale(0.1 -0.1)">
       <use xlink:href="#DejaVuSans-32"/>
       <use x="63.623047" xlink:href="#DejaVuSans-30"/>
       <use x="127.246094" xlink:href="#DejaVuSans-31"/>
       <use x="190.869141" xlink:href="#DejaVuSans-30"/>
       <use x="254.492188" xlink:href="#DejaVuSans-2d"/>
       <use x="290.576172" xlink:href="#DejaVuSans-31"/>
       <use x="354.199219" xlink:href="#DejaVuSans-32"/>
      </g>
     </g>
    </g>
    <g id="xtick_7">
     <g id="line2d_7">
      <g>
       <use style="stroke:#000000;stroke-width:0.8;" x="601.664328" xlink:href="#m73342a03dc" y="255.833782"/>
      </g>
     </g>
     <g id="text_7">
      <!-- 2011-02 -->
      <g transform="translate(564.439508 290.305629)rotate(-30)scale(0.1 -0.1)">
       <use xlink:href="#DejaVuSans-32"/>
       <use x="63.623047" xlink:href="#DejaVuSans-30"/>
       <use x="127.246094" xlink:href="#DejaVuSans-31"/>
       <use x="190.869141" xlink:href="#DejaVuSans-31"/>
       <use x="254.492188" xlink:href="#DejaVuSans-2d"/>
       <use x="290.576172" xlink:href="#DejaVuSans-30"/>
       <use x="354.199219" xlink:href="#DejaVuSans-32"/>
      </g>
     </g>
    </g>
    <g id="text_8">
     <!-- date -->
     <defs>
      <path d="M 45.40625 46.390625 
L 45.40625 75.984375 
L 54.390625 75.984375 
L 54.390625 0 
L 45.40625 0 
L 45.40625 8.203125 
Q 42.578125 3.328125 38.25 0.953125 
Q 33.9375 -1.421875 27.875 -1.421875 
Q 17.96875 -1.421875 11.734375 6.484375 
Q 5.515625 14.40625 5.515625 27.296875 
Q 5.515625 40.1875 11.734375 48.09375 
Q 17.96875 56 27.875 56 
Q 33.9375 56 38.25 53.625 
Q 42.578125 51.265625 45.40625 46.390625 
z
M 14.796875 27.296875 
Q 14.796875 17.390625 18.875 11.75 
Q 22.953125 6.109375 30.078125 6.109375 
Q 37.203125 6.109375 41.296875 11.75 
Q 45.40625 17.390625 45.40625 27.296875 
Q 45.40625 37.203125 41.296875 42.84375 
Q 37.203125 48.484375 30.078125 48.484375 
Q 22.953125 48.484375 18.875 42.84375 
Q 14.796875 37.203125 14.796875 27.296875 
z
" id="DejaVuSans-64"/>
      <path d="M 34.28125 27.484375 
Q 23.390625 27.484375 19.1875 25 
Q 14.984375 22.515625 14.984375 16.5 
Q 14.984375 11.71875 18.140625 8.90625 
Q 21.296875 6.109375 26.703125 6.109375 
Q 34.1875 6.109375 38.703125 11.40625 
Q 43.21875 16.703125 43.21875 25.484375 
L 43.21875 27.484375 
z
M 52.203125 31.203125 
L 52.203125 0 
L 43.21875 0 
L 43.21875 8.296875 
Q 40.140625 3.328125 35.546875 0.953125 
Q 30.953125 -1.421875 24.3125 -1.421875 
Q 15.921875 -1.421875 10.953125 3.296875 
Q 6 8.015625 6 15.921875 
Q 6 25.140625 12.171875 29.828125 
Q 18.359375 34.515625 30.609375 34.515625 
L 43.21875 34.515625 
L 43.21875 35.40625 
Q 43.21875 41.609375 39.140625 45 
Q 35.0625 48.390625 27.6875 48.390625 
Q 23 48.390625 18.546875 47.265625 
Q 14.109375 46.140625 10.015625 43.890625 
L 10.015625 52.203125 
Q 14.9375 54.109375 19.578125 55.046875 
Q 24.21875 56 28.609375 56 
Q 40.484375 56 46.34375 49.84375 
Q 52.203125 43.703125 52.203125 31.203125 
z
" id="DejaVuSans-61"/>
      <path d="M 18.3125 70.21875 
L 18.3125 54.6875 
L 36.8125 54.6875 
L 36.8125 47.703125 
L 18.3125 47.703125 
L 18.3125 18.015625 
Q 18.3125 11.328125 20.140625 9.421875 
Q 21.96875 7.515625 27.59375 7.515625 
L 36.8125 7.515625 
L 36.8125 0 
L 27.59375 0 
Q 17.1875 0 13.234375 3.875 
Q 9.28125 7.765625 9.28125 18.015625 
L 9.28125 47.703125 
L 2.6875 47.703125 
L 2.6875 54.6875 
L 9.28125 54.6875 
L 9.28125 70.21875 
z
" id="DejaVuSans-74"/>
      <path d="M 56.203125 29.59375 
L 56.203125 25.203125 
L 14.890625 25.203125 
Q 15.484375 15.921875 20.484375 11.0625 
Q 25.484375 6.203125 34.421875 6.203125 
Q 39.59375 6.203125 44.453125 7.46875 
Q 49.3125 8.734375 54.109375 11.28125 
L 54.109375 2.78125 
Q 49.265625 0.734375 44.1875 -0.34375 
Q 39.109375 -1.421875 33.890625 -1.421875 
Q 20.796875 -1.421875 13.15625 6.1875 
Q 5.515625 13.8125 5.515625 26.8125 
Q 5.515625 40.234375 12.765625 48.109375 
Q 20.015625 56 32.328125 56 
Q 43.359375 56 49.78125 48.890625 
Q 56.203125 41.796875 56.203125 29.59375 
z
M 47.21875 32.234375 
Q 47.125 39.59375 43.09375 43.984375 
Q 39.0625 48.390625 32.421875 48.390625 
Q 24.90625 48.390625 20.390625 44.140625 
Q 15.875 39.890625 15.1875 32.171875 
z
" id="DejaVuSans-65"/>
     </defs>
     <g transform="translate(335.817969 303.705128)scale(0.1 -0.1)">
      <use xlink:href="#DejaVuSans-64"/>
      <use x="63.476562" xlink:href="#DejaVuSans-61"/>
      <use x="124.755859" xlink:href="#DejaVuSans-74"/>
      <use x="163.964844" xlink:href="#DejaVuSans-65"/>
     </g>
    </g>
   </g>
   <g id="matplotlib.axis_2">
    <g id="ytick_1">
     <g id="line2d_8">
      <defs>
       <path d="M 0 0 
L -3.5 0 
" id="ma3ea125798" style="stroke:#000000;stroke-width:0.8;"/>
      </defs>
      <g>
       <use style="stroke:#000000;stroke-width:0.8;" x="68.485938" xlink:href="#ma3ea125798" y="232.064229"/>
      </g>
     </g>
     <g id="text_9">
      <!-- −0.04 -->
      <defs>
       <path d="M 10.59375 35.5 
L 73.1875 35.5 
L 73.1875 27.203125 
L 10.59375 27.203125 
z
" id="DejaVuSans-2212"/>
       <path d="M 10.6875 12.40625 
L 21 12.40625 
L 21 0 
L 10.6875 0 
z
" id="DejaVuSans-2e"/>
      </defs>
      <g transform="translate(30.840625 235.863448)scale(0.1 -0.1)">
       <use xlink:href="#DejaVuSans-2212"/>
       <use x="83.789062" xlink:href="#DejaVuSans-30"/>
       <use x="147.412109" xlink:href="#DejaVuSans-2e"/>
       <use x="179.199219" xlink:href="#DejaVuSans-30"/>
       <use x="242.822266" xlink:href="#DejaVuSans-34"/>
      </g>
     </g>
    </g>
    <g id="ytick_2">
     <g id="line2d_9">
      <g>
       <use style="stroke:#000000;stroke-width:0.8;" x="68.485938" xlink:href="#ma3ea125798" y="182.968889"/>
      </g>
     </g>
     <g id="text_10">
      <!-- −0.02 -->
      <g transform="translate(30.840625 186.768108)scale(0.1 -0.1)">
       <use xlink:href="#DejaVuSans-2212"/>
       <use x="83.789062" xlink:href="#DejaVuSans-30"/>
       <use x="147.412109" xlink:href="#DejaVuSans-2e"/>
       <use x="179.199219" xlink:href="#DejaVuSans-30"/>
       <use x="242.822266" xlink:href="#DejaVuSans-32"/>
      </g>
     </g>
    </g>
    <g id="ytick_3">
     <g id="line2d_10">
      <g>
       <use style="stroke:#000000;stroke-width:0.8;" x="68.485938" xlink:href="#ma3ea125798" y="133.873549"/>
      </g>
     </g>
     <g id="text_11">
      <!-- 0.00 -->
      <g transform="translate(39.220313 137.672768)scale(0.1 -0.1)">
       <use xlink:href="#DejaVuSans-30"/>
       <use x="63.623047" xlink:href="#DejaVuSans-2e"/>
       <use x="95.410156" xlink:href="#DejaVuSans-30"/>
       <use x="159.033203" xlink:href="#DejaVuSans-30"/>
      </g>
     </g>
    </g>
    <g id="ytick_4">
     <g id="line2d_11">
      <g>
       <use style="stroke:#000000;stroke-width:0.8;" x="68.485938" xlink:href="#ma3ea125798" y="84.778209"/>
      </g>
     </g>
     <g id="text_12">
      <!-- 0.02 -->
      <g transform="translate(39.220313 88.577428)scale(0.1 -0.1)">
       <use xlink:href="#DejaVuSans-30"/>
       <use x="63.623047" xlink:href="#DejaVuSans-2e"/>
       <use x="95.410156" xlink:href="#DejaVuSans-30"/>
       <use x="159.033203" xlink:href="#DejaVuSans-32"/>
      </g>
     </g>
    </g>
    <g id="ytick_5">
     <g id="line2d_12">
      <g>
       <use style="stroke:#000000;stroke-width:0.8;" x="68.485938" xlink:href="#ma3ea125798" y="35.68287"/>
      </g>
     </g>
     <g id="text_13">
      <!-- 0.04 -->
      <g transform="translate(39.220313 39.482088)scale(0.1 -0.1)">
       <use xlink:href="#DejaVuSans-30"/>
       <use x="63.623047" xlink:href="#DejaVuSans-2e"/>
       <use x="95.410156" xlink:href="#DejaVuSans-30"/>
       <use x="159.033203" xlink:href="#DejaVuSans-34"/>
      </g>
     </g>
    </g>
   </g>
   <g id="line2d_13">
    <path clip-path="url(#p6e370d8c65)" d="M 93.813849 132.017171 
L 95.10609 129.629582 
L 96.39833 172.919873 
L 97.690571 138.411383 
L 98.982811 117.553452 
L 102.859532 155.528512 
L 104.151773 161.796532 
L 105.444013 99.247756 
L 106.736253 148.090595 
L 108.028494 174.897684 
L 113.197456 25.278808 
L 114.489696 171.658457 
L 115.781936 176.307106 
L 117.074177 132.017171 
L 120.950898 67.833775 
L 122.243138 99.180198 
L 123.535379 110.749058 
L 124.827619 235.309341 
L 126.11986 222.929428 
L 129.996581 99.747675 
L 131.288821 119.628778 
L 132.581062 91.636454 
L 133.873302 222.340173 
L 135.165542 90.287242 
L 139.042264 150.702555 
L 140.334504 107.697035 
L 141.626744 147.261557 
L 142.918985 89.211851 
L 144.211225 112.744797 
L 149.380187 96.876823 
L 150.672427 144.131832 
L 151.964668 129.268271 
L 153.256908 149.115314 
L 157.133629 149.08882 
L 158.42587 175.027164 
L 159.71811 89.028496 
L 161.01035 117.480658 
L 162.302591 102.034578 
L 166.179312 81.447838 
L 167.471552 135.518016 
L 168.763793 128.231781 
L 170.056033 117.690533 
L 171.348274 37.877704 
L 175.224995 132.416172 
L 176.517235 89.726175 
L 177.809476 113.841046 
L 179.101716 126.667611 
L 180.393957 121.899098 
L 184.270678 163.772849 
L 185.562918 127.183903 
L 186.855159 137.482631 
L 188.147399 128.068516 
L 189.439639 160.098546 
L 193.316361 106.260828 
L 194.608601 94.444487 
L 195.900841 123.016397 
L 197.193082 162.983669 
L 198.485322 87.843239 
L 202.362043 118.032977 
L 203.654284 97.325111 
L 204.946524 142.720286 
L 206.238765 123.741285 
L 211.407726 107.658256 
L 212.699967 123.065832 
L 213.992207 123.010873 
L 215.284447 140.505307 
L 216.576688 115.04987 
L 220.453409 128.79719 
L 221.745649 132.455105 
L 223.03789 100.863916 
L 224.33013 101.601511 
L 225.622371 148.863366 
L 229.499092 137.147845 
L 230.791332 158.513648 
L 232.083573 132.017171 
L 233.375813 65.217424 
L 234.668054 93.708551 
L 238.544775 145.928402 
L 239.837015 201.823786 
L 241.129256 137.99527 
L 242.421496 67.812534 
L 243.713736 202.863602 
L 247.590458 84.419177 
L 248.882698 204.562748 
L 250.174938 159.400498 
L 251.467179 227.273497 
L 252.759419 237.447126 
L 256.63614 132.017171 
L 257.928381 109.421639 
L 259.220621 80.571392 
L 260.512862 168.80911 
L 261.805102 177.009873 
L 265.681823 130.004946 
L 268.266304 172.977181 
L 269.558544 238.453712 
L 270.850785 86.793593 
L 274.727506 88.8952 
L 276.019746 149.193282 
L 277.311987 144.985289 
L 278.604227 40.956247 
L 279.896468 99.670423 
L 285.065429 96.127045 
L 286.35767 104.510167 
L 287.64991 141.592706 
L 288.942151 200.672248 
L 292.818872 182.017602 
L 294.111112 149.622991 
L 295.403353 194.22612 
L 296.695593 60.089293 
L 297.987833 104.476424 
L 301.864555 126.41751 
L 303.156795 81.646489 
L 304.449035 62.411397 
L 305.741276 91.437557 
L 307.033516 114.009105 
L 310.910237 168.804818 
L 312.202478 100.437001 
L 313.494718 159.689719 
L 314.786959 151.720187 
L 316.079199 154.862264 
L 319.95592 119.146695 
L 321.248161 244.854974 
L 322.540401 178.336665 
L 325.124882 149.087503 
L 330.293843 117.073703 
L 331.586084 34.746731 
L 332.878324 139.377847 
L 334.170565 119.321343 
L 338.047286 155.904105 
L 339.339526 186.252909 
L 340.631767 124.807016 
L 341.924007 146.306211 
L 343.216248 149.005301 
L 347.092969 176.308817 
L 348.385209 70.800115 
L 349.67745 110.972004 
L 350.96969 87.721129 
L 352.26193 125.154634 
L 356.138652 140.106215 
L 357.430892 88.4289 
L 358.723132 162.87581 
L 360.015373 160.682567 
L 361.307613 142.052552 
L 365.184334 89.978804 
L 366.476575 133.123554 
L 367.768815 124.03301 
L 369.061056 145.82164 
L 370.353296 148.97544 
L 374.230017 118.206381 
L 375.522258 155.818744 
L 376.814498 221.121322 
L 378.106738 118.174873 
L 379.398979 160.099281 
L 383.2757 148.260988 
L 384.56794 90.951745 
L 385.860181 123.157041 
L 387.152421 164.816455 
L 388.444662 136.231316 
L 392.321383 171.633213 
L 393.613623 192.496223 
L 394.905864 103.58938 
L 396.198104 160.251436 
L 397.490345 120.183697 
L 401.367066 124.933156 
L 402.659306 127.799757 
L 403.951547 60.866783 
L 405.243787 115.830389 
L 406.536027 69.625207 
L 411.704989 142.980339 
L 412.997229 85.218139 
L 414.28947 132.473159 
L 415.58171 130.700865 
L 419.458431 100.044995 
L 420.750672 124.49722 
L 422.042912 114.093325 
L 423.335153 76.188085 
L 424.627393 144.524462 
L 428.504114 63.805936 
L 429.796355 129.193467 
L 431.088595 99.444258 
L 432.380835 123.892505 
L 433.673076 104.985966 
L 437.549797 143.614688 
L 438.842037 170.126731 
L 440.134278 129.509308 
L 441.426518 164.796276 
L 442.718759 144.514374 
L 446.59548 167.586261 
L 447.88772 43.132492 
L 449.179961 131.749446 
L 450.472201 133.619007 
L 451.764442 92.709045 
L 455.641163 123.105063 
L 456.933403 107.444304 
L 458.225644 120.71735 
L 459.517884 116.125823 
L 460.810124 32.941511 
L 464.686846 108.447711 
L 465.979086 199.565548 
L 467.271326 125.624655 
L 468.563567 141.857554 
L 469.855807 150.131915 
L 473.732528 122.935861 
L 475.024769 140.152782 
L 476.317009 135.626502 
L 477.60925 154.527459 
L 478.90149 168.132765 
L 482.778211 107.774682 
L 484.070452 92.070274 
L 485.362692 106.577209 
L 486.654932 90.946479 
L 487.947173 142.666184 
L 491.823894 122.340147 
L 493.116134 153.442692 
L 494.408375 118.729257 
L 495.700615 144.525345 
L 496.992856 200.698493 
L 500.869577 141.76296 
L 502.161817 177.446022 
L 503.454058 142.745604 
L 504.746298 69.093782 
L 506.038539 147.403579 
L 509.91526 80.81369 
L 511.2075 170.143453 
L 512.499741 85.609967 
L 515.084221 132.313938 
L 518.960943 119.300782 
L 520.253183 178.185924 
L 521.545423 92.454534 
L 522.837664 120.296298 
L 524.129904 139.351757 
L 528.006625 112.917121 
L 529.298866 148.748532 
L 530.591106 112.273637 
L 531.883347 143.432229 
L 533.175587 127.732087 
L 537.052308 125.373359 
L 538.344549 144.40481 
L 539.636789 133.337147 
L 540.929029 127.053847 
L 542.22127 138.763888 
L 546.097991 121.623197 
L 547.390231 118.712626 
L 548.682472 126.60469 
L 549.974712 145.650497 
L 555.143674 125.680894 
L 556.435914 127.900659 
L 557.728155 135.231179 
L 559.020395 146.174158 
L 560.312636 142.216374 
L 564.189357 80.525695 
L 565.481597 121.062223 
L 566.773838 113.793231 
L 568.066078 135.858089 
L 569.358318 116.293679 
L 573.23504 87.644018 
L 574.52728 139.679867 
L 575.81952 113.898497 
L 577.111761 124.893202 
L 578.404001 113.990107 
L 583.572963 189.029582 
L 584.865203 146.916645 
L 586.157444 178.500464 
L 587.449684 177.851 
L 591.326405 53.255191 
L 592.618646 105.139448 
L 593.910886 116.257209 
L 595.203126 138.442657 
L 596.495367 184.726866 
L 600.372088 110.355742 
L 600.372088 110.355742 
" style="fill:none;stroke:#1f77b4;stroke-linecap:square;stroke-width:1.5;"/>
   </g>
   <g id="patch_3">
    <path d="M 68.485938 255.833782 
L 68.485938 14.3 
" style="fill:none;stroke:#000000;stroke-linecap:square;stroke-linejoin:miter;stroke-width:0.8;"/>
   </g>
   <g id="patch_4">
    <path d="M 625.7 255.833782 
L 625.7 14.3 
" style="fill:none;stroke:#000000;stroke-linecap:square;stroke-linejoin:miter;stroke-width:0.8;"/>
   </g>
   <g id="patch_5">
    <path d="M 68.485937 255.833782 
L 625.7 255.833782 
" style="fill:none;stroke:#000000;stroke-linecap:square;stroke-linejoin:miter;stroke-width:0.8;"/>
   </g>
   <g id="patch_6">
    <path d="M 68.485937 14.3 
L 625.7 14.3 
" style="fill:none;stroke:#000000;stroke-linecap:square;stroke-linejoin:miter;stroke-width:0.8;"/>
   </g>
  </g>
  <g id="axes_2">
   <g id="patch_7">
    <path d="M 68.485938 561.618598 
L 625.7 561.618598 
L 625.7 320.084816 
L 68.485938 320.084816 
z
" style="fill:#ffffff;"/>
   </g>
   <g id="patch_8">
    <path clip-path="url(#pbeac345583)" d="M 93.813849 484.481258 
L 135.165542 484.481258 
L 135.165542 331.063624 
L 93.813849 331.063624 
z
" style="fill:#1f77b4;"/>
   </g>
   <g id="patch_9">
    <path clip-path="url(#pbeac345583)" d="M 145.503466 484.481258 
L 186.855159 484.481258 
L 186.855159 511.672549 
L 145.503466 511.672549 
z
" style="fill:#1f77b4;"/>
   </g>
   <g id="patch_10">
    <path clip-path="url(#pbeac345583)" d="M 197.193082 484.481258 
L 238.544775 484.481258 
L 238.544775 466.061793 
L 197.193082 466.061793 
z
" style="fill:#1f77b4;"/>
   </g>
   <g id="patch_11">
    <path clip-path="url(#pbeac345583)" d="M 248.882698 484.481258 
L 290.234391 484.481258 
L 290.234391 380.601024 
L 248.882698 380.601024 
z
" style="fill:#1f77b4;"/>
   </g>
   <g id="patch_12">
    <path clip-path="url(#pbeac345583)" d="M 300.572314 484.481258 
L 341.924007 484.481258 
L 341.924007 550.63979 
L 300.572314 550.63979 
z
" style="fill:#1f77b4;"/>
   </g>
   <g id="patch_13">
    <path clip-path="url(#pbeac345583)" d="M 352.26193 484.481258 
L 393.613623 484.481258 
L 393.613623 511.876095 
L 352.26193 511.876095 
z
" style="fill:#1f77b4;"/>
   </g>
   <g id="patch_14">
    <path clip-path="url(#pbeac345583)" d="M 403.951547 484.481258 
L 445.30324 484.481258 
L 445.30324 547.136038 
L 403.951547 547.136038 
z
" style="fill:#1f77b4;"/>
   </g>
   <g id="patch_15">
    <path clip-path="url(#pbeac345583)" d="M 455.641163 484.481258 
L 496.992856 484.481258 
L 496.992856 532.386353 
L 455.641163 532.386353 
z
" style="fill:#1f77b4;"/>
   </g>
   <g id="patch_16">
    <path clip-path="url(#pbeac345583)" d="M 507.330779 484.481258 
L 548.682472 484.481258 
L 548.682472 421.285932 
L 507.330779 421.285932 
z
" style="fill:#1f77b4;"/>
   </g>
   <g id="patch_17">
    <path clip-path="url(#pbeac345583)" d="M 559.020395 484.481258 
L 600.372088 484.481258 
L 600.372088 466.76364 
L 559.020395 466.76364 
z
" style="fill:#1f77b4;"/>
   </g>
   <g id="matplotlib.axis_3">
    <g id="xtick_8">
     <g id="line2d_14">
      <g>
       <use style="stroke:#000000;stroke-width:0.8;" x="114.489696" xlink:href="#m73342a03dc" y="561.618598"/>
      </g>
     </g>
     <g id="text_14">
      <!-- lag_1_day -->
      <defs>
       <path d="M 9.421875 75.984375 
L 18.40625 75.984375 
L 18.40625 0 
L 9.421875 0 
z
" id="DejaVuSans-6c"/>
       <path d="M 45.40625 27.984375 
Q 45.40625 37.75 41.375 43.109375 
Q 37.359375 48.484375 30.078125 48.484375 
Q 22.859375 48.484375 18.828125 43.109375 
Q 14.796875 37.75 14.796875 27.984375 
Q 14.796875 18.265625 18.828125 12.890625 
Q 22.859375 7.515625 30.078125 7.515625 
Q 37.359375 7.515625 41.375 12.890625 
Q 45.40625 18.265625 45.40625 27.984375 
z
M 54.390625 6.78125 
Q 54.390625 -7.171875 48.1875 -13.984375 
Q 42 -20.796875 29.203125 -20.796875 
Q 24.46875 -20.796875 20.265625 -20.09375 
Q 16.0625 -19.390625 12.109375 -17.921875 
L 12.109375 -9.1875 
Q 16.0625 -11.328125 19.921875 -12.34375 
Q 23.78125 -13.375 27.78125 -13.375 
Q 36.625 -13.375 41.015625 -8.765625 
Q 45.40625 -4.15625 45.40625 5.171875 
L 45.40625 9.625 
Q 42.625 4.78125 38.28125 2.390625 
Q 33.9375 0 27.875 0 
Q 17.828125 0 11.671875 7.65625 
Q 5.515625 15.328125 5.515625 27.984375 
Q 5.515625 40.671875 11.671875 48.328125 
Q 17.828125 56 27.875 56 
Q 33.9375 56 38.28125 53.609375 
Q 42.625 51.21875 45.40625 46.390625 
L 45.40625 54.6875 
L 54.390625 54.6875 
z
" id="DejaVuSans-67"/>
       <path d="M 50.984375 -16.609375 
L 50.984375 -23.578125 
L -0.984375 -23.578125 
L -0.984375 -16.609375 
z
" id="DejaVuSans-5f"/>
       <path d="M 32.171875 -5.078125 
Q 28.375 -14.84375 24.75 -17.8125 
Q 21.140625 -20.796875 15.09375 -20.796875 
L 7.90625 -20.796875 
L 7.90625 -13.28125 
L 13.1875 -13.28125 
Q 16.890625 -13.28125 18.9375 -11.515625 
Q 21 -9.765625 23.484375 -3.21875 
L 25.09375 0.875 
L 2.984375 54.6875 
L 12.5 54.6875 
L 29.59375 11.921875 
L 46.6875 54.6875 
L 56.203125 54.6875 
z
" id="DejaVuSans-79"/>
      </defs>
      <g transform="translate(77.458293 609.355683)rotate(-45)scale(0.1 -0.1)">
       <use xlink:href="#DejaVuSans-6c"/>
       <use x="27.783203" xlink:href="#DejaVuSans-61"/>
       <use x="89.0625" xlink:href="#DejaVuSans-67"/>
       <use x="152.539062" xlink:href="#DejaVuSans-5f"/>
       <use x="202.539062" xlink:href="#DejaVuSans-31"/>
       <use x="266.162109" xlink:href="#DejaVuSans-5f"/>
       <use x="316.162109" xlink:href="#DejaVuSans-64"/>
       <use x="379.638672" xlink:href="#DejaVuSans-61"/>
       <use x="440.917969" xlink:href="#DejaVuSans-79"/>
      </g>
     </g>
    </g>
    <g id="xtick_9">
     <g id="line2d_15">
      <g>
       <use style="stroke:#000000;stroke-width:0.8;" x="166.179312" xlink:href="#m73342a03dc" y="561.618598"/>
      </g>
     </g>
     <g id="text_15">
      <!-- lag_2_day -->
      <g transform="translate(129.147909 609.355683)rotate(-45)scale(0.1 -0.1)">
       <use xlink:href="#DejaVuSans-6c"/>
       <use x="27.783203" xlink:href="#DejaVuSans-61"/>
       <use x="89.0625" xlink:href="#DejaVuSans-67"/>
       <use x="152.539062" xlink:href="#DejaVuSans-5f"/>
       <use x="202.539062" xlink:href="#DejaVuSans-32"/>
       <use x="266.162109" xlink:href="#DejaVuSans-5f"/>
       <use x="316.162109" xlink:href="#DejaVuSans-64"/>
       <use x="379.638672" xlink:href="#DejaVuSans-61"/>
       <use x="440.917969" xlink:href="#DejaVuSans-79"/>
      </g>
     </g>
    </g>
    <g id="xtick_10">
     <g id="line2d_16">
      <g>
       <use style="stroke:#000000;stroke-width:0.8;" x="217.868928" xlink:href="#m73342a03dc" y="561.618598"/>
      </g>
     </g>
     <g id="text_16">
      <!-- lag_3_day -->
      <defs>
       <path d="M 40.578125 39.3125 
Q 47.65625 37.796875 51.625 33 
Q 55.609375 28.21875 55.609375 21.1875 
Q 55.609375 10.40625 48.1875 4.484375 
Q 40.765625 -1.421875 27.09375 -1.421875 
Q 22.515625 -1.421875 17.65625 -0.515625 
Q 12.796875 0.390625 7.625 2.203125 
L 7.625 11.71875 
Q 11.71875 9.328125 16.59375 8.109375 
Q 21.484375 6.890625 26.8125 6.890625 
Q 36.078125 6.890625 40.9375 10.546875 
Q 45.796875 14.203125 45.796875 21.1875 
Q 45.796875 27.640625 41.28125 31.265625 
Q 36.765625 34.90625 28.71875 34.90625 
L 20.21875 34.90625 
L 20.21875 43.015625 
L 29.109375 43.015625 
Q 36.375 43.015625 40.234375 45.921875 
Q 44.09375 48.828125 44.09375 54.296875 
Q 44.09375 59.90625 40.109375 62.90625 
Q 36.140625 65.921875 28.71875 65.921875 
Q 24.65625 65.921875 20.015625 65.03125 
Q 15.375 64.15625 9.8125 62.3125 
L 9.8125 71.09375 
Q 15.4375 72.65625 20.34375 73.4375 
Q 25.25 74.21875 29.59375 74.21875 
Q 40.828125 74.21875 47.359375 69.109375 
Q 53.90625 64.015625 53.90625 55.328125 
Q 53.90625 49.265625 50.4375 45.09375 
Q 46.96875 40.921875 40.578125 39.3125 
z
" id="DejaVuSans-33"/>
      </defs>
      <g transform="translate(180.837525 609.355683)rotate(-45)scale(0.1 -0.1)">
       <use xlink:href="#DejaVuSans-6c"/>
       <use x="27.783203" xlink:href="#DejaVuSans-61"/>
       <use x="89.0625" xlink:href="#DejaVuSans-67"/>
       <use x="152.539062" xlink:href="#DejaVuSans-5f"/>
       <use x="202.539062" xlink:href="#DejaVuSans-33"/>
       <use x="266.162109" xlink:href="#DejaVuSans-5f"/>
       <use x="316.162109" xlink:href="#DejaVuSans-64"/>
       <use x="379.638672" xlink:href="#DejaVuSans-61"/>
       <use x="440.917969" xlink:href="#DejaVuSans-79"/>
      </g>
     </g>
    </g>
    <g id="xtick_11">
     <g id="line2d_17">
      <g>
       <use style="stroke:#000000;stroke-width:0.8;" x="269.558544" xlink:href="#m73342a03dc" y="561.618598"/>
      </g>
     </g>
     <g id="text_17">
      <!-- lag_4_day -->
      <g transform="translate(232.527141 609.355683)rotate(-45)scale(0.1 -0.1)">
       <use xlink:href="#DejaVuSans-6c"/>
       <use x="27.783203" xlink:href="#DejaVuSans-61"/>
       <use x="89.0625" xlink:href="#DejaVuSans-67"/>
       <use x="152.539062" xlink:href="#DejaVuSans-5f"/>
       <use x="202.539062" xlink:href="#DejaVuSans-34"/>
       <use x="266.162109" xlink:href="#DejaVuSans-5f"/>
       <use x="316.162109" xlink:href="#DejaVuSans-64"/>
       <use x="379.638672" xlink:href="#DejaVuSans-61"/>
       <use x="440.917969" xlink:href="#DejaVuSans-79"/>
      </g>
     </g>
    </g>
    <g id="xtick_12">
     <g id="line2d_18">
      <g>
       <use style="stroke:#000000;stroke-width:0.8;" x="321.248161" xlink:href="#m73342a03dc" y="561.618598"/>
      </g>
     </g>
     <g id="text_18">
      <!-- lag_5_day -->
      <defs>
       <path d="M 10.796875 72.90625 
L 49.515625 72.90625 
L 49.515625 64.59375 
L 19.828125 64.59375 
L 19.828125 46.734375 
Q 21.96875 47.46875 24.109375 47.828125 
Q 26.265625 48.1875 28.421875 48.1875 
Q 40.625 48.1875 47.75 41.5 
Q 54.890625 34.8125 54.890625 23.390625 
Q 54.890625 11.625 47.5625 5.09375 
Q 40.234375 -1.421875 26.90625 -1.421875 
Q 22.3125 -1.421875 17.546875 -0.640625 
Q 12.796875 0.140625 7.71875 1.703125 
L 7.71875 11.625 
Q 12.109375 9.234375 16.796875 8.0625 
Q 21.484375 6.890625 26.703125 6.890625 
Q 35.15625 6.890625 40.078125 11.328125 
Q 45.015625 15.765625 45.015625 23.390625 
Q 45.015625 31 40.078125 35.4375 
Q 35.15625 39.890625 26.703125 39.890625 
Q 22.75 39.890625 18.8125 39.015625 
Q 14.890625 38.140625 10.796875 36.28125 
z
" id="DejaVuSans-35"/>
      </defs>
      <g transform="translate(284.216758 609.355683)rotate(-45)scale(0.1 -0.1)">
       <use xlink:href="#DejaVuSans-6c"/>
       <use x="27.783203" xlink:href="#DejaVuSans-61"/>
       <use x="89.0625" xlink:href="#DejaVuSans-67"/>
       <use x="152.539062" xlink:href="#DejaVuSans-5f"/>
       <use x="202.539062" xlink:href="#DejaVuSans-35"/>
       <use x="266.162109" xlink:href="#DejaVuSans-5f"/>
       <use x="316.162109" xlink:href="#DejaVuSans-64"/>
       <use x="379.638672" xlink:href="#DejaVuSans-61"/>
       <use x="440.917969" xlink:href="#DejaVuSans-79"/>
      </g>
     </g>
    </g>
    <g id="xtick_13">
     <g id="line2d_19">
      <g>
       <use style="stroke:#000000;stroke-width:0.8;" x="372.937777" xlink:href="#m73342a03dc" y="561.618598"/>
      </g>
     </g>
     <g id="text_19">
      <!-- lag_6_day -->
      <g transform="translate(335.906374 609.355683)rotate(-45)scale(0.1 -0.1)">
       <use xlink:href="#DejaVuSans-6c"/>
       <use x="27.783203" xlink:href="#DejaVuSans-61"/>
       <use x="89.0625" xlink:href="#DejaVuSans-67"/>
       <use x="152.539062" xlink:href="#DejaVuSans-5f"/>
       <use x="202.539062" xlink:href="#DejaVuSans-36"/>
       <use x="266.162109" xlink:href="#DejaVuSans-5f"/>
       <use x="316.162109" xlink:href="#DejaVuSans-64"/>
       <use x="379.638672" xlink:href="#DejaVuSans-61"/>
       <use x="440.917969" xlink:href="#DejaVuSans-79"/>
      </g>
     </g>
    </g>
    <g id="xtick_14">
     <g id="line2d_20">
      <g>
       <use style="stroke:#000000;stroke-width:0.8;" x="424.627393" xlink:href="#m73342a03dc" y="561.618598"/>
      </g>
     </g>
     <g id="text_20">
      <!-- lag_7_day -->
      <defs>
       <path d="M 8.203125 72.90625 
L 55.078125 72.90625 
L 55.078125 68.703125 
L 28.609375 0 
L 18.3125 0 
L 43.21875 64.59375 
L 8.203125 64.59375 
z
" id="DejaVuSans-37"/>
      </defs>
      <g transform="translate(387.59599 609.355683)rotate(-45)scale(0.1 -0.1)">
       <use xlink:href="#DejaVuSans-6c"/>
       <use x="27.783203" xlink:href="#DejaVuSans-61"/>
       <use x="89.0625" xlink:href="#DejaVuSans-67"/>
       <use x="152.539062" xlink:href="#DejaVuSans-5f"/>
       <use x="202.539062" xlink:href="#DejaVuSans-37"/>
       <use x="266.162109" xlink:href="#DejaVuSans-5f"/>
       <use x="316.162109" xlink:href="#DejaVuSans-64"/>
       <use x="379.638672" xlink:href="#DejaVuSans-61"/>
       <use x="440.917969" xlink:href="#DejaVuSans-79"/>
      </g>
     </g>
    </g>
    <g id="xtick_15">
     <g id="line2d_21">
      <g>
       <use style="stroke:#000000;stroke-width:0.8;" x="476.317009" xlink:href="#m73342a03dc" y="561.618598"/>
      </g>
     </g>
     <g id="text_21">
      <!-- lag_8_day -->
      <g transform="translate(439.285606 609.355683)rotate(-45)scale(0.1 -0.1)">
       <use xlink:href="#DejaVuSans-6c"/>
       <use x="27.783203" xlink:href="#DejaVuSans-61"/>
       <use x="89.0625" xlink:href="#DejaVuSans-67"/>
       <use x="152.539062" xlink:href="#DejaVuSans-5f"/>
       <use x="202.539062" xlink:href="#DejaVuSans-38"/>
       <use x="266.162109" xlink:href="#DejaVuSans-5f"/>
       <use x="316.162109" xlink:href="#DejaVuSans-64"/>
       <use x="379.638672" xlink:href="#DejaVuSans-61"/>
       <use x="440.917969" xlink:href="#DejaVuSans-79"/>
      </g>
     </g>
    </g>
    <g id="xtick_16">
     <g id="line2d_22">
      <g>
       <use style="stroke:#000000;stroke-width:0.8;" x="528.006625" xlink:href="#m73342a03dc" y="561.618598"/>
      </g>
     </g>
     <g id="text_22">
      <!-- lag_9_day -->
      <defs>
       <path d="M 10.984375 1.515625 
L 10.984375 10.5 
Q 14.703125 8.734375 18.5 7.8125 
Q 22.3125 6.890625 25.984375 6.890625 
Q 35.75 6.890625 40.890625 13.453125 
Q 46.046875 20.015625 46.78125 33.40625 
Q 43.953125 29.203125 39.59375 26.953125 
Q 35.25 24.703125 29.984375 24.703125 
Q 19.046875 24.703125 12.671875 31.3125 
Q 6.296875 37.9375 6.296875 49.421875 
Q 6.296875 60.640625 12.9375 67.421875 
Q 19.578125 74.21875 30.609375 74.21875 
Q 43.265625 74.21875 49.921875 64.515625 
Q 56.59375 54.828125 56.59375 36.375 
Q 56.59375 19.140625 48.40625 8.859375 
Q 40.234375 -1.421875 26.421875 -1.421875 
Q 22.703125 -1.421875 18.890625 -0.6875 
Q 15.09375 0.046875 10.984375 1.515625 
z
M 30.609375 32.421875 
Q 37.25 32.421875 41.125 36.953125 
Q 45.015625 41.5 45.015625 49.421875 
Q 45.015625 57.28125 41.125 61.84375 
Q 37.25 66.40625 30.609375 66.40625 
Q 23.96875 66.40625 20.09375 61.84375 
Q 16.21875 57.28125 16.21875 49.421875 
Q 16.21875 41.5 20.09375 36.953125 
Q 23.96875 32.421875 30.609375 32.421875 
z
" id="DejaVuSans-39"/>
      </defs>
      <g transform="translate(490.975222 609.355683)rotate(-45)scale(0.1 -0.1)">
       <use xlink:href="#DejaVuSans-6c"/>
       <use x="27.783203" xlink:href="#DejaVuSans-61"/>
       <use x="89.0625" xlink:href="#DejaVuSans-67"/>
       <use x="152.539062" xlink:href="#DejaVuSans-5f"/>
       <use x="202.539062" xlink:href="#DejaVuSans-39"/>
       <use x="266.162109" xlink:href="#DejaVuSans-5f"/>
       <use x="316.162109" xlink:href="#DejaVuSans-64"/>
       <use x="379.638672" xlink:href="#DejaVuSans-61"/>
       <use x="440.917969" xlink:href="#DejaVuSans-79"/>
      </g>
     </g>
    </g>
    <g id="xtick_17">
     <g id="line2d_23">
      <g>
       <use style="stroke:#000000;stroke-width:0.8;" x="579.696242" xlink:href="#m73342a03dc" y="561.618598"/>
      </g>
     </g>
     <g id="text_23">
      <!-- lag_10_day -->
      <g transform="translate(538.165872 613.85465)rotate(-45)scale(0.1 -0.1)">
       <use xlink:href="#DejaVuSans-6c"/>
       <use x="27.783203" xlink:href="#DejaVuSans-61"/>
       <use x="89.0625" xlink:href="#DejaVuSans-67"/>
       <use x="152.539062" xlink:href="#DejaVuSans-5f"/>
       <use x="202.539062" xlink:href="#DejaVuSans-31"/>
       <use x="266.162109" xlink:href="#DejaVuSans-30"/>
       <use x="329.785156" xlink:href="#DejaVuSans-5f"/>
       <use x="379.785156" xlink:href="#DejaVuSans-64"/>
       <use x="443.261719" xlink:href="#DejaVuSans-61"/>
       <use x="504.541016" xlink:href="#DejaVuSans-79"/>
      </g>
     </g>
    </g>
    <g id="text_24">
     <!-- Coefficient name -->
     <defs>
      <path d="M 64.40625 67.28125 
L 64.40625 56.890625 
Q 59.421875 61.53125 53.78125 63.8125 
Q 48.140625 66.109375 41.796875 66.109375 
Q 29.296875 66.109375 22.65625 58.46875 
Q 16.015625 50.828125 16.015625 36.375 
Q 16.015625 21.96875 22.65625 14.328125 
Q 29.296875 6.6875 41.796875 6.6875 
Q 48.140625 6.6875 53.78125 8.984375 
Q 59.421875 11.28125 64.40625 15.921875 
L 64.40625 5.609375 
Q 59.234375 2.09375 53.4375 0.328125 
Q 47.65625 -1.421875 41.21875 -1.421875 
Q 24.65625 -1.421875 15.125 8.703125 
Q 5.609375 18.84375 5.609375 36.375 
Q 5.609375 53.953125 15.125 64.078125 
Q 24.65625 74.21875 41.21875 74.21875 
Q 47.75 74.21875 53.53125 72.484375 
Q 59.328125 70.75 64.40625 67.28125 
z
" id="DejaVuSans-43"/>
      <path d="M 30.609375 48.390625 
Q 23.390625 48.390625 19.1875 42.75 
Q 14.984375 37.109375 14.984375 27.296875 
Q 14.984375 17.484375 19.15625 11.84375 
Q 23.34375 6.203125 30.609375 6.203125 
Q 37.796875 6.203125 41.984375 11.859375 
Q 46.1875 17.53125 46.1875 27.296875 
Q 46.1875 37.015625 41.984375 42.703125 
Q 37.796875 48.390625 30.609375 48.390625 
z
M 30.609375 56 
Q 42.328125 56 49.015625 48.375 
Q 55.71875 40.765625 55.71875 27.296875 
Q 55.71875 13.875 49.015625 6.21875 
Q 42.328125 -1.421875 30.609375 -1.421875 
Q 18.84375 -1.421875 12.171875 6.21875 
Q 5.515625 13.875 5.515625 27.296875 
Q 5.515625 40.765625 12.171875 48.375 
Q 18.84375 56 30.609375 56 
z
" id="DejaVuSans-6f"/>
      <path d="M 37.109375 75.984375 
L 37.109375 68.5 
L 28.515625 68.5 
Q 23.6875 68.5 21.796875 66.546875 
Q 19.921875 64.59375 19.921875 59.515625 
L 19.921875 54.6875 
L 34.71875 54.6875 
L 34.71875 47.703125 
L 19.921875 47.703125 
L 19.921875 0 
L 10.890625 0 
L 10.890625 47.703125 
L 2.296875 47.703125 
L 2.296875 54.6875 
L 10.890625 54.6875 
L 10.890625 58.5 
Q 10.890625 67.625 15.140625 71.796875 
Q 19.390625 75.984375 28.609375 75.984375 
z
" id="DejaVuSans-66"/>
      <path d="M 9.421875 54.6875 
L 18.40625 54.6875 
L 18.40625 0 
L 9.421875 0 
z
M 9.421875 75.984375 
L 18.40625 75.984375 
L 18.40625 64.59375 
L 9.421875 64.59375 
z
" id="DejaVuSans-69"/>
      <path d="M 48.78125 52.59375 
L 48.78125 44.1875 
Q 44.96875 46.296875 41.140625 47.34375 
Q 37.3125 48.390625 33.40625 48.390625 
Q 24.65625 48.390625 19.8125 42.84375 
Q 14.984375 37.3125 14.984375 27.296875 
Q 14.984375 17.28125 19.8125 11.734375 
Q 24.65625 6.203125 33.40625 6.203125 
Q 37.3125 6.203125 41.140625 7.25 
Q 44.96875 8.296875 48.78125 10.40625 
L 48.78125 2.09375 
Q 45.015625 0.34375 40.984375 -0.53125 
Q 36.96875 -1.421875 32.421875 -1.421875 
Q 20.0625 -1.421875 12.78125 6.34375 
Q 5.515625 14.109375 5.515625 27.296875 
Q 5.515625 40.671875 12.859375 48.328125 
Q 20.21875 56 33.015625 56 
Q 37.15625 56 41.109375 55.140625 
Q 45.0625 54.296875 48.78125 52.59375 
z
" id="DejaVuSans-63"/>
      <path d="M 54.890625 33.015625 
L 54.890625 0 
L 45.90625 0 
L 45.90625 32.71875 
Q 45.90625 40.484375 42.875 44.328125 
Q 39.84375 48.1875 33.796875 48.1875 
Q 26.515625 48.1875 22.3125 43.546875 
Q 18.109375 38.921875 18.109375 30.90625 
L 18.109375 0 
L 9.078125 0 
L 9.078125 54.6875 
L 18.109375 54.6875 
L 18.109375 46.1875 
Q 21.34375 51.125 25.703125 53.5625 
Q 30.078125 56 35.796875 56 
Q 45.21875 56 50.046875 50.171875 
Q 54.890625 44.34375 54.890625 33.015625 
z
" id="DejaVuSans-6e"/>
      <path id="DejaVuSans-20"/>
      <path d="M 52 44.1875 
Q 55.375 50.25 60.0625 53.125 
Q 64.75 56 71.09375 56 
Q 79.640625 56 84.28125 50.015625 
Q 88.921875 44.046875 88.921875 33.015625 
L 88.921875 0 
L 79.890625 0 
L 79.890625 32.71875 
Q 79.890625 40.578125 77.09375 44.375 
Q 74.3125 48.1875 68.609375 48.1875 
Q 61.625 48.1875 57.5625 43.546875 
Q 53.515625 38.921875 53.515625 30.90625 
L 53.515625 0 
L 44.484375 0 
L 44.484375 32.71875 
Q 44.484375 40.625 41.703125 44.40625 
Q 38.921875 48.1875 33.109375 48.1875 
Q 26.21875 48.1875 22.15625 43.53125 
Q 18.109375 38.875 18.109375 30.90625 
L 18.109375 0 
L 9.078125 0 
L 9.078125 54.6875 
L 18.109375 54.6875 
L 18.109375 46.1875 
Q 21.1875 51.21875 25.484375 53.609375 
Q 29.78125 56 35.6875 56 
Q 41.65625 56 45.828125 52.96875 
Q 50 49.953125 52 44.1875 
z
" id="DejaVuSans-6d"/>
     </defs>
     <g transform="translate(304.44375 627.120313)scale(0.1 -0.1)">
      <use xlink:href="#DejaVuSans-43"/>
      <use x="69.824219" xlink:href="#DejaVuSans-6f"/>
      <use x="131.005859" xlink:href="#DejaVuSans-65"/>
      <use x="192.529297" xlink:href="#DejaVuSans-66"/>
      <use x="227.734375" xlink:href="#DejaVuSans-66"/>
      <use x="262.939453" xlink:href="#DejaVuSans-69"/>
      <use x="290.722656" xlink:href="#DejaVuSans-63"/>
      <use x="345.703125" xlink:href="#DejaVuSans-69"/>
      <use x="373.486328" xlink:href="#DejaVuSans-65"/>
      <use x="435.009766" xlink:href="#DejaVuSans-6e"/>
      <use x="498.388672" xlink:href="#DejaVuSans-74"/>
      <use x="537.597656" xlink:href="#DejaVuSans-20"/>
      <use x="569.384766" xlink:href="#DejaVuSans-6e"/>
      <use x="632.763672" xlink:href="#DejaVuSans-61"/>
      <use x="694.042969" xlink:href="#DejaVuSans-6d"/>
      <use x="791.455078" xlink:href="#DejaVuSans-65"/>
     </g>
    </g>
   </g>
   <g id="matplotlib.axis_4">
    <g id="ytick_6">
     <g id="line2d_24">
      <g>
       <use style="stroke:#000000;stroke-width:0.8;" x="68.485938" xlink:href="#ma3ea125798" y="535.699896"/>
      </g>
     </g>
     <g id="text_25">
      <!-- −0.005 -->
      <g transform="translate(24.478125 539.499115)scale(0.1 -0.1)">
       <use xlink:href="#DejaVuSans-2212"/>
       <use x="83.789062" xlink:href="#DejaVuSans-30"/>
       <use x="147.412109" xlink:href="#DejaVuSans-2e"/>
       <use x="179.199219" xlink:href="#DejaVuSans-30"/>
       <use x="242.822266" xlink:href="#DejaVuSans-30"/>
       <use x="306.445312" xlink:href="#DejaVuSans-35"/>
      </g>
     </g>
    </g>
    <g id="ytick_7">
     <g id="line2d_25">
      <g>
       <use style="stroke:#000000;stroke-width:0.8;" x="68.485938" xlink:href="#ma3ea125798" y="484.481258"/>
      </g>
     </g>
     <g id="text_26">
      <!-- 0.000 -->
      <g transform="translate(32.857813 488.280477)scale(0.1 -0.1)">
       <use xlink:href="#DejaVuSans-30"/>
       <use x="63.623047" xlink:href="#DejaVuSans-2e"/>
       <use x="95.410156" xlink:href="#DejaVuSans-30"/>
       <use x="159.033203" xlink:href="#DejaVuSans-30"/>
       <use x="222.65625" xlink:href="#DejaVuSans-30"/>
      </g>
     </g>
    </g>
    <g id="ytick_8">
     <g id="line2d_26">
      <g>
       <use style="stroke:#000000;stroke-width:0.8;" x="68.485938" xlink:href="#ma3ea125798" y="433.26262"/>
      </g>
     </g>
     <g id="text_27">
      <!-- 0.005 -->
      <g transform="translate(32.857813 437.061839)scale(0.1 -0.1)">
       <use xlink:href="#DejaVuSans-30"/>
       <use x="63.623047" xlink:href="#DejaVuSans-2e"/>
       <use x="95.410156" xlink:href="#DejaVuSans-30"/>
       <use x="159.033203" xlink:href="#DejaVuSans-30"/>
       <use x="222.65625" xlink:href="#DejaVuSans-35"/>
      </g>
     </g>
    </g>
    <g id="ytick_9">
     <g id="line2d_27">
      <g>
       <use style="stroke:#000000;stroke-width:0.8;" x="68.485938" xlink:href="#ma3ea125798" y="382.043982"/>
      </g>
     </g>
     <g id="text_28">
      <!-- 0.010 -->
      <g transform="translate(32.857813 385.843201)scale(0.1 -0.1)">
       <use xlink:href="#DejaVuSans-30"/>
       <use x="63.623047" xlink:href="#DejaVuSans-2e"/>
       <use x="95.410156" xlink:href="#DejaVuSans-30"/>
       <use x="159.033203" xlink:href="#DejaVuSans-31"/>
       <use x="222.65625" xlink:href="#DejaVuSans-30"/>
      </g>
     </g>
    </g>
    <g id="ytick_10">
     <g id="line2d_28">
      <g>
       <use style="stroke:#000000;stroke-width:0.8;" x="68.485938" xlink:href="#ma3ea125798" y="330.825345"/>
      </g>
     </g>
     <g id="text_29">
      <!-- 0.015 -->
      <g transform="translate(32.857813 334.624563)scale(0.1 -0.1)">
       <use xlink:href="#DejaVuSans-30"/>
       <use x="63.623047" xlink:href="#DejaVuSans-2e"/>
       <use x="95.410156" xlink:href="#DejaVuSans-30"/>
       <use x="159.033203" xlink:href="#DejaVuSans-31"/>
       <use x="222.65625" xlink:href="#DejaVuSans-35"/>
      </g>
     </g>
    </g>
    <g id="text_30">
     <!-- Coefficient value -->
     <defs>
      <path d="M 2.984375 54.6875 
L 12.5 54.6875 
L 29.59375 8.796875 
L 46.6875 54.6875 
L 56.203125 54.6875 
L 35.6875 0 
L 23.484375 0 
z
" id="DejaVuSans-76"/>
      <path d="M 8.5 21.578125 
L 8.5 54.6875 
L 17.484375 54.6875 
L 17.484375 21.921875 
Q 17.484375 14.15625 20.5 10.265625 
Q 23.53125 6.390625 29.59375 6.390625 
Q 36.859375 6.390625 41.078125 11.03125 
Q 45.3125 15.671875 45.3125 23.6875 
L 45.3125 54.6875 
L 54.296875 54.6875 
L 54.296875 0 
L 45.3125 0 
L 45.3125 8.40625 
Q 42.046875 3.421875 37.71875 1 
Q 33.40625 -1.421875 27.6875 -1.421875 
Q 18.265625 -1.421875 13.375 4.4375 
Q 8.5 10.296875 8.5 21.578125 
z
M 31.109375 56 
z
" id="DejaVuSans-75"/>
     </defs>
     <g transform="translate(18.398438 482.979051)rotate(-90)scale(0.1 -0.1)">
      <use xlink:href="#DejaVuSans-43"/>
      <use x="69.824219" xlink:href="#DejaVuSans-6f"/>
      <use x="131.005859" xlink:href="#DejaVuSans-65"/>
      <use x="192.529297" xlink:href="#DejaVuSans-66"/>
      <use x="227.734375" xlink:href="#DejaVuSans-66"/>
      <use x="262.939453" xlink:href="#DejaVuSans-69"/>
      <use x="290.722656" xlink:href="#DejaVuSans-63"/>
      <use x="345.703125" xlink:href="#DejaVuSans-69"/>
      <use x="373.486328" xlink:href="#DejaVuSans-65"/>
      <use x="435.009766" xlink:href="#DejaVuSans-6e"/>
      <use x="498.388672" xlink:href="#DejaVuSans-74"/>
      <use x="537.597656" xlink:href="#DejaVuSans-20"/>
      <use x="569.384766" xlink:href="#DejaVuSans-76"/>
      <use x="628.564453" xlink:href="#DejaVuSans-61"/>
      <use x="689.84375" xlink:href="#DejaVuSans-6c"/>
      <use x="717.626953" xlink:href="#DejaVuSans-75"/>
      <use x="781.005859" xlink:href="#DejaVuSans-65"/>
     </g>
    </g>
   </g>
   <g id="patch_18">
    <path d="M 68.485938 561.618598 
L 68.485938 320.084816 
" style="fill:none;stroke:#000000;stroke-linecap:square;stroke-linejoin:miter;stroke-width:0.8;"/>
   </g>
   <g id="patch_19">
    <path d="M 625.7 561.618598 
L 625.7 320.084816 
" style="fill:none;stroke:#000000;stroke-linecap:square;stroke-linejoin:miter;stroke-width:0.8;"/>
   </g>
   <g id="patch_20">
    <path d="M 68.485938 561.618598 
L 625.7 561.618598 
" style="fill:none;stroke:#000000;stroke-linecap:square;stroke-linejoin:miter;stroke-width:0.8;"/>
   </g>
   <g id="patch_21">
    <path d="M 68.485938 320.084816 
L 625.7 320.084816 
" style="fill:none;stroke:#000000;stroke-linecap:square;stroke-linejoin:miter;stroke-width:0.8;"/>
   </g>
  </g>
 </g>
 <defs>
  <clipPath id="p6e370d8c65">
   <rect height="241.533782" width="557.214063" x="68.485938" y="14.3"/>
  </clipPath>
  <clipPath id="pbeac345583">
   <rect height="241.533782" width="557.214063" x="68.485938" y="320.084816"/>
  </clipPath>
 </defs>
</svg>
