<?xml version="1.0" encoding="utf-8" standalone="no"?>
<!DOCTYPE svg PUBLIC "-//W3C//DTD SVG 1.1//EN"
  "http://www.w3.org/Graphics/SVG/1.1/DTD/svg11.dtd">
<!-- Created with matplotlib (http://matplotlib.org/) -->
<svg height="233pt" version="1.1" viewBox="0 0 400 233" width="400pt" xmlns="http://www.w3.org/2000/svg" xmlns:xlink="http://www.w3.org/1999/xlink">
 <defs>
  <style type="text/css">
*{stroke-linecap:butt;stroke-linejoin:round;}
  </style>
 </defs>
 <g id="figure_1">
  <g id="patch_1">
   <path d="M 0 233 
L 400 233 
L 400 0 
L 0 0 
z
" style="fill:#ffffff;"/>
  </g>
  <g id="axes_1">
   <g id="patch_2">
    <path d="M 48.445313 172.248967 
L 337.375 172.248967 
L 337.375 37.326875 
L 48.445313 37.326875 
z
" style="fill:#ffffff;"/>
   </g>
   <g id="matplotlib.axis_1">
    <g id="xtick_1">
     <g id="line2d_1">
      <defs>
       <path d="M 0 0 
L 0 3.5 
" id="m44a816fcd1" style="stroke:#000000;stroke-width:0.8;"/>
      </defs>
      <g>
       <use style="stroke:#000000;stroke-width:0.8;" x="85.812301" xlink:href="#m44a816fcd1" y="172.248967"/>
      </g>
     </g>
     <g id="text_1">
      <!-- 2010-04 -->
      <defs>
       <path d="M 19.1875 8.296875 
L 53.609375 8.296875 
L 53.609375 0 
L 7.328125 0 
L 7.328125 8.296875 
Q 12.9375 14.109375 22.625 23.890625 
Q 32.328125 33.6875 34.8125 36.53125 
Q 39.546875 41.84375 41.421875 45.53125 
Q 43.3125 49.21875 43.3125 52.78125 
Q 43.3125 58.59375 39.234375 62.25 
Q 35.15625 65.921875 28.609375 65.921875 
Q 23.96875 65.921875 18.8125 64.3125 
Q 13.671875 62.703125 7.8125 59.421875 
L 7.8125 69.390625 
Q 13.765625 71.78125 18.9375 73 
Q 24.125 74.21875 28.421875 74.21875 
Q 39.75 74.21875 46.484375 68.546875 
Q 53.21875 62.890625 53.21875 53.421875 
Q 53.21875 48.921875 51.53125 44.890625 
Q 49.859375 40.875 45.40625 35.40625 
Q 44.1875 33.984375 37.640625 27.21875 
Q 31.109375 20.453125 19.1875 8.296875 
z
" id="DejaVuSans-32"/>
       <path d="M 31.78125 66.40625 
Q 24.171875 66.40625 20.328125 58.90625 
Q 16.5 51.421875 16.5 36.375 
Q 16.5 21.390625 20.328125 13.890625 
Q 24.171875 6.390625 31.78125 6.390625 
Q 39.453125 6.390625 43.28125 13.890625 
Q 47.125 21.390625 47.125 36.375 
Q 47.125 51.421875 43.28125 58.90625 
Q 39.453125 66.40625 31.78125 66.40625 
z
M 31.78125 74.21875 
Q 44.046875 74.21875 50.515625 64.515625 
Q 56.984375 54.828125 56.984375 36.375 
Q 56.984375 17.96875 50.515625 8.265625 
Q 44.046875 -1.421875 31.78125 -1.421875 
Q 19.53125 -1.421875 13.0625 8.265625 
Q 6.59375 17.96875 6.59375 36.375 
Q 6.59375 54.828125 13.0625 64.515625 
Q 19.53125 74.21875 31.78125 74.21875 
z
" id="DejaVuSans-30"/>
       <path d="M 12.40625 8.296875 
L 28.515625 8.296875 
L 28.515625 63.921875 
L 10.984375 60.40625 
L 10.984375 69.390625 
L 28.421875 72.90625 
L 38.28125 72.90625 
L 38.28125 8.296875 
L 54.390625 8.296875 
L 54.390625 0 
L 12.40625 0 
z
" id="DejaVuSans-31"/>
       <path d="M 4.890625 31.390625 
L 31.203125 31.390625 
L 31.203125 23.390625 
L 4.890625 23.390625 
z
" id="DejaVuSans-2d"/>
       <path d="M 37.796875 64.3125 
L 12.890625 25.390625 
L 37.796875 25.390625 
z
M 35.203125 72.90625 
L 47.609375 72.90625 
L 47.609375 25.390625 
L 58.015625 25.390625 
L 58.015625 17.1875 
L 47.609375 17.1875 
L 47.609375 0 
L 37.796875 0 
L 37.796875 17.1875 
L 4.890625 17.1875 
L 4.890625 26.703125 
z
" id="DejaVuSans-34"/>
      </defs>
      <g transform="translate(48.58748 206.720813)rotate(-30)scale(0.1 -0.1)">
       <use xlink:href="#DejaVuSans-32"/>
       <use x="63.623047" xlink:href="#DejaVuSans-30"/>
       <use x="127.246094" xlink:href="#DejaVuSans-31"/>
       <use x="190.869141" xlink:href="#DejaVuSans-30"/>
       <use x="254.492188" xlink:href="#DejaVuSans-2d"/>
       <use x="290.576172" xlink:href="#DejaVuSans-30"/>
       <use x="354.199219" xlink:href="#DejaVuSans-34"/>
      </g>
     </g>
    </g>
    <g id="xtick_2">
     <g id="line2d_2">
      <g>
       <use style="stroke:#000000;stroke-width:0.8;" x="133.498208" xlink:href="#m44a816fcd1" y="172.248967"/>
      </g>
     </g>
     <g id="text_2">
      <!-- 2010-06 -->
      <defs>
       <path d="M 33.015625 40.375 
Q 26.375 40.375 22.484375 35.828125 
Q 18.609375 31.296875 18.609375 23.390625 
Q 18.609375 15.53125 22.484375 10.953125 
Q 26.375 6.390625 33.015625 6.390625 
Q 39.65625 6.390625 43.53125 10.953125 
Q 47.40625 15.53125 47.40625 23.390625 
Q 47.40625 31.296875 43.53125 35.828125 
Q 39.65625 40.375 33.015625 40.375 
z
M 52.59375 71.296875 
L 52.59375 62.3125 
Q 48.875 64.0625 45.09375 64.984375 
Q 41.3125 65.921875 37.59375 65.921875 
Q 27.828125 65.921875 22.671875 59.328125 
Q 17.53125 52.734375 16.796875 39.40625 
Q 19.671875 43.65625 24.015625 45.921875 
Q 28.375 48.1875 33.59375 48.1875 
Q 44.578125 48.1875 50.953125 41.515625 
Q 57.328125 34.859375 57.328125 23.390625 
Q 57.328125 12.15625 50.6875 5.359375 
Q 44.046875 -1.421875 33.015625 -1.421875 
Q 20.359375 -1.421875 13.671875 8.265625 
Q 6.984375 17.96875 6.984375 36.375 
Q 6.984375 53.65625 15.1875 63.9375 
Q 23.390625 74.21875 37.203125 74.21875 
Q 40.921875 74.21875 44.703125 73.484375 
Q 48.484375 72.75 52.59375 71.296875 
z
" id="DejaVuSans-36"/>
      </defs>
      <g transform="translate(96.273387 206.720813)rotate(-30)scale(0.1 -0.1)">
       <use xlink:href="#DejaVuSans-32"/>
       <use x="63.623047" xlink:href="#DejaVuSans-30"/>
       <use x="127.246094" xlink:href="#DejaVuSans-31"/>
       <use x="190.869141" xlink:href="#DejaVuSans-30"/>
       <use x="254.492188" xlink:href="#DejaVuSans-2d"/>
       <use x="290.576172" xlink:href="#DejaVuSans-30"/>
       <use x="354.199219" xlink:href="#DejaVuSans-36"/>
      </g>
     </g>
    </g>
    <g id="xtick_3">
     <g id="line2d_3">
      <g>
       <use style="stroke:#000000;stroke-width:0.8;" x="181.184114" xlink:href="#m44a816fcd1" y="172.248967"/>
      </g>
     </g>
     <g id="text_3">
      <!-- 2010-08 -->
      <defs>
       <path d="M 31.78125 34.625 
Q 24.75 34.625 20.71875 30.859375 
Q 16.703125 27.09375 16.703125 20.515625 
Q 16.703125 13.921875 20.71875 10.15625 
Q 24.75 6.390625 31.78125 6.390625 
Q 38.8125 6.390625 42.859375 10.171875 
Q 46.921875 13.96875 46.921875 20.515625 
Q 46.921875 27.09375 42.890625 30.859375 
Q 38.875 34.625 31.78125 34.625 
z
M 21.921875 38.8125 
Q 15.578125 40.375 12.03125 44.71875 
Q 8.5 49.078125 8.5 55.328125 
Q 8.5 64.0625 14.71875 69.140625 
Q 20.953125 74.21875 31.78125 74.21875 
Q 42.671875 74.21875 48.875 69.140625 
Q 55.078125 64.0625 55.078125 55.328125 
Q 55.078125 49.078125 51.53125 44.71875 
Q 48 40.375 41.703125 38.8125 
Q 48.828125 37.15625 52.796875 32.3125 
Q 56.78125 27.484375 56.78125 20.515625 
Q 56.78125 9.90625 50.3125 4.234375 
Q 43.84375 -1.421875 31.78125 -1.421875 
Q 19.734375 -1.421875 13.25 4.234375 
Q 6.78125 9.90625 6.78125 20.515625 
Q 6.78125 27.484375 10.78125 32.3125 
Q 14.796875 37.15625 21.921875 38.8125 
z
M 18.3125 54.390625 
Q 18.3125 48.734375 21.84375 45.5625 
Q 25.390625 42.390625 31.78125 42.390625 
Q 38.140625 42.390625 41.71875 45.5625 
Q 45.3125 48.734375 45.3125 54.390625 
Q 45.3125 60.0625 41.71875 63.234375 
Q 38.140625 66.40625 31.78125 66.40625 
Q 25.390625 66.40625 21.84375 63.234375 
Q 18.3125 60.0625 18.3125 54.390625 
z
" id="DejaVuSans-38"/>
      </defs>
      <g transform="translate(143.959293 206.720813)rotate(-30)scale(0.1 -0.1)">
       <use xlink:href="#DejaVuSans-32"/>
       <use x="63.623047" xlink:href="#DejaVuSans-30"/>
       <use x="127.246094" xlink:href="#DejaVuSans-31"/>
       <use x="190.869141" xlink:href="#DejaVuSans-30"/>
       <use x="254.492188" xlink:href="#DejaVuSans-2d"/>
       <use x="290.576172" xlink:href="#DejaVuSans-30"/>
       <use x="354.199219" xlink:href="#DejaVuSans-38"/>
      </g>
     </g>
    </g>
    <g id="xtick_4">
     <g id="line2d_4">
      <g>
       <use style="stroke:#000000;stroke-width:0.8;" x="228.87002" xlink:href="#m44a816fcd1" y="172.248967"/>
      </g>
     </g>
     <g id="text_4">
      <!-- 2010-10 -->
      <g transform="translate(191.645199 206.720813)rotate(-30)scale(0.1 -0.1)">
       <use xlink:href="#DejaVuSans-32"/>
       <use x="63.623047" xlink:href="#DejaVuSans-30"/>
       <use x="127.246094" xlink:href="#DejaVuSans-31"/>
       <use x="190.869141" xlink:href="#DejaVuSans-30"/>
       <use x="254.492188" xlink:href="#DejaVuSans-2d"/>
       <use x="290.576172" xlink:href="#DejaVuSans-31"/>
       <use x="354.199219" xlink:href="#DejaVuSans-30"/>
      </g>
     </g>
    </g>
    <g id="xtick_5">
     <g id="line2d_5">
      <g>
       <use style="stroke:#000000;stroke-width:0.8;" x="276.555926" xlink:href="#m44a816fcd1" y="172.248967"/>
      </g>
     </g>
     <g id="text_5">
      <!-- 2010-12 -->
      <g transform="translate(239.331105 206.720813)rotate(-30)scale(0.1 -0.1)">
       <use xlink:href="#DejaVuSans-32"/>
       <use x="63.623047" xlink:href="#DejaVuSans-30"/>
       <use x="127.246094" xlink:href="#DejaVuSans-31"/>
       <use x="190.869141" xlink:href="#DejaVuSans-30"/>
       <use x="254.492188" xlink:href="#DejaVuSans-2d"/>
       <use x="290.576172" xlink:href="#DejaVuSans-31"/>
       <use x="354.199219" xlink:href="#DejaVuSans-32"/>
      </g>
     </g>
    </g>
    <g id="xtick_6">
     <g id="line2d_6">
      <g>
       <use style="stroke:#000000;stroke-width:0.8;" x="325.023569" xlink:href="#m44a816fcd1" y="172.248967"/>
      </g>
     </g>
     <g id="text_6">
      <!-- 2011-02 -->
      <g transform="translate(287.798748 206.720813)rotate(-30)scale(0.1 -0.1)">
       <use xlink:href="#DejaVuSans-32"/>
       <use x="63.623047" xlink:href="#DejaVuSans-30"/>
       <use x="127.246094" xlink:href="#DejaVuSans-31"/>
       <use x="190.869141" xlink:href="#DejaVuSans-31"/>
       <use x="254.492188" xlink:href="#DejaVuSans-2d"/>
       <use x="290.576172" xlink:href="#DejaVuSans-30"/>
       <use x="354.199219" xlink:href="#DejaVuSans-32"/>
      </g>
     </g>
    </g>
    <g id="text_7">
     <!-- date -->
     <defs>
      <path d="M 45.40625 46.390625 
L 45.40625 75.984375 
L 54.390625 75.984375 
L 54.390625 0 
L 45.40625 0 
L 45.40625 8.203125 
Q 42.578125 3.328125 38.25 0.953125 
Q 33.9375 -1.421875 27.875 -1.421875 
Q 17.96875 -1.421875 11.734375 6.484375 
Q 5.515625 14.40625 5.515625 27.296875 
Q 5.515625 40.1875 11.734375 48.09375 
Q 17.96875 56 27.875 56 
Q 33.9375 56 38.25 53.625 
Q 42.578125 51.265625 45.40625 46.390625 
z
M 14.796875 27.296875 
Q 14.796875 17.390625 18.875 11.75 
Q 22.953125 6.109375 30.078125 6.109375 
Q 37.203125 6.109375 41.296875 11.75 
Q 45.40625 17.390625 45.40625 27.296875 
Q 45.40625 37.203125 41.296875 42.84375 
Q 37.203125 48.484375 30.078125 48.484375 
Q 22.953125 48.484375 18.875 42.84375 
Q 14.796875 37.203125 14.796875 27.296875 
z
" id="DejaVuSans-64"/>
      <path d="M 34.28125 27.484375 
Q 23.390625 27.484375 19.1875 25 
Q 14.984375 22.515625 14.984375 16.5 
Q 14.984375 11.71875 18.140625 8.90625 
Q 21.296875 6.109375 26.703125 6.109375 
Q 34.1875 6.109375 38.703125 11.40625 
Q 43.21875 16.703125 43.21875 25.484375 
L 43.21875 27.484375 
z
M 52.203125 31.203125 
L 52.203125 0 
L 43.21875 0 
L 43.21875 8.296875 
Q 40.140625 3.328125 35.546875 0.953125 
Q 30.953125 -1.421875 24.3125 -1.421875 
Q 15.921875 -1.421875 10.953125 3.296875 
Q 6 8.015625 6 15.921875 
Q 6 25.140625 12.171875 29.828125 
Q 18.359375 34.515625 30.609375 34.515625 
L 43.21875 34.515625 
L 43.21875 35.40625 
Q 43.21875 41.609375 39.140625 45 
Q 35.0625 48.390625 27.6875 48.390625 
Q 23 48.390625 18.546875 47.265625 
Q 14.109375 46.140625 10.015625 43.890625 
L 10.015625 52.203125 
Q 14.9375 54.109375 19.578125 55.046875 
Q 24.21875 56 28.609375 56 
Q 40.484375 56 46.34375 49.84375 
Q 52.203125 43.703125 52.203125 31.203125 
z
" id="DejaVuSans-61"/>
      <path d="M 18.3125 70.21875 
L 18.3125 54.6875 
L 36.8125 54.6875 
L 36.8125 47.703125 
L 18.3125 47.703125 
L 18.3125 18.015625 
Q 18.3125 11.328125 20.140625 9.421875 
Q 21.96875 7.515625 27.59375 7.515625 
L 36.8125 7.515625 
L 36.8125 0 
L 27.59375 0 
Q 17.1875 0 13.234375 3.875 
Q 9.28125 7.765625 9.28125 18.015625 
L 9.28125 47.703125 
L 2.6875 47.703125 
L 2.6875 54.6875 
L 9.28125 54.6875 
L 9.28125 70.21875 
z
" id="DejaVuSans-74"/>
      <path d="M 56.203125 29.59375 
L 56.203125 25.203125 
L 14.890625 25.203125 
Q 15.484375 15.921875 20.484375 11.0625 
Q 25.484375 6.203125 34.421875 6.203125 
Q 39.59375 6.203125 44.453125 7.46875 
Q 49.3125 8.734375 54.109375 11.28125 
L 54.109375 2.78125 
Q 49.265625 0.734375 44.1875 -0.34375 
Q 39.109375 -1.421875 33.890625 -1.421875 
Q 20.796875 -1.421875 13.15625 6.1875 
Q 5.515625 13.8125 5.515625 26.8125 
Q 5.515625 40.234375 12.765625 48.109375 
Q 20.015625 56 32.328125 56 
Q 43.359375 56 49.78125 48.890625 
Q 56.203125 41.796875 56.203125 29.59375 
z
M 47.21875 32.234375 
Q 47.125 39.59375 43.09375 43.984375 
Q 39.0625 48.390625 32.421875 48.390625 
Q 24.90625 48.390625 20.390625 44.140625 
Q 15.875 39.890625 15.1875 32.171875 
z
" id="DejaVuSans-65"/>
     </defs>
     <g transform="translate(181.635156 220.120313)scale(0.1 -0.1)">
      <use xlink:href="#DejaVuSans-64"/>
      <use x="63.476562" xlink:href="#DejaVuSans-61"/>
      <use x="124.755859" xlink:href="#DejaVuSans-74"/>
      <use x="163.964844" xlink:href="#DejaVuSans-65"/>
     </g>
    </g>
   </g>
   <g id="matplotlib.axis_2">
    <g id="ytick_1">
     <g id="line2d_7">
      <defs>
       <path d="M 0 0 
L -3.5 0 
" id="m8c38d8826f" style="stroke:#000000;stroke-width:0.8;"/>
      </defs>
      <g>
       <use style="stroke:#000000;stroke-width:0.8;" x="48.445313" xlink:href="#m8c38d8826f" y="159.153252"/>
      </g>
     </g>
     <g id="text_8">
      <!-- −0.10 -->
      <defs>
       <path d="M 10.59375 35.5 
L 73.1875 35.5 
L 73.1875 27.203125 
L 10.59375 27.203125 
z
" id="DejaVuSans-2212"/>
       <path d="M 10.6875 12.40625 
L 21 12.40625 
L 21 0 
L 10.6875 0 
z
" id="DejaVuSans-2e"/>
      </defs>
      <g transform="translate(10.8 162.95247)scale(0.1 -0.1)">
       <use xlink:href="#DejaVuSans-2212"/>
       <use x="83.789062" xlink:href="#DejaVuSans-30"/>
       <use x="147.412109" xlink:href="#DejaVuSans-2e"/>
       <use x="179.199219" xlink:href="#DejaVuSans-31"/>
       <use x="242.822266" xlink:href="#DejaVuSans-30"/>
      </g>
     </g>
    </g>
    <g id="ytick_2">
     <g id="line2d_8">
      <g>
       <use style="stroke:#000000;stroke-width:0.8;" x="48.445313" xlink:href="#m8c38d8826f" y="134.497895"/>
      </g>
     </g>
     <g id="text_9">
      <!-- −0.05 -->
      <defs>
       <path d="M 10.796875 72.90625 
L 49.515625 72.90625 
L 49.515625 64.59375 
L 19.828125 64.59375 
L 19.828125 46.734375 
Q 21.96875 47.46875 24.109375 47.828125 
Q 26.265625 48.1875 28.421875 48.1875 
Q 40.625 48.1875 47.75 41.5 
Q 54.890625 34.8125 54.890625 23.390625 
Q 54.890625 11.625 47.5625 5.09375 
Q 40.234375 -1.421875 26.90625 -1.421875 
Q 22.3125 -1.421875 17.546875 -0.640625 
Q 12.796875 0.140625 7.71875 1.703125 
L 7.71875 11.625 
Q 12.109375 9.234375 16.796875 8.0625 
Q 21.484375 6.890625 26.703125 6.890625 
Q 35.15625 6.890625 40.078125 11.328125 
Q 45.015625 15.765625 45.015625 23.390625 
Q 45.015625 31 40.078125 35.4375 
Q 35.15625 39.890625 26.703125 39.890625 
Q 22.75 39.890625 18.8125 39.015625 
Q 14.890625 38.140625 10.796875 36.28125 
z
" id="DejaVuSans-35"/>
      </defs>
      <g transform="translate(10.8 138.297114)scale(0.1 -0.1)">
       <use xlink:href="#DejaVuSans-2212"/>
       <use x="83.789062" xlink:href="#DejaVuSans-30"/>
       <use x="147.412109" xlink:href="#DejaVuSans-2e"/>
       <use x="179.199219" xlink:href="#DejaVuSans-30"/>
       <use x="242.822266" xlink:href="#DejaVuSans-35"/>
      </g>
     </g>
    </g>
    <g id="ytick_3">
     <g id="line2d_9">
      <g>
       <use style="stroke:#000000;stroke-width:0.8;" x="48.445313" xlink:href="#m8c38d8826f" y="109.842538"/>
      </g>
     </g>
     <g id="text_10">
      <!-- 0.00 -->
      <g transform="translate(19.179688 113.641757)scale(0.1 -0.1)">
       <use xlink:href="#DejaVuSans-30"/>
       <use x="63.623047" xlink:href="#DejaVuSans-2e"/>
       <use x="95.410156" xlink:href="#DejaVuSans-30"/>
       <use x="159.033203" xlink:href="#DejaVuSans-30"/>
      </g>
     </g>
    </g>
    <g id="ytick_4">
     <g id="line2d_10">
      <g>
       <use style="stroke:#000000;stroke-width:0.8;" x="48.445313" xlink:href="#m8c38d8826f" y="85.187181"/>
      </g>
     </g>
     <g id="text_11">
      <!-- 0.05 -->
      <g transform="translate(19.179688 88.9864)scale(0.1 -0.1)">
       <use xlink:href="#DejaVuSans-30"/>
       <use x="63.623047" xlink:href="#DejaVuSans-2e"/>
       <use x="95.410156" xlink:href="#DejaVuSans-30"/>
       <use x="159.033203" xlink:href="#DejaVuSans-35"/>
      </g>
     </g>
    </g>
    <g id="ytick_5">
     <g id="line2d_11">
      <g>
       <use style="stroke:#000000;stroke-width:0.8;" x="48.445313" xlink:href="#m8c38d8826f" y="60.531825"/>
      </g>
     </g>
     <g id="text_12">
      <!-- 0.10 -->
      <g transform="translate(19.179688 64.331043)scale(0.1 -0.1)">
       <use xlink:href="#DejaVuSans-30"/>
       <use x="63.623047" xlink:href="#DejaVuSans-2e"/>
       <use x="95.410156" xlink:href="#DejaVuSans-31"/>
       <use x="159.033203" xlink:href="#DejaVuSans-30"/>
      </g>
     </g>
    </g>
   </g>
   <g id="line2d_12">
    <path clip-path="url(#p69d5c476d1)" d="M 61.57848 136.288375 
L 68.614106 136.288375 
L 69.395842 135.264806 
L 70.177578 133.376227 
L 72.522786 118.926144 
L 73.304523 114.918871 
L 74.086259 111.939654 
L 74.867995 108.503487 
L 77.99494 108.503487 
L 78.776676 104.672484 
L 79.558412 104.672484 
L 80.340148 102.356988 
L 81.121884 94.250796 
L 83.467093 94.250796 
L 84.248829 94.598575 
L 85.030565 97.203891 
L 85.812301 107.119257 
L 88.939246 107.119257 
L 89.720982 107.512753 
L 90.502718 109.857441 
L 91.284454 116.817611 
L 92.066191 118.281337 
L 96.756608 118.281337 
L 97.538344 121.38953 
L 99.883552 121.969612 
L 101.447025 121.969612 
L 102.228761 142.926123 
L 103.010497 149.234359 
L 105.355705 149.234359 
L 106.137442 157.252356 
L 106.919178 157.698733 
L 110.827859 157.698733 
L 111.609595 158.86991 
L 112.391331 162.05795 
L 113.173067 166.116144 
L 134.279944 166.116144 
L 135.06168 165.009567 
L 135.843416 156.864451 
L 138.188625 156.864451 
L 139.752097 154.275065 
L 140.533833 153.796474 
L 145.22425 153.796474 
L 146.005986 153.309543 
L 146.787722 139.101175 
L 149.132931 136.573779 
L 149.914667 132.733103 
L 150.696403 132.733103 
L 151.478139 132.879346 
L 152.259876 132.879346 
L 154.605084 133.933194 
L 155.38682 152.642029 
L 156.168556 157.083442 
L 156.950293 157.083442 
L 157.732029 159.267919 
L 178.057169 159.267919 
L 178.838905 158.902561 
L 179.620641 158.902561 
L 181.96585 152.656539 
L 182.747586 141.089639 
L 183.529322 135.418513 
L 184.311058 125.307073 
L 185.092795 123.664383 
L 187.438003 119.377612 
L 189.783212 119.377612 
L 190.564948 112.926654 
L 192.910156 111.727894 
L 193.691892 111.727894 
L 194.473629 104.314402 
L 205.417935 104.314402 
L 206.199671 103.706153 
L 210.890088 103.706153 
L 211.671824 99.94832 
L 212.45356 99.550455 
L 214.798769 94.431715 
L 215.580505 94.450978 
L 216.362241 96.672008 
L 217.143977 103.371134 
L 217.925714 103.726327 
L 221.052658 103.726327 
L 221.834394 104.120127 
L 222.616131 104.718762 
L 227.306548 104.718762 
L 228.088284 108.286048 
L 228.87002 108.935151 
L 231.215228 114.913621 
L 234.342173 114.972539 
L 236.687382 115.808448 
L 250.758633 115.808448 
L 253.103841 113.202316 
L 256.230786 113.202316 
L 258.575994 109.980335 
L 259.35773 107.224507 
L 269.520301 107.224507 
L 270.302037 109.839039 
L 272.647245 109.839039 
L 274.992454 112.336319 
L 275.77419 127.66964 
L 276.555926 130.648657 
L 291.408913 130.648657 
L 292.19065 133.546081 
L 292.972386 134.150801 
L 293.754122 135.735845 
L 299.226275 135.735845 
L 300.008011 137.194582 
L 316.424471 137.194582 
L 318.769679 136.782188 
L 321.896624 136.673402 
L 324.241832 131.684546 
L 324.241832 131.684546 
" style="fill:none;stroke:#440154;stroke-linecap:square;stroke-width:1.5;"/>
   </g>
   <g id="line2d_13">
    <path clip-path="url(#p69d5c476d1)" d="M 61.57848 130.214027 
L 68.614106 130.214027 
L 69.395842 120.729406 
L 70.177578 115.902017 
L 72.522786 112.836655 
L 73.304523 109.683604 
L 74.086259 105.280968 
L 74.867995 104.094736 
L 77.99494 104.094736 
L 78.776676 100.420766 
L 79.558412 96.167376 
L 80.340148 90.346529 
L 81.121884 85.816005 
L 83.467093 85.989506 
L 84.248829 89.979674 
L 85.030565 89.979674 
L 85.812301 92.31555 
L 88.939246 96.449272 
L 89.720982 98.719142 
L 90.502718 101.438585 
L 91.284454 109.227025 
L 92.066191 110.796526 
L 94.411399 116.909096 
L 95.193135 117.043077 
L 96.756608 117.043077 
L 97.538344 117.798036 
L 99.883552 118.715977 
L 100.665288 119.509182 
L 101.447025 120.771221 
L 102.228761 121.526186 
L 103.010497 124.660849 
L 105.355705 146.879111 
L 106.137442 147.989365 
L 106.919178 149.802462 
L 107.700914 149.802462 
L 108.48265 151.136548 
L 110.827859 151.136548 
L 111.609595 152.533292 
L 112.391331 158.178371 
L 113.173067 159.425708 
L 127.244318 159.425708 
L 128.026054 158.549109 
L 133.498208 158.549109 
L 135.06168 156.588627 
L 135.843416 152.269746 
L 138.188625 152.269746 
L 138.970361 145.299263 
L 139.752097 142.310595 
L 140.533833 141.764919 
L 141.315569 141.764919 
L 143.660778 139.752187 
L 145.22425 139.752187 
L 146.005986 137.626121 
L 146.787722 133.417687 
L 149.132931 131.83602 
L 149.914667 129.948449 
L 150.696403 126.335393 
L 151.478139 126.412363 
L 152.259876 129.574902 
L 154.605084 132.528749 
L 155.38682 132.647271 
L 156.168556 136.440317 
L 156.950293 153.959357 
L 157.732029 156.990754 
L 177.275433 156.990754 
L 178.838905 153.780118 
L 179.620641 143.20692 
L 181.96585 138.151181 
L 182.747586 126.753524 
L 183.529322 124.462435 
L 184.311058 121.126735 
L 185.092795 114.177022 
L 187.438003 110.991378 
L 189.783212 110.991378 
L 190.564948 105.040464 
L 192.910156 103.958899 
L 193.691892 103.958899 
L 194.473629 103.346161 
L 203.854463 103.346161 
L 204.636199 101.889326 
L 205.417935 101.027646 
L 206.199671 97.11133 
L 210.890088 97.11133 
L 211.671824 94.827128 
L 212.45356 93.736625 
L 214.798769 91.55953 
L 215.580505 93.648864 
L 216.362241 93.827871 
L 217.143977 94.87134 
L 217.925714 97.34082 
L 221.052658 97.34082 
L 221.834394 99.230574 
L 222.616131 101.411015 
L 227.306548 101.411015 
L 228.088284 104.30494 
L 228.87002 105.171136 
L 231.215228 108.330933 
L 231.996965 108.330933 
L 232.778701 109.127852 
L 234.342173 109.127852 
L 236.687382 109.846887 
L 237.469118 110.944733 
L 250.758633 110.944733 
L 253.103841 109.528918 
L 253.885577 109.528918 
L 254.667313 107.564733 
L 256.230786 107.564733 
L 258.575994 107.224507 
L 271.083773 107.224507 
L 272.647245 105.375014 
L 274.992454 105.697795 
L 275.77419 110.684916 
L 277.337662 118.327498 
L 278.119399 122.53226 
L 280.464607 123.34268 
L 291.408913 123.34268 
L 292.19065 128.727822 
L 293.754122 134.110786 
L 299.226275 134.110786 
L 300.008011 134.355872 
L 315.642735 134.355872 
L 316.424471 134.151684 
L 318.769679 133.923842 
L 319.551415 133.418133 
L 321.114888 133.418133 
L 321.896624 125.415879 
L 324.241832 123.002849 
L 324.241832 123.002849 
" style="fill:none;stroke:#443983;stroke-linecap:square;stroke-width:1.5;"/>
   </g>
   <g id="line2d_14">
    <path clip-path="url(#p69d5c476d1)" d="M 61.57848 126.080022 
L 63.923689 126.080022 
L 64.705425 122.854373 
L 67.050633 121.227063 
L 67.832369 116.540917 
L 69.395842 110.160234 
L 70.177578 105.961782 
L 72.522786 104.216795 
L 73.304523 102.075438 
L 74.086259 100.373557 
L 74.867995 98.954629 
L 75.649731 96.477097 
L 77.99494 91.171374 
L 78.776676 86.479443 
L 79.558412 84.225044 
L 80.340148 80.39063 
L 81.121884 78.724539 
L 85.812301 78.724539 
L 88.939246 80.821715 
L 90.502718 92.775307 
L 91.284454 96.793067 
L 92.066191 99.029796 
L 94.411399 102.72186 
L 95.193135 109.360212 
L 95.974871 109.650738 
L 96.756608 110.189109 
L 97.538344 112.212976 
L 99.883552 116.855105 
L 100.665288 117.157559 
L 102.228761 118.631006 
L 103.010497 119.642576 
L 105.355705 120.88664 
L 106.137442 121.619868 
L 106.919178 128.260015 
L 107.700914 145.050059 
L 108.48265 147.034928 
L 110.827859 147.034928 
L 111.609595 148.252391 
L 112.391331 149.938106 
L 113.173067 151.266604 
L 113.954803 151.266604 
L 116.300012 153.172229 
L 123.335637 153.172229 
L 124.117374 156.6469 
L 127.244318 156.6469 
L 128.026054 153.075107 
L 129.589527 152.983085 
L 133.498208 152.983085 
L 134.279944 146.381751 
L 135.06168 142.68843 
L 135.843416 141.813884 
L 138.188625 141.813884 
L 138.970361 140.055 
L 139.752097 137.937752 
L 141.315569 135.718619 
L 143.660778 133.517885 
L 144.442514 133.517885 
L 145.22425 132.025545 
L 146.005986 130.241986 
L 146.787722 126.741878 
L 149.132931 124.465151 
L 149.914667 118.590454 
L 150.696403 118.005229 
L 151.478139 118.005229 
L 152.259876 122.285109 
L 155.38682 122.285109 
L 156.168556 123.587959 
L 156.950293 130.05898 
L 157.732029 132.899124 
L 160.858973 139.024786 
L 161.64071 144.812987 
L 177.275433 144.812987 
L 178.057169 138.771982 
L 178.838905 128.584156 
L 179.620641 124.640879 
L 181.96585 121.662857 
L 182.747586 115.275739 
L 183.529322 111.40024 
L 184.311058 105.611323 
L 185.092795 103.439939 
L 187.438003 103.169451 
L 188.219739 102.183569 
L 189.001475 103.439939 
L 189.783212 103.439939 
L 190.564948 102.183569 
L 192.910156 101.702922 
L 193.691892 101.702922 
L 194.473629 100.946871 
L 199.945782 100.946871 
L 200.727518 100.10408 
L 201.509254 97.710694 
L 203.854463 97.710694 
L 204.636199 96.109235 
L 205.417935 94.206143 
L 206.199671 90.486352 
L 206.981407 89.310126 
L 210.108352 90.486352 
L 210.890088 90.486352 
L 211.671824 89.310126 
L 214.798769 89.310126 
L 215.580505 89.602673 
L 216.362241 90.410134 
L 217.143977 91.906062 
L 217.925714 93.664071 
L 221.052658 93.664071 
L 221.834394 93.959513 
L 222.616131 95.251763 
L 223.397867 96.184716 
L 225.743075 97.018629 
L 227.306548 97.018629 
L 228.088284 97.621235 
L 228.87002 99.541469 
L 231.215228 101.883621 
L 231.996965 104.392367 
L 232.778701 105.262021 
L 233.560437 105.262021 
L 234.342173 106.677676 
L 236.687382 107.335443 
L 237.469118 108.458584 
L 249.19516 108.458584 
L 249.976896 107.479838 
L 250.758633 107.224507 
L 253.885577 107.224507 
L 254.667313 107.080112 
L 255.44905 107.080112 
L 256.230786 103.643161 
L 258.575994 97.054401 
L 259.35773 94.004495 
L 260.139467 92.612573 
L 260.921203 89.614434 
L 261.702939 91.173581 
L 264.048147 92.612573 
L 264.829884 93.271682 
L 265.61162 97.830924 
L 266.393356 99.27137 
L 267.175092 103.188828 
L 269.520301 103.188828 
L 270.302037 104.890768 
L 271.083773 103.188828 
L 272.647245 101.633861 
L 274.992454 101.633861 
L 277.337662 106.490217 
L 278.119399 111.033804 
L 280.464607 113.884174 
L 281.246343 114.291599 
L 288.281969 114.291599 
L 289.063705 116.501299 
L 291.408913 117.846641 
L 292.19065 120.30398 
L 292.972386 122.099041 
L 293.754122 124.195114 
L 296.881067 129.133633 
L 297.662803 131.289986 
L 298.444539 131.050915 
L 299.226275 132.234581 
L 300.008011 133.925641 
L 314.860998 133.925641 
L 315.642735 133.502218 
L 316.424471 132.094439 
L 318.769679 131.050915 
L 319.551415 126.110707 
L 320.333152 123.257869 
L 321.114888 121.985636 
L 324.241832 119.442171 
L 324.241832 119.442171 
" style="fill:none;stroke:#31688e;stroke-linecap:square;stroke-width:1.5;"/>
   </g>
   <g id="line2d_15">
    <path clip-path="url(#p69d5c476d1)" d="M 61.57848 115.115644 
L 62.360216 114.009734 
L 63.141952 112.299617 
L 63.923689 110.954618 
L 64.705425 107.096472 
L 67.050633 104.420228 
L 67.832369 102.721413 
L 68.614106 100.725526 
L 69.395842 99.310282 
L 70.177578 96.947288 
L 72.522786 92.546116 
L 73.304523 87.585172 
L 74.086259 84.607933 
L 75.649731 71.991401 
L 77.99494 70.026141 
L 88.939246 70.026141 
L 89.720982 70.339393 
L 90.502718 72.232806 
L 92.066191 78.8964 
L 94.411399 82.403307 
L 95.974871 93.923564 
L 96.756608 97.366057 
L 97.538344 99.547554 
L 99.883552 104.860651 
L 100.665288 109.331918 
L 101.447025 109.775873 
L 102.228761 110.352075 
L 103.010497 113.747947 
L 105.355705 116.892322 
L 106.137442 117.348361 
L 107.700914 118.85134 
L 108.48265 119.993143 
L 110.827859 121.079004 
L 111.609595 121.776004 
L 113.173067 144.860776 
L 113.954803 144.860776 
L 116.300012 146.010892 
L 117.081748 147.294623 
L 123.335637 147.294623 
L 124.117374 148.17138 
L 124.89911 146.010892 
L 128.026054 144.526303 
L 130.371263 140.614092 
L 133.498208 138.457137 
L 134.279944 137.001686 
L 135.06168 135.86852 
L 135.843416 134.062602 
L 138.188625 134.062602 
L 138.970361 132.538022 
L 139.752097 131.906273 
L 140.533833 130.731214 
L 141.315569 127.745504 
L 143.660778 124.889518 
L 145.22425 116.438501 
L 146.005986 114.077377 
L 146.787722 110.604349 
L 149.132931 109.175725 
L 156.168556 109.175725 
L 156.950293 110.60575 
L 157.732029 114.077377 
L 160.858973 114.404026 
L 161.64071 119.236781 
L 162.422446 125.476034 
L 163.204182 127.392643 
L 173.366752 127.392643 
L 174.148488 124.938287 
L 176.493697 122.556395 
L 178.838905 106.925096 
L 179.620641 102.474133 
L 181.96585 100.859907 
L 184.311058 100.783936 
L 185.092795 99.74551 
L 187.438003 99.495124 
L 188.219739 99.194342 
L 189.001475 99.495124 
L 189.783212 98.056959 
L 190.564948 98.056959 
L 192.910156 96.310074 
L 193.691892 94.667214 
L 194.473629 93.319319 
L 195.255365 92.533941 
L 198.382309 92.533941 
L 199.164046 91.347174 
L 199.945782 89.058824 
L 200.727518 89.058824 
L 201.509254 88.371506 
L 204.636199 88.460329 
L 205.417935 86.850139 
L 206.199671 85.541866 
L 206.981407 85.132305 
L 210.108352 85.541866 
L 210.890088 84.591375 
L 211.671824 83.90052 
L 215.580505 83.90052 
L 216.362241 84.586276 
L 217.143977 85.541866 
L 217.925714 87.416791 
L 221.834394 90.422351 
L 222.616131 90.891802 
L 223.397867 90.891802 
L 225.743075 91.185709 
L 226.524811 92.534309 
L 227.306548 94.178917 
L 228.088284 95.239694 
L 228.87002 95.982942 
L 231.215228 96.422545 
L 231.996965 96.857207 
L 232.778701 97.063712 
L 233.560437 98.088594 
L 234.342173 100.059627 
L 236.687382 102.304273 
L 237.469118 103.879629 
L 238.250854 103.879629 
L 239.03259 102.980991 
L 243.723007 102.980991 
L 244.504743 99.711463 
L 245.286479 99.711463 
L 247.631688 99.595123 
L 248.413424 99.2768 
L 249.19516 102.980991 
L 250.758633 102.980991 
L 253.103841 98.852727 
L 253.885577 94.421688 
L 254.667313 92.937482 
L 255.44905 90.505511 
L 256.230786 88.557727 
L 258.575994 75.824258 
L 259.35773 65.754092 
L 260.139467 65.087045 
L 265.61162 65.087045 
L 266.393356 67.584717 
L 267.175092 71.557392 
L 269.520301 82.83262 
L 270.302037 93.512978 
L 271.083773 92.621734 
L 274.992454 92.621734 
L 275.77419 95.332492 
L 277.337662 97.437433 
L 278.119399 99.719325 
L 280.464607 101.973402 
L 281.246343 103.725169 
L 282.028079 104.983684 
L 282.809816 105.822848 
L 283.591552 105.822848 
L 285.93676 107.09627 
L 286.718496 107.09627 
L 287.500233 108.968421 
L 288.281969 108.968421 
L 289.063705 110.319543 
L 291.408913 110.435463 
L 292.19065 111.615284 
L 292.972386 113.04986 
L 293.754122 114.79461 
L 296.881067 116.734855 
L 297.662803 118.491316 
L 299.226275 118.491316 
L 300.008011 120.827295 
L 303.916692 120.741951 
L 305.480164 123.682902 
L 314.860998 123.682902 
L 315.642735 122.268036 
L 316.424471 121.482919 
L 318.769679 120.048981 
L 319.551415 118.305247 
L 321.114888 107.986821 
L 321.896624 103.428607 
L 324.241832 98.950982 
L 324.241832 98.950982 
" style="fill:none;stroke:#21918c;stroke-linecap:square;stroke-width:1.5;"/>
   </g>
   <g id="line2d_16">
    <path clip-path="url(#p69d5c476d1)" d="M 61.57848 104.62366 
L 62.360216 103.367388 
L 63.141952 101.077495 
L 63.923689 99.665935 
L 64.705425 97.773132 
L 67.050633 93.920858 
L 67.832369 88.690902 
L 69.395842 81.150982 
L 70.177578 72.534433 
L 72.522786 70.465738 
L 73.304523 67.42764 
L 74.086259 62.211252 
L 74.867995 61.687541 
L 75.649731 60.926934 
L 89.720982 60.926934 
L 90.502718 61.782317 
L 92.066191 61.782317 
L 94.411399 66.153594 
L 95.193135 70.614935 
L 95.974871 72.58329 
L 96.756608 77.147952 
L 97.538344 79.068261 
L 99.883552 83.9849 
L 100.665288 90.111912 
L 101.447025 95.07182 
L 102.228761 97.939048 
L 103.010497 100.065311 
L 106.137442 109.42876 
L 106.919178 109.901008 
L 107.700914 110.51504 
L 108.48265 115.282918 
L 111.609595 117.539163 
L 113.173067 118.901499 
L 113.954803 118.710697 
L 116.300012 120.343709 
L 117.081748 121.271368 
L 117.863484 121.932139 
L 118.64522 132.960822 
L 119.426957 140.445459 
L 122.553901 140.445459 
L 123.335637 141.977098 
L 124.117374 141.977098 
L 124.89911 141.173184 
L 127.244318 138.976522 
L 128.026054 137.210027 
L 128.807791 136.226762 
L 129.589527 134.389746 
L 130.371263 132.004575 
L 133.498208 132.004575 
L 134.279944 131.220442 
L 135.06168 128.749131 
L 135.843416 125.313884 
L 138.188625 125.313884 
L 138.970361 122.219744 
L 139.752097 116.597562 
L 140.533833 115.098878 
L 141.315569 111.319362 
L 143.660778 108.272947 
L 145.22425 101.09875 
L 156.168556 101.09875 
L 156.950293 101.212055 
L 162.422446 101.212055 
L 163.204182 101.684687 
L 165.54939 107.316794 
L 166.331127 107.665691 
L 167.894599 107.665691 
L 168.676335 114.874539 
L 171.021544 115.259959 
L 171.80328 115.259959 
L 172.585016 112.76311 
L 173.366752 108.82195 
L 174.148488 102.245562 
L 176.493697 99.541605 
L 177.275433 99.298253 
L 178.057169 97.596398 
L 179.620641 97.596398 
L 181.96585 93.372676 
L 185.092795 93.372676 
L 187.438003 92.819915 
L 188.219739 91.148357 
L 190.564948 91.148357 
L 193.691892 89.163569 
L 195.255365 88.45195 
L 196.037101 87.167128 
L 198.382309 84.717013 
L 199.164046 84.717013 
L 199.945782 83.184322 
L 204.636199 83.184322 
L 206.199671 77.61496 
L 210.108352 77.61496 
L 210.890088 76.651417 
L 217.143977 76.651417 
L 217.925714 78.643633 
L 220.270922 80.529914 
L 221.052658 83.176674 
L 221.834394 83.176674 
L 222.616131 85.328806 
L 223.397867 85.328806 
L 225.743075 87.744091 
L 226.524811 88.050526 
L 227.306548 88.551862 
L 228.088284 90.581522 
L 228.87002 90.967356 
L 231.996965 91.257108 
L 232.778701 93.137209 
L 233.560437 95.331274 
L 234.342173 96.043582 
L 236.687382 96.581706 
L 237.469118 96.915377 
L 238.250854 96.915377 
L 239.03259 96.581706 
L 239.814326 96.043582 
L 242.941271 96.043582 
L 243.723007 95.710265 
L 244.504743 94.838882 
L 245.286479 93.262392 
L 247.631688 91.396587 
L 248.413424 88.640542 
L 250.758633 88.640542 
L 253.103841 82.108177 
L 253.885577 61.30497 
L 254.667313 54.977484 
L 255.44905 54.977484 
L 256.230786 52.913064 
L 266.393356 52.913064 
L 267.175092 54.977484 
L 269.520301 55.375384 
L 270.302037 56.214734 
L 274.992454 56.214734 
L 275.77419 64.261401 
L 276.555926 67.918241 
L 277.337662 73.210206 
L 278.119399 86.81742 
L 281.246343 95.778114 
L 282.028079 96.603835 
L 282.809816 97.790882 
L 283.591552 99.932363 
L 285.93676 101.102833 
L 288.281969 101.102833 
L 289.063705 103.859675 
L 291.408913 103.859675 
L 292.19065 106.035835 
L 292.972386 106.035835 
L 293.754122 107.406314 
L 296.881067 109.594453 
L 304.698428 109.594453 
L 305.480164 114.755929 
L 307.825373 118.193457 
L 308.607109 118.570304 
L 314.079262 118.570304 
L 314.860998 115.43161 
L 315.642735 108.193932 
L 316.424471 105.500603 
L 319.551415 97.300305 
L 320.333152 91.487372 
L 321.114888 84.201376 
L 324.241832 84.201376 
L 324.241832 84.201376 
" style="fill:none;stroke:#35b779;stroke-linecap:square;stroke-width:1.5;"/>
   </g>
   <g id="line2d_17">
    <path clip-path="url(#p69d5c476d1)" d="M 61.57848 99.879327 
L 63.141952 94.303411 
L 63.923689 89.35434 
L 64.705425 85.220557 
L 67.050633 82.765685 
L 67.832369 72.860253 
L 68.614106 70.041773 
L 69.395842 68.459224 
L 70.177578 62.246332 
L 72.522786 61.896528 
L 74.086259 59.095378 
L 74.867995 55.581434 
L 95.193135 55.581434 
L 95.974871 60.487931 
L 96.756608 67.179971 
L 97.538344 71.165077 
L 99.883552 72.79358 
L 100.665288 77.990788 
L 101.447025 79.171378 
L 103.010497 91.020995 
L 105.355705 95.760774 
L 106.137442 98.282843 
L 106.919178 100.375965 
L 107.700914 108.282718 
L 108.48265 108.631349 
L 110.827859 109.976089 
L 111.609595 110.612819 
L 112.391331 116.2039 
L 113.173067 116.2039 
L 113.954803 110.562765 
L 117.081748 110.562765 
L 117.863484 118.43061 
L 118.64522 120.554049 
L 121.772165 120.554049 
L 122.553901 130.962016 
L 123.335637 134.84712 
L 127.244318 134.84712 
L 128.026054 131.867865 
L 128.807791 131.513979 
L 129.589527 128.453144 
L 130.371263 124.840088 
L 133.498208 124.840088 
L 134.279944 123.312369 
L 135.06168 115.803412 
L 135.843416 107.058938 
L 138.188625 115.065223 
L 138.970361 111.387819 
L 139.752097 108.813773 
L 140.533833 105.149964 
L 141.315569 100.936748 
L 143.660778 98.375798 
L 144.442514 96.658145 
L 162.422446 96.658145 
L 163.204182 98.088969 
L 165.54939 100.082227 
L 166.331127 101.403633 
L 167.894599 101.337025 
L 168.676335 101.521027 
L 171.021544 102.777057 
L 171.80328 99.569493 
L 172.585016 99.569493 
L 173.366752 99.360599 
L 174.148488 98.409128 
L 176.493697 92.858132 
L 177.275433 91.444452 
L 179.620641 91.444452 
L 181.96585 89.586028 
L 185.092795 89.586028 
L 188.219739 88.563604 
L 192.910156 88.563604 
L 193.691892 87.603057 
L 194.473629 84.879292 
L 195.255365 83.283736 
L 196.037101 77.022001 
L 198.382309 73.136676 
L 217.143977 73.136676 
L 217.925714 74.049835 
L 220.270922 74.379097 
L 221.052658 77.100244 
L 227.306548 77.100244 
L 228.088284 78.892467 
L 228.87002 83.411714 
L 231.215228 89.48315 
L 231.996965 89.48315 
L 232.778701 90.677024 
L 233.560437 91.012689 
L 234.342173 91.012689 
L 236.687382 93.470389 
L 237.469118 95.379787 
L 238.250854 95.379787 
L 239.03259 94.834759 
L 239.814326 91.012689 
L 242.159535 90.538959 
L 242.941271 93.100907 
L 243.723007 91.931233 
L 245.286479 85.878529 
L 248.413424 54.79363 
L 250.758633 54.79363 
L 253.103841 53.090333 
L 253.885577 48.550867 
L 269.520301 48.534994 
L 270.302037 50.766548 
L 275.77419 50.766548 
L 276.555926 55.480845 
L 277.337662 56.261449 
L 278.119399 65.855163 
L 280.464607 68.118355 
L 281.246343 74.201894 
L 282.028079 89.2083 
L 282.809816 94.077344 
L 283.591552 96.045487 
L 285.93676 96.679855 
L 286.718496 98.002951 
L 288.281969 98.002951 
L 289.063705 99.873334 
L 292.972386 99.873334 
L 293.754122 100.49779 
L 296.881067 104.296152 
L 305.480164 104.296152 
L 307.825373 107.416201 
L 308.607109 109.669916 
L 309.388845 109.955696 
L 310.170581 108.318198 
L 310.952318 108.318198 
L 314.079262 106.677074 
L 314.860998 99.217888 
L 315.642735 98.090532 
L 316.424471 92.604452 
L 318.769679 85.221734 
L 319.551415 78.62591 
L 320.333152 74.353323 
L 324.241832 74.353323 
L 324.241832 74.353323 
" style="fill:none;stroke:#90d743;stroke-linecap:square;stroke-width:1.5;"/>
   </g>
   <g id="line2d_18">
    <path clip-path="url(#p69d5c476d1)" d="M 61.57848 87.886513 
L 62.360216 84.13315 
L 63.923689 84.13315 
L 64.705425 75.122757 
L 67.050633 71.31804 
L 67.832369 61.646301 
L 68.614106 60.005534 
L 70.177578 59.961099 
L 72.522786 59.696382 
L 73.304523 55.574005 
L 74.086259 54.853808 
L 74.867995 51.61072 
L 95.193135 51.61072 
L 95.974871 51.805437 
L 96.756608 52.819618 
L 97.538344 62.321788 
L 99.883552 68.56107 
L 100.665288 71.798206 
L 101.447025 72.865798 
L 102.228761 72.865798 
L 103.010497 79.885303 
L 105.355705 86.717999 
L 106.137442 92.499726 
L 106.919178 96.655549 
L 107.700914 97.049045 
L 108.48265 97.049045 
L 110.827859 102.28215 
L 111.609595 109.620705 
L 112.391331 109.744559 
L 113.173067 109.744559 
L 113.954803 107.661715 
L 117.081748 107.661715 
L 117.863484 107.880672 
L 118.64522 109.517333 
L 121.772165 109.517333 
L 122.553901 109.783763 
L 123.335637 111.951397 
L 127.244318 111.951397 
L 128.026054 111.504875 
L 128.807791 111.504875 
L 129.589527 109.035609 
L 134.279944 109.035609 
L 135.06168 102.490682 
L 135.843416 102.176101 
L 139.752097 102.176101 
L 140.533833 97.787682 
L 141.315569 89.73405 
L 143.660778 89.73405 
L 144.442514 89.189075 
L 163.204182 89.189075 
L 165.54939 94.923722 
L 166.331127 95.250405 
L 167.112863 99.227373 
L 167.894599 99.100817 
L 172.585016 99.065492 
L 173.366752 94.309648 
L 174.148488 90.34138 
L 176.493697 88.833711 
L 179.620641 88.833711 
L 183.529322 88.678186 
L 185.092795 88.678186 
L 187.438003 85.681085 
L 188.219739 85.539656 
L 192.910156 85.539656 
L 193.691892 84.111172 
L 194.473629 78.86837 
L 195.255365 72.301973 
L 196.037101 68.737196 
L 217.143977 68.737196 
L 217.925714 69.180067 
L 220.270922 73.513336 
L 221.052658 74.178957 
L 227.306548 74.178957 
L 228.088284 74.747471 
L 231.215228 75.981703 
L 231.996965 75.981703 
L 232.778701 85.075053 
L 233.560437 90.224979 
L 234.342173 90.224979 
L 236.687382 90.798114 
L 239.03259 90.798114 
L 239.814326 88.83833 
L 242.159535 88.455036 
L 243.723007 88.455036 
L 244.504743 68.032198 
L 245.286479 51.612088 
L 247.631688 50.128987 
L 248.413424 44.086384 
L 253.103841 44.086384 
L 253.885577 43.459697 
L 269.520301 43.459697 
L 270.302037 46.205685 
L 275.77419 46.205685 
L 276.555926 49.264912 
L 277.337662 50.215503 
L 278.119399 50.274676 
L 280.464607 58.311358 
L 281.246343 67.171148 
L 282.028079 68.427287 
L 282.809816 77.891468 
L 283.591552 91.493635 
L 285.93676 94.77992 
L 287.500233 94.876212 
L 292.972386 94.876212 
L 293.754122 97.394015 
L 296.881067 100.280643 
L 305.480164 100.280643 
L 307.825373 101.076063 
L 308.607109 101.076063 
L 309.388845 105.257777 
L 310.170581 105.257777 
L 310.952318 100.318847 
L 314.079262 94.350126 
L 314.860998 94.350126 
L 315.642735 74.962494 
L 316.424471 73.547526 
L 318.769679 72.255073 
L 319.551415 71.355084 
L 324.241832 71.337074 
L 324.241832 71.337074 
" style="fill:none;stroke:#fde725;stroke-linecap:square;stroke-width:1.5;"/>
   </g>
   <g id="patch_3">
    <path d="M 48.445313 172.248967 
L 48.445313 37.326875 
" style="fill:none;stroke:#000000;stroke-linecap:square;stroke-linejoin:miter;stroke-width:0.8;"/>
   </g>
   <g id="patch_4">
    <path d="M 337.375 172.248967 
L 337.375 37.326875 
" style="fill:none;stroke:#000000;stroke-linecap:square;stroke-linejoin:miter;stroke-width:0.8;"/>
   </g>
   <g id="patch_5">
    <path d="M 48.445312 172.248967 
L 337.375 172.248967 
" style="fill:none;stroke:#000000;stroke-linecap:square;stroke-linejoin:miter;stroke-width:0.8;"/>
   </g>
   <g id="patch_6">
    <path d="M 48.445312 37.326875 
L 337.375 37.326875 
" style="fill:none;stroke:#000000;stroke-linecap:square;stroke-linejoin:miter;stroke-width:0.8;"/>
   </g>
   <g id="legend_1">
    <g id="patch_7">
     <path d="M 342.264297 104.787921 
L 386.989297 104.787921 
Q 388.989297 104.787921 388.989297 102.787921 
L 388.989297 1.041046 
Q 388.989297 -0.958954 386.989297 -0.958954 
L 342.264297 -0.958954 
Q 340.264297 -0.958954 340.264297 1.041046 
L 340.264297 102.787921 
Q 340.264297 104.787921 342.264297 104.787921 
z
" style="fill:#ffffff;opacity:0.8;stroke:#cccccc;stroke-linejoin:miter;"/>
    </g>
    <g id="line2d_19">
     <path d="M 344.264297 7.139483 
L 364.264297 7.139483 
" style="fill:none;stroke:#440154;stroke-linecap:square;stroke-width:1.5;"/>
    </g>
    <g id="line2d_20"/>
    <g id="text_13">
     <!-- 1 -->
     <g transform="translate(372.264297 10.639483)scale(0.1 -0.1)">
      <use xlink:href="#DejaVuSans-31"/>
     </g>
    </g>
    <g id="line2d_21">
     <path d="M 344.264297 21.817608 
L 364.264297 21.817608 
" style="fill:none;stroke:#443983;stroke-linecap:square;stroke-width:1.5;"/>
    </g>
    <g id="line2d_22"/>
    <g id="text_14">
     <!-- 10 -->
     <g transform="translate(372.264297 25.317608)scale(0.1 -0.1)">
      <use xlink:href="#DejaVuSans-31"/>
      <use x="63.623047" xlink:href="#DejaVuSans-30"/>
     </g>
    </g>
    <g id="line2d_23">
     <path d="M 344.264297 36.495733 
L 364.264297 36.495733 
" style="fill:none;stroke:#31688e;stroke-linecap:square;stroke-width:1.5;"/>
    </g>
    <g id="line2d_24"/>
    <g id="text_15">
     <!-- 25 -->
     <g transform="translate(372.264297 39.995733)scale(0.1 -0.1)">
      <use xlink:href="#DejaVuSans-32"/>
      <use x="63.623047" xlink:href="#DejaVuSans-35"/>
     </g>
    </g>
    <g id="line2d_25">
     <path d="M 344.264297 51.173858 
L 364.264297 51.173858 
" style="fill:none;stroke:#21918c;stroke-linecap:square;stroke-width:1.5;"/>
    </g>
    <g id="line2d_26"/>
    <g id="text_16">
     <!-- 50 -->
     <g transform="translate(372.264297 54.673858)scale(0.1 -0.1)">
      <use xlink:href="#DejaVuSans-35"/>
      <use x="63.623047" xlink:href="#DejaVuSans-30"/>
     </g>
    </g>
    <g id="line2d_27">
     <path d="M 344.264297 65.851983 
L 364.264297 65.851983 
" style="fill:none;stroke:#35b779;stroke-linecap:square;stroke-width:1.5;"/>
    </g>
    <g id="line2d_28"/>
    <g id="text_17">
     <!-- 75 -->
     <defs>
      <path d="M 8.203125 72.90625 
L 55.078125 72.90625 
L 55.078125 68.703125 
L 28.609375 0 
L 18.3125 0 
L 43.21875 64.59375 
L 8.203125 64.59375 
z
" id="DejaVuSans-37"/>
     </defs>
     <g transform="translate(372.264297 69.351983)scale(0.1 -0.1)">
      <use xlink:href="#DejaVuSans-37"/>
      <use x="63.623047" xlink:href="#DejaVuSans-35"/>
     </g>
    </g>
    <g id="line2d_29">
     <path d="M 344.264297 80.530108 
L 364.264297 80.530108 
" style="fill:none;stroke:#90d743;stroke-linecap:square;stroke-width:1.5;"/>
    </g>
    <g id="line2d_30"/>
    <g id="text_18">
     <!-- 90 -->
     <defs>
      <path d="M 10.984375 1.515625 
L 10.984375 10.5 
Q 14.703125 8.734375 18.5 7.8125 
Q 22.3125 6.890625 25.984375 6.890625 
Q 35.75 6.890625 40.890625 13.453125 
Q 46.046875 20.015625 46.78125 33.40625 
Q 43.953125 29.203125 39.59375 26.953125 
Q 35.25 24.703125 29.984375 24.703125 
Q 19.046875 24.703125 12.671875 31.3125 
Q 6.296875 37.9375 6.296875 49.421875 
Q 6.296875 60.640625 12.9375 67.421875 
Q 19.578125 74.21875 30.609375 74.21875 
Q 43.265625 74.21875 49.921875 64.515625 
Q 56.59375 54.828125 56.59375 36.375 
Q 56.59375 19.140625 48.40625 8.859375 
Q 40.234375 -1.421875 26.421875 -1.421875 
Q 22.703125 -1.421875 18.890625 -0.6875 
Q 15.09375 0.046875 10.984375 1.515625 
z
M 30.609375 32.421875 
Q 37.25 32.421875 41.125 36.953125 
Q 45.015625 41.5 45.015625 49.421875 
Q 45.015625 57.28125 41.125 61.84375 
Q 37.25 66.40625 30.609375 66.40625 
Q 23.96875 66.40625 20.09375 61.84375 
Q 16.21875 57.28125 16.21875 49.421875 
Q 16.21875 41.5 20.09375 36.953125 
Q 23.96875 32.421875 30.609375 32.421875 
z
" id="DejaVuSans-39"/>
     </defs>
     <g transform="translate(372.264297 84.030108)scale(0.1 -0.1)">
      <use xlink:href="#DejaVuSans-39"/>
      <use x="63.623047" xlink:href="#DejaVuSans-30"/>
     </g>
    </g>
    <g id="line2d_31">
     <path d="M 344.264297 95.208233 
L 364.264297 95.208233 
" style="fill:none;stroke:#fde725;stroke-linecap:square;stroke-width:1.5;"/>
    </g>
    <g id="line2d_32"/>
    <g id="text_19">
     <!-- 99 -->
     <g transform="translate(372.264297 98.708233)scale(0.1 -0.1)">
      <use xlink:href="#DejaVuSans-39"/>
      <use x="63.623047" xlink:href="#DejaVuSans-39"/>
     </g>
    </g>
   </g>
  </g>
 </g>
 <defs>
  <clipPath id="p69d5c476d1">
   <rect height="134.922092" width="288.929687" x="48.445313" y="37.326875"/>
  </clipPath>
 </defs>
</svg>
