<?xml version="1.0" encoding="utf-8" standalone="no"?>
<!DOCTYPE svg PUBLIC "-//W3C//DTD SVG 1.1//EN"
  "http://www.w3.org/Graphics/SVG/1.1/DTD/svg11.dtd">
<!-- Created with matplotlib (http://matplotlib.org/) -->
<svg height="233pt" version="1.1" viewBox="0 0 400 233" width="400pt" xmlns="http://www.w3.org/2000/svg" xmlns:xlink="http://www.w3.org/1999/xlink">
 <defs>
  <style type="text/css">
*{stroke-linecap:butt;stroke-linejoin:round;}
  </style>
 </defs>
 <g id="figure_1">
  <g id="patch_1">
   <path d="M 0 233 
L 400 233 
L 400 0 
L 0 0 
z
" style="fill:#ffffff;"/>
  </g>
  <g id="axes_1">
   <g id="patch_2">
    <path d="M 42.082813 172.248967 
L 385.7 172.248967 
L 385.7 14.3 
L 42.082813 14.3 
z
" style="fill:#ffffff;"/>
   </g>
   <g id="matplotlib.axis_1">
    <g id="xtick_1">
     <g id="line2d_1">
      <defs>
       <path d="M 0 0 
L 0 3.5 
" id="me21462cfef" style="stroke:#000000;stroke-width:0.8;"/>
      </defs>
      <g>
       <use style="stroke:#000000;stroke-width:0.8;" x="81.547521" xlink:href="#me21462cfef" y="172.248967"/>
      </g>
     </g>
     <g id="text_1">
      <!-- 2014-02 -->
      <defs>
       <path d="M 19.1875 8.296875 
L 53.609375 8.296875 
L 53.609375 0 
L 7.328125 0 
L 7.328125 8.296875 
Q 12.9375 14.109375 22.625 23.890625 
Q 32.328125 33.6875 34.8125 36.53125 
Q 39.546875 41.84375 41.421875 45.53125 
Q 43.3125 49.21875 43.3125 52.78125 
Q 43.3125 58.59375 39.234375 62.25 
Q 35.15625 65.921875 28.609375 65.921875 
Q 23.96875 65.921875 18.8125 64.3125 
Q 13.671875 62.703125 7.8125 59.421875 
L 7.8125 69.390625 
Q 13.765625 71.78125 18.9375 73 
Q 24.125 74.21875 28.421875 74.21875 
Q 39.75 74.21875 46.484375 68.546875 
Q 53.21875 62.890625 53.21875 53.421875 
Q 53.21875 48.921875 51.53125 44.890625 
Q 49.859375 40.875 45.40625 35.40625 
Q 44.1875 33.984375 37.640625 27.21875 
Q 31.109375 20.453125 19.1875 8.296875 
z
" id="DejaVuSans-32"/>
       <path d="M 31.78125 66.40625 
Q 24.171875 66.40625 20.328125 58.90625 
Q 16.5 51.421875 16.5 36.375 
Q 16.5 21.390625 20.328125 13.890625 
Q 24.171875 6.390625 31.78125 6.390625 
Q 39.453125 6.390625 43.28125 13.890625 
Q 47.125 21.390625 47.125 36.375 
Q 47.125 51.421875 43.28125 58.90625 
Q 39.453125 66.40625 31.78125 66.40625 
z
M 31.78125 74.21875 
Q 44.046875 74.21875 50.515625 64.515625 
Q 56.984375 54.828125 56.984375 36.375 
Q 56.984375 17.96875 50.515625 8.265625 
Q 44.046875 -1.421875 31.78125 -1.421875 
Q 19.53125 -1.421875 13.0625 8.265625 
Q 6.59375 17.96875 6.59375 36.375 
Q 6.59375 54.828125 13.0625 64.515625 
Q 19.53125 74.21875 31.78125 74.21875 
z
" id="DejaVuSans-30"/>
       <path d="M 12.40625 8.296875 
L 28.515625 8.296875 
L 28.515625 63.921875 
L 10.984375 60.40625 
L 10.984375 69.390625 
L 28.421875 72.90625 
L 38.28125 72.90625 
L 38.28125 8.296875 
L 54.390625 8.296875 
L 54.390625 0 
L 12.40625 0 
z
" id="DejaVuSans-31"/>
       <path d="M 37.796875 64.3125 
L 12.890625 25.390625 
L 37.796875 25.390625 
z
M 35.203125 72.90625 
L 47.609375 72.90625 
L 47.609375 25.390625 
L 58.015625 25.390625 
L 58.015625 17.1875 
L 47.609375 17.1875 
L 47.609375 0 
L 37.796875 0 
L 37.796875 17.1875 
L 4.890625 17.1875 
L 4.890625 26.703125 
z
" id="DejaVuSans-34"/>
       <path d="M 4.890625 31.390625 
L 31.203125 31.390625 
L 31.203125 23.390625 
L 4.890625 23.390625 
z
" id="DejaVuSans-2d"/>
      </defs>
      <g transform="translate(44.3227 206.720813)rotate(-30)scale(0.1 -0.1)">
       <use xlink:href="#DejaVuSans-32"/>
       <use x="63.623047" xlink:href="#DejaVuSans-30"/>
       <use x="127.246094" xlink:href="#DejaVuSans-31"/>
       <use x="190.869141" xlink:href="#DejaVuSans-34"/>
       <use x="254.492188" xlink:href="#DejaVuSans-2d"/>
       <use x="290.576172" xlink:href="#DejaVuSans-30"/>
       <use x="354.199219" xlink:href="#DejaVuSans-32"/>
      </g>
     </g>
    </g>
    <g id="xtick_2">
     <g id="line2d_2">
      <g>
       <use style="stroke:#000000;stroke-width:0.8;" x="128.444153" xlink:href="#me21462cfef" y="172.248967"/>
      </g>
     </g>
     <g id="text_2">
      <!-- 2014-04 -->
      <g transform="translate(91.219332 206.720813)rotate(-30)scale(0.1 -0.1)">
       <use xlink:href="#DejaVuSans-32"/>
       <use x="63.623047" xlink:href="#DejaVuSans-30"/>
       <use x="127.246094" xlink:href="#DejaVuSans-31"/>
       <use x="190.869141" xlink:href="#DejaVuSans-34"/>
       <use x="254.492188" xlink:href="#DejaVuSans-2d"/>
       <use x="290.576172" xlink:href="#DejaVuSans-30"/>
       <use x="354.199219" xlink:href="#DejaVuSans-34"/>
      </g>
     </g>
    </g>
    <g id="xtick_3">
     <g id="line2d_3">
      <g>
       <use style="stroke:#000000;stroke-width:0.8;" x="176.930501" xlink:href="#me21462cfef" y="172.248967"/>
      </g>
     </g>
     <g id="text_3">
      <!-- 2014-06 -->
      <defs>
       <path d="M 33.015625 40.375 
Q 26.375 40.375 22.484375 35.828125 
Q 18.609375 31.296875 18.609375 23.390625 
Q 18.609375 15.53125 22.484375 10.953125 
Q 26.375 6.390625 33.015625 6.390625 
Q 39.65625 6.390625 43.53125 10.953125 
Q 47.40625 15.53125 47.40625 23.390625 
Q 47.40625 31.296875 43.53125 35.828125 
Q 39.65625 40.375 33.015625 40.375 
z
M 52.59375 71.296875 
L 52.59375 62.3125 
Q 48.875 64.0625 45.09375 64.984375 
Q 41.3125 65.921875 37.59375 65.921875 
Q 27.828125 65.921875 22.671875 59.328125 
Q 17.53125 52.734375 16.796875 39.40625 
Q 19.671875 43.65625 24.015625 45.921875 
Q 28.375 48.1875 33.59375 48.1875 
Q 44.578125 48.1875 50.953125 41.515625 
Q 57.328125 34.859375 57.328125 23.390625 
Q 57.328125 12.15625 50.6875 5.359375 
Q 44.046875 -1.421875 33.015625 -1.421875 
Q 20.359375 -1.421875 13.671875 8.265625 
Q 6.984375 17.96875 6.984375 36.375 
Q 6.984375 53.65625 15.1875 63.9375 
Q 23.390625 74.21875 37.203125 74.21875 
Q 40.921875 74.21875 44.703125 73.484375 
Q 48.484375 72.75 52.59375 71.296875 
z
" id="DejaVuSans-36"/>
      </defs>
      <g transform="translate(139.70568 206.720813)rotate(-30)scale(0.1 -0.1)">
       <use xlink:href="#DejaVuSans-32"/>
       <use x="63.623047" xlink:href="#DejaVuSans-30"/>
       <use x="127.246094" xlink:href="#DejaVuSans-31"/>
       <use x="190.869141" xlink:href="#DejaVuSans-34"/>
       <use x="254.492188" xlink:href="#DejaVuSans-2d"/>
       <use x="290.576172" xlink:href="#DejaVuSans-30"/>
       <use x="354.199219" xlink:href="#DejaVuSans-36"/>
      </g>
     </g>
    </g>
    <g id="xtick_4">
     <g id="line2d_4">
      <g>
       <use style="stroke:#000000;stroke-width:0.8;" x="225.41685" xlink:href="#me21462cfef" y="172.248967"/>
      </g>
     </g>
     <g id="text_4">
      <!-- 2014-08 -->
      <defs>
       <path d="M 31.78125 34.625 
Q 24.75 34.625 20.71875 30.859375 
Q 16.703125 27.09375 16.703125 20.515625 
Q 16.703125 13.921875 20.71875 10.15625 
Q 24.75 6.390625 31.78125 6.390625 
Q 38.8125 6.390625 42.859375 10.171875 
Q 46.921875 13.96875 46.921875 20.515625 
Q 46.921875 27.09375 42.890625 30.859375 
Q 38.875 34.625 31.78125 34.625 
z
M 21.921875 38.8125 
Q 15.578125 40.375 12.03125 44.71875 
Q 8.5 49.078125 8.5 55.328125 
Q 8.5 64.0625 14.71875 69.140625 
Q 20.953125 74.21875 31.78125 74.21875 
Q 42.671875 74.21875 48.875 69.140625 
Q 55.078125 64.0625 55.078125 55.328125 
Q 55.078125 49.078125 51.53125 44.71875 
Q 48 40.375 41.703125 38.8125 
Q 48.828125 37.15625 52.796875 32.3125 
Q 56.78125 27.484375 56.78125 20.515625 
Q 56.78125 9.90625 50.3125 4.234375 
Q 43.84375 -1.421875 31.78125 -1.421875 
Q 19.734375 -1.421875 13.25 4.234375 
Q 6.78125 9.90625 6.78125 20.515625 
Q 6.78125 27.484375 10.78125 32.3125 
Q 14.796875 37.15625 21.921875 38.8125 
z
M 18.3125 54.390625 
Q 18.3125 48.734375 21.84375 45.5625 
Q 25.390625 42.390625 31.78125 42.390625 
Q 38.140625 42.390625 41.71875 45.5625 
Q 45.3125 48.734375 45.3125 54.390625 
Q 45.3125 60.0625 41.71875 63.234375 
Q 38.140625 66.40625 31.78125 66.40625 
Q 25.390625 66.40625 21.84375 63.234375 
Q 18.3125 60.0625 18.3125 54.390625 
z
" id="DejaVuSans-38"/>
      </defs>
      <g transform="translate(188.192029 206.720813)rotate(-30)scale(0.1 -0.1)">
       <use xlink:href="#DejaVuSans-32"/>
       <use x="63.623047" xlink:href="#DejaVuSans-30"/>
       <use x="127.246094" xlink:href="#DejaVuSans-31"/>
       <use x="190.869141" xlink:href="#DejaVuSans-34"/>
       <use x="254.492188" xlink:href="#DejaVuSans-2d"/>
       <use x="290.576172" xlink:href="#DejaVuSans-30"/>
       <use x="354.199219" xlink:href="#DejaVuSans-38"/>
      </g>
     </g>
    </g>
    <g id="xtick_5">
     <g id="line2d_5">
      <g>
       <use style="stroke:#000000;stroke-width:0.8;" x="273.903198" xlink:href="#me21462cfef" y="172.248967"/>
      </g>
     </g>
     <g id="text_5">
      <!-- 2014-10 -->
      <g transform="translate(236.678377 206.720813)rotate(-30)scale(0.1 -0.1)">
       <use xlink:href="#DejaVuSans-32"/>
       <use x="63.623047" xlink:href="#DejaVuSans-30"/>
       <use x="127.246094" xlink:href="#DejaVuSans-31"/>
       <use x="190.869141" xlink:href="#DejaVuSans-34"/>
       <use x="254.492188" xlink:href="#DejaVuSans-2d"/>
       <use x="290.576172" xlink:href="#DejaVuSans-31"/>
       <use x="354.199219" xlink:href="#DejaVuSans-30"/>
      </g>
     </g>
    </g>
    <g id="xtick_6">
     <g id="line2d_6">
      <g>
       <use style="stroke:#000000;stroke-width:0.8;" x="322.389547" xlink:href="#me21462cfef" y="172.248967"/>
      </g>
     </g>
     <g id="text_6">
      <!-- 2014-12 -->
      <g transform="translate(285.164726 206.720813)rotate(-30)scale(0.1 -0.1)">
       <use xlink:href="#DejaVuSans-32"/>
       <use x="63.623047" xlink:href="#DejaVuSans-30"/>
       <use x="127.246094" xlink:href="#DejaVuSans-31"/>
       <use x="190.869141" xlink:href="#DejaVuSans-34"/>
       <use x="254.492188" xlink:href="#DejaVuSans-2d"/>
       <use x="290.576172" xlink:href="#DejaVuSans-31"/>
       <use x="354.199219" xlink:href="#DejaVuSans-32"/>
      </g>
     </g>
    </g>
    <g id="xtick_7">
     <g id="line2d_7">
      <g>
       <use style="stroke:#000000;stroke-width:0.8;" x="371.670753" xlink:href="#me21462cfef" y="172.248967"/>
      </g>
     </g>
     <g id="text_7">
      <!-- 2015-02 -->
      <defs>
       <path d="M 10.796875 72.90625 
L 49.515625 72.90625 
L 49.515625 64.59375 
L 19.828125 64.59375 
L 19.828125 46.734375 
Q 21.96875 47.46875 24.109375 47.828125 
Q 26.265625 48.1875 28.421875 48.1875 
Q 40.625 48.1875 47.75 41.5 
Q 54.890625 34.8125 54.890625 23.390625 
Q 54.890625 11.625 47.5625 5.09375 
Q 40.234375 -1.421875 26.90625 -1.421875 
Q 22.3125 -1.421875 17.546875 -0.640625 
Q 12.796875 0.140625 7.71875 1.703125 
L 7.71875 11.625 
Q 12.109375 9.234375 16.796875 8.0625 
Q 21.484375 6.890625 26.703125 6.890625 
Q 35.15625 6.890625 40.078125 11.328125 
Q 45.015625 15.765625 45.015625 23.390625 
Q 45.015625 31 40.078125 35.4375 
Q 35.15625 39.890625 26.703125 39.890625 
Q 22.75 39.890625 18.8125 39.015625 
Q 14.890625 38.140625 10.796875 36.28125 
z
" id="DejaVuSans-35"/>
      </defs>
      <g transform="translate(334.445932 206.720813)rotate(-30)scale(0.1 -0.1)">
       <use xlink:href="#DejaVuSans-32"/>
       <use x="63.623047" xlink:href="#DejaVuSans-30"/>
       <use x="127.246094" xlink:href="#DejaVuSans-31"/>
       <use x="190.869141" xlink:href="#DejaVuSans-35"/>
       <use x="254.492188" xlink:href="#DejaVuSans-2d"/>
       <use x="290.576172" xlink:href="#DejaVuSans-30"/>
       <use x="354.199219" xlink:href="#DejaVuSans-32"/>
      </g>
     </g>
    </g>
    <g id="text_8">
     <!-- date -->
     <defs>
      <path d="M 45.40625 46.390625 
L 45.40625 75.984375 
L 54.390625 75.984375 
L 54.390625 0 
L 45.40625 0 
L 45.40625 8.203125 
Q 42.578125 3.328125 38.25 0.953125 
Q 33.9375 -1.421875 27.875 -1.421875 
Q 17.96875 -1.421875 11.734375 6.484375 
Q 5.515625 14.40625 5.515625 27.296875 
Q 5.515625 40.1875 11.734375 48.09375 
Q 17.96875 56 27.875 56 
Q 33.9375 56 38.25 53.625 
Q 42.578125 51.265625 45.40625 46.390625 
z
M 14.796875 27.296875 
Q 14.796875 17.390625 18.875 11.75 
Q 22.953125 6.109375 30.078125 6.109375 
Q 37.203125 6.109375 41.296875 11.75 
Q 45.40625 17.390625 45.40625 27.296875 
Q 45.40625 37.203125 41.296875 42.84375 
Q 37.203125 48.484375 30.078125 48.484375 
Q 22.953125 48.484375 18.875 42.84375 
Q 14.796875 37.203125 14.796875 27.296875 
z
" id="DejaVuSans-64"/>
      <path d="M 34.28125 27.484375 
Q 23.390625 27.484375 19.1875 25 
Q 14.984375 22.515625 14.984375 16.5 
Q 14.984375 11.71875 18.140625 8.90625 
Q 21.296875 6.109375 26.703125 6.109375 
Q 34.1875 6.109375 38.703125 11.40625 
Q 43.21875 16.703125 43.21875 25.484375 
L 43.21875 27.484375 
z
M 52.203125 31.203125 
L 52.203125 0 
L 43.21875 0 
L 43.21875 8.296875 
Q 40.140625 3.328125 35.546875 0.953125 
Q 30.953125 -1.421875 24.3125 -1.421875 
Q 15.921875 -1.421875 10.953125 3.296875 
Q 6 8.015625 6 15.921875 
Q 6 25.140625 12.171875 29.828125 
Q 18.359375 34.515625 30.609375 34.515625 
L 43.21875 34.515625 
L 43.21875 35.40625 
Q 43.21875 41.609375 39.140625 45 
Q 35.0625 48.390625 27.6875 48.390625 
Q 23 48.390625 18.546875 47.265625 
Q 14.109375 46.140625 10.015625 43.890625 
L 10.015625 52.203125 
Q 14.9375 54.109375 19.578125 55.046875 
Q 24.21875 56 28.609375 56 
Q 40.484375 56 46.34375 49.84375 
Q 52.203125 43.703125 52.203125 31.203125 
z
" id="DejaVuSans-61"/>
      <path d="M 18.3125 70.21875 
L 18.3125 54.6875 
L 36.8125 54.6875 
L 36.8125 47.703125 
L 18.3125 47.703125 
L 18.3125 18.015625 
Q 18.3125 11.328125 20.140625 9.421875 
Q 21.96875 7.515625 27.59375 7.515625 
L 36.8125 7.515625 
L 36.8125 0 
L 27.59375 0 
Q 17.1875 0 13.234375 3.875 
Q 9.28125 7.765625 9.28125 18.015625 
L 9.28125 47.703125 
L 2.6875 47.703125 
L 2.6875 54.6875 
L 9.28125 54.6875 
L 9.28125 70.21875 
z
" id="DejaVuSans-74"/>
      <path d="M 56.203125 29.59375 
L 56.203125 25.203125 
L 14.890625 25.203125 
Q 15.484375 15.921875 20.484375 11.0625 
Q 25.484375 6.203125 34.421875 6.203125 
Q 39.59375 6.203125 44.453125 7.46875 
Q 49.3125 8.734375 54.109375 11.28125 
L 54.109375 2.78125 
Q 49.265625 0.734375 44.1875 -0.34375 
Q 39.109375 -1.421875 33.890625 -1.421875 
Q 20.796875 -1.421875 13.15625 6.1875 
Q 5.515625 13.8125 5.515625 26.8125 
Q 5.515625 40.234375 12.765625 48.109375 
Q 20.015625 56 32.328125 56 
Q 43.359375 56 49.78125 48.890625 
Q 56.203125 41.796875 56.203125 29.59375 
z
M 47.21875 32.234375 
Q 47.125 39.59375 43.09375 43.984375 
Q 39.0625 48.390625 32.421875 48.390625 
Q 24.90625 48.390625 20.390625 44.140625 
Q 15.875 39.890625 15.1875 32.171875 
z
" id="DejaVuSans-65"/>
     </defs>
     <g transform="translate(202.616406 220.120313)scale(0.1 -0.1)">
      <use xlink:href="#DejaVuSans-64"/>
      <use x="63.476562" xlink:href="#DejaVuSans-61"/>
      <use x="124.755859" xlink:href="#DejaVuSans-74"/>
      <use x="163.964844" xlink:href="#DejaVuSans-65"/>
     </g>
    </g>
   </g>
   <g id="matplotlib.axis_2">
    <g id="ytick_1">
     <g id="line2d_8">
      <defs>
       <path d="M 0 0 
L -3.5 0 
" id="m9939b87f00" style="stroke:#000000;stroke-width:0.8;"/>
      </defs>
      <g>
       <use style="stroke:#000000;stroke-width:0.8;" x="42.082813" xlink:href="#m9939b87f00" y="158.203251"/>
      </g>
     </g>
     <g id="text_9">
      <!-- −0.8 -->
      <defs>
       <path d="M 10.59375 35.5 
L 73.1875 35.5 
L 73.1875 27.203125 
L 10.59375 27.203125 
z
" id="DejaVuSans-2212"/>
       <path d="M 10.6875 12.40625 
L 21 12.40625 
L 21 0 
L 10.6875 0 
z
" id="DejaVuSans-2e"/>
      </defs>
      <g transform="translate(10.8 162.00247)scale(0.1 -0.1)">
       <use xlink:href="#DejaVuSans-2212"/>
       <use x="83.789062" xlink:href="#DejaVuSans-30"/>
       <use x="147.412109" xlink:href="#DejaVuSans-2e"/>
       <use x="179.199219" xlink:href="#DejaVuSans-38"/>
      </g>
     </g>
    </g>
    <g id="ytick_2">
     <g id="line2d_9">
      <g>
       <use style="stroke:#000000;stroke-width:0.8;" x="42.082813" xlink:href="#m9939b87f00" y="129.696023"/>
      </g>
     </g>
     <g id="text_10">
      <!-- −0.6 -->
      <g transform="translate(10.8 133.495242)scale(0.1 -0.1)">
       <use xlink:href="#DejaVuSans-2212"/>
       <use x="83.789062" xlink:href="#DejaVuSans-30"/>
       <use x="147.412109" xlink:href="#DejaVuSans-2e"/>
       <use x="179.199219" xlink:href="#DejaVuSans-36"/>
      </g>
     </g>
    </g>
    <g id="ytick_3">
     <g id="line2d_10">
      <g>
       <use style="stroke:#000000;stroke-width:0.8;" x="42.082813" xlink:href="#m9939b87f00" y="101.188795"/>
      </g>
     </g>
     <g id="text_11">
      <!-- −0.4 -->
      <g transform="translate(10.8 104.988014)scale(0.1 -0.1)">
       <use xlink:href="#DejaVuSans-2212"/>
       <use x="83.789062" xlink:href="#DejaVuSans-30"/>
       <use x="147.412109" xlink:href="#DejaVuSans-2e"/>
       <use x="179.199219" xlink:href="#DejaVuSans-34"/>
      </g>
     </g>
    </g>
    <g id="ytick_4">
     <g id="line2d_11">
      <g>
       <use style="stroke:#000000;stroke-width:0.8;" x="42.082813" xlink:href="#m9939b87f00" y="72.681567"/>
      </g>
     </g>
     <g id="text_12">
      <!-- −0.2 -->
      <g transform="translate(10.8 76.480786)scale(0.1 -0.1)">
       <use xlink:href="#DejaVuSans-2212"/>
       <use x="83.789062" xlink:href="#DejaVuSans-30"/>
       <use x="147.412109" xlink:href="#DejaVuSans-2e"/>
       <use x="179.199219" xlink:href="#DejaVuSans-32"/>
      </g>
     </g>
    </g>
    <g id="ytick_5">
     <g id="line2d_12">
      <g>
       <use style="stroke:#000000;stroke-width:0.8;" x="42.082813" xlink:href="#m9939b87f00" y="44.174339"/>
      </g>
     </g>
     <g id="text_13">
      <!-- 0.0 -->
      <g transform="translate(19.179688 47.973558)scale(0.1 -0.1)">
       <use xlink:href="#DejaVuSans-30"/>
       <use x="63.623047" xlink:href="#DejaVuSans-2e"/>
       <use x="95.410156" xlink:href="#DejaVuSans-30"/>
      </g>
     </g>
    </g>
    <g id="ytick_6">
     <g id="line2d_13">
      <g>
       <use style="stroke:#000000;stroke-width:0.8;" x="42.082813" xlink:href="#m9939b87f00" y="15.667111"/>
      </g>
     </g>
     <g id="text_14">
      <!-- 0.2 -->
      <g transform="translate(19.179688 19.46633)scale(0.1 -0.1)">
       <use xlink:href="#DejaVuSans-30"/>
       <use x="63.623047" xlink:href="#DejaVuSans-2e"/>
       <use x="95.410156" xlink:href="#DejaVuSans-32"/>
      </g>
     </g>
    </g>
   </g>
   <g id="line2d_14">
    <path clip-path="url(#p9c5e6f22b8)" d="M 57.701776 44.035904 
L 83.137237 44.036186 
L 84.726953 41.062492 
L 85.521812 38.929946 
L 86.31667 38.638277 
L 88.701244 41.167151 
L 90.290961 38.834916 
L 91.085819 38.960181 
L 91.880677 39.741231 
L 95.06011 39.077111 
L 95.854968 40.579925 
L 96.649826 40.337553 
L 97.444684 41.69453 
L 99.829259 37.478493 
L 100.624117 38.447154 
L 101.418975 35.86098 
L 102.213833 33.966919 
L 103.008691 33.722639 
L 105.393266 35.84601 
L 106.188124 34.764908 
L 106.982982 36.159036 
L 107.77784 35.794749 
L 108.572699 37.098662 
L 110.957273 39.840655 
L 111.752131 42.153937 
L 112.546989 41.483687 
L 113.341848 45.102363 
L 114.136706 45.234692 
L 116.52128 43.798392 
L 117.316138 43.052747 
L 118.110997 44.79742 
L 119.700713 46.264982 
L 122.085287 47.384289 
L 122.880146 47.951018 
L 123.675004 49.623313 
L 124.469862 50.318623 
L 125.26472 49.845462 
L 127.649295 49.328957 
L 128.444153 46.848727 
L 129.239011 47.960645 
L 130.033869 49.650034 
L 130.828727 50.54087 
L 133.213302 52.661879 
L 134.00816 47.38059 
L 134.803018 44.18373 
L 135.597876 48.694192 
L 136.392735 49.933635 
L 138.777309 48.084607 
L 139.572167 47.781521 
L 140.367025 45.287647 
L 141.161884 44.232992 
L 144.341316 44.065 
L 145.136174 42.43996 
L 145.931033 43.700325 
L 146.725891 43.87 
L 147.520749 46.741468 
L 149.905323 46.751973 
L 150.700182 44.183964 
L 151.49504 51.069531 
L 152.289898 50.961051 
L 153.084756 49.736789 
L 155.469331 49.497597 
L 156.264189 52.143672 
L 157.059047 52.643933 
L 157.853905 52.768227 
L 158.648763 51.513814 
L 161.033338 49.003339 
L 161.828196 47.968427 
L 162.623054 47.459263 
L 163.417912 47.820795 
L 164.212771 45.717041 
L 166.597345 44.260294 
L 167.392203 44.819667 
L 168.187061 44.611131 
L 168.98192 45.228402 
L 169.776778 43.477287 
L 172.95621 43.930476 
L 173.751069 47.343334 
L 174.545927 47.830537 
L 175.340785 45.973222 
L 177.725359 46.455132 
L 178.520218 46.432321 
L 179.315076 46.272374 
L 180.109934 45.89312 
L 180.904792 48.388592 
L 183.289367 48.603346 
L 184.084225 52.06576 
L 184.879083 49.978061 
L 185.673941 50.336467 
L 186.468799 48.587416 
L 188.853374 48.281125 
L 189.648232 47.628479 
L 190.44309 45.498851 
L 191.237948 45.339939 
L 192.032807 45.799213 
L 194.417381 45.256639 
L 195.212239 46.45019 
L 196.007097 44.869105 
L 196.801956 44.313716 
L 197.596814 42.364548 
L 199.981388 42.359202 
L 200.776246 41.034601 
L 201.571105 40.898145 
L 202.365963 39.768478 
L 205.545395 40.538461 
L 206.340254 42.329874 
L 207.135112 40.471793 
L 207.92997 42.487014 
L 208.724828 39.440937 
L 211.109403 40.792239 
L 211.904261 42.090971 
L 212.699119 42.698786 
L 213.493977 41.919379 
L 214.288835 40.861075 
L 216.67341 40.564956 
L 217.468268 39.929505 
L 219.057984 37.61723 
L 219.852843 39.53401 
L 222.237417 39.436904 
L 223.032275 39.093097 
L 223.827133 39.446434 
L 224.621992 40.952098 
L 225.41685 42.058337 
L 227.801424 40.864323 
L 229.391141 40.537795 
L 230.185999 40.72423 
L 230.980857 39.584663 
L 233.365431 40.585885 
L 234.955148 43.962881 
L 235.750006 44.260746 
L 236.544864 45.245058 
L 238.929439 44.114988 
L 239.724297 42.548148 
L 240.519155 43.641311 
L 241.314013 36.995291 
L 242.108871 38.500332 
L 244.493446 38.901605 
L 245.288304 37.212456 
L 246.083162 38.528687 
L 246.87802 40.269887 
L 247.672879 40.498593 
L 250.852311 42.474302 
L 251.647169 43.566659 
L 252.442028 44.006031 
L 253.236886 45.541769 
L 255.62146 44.651376 
L 257.211177 52.805292 
L 258.006035 53.669014 
L 258.800893 49.405605 
L 261.185467 52.582938 
L 261.980326 50.587695 
L 262.775184 49.40476 
L 263.570042 47.225095 
L 264.3649 47.585383 
L 266.749475 46.97485 
L 268.339191 44.838791 
L 269.134049 46.514585 
L 269.928907 43.952897 
L 272.313482 44.316657 
L 273.10834 33.241511 
L 273.903198 36.724426 
L 274.698056 38.498032 
L 275.492915 39.773454 
L 277.877489 42.205859 
L 278.672347 43.887676 
L 279.467205 40.008512 
L 280.262064 44.988543 
L 281.056922 47.761788 
L 283.441496 51.633086 
L 284.236354 51.13097 
L 285.031213 51.88751 
L 285.826071 57.906771 
L 286.620929 57.136691 
L 289.005503 53.156511 
L 289.800362 48.158809 
L 290.59522 49.862502 
L 291.390078 47.777909 
L 292.184936 46.572301 
L 294.569511 46.161313 
L 295.364369 45.354242 
L 296.954085 43.248645 
L 297.748943 40.169632 
L 300.133518 39.452003 
L 300.928376 37.817788 
L 301.723234 36.731433 
L 302.518092 37.767347 
L 303.312951 37.256305 
L 305.697525 36.696419 
L 306.492383 36.371272 
L 307.287241 37.336351 
L 308.0821 37.421114 
L 308.876958 38.413852 
L 311.261532 37.905128 
L 312.05639 37.008054 
L 313.646107 40.649165 
L 314.440965 41.461767 
L 316.825539 42.002476 
L 317.620398 42.428035 
L 318.415256 42.411015 
L 320.004972 42.01794 
L 322.389547 42.37873 
L 323.184405 42.288549 
L 323.979263 43.083401 
L 324.774121 43.619188 
L 325.568979 43.447975 
L 327.953554 42.738525 
L 328.748412 42.261332 
L 329.54327 42.767983 
L 330.338128 38.981271 
L 331.132987 41.971068 
L 333.517561 43.021686 
L 335.107277 40.67116 
L 335.902136 37.980605 
L 336.696994 39.409302 
L 339.081568 39.301158 
L 340.671285 40.692466 
L 342.261001 41.193532 
L 344.645575 41.514485 
L 345.440434 41.325964 
L 346.235292 44.414558 
L 347.825008 44.360941 
L 350.209583 45.754182 
L 351.004441 47.695662 
L 351.799299 47.906217 
L 352.594157 44.103819 
L 353.389015 46.225191 
L 355.77359 47.160145 
L 356.568448 47.262908 
L 357.363306 50.005702 
L 358.158164 52.321354 
L 358.953023 50.266246 
L 362.132455 49.717614 
L 362.927313 50.037604 
L 363.722172 39.836495 
L 364.51703 40.827707 
L 366.901604 42.580318 
L 367.696462 45.971646 
L 368.491321 47.850273 
L 369.286179 47.091353 
L 370.081037 49.291727 
L 370.081037 49.291727 
" style="fill:none;stroke:#1f77b4;stroke-linecap:square;stroke-width:1.5;"/>
   </g>
   <g id="line2d_15">
    <path clip-path="url(#p9c5e6f22b8)" d="M 57.701776 41.11102 
L 58.496634 42.806495 
L 60.881208 40.863143 
L 61.676066 38.68105 
L 62.470925 37.134379 
L 63.265783 43.099355 
L 64.060641 43.44572 
L 66.445215 47.10667 
L 67.240074 42.908137 
L 68.034932 41.753546 
L 68.82979 41.737061 
L 69.624648 42.724096 
L 72.804081 42.476363 
L 73.598939 42.827955 
L 74.393797 43.485188 
L 75.188655 47.231515 
L 77.57323 48.077434 
L 78.368088 46.593168 
L 79.162946 47.773808 
L 79.957804 45.17421 
L 80.752663 45.288458 
L 83.137237 47.194011 
L 83.932095 46.201144 
L 84.726953 47.203583 
L 86.31667 42.823896 
L 88.701244 42.438187 
L 89.496102 39.72306 
L 91.085819 30.325144 
L 91.880677 26.065221 
L 95.06011 27.169452 
L 95.854968 26.008801 
L 96.649826 21.479498 
L 97.444684 24.194877 
L 99.829259 23.459572 
L 100.624117 26.68709 
L 101.418975 28.504629 
L 102.213833 31.851723 
L 103.008691 34.166983 
L 105.393266 36.150471 
L 106.188124 35.87022 
L 106.982982 35.882558 
L 107.77784 39.394878 
L 108.572699 40.738867 
L 110.957273 43.929245 
L 111.752131 43.414784 
L 112.546989 43.85833 
L 113.341848 48.971856 
L 114.136706 48.501284 
L 116.52128 48.465652 
L 117.316138 45.174921 
L 118.110997 42.733102 
L 118.905855 42.564683 
L 122.085287 43.315309 
L 122.880146 43.195869 
L 123.675004 46.358056 
L 124.469862 48.038968 
L 125.26472 46.944187 
L 127.649295 46.708682 
L 128.444153 40.683878 
L 129.239011 41.627647 
L 130.033869 40.1253 
L 130.828727 44.816229 
L 133.213302 44.371819 
L 134.00816 39.265537 
L 134.803018 39.651145 
L 135.597876 43.695202 
L 136.392735 45.94474 
L 138.777309 44.513411 
L 139.572167 43.537191 
L 140.367025 43.181557 
L 141.161884 42.605145 
L 144.341316 41.448829 
L 145.136174 40.315714 
L 145.931033 38.786923 
L 146.725891 37.9209 
L 147.520749 42.619532 
L 149.905323 43.572461 
L 150.700182 43.565651 
L 151.49504 45.266625 
L 152.289898 44.476681 
L 153.084756 45.485081 
L 155.469331 44.065541 
L 156.264189 47.140823 
L 157.059047 46.746771 
L 157.853905 44.755888 
L 158.648763 48.25592 
L 161.033338 44.162224 
L 161.828196 46.567082 
L 162.623054 47.880246 
L 163.417912 48.494595 
L 164.212771 48.58243 
L 166.597345 43.817362 
L 167.392203 45.997405 
L 168.187061 45.655868 
L 168.98192 44.623361 
L 169.776778 43.136286 
L 172.95621 40.506776 
L 173.751069 39.318774 
L 174.545927 39.766628 
L 175.340785 39.539051 
L 177.725359 40.242581 
L 178.520218 40.990235 
L 179.315076 41.08915 
L 180.904792 40.378117 
L 183.289367 40.630821 
L 184.084225 40.059155 
L 184.879083 38.509241 
L 185.673941 38.137355 
L 186.468799 38.617764 
L 188.853374 39.722444 
L 189.648232 39.128034 
L 190.44309 39.837725 
L 191.237948 43.745839 
L 192.032807 45.633473 
L 194.417381 47.441674 
L 195.212239 49.558829 
L 196.007097 47.930447 
L 196.801956 49.666464 
L 197.596814 49.274763 
L 199.981388 47.863669 
L 200.776246 46.16661 
L 201.571105 46.640909 
L 202.365963 45.256523 
L 205.545395 46.312117 
L 206.340254 47.303055 
L 207.135112 42.854994 
L 207.92997 43.49233 
L 208.724828 42.987076 
L 211.904261 40.295446 
L 212.699119 40.348588 
L 213.493977 40.628871 
L 214.288835 47.200577 
L 216.67341 46.176002 
L 217.468268 46.719422 
L 218.263126 49.694544 
L 219.057984 49.263339 
L 219.852843 51.59734 
L 222.237417 51.90595 
L 223.032275 51.1372 
L 223.827133 48.472155 
L 224.621992 52.679749 
L 225.41685 50.7053 
L 227.801424 50.622635 
L 229.391141 49.783626 
L 230.185999 50.646551 
L 230.980857 37.964934 
L 233.365431 38.623661 
L 234.16029 38.422018 
L 234.955148 37.36426 
L 235.750006 38.889713 
L 236.544864 37.158935 
L 238.929439 35.331888 
L 239.724297 35.147166 
L 240.519155 36.645444 
L 241.314013 38.534891 
L 242.108871 38.999652 
L 244.493446 39.340328 
L 245.288304 37.284269 
L 246.083162 39.546386 
L 246.87802 39.043832 
L 247.672879 39.291618 
L 250.852311 39.653477 
L 251.647169 39.052595 
L 252.442028 37.271152 
L 253.236886 38.766272 
L 255.62146 40.487751 
L 256.416318 42.684651 
L 257.211177 42.420031 
L 258.006035 44.124079 
L 258.800893 46.48644 
L 261.185467 48.423212 
L 261.980326 46.202797 
L 262.775184 46.041678 
L 263.570042 43.872695 
L 264.3649 46.658438 
L 267.544333 48.557935 
L 268.339191 47.508406 
L 269.134049 50.410151 
L 269.928907 49.787995 
L 272.313482 49.673275 
L 273.10834 49.824702 
L 273.903198 50.701876 
L 274.698056 50.63911 
L 275.492915 49.666087 
L 277.877489 49.900575 
L 278.672347 50.797062 
L 279.467205 47.641641 
L 280.262064 49.864686 
L 281.056922 57.522853 
L 283.441496 57.246164 
L 284.236354 53.346629 
L 285.031213 50.559491 
L 285.826071 49.69146 
L 286.620929 49.277522 
L 289.005503 47.49796 
L 289.800362 41.026961 
L 290.59522 44.195313 
L 291.390078 40.742612 
L 292.184936 39.113191 
L 294.569511 39.015899 
L 295.364369 35.5191 
L 296.954085 37.99732 
L 297.748943 31.443859 
L 300.133518 29.476751 
L 300.928376 28.317214 
L 301.723234 29.173146 
L 302.518092 29.477496 
L 303.312951 34.296031 
L 305.697525 33.828975 
L 306.492383 36.86172 
L 307.287241 38.814677 
L 308.0821 40.461525 
L 308.876958 39.532073 
L 311.261532 41.089168 
L 312.05639 38.17445 
L 312.851249 40.260692 
L 313.646107 38.534241 
L 316.825539 38.310764 
L 317.620398 39.031673 
L 318.415256 37.216405 
L 320.004972 37.735712 
L 322.389547 41.05273 
L 323.184405 41.110558 
L 323.979263 37.553136 
L 324.774121 39.281644 
L 325.568979 38.717917 
L 328.748412 41.879818 
L 329.54327 45.439844 
L 330.338128 45.734473 
L 331.132987 50.366961 
L 333.517561 50.727893 
L 334.312419 52.211706 
L 335.107277 46.425302 
L 335.902136 45.915138 
L 336.696994 44.478613 
L 339.081568 41.959921 
L 339.876426 42.93945 
L 340.671285 43.52588 
L 342.261001 43.257613 
L 344.645575 43.326462 
L 345.440434 44.644178 
L 346.235292 46.789485 
L 347.825008 45.835511 
L 350.209583 47.920813 
L 351.004441 51.681106 
L 351.799299 51.467204 
L 352.594157 45.795078 
L 353.389015 45.075299 
L 355.77359 46.733584 
L 356.568448 46.968872 
L 357.363306 46.433375 
L 358.158164 47.570637 
L 358.953023 44.81416 
L 362.132455 44.290409 
L 362.927313 42.14663 
L 363.722172 39.468294 
L 364.51703 39.040478 
L 366.901604 39.736373 
L 367.696462 46.803901 
L 368.491321 48.746934 
L 369.286179 44.992616 
L 370.081037 49.049814 
L 370.081037 49.049814 
" style="fill:none;stroke:#ff7f0e;stroke-linecap:square;stroke-width:1.5;"/>
   </g>
   <g id="line2d_16">
    <path clip-path="url(#p9c5e6f22b8)" d="M 57.701776 44.924539 
L 58.496634 43.303304 
L 60.881208 44.217537 
L 61.676066 40.890259 
L 62.470925 40.927144 
L 63.265783 41.435063 
L 64.060641 40.671429 
L 66.445215 45.411011 
L 67.240074 41.39694 
L 68.034932 41.910476 
L 68.82979 44.772491 
L 69.624648 45.988466 
L 72.804081 47.677565 
L 73.598939 45.245398 
L 74.393797 47.920364 
L 75.188655 52.880906 
L 77.57323 56.865177 
L 78.368088 50.619261 
L 79.162946 62.152245 
L 79.957804 59.723766 
L 80.752663 56.466079 
L 83.137237 59.78411 
L 83.932095 56.138109 
L 84.726953 55.82978 
L 85.521812 52.049873 
L 86.31667 47.477187 
L 88.701244 44.710726 
L 89.496102 41.47816 
L 90.290961 42.418739 
L 91.085819 40.260359 
L 91.880677 40.990598 
L 95.06011 40.31891 
L 95.854968 41.982434 
L 96.649826 41.572811 
L 97.444684 43.167423 
L 99.829259 42.539965 
L 100.624117 43.313488 
L 101.418975 41.730218 
L 102.213833 39.028197 
L 103.008691 38.922423 
L 105.393266 41.074247 
L 106.188124 36.527252 
L 106.982982 37.846893 
L 107.77784 38.07334 
L 108.572699 42.354424 
L 110.957273 45.065806 
L 111.752131 46.945583 
L 112.546989 46.988391 
L 113.341848 47.877876 
L 114.136706 46.248636 
L 116.52128 40.480659 
L 117.316138 39.372153 
L 118.905855 46.123588 
L 119.700713 45.583924 
L 122.085287 50.36816 
L 122.880146 53.049563 
L 123.675004 54.528326 
L 124.469862 53.452224 
L 125.26472 51.716649 
L 127.649295 51.274731 
L 128.444153 48.329882 
L 129.239011 47.172911 
L 130.033869 49.943428 
L 130.828727 55.134001 
L 133.213302 59.017917 
L 134.00816 55.241704 
L 134.803018 50.48269 
L 135.597876 55.779829 
L 136.392735 57.069335 
L 138.777309 53.571863 
L 139.572167 49.335496 
L 140.367025 39.783449 
L 141.161884 39.349865 
L 144.341316 38.924024 
L 145.136174 39.918035 
L 145.931033 42.806599 
L 146.725891 43.61654 
L 147.520749 46.629058 
L 149.905323 48.324975 
L 150.700182 40.413597 
L 151.49504 39.777422 
L 152.289898 37.333079 
L 153.084756 36.030897 
L 155.469331 36.459203 
L 156.264189 39.021371 
L 157.059047 49.362063 
L 157.853905 49.803738 
L 158.648763 50.555042 
L 161.033338 47.956136 
L 161.828196 48.363271 
L 164.212771 51.426672 
L 166.597345 48.866821 
L 167.392203 48.481058 
L 168.187061 46.148711 
L 168.98192 44.568873 
L 169.776778 43.305781 
L 172.95621 43.119922 
L 173.751069 44.357448 
L 174.545927 43.613248 
L 175.340785 44.291147 
L 177.725359 42.902377 
L 178.520218 43.364355 
L 180.109934 41.903624 
L 180.904792 38.074087 
L 183.289367 38.068093 
L 184.879083 36.435715 
L 186.468799 36.402604 
L 188.853374 45.816771 
L 189.648232 47.546176 
L 190.44309 45.602724 
L 191.237948 46.773783 
L 192.032807 49.311795 
L 194.417381 50.769753 
L 195.212239 51.116872 
L 196.007097 51.786063 
L 196.801956 49.783806 
L 197.596814 47.176228 
L 199.981388 43.457501 
L 200.776246 42.664507 
L 201.571105 40.641088 
L 202.365963 39.790228 
L 205.545395 42.358387 
L 206.340254 46.272131 
L 207.135112 44.590736 
L 207.92997 43.881651 
L 208.724828 41.431349 
L 211.109403 39.988774 
L 211.904261 40.556062 
L 212.699119 48.273472 
L 213.493977 50.412607 
L 214.288835 49.61469 
L 216.67341 49.670506 
L 217.468268 48.277043 
L 218.263126 43.729893 
L 219.057984 38.045877 
L 219.852843 38.814771 
L 222.237417 40.129989 
L 223.032275 41.197188 
L 223.827133 37.519313 
L 224.621992 40.897567 
L 225.41685 41.599227 
L 227.801424 37.914388 
L 228.596282 41.731297 
L 229.391141 41.550826 
L 230.185999 42.264135 
L 230.980857 41.301494 
L 233.365431 41.832891 
L 234.16029 42.964528 
L 234.955148 40.630749 
L 235.750006 40.593534 
L 236.544864 40.807488 
L 239.724297 36.909033 
L 240.519155 38.890152 
L 241.314013 38.624968 
L 242.108871 37.498777 
L 244.493446 39.127832 
L 245.288304 39.247327 
L 246.083162 37.980504 
L 246.87802 37.98111 
L 247.672879 37.778978 
L 250.852311 35.267988 
L 251.647169 37.568754 
L 252.442028 36.994253 
L 253.236886 36.215539 
L 255.62146 28.593308 
L 256.416318 33.774236 
L 257.211177 33.539832 
L 258.006035 34.131381 
L 258.800893 29.194545 
L 261.185467 31.754061 
L 261.980326 32.245253 
L 262.775184 33.676551 
L 263.570042 36.487653 
L 264.3649 41.479515 
L 266.749475 50.092252 
L 267.544333 48.847506 
L 268.339191 46.148129 
L 269.134049 49.729109 
L 269.928907 43.834042 
L 272.313482 44.722093 
L 273.10834 44.146719 
L 273.903198 45.992824 
L 274.698056 45.570152 
L 275.492915 43.890377 
L 277.877489 42.039708 
L 278.672347 44.231135 
L 279.467205 43.67036 
L 280.262064 43.567607 
L 281.056922 48.475362 
L 283.441496 52.222723 
L 284.236354 52.909782 
L 285.031213 52.632356 
L 286.620929 49.12373 
L 289.005503 46.11657 
L 289.800362 42.938923 
L 290.59522 36.486167 
L 291.390078 34.95143 
L 292.184936 32.139699 
L 294.569511 28.494298 
L 295.364369 25.186945 
L 296.159227 27.882496 
L 296.954085 28.192135 
L 297.748943 27.671516 
L 300.133518 27.589189 
L 300.928376 26.14955 
L 301.723234 26.067389 
L 305.697525 24.506853 
L 306.492383 27.891071 
L 307.287241 25.042959 
L 308.0821 27.703576 
L 308.876958 26.019023 
L 311.261532 26.386125 
L 312.05639 30.437581 
L 312.851249 35.613391 
L 313.646107 34.947791 
L 314.440965 36.839667 
L 316.825539 35.558989 
L 317.620398 36.841641 
L 318.415256 37.239093 
L 320.004972 38.776503 
L 322.389547 44.320938 
L 323.184405 43.266956 
L 323.979263 44.90318 
L 324.774121 44.952845 
L 325.568979 43.690124 
L 327.953554 47.883636 
L 328.748412 45.424249 
L 329.54327 49.267858 
L 330.338128 47.028745 
L 331.132987 46.10832 
L 333.517561 47.065838 
L 334.312419 49.422399 
L 335.107277 45.428004 
L 335.902136 43.132336 
L 336.696994 43.166116 
L 339.081568 42.380323 
L 339.876426 45.468784 
L 340.671285 43.435889 
L 342.261001 42.649256 
L 344.645575 43.452133 
L 345.440434 41.561238 
L 346.235292 43.655604 
L 347.825008 44.652724 
L 350.209583 47.562588 
L 351.004441 47.064375 
L 351.799299 48.764519 
L 352.594157 43.820997 
L 353.389015 45.423171 
L 355.77359 48.005484 
L 356.568448 49.218848 
L 357.363306 51.251256 
L 358.158164 54.714539 
L 358.953023 53.482899 
L 362.132455 49.512354 
L 362.927313 47.446678 
L 363.722172 44.945047 
L 364.51703 44.599119 
L 366.901604 42.914504 
L 368.491321 51.004676 
L 369.286179 58.31963 
L 370.081037 56.599914 
L 370.081037 56.599914 
" style="fill:none;stroke:#2ca02c;stroke-linecap:square;stroke-width:1.5;"/>
   </g>
   <g id="line2d_17">
    <path clip-path="url(#p9c5e6f22b8)" d="M 57.701776 45.860206 
L 58.496634 48.80018 
L 60.881208 47.695886 
L 61.676066 48.480169 
L 62.470925 47.256946 
L 63.265783 48.749019 
L 64.060641 49.345604 
L 66.445215 48.262802 
L 68.034932 42.26211 
L 68.82979 43.10068 
L 69.624648 46.665979 
L 73.598939 43.807086 
L 74.393797 42.340379 
L 75.188655 44.808395 
L 77.57323 43.412048 
L 78.368088 54.743879 
L 79.162946 55.636472 
L 79.957804 55.123846 
L 80.752663 54.22077 
L 83.137237 53.448754 
L 83.932095 50.954942 
L 84.726953 49.518635 
L 85.521812 49.120284 
L 86.31667 46.862549 
L 88.701244 44.169375 
L 89.496102 42.194335 
L 90.290961 42.054901 
L 91.085819 39.443189 
L 91.880677 39.417725 
L 95.06011 38.925255 
L 95.854968 41.213678 
L 96.649826 42.694198 
L 97.444684 43.936138 
L 99.829259 43.01065 
L 100.624117 44.177064 
L 101.418975 45.68422 
L 102.213833 43.110986 
L 103.008691 43.900396 
L 105.393266 43.85493 
L 106.188124 43.288968 
L 106.982982 43.307525 
L 107.77784 44.021809 
L 108.572699 44.36289 
L 110.957273 44.38584 
L 111.752131 43.027359 
L 112.546989 42.889835 
L 114.136706 45.90219 
L 116.52128 45.081165 
L 117.316138 43.554595 
L 118.110997 43.507261 
L 118.905855 44.19888 
L 119.700713 43.124165 
L 122.085287 41.498042 
L 122.880146 40.185622 
L 123.675004 41.9835 
L 124.469862 42.77811 
L 125.26472 43.098132 
L 127.649295 43.259176 
L 128.444153 42.025436 
L 129.239011 41.917705 
L 130.033869 43.088154 
L 130.828727 45.062524 
L 133.213302 47.298862 
L 134.00816 47.13362 
L 134.803018 45.115436 
L 135.597876 46.937163 
L 136.392735 47.95393 
L 138.777309 47.303159 
L 139.572167 48.164359 
L 140.367025 47.700891 
L 141.161884 45.977751 
L 144.341316 44.195657 
L 145.136174 43.940018 
L 145.931033 45.620299 
L 146.725891 33.825326 
L 147.520749 33.165204 
L 149.905323 27.771427 
L 151.49504 30.508552 
L 152.289898 30.86477 
L 153.084756 31.371254 
L 155.469331 30.095629 
L 156.264189 32.949169 
L 157.059047 34.51892 
L 157.853905 36.517625 
L 158.648763 38.047979 
L 161.033338 37.121714 
L 161.828196 37.873724 
L 162.623054 38.883316 
L 163.417912 41.141986 
L 164.212771 39.85003 
L 166.597345 38.999199 
L 167.392203 39.935032 
L 168.187061 40.593813 
L 168.98192 40.86266 
L 169.776778 39.675775 
L 172.95621 37.187348 
L 173.751069 38.011507 
L 174.545927 35.752645 
L 175.340785 36.89508 
L 177.725359 38.44834 
L 178.520218 36.71341 
L 179.315076 35.566933 
L 180.109934 35.660144 
L 180.904792 36.841966 
L 183.289367 165.069468 
L 184.879083 163.014404 
L 185.673941 162.27163 
L 186.468799 161.30567 
L 188.853374 159.641355 
L 189.648232 158.086596 
L 192.032807 152.371732 
L 194.417381 149.701169 
L 195.212239 146.706439 
L 196.007097 142.839838 
L 196.801956 137.798561 
L 197.596814 131.243098 
L 199.981388 123.064421 
L 200.776246 112.429807 
L 201.571105 98.140826 
L 202.365963 76.207027 
L 205.545395 38.44092 
L 206.340254 39.589318 
L 207.135112 39.619782 
L 207.92997 40.287033 
L 208.724828 40.238862 
L 211.109403 38.678111 
L 211.904261 40.763968 
L 212.699119 41.856118 
L 213.493977 44.647432 
L 214.288835 42.702288 
L 216.67341 43.732953 
L 217.468268 42.797324 
L 218.263126 39.411432 
L 219.057984 40.213878 
L 219.852843 39.749834 
L 222.237417 38.18807 
L 223.032275 39.644066 
L 223.827133 40.380434 
L 224.621992 44.547671 
L 225.41685 43.882661 
L 227.801424 44.697448 
L 228.596282 45.414295 
L 229.391141 45.63108 
L 230.185999 46.338036 
L 230.980857 45.894585 
L 233.365431 43.902633 
L 234.16029 43.984916 
L 234.955148 42.190631 
L 235.750006 42.133481 
L 238.929439 40.242162 
L 239.724297 38.577282 
L 241.314013 39.05633 
L 242.108871 38.204251 
L 244.493446 38.066824 
L 245.288304 39.270202 
L 246.083162 37.678427 
L 246.87802 38.026463 
L 247.672879 38.151105 
L 250.852311 37.543245 
L 251.647169 44.459616 
L 252.442028 45.936017 
L 253.236886 44.9898 
L 255.62146 46.177611 
L 256.416318 46.881091 
L 257.211177 42.739128 
L 258.006035 42.41176 
L 258.800893 42.382508 
L 261.185467 42.702924 
L 261.980326 43.978452 
L 262.775184 42.984327 
L 263.570042 42.763156 
L 264.3649 44.027064 
L 266.749475 43.858902 
L 267.544333 41.589161 
L 268.339191 42.978837 
L 269.134049 48.432298 
L 269.928907 44.037201 
L 272.313482 44.813665 
L 273.10834 43.667703 
L 273.903198 46.030248 
L 274.698056 45.087599 
L 275.492915 45.553258 
L 277.877489 45.646254 
L 278.672347 46.997273 
L 279.467205 43.929061 
L 280.262064 43.570277 
L 281.056922 43.933374 
L 283.441496 45.170739 
L 285.826071 49.621354 
L 286.620929 47.268659 
L 289.005503 44.029808 
L 289.800362 39.930612 
L 290.59522 39.241919 
L 291.390078 37.012507 
L 292.184936 36.778143 
L 294.569511 37.336505 
L 295.364369 35.366345 
L 296.159227 35.115642 
L 296.954085 36.207985 
L 297.748943 35.351717 
L 300.133518 34.051676 
L 300.928376 35.995069 
L 301.723234 36.235697 
L 302.518092 37.055725 
L 303.312951 37.234556 
L 305.697525 38.173284 
L 306.492383 37.742632 
L 308.0821 35.563477 
L 308.876958 34.879371 
L 311.261532 36.197716 
L 312.05639 35.095092 
L 312.851249 37.051072 
L 313.646107 35.627109 
L 314.440965 36.219771 
L 316.825539 34.255144 
L 317.620398 36.426766 
L 318.415256 35.370374 
L 320.004972 36.308357 
L 322.389547 41.928773 
L 323.184405 42.861321 
L 323.979263 41.635307 
L 325.568979 43.71492 
L 327.953554 47.331189 
L 328.748412 45.429281 
L 329.54327 48.395232 
L 330.338128 48.846969 
L 331.132987 51.107123 
L 333.517561 52.688663 
L 334.312419 54.17229 
L 335.902136 45.944801 
L 336.696994 46.79566 
L 339.081568 45.036584 
L 339.876426 45.165299 
L 340.671285 45.500058 
L 342.261001 42.534749 
L 344.645575 42.302758 
L 345.440434 43.987419 
L 346.235292 46.563345 
L 347.825008 47.534364 
L 350.209583 51.062407 
L 351.004441 50.487731 
L 351.799299 48.174937 
L 352.594157 42.415717 
L 353.389015 42.256833 
L 355.77359 45.84243 
L 356.568448 44.559214 
L 357.363306 45.234962 
L 358.158164 49.274082 
L 358.953023 50.173973 
L 362.132455 46.212085 
L 362.927313 44.932456 
L 363.722172 41.007989 
L 364.51703 40.246328 
L 366.901604 40.158817 
L 367.696462 45.229821 
L 368.491321 36.889432 
L 369.286179 32.431487 
L 370.081037 35.307273 
L 370.081037 35.307273 
" style="fill:none;stroke:#d62728;stroke-linecap:square;stroke-width:1.5;"/>
   </g>
   <g id="patch_3">
    <path d="M 42.082813 172.248967 
L 42.082813 14.3 
" style="fill:none;stroke:#000000;stroke-linecap:square;stroke-linejoin:miter;stroke-width:0.8;"/>
   </g>
   <g id="patch_4">
    <path d="M 385.7 172.248967 
L 385.7 14.3 
" style="fill:none;stroke:#000000;stroke-linecap:square;stroke-linejoin:miter;stroke-width:0.8;"/>
   </g>
   <g id="patch_5">
    <path d="M 42.082812 172.248967 
L 385.7 172.248967 
" style="fill:none;stroke:#000000;stroke-linecap:square;stroke-linejoin:miter;stroke-width:0.8;"/>
   </g>
   <g id="patch_6">
    <path d="M 42.082812 14.3 
L 385.7 14.3 
" style="fill:none;stroke:#000000;stroke-linecap:square;stroke-linejoin:miter;stroke-width:0.8;"/>
   </g>
   <g id="legend_1">
    <g id="patch_7">
     <path d="M 49.082813 167.248967 
L 110.454688 167.248967 
Q 112.454688 167.248967 112.454688 165.248967 
L 112.454688 92.858342 
Q 112.454688 90.858342 110.454688 90.858342 
L 49.082813 90.858342 
Q 47.082813 90.858342 47.082813 92.858342 
L 47.082813 165.248967 
Q 47.082813 167.248967 49.082813 167.248967 
z
" style="fill:#ffffff;opacity:0.8;stroke:#cccccc;stroke-linejoin:miter;"/>
    </g>
    <g id="text_15">
     <!-- symbol -->
     <defs>
      <path d="M 44.28125 53.078125 
L 44.28125 44.578125 
Q 40.484375 46.53125 36.375 47.5 
Q 32.28125 48.484375 27.875 48.484375 
Q 21.1875 48.484375 17.84375 46.4375 
Q 14.5 44.390625 14.5 40.28125 
Q 14.5 37.15625 16.890625 35.375 
Q 19.28125 33.59375 26.515625 31.984375 
L 29.59375 31.296875 
Q 39.15625 29.25 43.1875 25.515625 
Q 47.21875 21.78125 47.21875 15.09375 
Q 47.21875 7.46875 41.1875 3.015625 
Q 35.15625 -1.421875 24.609375 -1.421875 
Q 20.21875 -1.421875 15.453125 -0.5625 
Q 10.6875 0.296875 5.421875 2 
L 5.421875 11.28125 
Q 10.40625 8.6875 15.234375 7.390625 
Q 20.0625 6.109375 24.8125 6.109375 
Q 31.15625 6.109375 34.5625 8.28125 
Q 37.984375 10.453125 37.984375 14.40625 
Q 37.984375 18.0625 35.515625 20.015625 
Q 33.0625 21.96875 24.703125 23.78125 
L 21.578125 24.515625 
Q 13.234375 26.265625 9.515625 29.90625 
Q 5.8125 33.546875 5.8125 39.890625 
Q 5.8125 47.609375 11.28125 51.796875 
Q 16.75 56 26.8125 56 
Q 31.78125 56 36.171875 55.265625 
Q 40.578125 54.546875 44.28125 53.078125 
z
" id="DejaVuSans-73"/>
      <path d="M 32.171875 -5.078125 
Q 28.375 -14.84375 24.75 -17.8125 
Q 21.140625 -20.796875 15.09375 -20.796875 
L 7.90625 -20.796875 
L 7.90625 -13.28125 
L 13.1875 -13.28125 
Q 16.890625 -13.28125 18.9375 -11.515625 
Q 21 -9.765625 23.484375 -3.21875 
L 25.09375 0.875 
L 2.984375 54.6875 
L 12.5 54.6875 
L 29.59375 11.921875 
L 46.6875 54.6875 
L 56.203125 54.6875 
z
" id="DejaVuSans-79"/>
      <path d="M 52 44.1875 
Q 55.375 50.25 60.0625 53.125 
Q 64.75 56 71.09375 56 
Q 79.640625 56 84.28125 50.015625 
Q 88.921875 44.046875 88.921875 33.015625 
L 88.921875 0 
L 79.890625 0 
L 79.890625 32.71875 
Q 79.890625 40.578125 77.09375 44.375 
Q 74.3125 48.1875 68.609375 48.1875 
Q 61.625 48.1875 57.5625 43.546875 
Q 53.515625 38.921875 53.515625 30.90625 
L 53.515625 0 
L 44.484375 0 
L 44.484375 32.71875 
Q 44.484375 40.625 41.703125 44.40625 
Q 38.921875 48.1875 33.109375 48.1875 
Q 26.21875 48.1875 22.15625 43.53125 
Q 18.109375 38.875 18.109375 30.90625 
L 18.109375 0 
L 9.078125 0 
L 9.078125 54.6875 
L 18.109375 54.6875 
L 18.109375 46.1875 
Q 21.1875 51.21875 25.484375 53.609375 
Q 29.78125 56 35.6875 56 
Q 41.65625 56 45.828125 52.96875 
Q 50 49.953125 52 44.1875 
z
" id="DejaVuSans-6d"/>
      <path d="M 48.6875 27.296875 
Q 48.6875 37.203125 44.609375 42.84375 
Q 40.53125 48.484375 33.40625 48.484375 
Q 26.265625 48.484375 22.1875 42.84375 
Q 18.109375 37.203125 18.109375 27.296875 
Q 18.109375 17.390625 22.1875 11.75 
Q 26.265625 6.109375 33.40625 6.109375 
Q 40.53125 6.109375 44.609375 11.75 
Q 48.6875 17.390625 48.6875 27.296875 
z
M 18.109375 46.390625 
Q 20.953125 51.265625 25.265625 53.625 
Q 29.59375 56 35.59375 56 
Q 45.5625 56 51.78125 48.09375 
Q 58.015625 40.1875 58.015625 27.296875 
Q 58.015625 14.40625 51.78125 6.484375 
Q 45.5625 -1.421875 35.59375 -1.421875 
Q 29.59375 -1.421875 25.265625 0.953125 
Q 20.953125 3.328125 18.109375 8.203125 
L 18.109375 0 
L 9.078125 0 
L 9.078125 75.984375 
L 18.109375 75.984375 
z
" id="DejaVuSans-62"/>
      <path d="M 30.609375 48.390625 
Q 23.390625 48.390625 19.1875 42.75 
Q 14.984375 37.109375 14.984375 27.296875 
Q 14.984375 17.484375 19.15625 11.84375 
Q 23.34375 6.203125 30.609375 6.203125 
Q 37.796875 6.203125 41.984375 11.859375 
Q 46.1875 17.53125 46.1875 27.296875 
Q 46.1875 37.015625 41.984375 42.703125 
Q 37.796875 48.390625 30.609375 48.390625 
z
M 30.609375 56 
Q 42.328125 56 49.015625 48.375 
Q 55.71875 40.765625 55.71875 27.296875 
Q 55.71875 13.875 49.015625 6.21875 
Q 42.328125 -1.421875 30.609375 -1.421875 
Q 18.84375 -1.421875 12.171875 6.21875 
Q 5.515625 13.875 5.515625 27.296875 
Q 5.515625 40.765625 12.171875 48.375 
Q 18.84375 56 30.609375 56 
z
" id="DejaVuSans-6f"/>
      <path d="M 9.421875 75.984375 
L 18.40625 75.984375 
L 18.40625 0 
L 9.421875 0 
z
" id="DejaVuSans-6c"/>
     </defs>
     <g transform="translate(61.711719 102.456779)scale(0.1 -0.1)">
      <use xlink:href="#DejaVuSans-73"/>
      <use x="52.099609" xlink:href="#DejaVuSans-79"/>
      <use x="111.279297" xlink:href="#DejaVuSans-6d"/>
      <use x="208.691406" xlink:href="#DejaVuSans-62"/>
      <use x="272.167969" xlink:href="#DejaVuSans-6f"/>
      <use x="333.349609" xlink:href="#DejaVuSans-6c"/>
     </g>
    </g>
    <g id="line2d_18">
     <path d="M 51.082813 113.634904 
L 71.082813 113.634904 
" style="fill:none;stroke:#1f77b4;stroke-linecap:square;stroke-width:1.5;"/>
    </g>
    <g id="line2d_19"/>
    <g id="text_16">
     <!-- EBAY -->
     <defs>
      <path d="M 9.8125 72.90625 
L 55.90625 72.90625 
L 55.90625 64.59375 
L 19.671875 64.59375 
L 19.671875 43.015625 
L 54.390625 43.015625 
L 54.390625 34.71875 
L 19.671875 34.71875 
L 19.671875 8.296875 
L 56.78125 8.296875 
L 56.78125 0 
L 9.8125 0 
z
" id="DejaVuSans-45"/>
      <path d="M 19.671875 34.8125 
L 19.671875 8.109375 
L 35.5 8.109375 
Q 43.453125 8.109375 47.28125 11.40625 
Q 51.125 14.703125 51.125 21.484375 
Q 51.125 28.328125 47.28125 31.5625 
Q 43.453125 34.8125 35.5 34.8125 
z
M 19.671875 64.796875 
L 19.671875 42.828125 
L 34.28125 42.828125 
Q 41.5 42.828125 45.03125 45.53125 
Q 48.578125 48.25 48.578125 53.8125 
Q 48.578125 59.328125 45.03125 62.0625 
Q 41.5 64.796875 34.28125 64.796875 
z
M 9.8125 72.90625 
L 35.015625 72.90625 
Q 46.296875 72.90625 52.390625 68.21875 
Q 58.5 63.53125 58.5 54.890625 
Q 58.5 48.1875 55.375 44.234375 
Q 52.25 40.28125 46.1875 39.3125 
Q 53.46875 37.75 57.5 32.78125 
Q 61.53125 27.828125 61.53125 20.40625 
Q 61.53125 10.640625 54.890625 5.3125 
Q 48.25 0 35.984375 0 
L 9.8125 0 
z
" id="DejaVuSans-42"/>
      <path d="M 34.1875 63.1875 
L 20.796875 26.90625 
L 47.609375 26.90625 
z
M 28.609375 72.90625 
L 39.796875 72.90625 
L 67.578125 0 
L 57.328125 0 
L 50.6875 18.703125 
L 17.828125 18.703125 
L 11.1875 0 
L 0.78125 0 
z
" id="DejaVuSans-41"/>
      <path d="M -0.203125 72.90625 
L 10.40625 72.90625 
L 30.609375 42.921875 
L 50.6875 72.90625 
L 61.28125 72.90625 
L 35.5 34.71875 
L 35.5 0 
L 25.59375 0 
L 25.59375 34.71875 
z
" id="DejaVuSans-59"/>
     </defs>
     <g transform="translate(79.082813 117.134904)scale(0.1 -0.1)">
      <use xlink:href="#DejaVuSans-45"/>
      <use x="63.183594" xlink:href="#DejaVuSans-42"/>
      <use x="131.787109" xlink:href="#DejaVuSans-41"/>
      <use x="200.085938" xlink:href="#DejaVuSans-59"/>
     </g>
    </g>
    <g id="line2d_20">
     <path d="M 51.082813 128.313029 
L 71.082813 128.313029 
" style="fill:none;stroke:#ff7f0e;stroke-linecap:square;stroke-width:1.5;"/>
    </g>
    <g id="line2d_21"/>
    <g id="text_17">
     <!-- NVDA -->
     <defs>
      <path d="M 9.8125 72.90625 
L 23.09375 72.90625 
L 55.421875 11.921875 
L 55.421875 72.90625 
L 64.984375 72.90625 
L 64.984375 0 
L 51.703125 0 
L 19.390625 60.984375 
L 19.390625 0 
L 9.8125 0 
z
" id="DejaVuSans-4e"/>
      <path d="M 28.609375 0 
L 0.78125 72.90625 
L 11.078125 72.90625 
L 34.1875 11.53125 
L 57.328125 72.90625 
L 67.578125 72.90625 
L 39.796875 0 
z
" id="DejaVuSans-56"/>
      <path d="M 19.671875 64.796875 
L 19.671875 8.109375 
L 31.59375 8.109375 
Q 46.6875 8.109375 53.6875 14.9375 
Q 60.6875 21.78125 60.6875 36.53125 
Q 60.6875 51.171875 53.6875 57.984375 
Q 46.6875 64.796875 31.59375 64.796875 
z
M 9.8125 72.90625 
L 30.078125 72.90625 
Q 51.265625 72.90625 61.171875 64.09375 
Q 71.09375 55.28125 71.09375 36.53125 
Q 71.09375 17.671875 61.125 8.828125 
Q 51.171875 0 30.078125 0 
L 9.8125 0 
z
" id="DejaVuSans-44"/>
     </defs>
     <g transform="translate(79.082813 131.813029)scale(0.1 -0.1)">
      <use xlink:href="#DejaVuSans-4e"/>
      <use x="74.804688" xlink:href="#DejaVuSans-56"/>
      <use x="143.212891" xlink:href="#DejaVuSans-44"/>
      <use x="220.199219" xlink:href="#DejaVuSans-41"/>
     </g>
    </g>
    <g id="line2d_22">
     <path d="M 51.082813 142.991154 
L 71.082813 142.991154 
" style="fill:none;stroke:#2ca02c;stroke-linecap:square;stroke-width:1.5;"/>
    </g>
    <g id="line2d_23"/>
    <g id="text_18">
     <!-- YHOO -->
     <defs>
      <path d="M 9.8125 72.90625 
L 19.671875 72.90625 
L 19.671875 43.015625 
L 55.515625 43.015625 
L 55.515625 72.90625 
L 65.375 72.90625 
L 65.375 0 
L 55.515625 0 
L 55.515625 34.71875 
L 19.671875 34.71875 
L 19.671875 0 
L 9.8125 0 
z
" id="DejaVuSans-48"/>
      <path d="M 39.40625 66.21875 
Q 28.65625 66.21875 22.328125 58.203125 
Q 16.015625 50.203125 16.015625 36.375 
Q 16.015625 22.609375 22.328125 14.59375 
Q 28.65625 6.59375 39.40625 6.59375 
Q 50.140625 6.59375 56.421875 14.59375 
Q 62.703125 22.609375 62.703125 36.375 
Q 62.703125 50.203125 56.421875 58.203125 
Q 50.140625 66.21875 39.40625 66.21875 
z
M 39.40625 74.21875 
Q 54.734375 74.21875 63.90625 63.9375 
Q 73.09375 53.65625 73.09375 36.375 
Q 73.09375 19.140625 63.90625 8.859375 
Q 54.734375 -1.421875 39.40625 -1.421875 
Q 24.03125 -1.421875 14.8125 8.828125 
Q 5.609375 19.09375 5.609375 36.375 
Q 5.609375 53.65625 14.8125 63.9375 
Q 24.03125 74.21875 39.40625 74.21875 
z
" id="DejaVuSans-4f"/>
     </defs>
     <g transform="translate(79.082813 146.491154)scale(0.1 -0.1)">
      <use xlink:href="#DejaVuSans-59"/>
      <use x="61.083984" xlink:href="#DejaVuSans-48"/>
      <use x="136.279297" xlink:href="#DejaVuSans-4f"/>
      <use x="214.990234" xlink:href="#DejaVuSans-4f"/>
     </g>
    </g>
    <g id="line2d_24">
     <path d="M 51.082813 157.669279 
L 71.082813 157.669279 
" style="fill:none;stroke:#d62728;stroke-linecap:square;stroke-width:1.5;"/>
    </g>
    <g id="line2d_25"/>
    <g id="text_19">
     <!-- AAPL -->
     <defs>
      <path d="M 19.671875 64.796875 
L 19.671875 37.40625 
L 32.078125 37.40625 
Q 38.96875 37.40625 42.71875 40.96875 
Q 46.484375 44.53125 46.484375 51.125 
Q 46.484375 57.671875 42.71875 61.234375 
Q 38.96875 64.796875 32.078125 64.796875 
z
M 9.8125 72.90625 
L 32.078125 72.90625 
Q 44.34375 72.90625 50.609375 67.359375 
Q 56.890625 61.8125 56.890625 51.125 
Q 56.890625 40.328125 50.609375 34.8125 
Q 44.34375 29.296875 32.078125 29.296875 
L 19.671875 29.296875 
L 19.671875 0 
L 9.8125 0 
z
" id="DejaVuSans-50"/>
      <path d="M 9.8125 72.90625 
L 19.671875 72.90625 
L 19.671875 8.296875 
L 55.171875 8.296875 
L 55.171875 0 
L 9.8125 0 
z
" id="DejaVuSans-4c"/>
     </defs>
     <g transform="translate(79.082813 161.169279)scale(0.1 -0.1)">
      <use xlink:href="#DejaVuSans-41"/>
      <use x="68.439453" xlink:href="#DejaVuSans-41"/>
      <use x="136.847656" xlink:href="#DejaVuSans-50"/>
      <use x="197.150391" xlink:href="#DejaVuSans-4c"/>
     </g>
    </g>
   </g>
  </g>
 </g>
 <defs>
  <clipPath id="p9c5e6f22b8">
   <rect height="157.948967" width="343.617188" x="42.082813" y="14.3"/>
  </clipPath>
 </defs>
</svg>
