<?xml version="1.0" encoding="utf-8" standalone="no"?>
<!DOCTYPE svg PUBLIC "-//W3C//DTD SVG 1.1//EN"
  "http://www.w3.org/Graphics/SVG/1.1/DTD/svg11.dtd">
<!-- Created with matplotlib (http://matplotlib.org/) -->
<svg height="640pt" version="1.1" viewBox="0 0 640 640" width="640pt" xmlns="http://www.w3.org/2000/svg" xmlns:xlink="http://www.w3.org/1999/xlink">
 <defs>
  <style type="text/css">
*{stroke-linecap:butt;stroke-linejoin:round;}
  </style>
 </defs>
 <g id="figure_1">
  <g id="patch_1">
   <path d="M 0 640 
L 640 640 
L 640 0 
L 0 0 
z
" style="fill:#ffffff;"/>
  </g>
  <g id="axes_1">
   <g id="patch_2">
    <path d="M 30.525 587.415373 
L 625.7 587.415373 
L 625.7 14.3 
L 30.525 14.3 
z
" style="fill:#ffffff;"/>
   </g>
   <g id="matplotlib.axis_1">
    <g id="xtick_1">
     <g id="line2d_1">
      <defs>
       <path d="M 0 0 
L 0 3.5 
" id="m6a8d84be99" style="stroke:#000000;stroke-width:0.8;"/>
      </defs>
      <g>
       <use style="stroke:#000000;stroke-width:0.8;" x="56.701949" xlink:href="#m6a8d84be99" y="587.415373"/>
      </g>
     </g>
     <g id="text_1">
      <!-- 2010 -->
      <defs>
       <path d="M 19.1875 8.296875 
L 53.609375 8.296875 
L 53.609375 0 
L 7.328125 0 
L 7.328125 8.296875 
Q 12.9375 14.109375 22.625 23.890625 
Q 32.328125 33.6875 34.8125 36.53125 
Q 39.546875 41.84375 41.421875 45.53125 
Q 43.3125 49.21875 43.3125 52.78125 
Q 43.3125 58.59375 39.234375 62.25 
Q 35.15625 65.921875 28.609375 65.921875 
Q 23.96875 65.921875 18.8125 64.3125 
Q 13.671875 62.703125 7.8125 59.421875 
L 7.8125 69.390625 
Q 13.765625 71.78125 18.9375 73 
Q 24.125 74.21875 28.421875 74.21875 
Q 39.75 74.21875 46.484375 68.546875 
Q 53.21875 62.890625 53.21875 53.421875 
Q 53.21875 48.921875 51.53125 44.890625 
Q 49.859375 40.875 45.40625 35.40625 
Q 44.1875 33.984375 37.640625 27.21875 
Q 31.109375 20.453125 19.1875 8.296875 
z
" id="DejaVuSans-32"/>
       <path d="M 31.78125 66.40625 
Q 24.171875 66.40625 20.328125 58.90625 
Q 16.5 51.421875 16.5 36.375 
Q 16.5 21.390625 20.328125 13.890625 
Q 24.171875 6.390625 31.78125 6.390625 
Q 39.453125 6.390625 43.28125 13.890625 
Q 47.125 21.390625 47.125 36.375 
Q 47.125 51.421875 43.28125 58.90625 
Q 39.453125 66.40625 31.78125 66.40625 
z
M 31.78125 74.21875 
Q 44.046875 74.21875 50.515625 64.515625 
Q 56.984375 54.828125 56.984375 36.375 
Q 56.984375 17.96875 50.515625 8.265625 
Q 44.046875 -1.421875 31.78125 -1.421875 
Q 19.53125 -1.421875 13.0625 8.265625 
Q 6.59375 17.96875 6.59375 36.375 
Q 6.59375 54.828125 13.0625 64.515625 
Q 19.53125 74.21875 31.78125 74.21875 
z
" id="DejaVuSans-30"/>
       <path d="M 12.40625 8.296875 
L 28.515625 8.296875 
L 28.515625 63.921875 
L 10.984375 60.40625 
L 10.984375 69.390625 
L 28.421875 72.90625 
L 38.28125 72.90625 
L 38.28125 8.296875 
L 54.390625 8.296875 
L 54.390625 0 
L 12.40625 0 
z
" id="DejaVuSans-31"/>
      </defs>
      <g transform="translate(33.621758 613.720813)rotate(-30)scale(0.1 -0.1)">
       <use xlink:href="#DejaVuSans-32"/>
       <use x="63.623047" xlink:href="#DejaVuSans-30"/>
       <use x="127.246094" xlink:href="#DejaVuSans-31"/>
       <use x="190.869141" xlink:href="#DejaVuSans-30"/>
      </g>
     </g>
    </g>
    <g id="xtick_2">
     <g id="line2d_2">
      <g>
       <use style="stroke:#000000;stroke-width:0.8;" x="163.337957" xlink:href="#m6a8d84be99" y="587.415373"/>
      </g>
     </g>
     <g id="text_2">
      <!-- 2011 -->
      <g transform="translate(140.257766 613.720813)rotate(-30)scale(0.1 -0.1)">
       <use xlink:href="#DejaVuSans-32"/>
       <use x="63.623047" xlink:href="#DejaVuSans-30"/>
       <use x="127.246094" xlink:href="#DejaVuSans-31"/>
       <use x="190.869141" xlink:href="#DejaVuSans-31"/>
      </g>
     </g>
    </g>
    <g id="xtick_3">
     <g id="line2d_3">
      <g>
       <use style="stroke:#000000;stroke-width:0.8;" x="269.973964" xlink:href="#m6a8d84be99" y="587.415373"/>
      </g>
     </g>
     <g id="text_3">
      <!-- 2012 -->
      <g transform="translate(246.893774 613.720813)rotate(-30)scale(0.1 -0.1)">
       <use xlink:href="#DejaVuSans-32"/>
       <use x="63.623047" xlink:href="#DejaVuSans-30"/>
       <use x="127.246094" xlink:href="#DejaVuSans-31"/>
       <use x="190.869141" xlink:href="#DejaVuSans-32"/>
      </g>
     </g>
    </g>
    <g id="xtick_4">
     <g id="line2d_4">
      <g>
       <use style="stroke:#000000;stroke-width:0.8;" x="376.902125" xlink:href="#m6a8d84be99" y="587.415373"/>
      </g>
     </g>
     <g id="text_4">
      <!-- 2013 -->
      <defs>
       <path d="M 40.578125 39.3125 
Q 47.65625 37.796875 51.625 33 
Q 55.609375 28.21875 55.609375 21.1875 
Q 55.609375 10.40625 48.1875 4.484375 
Q 40.765625 -1.421875 27.09375 -1.421875 
Q 22.515625 -1.421875 17.65625 -0.515625 
Q 12.796875 0.390625 7.625 2.203125 
L 7.625 11.71875 
Q 11.71875 9.328125 16.59375 8.109375 
Q 21.484375 6.890625 26.8125 6.890625 
Q 36.078125 6.890625 40.9375 10.546875 
Q 45.796875 14.203125 45.796875 21.1875 
Q 45.796875 27.640625 41.28125 31.265625 
Q 36.765625 34.90625 28.71875 34.90625 
L 20.21875 34.90625 
L 20.21875 43.015625 
L 29.109375 43.015625 
Q 36.375 43.015625 40.234375 45.921875 
Q 44.09375 48.828125 44.09375 54.296875 
Q 44.09375 59.90625 40.109375 62.90625 
Q 36.140625 65.921875 28.71875 65.921875 
Q 24.65625 65.921875 20.015625 65.03125 
Q 15.375 64.15625 9.8125 62.3125 
L 9.8125 71.09375 
Q 15.4375 72.65625 20.34375 73.4375 
Q 25.25 74.21875 29.59375 74.21875 
Q 40.828125 74.21875 47.359375 69.109375 
Q 53.90625 64.015625 53.90625 55.328125 
Q 53.90625 49.265625 50.4375 45.09375 
Q 46.96875 40.921875 40.578125 39.3125 
z
" id="DejaVuSans-33"/>
      </defs>
      <g transform="translate(353.821935 613.720813)rotate(-30)scale(0.1 -0.1)">
       <use xlink:href="#DejaVuSans-32"/>
       <use x="63.623047" xlink:href="#DejaVuSans-30"/>
       <use x="127.246094" xlink:href="#DejaVuSans-31"/>
       <use x="190.869141" xlink:href="#DejaVuSans-33"/>
      </g>
     </g>
    </g>
    <g id="xtick_5">
     <g id="line2d_5">
      <g>
       <use style="stroke:#000000;stroke-width:0.8;" x="483.538133" xlink:href="#m6a8d84be99" y="587.415373"/>
      </g>
     </g>
     <g id="text_5">
      <!-- 2014 -->
      <defs>
       <path d="M 37.796875 64.3125 
L 12.890625 25.390625 
L 37.796875 25.390625 
z
M 35.203125 72.90625 
L 47.609375 72.90625 
L 47.609375 25.390625 
L 58.015625 25.390625 
L 58.015625 17.1875 
L 47.609375 17.1875 
L 47.609375 0 
L 37.796875 0 
L 37.796875 17.1875 
L 4.890625 17.1875 
L 4.890625 26.703125 
z
" id="DejaVuSans-34"/>
      </defs>
      <g transform="translate(460.457943 613.720813)rotate(-30)scale(0.1 -0.1)">
       <use xlink:href="#DejaVuSans-32"/>
       <use x="63.623047" xlink:href="#DejaVuSans-30"/>
       <use x="127.246094" xlink:href="#DejaVuSans-31"/>
       <use x="190.869141" xlink:href="#DejaVuSans-34"/>
      </g>
     </g>
    </g>
    <g id="xtick_6">
     <g id="line2d_6">
      <g>
       <use style="stroke:#000000;stroke-width:0.8;" x="590.174141" xlink:href="#m6a8d84be99" y="587.415373"/>
      </g>
     </g>
     <g id="text_6">
      <!-- 2015 -->
      <defs>
       <path d="M 10.796875 72.90625 
L 49.515625 72.90625 
L 49.515625 64.59375 
L 19.828125 64.59375 
L 19.828125 46.734375 
Q 21.96875 47.46875 24.109375 47.828125 
Q 26.265625 48.1875 28.421875 48.1875 
Q 40.625 48.1875 47.75 41.5 
Q 54.890625 34.8125 54.890625 23.390625 
Q 54.890625 11.625 47.5625 5.09375 
Q 40.234375 -1.421875 26.90625 -1.421875 
Q 22.3125 -1.421875 17.546875 -0.640625 
Q 12.796875 0.140625 7.71875 1.703125 
L 7.71875 11.625 
Q 12.109375 9.234375 16.796875 8.0625 
Q 21.484375 6.890625 26.703125 6.890625 
Q 35.15625 6.890625 40.078125 11.328125 
Q 45.015625 15.765625 45.015625 23.390625 
Q 45.015625 31 40.078125 35.4375 
Q 35.15625 39.890625 26.703125 39.890625 
Q 22.75 39.890625 18.8125 39.015625 
Q 14.890625 38.140625 10.796875 36.28125 
z
" id="DejaVuSans-35"/>
      </defs>
      <g transform="translate(567.093951 613.720813)rotate(-30)scale(0.1 -0.1)">
       <use xlink:href="#DejaVuSans-32"/>
       <use x="63.623047" xlink:href="#DejaVuSans-30"/>
       <use x="127.246094" xlink:href="#DejaVuSans-31"/>
       <use x="190.869141" xlink:href="#DejaVuSans-35"/>
      </g>
     </g>
    </g>
    <g id="text_7">
     <!-- date -->
     <defs>
      <path d="M 45.40625 46.390625 
L 45.40625 75.984375 
L 54.390625 75.984375 
L 54.390625 0 
L 45.40625 0 
L 45.40625 8.203125 
Q 42.578125 3.328125 38.25 0.953125 
Q 33.9375 -1.421875 27.875 -1.421875 
Q 17.96875 -1.421875 11.734375 6.484375 
Q 5.515625 14.40625 5.515625 27.296875 
Q 5.515625 40.1875 11.734375 48.09375 
Q 17.96875 56 27.875 56 
Q 33.9375 56 38.25 53.625 
Q 42.578125 51.265625 45.40625 46.390625 
z
M 14.796875 27.296875 
Q 14.796875 17.390625 18.875 11.75 
Q 22.953125 6.109375 30.078125 6.109375 
Q 37.203125 6.109375 41.296875 11.75 
Q 45.40625 17.390625 45.40625 27.296875 
Q 45.40625 37.203125 41.296875 42.84375 
Q 37.203125 48.484375 30.078125 48.484375 
Q 22.953125 48.484375 18.875 42.84375 
Q 14.796875 37.203125 14.796875 27.296875 
z
" id="DejaVuSans-64"/>
      <path d="M 34.28125 27.484375 
Q 23.390625 27.484375 19.1875 25 
Q 14.984375 22.515625 14.984375 16.5 
Q 14.984375 11.71875 18.140625 8.90625 
Q 21.296875 6.109375 26.703125 6.109375 
Q 34.1875 6.109375 38.703125 11.40625 
Q 43.21875 16.703125 43.21875 25.484375 
L 43.21875 27.484375 
z
M 52.203125 31.203125 
L 52.203125 0 
L 43.21875 0 
L 43.21875 8.296875 
Q 40.140625 3.328125 35.546875 0.953125 
Q 30.953125 -1.421875 24.3125 -1.421875 
Q 15.921875 -1.421875 10.953125 3.296875 
Q 6 8.015625 6 15.921875 
Q 6 25.140625 12.171875 29.828125 
Q 18.359375 34.515625 30.609375 34.515625 
L 43.21875 34.515625 
L 43.21875 35.40625 
Q 43.21875 41.609375 39.140625 45 
Q 35.0625 48.390625 27.6875 48.390625 
Q 23 48.390625 18.546875 47.265625 
Q 14.109375 46.140625 10.015625 43.890625 
L 10.015625 52.203125 
Q 14.9375 54.109375 19.578125 55.046875 
Q 24.21875 56 28.609375 56 
Q 40.484375 56 46.34375 49.84375 
Q 52.203125 43.703125 52.203125 31.203125 
z
" id="DejaVuSans-61"/>
      <path d="M 18.3125 70.21875 
L 18.3125 54.6875 
L 36.8125 54.6875 
L 36.8125 47.703125 
L 18.3125 47.703125 
L 18.3125 18.015625 
Q 18.3125 11.328125 20.140625 9.421875 
Q 21.96875 7.515625 27.59375 7.515625 
L 36.8125 7.515625 
L 36.8125 0 
L 27.59375 0 
Q 17.1875 0 13.234375 3.875 
Q 9.28125 7.765625 9.28125 18.015625 
L 9.28125 47.703125 
L 2.6875 47.703125 
L 2.6875 54.6875 
L 9.28125 54.6875 
L 9.28125 70.21875 
z
" id="DejaVuSans-74"/>
      <path d="M 56.203125 29.59375 
L 56.203125 25.203125 
L 14.890625 25.203125 
Q 15.484375 15.921875 20.484375 11.0625 
Q 25.484375 6.203125 34.421875 6.203125 
Q 39.59375 6.203125 44.453125 7.46875 
Q 49.3125 8.734375 54.109375 11.28125 
L 54.109375 2.78125 
Q 49.265625 0.734375 44.1875 -0.34375 
Q 39.109375 -1.421875 33.890625 -1.421875 
Q 20.796875 -1.421875 13.15625 6.1875 
Q 5.515625 13.8125 5.515625 26.8125 
Q 5.515625 40.234375 12.765625 48.109375 
Q 20.015625 56 32.328125 56 
Q 43.359375 56 49.78125 48.890625 
Q 56.203125 41.796875 56.203125 29.59375 
z
M 47.21875 32.234375 
Q 47.125 39.59375 43.09375 43.984375 
Q 39.0625 48.390625 32.421875 48.390625 
Q 24.90625 48.390625 20.390625 44.140625 
Q 15.875 39.890625 15.1875 32.171875 
z
" id="DejaVuSans-65"/>
     </defs>
     <g transform="translate(316.8375 627.120313)scale(0.1 -0.1)">
      <use xlink:href="#DejaVuSans-64"/>
      <use x="63.476562" xlink:href="#DejaVuSans-61"/>
      <use x="124.755859" xlink:href="#DejaVuSans-74"/>
      <use x="163.964844" xlink:href="#DejaVuSans-65"/>
     </g>
    </g>
   </g>
   <g id="matplotlib.axis_2">
    <g id="ytick_1">
     <g id="line2d_7">
      <defs>
       <path d="M 0 0 
L -3.5 0 
" id="mfaaad2d6b7" style="stroke:#000000;stroke-width:0.8;"/>
      </defs>
      <g>
       <use style="stroke:#000000;stroke-width:0.8;" x="30.525" xlink:href="#mfaaad2d6b7" y="553.666172"/>
      </g>
     </g>
     <g id="text_8">
      <!-- 10 -->
      <g transform="translate(10.8 557.465391)scale(0.1 -0.1)">
       <use xlink:href="#DejaVuSans-31"/>
       <use x="63.623047" xlink:href="#DejaVuSans-30"/>
      </g>
     </g>
    </g>
    <g id="ytick_2">
     <g id="line2d_8">
      <g>
       <use style="stroke:#000000;stroke-width:0.8;" x="30.525" xlink:href="#mfaaad2d6b7" y="484.929547"/>
      </g>
     </g>
     <g id="text_9">
      <!-- 20 -->
      <g transform="translate(10.8 488.728765)scale(0.1 -0.1)">
       <use xlink:href="#DejaVuSans-32"/>
       <use x="63.623047" xlink:href="#DejaVuSans-30"/>
      </g>
     </g>
    </g>
    <g id="ytick_3">
     <g id="line2d_9">
      <g>
       <use style="stroke:#000000;stroke-width:0.8;" x="30.525" xlink:href="#mfaaad2d6b7" y="416.192921"/>
      </g>
     </g>
     <g id="text_10">
      <!-- 30 -->
      <g transform="translate(10.8 419.99214)scale(0.1 -0.1)">
       <use xlink:href="#DejaVuSans-33"/>
       <use x="63.623047" xlink:href="#DejaVuSans-30"/>
      </g>
     </g>
    </g>
    <g id="ytick_4">
     <g id="line2d_10">
      <g>
       <use style="stroke:#000000;stroke-width:0.8;" x="30.525" xlink:href="#mfaaad2d6b7" y="347.456296"/>
      </g>
     </g>
     <g id="text_11">
      <!-- 40 -->
      <g transform="translate(10.8 351.255515)scale(0.1 -0.1)">
       <use xlink:href="#DejaVuSans-34"/>
       <use x="63.623047" xlink:href="#DejaVuSans-30"/>
      </g>
     </g>
    </g>
    <g id="ytick_5">
     <g id="line2d_11">
      <g>
       <use style="stroke:#000000;stroke-width:0.8;" x="30.525" xlink:href="#mfaaad2d6b7" y="278.71967"/>
      </g>
     </g>
     <g id="text_12">
      <!-- 50 -->
      <g transform="translate(10.8 282.518889)scale(0.1 -0.1)">
       <use xlink:href="#DejaVuSans-35"/>
       <use x="63.623047" xlink:href="#DejaVuSans-30"/>
      </g>
     </g>
    </g>
    <g id="ytick_6">
     <g id="line2d_12">
      <g>
       <use style="stroke:#000000;stroke-width:0.8;" x="30.525" xlink:href="#mfaaad2d6b7" y="209.983045"/>
      </g>
     </g>
     <g id="text_13">
      <!-- 60 -->
      <defs>
       <path d="M 33.015625 40.375 
Q 26.375 40.375 22.484375 35.828125 
Q 18.609375 31.296875 18.609375 23.390625 
Q 18.609375 15.53125 22.484375 10.953125 
Q 26.375 6.390625 33.015625 6.390625 
Q 39.65625 6.390625 43.53125 10.953125 
Q 47.40625 15.53125 47.40625 23.390625 
Q 47.40625 31.296875 43.53125 35.828125 
Q 39.65625 40.375 33.015625 40.375 
z
M 52.59375 71.296875 
L 52.59375 62.3125 
Q 48.875 64.0625 45.09375 64.984375 
Q 41.3125 65.921875 37.59375 65.921875 
Q 27.828125 65.921875 22.671875 59.328125 
Q 17.53125 52.734375 16.796875 39.40625 
Q 19.671875 43.65625 24.015625 45.921875 
Q 28.375 48.1875 33.59375 48.1875 
Q 44.578125 48.1875 50.953125 41.515625 
Q 57.328125 34.859375 57.328125 23.390625 
Q 57.328125 12.15625 50.6875 5.359375 
Q 44.046875 -1.421875 33.015625 -1.421875 
Q 20.359375 -1.421875 13.671875 8.265625 
Q 6.984375 17.96875 6.984375 36.375 
Q 6.984375 53.65625 15.1875 63.9375 
Q 23.390625 74.21875 37.203125 74.21875 
Q 40.921875 74.21875 44.703125 73.484375 
Q 48.484375 72.75 52.59375 71.296875 
z
" id="DejaVuSans-36"/>
      </defs>
      <g transform="translate(10.8 213.782264)scale(0.1 -0.1)">
       <use xlink:href="#DejaVuSans-36"/>
       <use x="63.623047" xlink:href="#DejaVuSans-30"/>
      </g>
     </g>
    </g>
    <g id="ytick_7">
     <g id="line2d_13">
      <g>
       <use style="stroke:#000000;stroke-width:0.8;" x="30.525" xlink:href="#mfaaad2d6b7" y="141.246419"/>
      </g>
     </g>
     <g id="text_14">
      <!-- 70 -->
      <defs>
       <path d="M 8.203125 72.90625 
L 55.078125 72.90625 
L 55.078125 68.703125 
L 28.609375 0 
L 18.3125 0 
L 43.21875 64.59375 
L 8.203125 64.59375 
z
" id="DejaVuSans-37"/>
      </defs>
      <g transform="translate(10.8 145.045638)scale(0.1 -0.1)">
       <use xlink:href="#DejaVuSans-37"/>
       <use x="63.623047" xlink:href="#DejaVuSans-30"/>
      </g>
     </g>
    </g>
    <g id="ytick_8">
     <g id="line2d_14">
      <g>
       <use style="stroke:#000000;stroke-width:0.8;" x="30.525" xlink:href="#mfaaad2d6b7" y="72.509794"/>
      </g>
     </g>
     <g id="text_15">
      <!-- 80 -->
      <defs>
       <path d="M 31.78125 34.625 
Q 24.75 34.625 20.71875 30.859375 
Q 16.703125 27.09375 16.703125 20.515625 
Q 16.703125 13.921875 20.71875 10.15625 
Q 24.75 6.390625 31.78125 6.390625 
Q 38.8125 6.390625 42.859375 10.171875 
Q 46.921875 13.96875 46.921875 20.515625 
Q 46.921875 27.09375 42.890625 30.859375 
Q 38.875 34.625 31.78125 34.625 
z
M 21.921875 38.8125 
Q 15.578125 40.375 12.03125 44.71875 
Q 8.5 49.078125 8.5 55.328125 
Q 8.5 64.0625 14.71875 69.140625 
Q 20.953125 74.21875 31.78125 74.21875 
Q 42.671875 74.21875 48.875 69.140625 
Q 55.078125 64.0625 55.078125 55.328125 
Q 55.078125 49.078125 51.53125 44.71875 
Q 48 40.375 41.703125 38.8125 
Q 48.828125 37.15625 52.796875 32.3125 
Q 56.78125 27.484375 56.78125 20.515625 
Q 56.78125 9.90625 50.3125 4.234375 
Q 43.84375 -1.421875 31.78125 -1.421875 
Q 19.734375 -1.421875 13.25 4.234375 
Q 6.78125 9.90625 6.78125 20.515625 
Q 6.78125 27.484375 10.78125 32.3125 
Q 14.796875 37.15625 21.921875 38.8125 
z
M 18.3125 54.390625 
Q 18.3125 48.734375 21.84375 45.5625 
Q 25.390625 42.390625 31.78125 42.390625 
Q 38.140625 42.390625 41.71875 45.5625 
Q 45.3125 48.734375 45.3125 54.390625 
Q 45.3125 60.0625 41.71875 63.234375 
Q 38.140625 66.40625 31.78125 66.40625 
Q 25.390625 66.40625 21.84375 63.234375 
Q 18.3125 60.0625 18.3125 54.390625 
z
" id="DejaVuSans-38"/>
      </defs>
      <g transform="translate(10.8 76.309013)scale(0.1 -0.1)">
       <use xlink:href="#DejaVuSans-38"/>
       <use x="63.623047" xlink:href="#DejaVuSans-30"/>
      </g>
     </g>
    </g>
   </g>
   <g id="line2d_15">
    <path clip-path="url(#p48e102de63)" d="M 57.578409 458.122263 
L 57.870563 459.840678 
L 58.162716 460.871728 
L 58.454869 462.72763 
L 58.747023 460.802998 
L 59.623483 461.215411 
L 59.915637 463.002563 
L 60.20779 460.184361 
L 60.499944 465.133399 
L 60.792097 467.951614 
L 61.960711 462.521414 
L 62.252864 469.601279 
L 62.545018 456.541334 
L 62.837171 460.321848 
L 63.713631 459.565732 
L 64.005785 456.953747 
L 64.297938 457.641113 
L 64.590092 462.040264 
L 64.882245 464.171093 
L 65.758706 463.140043 
L 66.050859 463.75868 
L 66.343012 462.72763 
L 66.635166 468.08908 
L 66.927319 466.301928 
L 67.80378 467.814127 
L 68.095933 468.63898 
L 68.388087 471.457175 
L 68.68024 470.288645 
L 68.972393 472.763178 
L 70.725314 465.408345 
L 71.017468 461.421628 
L 71.893928 462.383947 
L 72.186081 465.064662 
L 72.478235 462.521414 
L 72.770388 464.308559 
L 73.062542 464.171093 
L 73.939002 458.25975 
L 74.231156 457.503633 
L 74.523309 460.802998 
L 74.815462 458.947116 
L 75.107616 453.104496 
L 75.984076 451.661034 
L 76.27623 447.055666 
L 76.568383 446.711983 
L 76.860537 447.536836 
L 77.15269 443.893788 
L 78.02915 441.762953 
L 78.321304 438.257385 
L 78.613457 436.951389 
L 78.905611 433.652024 
L 79.197764 435.50792 
L 80.366378 436.470239 
L 80.658531 437.226335 
L 80.950685 432.964672 
L 81.242838 433.720774 
L 82.119299 434.88929 
L 82.703605 437.020119 
L 82.995759 439.769584 
L 84.164373 434.270654 
L 84.456526 434.95802 
L 85.040833 440.525687 
L 85.332986 439.907071 
L 86.5016 439.288434 
L 86.793754 436.538969 
L 87.085907 436.951389 
L 87.378061 441.41927 
L 88.254521 441.487999 
L 88.546674 440.93812 
L 88.838828 441.694216 
L 89.130981 452.073447 
L 89.423135 453.654382 
L 90.299595 453.585652 
L 90.591748 459.015846 
L 91.176055 455.785217 
L 91.468209 458.947116 
L 92.344669 458.053533 
L 92.636823 463.75868 
L 93.221129 469.326346 
L 93.513283 474.756526 
L 94.389743 468.913913 
L 94.681897 468.57023 
L 95.266204 466.508131 
L 95.558357 469.463813 
L 96.434817 467.676661 
L 96.726971 470.013713 
L 97.019124 473.65674 
L 97.311278 479.361894 
L 97.603431 475.168946 
L 98.479892 475.581372 
L 98.772045 474.000423 
L 99.064198 475.443892 
L 99.356352 471.800858 
L 99.648505 475.237689 
L 100.817119 478.330837 
L 101.109273 476.337475 
L 101.401426 469.944962 
L 101.693579 471.250958 
L 102.57004 474.275377 
L 103.154347 472.694427 
L 103.738654 466.714348 
L 104.615114 469.738759 
L 104.907267 468.501493 
L 105.199421 470.288645 
L 105.491574 470.494862 
L 105.783728 470.082442 
L 106.660188 472.075811 
L 107.536648 479.018211 
L 107.828802 478.399574 
L 108.705262 480.04926 
L 108.997416 487.060389 
L 109.289569 487.610275 
L 109.581722 487.404072 
L 109.873876 490.016057 
L 111.04249 489.397434 
L 111.334643 486.235543 
L 111.626797 485.685656 
L 111.91895 482.936191 
L 112.79541 483.417341 
L 113.087564 477.987154 
L 113.379717 477.299788 
L 113.671871 477.849674 
L 113.964024 484.310924 
L 114.840484 482.180088 
L 115.132638 479.49936 
L 115.424791 483.761024 
L 115.716945 478.468311 
L 116.009098 477.437261 
L 116.885559 477.093578 
L 117.177712 477.780944 
L 117.469866 477.780944 
L 117.762019 479.636826 
L 118.054172 478.674527 
L 118.930633 474.894006 
L 119.222786 478.262094 
L 119.51494 477.368525 
L 119.807093 477.574728 
L 120.099247 474.962743 
L 120.975707 471.319695 
L 121.26786 471.800858 
L 121.560014 476.337475 
L 121.852167 474.000423 
L 122.144321 474.61906 
L 123.020781 470.838545 
L 123.605088 466.095711 
L 123.897241 463.414997 
L 124.189395 461.765311 
L 125.065855 462.452677 
L 125.358009 465.202142 
L 125.650162 463.20878 
L 125.942315 466.164448 
L 126.234469 463.071313 
L 127.110929 463.414997 
L 127.403083 462.72763 
L 127.695236 457.2287 
L 127.98739 457.022484 
L 128.279543 456.541334 
L 129.448157 460.665532 
L 129.74031 453.516916 
L 130.324617 456.74753 
L 131.201077 455.372798 
L 131.785384 456.128901 
L 132.077538 458.122263 
L 132.369691 455.922698 
L 133.538305 452.3484 
L 133.830458 455.097851 
L 134.122612 455.716481 
L 134.414765 452.3484 
L 135.291226 452.142183 
L 135.875533 450.629984 
L 136.167686 454.685431 
L 136.459839 454.273019 
L 137.3363 456.885017 
L 137.628453 453.379449 
L 137.920607 454.341748 
L 138.21276 452.27965 
L 138.504914 453.241962 
L 139.381374 455.441534 
L 139.673527 454.341748 
L 140.549988 445.88715 
L 141.426448 445.612204 
L 141.718602 446.9182 
L 142.010755 446.024617 
L 142.302908 435.43919 
L 142.595062 429.45909 
L 143.471522 430.421403 
L 144.055829 421.141958 
L 144.347983 418.11756 
L 144.640136 417.155241 
L 145.516596 420.592072 
L 145.80875 415.711779 
L 146.393057 415.161879 
L 146.68521 410.212842 
L 147.56167 410.419045 
L 147.853824 412.549894 
L 148.145977 409.800429 
L 148.438131 410.762728 
L 148.730284 415.230608 
L 149.606745 415.780508 
L 149.898898 417.773877 
L 150.483205 412.274947 
L 150.775358 414.130829 
L 151.651819 411.793777 
L 151.943972 414.955662 
L 152.236126 407.875796 
L 152.820432 408.288216 
L 153.696893 414.611979 
L 153.989046 422.104278 
L 154.2812 421.279438 
L 154.573353 416.811558 
L 154.865507 418.873656 
L 155.741967 419.698496 
L 156.03412 416.192928 
L 156.618427 413.787146 
L 156.910581 411.450094 
L 157.787041 414.268296 
L 158.079194 411.037681 
L 158.371348 414.886925 
L 158.663501 412.549894 
L 158.955655 417.430194 
L 159.832115 419.079859 
L 160.124269 425.472373 
L 160.416422 426.022259 
L 160.708575 427.740674 
L 161.877189 427.809425 
L 162.169343 427.534471 
L 162.461496 427.465742 
L 163.045803 431.108776 
L 163.922263 425.266156 
L 164.214417 426.709625 
L 164.50657 424.922473 
L 164.798724 427.053308 
L 165.090877 432.002352 
L 165.967338 428.153108 
L 166.259491 427.465742 
L 166.551644 424.235106 
L 166.843798 425.05996 
L 167.135951 421.829324 
L 168.304565 419.973442 
L 168.596719 422.379224 
L 168.888872 410.831478 
L 169.181025 416.055462 
L 170.057486 412.68736 
L 170.349639 409.937895 
L 170.641793 408.906846 
L 170.933946 409.594212 
L 171.2261 414.062093 
L 172.10256 413.71841 
L 172.394713 404.920115 
L 172.97902 402.101913 
L 173.271174 401.002134 
L 174.147634 400.795931 
L 174.439787 398.046466 
L 174.731941 402.789279 
L 175.024094 385.330183 
L 175.316248 385.192703 
L 176.192708 389.660584 
L 176.484862 385.536386 
L 176.777015 385.536386 
L 177.069168 383.955451 
L 177.361322 385.055237 
L 178.529936 391.104067 
L 178.822089 396.602983 
L 179.114243 394.953318 
L 179.406396 391.241533 
L 180.282856 392.066366 
L 180.57501 400.452248 
L 181.159317 396.053097 
L 181.45147 402.376866 
L 182.32793 405.882427 
L 182.620084 404.713912 
L 183.204391 408.769379 
L 183.496544 409.869159 
L 184.373005 410.900215 
L 184.665158 413.16851 
L 184.957312 418.04881 
L 185.249465 416.536611 
L 185.541618 412.962314 
L 186.418079 412.206211 
L 186.710232 414.680729 
L 187.002386 411.587581 
L 187.294539 404.095282 
L 187.586693 404.507695 
L 188.463153 413.855876 
L 189.04746 404.988865 
L 189.339613 409.044312 
L 189.631767 406.844747 
L 190.508227 406.63853 
L 190.80038 403.545382 
L 191.092534 403.476646 
L 191.676841 408.356946 
L 192.553301 408.013263 
L 192.845455 411.381364 
L 193.137608 411.587581 
L 193.429761 410.350315 
L 193.721915 405.126331 
L 194.598375 408.288216 
L 194.890529 408.288216 
L 195.182682 404.095282 
L 195.474836 402.789279 
L 196.643449 395.84688 
L 196.935603 395.022047 
L 197.227756 388.492068 
L 197.51991 388.698285 
L 197.812063 386.01755 
L 198.688523 391.172803 
L 198.980677 391.86017 
L 199.564984 397.771512 
L 199.857137 397.496566 
L 200.733598 394.747101 
L 201.025751 389.179434 
L 201.317904 393.441098 
L 201.610058 391.585216 
L 201.902211 391.653953 
L 202.778672 399.902348 
L 203.362979 396.39678 
L 203.655132 396.2593 
L 203.947285 399.146252 
L 204.823746 404.988865 
L 205.115899 410.556532 
L 205.408053 411.381364 
L 205.700206 411.656311 
L 205.99236 411.518844 
L 207.160973 408.150743 
L 207.453127 411.793777 
L 207.74528 407.394647 
L 208.037434 414.130829 
L 208.913894 419.21734 
L 209.206048 416.742828 
L 209.498201 412.274947 
L 209.790354 411.656311 
L 210.082508 416.467875 
L 210.958968 417.155241 
L 211.251122 417.842607 
L 211.543275 425.403643 
L 211.835429 426.709625 
L 212.127582 424.235106 
L 213.004042 424.303843 
L 213.296196 417.705127 
L 213.588349 420.660809 
L 213.880503 421.348175 
L 214.172656 427.534471 
L 215.049116 425.05996 
L 215.34127 423.341544 
L 215.925577 400.589714 
L 216.21773 397.3591 
L 217.386344 398.046466 
L 217.678497 396.121833 
L 217.970651 393.303632 
L 218.262804 392.685002 
L 219.139265 396.190563 
L 219.431418 400.658451 
L 219.723572 399.833618 
L 220.015725 401.139614 
L 220.307878 396.877936 
L 221.184339 397.634032 
L 221.476492 390.34795 
L 221.768646 394.403418 
L 222.060799 392.547536 
L 222.352953 392.135116 
L 223.229413 390.073017 
L 223.521566 385.81134 
L 223.81372 393.097415 
L 224.105873 393.166152 
L 224.398027 397.290349 
L 225.274487 395.434467 
L 225.56664 404.164012 
L 225.858794 400.72718 
L 226.150947 415.917975 
L 227.319561 437.157606 
L 227.611715 415.093142 
L 227.903868 422.035541 
L 228.196022 414.818196 
L 228.488175 412.549894 
L 229.364635 410.075362 
L 229.656789 413.71841 
L 229.948942 414.474512 
L 230.241096 430.352673 
L 230.533249 435.714123 
L 231.409709 434.33939 
L 231.701863 423.616477 
L 231.994016 422.722907 
L 232.28617 427.671938 
L 232.578323 419.904706 
L 233.746937 409.662949 
L 234.03909 410.212842 
L 234.331244 413.512193 
L 234.623397 420.248389 
L 235.792011 421.210709 
L 236.084165 417.911344 
L 236.376318 412.68736 
L 236.668471 426.778375 
L 237.544932 420.179659 
L 237.837085 420.317126 
L 238.129239 415.230608 
L 238.713546 390.82912 
L 239.590006 394.884567 
L 240.174313 400.795931 
L 240.466466 404.713912 
L 240.75862 401.895717 
L 241.63508 398.665082 
L 241.927233 398.871298 
L 242.51154 411.587581 
L 242.803694 419.698496 
L 243.680154 429.184157 
L 244.556614 406.294847 
L 244.848768 408.838109 
L 246.017382 396.740463 
L 246.309535 397.290349 
L 246.601689 397.3591 
L 246.893842 390.82912 
L 247.770302 394.059735 
L 248.062456 389.591854 
L 248.354609 394.334681 
L 248.646763 401.414547 
L 248.938916 401.620763 
L 249.815376 399.902348 
L 250.399683 408.769379 
L 250.98399 393.853518 
L 251.860451 403.614133 
L 252.152604 410.075362 
L 252.444758 403.957816 
L 252.736911 395.22825 
L 253.029064 397.565303 
L 253.905525 399.214982 
L 254.197678 396.121833 
L 254.489832 408.082013 
L 254.781985 411.037681 
L 255.074139 404.095282 
L 255.950599 406.501064 
L 256.242752 406.226111 
L 256.827059 418.59871 
L 257.119213 417.498924 
L 257.995673 424.785006 
L 258.287826 422.791644 
L 258.57998 426.159739 
L 259.164287 428.359304 
L 260.040747 418.529973 
L 260.332901 424.785006 
L 260.625054 419.011123 
L 260.917207 418.392493 
L 261.209361 418.942393 
L 262.085821 411.381364 
L 262.377975 410.006632 
L 262.670128 409.731678 
L 262.962282 409.113063 
L 263.254435 404.920115 
L 264.130895 408.425696 
L 264.423049 410.419045 
L 265.007356 418.942393 
L 265.299509 413.443463 
L 266.175969 417.773877 
L 266.468123 411.862528 
L 266.760276 413.855876 
L 267.344583 410.419045 
L 268.513197 409.869159 
L 268.80535 413.374726 
L 269.389657 413.924613 
L 270.558271 406.982213 
L 270.850425 415.093142 
L 271.142578 411.312628 
L 271.434731 411.862528 
L 272.311192 412.68736 
L 272.603345 407.944526 
L 272.895499 405.744961 
L 273.187652 405.332548 
L 273.479806 411.931264 
L 274.648419 412.549894 
L 274.940573 413.855876 
L 275.232726 405.813698 
L 275.52488 402.926766 
L 276.40134 402.514346 
L 276.693494 402.789279 
L 276.985647 402.85803 
L 277.2778 404.438965 
L 277.569954 403.476646 
L 278.446414 405.332548 
L 278.738568 405.195061 
L 279.322875 397.634032 
L 279.615028 395.915617 
L 280.491488 398.046466 
L 281.367949 393.784781 
L 281.660102 395.365731 
L 282.536562 394.472148 
L 282.828716 395.84688 
L 283.120869 393.441098 
L 283.413023 385.192703 
L 283.705176 381.412202 
L 284.87379 380.862303 
L 285.165943 384.092917 
L 285.458097 374.813473 
L 285.75025 372.476441 
L 286.918864 370.689289 
L 287.211018 376.738105 
L 287.503171 372.407691 
L 287.795324 373.232537 
L 288.671785 376.875571 
L 288.963938 381.068519 
L 289.256092 377.769154 
L 289.548245 376.463159 
L 289.840399 373.232537 
L 290.716859 373.713687 
L 291.009012 365.808975 
L 291.301166 363.815626 
L 291.593319 369.245806 
L 291.885473 363.334463 
L 292.761933 362.64709 
L 293.054086 365.396562 
L 293.34624 365.190359 
L 293.638393 363.815626 
L 293.930547 367.458661 
L 294.807007 360.653742 
L 295.099161 362.097211 
L 295.391314 366.427611 
L 295.683468 368.146027 
L 295.975621 368.764657 
L 296.852081 370.895492 
L 297.144235 370.620539 
L 297.436388 376.806842 
L 297.728542 377.562938 
L 298.897155 372.888854 
L 299.189309 378.593987 
L 299.481462 376.600639 
L 299.773616 371.789075 
L 300.065769 374.126106 
L 300.94223 378.387791 
L 301.234383 374.40106 
L 301.526536 375.844522 
L 301.81869 343.194646 
L 302.110843 345.462934 
L 302.987304 349.862098 
L 303.279457 352.26788 
L 303.571611 348.418615 
L 303.863764 340.238964 
L 304.155917 339.001698 
L 305.032378 340.445181 
L 305.324531 342.301063 
L 305.616685 339.482847 
L 306.200992 351.305547 
L 307.077452 346.975133 
L 307.369605 346.1503 
L 307.661759 343.607052 
L 307.953912 339.139164 
L 308.246066 342.369785 
L 309.706833 348.418615 
L 310.29114 358.729109 
L 311.1676 350.824397 
L 311.459754 352.817746 
L 311.751907 349.655882 
L 312.04406 349.793348 
L 312.336214 345.050535 
L 313.504828 337.214532 
L 313.796981 350.274497 
L 314.381288 355.567211 
L 315.257748 353.230179 
L 315.549902 349.105982 
L 315.842055 340.995053 
L 316.134209 341.270013 
L 316.426362 340.238964 
L 317.594976 341.20127 
L 317.887129 346.287794 
L 318.179283 346.562733 
L 319.347897 330.340869 
L 319.64005 323.398491 
L 319.932204 327.179005 
L 320.224357 334.8775 
L 320.51651 328.210054 
L 321.392971 335.014967 
L 321.685124 330.272153 
L 321.977278 331.715602 
L 322.269431 342.094846 
L 322.561585 333.640234 
L 323.438045 339.070448 
L 323.730198 339.207914 
L 324.314505 341.063796 
L 324.606659 344.638101 
L 325.483119 342.782219 
L 325.775272 349.655882 
L 326.067426 353.436396 
L 326.359579 352.19913 
L 326.651733 347.8 
L 327.528193 357.079444 
L 327.820347 353.848795 
L 328.1125 344.294418 
L 328.404653 320.305342 
L 328.696807 314.119039 
L 329.573267 318.311987 
L 329.865421 323.261024 
L 330.157574 325.52934 
L 330.449728 321.405135 
L 330.741881 311.575791 
L 331.618341 308.963792 
L 331.910495 317.899554 
L 332.202648 320.717769 
L 332.494802 321.542602 
L 332.786955 316.524821 
L 333.663415 314.668939 
L 333.955569 308.895042 
L 334.539876 318.10577 
L 334.832029 320.030403 
L 335.70849 310.888425 
L 336.000643 310.613458 
L 336.292796 313.225456 
L 336.877103 300.234248 
L 337.753564 303.464862 
L 338.045717 307.245377 
L 338.337871 299.340665 
L 338.630024 300.646674 
L 338.922177 298.653299 
L 340.090791 299.753098 
L 340.382945 295.972577 
L 340.675098 302.433813 
L 340.967252 296.110043 
L 342.135865 296.86616 
L 342.428019 298.240893 
L 342.720172 286.211983 
L 343.012326 283.943668 
L 344.473093 292.535746 
L 345.0574 278.925887 
L 345.93386 275.420333 
L 346.226014 278.994637 
L 346.518167 276.038956 
L 346.810321 278.169798 
L 347.102474 282.362718 
L 347.978934 283.462518 
L 348.271088 292.260779 
L 348.563241 295.628894 
L 348.855395 284.7685 
L 349.147548 289.923747 
L 350.024008 290.886046 
L 350.608315 288.411548 
L 350.900469 282.225252 
L 351.192622 287.449215 
L 352.069083 293.016895 
L 352.361236 304.702129 
L 353.237696 293.498045 
L 354.114157 296.5912 
L 354.40631 290.81733 
L 354.698464 291.092263 
L 354.990617 273.014551 
L 355.28277 278.925887 
L 356.159231 277.688621 
L 356.451384 283.187551 
L 357.035691 290.129964 
L 357.327845 282.087786 
L 358.788612 290.679864 
L 359.080765 284.081134 
L 359.372919 287.724182 
L 360.541532 282.225252 
L 360.833686 289.71753 
L 361.125839 293.360578 
L 361.417993 294.322884 
L 362.294453 296.110043 
L 362.586607 294.254161 
L 362.87876 302.983713 
L 363.170914 302.64003 
L 363.463067 297.553526 
L 364.339527 293.016895 
L 364.923834 288.136581 
L 365.508141 285.524617 
L 366.384601 269.096536 
L 366.676755 270.814958 
L 366.968908 268.615386 
L 367.553215 259.335942 
L 368.429676 264.697406 
L 368.721829 265.041089 
L 369.013982 264.834872 
L 369.306136 265.041089 
L 369.598289 266.759504 
L 370.47475 270.677485 
L 370.766903 265.041089 
L 371.059057 265.934672 
L 371.643363 276.245166 
L 372.519824 269.715186 
L 372.811977 265.590989 
L 373.104131 269.508969 
L 373.396284 264.010039 
L 373.688438 269.440219 
L 374.564898 271.296135 
L 375.149205 277.070005 
L 375.441358 276.726322 
L 375.733512 280.025687 
L 376.609972 271.846008 
L 379.239353 234.041526 
L 381.868734 199.604941 
L 384.790269 165.29207 
L 387.127496 140.835459 
L 389.17257 121.618821 
L 391.217644 104.439552 
L 393.262718 89.297652 
L 395.015639 77.940461 
L 396.184253 71.200579 
L 398.229327 61.006577 
L 399.982248 53.89044 
L 401.150861 49.977928 
L 402.027322 47.480124 
L 403.780242 43.607147 
L 404.364549 42.648786 
L 405.533163 41.231012 
L 406.409624 40.604261 
L 407.578237 40.350699 
L 408.162544 40.473391 
L 408.454698 40.597106 
L 409.623311 41.507755 
L 410.499772 42.62732 
L 411.960539 45.324842 
L 412.544846 46.694904 
L 414.005613 50.84769 
L 414.58992 52.799857 
L 416.342841 59.654254 
L 417.803608 66.509673 
L 418.680068 71.121872 
L 420.725142 83.338933 
L 422.770216 97.593364 
L 424.815291 113.885164 
L 426.860365 132.214334 
L 428.905439 152.580873 
L 430.950513 174.984782 
L 432.995587 199.42606 
L 439.130809 276.687739 
L 441.175884 299.346671 
L 443.220958 320.180598 
L 445.266032 339.189518 
L 447.311106 356.373432 
L 449.35618 371.73234 
L 451.401254 385.266241 
L 453.446328 396.975137 
L 455.491402 406.859026 
L 457.244323 413.878375 
L 458.70509 418.703594 
L 459.581551 421.151786 
L 461.042318 424.487204 
L 461.626625 425.560656 
L 463.087392 427.592499 
L 463.671699 428.14452 
L 464.840313 428.801624 
L 465.716773 428.903378 
L 466.885387 428.517621 
L 467.761847 427.83723 
L 468.930461 426.408612 
L 469.806921 424.946076 
L 471.267688 421.763615 
L 471.851995 420.229915 
L 473.312763 415.743878 
L 474.77353 410.326716 
L 475.942144 405.322575 
L 477.987218 395.131396 
L 480.032292 383.11521 
L 482.077366 369.274018 
L 484.12244 353.60782 
L 486.167514 336.116616 
L 488.212588 316.800406 
L 491.134123 286.039992 
L 493.47135 258.717326 
L 493.763504 254.524378 
L 494.055657 248.681793 
L 494.347811 247.169559 
L 495.224271 252.73724 
L 495.808578 245.519867 
L 496.100731 244.901278 
L 496.392885 245.932293 
L 497.561499 243.320294 
L 497.853652 246.13851 
L 498.145806 244.626311 
L 498.437959 247.169559 
L 499.314419 235.415617 
L 499.606573 236.446632 
L 500.19088 221.393318 
L 500.483033 218.43767 
L 501.359493 221.599535 
L 501.651647 216.444288 
L 501.9438 217.81902 
L 502.235954 214.794622 
L 502.528107 216.444288 
L 503.404568 222.218157 
L 503.696721 226.892255 
L 503.988874 223.86785 
L 504.281028 232.666152 
L 504.573181 232.391185 
L 505.449642 227.717115 
L 505.741795 224.830156 
L 506.033949 228.541948 
L 506.618255 230.878986 
L 507.494716 233.765917 
L 507.786869 235.2094 
L 508.079023 240.227181 
L 508.371176 243.114112 
L 508.66333 243.045396 
L 509.53979 242.701679 
L 509.831943 237.202749 
L 510.124097 241.25823 
L 510.708404 251.225041 
L 511.584864 258.442359 
L 511.877017 245.726111 
L 512.169171 238.233798 
L 512.461324 250.675113 
L 512.753478 254.936812 
L 513.629938 251.362507 
L 513.922092 251.91238 
L 514.214245 246.482227 
L 514.506398 244.557561 
L 515.675012 244.832528 
L 515.967166 241.120729 
L 516.259319 244.763812 
L 516.551473 245.451144 
L 516.843626 253.149646 
L 517.720086 253.699546 
L 518.01224 247.513242 
L 518.304393 266.140854 
L 518.596547 267.103188 
L 518.8887 264.903622 
L 519.765161 264.972373 
L 520.057314 272.189691 
L 520.641621 276.932539 
L 522.102388 267.859277 
L 522.394542 267.37812 
L 522.686695 269.371503 
L 522.978848 265.316022 
L 523.855309 262.704023 
L 524.147462 265.247306 
L 524.439616 265.797171 
L 524.731769 268.40917 
L 525.023923 264.834872 
L 526.192536 266.553288 
L 526.48469 276.038956 
L 526.776843 277.757371 
L 527.068997 273.701917 
L 528.23761 275.832766 
L 528.529764 275.626522 
L 528.821917 274.732939 
L 529.114071 280.781769 
L 529.990531 281.606602 
L 530.282685 290.74858 
L 530.574838 286.761849 
L 530.866991 288.617731 
L 531.159145 285.3184 
L 532.035605 285.593333 
L 532.327759 285.180899 
L 532.619912 281.056736 
L 532.912066 281.46917 
L 533.204219 283.256301 
L 534.080679 282.912618 
L 534.372833 286.624417 
L 534.664986 283.393768 
L 534.95714 282.362718 
L 535.249293 278.16977 
L 536.125753 278.307237 
L 536.417907 275.282839 
L 536.71006 274.939183 
L 537.002214 272.258434 
L 538.170828 273.633167 
L 538.462981 277.482432 
L 538.755134 272.327185 
L 539.047288 276.382639 
L 539.339441 268.40917 
L 540.215902 270.746236 
L 540.508055 273.083274 
L 540.800209 273.908107 
L 541.384516 268.54667 
L 542.260976 267.034437 
L 542.553129 264.62869 
L 543.137436 256.517761 
L 543.42959 259.817126 
L 544.30605 258.57986 
L 544.598203 256.655227 
L 544.890357 256.517761 
L 545.474664 261.329325 
L 547.227584 254.249445 
L 547.519738 250.606397 
L 548.396198 252.049873 
L 548.980505 258.511109 
L 549.272659 258.57986 
L 549.564812 260.573208 
L 550.441272 257.342594 
L 550.733426 252.943456 
L 551.025579 255.349211 
L 551.317733 238.233798 
L 551.609886 240.914547 
L 552.486346 240.983263 
L 552.7785 235.7593 
L 553.070653 238.027616 
L 553.362807 241.395696 
L 553.65496 240.914547 
L 554.823574 245.176211 
L 555.115727 247.444526 
L 555.407881 248.200643 
L 555.700034 251.91238 
L 556.576495 249.644092 
L 557.160802 271.158669 
L 557.452955 274.0456 
L 557.745108 263.666356 
L 558.621569 272.120968 
L 558.913722 267.653087 
L 559.205876 265.316022 
L 559.498029 260.160775 
L 559.790183 262.222873 
L 560.666643 261.741724 
L 561.25095 258.57986 
L 561.543103 263.941289 
L 561.835257 258.57986 
L 562.711717 260.435742 
L 563.003871 233.147301 
L 563.296024 241.18948 
L 563.880331 248.200643 
L 564.756791 254.318189 
L 565.048945 258.304893 
L 565.341098 247.719459 
L 565.633252 259.061009 
L 565.925405 265.934672 
L 566.801865 275.557799 
L 567.094019 274.664223 
L 567.386172 277.070005 
L 567.678326 293.291835 
L 567.970479 292.810679 
L 568.846939 284.2186 
L 569.139093 272.808334 
L 569.431246 277.826087 
L 569.7234 273.289484 
L 570.015553 271.021168 
L 571.184167 270.471275 
L 571.47632 269.577692 
L 571.768474 268.065521 
L 572.060627 261.535541 
L 572.937088 260.160775 
L 573.229241 256.242794 
L 573.521395 254.043229 
L 573.813548 256.311544 
L 574.105701 254.524378 
L 574.982162 251.98113 
L 575.274315 249.919059 
L 575.566469 250.812607 
L 575.858622 248.681793 
L 576.150776 248.750509 
L 577.027236 245.519867 
L 577.319389 241.73938 
L 577.903696 247.513242 
L 578.19585 248.338109 
L 579.07231 248.544292 
L 579.364463 248.475548 
L 580.240924 245.176211 
L 581.117384 245.244961 
L 581.409538 244.213878 
L 581.993844 246.619694 
L 582.285998 245.65736 
L 583.162458 243.320294 
L 583.454612 241.601879 
L 583.746765 242.495462 
L 584.038919 232.047502 
L 584.331072 239.058631 
L 585.207532 241.32698 
L 585.791839 234.6595 
L 586.083993 226.960998 
L 586.376146 229.641747 
L 587.252607 228.335731 
L 587.836913 229.91668 
L 588.42122 230.329086 
L 589.297681 230.397836 
L 589.589834 229.09182 
L 589.881988 236.652883 
L 590.466294 236.034233 
L 591.342755 239.264847 
L 591.634908 244.213912 
L 591.927062 244.832528 
L 592.219215 234.6595 
L 592.511369 240.020964 
L 593.387829 242.976646 
L 593.679982 243.457795 
L 594.264289 257.961209 
L 594.556443 253.562079 
L 595.725056 253.424606 
L 596.01721 255.486712 
L 596.309363 229.572997 
L 596.601517 232.253718 
L 597.477977 237.065282 
L 598.062284 252.324813 
L 598.354437 251.499974 
L 598.646591 258.09871 
L 598.646591 258.09871 
" style="fill:none;opacity:0.6;stroke:#000000;stroke-linecap:square;stroke-width:1.5;"/>
   </g>
   <g id="line2d_16">
    <path clip-path="url(#p48e102de63)" d="M 57.578409 495.308777 
L 57.870563 493.452888 
L 58.162716 492.628056 
L 58.454869 495.171304 
L 58.747023 494.896364 
L 59.623483 496.683503 
L 59.915637 500.94518 
L 60.20779 499.295501 
L 60.499944 501.220134 
L 60.792097 504.794425 
L 61.960711 502.594859 
L 62.252864 503.076009 
L 62.545018 505.206858 
L 62.837171 509.262319 
L 63.713631 507.337687 
L 64.005785 510.980735 
L 64.297938 507.956316 
L 64.882245 516.617131 
L 65.758706 508.506209 
L 66.343012 506.375381 
L 66.635166 513.111563 
L 66.927319 510.911998 
L 67.80378 511.118194 
L 68.095933 512.011784 
L 68.388087 509.880935 
L 68.68024 504.725688 
L 68.972393 503.144752 
L 70.141007 500.94518 
L 70.433161 499.776658 
L 70.725314 507.818843 
L 71.017468 508.437473 
L 71.893928 508.231256 
L 72.186081 510.980735 
L 72.478235 508.643689 
L 73.062542 511.049457 
L 73.939002 506.581584 
L 74.231156 506.65032 
L 74.523309 508.093796 
L 74.815462 507.88758 
L 75.107616 504.382012 
L 75.984076 506.100427 
L 76.27623 501.770027 
L 76.568383 501.495073 
L 76.860537 504.244532 
L 77.15269 503.832119 
L 78.02915 504.450748 
L 78.321304 500.326551 
L 78.613457 497.989505 
L 78.905611 502.388656 
L 79.197764 503.832119 
L 80.074224 501.907486 
L 80.366378 499.432981 
L 80.658531 503.557165 
L 80.950685 503.213489 
L 81.242838 503.213489 
L 82.411452 501.220134 
L 82.995759 504.038335 
L 84.164373 502.251176 
L 84.456526 505.206858 
L 84.74868 504.450748 
L 85.040833 506.375381 
L 86.209447 503.488442 
L 86.5016 501.013917 
L 86.793754 499.501718 
L 87.085907 498.608135 
L 87.378061 505.138121 
L 88.254521 505.688008 
L 88.546674 505.275581 
L 88.838828 508.299999 
L 89.130981 507.818843 
L 89.423135 509.399778 
L 90.299595 508.299999 
L 90.591748 511.530628 
L 90.883902 511.324411 
L 91.176055 507.956316 
L 91.468209 514.417559 
L 92.344669 515.586082 
L 92.636823 521.016275 
L 93.513283 526.446468 
L 94.389743 522.322271 
L 94.681897 523.422057 
L 94.97405 521.497431 
L 95.266204 521.703641 
L 95.558357 533.320131 
L 96.434817 533.113921 
L 96.726971 536.069596 
L 97.019124 534.694863 
L 97.311278 536.756962 
L 97.603431 534.901073 
L 98.479892 537.444328 
L 98.772045 535.17602 
L 99.064198 534.7636 
L 99.356352 529.608353 
L 99.648505 532.082872 
L 100.817119 535.932123 
L 101.109273 534.96981 
L 101.401426 535.107283 
L 101.693579 539.231481 
L 102.57004 543.355678 
L 103.154347 547.411139 
L 103.4465 544.386728 
L 103.738654 542.599575 
L 104.615114 544.317991 
L 104.907267 540.46874 
L 105.199421 541.499789 
L 105.491574 538.406641 
L 105.783728 537.856748 
L 106.660188 539.85011 
L 106.952341 542.943259 
L 107.244495 542.049682 
L 107.536648 546.036407 
L 107.828802 546.242617 
L 108.705262 546.105143 
L 108.997416 550.366814 
L 109.289569 552.222703 
L 109.581722 551.05418 
L 109.873876 551.947756 
L 111.04249 552.703859 
L 111.334643 549.335765 
L 111.626797 551.535337 
L 111.91895 551.26039 
L 112.79541 549.954394 
L 113.087564 547.342403 
L 113.379717 546.5863 
L 113.671871 548.717135 
L 113.964024 553.322489 
L 114.840484 550.504287 
L 115.132638 548.717135 
L 115.424791 551.122917 
L 115.716945 549.954394 
L 116.009098 551.191654 
L 116.885559 549.885658 
L 117.177712 550.504287 
L 117.469866 552.772596 
L 117.762019 559.646258 
L 118.054172 559.233839 
L 118.930633 559.302575 
L 119.222786 560.952254 
L 119.51494 558.340263 
L 120.099247 556.75932 
L 120.975707 556.140691 
L 121.560014 561.364674 
L 121.852167 560.814781 
L 122.144321 557.859106 
L 123.020781 559.508785 
L 123.312934 558.683946 
L 123.605088 558.340263 
L 123.897241 554.491012 
L 124.189395 553.872382 
L 125.065855 554.903431 
L 125.358009 555.590798 
L 125.650162 554.216065 
L 125.942315 555.040905 
L 126.234469 552.841333 
L 127.110929 556.140691 
L 127.403083 558.271526 
L 127.695236 557.79037 
L 127.98739 556.621847 
L 128.279543 554.353538 
L 129.448157 553.734909 
L 129.74031 551.4666 
L 130.324617 553.185016 
L 131.201077 549.267028 
L 131.493231 549.954394 
L 132.077538 549.748184 
L 132.369691 549.885658 
L 133.246152 548.785872 
L 133.538305 544.799147 
L 133.830458 544.111781 
L 134.122612 542.530839 
L 134.414765 538.131695 
L 135.291226 539.918847 
L 135.583379 540.125057 
L 135.875533 540.743686 
L 136.167686 542.118419 
L 136.459839 544.386728 
L 137.3363 545.142831 
L 137.628453 544.592938 
L 137.920607 548.304715 
L 138.21276 548.854608 
L 138.504914 547.754822 
L 139.381374 548.098505 
L 139.673527 546.655036 
L 139.965681 544.455464 
L 140.257834 545.692724 
L 140.549988 544.799147 
L 141.426448 544.317991 
L 141.718602 544.799147 
L 142.010755 544.799147 
L 142.302908 546.17388 
L 142.595062 541.293579 
L 143.471522 540.537477 
L 143.763676 540.812423 
L 144.055829 539.6439 
L 144.347983 539.575164 
L 144.640136 539.781374 
L 145.516596 539.6439 
L 145.80875 537.925485 
L 146.100903 537.306855 
L 146.393057 537.169382 
L 146.68521 535.725913 
L 147.56167 535.38223 
L 147.853824 535.863386 
L 148.145977 534.832337 
L 148.438131 535.725913 
L 148.730284 531.258032 
L 149.606745 532.357818 
L 149.898898 535.038547 
L 150.191051 533.595077 
L 150.775358 527.889938 
L 151.651819 527.821201 
L 151.943972 530.020773 
L 152.236126 527.752464 
L 152.820432 528.920987 
L 153.696893 527.889938 
L 153.989046 528.85225 
L 154.2812 524.728053 
L 154.573353 523.55953 
L 154.865507 520.741328 
L 155.741967 522.665954 
L 156.03412 519.435333 
L 156.326274 518.541756 
L 156.618427 520.260172 
L 156.910581 519.641542 
L 157.787041 522.253534 
L 158.079194 522.116061 
L 158.371348 524.315633 
L 158.663501 524.17816 
L 158.955655 523.628267 
L 159.832115 524.040687 
L 160.124269 520.191435 
L 160.416422 519.091649 
L 160.708575 519.847752 
L 161.877189 519.297859 
L 162.169343 519.710279 
L 162.461496 519.710279 
L 162.75365 519.366596 
L 163.045803 516.548394 
L 167.135951 472.568904 
L 171.2261 431.084273 
L 175.316248 392.094499 
L 179.406396 355.599584 
L 183.204391 323.945365 
L 186.710232 296.635416 
L 189.631767 275.277301 
L 193.137608 251.327773 
L 195.474836 236.379731 
L 198.980677 215.485132 
L 201.902211 199.473142 
L 205.115899 183.330137 
L 207.74528 171.267822 
L 210.082508 161.411327 
L 213.004042 150.236307 
L 215.34127 142.212769 
L 217.678497 135.003879 
L 219.723572 129.364366 
L 221.768646 124.348567 
L 223.81372 119.956483 
L 225.56664 116.688266 
L 227.319561 113.878287 
L 228.488175 112.259546 
L 230.241096 110.2133 
L 231.701863 108.858138 
L 232.578323 108.197788 
L 234.331244 107.220767 
L 234.623397 107.102481 
L 236.376318 106.660072 
L 237.544932 106.619711 
L 238.713546 106.783011 
L 240.466466 107.409827 
L 241.63508 108.082282 
L 242.803694 108.958399 
L 244.556614 110.65444 
L 246.017382 112.417851 
L 246.893842 113.628645 
L 248.938916 116.89934 
L 250.98399 120.793749 
L 253.029064 125.311873 
L 255.074139 130.453712 
L 257.119213 136.219265 
L 259.164287 142.608533 
L 261.209361 149.621515 
L 263.254435 157.258212 
L 266.175969 169.249733 
L 268.80535 181.13042 
L 273.479806 203.780187 
L 279.615028 232.68115 
L 285.75025 260.411462 
L 291.885473 286.971122 
L 297.728542 311.177677 
L 303.571611 334.322416 
L 308.246066 352.0737 
L 313.796981 372.270717 
L 318.471436 388.53546 
L 323.730198 406.021008 
L 328.696807 421.745411 
L 333.955569 437.5586 
L 338.630024 450.892733 
L 343.012326 462.776303 
L 347.102474 473.328764 
L 351.192622 483.360936 
L 355.28277 492.872818 
L 359.372919 501.864411 
L 363.463067 510.335714 
L 367.553215 518.286728 
L 371.643363 525.717453 
L 375.733512 532.627888 
L 377.194279 534.96981 
L 377.486432 534.901073 
L 377.778586 532.014135 
L 378.655046 534.626127 
L 379.239353 538.475378 
L 379.531506 538.337905 
L 379.82366 538.475378 
L 380.70012 538.544114 
L 380.992274 540.05632 
L 381.284427 539.300217 
L 381.576581 538.200431 
L 381.868734 538.750324 
L 383.037348 539.162744 
L 383.329501 539.025271 
L 383.621655 538.612851 
L 383.913808 537.100645 
L 384.790269 535.725913 
L 385.082422 537.581802 
L 385.374575 537.719275 
L 385.666729 538.131695 
L 385.958882 537.375592 
L 386.835343 538.819061 
L 387.127496 536.894435 
L 387.41965 537.581802 
L 387.711803 537.925485 
L 388.003956 537.375592 
L 388.880417 536.413279 
L 389.464724 537.375592 
L 389.756877 534.901073 
L 390.049031 534.901073 
L 391.217644 536.069596 
L 391.509798 537.306855 
L 391.801951 537.925485 
L 392.094105 536.344542 
L 392.970565 537.856748 
L 393.262718 537.375592 
L 393.554872 535.794649 
L 394.139179 535.038547 
L 395.015639 535.38223 
L 395.307793 534.419917 
L 395.599946 534.488654 
L 395.892099 534.694863 
L 396.184253 534.282444 
L 397.060713 535.107283 
L 397.352867 534.832337 
L 397.937174 534.7636 
L 398.229327 535.519703 
L 399.105787 536.138333 
L 399.397941 536.688226 
L 399.690094 535.657176 
L 399.982248 537.031909 
L 400.274401 536.619489 
L 401.150861 537.100645 
L 401.443015 536.482016 
L 402.027322 534.213707 
L 403.488089 537.994221 
L 403.780242 539.025271 
L 404.072396 538.200431 
L 404.364549 536.756962 
L 405.24101 536.963172 
L 405.825317 534.213707 
L 406.11747 534.626127 
L 406.409624 532.426555 
L 407.286084 534.282444 
L 407.578237 533.320131 
L 407.870391 534.488654 
L 408.162544 536.207069 
L 408.454698 536.000859 
L 409.331158 535.863386 
L 410.207618 529.814563 
L 410.499772 530.226983 
L 411.376232 529.127197 
L 411.668386 527.752464 
L 411.960539 528.577304 
L 412.252692 527.477518 
L 412.544846 527.065098 
L 413.421306 527.340045 
L 413.71346 528.577304 
L 414.005613 526.858888 
L 414.297767 526.790152 
L 414.58992 522.459744 
L 415.46638 524.521843 
L 416.050687 521.359958 
L 416.342841 521.841114 
L 416.634994 520.191435 
L 417.511454 520.397645 
L 417.803608 519.847752 
L 418.095761 523.422057 
L 418.387915 521.841114 
L 418.680068 522.459744 
L 419.848682 522.528481 
L 420.140835 523.14711 
L 420.432989 521.841114 
L 420.725142 522.940901 
L 421.601603 523.078374 
L 421.893756 522.940901 
L 422.18591 525.071736 
L 422.478063 524.453106 
L 422.770216 523.078374 
L 423.646677 523.14711 
L 423.93883 525.002999 
L 424.230984 525.827839 
L 424.523137 523.628267 
L 424.815291 523.76574 
L 425.691751 522.803427 
L 425.983904 523.422057 
L 426.276058 520.397645 
L 426.568211 523.14711 
L 426.860365 523.284584 
L 427.736825 525.346682 
L 428.028978 524.659316 
L 428.321132 525.209209 
L 428.613285 526.102785 
L 428.905439 525.896575 
L 429.781899 525.484156 
L 430.074053 525.552892 
L 430.366206 525.277946 
L 430.950513 524.521843 
L 431.826973 525.002999 
L 432.119127 524.521843 
L 432.703434 521.841114 
L 432.995587 521.772378 
L 433.872047 521.978588 
L 434.164201 521.428695 
L 434.748508 522.391008 
L 435.040661 524.521843 
L 435.917122 524.59058 
L 436.209275 524.728053 
L 436.501428 524.728053 
L 436.793582 524.38437 
L 437.085735 524.796789 
L 437.962196 525.002999 
L 438.254349 523.35332 
L 438.546503 523.14711 
L 438.838656 521.772378 
L 439.130809 520.947538 
L 440.00727 520.466382 
L 440.299423 521.978588 
L 440.591577 522.047324 
L 440.88373 521.359958 
L 441.175884 522.803427 
L 442.052344 523.628267 
L 442.344497 523.284584 
L 442.636651 519.091649 
L 443.220958 517.991863 
L 444.097418 519.641542 
L 444.389571 519.641542 
L 444.681725 520.122699 
L 444.973878 519.572806 
L 445.266032 519.572806 
L 446.142492 519.366596 
L 446.434646 520.672592 
L 446.726799 520.672592 
L 447.311106 521.016275 
L 448.47972 520.947538 
L 448.771873 519.985226 
L 449.064027 519.710279 
L 449.35618 520.122699 
L 450.23264 518.404283 
L 450.816947 514.417559 
L 451.109101 514.486296 
L 451.401254 513.798929 
L 452.277715 513.730193 
L 452.569868 513.38651 
L 452.862021 512.424197 
L 453.154175 512.905353 
L 453.446328 513.867666 
L 454.322789 514.898715 
L 454.614942 514.486296 
L 454.907096 514.348822 
L 455.199249 514.692505 
L 455.491402 515.311135 
L 456.95217 515.586082 
L 457.244323 516.685868 
L 457.536477 515.242398 
L 458.412937 515.242398 
L 458.70509 516.135975 
L 458.997244 517.785654 
L 459.289397 516.617131 
L 459.581551 517.510707 
L 460.458011 515.929765 
L 460.750164 516.479658 
L 461.042318 515.173662 
L 461.334471 514.967452 
L 461.626625 513.730193 
L 462.503085 513.455246 
L 462.795239 514.005139 
L 463.087392 515.861028 
L 463.671699 517.64818 
L 464.548159 517.85439 
L 464.840313 517.716917 
L 465.132466 517.785654 
L 465.42462 517.991863 
L 465.716773 517.510707 
L 466.593233 520.535119 
L 466.885387 520.672592 
L 467.17754 519.985226 
L 467.469694 522.391008 
L 467.761847 515.448608 
L 468.930461 514.348822 
L 469.222614 511.393147 
L 469.514768 510.911998 
L 469.806921 511.255674 
L 470.683382 513.936403 
L 471.267688 517.85439 
L 471.559842 517.029551 
L 471.851995 518.0606 
L 473.312763 514.486296 
L 473.89707 515.173662 
L 474.77353 514.142612 
L 475.065683 514.211349 
L 475.357837 512.699143 
L 475.942144 516.067238 
L 476.818604 517.85439 
L 477.110757 515.448608 
L 477.402911 516.479658 
L 477.695064 518.541756 
L 477.987218 519.160386 
L 478.863678 519.022913 
L 479.155832 518.541756 
L 479.447985 517.098287 
L 479.740138 516.685868 
L 480.032292 514.555032 
L 481.200906 513.661456 
L 481.785213 514.692505 
L 482.077366 514.073876 
L 483.24598 512.286724 
L 483.830287 513.38651 
L 484.12244 514.692505 
L 484.9989 513.249036 
L 485.583207 509.949671 
L 485.875361 514.142612 
L 486.167514 514.280086 
L 487.043975 516.823341 
L 487.336128 513.523983 
L 487.628281 512.35546 
L 487.920435 512.011784 
L 488.212588 512.492933 
L 489.381202 512.080521 
L 489.673356 512.21798 
L 489.965509 512.630407 
L 490.257662 515.448608 
L 491.134123 516.135975 
L 491.426276 515.104925 
L 491.71843 516.135975 
L 492.010583 514.348822 
L 492.302737 514.486296 
L 493.179197 515.929765 
L 493.47135 515.311135 
L 493.763504 516.273448 
L 494.347811 513.317773 
L 495.224271 512.97409 
L 495.516425 510.705781 
L 496.392885 499.295501 
L 497.561499 499.364238 
L 497.853652 497.714566 
L 498.145806 493.315408 
L 498.437959 494.277735 
L 499.314419 492.421839 
L 499.606573 493.590361 
L 499.898726 493.796578 
L 500.19088 495.24004 
L 500.483033 496.064887 
L 501.359493 496.683503 
L 501.9438 494.277735 
L 502.235954 496.064887 
L 502.528107 496.202346 
L 503.404568 498.058242 
L 503.696721 496.820983 
L 503.988874 496.4773 
L 504.281028 500.464024 
L 504.573181 499.914131 
L 505.449642 499.914131 
L 506.033949 494.827628 
L 506.326102 494.758884 
L 507.494716 495.583717 
L 507.786869 495.583717 
L 508.079023 498.470655 
L 508.371176 500.120334 
L 508.66333 499.364238 
L 509.53979 499.295501 
L 509.831943 494.208991 
L 510.124097 495.033824 
L 510.41625 493.659098 
L 510.708404 497.645822 
L 511.584864 497.233409 
L 511.877017 492.765515 
L 512.169171 492.902995 
L 512.461324 496.064887 
L 512.753478 497.852025 
L 513.629938 496.4773 
L 513.922092 495.583717 
L 514.214245 495.308777 
L 514.506398 494.827628 
L 515.675012 493.796578 
L 516.259319 491.18458 
L 516.551473 490.016057 
L 516.843626 493.659098 
L 517.720086 494.208991 
L 518.01224 493.934038 
L 518.304393 495.446257 
L 518.596547 494.758884 
L 518.8887 495.721197 
L 519.765161 494.346471 
L 520.057314 496.958456 
L 520.349467 496.820983 
L 520.641621 495.24004 
L 520.933774 498.333195 
L 521.810235 494.690147 
L 522.102388 496.752239 
L 522.394542 497.989505 
L 522.686695 498.676872 
L 522.978848 498.951825 
L 523.855309 494.965087 
L 524.147462 497.027193 
L 524.439616 497.027193 
L 524.731769 496.4773 
L 525.023923 495.308777 
L 526.192536 493.040468 
L 526.48469 491.940682 
L 526.776843 492.146885 
L 527.068997 491.803209 
L 527.945457 492.215622 
L 528.23761 492.765515 
L 528.529764 492.628056 
L 529.114071 491.596992 
L 529.990531 491.459533 
L 530.282685 490.77216 
L 530.574838 489.053744 
L 530.866991 488.228905 
L 531.159145 488.091425 
L 532.035605 488.503851 
L 532.327759 487.610268 
L 532.619912 487.747748 
L 532.912066 490.840903 
L 533.204219 492.284366 
L 534.080679 493.796578 
L 534.372833 495.789933 
L 534.664986 494.483931 
L 534.95714 496.202346 
L 535.249293 496.064887 
L 536.125753 494.965087 
L 536.417907 493.521625 
L 536.71006 494.002781 
L 537.002214 492.834259 
L 538.170828 493.865301 
L 538.462981 494.896364 
L 538.755134 491.047099 
L 539.047288 491.734473 
L 539.339441 491.459533 
L 540.508055 489.259947 
L 540.800209 489.397427 
L 541.092362 489.741117 
L 541.384516 495.652453 
L 542.260976 494.896364 
L 542.553129 495.446257 
L 542.845283 498.126979 
L 543.137436 497.920762 
L 543.42959 500.120334 
L 544.30605 500.601504 
L 544.598203 500.189071 
L 544.890357 498.126979 
L 545.18251 502.113703 
L 545.474664 500.8077 
L 546.351124 501.082654 
L 546.643278 501.013917 
L 546.935431 501.151397 
L 547.227584 502.388656 
L 547.519738 491.803209 
L 548.396198 492.490575 
L 548.688352 492.490575 
L 548.980505 491.734473 
L 549.272659 493.177949 
L 549.564812 491.528256 
L 550.733426 489.259947 
L 551.025579 490.084794 
L 551.317733 491.322053 
L 552.486346 491.047099 
L 552.7785 488.710054 
L 553.070653 490.222267 
L 553.362807 489.122488 
L 553.65496 488.710054 
L 554.823574 488.366378 
L 555.115727 487.129119 
L 555.407881 484.72333 
L 556.576495 486.373009 
L 556.868648 488.091425 
L 557.160802 487.610268 
L 557.452955 488.985008 
L 557.745108 490.978363 
L 558.621569 492.765515 
L 558.913722 490.840903 
L 559.205876 490.77216 
L 559.498029 488.778791 
L 559.790183 491.253316 
L 560.958796 493.109212 
L 561.25095 492.353102 
L 561.543103 495.171304 
L 561.835257 494.896364 
L 562.711717 495.102567 
L 563.003871 495.583717 
L 563.296024 496.820983 
L 563.588177 497.370869 
L 563.880331 497.095929 
L 564.756791 497.852025 
L 565.048945 499.158028 
L 565.341098 496.889719 
L 565.633252 499.295501 
L 565.925405 506.581584 
L 566.801865 506.993997 
L 567.386172 502.526116 
L 567.678326 502.457379 
L 567.970479 502.663596 
L 568.846939 501.632547 
L 569.139093 496.4773 
L 569.431246 499.432981 
L 569.7234 496.683503 
L 570.015553 495.377514 
L 570.892014 495.308777 
L 571.184167 492.284366 
L 571.768474 493.934038 
L 572.060627 488.091425 
L 572.937088 485.823116 
L 573.229241 484.035977 
L 573.521395 484.035977 
L 573.813548 483.417348 
L 574.105701 486.373009 
L 574.982162 484.792073 
L 575.274315 486.441746 
L 575.858622 488.022702 
L 576.150776 486.373009 
L 577.027236 486.991639 
L 577.319389 483.761024 
L 577.611543 484.86081 
L 577.903696 482.592501 
L 578.19585 481.836392 
L 579.07231 480.942822 
L 579.364463 481.011559 
L 579.656617 478.605777 
L 580.240924 478.262101 
L 581.117384 480.942822 
L 581.409538 480.736606 
L 581.701691 477.093578 
L 581.993844 478.39956 
L 582.285998 477.574728 
L 583.454612 479.911773 
L 583.746765 483.073658 
L 584.038919 483.142394 
L 584.331072 487.472809 
L 585.207532 487.885222 
L 585.499686 489.397427 
L 585.791839 483.967241 
L 586.083993 483.417348 
L 586.376146 482.042608 
L 587.252607 479.568083 
L 587.836913 481.011559 
L 588.42122 480.874086 
L 589.297681 481.080302 
L 589.589834 482.386285 
L 589.881988 484.58587 
L 590.466294 484.035977 
L 591.342755 486.373009 
L 591.634908 490.497206 
L 591.927062 490.840903 
L 592.219215 485.891853 
L 592.511369 485.34196 
L 593.387829 487.060375 
L 593.679982 487.266592 
L 593.972136 486.716699 
L 594.264289 487.679012 
L 594.556443 485.2045 
L 595.725056 484.792073 
L 596.309363 480.461666 
L 596.601517 480.049253 
L 597.477977 480.667869 
L 597.770131 487.472809 
L 598.062284 489.672381 
L 598.354437 486.441746 
L 598.646591 490.42847 
L 598.646591 490.42847 
" style="fill:none;opacity:0.6;stroke:#000000;stroke-linecap:square;stroke-width:1.5;"/>
   </g>
   <g id="line2d_17">
    <path clip-path="url(#p48e102de63)" d="M 57.578409 504.863168 
L 57.870563 503.969592 
L 58.162716 504.382012 
L 58.454869 507.612626 
L 58.747023 507.612626 
L 59.623483 507.337687 
L 59.915637 507.750106 
L 60.499944 504.725688 
L 60.792097 506.787794 
L 61.960711 507.26895 
L 62.252864 509.812212 
L 62.545018 511.049457 
L 62.837171 513.249036 
L 63.713631 513.38651 
L 64.005785 512.492933 
L 64.297938 512.56167 
L 64.882245 519.229123 
L 65.758706 518.954176 
L 66.050859 518.129337 
L 66.343012 516.135975 
L 66.635166 519.229123 
L 66.927319 517.991863 
L 67.80378 519.366596 
L 68.095933 518.816703 
L 68.388087 520.672592 
L 68.68024 517.785654 
L 68.972393 518.129337 
L 70.141007 516.479658 
L 70.433161 516.273448 
L 70.725314 515.586082 
L 71.017468 515.311135 
L 71.893928 515.929765 
L 72.186081 516.685868 
L 72.478235 515.242398 
L 72.770388 517.64818 
L 73.062542 517.167024 
L 73.939002 513.867666 
L 74.231156 514.280086 
L 74.523309 515.379872 
L 75.107616 512.011784 
L 75.984076 508.849892 
L 76.27623 508.781149 
L 76.568383 506.993997 
L 77.15269 510.224625 
L 78.02915 509.262319 
L 78.321304 509.949671 
L 78.613457 508.987366 
L 78.905611 508.574953 
L 79.197764 509.399778 
L 80.074224 510.087152 
L 80.366378 512.21798 
L 80.658531 511.805567 
L 81.242838 508.712412 
L 82.119299 508.574953 
L 82.411452 508.231256 
L 82.703605 508.781149 
L 82.995759 510.430828 
L 84.164373 508.918629 
L 84.456526 506.100427 
L 84.74868 506.444104 
L 85.040833 503.144752 
L 85.332986 501.97623 
L 86.209447 501.151397 
L 86.5016 497.439612 
L 86.793754 496.064887 
L 87.085907 492.009426 
L 87.378061 497.508349 
L 88.254521 495.99615 
L 88.546674 496.064887 
L 88.838828 502.457379 
L 89.130981 500.601504 
L 90.299595 502.869813 
L 90.591748 506.100427 
L 90.883902 507.26895 
L 91.176055 505.756751 
L 91.468209 508.781149 
L 92.344669 505.894211 
L 92.636823 510.224625 
L 92.928976 509.056102 
L 93.513283 517.304497 
L 94.389743 510.155888 
L 94.97405 509.193582 
L 95.266204 511.461891 
L 95.558357 509.743475 
L 96.434817 510.568308 
L 97.019124 513.867666 
L 97.311278 518.610493 
L 97.603431 515.998501 
L 98.479892 515.586082 
L 98.772045 517.167024 
L 99.064198 516.204711 
L 99.356352 514.555032 
L 99.648505 516.960814 
L 100.817119 519.160386 
L 101.109273 518.0606 
L 101.401426 516.342184 
L 101.693579 519.297859 
L 102.57004 519.710279 
L 103.154347 521.428695 
L 103.4465 518.610493 
L 103.738654 517.304497 
L 104.615114 518.129337 
L 104.907267 514.829979 
L 105.199421 515.929765 
L 105.491574 515.173662 
L 105.783728 515.586082 
L 106.952341 518.67923 
L 107.244495 517.716917 
L 107.536648 520.466382 
L 107.828802 520.603855 
L 108.705262 521.153748 
L 108.997416 525.896575 
L 109.289569 527.271308 
L 109.581722 525.552892 
L 109.873876 525.690366 
L 111.04249 525.277946 
L 111.91895 520.053962 
L 112.79541 519.710279 
L 113.087564 515.723555 
L 113.379717 516.754604 
L 113.671871 516.754604 
L 113.964024 519.985226 
L 114.840484 518.610493 
L 115.132638 517.923127 
L 115.424791 526.790152 
L 115.716945 526.996361 
L 116.009098 526.240259 
L 116.885559 525.140473 
L 117.177712 526.515205 
L 117.762019 527.821201 
L 118.054172 526.996361 
L 118.930633 526.171522 
L 119.222786 526.583942 
L 119.51494 524.934263 
L 119.807093 525.071736 
L 120.099247 523.834477 
L 120.975707 523.422057 
L 121.26786 523.76574 
L 121.560014 527.065098 
L 122.144321 527.340045 
L 123.020781 527.614991 
L 123.312934 526.583942 
L 123.605088 526.240259 
L 123.897241 527.202571 
L 124.189395 527.614991 
L 125.065855 528.577304 
L 125.358009 530.295719 
L 125.650162 531.258032 
L 125.942315 531.601715 
L 126.234469 530.08951 
L 127.403083 532.289082 
L 127.695236 530.501929 
L 128.279543 528.783514 
L 129.448157 529.402143 
L 129.74031 527.889938 
L 130.032464 528.577304 
L 130.324617 528.371094 
L 131.201077 528.027411 
L 131.493231 528.714777 
L 131.785384 524.315633 
L 132.077538 524.865526 
L 132.369691 526.927625 
L 133.246152 527.133835 
L 133.538305 524.934263 
L 133.830458 525.896575 
L 134.122612 525.002999 
L 134.414765 522.734691 
L 135.291226 524.246896 
L 135.583379 523.490794 
L 135.875533 523.834477 
L 136.167686 525.002999 
L 136.459839 524.315633 
L 137.3363 524.246896 
L 137.628453 521.978588 
L 137.920607 522.597217 
L 138.21276 524.59058 
L 138.504914 522.803427 
L 139.381374 523.35332 
L 139.673527 523.215847 
L 140.257834 512.905353 
L 140.549988 510.705781 
L 141.426448 512.905353 
L 141.718602 515.929765 
L 142.010755 513.798929 
L 142.302908 512.630407 
L 142.595062 510.293368 
L 143.471522 509.674732 
L 143.763676 509.262319 
L 144.347983 509.674732 
L 144.640136 509.056102 
L 145.516596 511.393147 
L 145.80875 511.118194 
L 146.100903 511.255674 
L 146.393057 511.049457 
L 146.68521 510.568308 
L 147.56167 509.399778 
L 147.853824 505.756751 
L 148.145977 505.962947 
L 148.438131 506.925274 
L 148.730284 508.643689 
L 149.606745 508.299999 
L 149.898898 510.774518 
L 150.191051 511.393147 
L 150.483205 505.619271 
L 150.775358 508.506209 
L 151.651819 508.574953 
L 151.943972 511.118194 
L 152.236126 509.605995 
L 152.820432 510.911998 
L 153.696893 509.812212 
L 153.989046 513.661456 
L 154.2812 511.393147 
L 154.573353 510.155888 
L 154.865507 510.018415 
L 155.741967 510.155888 
L 156.03412 505.962947 
L 156.326274 505.413061 
L 156.618427 505.894211 
L 156.910581 505.481798 
L 158.079194 508.093796 
L 158.371348 509.331042 
L 158.663501 508.918629 
L 158.955655 509.812212 
L 159.832115 510.499564 
L 160.124269 508.299999 
L 160.416422 508.093796 
L 160.708575 507.475167 
L 162.169343 509.468522 
L 162.75365 507.200213 
L 163.045803 508.093796 
L 163.922263 507.26895 
L 164.214417 508.368736 
L 164.50657 506.169164 
L 164.798724 505.138121 
L 165.090877 506.237901 
L 165.967338 508.299999 
L 166.259491 508.437473 
L 167.135951 506.856537 
L 168.304565 508.987366 
L 168.596719 510.293368 
L 168.888872 510.843254 
L 169.181025 512.630407 
L 170.057486 511.805567 
L 170.349639 512.286724 
L 170.641793 515.379872 
L 170.933946 511.049457 
L 171.2261 513.592719 
L 172.10256 511.59935 
L 172.686867 508.506209 
L 173.271174 506.993997 
L 174.147634 506.925274 
L 174.731941 509.468522 
L 175.316248 506.581584 
L 176.192708 506.306644 
L 176.484862 504.175795 
L 176.777015 500.326551 
L 177.069168 500.257814 
L 177.361322 501.013917 
L 178.529936 506.169164 
L 179.114243 509.880935 
L 179.406396 508.987366 
L 180.282856 509.674732 
L 180.57501 511.736831 
L 180.867163 508.093796 
L 181.45147 505.000641 
L 182.32793 507.612626 
L 182.620084 505.962947 
L 182.912237 501.082654 
L 183.204391 505.138121 
L 183.496544 502.663596 
L 184.373005 503.419706 
L 184.665158 510.155888 
L 184.957312 513.042826 
L 185.249465 513.38651 
L 185.541618 512.21798 
L 186.710232 509.949671 
L 187.002386 511.530628 
L 187.294539 506.719057 
L 187.586693 505.825488 
L 188.463153 508.437473 
L 188.755306 507.26895 
L 189.04746 507.337687 
L 189.339613 507.750106 
L 189.631767 506.65032 
L 190.508227 506.444104 
L 190.80038 504.794425 
L 191.384687 505.550534 
L 191.676841 507.131477 
L 192.553301 508.368736 
L 192.845455 509.949671 
L 193.137608 508.02506 
L 193.429761 507.681363 
L 193.721915 508.162519 
L 194.598375 510.018415 
L 194.890529 511.59935 
L 195.182682 506.444104 
L 195.474836 506.581584 
L 196.643449 504.794425 
L 196.935603 503.625902 
L 197.227756 503.763382 
L 197.812063 500.738964 
L 202.778672 481.350042 
L 207.160973 465.151331 
L 211.543275 449.804961 
L 215.633423 436.250681 
L 219.723572 423.438884 
L 223.81372 411.369569 
L 227.611715 400.827173 
L 231.409709 390.924979 
L 234.623397 383.046239 
L 238.713546 373.681681 
L 242.51154 365.650846 
L 246.017382 358.805993 
L 248.354609 354.629076 
L 249.815376 352.4974 
L 250.98399 351.104939 
L 252.444758 349.755462 
L 253.029064 349.337347 
L 254.489832 348.596248 
L 255.074139 348.421484 
L 256.534906 348.288763 
L 257.119213 348.35735 
L 258.57998 348.833006 
L 259.164287 349.144944 
L 260.625054 350.228978 
L 261.209361 350.784267 
L 262.962282 352.867307 
L 264.423049 355.081185 
L 265.299509 356.618098 
L 267.05243 360.161244 
L 268.80535 364.33015 
L 270.558271 369.124816 
L 272.311192 374.545241 
L 273.479806 378.506503 
L 275.52488 386.107925 
L 277.569954 394.561077 
L 279.615028 403.865957 
L 281.660102 414.022565 
L 283.705176 425.030902 
L 286.626711 442.234586 
L 289.256092 459.204081 
L 291.885473 477.581535 
L 295.099161 501.954912 
L 297.144235 518.0606 
L 297.436388 517.44197 
L 297.728542 518.816703 
L 298.897155 518.610493 
L 299.481462 520.122699 
L 299.773616 518.88544 
L 300.065769 520.191435 
L 300.94223 520.741328 
L 301.234383 519.229123 
L 301.526536 515.929765 
L 301.81869 516.548394 
L 302.110843 515.173662 
L 302.987304 517.029551 
L 303.571611 515.861028 
L 304.155917 515.379872 
L 305.032378 515.586082 
L 305.324531 514.967452 
L 305.616685 514.692505 
L 306.200992 518.26681 
L 307.077452 516.892077 
L 307.369605 516.823341 
L 307.661759 517.235761 
L 307.953912 516.273448 
L 308.246066 517.991863 
L 309.122526 515.861028 
L 309.706833 517.373234 
L 309.998986 520.191435 
L 310.29114 516.410921 
L 311.1676 515.311135 
L 311.459754 517.304497 
L 311.751907 516.685868 
L 312.04406 516.892077 
L 312.336214 516.823341 
L 313.504828 516.067238 
L 313.796981 517.579444 
L 314.089135 517.64818 
L 314.381288 519.847752 
L 315.257748 519.229123 
L 315.549902 518.610493 
L 315.842055 516.823341 
L 316.134209 516.823341 
L 316.426362 514.829979 
L 317.302823 517.235761 
L 317.594976 516.067238 
L 317.887129 516.960814 
L 318.179283 516.823341 
L 318.471436 516.823341 
L 319.347897 515.929765 
L 319.64005 514.829979 
L 319.932204 514.211349 
L 320.224357 515.723555 
L 320.51651 515.104925 
L 321.392971 516.273448 
L 321.685124 516.892077 
L 321.977278 515.723555 
L 322.269431 516.204711 
L 322.561585 513.592719 
L 323.438045 513.523983 
L 323.730198 512.56167 
L 324.606659 513.936403 
L 325.483119 514.142612 
L 325.775272 513.661456 
L 326.067426 513.798929 
L 326.359579 514.555032 
L 326.651733 514.211349 
L 327.528193 514.829979 
L 327.820347 515.173662 
L 328.1125 514.486296 
L 328.404653 514.280086 
L 328.696807 512.97409 
L 329.573267 514.073876 
L 329.865421 516.342184 
L 330.157574 515.861028 
L 330.741881 511.668087 
L 331.618341 512.56167 
L 331.910495 513.523983 
L 332.202648 512.492933 
L 332.494802 514.142612 
L 332.786955 512.630407 
L 333.663415 512.149243 
L 333.955569 510.911998 
L 334.247722 511.255674 
L 334.539876 512.35546 
L 334.832029 518.26681 
L 335.70849 519.160386 
L 336.000643 521.153748 
L 336.292796 520.947538 
L 336.58495 519.366596 
L 336.877103 519.091649 
L 337.753564 519.572806 
L 338.045717 519.504069 
L 338.630024 520.191435 
L 338.922177 519.847752 
L 339.798638 520.328909 
L 340.090791 521.222485 
L 340.382945 520.397645 
L 340.675098 521.566168 
L 340.967252 521.703641 
L 342.135865 520.053962 
L 342.428019 518.67923 
L 342.720172 518.541756 
L 343.012326 517.785654 
L 343.888786 518.541756 
L 344.18094 518.198073 
L 344.765246 515.173662 
L 345.0574 514.005139 
L 345.93386 514.623769 
L 346.226014 513.042826 
L 347.102474 514.211349 
L 347.978934 512.424197 
L 348.271088 514.623769 
L 348.563241 515.104925 
L 348.855395 512.149243 
L 349.147548 512.56167 
L 350.024008 513.592719 
L 350.316162 512.836617 
L 350.608315 510.980735 
L 350.900469 510.568308 
L 351.192622 511.805567 
L 352.069083 512.21798 
L 352.361236 513.455246 
L 352.653389 513.592719 
L 352.945543 512.97409 
L 353.237696 513.249036 
L 354.114157 514.623769 
L 354.698464 511.805567 
L 354.990617 512.424197 
L 355.28277 513.523983 
L 356.159231 514.005139 
L 356.451384 507.818843 
L 356.743538 508.643689 
L 357.035691 508.231256 
L 357.327845 506.993997 
L 358.788612 506.65032 
L 359.080765 505.894211 
L 359.372919 504.794425 
L 360.541532 502.388656 
L 360.833686 502.869813 
L 361.125839 503.900855 
L 361.417993 503.763382 
L 362.294453 502.044966 
L 362.586607 499.707921 
L 362.87876 499.845394 
L 363.170914 499.432981 
L 363.463067 499.639178 
L 364.339527 496.202346 
L 364.631681 497.027193 
L 364.923834 495.927407 
L 365.508141 494.758884 
L 366.384601 493.452888 
L 366.676755 492.284366 
L 366.968908 492.421839 
L 367.261062 492.696778 
L 367.553215 493.384152 
L 368.429676 494.896364 
L 368.721829 492.284366 
L 369.013982 492.559319 
L 369.306136 490.42847 
L 369.598289 490.42847 
L 370.766903 488.228905 
L 371.059057 489.191224 
L 371.35121 489.397427 
L 371.643363 487.404072 
L 372.519824 487.060375 
L 372.811977 487.541532 
L 373.104131 487.679012 
L 373.396284 487.060375 
L 373.688438 489.397427 
L 374.564898 487.335329 
L 375.149205 487.885222 
L 375.441358 487.679012 
L 375.733512 488.366378 
L 376.609972 485.616913 
L 377.194279 484.379654 
L 377.486432 486.441746 
L 377.778586 485.891853 
L 378.655046 489.053744 
L 378.9472 487.266592 
L 379.531506 491.871946 
L 379.82366 489.80984 
L 380.70012 488.847534 
L 380.992274 488.228905 
L 381.284427 484.44839 
L 381.576581 484.035977 
L 381.868734 484.792073 
L 383.037348 485.616913 
L 383.329501 484.173437 
L 383.621655 481.905128 
L 383.913808 482.386285 
L 384.790269 482.798718 
L 385.082422 486.991639 
L 385.374575 484.1047 
L 385.666729 487.472809 
L 385.958882 486.579226 
L 386.835343 489.466164 
L 387.127496 487.266592 
L 387.41965 485.960596 
L 387.711803 482.729975 
L 388.003956 481.492715 
L 388.880417 478.74325 
L 389.17257 476.612422 
L 389.464724 477.024835 
L 389.756877 476.818625 
L 390.049031 477.918411 
L 391.217644 476.062515 
L 391.509798 478.605777 
L 391.801951 479.224407 
L 392.094105 476.543685 
L 392.970565 479.911773 
L 393.262718 479.705563 
L 393.554872 476.956098 
L 393.847025 475.925056 
L 394.139179 471.594634 
L 395.307793 464.652235 
L 395.892099 466.370651 
L 396.184253 464.995925 
L 397.060713 467.058024 
L 397.352867 468.432757 
L 397.64502 468.845176 
L 397.937174 468.226547 
L 398.229327 470.701065 
L 399.105787 471.113485 
L 399.397941 470.013699 
L 399.690094 470.494855 
L 399.982248 465.270865 
L 400.274401 462.521407 
L 401.150861 461.696574 
L 401.443015 460.253098 
L 401.735168 460.253098 
L 402.027322 460.665511 
L 403.195936 460.871728 
L 403.488089 458.947095 
L 403.780242 461.696574 
L 404.072396 460.734254 
L 404.364549 462.246467 
L 405.24101 461.009201 
L 406.11747 454.066802 
L 406.409624 452.692062 
L 407.578237 458.878359 
L 407.870391 459.496988 
L 408.162544 462.521407 
L 408.454698 461.077944 
L 409.331158 457.778573 
L 410.207618 449.186495 
L 410.499772 452.760806 
L 411.376232 454.479222 
L 411.668386 452.417123 
L 411.960539 455.372805 
L 412.252692 450.767451 
L 412.544846 450.080078 
L 413.421306 449.392711 
L 413.71346 443.206415 
L 414.005613 440.86937 
L 414.297767 442.037892 
L 414.58992 437.982431 
L 415.46638 441.00685 
L 415.758534 439.288434 
L 416.050687 434.476864 
L 416.342841 439.700847 
L 416.634994 440.113267 
L 417.511454 439.700847 
L 417.803608 436.813909 
L 418.387915 443.550098 
L 418.680068 441.419263 
L 419.848682 443.206415 
L 420.140835 444.993574 
L 420.432989 441.419263 
L 420.725142 441.625479 
L 421.601603 441.00685 
L 421.893756 441.900419 
L 422.18591 445.405987 
L 422.478063 442.244109 
L 422.770216 436.538955 
L 423.646677 438.601061 
L 423.93883 440.938106 
L 424.230984 444.443681 
L 424.523137 441.144309 
L 424.815291 441.762939 
L 425.983904 439.150954 
L 426.276058 442.037892 
L 426.568211 448.155452 
L 426.860365 449.255231 
L 427.736825 456.95374 
L 428.028978 450.836187 
L 428.321132 448.567865 
L 428.613285 447.330619 
L 428.905439 449.667665 
L 429.781899 448.911555 
L 430.074053 450.629971 
L 430.366206 446.505773 
L 430.950513 445.887143 
L 431.826973 446.918186 
L 432.119127 439.013481 
L 432.41128 439.838327 
L 432.703434 436.538955 
L 432.995587 435.232966 
L 433.872047 434.476864 
L 434.164201 437.638755 
L 434.456354 418.529966 
L 434.748508 418.529966 
L 435.040661 422.310474 
L 436.209275 434.339383 
L 436.793582 428.084357 
L 437.085735 429.184137 
L 437.962196 430.421403 
L 438.254349 429.59657 
L 438.546503 429.321617 
L 438.838656 430.2152 
L 439.130809 432.346028 
L 440.00727 432.208555 
L 440.299423 434.614337 
L 440.88373 433.514551 
L 442.052344 427.534464 
L 442.344497 427.603201 
L 442.636651 429.59657 
L 442.928804 435.851603 
L 443.220958 434.614337 
L 444.097418 437.432538 
L 444.389571 435.989062 
L 444.681725 436.401496 
L 444.973878 430.627613 
L 445.266032 430.008983 
L 446.142492 432.002338 
L 446.434646 436.813909 
L 446.726799 436.057799 
L 447.018952 434.751817 
L 447.311106 435.989062 
L 448.47972 431.452445 
L 448.771873 429.45909 
L 449.064027 428.359304 
L 449.35618 428.771724 
L 450.524794 419.767226 
L 450.816947 421.760581 
L 451.109101 418.598703 
L 451.401254 421.279431 
L 452.277715 418.804906 
L 452.862021 413.168503 
L 453.154175 409.113042 
L 453.446328 409.800415 
L 454.322789 414.405769 
L 454.614942 407.46337 
L 454.907096 406.982213 
L 455.199249 397.290349 
L 455.491402 391.791426 
L 456.367863 394.403425 
L 456.660016 386.567429 
L 456.95217 387.735965 
L 457.244323 389.523104 
L 457.536477 382.580718 
L 458.412937 387.735965 
L 458.70509 396.05309 
L 458.997244 395.503211 
L 459.289397 389.591854 
L 459.581551 387.667208 
L 460.458011 388.698271 
L 460.750164 392.959935 
L 461.334471 397.359072 
L 461.626625 392.616259 
L 462.503085 388.285844 
L 462.795239 389.110698 
L 463.087392 394.884581 
L 463.379545 395.022027 
L 463.671699 400.72718 
L 464.548159 400.039828 
L 464.840313 394.403425 
L 465.132466 398.527608 
L 465.716773 394.334674 
L 466.593233 394.265945 
L 466.885387 395.778137 
L 467.17754 396.396766 
L 467.469694 401.689486 
L 467.761847 394.747101 
L 468.930461 388.217115 
L 469.222614 381.137256 
L 469.514768 377.081788 
L 469.806921 378.59398 
L 470.683382 381.962082 
L 470.975535 384.367857 
L 471.559842 372.888854 
L 471.851995 371.582838 
L 472.728456 372.957577 
L 473.312763 368.352237 
L 474.77353 368.008561 
L 475.065683 371.101688 
L 475.357837 360.310038 
L 475.64999 355.223541 
L 475.942144 355.292264 
L 476.818604 355.223541 
L 477.110757 345.944083 
L 477.402911 353.230172 
L 477.695064 351.92419 
L 477.987218 349.312185 
L 478.863678 349.312185 
L 479.155832 350.824404 
L 479.447985 347.181342 
L 479.740138 346.081556 
L 480.032292 346.631463 
L 480.908752 342.163576 
L 481.200906 341.613696 
L 481.785213 342.988401 
L 482.077366 344.088187 
L 482.953826 346.081556 
L 483.24598 344.431891 
L 483.830287 350.274497 
L 484.12244 346.631463 
L 484.9989 347.937452 
L 485.291054 341.13254 
L 485.583207 340.44516 
L 485.875361 341.13254 
L 486.167514 339.001691 
L 487.043975 347.525019 
L 487.336128 339.620327 
L 487.628281 340.101477 
L 487.920435 345.119251 
L 488.212588 347.387573 
L 489.381202 350.755654 
L 489.673356 346.219037 
L 489.965509 351.649237 
L 490.257662 361.82225 
L 491.134123 370.483052 
L 491.426276 359.691408 
L 491.71843 382.580718 
L 492.010583 379.693766 
L 492.302737 374.882223 
L 493.179197 382.511961 
L 493.47135 377.287991 
L 493.763504 378.4565 
L 494.347811 366.496341 
L 495.224271 362.853314 
L 495.516425 357.76679 
L 495.808578 360.447511 
L 496.100731 357.629316 
L 496.392885 359.622678 
L 497.561499 359.072779 
L 497.853652 362.50961 
L 498.145806 362.647083 
L 498.437959 366.083914 
L 499.314419 365.190359 
L 499.606573 366.290145 
L 499.898726 363.81562 
L 500.19088 357.972993 
L 500.483033 356.598281 
L 501.359493 359.485205 
L 501.651647 349.999544 
L 501.9438 350.893127 
L 502.235954 349.793341 
L 502.528107 356.39205 
L 503.404568 360.859945 
L 503.696721 364.228026 
L 503.988874 364.640452 
L 504.281028 366.496341 
L 504.573181 363.9531 
L 505.741795 351.236803 
L 506.326102 362.784563 
L 506.618255 361.616047 
L 507.494716 370.276855 
L 508.079023 378.731453 
L 508.371176 377.769148 
L 508.66333 375.638298 
L 509.53979 375.638298 
L 509.831943 371.582838 
L 510.124097 370.551809 
L 510.41625 376.600639 
L 510.708404 386.911133 
L 511.584864 395.090777 
L 512.169171 382.718191 
L 512.461324 392.822455 
L 512.753478 396.465517 
L 513.629938 392.478779 
L 513.922092 387.254809 
L 514.214245 372.545178 
L 514.506398 372.338947 
L 515.675012 372.201467 
L 515.967166 373.98864 
L 516.259319 378.800204 
L 516.551473 380.174916 
L 516.843626 385.398913 
L 517.720086 388.766994 
L 518.01224 376.119455 
L 518.304393 375.294622 
L 518.8887 368.970866 
L 519.765161 368.695913 
L 520.057314 371.582838 
L 520.349467 388.217115 
L 520.933774 390.347964 
L 521.810235 385.605116 
L 522.102388 385.948792 
L 522.394542 387.529762 
L 522.978848 392.753732 
L 523.855309 389.454381 
L 524.147462 389.591854 
L 524.731769 383.8867 
L 525.023923 381.687135 
L 526.192536 380.999776 
L 526.48469 383.336821 
L 526.776843 382.511961 
L 527.068997 384.230377 
L 527.945457 382.718191 
L 528.23761 384.230377 
L 528.529764 383.680497 
L 528.821917 382.237035 
L 529.114071 375.500853 
L 529.990531 374.675993 
L 530.866991 369.589496 
L 531.159145 368.48971 
L 532.035605 383.130598 
L 532.327759 385.742596 
L 532.619912 382.237035 
L 532.912066 384.024181 
L 533.204219 388.354595 
L 534.372833 392.272576 
L 534.664986 393.853518 
L 534.95714 391.035316 
L 535.249293 386.979855 
L 536.417907 379.41884 
L 536.71006 375.775779 
L 537.002214 373.98864 
L 538.170828 378.250304 
L 538.462981 385.055237 
L 538.755134 382.855672 
L 539.047288 382.305765 
L 539.339441 378.868934 
L 540.215902 377.013038 
L 540.508055 377.631667 
L 540.800209 390.141733 
L 541.092362 394.128471 
L 541.384516 393.303611 
L 542.260976 393.647315 
L 542.553129 391.44775 
L 543.137436 373.782437 
L 543.42959 374.126113 
L 544.30605 375.638298 
L 544.598203 377.150518 
L 544.890357 370.826762 
L 545.18251 376.256935 
L 545.474664 377.562945 
L 546.351124 371.307912 
L 546.643278 377.013038 
L 546.935431 376.394408 
L 547.227584 377.287991 
L 547.519738 375.569576 
L 548.396198 376.394408 
L 548.688352 378.250304 
L 548.980505 373.644957 
L 549.564812 371.720318 
L 550.441272 365.465285 
L 550.733426 362.37213 
L 551.025579 364.640452 
L 551.317733 363.678146 
L 551.609886 361.134898 
L 552.486346 363.19699 
L 552.7785 362.647083 
L 553.070653 359.966362 
L 553.362807 359.072779 
L 554.823574 352.474069 
L 555.115727 355.223541 
L 555.700034 350.274497 
L 556.576495 335.01496 
L 556.868648 342.094846 
L 557.160802 339.620327 
L 557.452955 338.795495 
L 557.745108 327.660141 
L 558.621569 329.928463 
L 558.913722 328.828677 
L 559.205876 329.65351 
L 559.498029 333.090341 
L 559.790183 341.06379 
L 560.666643 356.735726 
L 560.958796 353.986282 
L 561.25095 348.281128 
L 561.543103 354.673635 
L 561.835257 342.919678 
L 562.711717 343.881991 
L 563.003871 342.301049 
L 563.296024 345.256724 
L 563.588177 344.019465 
L 563.880331 340.37643 
L 564.756791 337.008329 
L 565.048945 341.06379 
L 565.341098 340.032726 
L 565.633252 339.895281 
L 565.925405 350.205775 
L 567.094019 361.409824 
L 567.386172 362.44088 
L 568.846939 352.40534 
L 569.139093 346.219037 
L 569.431246 333.708971 
L 569.7234 329.584787 
L 570.015553 323.398477 
L 570.892014 315.150075 
L 571.184167 307.107904 
L 571.47632 310.132308 
L 571.768474 308.757569 
L 572.060627 305.870644 
L 572.937088 303.877275 
L 573.229241 298.790751 
L 573.813548 292.948152 
L 574.105701 288.686488 
L 574.982162 282.775131 
L 575.274315 285.249657 
L 575.566469 274.595487 
L 575.858622 275.282839 
L 576.150776 266.690761 
L 577.027236 262.429097 
L 577.319389 266.690761 
L 577.611543 274.732932 
L 577.903696 270.127592 
L 578.19585 271.571054 
L 579.07231 266.140854 
L 579.364463 266.896964 
L 579.656617 265.453502 
L 580.240924 266.759484 
L 581.117384 278.032318 
L 581.409538 274.11433 
L 581.701691 276.795052 
L 581.993844 275.901469 
L 582.285998 271.914731 
L 583.162458 281.331669 
L 583.454612 275.214116 
L 583.746765 284.149871 
L 584.038919 279.132097 
L 584.331072 277.069978 
L 585.207532 279.95693 
L 585.499686 286.624396 
L 586.083993 272.464637 
L 586.376146 272.67084 
L 587.252607 270.814945 
L 587.54476 278.582197 
L 587.836913 274.251776 
L 588.42122 272.808314 
L 589.297681 275.076636 
L 589.589834 270.333795 
L 589.881988 275.214116 
L 590.466294 277.551161 
L 591.342755 284.69975 
L 591.634908 284.149871 
L 591.927062 288.411535 
L 592.219215 277.138728 
L 592.511369 280.644289 
L 593.387829 286.968072 
L 593.679982 290.404904 
L 593.972136 295.835104 
L 594.264289 304.633378 
L 594.556443 302.983692 
L 595.725056 295.010244 
L 596.309363 286.349443 
L 596.601517 285.937009 
L 597.477977 282.568928 
L 598.062284 303.052443 
L 598.354437 321.817534 
L 598.646591 320.030368 
L 598.646591 320.030368 
" style="fill:none;opacity:0.6;stroke:#000000;stroke-linecap:square;stroke-width:1.5;"/>
   </g>
   <g id="line2d_18">
    <path clip-path="url(#p48e102de63)" d="M 377.194279 263.153959 
L 379.82366 226.097899 
L 381.868734 199.604941 
L 384.790269 165.29207 
L 387.127496 140.835459 
L 389.17257 121.618821 
L 391.217644 104.439552 
L 393.262718 89.297652 
L 395.015639 77.940461 
L 396.184253 71.200579 
L 398.229327 61.006577 
L 399.982248 53.89044 
L 401.150861 49.977928 
L 402.027322 47.480124 
L 403.780242 43.607147 
L 404.364549 42.648786 
L 405.533163 41.231012 
L 406.409624 40.604261 
L 407.578237 40.350699 
L 408.162544 40.473391 
L 408.454698 40.597106 
L 409.623311 41.507755 
L 410.499772 42.62732 
L 411.960539 45.324842 
L 412.544846 46.694904 
L 414.005613 50.84769 
L 414.58992 52.799857 
L 416.342841 59.654254 
L 417.803608 66.509673 
L 418.680068 71.121872 
L 420.725142 83.338933 
L 422.770216 97.593364 
L 424.815291 113.885164 
L 426.860365 132.214334 
L 428.905439 152.580873 
L 430.950513 174.984782 
L 432.995587 199.42606 
L 439.130809 276.687739 
L 441.175884 299.346671 
L 443.220958 320.180598 
L 445.266032 339.189518 
L 447.311106 356.373432 
L 449.35618 371.73234 
L 451.401254 385.266241 
L 453.446328 396.975137 
L 455.491402 406.859026 
L 457.244323 413.878375 
L 458.70509 418.703594 
L 459.581551 421.151786 
L 461.042318 424.487204 
L 461.626625 425.560656 
L 463.087392 427.592499 
L 463.671699 428.14452 
L 464.840313 428.801624 
L 465.716773 428.903378 
L 466.885387 428.517621 
L 467.761847 427.83723 
L 468.930461 426.408612 
L 469.806921 424.946076 
L 471.267688 421.763615 
L 471.851995 420.229915 
L 473.312763 415.743878 
L 474.77353 410.326716 
L 475.942144 405.322575 
L 477.987218 395.131396 
L 480.032292 383.11521 
L 482.077366 369.274018 
L 484.12244 353.60782 
L 486.167514 336.116616 
L 488.212588 316.800406 
L 491.134123 286.039992 
L 492.302737 272.692966 
L 492.302737 272.692966 
" style="fill:none;stroke:#ff0000;stroke-linecap:square;stroke-width:3;"/>
   </g>
   <g id="line2d_19">
    <path clip-path="url(#p48e102de63)" d="M 163.922263 506.914192 
L 167.135951 472.568904 
L 171.2261 431.084273 
L 175.316248 392.094499 
L 179.406396 355.599584 
L 183.204391 323.945365 
L 186.710232 296.635416 
L 189.631767 275.277301 
L 193.137608 251.327773 
L 195.474836 236.379731 
L 198.980677 215.485132 
L 201.902211 199.473142 
L 205.115899 183.330137 
L 207.74528 171.267822 
L 210.082508 161.411327 
L 213.004042 150.236307 
L 215.34127 142.212769 
L 217.678497 135.003879 
L 219.723572 129.364366 
L 221.768646 124.348567 
L 223.81372 119.956483 
L 225.56664 116.688266 
L 227.319561 113.878287 
L 228.488175 112.259546 
L 230.241096 110.2133 
L 231.701863 108.858138 
L 232.578323 108.197788 
L 234.331244 107.220767 
L 234.623397 107.102481 
L 236.376318 106.660072 
L 237.544932 106.619711 
L 238.713546 106.783011 
L 240.466466 107.409827 
L 241.63508 108.082282 
L 242.803694 108.958399 
L 244.556614 110.65444 
L 246.017382 112.417851 
L 246.893842 113.628645 
L 248.938916 116.89934 
L 250.98399 120.793749 
L 253.029064 125.311873 
L 255.074139 130.453712 
L 257.119213 136.219265 
L 259.164287 142.608533 
L 261.209361 149.621515 
L 263.254435 157.258212 
L 266.175969 169.249733 
L 268.80535 181.13042 
L 273.479806 203.780187 
L 279.615028 232.68115 
L 285.75025 260.411462 
L 291.885473 286.971122 
L 297.728542 311.177677 
L 303.571611 334.322416 
L 308.246066 352.0737 
L 313.796981 372.270717 
L 318.471436 388.53546 
L 323.730198 406.021008 
L 328.696807 421.745411 
L 333.955569 437.5586 
L 338.630024 450.892733 
L 343.012326 462.776303 
L 347.102474 473.328764 
L 351.192622 483.360936 
L 355.28277 492.872818 
L 359.372919 501.864411 
L 363.463067 510.335714 
L 367.553215 518.286728 
L 371.643363 525.717453 
L 375.733512 532.627888 
L 376.609972 534.041005 
L 376.609972 534.041005 
" style="fill:none;stroke:#ff0000;stroke-linecap:square;stroke-width:3;"/>
   </g>
   <g id="line2d_20">
    <path clip-path="url(#p48e102de63)" d="M 198.688523 497.237837 
L 203.362979 479.140967 
L 207.74528 463.055902 
L 212.127582 447.823177 
L 216.21773 434.374966 
L 220.307878 421.669238 
L 224.398027 409.705992 
L 228.488175 398.485229 
L 232.578323 388.006948 
L 236.668471 378.27115 
L 240.466466 369.89559 
L 243.972308 362.732531 
L 246.893842 357.180014 
L 248.938916 353.724259 
L 250.691837 351.426981 
L 251.860451 350.243106 
L 253.029064 349.337347 
L 254.489832 348.596248 
L 255.074139 348.421484 
L 256.534906 348.288763 
L 257.119213 348.35735 
L 258.57998 348.833006 
L 259.164287 349.144944 
L 260.625054 350.228978 
L 261.209361 350.784267 
L 262.962282 352.867307 
L 264.423049 355.081185 
L 265.299509 356.618098 
L 267.05243 360.161244 
L 268.80535 364.33015 
L 270.558271 369.124816 
L 272.311192 374.545241 
L 273.479806 378.506503 
L 275.52488 386.107925 
L 277.569954 394.561077 
L 279.615028 403.865957 
L 281.660102 414.022565 
L 283.705176 425.030902 
L 286.626711 442.234586 
L 289.256092 459.204081 
L 291.885473 477.581535 
L 295.099161 501.954912 
L 295.975621 508.967223 
L 295.975621 508.967223 
" style="fill:none;stroke:#ff0000;stroke-linecap:square;stroke-width:3;"/>
   </g>
   <g id="patch_3">
    <path d="M 30.525 587.415373 
L 30.525 14.3 
" style="fill:none;stroke:#000000;stroke-linecap:square;stroke-linejoin:miter;stroke-width:0.8;"/>
   </g>
   <g id="patch_4">
    <path d="M 625.7 587.415373 
L 625.7 14.3 
" style="fill:none;stroke:#000000;stroke-linecap:square;stroke-linejoin:miter;stroke-width:0.8;"/>
   </g>
   <g id="patch_5">
    <path d="M 30.525 587.415373 
L 625.7 587.415373 
" style="fill:none;stroke:#000000;stroke-linecap:square;stroke-linejoin:miter;stroke-width:0.8;"/>
   </g>
   <g id="patch_6">
    <path d="M 30.525 14.3 
L 625.7 14.3 
" style="fill:none;stroke:#000000;stroke-linecap:square;stroke-linejoin:miter;stroke-width:0.8;"/>
   </g>
  </g>
 </g>
 <defs>
  <clipPath id="p48e102de63">
   <rect height="573.115373" width="595.175" x="30.525" y="14.3"/>
  </clipPath>
 </defs>
</svg>
