<?xml version="1.0" encoding="utf-8" standalone="no"?>
<!DOCTYPE svg PUBLIC "-//W3C//DTD SVG 1.1//EN"
  "http://www.w3.org/Graphics/SVG/1.1/DTD/svg11.dtd">
<!-- Created with matplotlib (http://matplotlib.org/) -->
<svg height="233pt" version="1.1" viewBox="0 0 400 233" width="400pt" xmlns="http://www.w3.org/2000/svg" xmlns:xlink="http://www.w3.org/1999/xlink">
 <defs>
  <style type="text/css">
*{stroke-linecap:butt;stroke-linejoin:round;}
  </style>
 </defs>
 <g id="figure_1">
  <g id="patch_1">
   <path d="M 0 233 
L 400 233 
L 400 0 
L 0 0 
z
" style="fill:#ffffff;"/>
  </g>
  <g id="axes_1">
   <g id="patch_2">
    <path d="M 48.445313 172.248967 
L 321.740625 172.248967 
L 321.740625 23.814625 
L 48.445313 23.814625 
z
" style="fill:#ffffff;"/>
   </g>
   <g id="matplotlib.axis_1">
    <g id="xtick_1">
     <g id="line2d_1">
      <defs>
       <path d="M 0 0 
L 0 3.5 
" id="m34b1433283" style="stroke:#000000;stroke-width:0.8;"/>
      </defs>
      <g>
       <use style="stroke:#000000;stroke-width:0.8;" x="60.867827" xlink:href="#m34b1433283" y="172.248967"/>
      </g>
     </g>
     <g id="text_1">
      <!-- 2010-02 -->
      <defs>
       <path d="M 19.1875 8.296875 
L 53.609375 8.296875 
L 53.609375 0 
L 7.328125 0 
L 7.328125 8.296875 
Q 12.9375 14.109375 22.625 23.890625 
Q 32.328125 33.6875 34.8125 36.53125 
Q 39.546875 41.84375 41.421875 45.53125 
Q 43.3125 49.21875 43.3125 52.78125 
Q 43.3125 58.59375 39.234375 62.25 
Q 35.15625 65.921875 28.609375 65.921875 
Q 23.96875 65.921875 18.8125 64.3125 
Q 13.671875 62.703125 7.8125 59.421875 
L 7.8125 69.390625 
Q 13.765625 71.78125 18.9375 73 
Q 24.125 74.21875 28.421875 74.21875 
Q 39.75 74.21875 46.484375 68.546875 
Q 53.21875 62.890625 53.21875 53.421875 
Q 53.21875 48.921875 51.53125 44.890625 
Q 49.859375 40.875 45.40625 35.40625 
Q 44.1875 33.984375 37.640625 27.21875 
Q 31.109375 20.453125 19.1875 8.296875 
z
" id="DejaVuSans-32"/>
       <path d="M 31.78125 66.40625 
Q 24.171875 66.40625 20.328125 58.90625 
Q 16.5 51.421875 16.5 36.375 
Q 16.5 21.390625 20.328125 13.890625 
Q 24.171875 6.390625 31.78125 6.390625 
Q 39.453125 6.390625 43.28125 13.890625 
Q 47.125 21.390625 47.125 36.375 
Q 47.125 51.421875 43.28125 58.90625 
Q 39.453125 66.40625 31.78125 66.40625 
z
M 31.78125 74.21875 
Q 44.046875 74.21875 50.515625 64.515625 
Q 56.984375 54.828125 56.984375 36.375 
Q 56.984375 17.96875 50.515625 8.265625 
Q 44.046875 -1.421875 31.78125 -1.421875 
Q 19.53125 -1.421875 13.0625 8.265625 
Q 6.59375 17.96875 6.59375 36.375 
Q 6.59375 54.828125 13.0625 64.515625 
Q 19.53125 74.21875 31.78125 74.21875 
z
" id="DejaVuSans-30"/>
       <path d="M 12.40625 8.296875 
L 28.515625 8.296875 
L 28.515625 63.921875 
L 10.984375 60.40625 
L 10.984375 69.390625 
L 28.421875 72.90625 
L 38.28125 72.90625 
L 38.28125 8.296875 
L 54.390625 8.296875 
L 54.390625 0 
L 12.40625 0 
z
" id="DejaVuSans-31"/>
       <path d="M 4.890625 31.390625 
L 31.203125 31.390625 
L 31.203125 23.390625 
L 4.890625 23.390625 
z
" id="DejaVuSans-2d"/>
      </defs>
      <g transform="translate(23.643006 206.720813)rotate(-30)scale(0.1 -0.1)">
       <use xlink:href="#DejaVuSans-32"/>
       <use x="63.623047" xlink:href="#DejaVuSans-30"/>
       <use x="127.246094" xlink:href="#DejaVuSans-31"/>
       <use x="190.869141" xlink:href="#DejaVuSans-30"/>
       <use x="254.492188" xlink:href="#DejaVuSans-2d"/>
       <use x="290.576172" xlink:href="#DejaVuSans-30"/>
       <use x="354.199219" xlink:href="#DejaVuSans-32"/>
      </g>
     </g>
    </g>
    <g id="xtick_2">
     <g id="line2d_2">
      <g>
       <use style="stroke:#000000;stroke-width:0.8;" x="101.138615" xlink:href="#m34b1433283" y="172.248967"/>
      </g>
     </g>
     <g id="text_2">
      <!-- 2010-04 -->
      <defs>
       <path d="M 37.796875 64.3125 
L 12.890625 25.390625 
L 37.796875 25.390625 
z
M 35.203125 72.90625 
L 47.609375 72.90625 
L 47.609375 25.390625 
L 58.015625 25.390625 
L 58.015625 17.1875 
L 47.609375 17.1875 
L 47.609375 0 
L 37.796875 0 
L 37.796875 17.1875 
L 4.890625 17.1875 
L 4.890625 26.703125 
z
" id="DejaVuSans-34"/>
      </defs>
      <g transform="translate(63.913794 206.720813)rotate(-30)scale(0.1 -0.1)">
       <use xlink:href="#DejaVuSans-32"/>
       <use x="63.623047" xlink:href="#DejaVuSans-30"/>
       <use x="127.246094" xlink:href="#DejaVuSans-31"/>
       <use x="190.869141" xlink:href="#DejaVuSans-30"/>
       <use x="254.492188" xlink:href="#DejaVuSans-2d"/>
       <use x="290.576172" xlink:href="#DejaVuSans-30"/>
       <use x="354.199219" xlink:href="#DejaVuSans-34"/>
      </g>
     </g>
    </g>
    <g id="xtick_3">
     <g id="line2d_3">
      <g>
       <use style="stroke:#000000;stroke-width:0.8;" x="142.774514" xlink:href="#m34b1433283" y="172.248967"/>
      </g>
     </g>
     <g id="text_3">
      <!-- 2010-06 -->
      <defs>
       <path d="M 33.015625 40.375 
Q 26.375 40.375 22.484375 35.828125 
Q 18.609375 31.296875 18.609375 23.390625 
Q 18.609375 15.53125 22.484375 10.953125 
Q 26.375 6.390625 33.015625 6.390625 
Q 39.65625 6.390625 43.53125 10.953125 
Q 47.40625 15.53125 47.40625 23.390625 
Q 47.40625 31.296875 43.53125 35.828125 
Q 39.65625 40.375 33.015625 40.375 
z
M 52.59375 71.296875 
L 52.59375 62.3125 
Q 48.875 64.0625 45.09375 64.984375 
Q 41.3125 65.921875 37.59375 65.921875 
Q 27.828125 65.921875 22.671875 59.328125 
Q 17.53125 52.734375 16.796875 39.40625 
Q 19.671875 43.65625 24.015625 45.921875 
Q 28.375 48.1875 33.59375 48.1875 
Q 44.578125 48.1875 50.953125 41.515625 
Q 57.328125 34.859375 57.328125 23.390625 
Q 57.328125 12.15625 50.6875 5.359375 
Q 44.046875 -1.421875 33.015625 -1.421875 
Q 20.359375 -1.421875 13.671875 8.265625 
Q 6.984375 17.96875 6.984375 36.375 
Q 6.984375 53.65625 15.1875 63.9375 
Q 23.390625 74.21875 37.203125 74.21875 
Q 40.921875 74.21875 44.703125 73.484375 
Q 48.484375 72.75 52.59375 71.296875 
z
" id="DejaVuSans-36"/>
      </defs>
      <g transform="translate(105.549693 206.720813)rotate(-30)scale(0.1 -0.1)">
       <use xlink:href="#DejaVuSans-32"/>
       <use x="63.623047" xlink:href="#DejaVuSans-30"/>
       <use x="127.246094" xlink:href="#DejaVuSans-31"/>
       <use x="190.869141" xlink:href="#DejaVuSans-30"/>
       <use x="254.492188" xlink:href="#DejaVuSans-2d"/>
       <use x="290.576172" xlink:href="#DejaVuSans-30"/>
       <use x="354.199219" xlink:href="#DejaVuSans-36"/>
      </g>
     </g>
    </g>
    <g id="xtick_4">
     <g id="line2d_4">
      <g>
       <use style="stroke:#000000;stroke-width:0.8;" x="184.410413" xlink:href="#m34b1433283" y="172.248967"/>
      </g>
     </g>
     <g id="text_4">
      <!-- 2010-08 -->
      <defs>
       <path d="M 31.78125 34.625 
Q 24.75 34.625 20.71875 30.859375 
Q 16.703125 27.09375 16.703125 20.515625 
Q 16.703125 13.921875 20.71875 10.15625 
Q 24.75 6.390625 31.78125 6.390625 
Q 38.8125 6.390625 42.859375 10.171875 
Q 46.921875 13.96875 46.921875 20.515625 
Q 46.921875 27.09375 42.890625 30.859375 
Q 38.875 34.625 31.78125 34.625 
z
M 21.921875 38.8125 
Q 15.578125 40.375 12.03125 44.71875 
Q 8.5 49.078125 8.5 55.328125 
Q 8.5 64.0625 14.71875 69.140625 
Q 20.953125 74.21875 31.78125 74.21875 
Q 42.671875 74.21875 48.875 69.140625 
Q 55.078125 64.0625 55.078125 55.328125 
Q 55.078125 49.078125 51.53125 44.71875 
Q 48 40.375 41.703125 38.8125 
Q 48.828125 37.15625 52.796875 32.3125 
Q 56.78125 27.484375 56.78125 20.515625 
Q 56.78125 9.90625 50.3125 4.234375 
Q 43.84375 -1.421875 31.78125 -1.421875 
Q 19.734375 -1.421875 13.25 4.234375 
Q 6.78125 9.90625 6.78125 20.515625 
Q 6.78125 27.484375 10.78125 32.3125 
Q 14.796875 37.15625 21.921875 38.8125 
z
M 18.3125 54.390625 
Q 18.3125 48.734375 21.84375 45.5625 
Q 25.390625 42.390625 31.78125 42.390625 
Q 38.140625 42.390625 41.71875 45.5625 
Q 45.3125 48.734375 45.3125 54.390625 
Q 45.3125 60.0625 41.71875 63.234375 
Q 38.140625 66.40625 31.78125 66.40625 
Q 25.390625 66.40625 21.84375 63.234375 
Q 18.3125 60.0625 18.3125 54.390625 
z
" id="DejaVuSans-38"/>
      </defs>
      <g transform="translate(147.185592 206.720813)rotate(-30)scale(0.1 -0.1)">
       <use xlink:href="#DejaVuSans-32"/>
       <use x="63.623047" xlink:href="#DejaVuSans-30"/>
       <use x="127.246094" xlink:href="#DejaVuSans-31"/>
       <use x="190.869141" xlink:href="#DejaVuSans-30"/>
       <use x="254.492188" xlink:href="#DejaVuSans-2d"/>
       <use x="290.576172" xlink:href="#DejaVuSans-30"/>
       <use x="354.199219" xlink:href="#DejaVuSans-38"/>
      </g>
     </g>
    </g>
    <g id="xtick_5">
     <g id="line2d_5">
      <g>
       <use style="stroke:#000000;stroke-width:0.8;" x="226.046312" xlink:href="#m34b1433283" y="172.248967"/>
      </g>
     </g>
     <g id="text_5">
      <!-- 2010-10 -->
      <g transform="translate(188.821491 206.720813)rotate(-30)scale(0.1 -0.1)">
       <use xlink:href="#DejaVuSans-32"/>
       <use x="63.623047" xlink:href="#DejaVuSans-30"/>
       <use x="127.246094" xlink:href="#DejaVuSans-31"/>
       <use x="190.869141" xlink:href="#DejaVuSans-30"/>
       <use x="254.492188" xlink:href="#DejaVuSans-2d"/>
       <use x="290.576172" xlink:href="#DejaVuSans-31"/>
       <use x="354.199219" xlink:href="#DejaVuSans-30"/>
      </g>
     </g>
    </g>
    <g id="xtick_6">
     <g id="line2d_6">
      <g>
       <use style="stroke:#000000;stroke-width:0.8;" x="267.682212" xlink:href="#m34b1433283" y="172.248967"/>
      </g>
     </g>
     <g id="text_6">
      <!-- 2010-12 -->
      <g transform="translate(230.457391 206.720813)rotate(-30)scale(0.1 -0.1)">
       <use xlink:href="#DejaVuSans-32"/>
       <use x="63.623047" xlink:href="#DejaVuSans-30"/>
       <use x="127.246094" xlink:href="#DejaVuSans-31"/>
       <use x="190.869141" xlink:href="#DejaVuSans-30"/>
       <use x="254.492188" xlink:href="#DejaVuSans-2d"/>
       <use x="290.576172" xlink:href="#DejaVuSans-31"/>
       <use x="354.199219" xlink:href="#DejaVuSans-32"/>
      </g>
     </g>
    </g>
    <g id="xtick_7">
     <g id="line2d_7">
      <g>
       <use style="stroke:#000000;stroke-width:0.8;" x="310.000667" xlink:href="#m34b1433283" y="172.248967"/>
      </g>
     </g>
     <g id="text_7">
      <!-- 2011-02 -->
      <g transform="translate(272.775846 206.720813)rotate(-30)scale(0.1 -0.1)">
       <use xlink:href="#DejaVuSans-32"/>
       <use x="63.623047" xlink:href="#DejaVuSans-30"/>
       <use x="127.246094" xlink:href="#DejaVuSans-31"/>
       <use x="190.869141" xlink:href="#DejaVuSans-31"/>
       <use x="254.492188" xlink:href="#DejaVuSans-2d"/>
       <use x="290.576172" xlink:href="#DejaVuSans-30"/>
       <use x="354.199219" xlink:href="#DejaVuSans-32"/>
      </g>
     </g>
    </g>
    <g id="text_8">
     <!-- date -->
     <defs>
      <path d="M 45.40625 46.390625 
L 45.40625 75.984375 
L 54.390625 75.984375 
L 54.390625 0 
L 45.40625 0 
L 45.40625 8.203125 
Q 42.578125 3.328125 38.25 0.953125 
Q 33.9375 -1.421875 27.875 -1.421875 
Q 17.96875 -1.421875 11.734375 6.484375 
Q 5.515625 14.40625 5.515625 27.296875 
Q 5.515625 40.1875 11.734375 48.09375 
Q 17.96875 56 27.875 56 
Q 33.9375 56 38.25 53.625 
Q 42.578125 51.265625 45.40625 46.390625 
z
M 14.796875 27.296875 
Q 14.796875 17.390625 18.875 11.75 
Q 22.953125 6.109375 30.078125 6.109375 
Q 37.203125 6.109375 41.296875 11.75 
Q 45.40625 17.390625 45.40625 27.296875 
Q 45.40625 37.203125 41.296875 42.84375 
Q 37.203125 48.484375 30.078125 48.484375 
Q 22.953125 48.484375 18.875 42.84375 
Q 14.796875 37.203125 14.796875 27.296875 
z
" id="DejaVuSans-64"/>
      <path d="M 34.28125 27.484375 
Q 23.390625 27.484375 19.1875 25 
Q 14.984375 22.515625 14.984375 16.5 
Q 14.984375 11.71875 18.140625 8.90625 
Q 21.296875 6.109375 26.703125 6.109375 
Q 34.1875 6.109375 38.703125 11.40625 
Q 43.21875 16.703125 43.21875 25.484375 
L 43.21875 27.484375 
z
M 52.203125 31.203125 
L 52.203125 0 
L 43.21875 0 
L 43.21875 8.296875 
Q 40.140625 3.328125 35.546875 0.953125 
Q 30.953125 -1.421875 24.3125 -1.421875 
Q 15.921875 -1.421875 10.953125 3.296875 
Q 6 8.015625 6 15.921875 
Q 6 25.140625 12.171875 29.828125 
Q 18.359375 34.515625 30.609375 34.515625 
L 43.21875 34.515625 
L 43.21875 35.40625 
Q 43.21875 41.609375 39.140625 45 
Q 35.0625 48.390625 27.6875 48.390625 
Q 23 48.390625 18.546875 47.265625 
Q 14.109375 46.140625 10.015625 43.890625 
L 10.015625 52.203125 
Q 14.9375 54.109375 19.578125 55.046875 
Q 24.21875 56 28.609375 56 
Q 40.484375 56 46.34375 49.84375 
Q 52.203125 43.703125 52.203125 31.203125 
z
" id="DejaVuSans-61"/>
      <path d="M 18.3125 70.21875 
L 18.3125 54.6875 
L 36.8125 54.6875 
L 36.8125 47.703125 
L 18.3125 47.703125 
L 18.3125 18.015625 
Q 18.3125 11.328125 20.140625 9.421875 
Q 21.96875 7.515625 27.59375 7.515625 
L 36.8125 7.515625 
L 36.8125 0 
L 27.59375 0 
Q 17.1875 0 13.234375 3.875 
Q 9.28125 7.765625 9.28125 18.015625 
L 9.28125 47.703125 
L 2.6875 47.703125 
L 2.6875 54.6875 
L 9.28125 54.6875 
L 9.28125 70.21875 
z
" id="DejaVuSans-74"/>
      <path d="M 56.203125 29.59375 
L 56.203125 25.203125 
L 14.890625 25.203125 
Q 15.484375 15.921875 20.484375 11.0625 
Q 25.484375 6.203125 34.421875 6.203125 
Q 39.59375 6.203125 44.453125 7.46875 
Q 49.3125 8.734375 54.109375 11.28125 
L 54.109375 2.78125 
Q 49.265625 0.734375 44.1875 -0.34375 
Q 39.109375 -1.421875 33.890625 -1.421875 
Q 20.796875 -1.421875 13.15625 6.1875 
Q 5.515625 13.8125 5.515625 26.8125 
Q 5.515625 40.234375 12.765625 48.109375 
Q 20.015625 56 32.328125 56 
Q 43.359375 56 49.78125 48.890625 
Q 56.203125 41.796875 56.203125 29.59375 
z
M 47.21875 32.234375 
Q 47.125 39.59375 43.09375 43.984375 
Q 39.0625 48.390625 32.421875 48.390625 
Q 24.90625 48.390625 20.390625 44.140625 
Q 15.875 39.890625 15.1875 32.171875 
z
" id="DejaVuSans-65"/>
     </defs>
     <g transform="translate(173.817969 220.120313)scale(0.1 -0.1)">
      <use xlink:href="#DejaVuSans-64"/>
      <use x="63.476562" xlink:href="#DejaVuSans-61"/>
      <use x="124.755859" xlink:href="#DejaVuSans-74"/>
      <use x="163.964844" xlink:href="#DejaVuSans-65"/>
     </g>
    </g>
   </g>
   <g id="matplotlib.axis_2">
    <g id="ytick_1">
     <g id="line2d_8">
      <defs>
       <path d="M 0 0 
L -3.5 0 
" id="m27b3d86b81" style="stroke:#000000;stroke-width:0.8;"/>
      </defs>
      <g>
       <use style="stroke:#000000;stroke-width:0.8;" x="48.445313" xlink:href="#m27b3d86b81" y="157.064623"/>
      </g>
     </g>
     <g id="text_9">
      <!-- −0.10 -->
      <defs>
       <path d="M 10.59375 35.5 
L 73.1875 35.5 
L 73.1875 27.203125 
L 10.59375 27.203125 
z
" id="DejaVuSans-2212"/>
       <path d="M 10.6875 12.40625 
L 21 12.40625 
L 21 0 
L 10.6875 0 
z
" id="DejaVuSans-2e"/>
      </defs>
      <g transform="translate(10.8 160.863841)scale(0.1 -0.1)">
       <use xlink:href="#DejaVuSans-2212"/>
       <use x="83.789062" xlink:href="#DejaVuSans-30"/>
       <use x="147.412109" xlink:href="#DejaVuSans-2e"/>
       <use x="179.199219" xlink:href="#DejaVuSans-31"/>
       <use x="242.822266" xlink:href="#DejaVuSans-30"/>
      </g>
     </g>
    </g>
    <g id="ytick_2">
     <g id="line2d_9">
      <g>
       <use style="stroke:#000000;stroke-width:0.8;" x="48.445313" xlink:href="#m27b3d86b81" y="130.221203"/>
      </g>
     </g>
     <g id="text_10">
      <!-- −0.05 -->
      <defs>
       <path d="M 10.796875 72.90625 
L 49.515625 72.90625 
L 49.515625 64.59375 
L 19.828125 64.59375 
L 19.828125 46.734375 
Q 21.96875 47.46875 24.109375 47.828125 
Q 26.265625 48.1875 28.421875 48.1875 
Q 40.625 48.1875 47.75 41.5 
Q 54.890625 34.8125 54.890625 23.390625 
Q 54.890625 11.625 47.5625 5.09375 
Q 40.234375 -1.421875 26.90625 -1.421875 
Q 22.3125 -1.421875 17.546875 -0.640625 
Q 12.796875 0.140625 7.71875 1.703125 
L 7.71875 11.625 
Q 12.109375 9.234375 16.796875 8.0625 
Q 21.484375 6.890625 26.703125 6.890625 
Q 35.15625 6.890625 40.078125 11.328125 
Q 45.015625 15.765625 45.015625 23.390625 
Q 45.015625 31 40.078125 35.4375 
Q 35.15625 39.890625 26.703125 39.890625 
Q 22.75 39.890625 18.8125 39.015625 
Q 14.890625 38.140625 10.796875 36.28125 
z
" id="DejaVuSans-35"/>
      </defs>
      <g transform="translate(10.8 134.020421)scale(0.1 -0.1)">
       <use xlink:href="#DejaVuSans-2212"/>
       <use x="83.789062" xlink:href="#DejaVuSans-30"/>
       <use x="147.412109" xlink:href="#DejaVuSans-2e"/>
       <use x="179.199219" xlink:href="#DejaVuSans-30"/>
       <use x="242.822266" xlink:href="#DejaVuSans-35"/>
      </g>
     </g>
    </g>
    <g id="ytick_3">
     <g id="line2d_10">
      <g>
       <use style="stroke:#000000;stroke-width:0.8;" x="48.445313" xlink:href="#m27b3d86b81" y="103.377783"/>
      </g>
     </g>
     <g id="text_11">
      <!-- 0.00 -->
      <g transform="translate(19.179688 107.177002)scale(0.1 -0.1)">
       <use xlink:href="#DejaVuSans-30"/>
       <use x="63.623047" xlink:href="#DejaVuSans-2e"/>
       <use x="95.410156" xlink:href="#DejaVuSans-30"/>
       <use x="159.033203" xlink:href="#DejaVuSans-30"/>
      </g>
     </g>
    </g>
    <g id="ytick_4">
     <g id="line2d_11">
      <g>
       <use style="stroke:#000000;stroke-width:0.8;" x="48.445313" xlink:href="#m27b3d86b81" y="76.534363"/>
      </g>
     </g>
     <g id="text_12">
      <!-- 0.05 -->
      <g transform="translate(19.179688 80.333582)scale(0.1 -0.1)">
       <use xlink:href="#DejaVuSans-30"/>
       <use x="63.623047" xlink:href="#DejaVuSans-2e"/>
       <use x="95.410156" xlink:href="#DejaVuSans-30"/>
       <use x="159.033203" xlink:href="#DejaVuSans-35"/>
      </g>
     </g>
    </g>
    <g id="ytick_5">
     <g id="line2d_12">
      <g>
       <use style="stroke:#000000;stroke-width:0.8;" x="48.445313" xlink:href="#m27b3d86b81" y="49.690943"/>
      </g>
     </g>
     <g id="text_13">
      <!-- 0.10 -->
      <g transform="translate(19.179688 53.490162)scale(0.1 -0.1)">
       <use xlink:href="#DejaVuSans-30"/>
       <use x="63.623047" xlink:href="#DejaVuSans-2e"/>
       <use x="95.410156" xlink:href="#DejaVuSans-31"/>
       <use x="159.033203" xlink:href="#DejaVuSans-30"/>
      </g>
     </g>
    </g>
   </g>
   <g id="line2d_13">
    <path clip-path="url(#p52594e09f1)" d="M 63.59805 123.418414 
L 66.328273 123.418414 
L 67.010828 130.835927 
L 67.693384 130.835927 
L 68.37594 132.483648 
L 87.4875 132.483648 
L 89.535167 114.148615 
L 90.217723 109.511282 
L 91.582834 102.858791 
L 94.313057 102.858791 
L 94.995613 97.917236 
L 95.678169 97.917236 
L 96.360724 97.031292 
L 97.04328 87.539862 
L 99.773503 87.539862 
L 100.456059 91.041748 
L 101.138615 102.610975 
L 104.551393 102.610975 
L 105.233949 103.577682 
L 105.916505 112.706303 
L 110.694395 112.706303 
L 111.37695 116.71028 
L 114.789729 116.71028 
L 115.472285 144.719073 
L 116.15484 146.628203 
L 118.202508 146.628203 
L 118.885063 156.957619 
L 123.662953 156.957619 
L 125.028065 165.501951 
L 144.139625 165.501951 
L 144.822181 154.653063 
L 146.869848 154.653063 
L 147.552404 154.230101 
L 153.695405 154.230101 
L 154.377961 135.662768 
L 156.425628 133.400855 
L 157.108184 128.561162 
L 159.155851 128.561162 
L 161.203518 129.851563 
L 161.886074 154.695998 
L 162.56863 154.838131 
L 163.251186 154.838131 
L 163.933741 157.741014 
L 183.045302 157.741014 
L 185.092969 152.744543 
L 185.775524 138.254071 
L 186.45808 133.748106 
L 187.140636 120.460822 
L 189.870859 115.274272 
L 191.918526 115.274272 
L 192.601082 107.299453 
L 195.331305 107.299453 
L 196.01386 97.462625 
L 210.347531 97.462625 
L 211.030086 93.432063 
L 211.712642 93.432063 
L 213.760309 86.801829 
L 214.442865 86.801829 
L 215.125421 89.563054 
L 215.807976 97.919861 
L 224.681201 97.919861 
L 225.363757 102.56591 
L 226.046312 102.56591 
L 228.093979 110.384421 
L 245.157873 110.384421 
L 247.20554 107.693485 
L 249.935763 107.693485 
L 251.98343 104.231605 
L 252.665986 100.527412 
L 261.53921 100.527412 
L 262.221766 104.041685 
L 264.269433 104.041685 
L 266.3171 106.57402 
L 266.999656 126.590005 
L 280.65077 126.590005 
L 281.333326 129.793603 
L 282.015882 129.854964 
L 282.698438 131.971077 
L 287.476328 131.971077 
L 288.158883 133.435439 
L 307.270444 133.435439 
L 309.318111 128.984584 
L 309.318111 128.984584 
" style="fill:none;stroke:#1f77b4;stroke-linecap:square;stroke-width:1.5;"/>
   </g>
   <g id="line2d_14">
    <path clip-path="url(#p52594e09f1)" d="M 63.59805 105.787515 
L 72.471274 105.787515 
L 73.15383 91.1364 
L 77.93172 91.1364 
L 79.979387 76.737448 
L 80.661943 75.06997 
L 82.027054 75.06997 
L 82.70961 63.349959 
L 84.757277 60.985061 
L 85.439833 48.539708 
L 89.535167 48.539708 
L 90.217723 43.297028 
L 90.900279 43.297028 
L 91.582834 39.199619 
L 110.694395 39.199619 
L 111.37695 50.224304 
L 113.424618 57.674062 
L 114.107173 61.667164 
L 115.472285 61.667164 
L 116.15484 69.311075 
L 118.202508 76.947336 
L 118.885063 83.545745 
L 119.567619 88.546382 
L 120.932731 88.546382 
L 122.980398 93.296572 
L 123.662953 103.03272 
L 125.028065 103.03272 
L 125.710621 100.527412 
L 143.457069 100.527412 
L 144.139625 94.164532 
L 148.23496 94.164532 
L 148.917515 89.335612 
L 149.600071 79.643188 
L 168.711631 79.643188 
L 170.759299 86.212773 
L 171.441854 86.212773 
L 172.12441 91.558337 
L 176.9023 91.558337 
L 177.584856 85.27201 
L 178.267411 81.412709 
L 180.315079 80.291472 
L 187.823192 80.291472 
L 189.870859 76.316937 
L 194.648749 76.316937 
L 195.331305 75.139067 
L 196.696416 61.130443 
L 197.378972 58.036697 
L 216.490532 58.036697 
L 218.538199 63.6682 
L 219.220755 64.490892 
L 228.776535 64.490892 
L 229.459091 75.127964 
L 230.141647 81.887539 
L 230.824202 81.887539 
L 232.87187 82.580726 
L 234.919537 82.580726 
L 235.602092 80.023701 
L 239.014871 80.023701 
L 239.697427 52.657335 
L 240.379983 37.00583 
L 242.42765 37.00583 
L 243.110205 30.561641 
L 261.53921 30.561641 
L 262.221766 33.414763 
L 266.999656 33.414763 
L 267.682212 36.986629 
L 269.047323 36.986629 
L 271.09499 45.075497 
L 271.777546 56.643507 
L 272.460102 56.643507 
L 273.142657 65.293974 
L 273.825213 82.647714 
L 275.87288 86.609689 
L 282.015882 86.609689 
L 282.698438 89.102142 
L 285.42866 92.904042 
L 295.666996 92.904042 
L 296.349552 97.794972 
L 297.032108 97.794972 
L 297.714663 91.156404 
L 300.444886 85.420698 
L 301.127442 85.420698 
L 301.809998 60.706597 
L 309.318111 60.706597 
L 309.318111 60.706597 
" style="fill:none;stroke:#ff7f0e;stroke-linecap:square;stroke-width:1.5;"/>
   </g>
   <g id="line2d_15">
    <path clip-path="url(#p52594e09f1)" d="M 63.59805 112.872738 
L 65.645717 114.168066 
L 66.328273 115.328482 
L 67.010828 117.266913 
L 67.693384 118.122881 
L 68.37594 119.558958 
L 71.106163 119.067109 
L 72.471274 117.351369 
L 73.15383 115.478871 
L 75.201497 114.061485 
L 75.884053 113.361317 
L 76.566608 112.145078 
L 77.93172 110.600782 
L 79.979387 108.907615 
L 80.661943 107.224792 
L 82.027054 104.894033 
L 82.70961 101.890611 
L 84.757277 99.114318 
L 87.4875 84.703298 
L 89.535167 80.569693 
L 91.582834 70.416255 
L 92.26539 68.37065 
L 94.313057 66.543449 
L 94.995613 64.560185 
L 95.678169 63.428899 
L 96.360724 61.616395 
L 97.04328 60.230384 
L 99.090947 60.240879 
L 99.773503 60.664667 
L 100.456059 60.839762 
L 101.138615 61.892666 
L 103.868837 63.152487 
L 104.551393 64.768063 
L 106.59906 73.220851 
L 108.646727 76.203037 
L 110.694395 85.249686 
L 111.37695 89.125219 
L 113.424618 92.41552 
L 114.789729 97.815062 
L 116.15484 105.796091 
L 118.202508 109.509943 
L 118.885063 113.510457 
L 119.567619 116.792472 
L 120.932731 121.576127 
L 122.980398 124.244995 
L 124.345509 130.245843 
L 125.028065 132.885625 
L 125.710621 132.313736 
L 127.758288 134.497781 
L 129.123399 138.301829 
L 129.805955 139.712136 
L 130.488511 140.781502 
L 132.536178 141.360668 
L 133.218734 142.224045 
L 133.901289 143.387067 
L 134.583845 143.862618 
L 135.266401 143.314347 
L 137.314068 142.804984 
L 137.996624 141.209851 
L 138.679179 140.109825 
L 140.044291 137.223017 
L 142.774514 136.554887 
L 143.457069 134.701831 
L 144.822181 128.021498 
L 146.869848 128.505766 
L 149.600071 118.5057 
L 151.647738 116.154145 
L 153.695405 109.978157 
L 154.377961 106.994232 
L 156.425628 105.343759 
L 157.108184 104.219918 
L 157.79074 103.781541 
L 158.473295 103.823442 
L 159.155851 104.503666 
L 161.203518 104.962036 
L 161.886074 106.268777 
L 162.56863 108.068881 
L 163.933741 113.863698 
L 166.663964 115.990287 
L 168.711631 120.725937 
L 170.759299 122.702058 
L 172.12441 123.219563 
L 172.806966 123.183304 
L 173.489521 124.230567 
L 175.537189 124.719577 
L 176.219744 124.187455 
L 176.9023 124.006226 
L 177.584856 122.455455 
L 178.267411 120.124914 
L 180.315079 117.913989 
L 180.997634 115.599504 
L 182.362746 109.13001 
L 183.045302 106.205582 
L 185.092969 102.344607 
L 185.775524 99.51922 
L 187.140636 95.488708 
L 187.823192 93.876019 
L 190.553415 90.904085 
L 191.23597 91.1993 
L 191.918526 91.04272 
L 192.601082 89.95061 
L 194.648749 88.782903 
L 195.331305 87.939313 
L 196.01386 85.992757 
L 197.378972 83.616879 
L 200.109195 82.439237 
L 200.79175 81.76391 
L 201.474306 81.318713 
L 202.156862 80.551347 
L 204.204529 80.561017 
L 204.887085 79.807165 
L 206.252196 76.880234 
L 206.934752 75.962963 
L 209.664975 76.487208 
L 210.347531 75.7377 
L 211.030086 74.620967 
L 211.712642 74.327918 
L 213.760309 73.750692 
L 214.442865 73.994124 
L 215.125421 74.715323 
L 216.490532 77.716297 
L 218.538199 78.95995 
L 219.903311 80.76671 
L 220.585866 82.031082 
L 221.268422 82.152093 
L 223.316089 82.759991 
L 224.681201 83.542938 
L 226.046312 87.110537 
L 228.776535 89.786759 
L 229.459091 91.70739 
L 230.141647 92.775297 
L 230.824202 93.630151 
L 232.87187 94.920449 
L 233.554425 95.839712 
L 234.236981 96.127985 
L 235.602092 95.028099 
L 237.64976 94.901829 
L 238.332315 95.056791 
L 239.014871 94.577292 
L 240.379983 89.788377 
L 242.42765 87.527982 
L 243.110205 84.600394 
L 243.792761 85.205752 
L 245.157873 85.048229 
L 247.20554 81.633923 
L 248.570651 75.133777 
L 249.253207 72.546293 
L 249.935763 69.379735 
L 251.98343 66.248835 
L 253.348541 62.007805 
L 254.031097 60.897662 
L 256.76132 61.437163 
L 258.126431 62.6319 
L 258.808987 64.531104 
L 259.491543 67.575082 
L 261.53921 70.070689 
L 262.221766 73.744692 
L 262.904321 73.048806 
L 264.269433 72.477542 
L 266.3171 72.779872 
L 268.364767 85.120997 
L 269.047323 88.708021 
L 271.09499 92.731554 
L 271.777546 95.836052 
L 273.142657 100.284959 
L 273.825213 101.682111 
L 277.237992 103.095516 
L 277.920547 103.207783 
L 278.603103 104.194372 
L 280.65077 105.009996 
L 281.333326 106.796129 
L 282.015882 108.086793 
L 282.698438 110.354862 
L 285.42866 112.380153 
L 286.111216 113.408672 
L 286.793772 113.39132 
L 287.476328 113.688839 
L 288.158883 114.791095 
L 290.889106 114.877535 
L 291.571662 115.177696 
L 292.254218 115.853494 
L 292.936773 117.317089 
L 294.984441 118.445804 
L 295.666996 118.993377 
L 296.349552 119.393495 
L 297.032108 119.294449 
L 300.444886 117.714896 
L 301.127442 116.599146 
L 301.809998 113.144796 
L 302.492554 110.517677 
L 304.540221 107.414449 
L 306.587888 98.199459 
L 307.270444 95.926323 
L 309.318111 93.538978 
L 309.318111 93.538978 
" style="fill:none;stroke:#2ca02c;stroke-linecap:square;stroke-width:1.5;"/>
   </g>
   <g id="line2d_16">
    <path clip-path="url(#p52594e09f1)" d="M 63.59805 96.296891 
L 66.328273 96.219476 
L 67.010828 94.776546 
L 67.693384 94.932207 
L 68.37594 94.211235 
L 71.788718 94.50215 
L 72.471274 94.256299 
L 73.15383 92.157764 
L 75.201497 91.252128 
L 75.884053 91.33315 
L 76.566608 90.683173 
L 77.93172 90.545541 
L 79.979387 88.771755 
L 80.661943 86.927378 
L 81.344498 86.368674 
L 82.027054 85.503569 
L 82.70961 83.813302 
L 84.757277 82.129917 
L 85.439833 79.968112 
L 86.122389 78.910314 
L 86.804944 79.658696 
L 87.4875 79.922464 
L 89.535167 81.558398 
L 90.217723 81.545484 
L 90.900279 81.79207 
L 92.26539 82.030548 
L 94.313057 82.809619 
L 94.995613 84.66712 
L 95.678169 85.807899 
L 97.04328 90.040373 
L 99.090947 90.026626 
L 99.773503 89.410834 
L 100.456059 89.03918 
L 101.138615 86.834468 
L 103.868837 85.791159 
L 104.551393 84.559729 
L 105.233949 83.090851 
L 106.59906 79.468484 
L 109.329283 78.283111 
L 110.011839 79.253759 
L 110.694395 80.514996 
L 111.37695 82.226451 
L 113.424618 83.517376 
L 114.789729 85.874919 
L 115.472285 84.222505 
L 116.15484 84.111796 
L 118.202508 84.357554 
L 118.885063 83.188561 
L 119.567619 82.981807 
L 120.250175 83.239215 
L 120.932731 82.652535 
L 122.980398 83.720473 
L 123.662953 83.924869 
L 124.345509 83.392272 
L 125.028065 82.370289 
L 125.710621 81.628216 
L 127.758288 81.691004 
L 128.440844 82.189273 
L 129.805955 85.307214 
L 130.488511 86.125759 
L 132.536178 86.819947 
L 133.218734 87.926852 
L 133.901289 89.249868 
L 135.266401 88.94607 
L 137.996624 88.662765 
L 138.679179 88.469354 
L 139.361735 87.10806 
L 140.044291 86.803454 
L 142.774514 86.733735 
L 143.457069 86.938712 
L 144.139625 85.810914 
L 144.822181 86.302447 
L 146.869848 87.000149 
L 147.552404 87.466341 
L 148.23496 87.612846 
L 148.917515 86.415357 
L 149.600071 84.292038 
L 151.647738 83.938921 
L 152.330294 83.039871 
L 153.01285 82.922388 
L 153.695405 83.534363 
L 154.377961 86.235756 
L 156.425628 87.60704 
L 157.108184 88.969655 
L 157.79074 89.513837 
L 158.473295 89.43832 
L 159.155851 88.759146 
L 161.203518 88.096402 
L 162.56863 82.282104 
L 163.933741 78.438358 
L 167.34652 76.659183 
L 168.029076 76.671011 
L 168.711631 77.61067 
L 170.759299 79.479446 
L 172.12441 80.215893 
L 172.806966 80.165481 
L 173.489521 81.081387 
L 175.537189 81.667014 
L 176.219744 80.978218 
L 176.9023 80.850958 
L 178.267411 77.647159 
L 180.315079 76.185537 
L 180.997634 75.299534 
L 181.68019 76.119583 
L 183.045302 79.573853 
L 185.092969 82.262134 
L 185.775524 85.892394 
L 187.140636 91.142479 
L 187.823192 92.564167 
L 189.870859 93.64799 
L 190.553415 93.335089 
L 191.918526 93.220941 
L 192.601082 94.933681 
L 194.648749 95.42669 
L 195.331305 94.909018 
L 196.01386 95.121667 
L 197.378972 91.76928 
L 199.426639 90.952291 
L 200.109195 90.878677 
L 200.79175 90.689554 
L 202.156862 91.27365 
L 204.204529 91.273598 
L 204.887085 91.845273 
L 205.569641 91.922852 
L 206.252196 92.59005 
L 206.934752 92.826492 
L 209.664975 92.5511 
L 210.347531 92.254461 
L 211.030086 93.498792 
L 211.712642 93.870389 
L 213.760309 94.784836 
L 214.442865 94.504921 
L 215.125421 93.845279 
L 215.807976 92.663784 
L 216.490532 92.752484 
L 218.538199 93.770235 
L 219.220755 94.447695 
L 220.585866 93.514986 
L 221.268422 93.452488 
L 225.363757 93.418619 
L 226.046312 93.674552 
L 228.776535 92.988462 
L 229.459091 94.465302 
L 230.141647 95.317601 
L 230.824202 95.479256 
L 233.554425 95.432589 
L 234.236981 95.568885 
L 234.919537 95.350026 
L 235.602092 94.658414 
L 237.64976 94.457709 
L 238.332315 94.658356 
L 239.014871 94.331236 
L 239.697427 90.389272 
L 240.379983 85.431257 
L 242.42765 82.731424 
L 243.110205 79.130802 
L 243.792761 78.880571 
L 245.157873 78.990851 
L 247.20554 77.966067 
L 247.888095 76.19039 
L 248.570651 75.505954 
L 249.935763 74.920237 
L 251.98343 75.930697 
L 252.665986 77.391084 
L 253.348541 78.43132 
L 254.031097 79.141388 
L 256.76132 78.618911 
L 258.126431 77.188734 
L 258.808987 76.579943 
L 259.491543 76.413955 
L 261.53921 76.385523 
L 262.904321 77.621162 
L 264.269433 78.141243 
L 266.3171 77.754272 
L 266.999656 76.163283 
L 267.682212 76.291067 
L 269.047323 78.367764 
L 271.09499 80.768794 
L 271.777546 83.567312 
L 272.460102 85.61668 
L 273.142657 88.541524 
L 273.825213 90.878434 
L 276.555436 91.940985 
L 277.920547 92.057073 
L 278.603103 92.353949 
L 280.65077 92.242407 
L 282.015882 90.243855 
L 282.698438 90.231218 
L 285.42866 90.561718 
L 286.111216 90.231053 
L 286.793772 90.24915 
L 287.476328 89.940763 
L 288.158883 89.252661 
L 291.571662 89.337168 
L 292.936773 89.832105 
L 294.984441 91.059289 
L 295.666996 91.643079 
L 296.349552 92.472338 
L 297.032108 92.315294 
L 297.714663 91.562286 
L 300.444886 89.474623 
L 301.127442 88.329292 
L 301.809998 84.164414 
L 302.492554 83.011919 
L 304.540221 81.762709 
L 305.222776 80.442585 
L 305.905332 79.499097 
L 306.587888 79.267829 
L 307.270444 80.26094 
L 309.318111 81.933522 
L 309.318111 81.933522 
" style="fill:none;stroke:#d62728;stroke-linecap:square;stroke-width:1.5;"/>
   </g>
   <g id="line2d_17">
    <path clip-path="url(#p52594e09f1)" d="M 60.867827 108.726429 
L 61.550382 109.920413 
L 62.232938 105.787515 
L 62.915494 123.418414 
L 63.59805 116.510916 
L 65.645717 120.644711 
L 66.328273 122.290978 
L 67.010828 130.835927 
L 67.693384 124.970629 
L 68.37594 132.483648 
L 71.788718 109.511282 
L 72.471274 106.318319 
L 73.15383 91.1364 
L 75.201497 94.218082 
L 75.884053 102.858791 
L 76.566608 92.685263 
L 77.249164 97.917236 
L 77.93172 97.031292 
L 79.979387 76.737448 
L 80.661943 75.06997 
L 81.344498 87.539862 
L 82.027054 81.552884 
L 82.70961 63.349959 
L 84.757277 60.985061 
L 85.439833 48.539708 
L 86.122389 51.583068 
L 86.804944 59.070623 
L 87.4875 51.328448 
L 89.535167 49.811555 
L 90.217723 43.297028 
L 90.900279 44.412803 
L 91.582834 39.199619 
L 92.26539 50.224304 
L 94.313057 57.674062 
L 94.995613 63.193515 
L 95.678169 70.059526 
L 96.360724 61.667164 
L 97.04328 69.311075 
L 99.090947 76.947336 
L 100.456059 91.041748 
L 101.138615 102.610975 
L 103.868837 88.546382 
L 104.551393 93.296572 
L 105.916505 112.706303 
L 106.59906 111.965187 
L 108.646727 110.972167 
L 109.329283 111.134247 
L 110.011839 103.03272 
L 110.694395 104.287395 
L 111.37695 116.71028 
L 113.424618 116.030311 
L 114.107173 113.665857 
L 114.789729 115.192568 
L 115.472285 144.719073 
L 116.15484 146.628203 
L 118.202508 143.588105 
L 118.885063 156.957619 
L 120.250175 141.083736 
L 120.932731 148.24207 
L 122.980398 141.923759 
L 123.662953 155.897181 
L 125.028065 165.501951 
L 125.710621 100.527412 
L 127.758288 154.653063 
L 128.440844 149.052471 
L 129.805955 132.493535 
L 130.488511 138.097606 
L 132.536178 127.613636 
L 133.218734 130.933396 
L 133.901289 138.453004 
L 134.583845 154.230101 
L 135.266401 135.662768 
L 137.314068 133.400855 
L 137.996624 125.054954 
L 138.679179 127.185535 
L 139.361735 110.905465 
L 140.044291 120.684176 
L 142.774514 128.561162 
L 143.457069 118.836066 
L 144.139625 94.164532 
L 144.822181 98.724787 
L 146.869848 110.212757 
L 147.552404 105.764136 
L 148.23496 102.650267 
L 148.917515 89.335612 
L 149.600071 79.643188 
L 151.647738 91.066505 
L 152.330294 86.212773 
L 153.01285 92.938481 
L 153.695405 94.329012 
L 154.377961 94.551603 
L 156.425628 102.653318 
L 157.108184 110.924032 
L 157.79074 116.287421 
L 158.473295 128.023541 
L 159.155851 124.509955 
L 161.203518 129.851563 
L 161.886074 154.695998 
L 162.56863 154.838131 
L 163.251186 151.044657 
L 163.933741 157.741014 
L 166.663964 152.744543 
L 167.34652 138.254071 
L 168.029076 133.748106 
L 168.711631 120.460822 
L 170.759299 119.165615 
L 171.441854 96.071045 
L 172.12441 91.558337 
L 172.806966 92.213288 
L 173.489521 115.274272 
L 175.537189 104.331814 
L 176.219744 92.010867 
L 176.9023 107.299453 
L 177.584856 85.27201 
L 178.267411 81.412709 
L 180.315079 80.291472 
L 180.997634 83.561856 
L 181.68019 85.50438 
L 182.362746 94.639878 
L 183.045302 92.556081 
L 185.092969 80.521517 
L 185.775524 96.236812 
L 186.45808 94.474453 
L 187.140636 96.917481 
L 187.823192 88.207041 
L 189.870859 76.316937 
L 190.553415 79.48105 
L 191.23597 97.462625 
L 191.918526 89.081694 
L 192.601082 93.432063 
L 194.648749 80.97768 
L 196.01386 68.368346 
L 196.696416 61.130443 
L 197.378972 58.036697 
L 199.426639 63.6682 
L 200.109195 76.632296 
L 200.79175 71.997833 
L 201.474306 85.735947 
L 202.156862 77.208754 
L 204.204529 80.714929 
L 204.887085 81.159769 
L 205.569641 64.797795 
L 206.252196 68.055514 
L 206.934752 69.861629 
L 209.664975 86.801829 
L 210.347531 64.490892 
L 211.030086 75.127964 
L 211.712642 83.220707 
L 213.760309 81.887539 
L 215.125421 89.563054 
L 215.807976 97.919861 
L 216.490532 91.598393 
L 218.538199 82.909764 
L 219.220755 82.580726 
L 219.903311 93.854963 
L 220.585866 97.285288 
L 221.268422 88.156161 
L 223.316089 89.36672 
L 223.998645 89.113392 
L 224.681201 88.420247 
L 225.363757 102.56591 
L 226.046312 101.639375 
L 228.093979 110.384421 
L 228.776535 99.80347 
L 229.459091 102.903522 
L 230.141647 96.486092 
L 230.824202 100.317799 
L 232.87187 107.693485 
L 233.554425 104.231605 
L 234.919537 87.49683 
L 235.602092 80.023701 
L 237.64976 80.384361 
L 238.332315 85.679959 
L 239.014871 84.264984 
L 239.697427 52.657335 
L 240.379983 37.00583 
L 242.42765 44.158804 
L 243.110205 30.561641 
L 243.792761 100.527412 
L 245.157873 100.527412 
L 247.20554 42.098295 
L 247.888095 33.414763 
L 249.253207 44.736421 
L 249.935763 36.986629 
L 251.98343 45.075497 
L 252.665986 58.095996 
L 253.348541 56.643507 
L 254.031097 65.293974 
L 254.713653 82.647714 
L 256.76132 88.550368 
L 257.443876 98.290047 
L 258.126431 95.549642 
L 258.808987 90.641407 
L 259.491543 97.885402 
L 261.53921 94.070944 
L 262.221766 104.041685 
L 262.904321 86.609689 
L 264.269433 89.102142 
L 266.3171 106.57402 
L 266.999656 126.590005 
L 267.682212 123.64451 
L 268.364767 111.39033 
L 269.047323 116.476906 
L 271.09499 117.457286 
L 271.777546 107.165464 
L 272.460102 104.004968 
L 273.142657 99.712676 
L 273.825213 93.237024 
L 275.87288 101.062912 
L 276.555436 92.904042 
L 277.237992 103.789271 
L 277.920547 97.794972 
L 278.603103 110.373199 
L 280.65077 114.197879 
L 281.333326 129.793603 
L 282.015882 129.854964 
L 282.698438 131.971077 
L 285.42866 129.607955 
L 286.111216 127.144405 
L 286.793772 126.242955 
L 288.158883 133.435439 
L 290.20655 116.29107 
L 290.889106 119.371929 
L 291.571662 113.168683 
L 292.254218 117.520916 
L 292.936773 128.984584 
L 295.666996 112.014363 
L 296.349552 100.906396 
L 297.032108 101.80836 
L 297.714663 91.156404 
L 300.444886 85.420698 
L 301.127442 91.882886 
L 301.809998 60.706597 
L 302.492554 77.312589 
L 304.540221 69.906521 
L 305.222776 64.749363 
L 305.905332 64.646165 
L 306.587888 69.299991 
L 307.270444 84.132177 
L 309.318111 85.688544 
L 309.318111 85.688544 
" style="fill:none;opacity:0.2;stroke:#000000;stroke-linecap:square;stroke-width:3;"/>
   </g>
   <g id="patch_3">
    <path d="M 48.445313 172.248967 
L 48.445313 23.814625 
" style="fill:none;stroke:#000000;stroke-linecap:square;stroke-linejoin:miter;stroke-width:0.8;"/>
   </g>
   <g id="patch_4">
    <path d="M 321.740625 172.248967 
L 321.740625 23.814625 
" style="fill:none;stroke:#000000;stroke-linecap:square;stroke-linejoin:miter;stroke-width:0.8;"/>
   </g>
   <g id="patch_5">
    <path d="M 48.445313 172.248967 
L 321.740625 172.248967 
" style="fill:none;stroke:#000000;stroke-linecap:square;stroke-linejoin:miter;stroke-width:0.8;"/>
   </g>
   <g id="patch_6">
    <path d="M 48.445313 23.814625 
L 321.740625 23.814625 
" style="fill:none;stroke:#000000;stroke-linecap:square;stroke-linejoin:miter;stroke-width:0.8;"/>
   </g>
   <g id="legend_1">
    <g id="patch_7">
     <path d="M 326.473578 83.188362 
L 386.832953 83.188362 
Q 388.832953 83.188362 388.832953 81.188362 
L 388.832953 8.797737 
Q 388.832953 6.797737 386.832953 6.797737 
L 326.473578 6.797737 
Q 324.473578 6.797737 324.473578 8.797737 
L 324.473578 81.188362 
Q 324.473578 83.188362 326.473578 83.188362 
z
" style="fill:#ffffff;opacity:0.8;stroke:#cccccc;stroke-linejoin:miter;"/>
    </g>
    <g id="line2d_18">
     <path d="M 328.473578 14.896174 
L 348.473578 14.896174 
" style="fill:none;stroke:#1f77b4;stroke-linecap:square;stroke-width:1.5;"/>
    </g>
    <g id="line2d_19"/>
    <g id="text_14">
     <!-- amin -->
     <defs>
      <path d="M 52 44.1875 
Q 55.375 50.25 60.0625 53.125 
Q 64.75 56 71.09375 56 
Q 79.640625 56 84.28125 50.015625 
Q 88.921875 44.046875 88.921875 33.015625 
L 88.921875 0 
L 79.890625 0 
L 79.890625 32.71875 
Q 79.890625 40.578125 77.09375 44.375 
Q 74.3125 48.1875 68.609375 48.1875 
Q 61.625 48.1875 57.5625 43.546875 
Q 53.515625 38.921875 53.515625 30.90625 
L 53.515625 0 
L 44.484375 0 
L 44.484375 32.71875 
Q 44.484375 40.625 41.703125 44.40625 
Q 38.921875 48.1875 33.109375 48.1875 
Q 26.21875 48.1875 22.15625 43.53125 
Q 18.109375 38.875 18.109375 30.90625 
L 18.109375 0 
L 9.078125 0 
L 9.078125 54.6875 
L 18.109375 54.6875 
L 18.109375 46.1875 
Q 21.1875 51.21875 25.484375 53.609375 
Q 29.78125 56 35.6875 56 
Q 41.65625 56 45.828125 52.96875 
Q 50 49.953125 52 44.1875 
z
" id="DejaVuSans-6d"/>
      <path d="M 9.421875 54.6875 
L 18.40625 54.6875 
L 18.40625 0 
L 9.421875 0 
z
M 9.421875 75.984375 
L 18.40625 75.984375 
L 18.40625 64.59375 
L 9.421875 64.59375 
z
" id="DejaVuSans-69"/>
      <path d="M 54.890625 33.015625 
L 54.890625 0 
L 45.90625 0 
L 45.90625 32.71875 
Q 45.90625 40.484375 42.875 44.328125 
Q 39.84375 48.1875 33.796875 48.1875 
Q 26.515625 48.1875 22.3125 43.546875 
Q 18.109375 38.921875 18.109375 30.90625 
L 18.109375 0 
L 9.078125 0 
L 9.078125 54.6875 
L 18.109375 54.6875 
L 18.109375 46.1875 
Q 21.34375 51.125 25.703125 53.5625 
Q 30.078125 56 35.796875 56 
Q 45.21875 56 50.046875 50.171875 
Q 54.890625 44.34375 54.890625 33.015625 
z
" id="DejaVuSans-6e"/>
     </defs>
     <g transform="translate(356.473578 18.396174)scale(0.1 -0.1)">
      <use xlink:href="#DejaVuSans-61"/>
      <use x="61.279297" xlink:href="#DejaVuSans-6d"/>
      <use x="158.691406" xlink:href="#DejaVuSans-69"/>
      <use x="186.474609" xlink:href="#DejaVuSans-6e"/>
     </g>
    </g>
    <g id="line2d_20">
     <path d="M 328.473578 29.574299 
L 348.473578 29.574299 
" style="fill:none;stroke:#ff7f0e;stroke-linecap:square;stroke-width:1.5;"/>
    </g>
    <g id="line2d_21"/>
    <g id="text_15">
     <!-- amax -->
     <defs>
      <path d="M 54.890625 54.6875 
L 35.109375 28.078125 
L 55.90625 0 
L 45.3125 0 
L 29.390625 21.484375 
L 13.484375 0 
L 2.875 0 
L 24.125 28.609375 
L 4.6875 54.6875 
L 15.28125 54.6875 
L 29.78125 35.203125 
L 44.28125 54.6875 
z
" id="DejaVuSans-78"/>
     </defs>
     <g transform="translate(356.473578 33.074299)scale(0.1 -0.1)">
      <use xlink:href="#DejaVuSans-61"/>
      <use x="61.279297" xlink:href="#DejaVuSans-6d"/>
      <use x="158.691406" xlink:href="#DejaVuSans-61"/>
      <use x="219.970703" xlink:href="#DejaVuSans-78"/>
     </g>
    </g>
    <g id="line2d_22">
     <path d="M 328.473578 44.252424 
L 348.473578 44.252424 
" style="fill:none;stroke:#2ca02c;stroke-linecap:square;stroke-width:1.5;"/>
    </g>
    <g id="line2d_23"/>
    <g id="text_16">
     <!-- mean -->
     <g transform="translate(356.473578 47.752424)scale(0.1 -0.1)">
      <use xlink:href="#DejaVuSans-6d"/>
      <use x="97.412109" xlink:href="#DejaVuSans-65"/>
      <use x="158.935547" xlink:href="#DejaVuSans-61"/>
      <use x="220.214844" xlink:href="#DejaVuSans-6e"/>
     </g>
    </g>
    <g id="line2d_24">
     <path d="M 328.473578 58.930549 
L 348.473578 58.930549 
" style="fill:none;stroke:#d62728;stroke-linecap:square;stroke-width:1.5;"/>
    </g>
    <g id="line2d_25"/>
    <g id="text_17">
     <!-- std -->
     <defs>
      <path d="M 44.28125 53.078125 
L 44.28125 44.578125 
Q 40.484375 46.53125 36.375 47.5 
Q 32.28125 48.484375 27.875 48.484375 
Q 21.1875 48.484375 17.84375 46.4375 
Q 14.5 44.390625 14.5 40.28125 
Q 14.5 37.15625 16.890625 35.375 
Q 19.28125 33.59375 26.515625 31.984375 
L 29.59375 31.296875 
Q 39.15625 29.25 43.1875 25.515625 
Q 47.21875 21.78125 47.21875 15.09375 
Q 47.21875 7.46875 41.1875 3.015625 
Q 35.15625 -1.421875 24.609375 -1.421875 
Q 20.21875 -1.421875 15.453125 -0.5625 
Q 10.6875 0.296875 5.421875 2 
L 5.421875 11.28125 
Q 10.40625 8.6875 15.234375 7.390625 
Q 20.0625 6.109375 24.8125 6.109375 
Q 31.15625 6.109375 34.5625 8.28125 
Q 37.984375 10.453125 37.984375 14.40625 
Q 37.984375 18.0625 35.515625 20.015625 
Q 33.0625 21.96875 24.703125 23.78125 
L 21.578125 24.515625 
Q 13.234375 26.265625 9.515625 29.90625 
Q 5.8125 33.546875 5.8125 39.890625 
Q 5.8125 47.609375 11.28125 51.796875 
Q 16.75 56 26.8125 56 
Q 31.78125 56 36.171875 55.265625 
Q 40.578125 54.546875 44.28125 53.078125 
z
" id="DejaVuSans-73"/>
     </defs>
     <g transform="translate(356.473578 62.430549)scale(0.1 -0.1)">
      <use xlink:href="#DejaVuSans-73"/>
      <use x="52.099609" xlink:href="#DejaVuSans-74"/>
      <use x="91.308594" xlink:href="#DejaVuSans-64"/>
     </g>
    </g>
    <g id="line2d_26">
     <path d="M 328.473578 73.608674 
L 348.473578 73.608674 
" style="fill:none;opacity:0.2;stroke:#000000;stroke-linecap:square;stroke-width:3;"/>
    </g>
    <g id="line2d_27"/>
    <g id="text_18">
     <!-- EBAY -->
     <defs>
      <path d="M 9.8125 72.90625 
L 55.90625 72.90625 
L 55.90625 64.59375 
L 19.671875 64.59375 
L 19.671875 43.015625 
L 54.390625 43.015625 
L 54.390625 34.71875 
L 19.671875 34.71875 
L 19.671875 8.296875 
L 56.78125 8.296875 
L 56.78125 0 
L 9.8125 0 
z
" id="DejaVuSans-45"/>
      <path d="M 19.671875 34.8125 
L 19.671875 8.109375 
L 35.5 8.109375 
Q 43.453125 8.109375 47.28125 11.40625 
Q 51.125 14.703125 51.125 21.484375 
Q 51.125 28.328125 47.28125 31.5625 
Q 43.453125 34.8125 35.5 34.8125 
z
M 19.671875 64.796875 
L 19.671875 42.828125 
L 34.28125 42.828125 
Q 41.5 42.828125 45.03125 45.53125 
Q 48.578125 48.25 48.578125 53.8125 
Q 48.578125 59.328125 45.03125 62.0625 
Q 41.5 64.796875 34.28125 64.796875 
z
M 9.8125 72.90625 
L 35.015625 72.90625 
Q 46.296875 72.90625 52.390625 68.21875 
Q 58.5 63.53125 58.5 54.890625 
Q 58.5 48.1875 55.375 44.234375 
Q 52.25 40.28125 46.1875 39.3125 
Q 53.46875 37.75 57.5 32.78125 
Q 61.53125 27.828125 61.53125 20.40625 
Q 61.53125 10.640625 54.890625 5.3125 
Q 48.25 0 35.984375 0 
L 9.8125 0 
z
" id="DejaVuSans-42"/>
      <path d="M 34.1875 63.1875 
L 20.796875 26.90625 
L 47.609375 26.90625 
z
M 28.609375 72.90625 
L 39.796875 72.90625 
L 67.578125 0 
L 57.328125 0 
L 50.6875 18.703125 
L 17.828125 18.703125 
L 11.1875 0 
L 0.78125 0 
z
" id="DejaVuSans-41"/>
      <path d="M -0.203125 72.90625 
L 10.40625 72.90625 
L 30.609375 42.921875 
L 50.6875 72.90625 
L 61.28125 72.90625 
L 35.5 34.71875 
L 35.5 0 
L 25.59375 0 
L 25.59375 34.71875 
z
" id="DejaVuSans-59"/>
     </defs>
     <g transform="translate(356.473578 77.108674)scale(0.1 -0.1)">
      <use xlink:href="#DejaVuSans-45"/>
      <use x="63.183594" xlink:href="#DejaVuSans-42"/>
      <use x="131.787109" xlink:href="#DejaVuSans-41"/>
      <use x="200.085938" xlink:href="#DejaVuSans-59"/>
     </g>
    </g>
   </g>
  </g>
 </g>
 <defs>
  <clipPath id="p52594e09f1">
   <rect height="148.434342" width="273.295312" x="48.445313" y="23.814625"/>
  </clipPath>
 </defs>
</svg>
