<?xml version="1.0" encoding="utf-8" standalone="no"?>
<!DOCTYPE svg PUBLIC "-//W3C//DTD SVG 1.1//EN"
  "http://www.w3.org/Graphics/SVG/1.1/DTD/svg11.dtd">
<!-- Created with matplotlib (http://matplotlib.org/) -->
<svg height="233pt" version="1.1" viewBox="0 0 400 233" width="400pt" xmlns="http://www.w3.org/2000/svg" xmlns:xlink="http://www.w3.org/1999/xlink">
 <defs>
  <style type="text/css">
*{stroke-linecap:butt;stroke-linejoin:round;}
  </style>
 </defs>
 <g id="figure_1">
  <g id="patch_1">
   <path d="M 0 233 
L 400 233 
L 400 0 
L 0 0 
z
" style="fill:#ffffff;"/>
  </g>
  <g id="axes_1">
   <g id="patch_2">
    <path d="M 37.840625 205.521875 
L 385.7 205.521875 
L 385.7 25.918125 
L 37.840625 25.918125 
z
" style="fill:#ffffff;"/>
   </g>
   <g id="matplotlib.axis_1">
    <g id="xtick_1">
     <g id="line2d_1">
      <defs>
       <path d="M 0 0 
L 0 3.5 
" id="maab97d729e" style="stroke:#000000;stroke-width:0.8;"/>
      </defs>
      <g>
       <use style="stroke:#000000;stroke-width:0.8;" x="53.652415" xlink:href="#maab97d729e" y="205.521875"/>
      </g>
     </g>
     <g id="text_1">
      <!-- 0 -->
      <defs>
       <path d="M 31.78125 66.40625 
Q 24.171875 66.40625 20.328125 58.90625 
Q 16.5 51.421875 16.5 36.375 
Q 16.5 21.390625 20.328125 13.890625 
Q 24.171875 6.390625 31.78125 6.390625 
Q 39.453125 6.390625 43.28125 13.890625 
Q 47.125 21.390625 47.125 36.375 
Q 47.125 51.421875 43.28125 58.90625 
Q 39.453125 66.40625 31.78125 66.40625 
z
M 31.78125 74.21875 
Q 44.046875 74.21875 50.515625 64.515625 
Q 56.984375 54.828125 56.984375 36.375 
Q 56.984375 17.96875 50.515625 8.265625 
Q 44.046875 -1.421875 31.78125 -1.421875 
Q 19.53125 -1.421875 13.0625 8.265625 
Q 6.59375 17.96875 6.59375 36.375 
Q 6.59375 54.828125 13.0625 64.515625 
Q 19.53125 74.21875 31.78125 74.21875 
z
" id="DejaVuSans-30"/>
      </defs>
      <g transform="translate(50.471165 220.120313)scale(0.1 -0.1)">
       <use xlink:href="#DejaVuSans-30"/>
      </g>
     </g>
    </g>
    <g id="xtick_2">
     <g id="line2d_2">
      <g>
       <use style="stroke:#000000;stroke-width:0.8;" x="97.211064" xlink:href="#maab97d729e" y="205.521875"/>
      </g>
     </g>
     <g id="text_2">
      <!-- 50 -->
      <defs>
       <path d="M 10.796875 72.90625 
L 49.515625 72.90625 
L 49.515625 64.59375 
L 19.828125 64.59375 
L 19.828125 46.734375 
Q 21.96875 47.46875 24.109375 47.828125 
Q 26.265625 48.1875 28.421875 48.1875 
Q 40.625 48.1875 47.75 41.5 
Q 54.890625 34.8125 54.890625 23.390625 
Q 54.890625 11.625 47.5625 5.09375 
Q 40.234375 -1.421875 26.90625 -1.421875 
Q 22.3125 -1.421875 17.546875 -0.640625 
Q 12.796875 0.140625 7.71875 1.703125 
L 7.71875 11.625 
Q 12.109375 9.234375 16.796875 8.0625 
Q 21.484375 6.890625 26.703125 6.890625 
Q 35.15625 6.890625 40.078125 11.328125 
Q 45.015625 15.765625 45.015625 23.390625 
Q 45.015625 31 40.078125 35.4375 
Q 35.15625 39.890625 26.703125 39.890625 
Q 22.75 39.890625 18.8125 39.015625 
Q 14.890625 38.140625 10.796875 36.28125 
z
" id="DejaVuSans-35"/>
      </defs>
      <g transform="translate(90.848564 220.120313)scale(0.1 -0.1)">
       <use xlink:href="#DejaVuSans-35"/>
       <use x="63.623047" xlink:href="#DejaVuSans-30"/>
      </g>
     </g>
    </g>
    <g id="xtick_3">
     <g id="line2d_3">
      <g>
       <use style="stroke:#000000;stroke-width:0.8;" x="140.769714" xlink:href="#maab97d729e" y="205.521875"/>
      </g>
     </g>
     <g id="text_3">
      <!-- 100 -->
      <defs>
       <path d="M 12.40625 8.296875 
L 28.515625 8.296875 
L 28.515625 63.921875 
L 10.984375 60.40625 
L 10.984375 69.390625 
L 28.421875 72.90625 
L 38.28125 72.90625 
L 38.28125 8.296875 
L 54.390625 8.296875 
L 54.390625 0 
L 12.40625 0 
z
" id="DejaVuSans-31"/>
      </defs>
      <g transform="translate(131.225964 220.120313)scale(0.1 -0.1)">
       <use xlink:href="#DejaVuSans-31"/>
       <use x="63.623047" xlink:href="#DejaVuSans-30"/>
       <use x="127.246094" xlink:href="#DejaVuSans-30"/>
      </g>
     </g>
    </g>
    <g id="xtick_4">
     <g id="line2d_4">
      <g>
       <use style="stroke:#000000;stroke-width:0.8;" x="184.328363" xlink:href="#maab97d729e" y="205.521875"/>
      </g>
     </g>
     <g id="text_4">
      <!-- 150 -->
      <g transform="translate(174.784613 220.120313)scale(0.1 -0.1)">
       <use xlink:href="#DejaVuSans-31"/>
       <use x="63.623047" xlink:href="#DejaVuSans-35"/>
       <use x="127.246094" xlink:href="#DejaVuSans-30"/>
      </g>
     </g>
    </g>
    <g id="xtick_5">
     <g id="line2d_5">
      <g>
       <use style="stroke:#000000;stroke-width:0.8;" x="227.887013" xlink:href="#maab97d729e" y="205.521875"/>
      </g>
     </g>
     <g id="text_5">
      <!-- 200 -->
      <defs>
       <path d="M 19.1875 8.296875 
L 53.609375 8.296875 
L 53.609375 0 
L 7.328125 0 
L 7.328125 8.296875 
Q 12.9375 14.109375 22.625 23.890625 
Q 32.328125 33.6875 34.8125 36.53125 
Q 39.546875 41.84375 41.421875 45.53125 
Q 43.3125 49.21875 43.3125 52.78125 
Q 43.3125 58.59375 39.234375 62.25 
Q 35.15625 65.921875 28.609375 65.921875 
Q 23.96875 65.921875 18.8125 64.3125 
Q 13.671875 62.703125 7.8125 59.421875 
L 7.8125 69.390625 
Q 13.765625 71.78125 18.9375 73 
Q 24.125 74.21875 28.421875 74.21875 
Q 39.75 74.21875 46.484375 68.546875 
Q 53.21875 62.890625 53.21875 53.421875 
Q 53.21875 48.921875 51.53125 44.890625 
Q 49.859375 40.875 45.40625 35.40625 
Q 44.1875 33.984375 37.640625 27.21875 
Q 31.109375 20.453125 19.1875 8.296875 
z
" id="DejaVuSans-32"/>
      </defs>
      <g transform="translate(218.343263 220.120313)scale(0.1 -0.1)">
       <use xlink:href="#DejaVuSans-32"/>
       <use x="63.623047" xlink:href="#DejaVuSans-30"/>
       <use x="127.246094" xlink:href="#DejaVuSans-30"/>
      </g>
     </g>
    </g>
    <g id="xtick_6">
     <g id="line2d_6">
      <g>
       <use style="stroke:#000000;stroke-width:0.8;" x="271.445662" xlink:href="#maab97d729e" y="205.521875"/>
      </g>
     </g>
     <g id="text_6">
      <!-- 250 -->
      <g transform="translate(261.901912 220.120313)scale(0.1 -0.1)">
       <use xlink:href="#DejaVuSans-32"/>
       <use x="63.623047" xlink:href="#DejaVuSans-35"/>
       <use x="127.246094" xlink:href="#DejaVuSans-30"/>
      </g>
     </g>
    </g>
    <g id="xtick_7">
     <g id="line2d_7">
      <g>
       <use style="stroke:#000000;stroke-width:0.8;" x="315.004312" xlink:href="#maab97d729e" y="205.521875"/>
      </g>
     </g>
     <g id="text_7">
      <!-- 300 -->
      <defs>
       <path d="M 40.578125 39.3125 
Q 47.65625 37.796875 51.625 33 
Q 55.609375 28.21875 55.609375 21.1875 
Q 55.609375 10.40625 48.1875 4.484375 
Q 40.765625 -1.421875 27.09375 -1.421875 
Q 22.515625 -1.421875 17.65625 -0.515625 
Q 12.796875 0.390625 7.625 2.203125 
L 7.625 11.71875 
Q 11.71875 9.328125 16.59375 8.109375 
Q 21.484375 6.890625 26.8125 6.890625 
Q 36.078125 6.890625 40.9375 10.546875 
Q 45.796875 14.203125 45.796875 21.1875 
Q 45.796875 27.640625 41.28125 31.265625 
Q 36.765625 34.90625 28.71875 34.90625 
L 20.21875 34.90625 
L 20.21875 43.015625 
L 29.109375 43.015625 
Q 36.375 43.015625 40.234375 45.921875 
Q 44.09375 48.828125 44.09375 54.296875 
Q 44.09375 59.90625 40.109375 62.90625 
Q 36.140625 65.921875 28.71875 65.921875 
Q 24.65625 65.921875 20.015625 65.03125 
Q 15.375 64.15625 9.8125 62.3125 
L 9.8125 71.09375 
Q 15.4375 72.65625 20.34375 73.4375 
Q 25.25 74.21875 29.59375 74.21875 
Q 40.828125 74.21875 47.359375 69.109375 
Q 53.90625 64.015625 53.90625 55.328125 
Q 53.90625 49.265625 50.4375 45.09375 
Q 46.96875 40.921875 40.578125 39.3125 
z
" id="DejaVuSans-33"/>
      </defs>
      <g transform="translate(305.460562 220.120313)scale(0.1 -0.1)">
       <use xlink:href="#DejaVuSans-33"/>
       <use x="63.623047" xlink:href="#DejaVuSans-30"/>
       <use x="127.246094" xlink:href="#DejaVuSans-30"/>
      </g>
     </g>
    </g>
    <g id="xtick_8">
     <g id="line2d_8">
      <g>
       <use style="stroke:#000000;stroke-width:0.8;" x="358.562961" xlink:href="#maab97d729e" y="205.521875"/>
      </g>
     </g>
     <g id="text_8">
      <!-- 350 -->
      <g transform="translate(349.019211 220.120313)scale(0.1 -0.1)">
       <use xlink:href="#DejaVuSans-33"/>
       <use x="63.623047" xlink:href="#DejaVuSans-35"/>
       <use x="127.246094" xlink:href="#DejaVuSans-30"/>
      </g>
     </g>
    </g>
   </g>
   <g id="matplotlib.axis_2">
    <g id="ytick_1">
     <g id="line2d_9">
      <defs>
       <path d="M 0 0 
L -3.5 0 
" id="mb5aae38b89" style="stroke:#000000;stroke-width:0.8;"/>
      </defs>
      <g>
       <use style="stroke:#000000;stroke-width:0.8;" x="37.840625" xlink:href="#mb5aae38b89" y="196.225594"/>
      </g>
     </g>
     <g id="text_9">
      <!-- 0 -->
      <g transform="translate(24.478125 200.024812)scale(0.1 -0.1)">
       <use xlink:href="#DejaVuSans-30"/>
      </g>
     </g>
    </g>
    <g id="ytick_2">
     <g id="line2d_10">
      <g>
       <use style="stroke:#000000;stroke-width:0.8;" x="37.840625" xlink:href="#mb5aae38b89" y="160.648721"/>
      </g>
     </g>
     <g id="text_10">
      <!-- 2 -->
      <g transform="translate(24.478125 164.44794)scale(0.1 -0.1)">
       <use xlink:href="#DejaVuSans-32"/>
      </g>
     </g>
    </g>
    <g id="ytick_3">
     <g id="line2d_11">
      <g>
       <use style="stroke:#000000;stroke-width:0.8;" x="37.840625" xlink:href="#mb5aae38b89" y="125.071848"/>
      </g>
     </g>
     <g id="text_11">
      <!-- 4 -->
      <defs>
       <path d="M 37.796875 64.3125 
L 12.890625 25.390625 
L 37.796875 25.390625 
z
M 35.203125 72.90625 
L 47.609375 72.90625 
L 47.609375 25.390625 
L 58.015625 25.390625 
L 58.015625 17.1875 
L 47.609375 17.1875 
L 47.609375 0 
L 37.796875 0 
L 37.796875 17.1875 
L 4.890625 17.1875 
L 4.890625 26.703125 
z
" id="DejaVuSans-34"/>
      </defs>
      <g transform="translate(24.478125 128.871067)scale(0.1 -0.1)">
       <use xlink:href="#DejaVuSans-34"/>
      </g>
     </g>
    </g>
    <g id="ytick_4">
     <g id="line2d_12">
      <g>
       <use style="stroke:#000000;stroke-width:0.8;" x="37.840625" xlink:href="#mb5aae38b89" y="89.494975"/>
      </g>
     </g>
     <g id="text_12">
      <!-- 6 -->
      <defs>
       <path d="M 33.015625 40.375 
Q 26.375 40.375 22.484375 35.828125 
Q 18.609375 31.296875 18.609375 23.390625 
Q 18.609375 15.53125 22.484375 10.953125 
Q 26.375 6.390625 33.015625 6.390625 
Q 39.65625 6.390625 43.53125 10.953125 
Q 47.40625 15.53125 47.40625 23.390625 
Q 47.40625 31.296875 43.53125 35.828125 
Q 39.65625 40.375 33.015625 40.375 
z
M 52.59375 71.296875 
L 52.59375 62.3125 
Q 48.875 64.0625 45.09375 64.984375 
Q 41.3125 65.921875 37.59375 65.921875 
Q 27.828125 65.921875 22.671875 59.328125 
Q 17.53125 52.734375 16.796875 39.40625 
Q 19.671875 43.65625 24.015625 45.921875 
Q 28.375 48.1875 33.59375 48.1875 
Q 44.578125 48.1875 50.953125 41.515625 
Q 57.328125 34.859375 57.328125 23.390625 
Q 57.328125 12.15625 50.6875 5.359375 
Q 44.046875 -1.421875 33.015625 -1.421875 
Q 20.359375 -1.421875 13.671875 8.265625 
Q 6.984375 17.96875 6.984375 36.375 
Q 6.984375 53.65625 15.1875 63.9375 
Q 23.390625 74.21875 37.203125 74.21875 
Q 40.921875 74.21875 44.703125 73.484375 
Q 48.484375 72.75 52.59375 71.296875 
z
" id="DejaVuSans-36"/>
      </defs>
      <g transform="translate(24.478125 93.294194)scale(0.1 -0.1)">
       <use xlink:href="#DejaVuSans-36"/>
      </g>
     </g>
    </g>
    <g id="ytick_5">
     <g id="line2d_13">
      <g>
       <use style="stroke:#000000;stroke-width:0.8;" x="37.840625" xlink:href="#mb5aae38b89" y="53.918102"/>
      </g>
     </g>
     <g id="text_13">
      <!-- 8 -->
      <defs>
       <path d="M 31.78125 34.625 
Q 24.75 34.625 20.71875 30.859375 
Q 16.703125 27.09375 16.703125 20.515625 
Q 16.703125 13.921875 20.71875 10.15625 
Q 24.75 6.390625 31.78125 6.390625 
Q 38.8125 6.390625 42.859375 10.171875 
Q 46.921875 13.96875 46.921875 20.515625 
Q 46.921875 27.09375 42.890625 30.859375 
Q 38.875 34.625 31.78125 34.625 
z
M 21.921875 38.8125 
Q 15.578125 40.375 12.03125 44.71875 
Q 8.5 49.078125 8.5 55.328125 
Q 8.5 64.0625 14.71875 69.140625 
Q 20.953125 74.21875 31.78125 74.21875 
Q 42.671875 74.21875 48.875 69.140625 
Q 55.078125 64.0625 55.078125 55.328125 
Q 55.078125 49.078125 51.53125 44.71875 
Q 48 40.375 41.703125 38.8125 
Q 48.828125 37.15625 52.796875 32.3125 
Q 56.78125 27.484375 56.78125 20.515625 
Q 56.78125 9.90625 50.3125 4.234375 
Q 43.84375 -1.421875 31.78125 -1.421875 
Q 19.734375 -1.421875 13.25 4.234375 
Q 6.78125 9.90625 6.78125 20.515625 
Q 6.78125 27.484375 10.78125 32.3125 
Q 14.796875 37.15625 21.921875 38.8125 
z
M 18.3125 54.390625 
Q 18.3125 48.734375 21.84375 45.5625 
Q 25.390625 42.390625 31.78125 42.390625 
Q 38.140625 42.390625 41.71875 45.5625 
Q 45.3125 48.734375 45.3125 54.390625 
Q 45.3125 60.0625 41.71875 63.234375 
Q 38.140625 66.40625 31.78125 66.40625 
Q 25.390625 66.40625 21.84375 63.234375 
Q 18.3125 60.0625 18.3125 54.390625 
z
" id="DejaVuSans-38"/>
      </defs>
      <g transform="translate(24.478125 57.717321)scale(0.1 -0.1)">
       <use xlink:href="#DejaVuSans-38"/>
      </g>
     </g>
    </g>
    <g id="text_14">
     <!-- CV iteration -->
     <defs>
      <path d="M 64.40625 67.28125 
L 64.40625 56.890625 
Q 59.421875 61.53125 53.78125 63.8125 
Q 48.140625 66.109375 41.796875 66.109375 
Q 29.296875 66.109375 22.65625 58.46875 
Q 16.015625 50.828125 16.015625 36.375 
Q 16.015625 21.96875 22.65625 14.328125 
Q 29.296875 6.6875 41.796875 6.6875 
Q 48.140625 6.6875 53.78125 8.984375 
Q 59.421875 11.28125 64.40625 15.921875 
L 64.40625 5.609375 
Q 59.234375 2.09375 53.4375 0.328125 
Q 47.65625 -1.421875 41.21875 -1.421875 
Q 24.65625 -1.421875 15.125 8.703125 
Q 5.609375 18.84375 5.609375 36.375 
Q 5.609375 53.953125 15.125 64.078125 
Q 24.65625 74.21875 41.21875 74.21875 
Q 47.75 74.21875 53.53125 72.484375 
Q 59.328125 70.75 64.40625 67.28125 
z
" id="DejaVuSans-43"/>
      <path d="M 28.609375 0 
L 0.78125 72.90625 
L 11.078125 72.90625 
L 34.1875 11.53125 
L 57.328125 72.90625 
L 67.578125 72.90625 
L 39.796875 0 
z
" id="DejaVuSans-56"/>
      <path id="DejaVuSans-20"/>
      <path d="M 9.421875 54.6875 
L 18.40625 54.6875 
L 18.40625 0 
L 9.421875 0 
z
M 9.421875 75.984375 
L 18.40625 75.984375 
L 18.40625 64.59375 
L 9.421875 64.59375 
z
" id="DejaVuSans-69"/>
      <path d="M 18.3125 70.21875 
L 18.3125 54.6875 
L 36.8125 54.6875 
L 36.8125 47.703125 
L 18.3125 47.703125 
L 18.3125 18.015625 
Q 18.3125 11.328125 20.140625 9.421875 
Q 21.96875 7.515625 27.59375 7.515625 
L 36.8125 7.515625 
L 36.8125 0 
L 27.59375 0 
Q 17.1875 0 13.234375 3.875 
Q 9.28125 7.765625 9.28125 18.015625 
L 9.28125 47.703125 
L 2.6875 47.703125 
L 2.6875 54.6875 
L 9.28125 54.6875 
L 9.28125 70.21875 
z
" id="DejaVuSans-74"/>
      <path d="M 56.203125 29.59375 
L 56.203125 25.203125 
L 14.890625 25.203125 
Q 15.484375 15.921875 20.484375 11.0625 
Q 25.484375 6.203125 34.421875 6.203125 
Q 39.59375 6.203125 44.453125 7.46875 
Q 49.3125 8.734375 54.109375 11.28125 
L 54.109375 2.78125 
Q 49.265625 0.734375 44.1875 -0.34375 
Q 39.109375 -1.421875 33.890625 -1.421875 
Q 20.796875 -1.421875 13.15625 6.1875 
Q 5.515625 13.8125 5.515625 26.8125 
Q 5.515625 40.234375 12.765625 48.109375 
Q 20.015625 56 32.328125 56 
Q 43.359375 56 49.78125 48.890625 
Q 56.203125 41.796875 56.203125 29.59375 
z
M 47.21875 32.234375 
Q 47.125 39.59375 43.09375 43.984375 
Q 39.0625 48.390625 32.421875 48.390625 
Q 24.90625 48.390625 20.390625 44.140625 
Q 15.875 39.890625 15.1875 32.171875 
z
" id="DejaVuSans-65"/>
      <path d="M 41.109375 46.296875 
Q 39.59375 47.171875 37.8125 47.578125 
Q 36.03125 48 33.890625 48 
Q 26.265625 48 22.1875 43.046875 
Q 18.109375 38.09375 18.109375 28.8125 
L 18.109375 0 
L 9.078125 0 
L 9.078125 54.6875 
L 18.109375 54.6875 
L 18.109375 46.1875 
Q 20.953125 51.171875 25.484375 53.578125 
Q 30.03125 56 36.53125 56 
Q 37.453125 56 38.578125 55.875 
Q 39.703125 55.765625 41.0625 55.515625 
z
" id="DejaVuSans-72"/>
      <path d="M 34.28125 27.484375 
Q 23.390625 27.484375 19.1875 25 
Q 14.984375 22.515625 14.984375 16.5 
Q 14.984375 11.71875 18.140625 8.90625 
Q 21.296875 6.109375 26.703125 6.109375 
Q 34.1875 6.109375 38.703125 11.40625 
Q 43.21875 16.703125 43.21875 25.484375 
L 43.21875 27.484375 
z
M 52.203125 31.203125 
L 52.203125 0 
L 43.21875 0 
L 43.21875 8.296875 
Q 40.140625 3.328125 35.546875 0.953125 
Q 30.953125 -1.421875 24.3125 -1.421875 
Q 15.921875 -1.421875 10.953125 3.296875 
Q 6 8.015625 6 15.921875 
Q 6 25.140625 12.171875 29.828125 
Q 18.359375 34.515625 30.609375 34.515625 
L 43.21875 34.515625 
L 43.21875 35.40625 
Q 43.21875 41.609375 39.140625 45 
Q 35.0625 48.390625 27.6875 48.390625 
Q 23 48.390625 18.546875 47.265625 
Q 14.109375 46.140625 10.015625 43.890625 
L 10.015625 52.203125 
Q 14.9375 54.109375 19.578125 55.046875 
Q 24.21875 56 28.609375 56 
Q 40.484375 56 46.34375 49.84375 
Q 52.203125 43.703125 52.203125 31.203125 
z
" id="DejaVuSans-61"/>
      <path d="M 30.609375 48.390625 
Q 23.390625 48.390625 19.1875 42.75 
Q 14.984375 37.109375 14.984375 27.296875 
Q 14.984375 17.484375 19.15625 11.84375 
Q 23.34375 6.203125 30.609375 6.203125 
Q 37.796875 6.203125 41.984375 11.859375 
Q 46.1875 17.53125 46.1875 27.296875 
Q 46.1875 37.015625 41.984375 42.703125 
Q 37.796875 48.390625 30.609375 48.390625 
z
M 30.609375 56 
Q 42.328125 56 49.015625 48.375 
Q 55.71875 40.765625 55.71875 27.296875 
Q 55.71875 13.875 49.015625 6.21875 
Q 42.328125 -1.421875 30.609375 -1.421875 
Q 18.84375 -1.421875 12.171875 6.21875 
Q 5.515625 13.875 5.515625 27.296875 
Q 5.515625 40.765625 12.171875 48.375 
Q 18.84375 56 30.609375 56 
z
" id="DejaVuSans-6f"/>
      <path d="M 54.890625 33.015625 
L 54.890625 0 
L 45.90625 0 
L 45.90625 32.71875 
Q 45.90625 40.484375 42.875 44.328125 
Q 39.84375 48.1875 33.796875 48.1875 
Q 26.515625 48.1875 22.3125 43.546875 
Q 18.109375 38.921875 18.109375 30.90625 
L 18.109375 0 
L 9.078125 0 
L 9.078125 54.6875 
L 18.109375 54.6875 
L 18.109375 46.1875 
Q 21.34375 51.125 25.703125 53.5625 
Q 30.078125 56 35.796875 56 
Q 45.21875 56 50.046875 50.171875 
Q 54.890625 44.34375 54.890625 33.015625 
z
" id="DejaVuSans-6e"/>
     </defs>
     <g transform="translate(18.398438 145.343437)rotate(-90)scale(0.1 -0.1)">
      <use xlink:href="#DejaVuSans-43"/>
      <use x="69.824219" xlink:href="#DejaVuSans-56"/>
      <use x="138.232422" xlink:href="#DejaVuSans-20"/>
      <use x="170.019531" xlink:href="#DejaVuSans-69"/>
      <use x="197.802734" xlink:href="#DejaVuSans-74"/>
      <use x="237.011719" xlink:href="#DejaVuSans-65"/>
      <use x="298.535156" xlink:href="#DejaVuSans-72"/>
      <use x="339.648438" xlink:href="#DejaVuSans-61"/>
      <use x="400.927734" xlink:href="#DejaVuSans-74"/>
      <use x="440.136719" xlink:href="#DejaVuSans-69"/>
      <use x="467.919922" xlink:href="#DejaVuSans-6f"/>
      <use x="529.101562" xlink:href="#DejaVuSans-6e"/>
     </g>
    </g>
   </g>
   <g id="line2d_14">
    <path clip-path="url(#p5a31694cab)" d="M 53.652415 196.06173 
L 54.523588 196.06173 
L 55.394761 196.06173 
L 56.265934 196.06173 
L 57.137107 196.06173 
L 58.00828 196.06173 
L 58.879453 196.06173 
L 59.750626 196.06173 
L 60.621799 196.06173 
L 61.492972 196.06173 
L 62.364145 196.06173 
L 63.235318 196.06173 
L 64.106491 196.06173 
L 64.977664 196.06173 
L 65.848837 196.06173 
L 66.72001 196.06173 
L 67.591183 196.06173 
L 68.462356 196.06173 
L 69.333529 196.06173 
L 70.204702 197.337633 
L 71.075875 197.158518 
L 71.947048 196.787264 
L 72.818221 197.358068 
L 73.689394 196.98134 
L 74.560567 197.025751 
L 75.43174 196.773213 
L 76.302913 196.815683 
L 77.174086 196.431568 
L 78.045258 196.230125 
L 78.916431 195.93575 
L 79.787604 195.956022 
L 80.658777 195.878228 
L 81.52995 195.966304 
L 82.401123 196.096766 
L 83.272296 196.384788 
L 84.143469 196.020433 
L 85.014642 195.865507 
L 85.885815 195.64335 
L 86.756988 195.313405 
L 87.628161 195.396222 
" style="fill:none;stroke:#440154;stroke-linecap:square;stroke-width:1.5;"/>
   </g>
   <g id="line2d_15">
    <path clip-path="url(#p5a31694cab)" d="M 53.652415 178.273293 
L 54.523588 178.273293 
L 55.394761 178.273293 
L 56.265934 178.273293 
L 57.137107 178.273293 
L 58.00828 178.273293 
L 58.879453 178.273293 
L 59.750626 178.273293 
L 60.621799 178.273293 
L 61.492972 178.273293 
L 62.364145 178.273293 
L 63.235318 178.273293 
L 64.106491 178.273293 
L 64.977664 178.273293 
L 65.848837 178.273293 
L 66.72001 178.273293 
L 67.591183 178.273293 
L 68.462356 178.273293 
L 69.333529 178.273293 
L 70.204702 179.549197 
L 71.075875 179.370082 
L 71.947048 178.998827 
L 72.818221 179.569632 
L 73.689394 179.192904 
L 74.560567 179.237315 
L 75.43174 178.984776 
L 76.302913 179.027247 
L 77.174086 178.643132 
L 78.045258 178.441689 
L 78.916431 178.147314 
L 79.787604 178.167585 
L 80.658777 178.089791 
L 81.52995 178.177868 
L 82.401123 178.30833 
L 83.272296 178.596351 
L 84.143469 178.231997 
L 85.014642 178.077071 
L 85.885815 177.854914 
L 86.756988 177.524969 
L 87.628161 177.607786 
L 88.499334 177.628713 
L 89.370507 177.555679 
L 90.24168 176.920016 
L 91.112853 177.026212 
L 91.984026 176.806603 
L 92.855199 176.782524 
L 93.726372 176.872612 
L 94.597545 176.909803 
L 95.468718 177.270421 
L 96.339891 177.315608 
L 97.211064 177.445931 
L 98.082237 177.499896 
L 98.95341 177.80435 
L 99.824583 177.696334 
L 100.695756 177.525024 
L 101.566929 177.567538 
L 102.438102 177.909452 
L 103.309275 177.663773 
L 104.180448 177.640845 
L 105.051621 177.468617 
L 105.922794 177.65212 
L 106.793967 177.680794 
L 107.66514 177.556633 
L 108.536313 177.558358 
L 109.407486 177.546901 
L 110.278659 177.664555 
L 111.149832 177.583877 
L 112.021005 177.609832 
L 112.892178 177.676872 
L 113.763351 177.503649 
L 114.634524 177.349316 
L 115.505697 177.566192 
L 116.37687 177.69508 
L 117.248043 177.971496 
L 118.119216 176.948724 
L 118.990389 176.538878 
" style="fill:none;stroke:#482878;stroke-linecap:square;stroke-width:1.5;"/>
   </g>
   <g id="line2d_16">
    <path clip-path="url(#p5a31694cab)" d="M 53.652415 160.484857 
L 54.523588 160.484857 
L 55.394761 160.484857 
L 56.265934 160.484857 
L 57.137107 160.484857 
L 58.00828 160.484857 
L 58.879453 160.484857 
L 59.750626 160.484857 
L 60.621799 160.484857 
L 61.492972 160.484857 
L 62.364145 160.484857 
L 63.235318 160.484857 
L 64.106491 160.484857 
L 64.977664 160.484857 
L 65.848837 160.484857 
L 66.72001 160.484857 
L 67.591183 160.484857 
L 68.462356 160.484857 
L 69.333529 160.484857 
L 70.204702 161.76076 
L 71.075875 161.581646 
L 71.947048 161.210391 
L 72.818221 161.781195 
L 73.689394 161.404467 
L 74.560567 161.448878 
L 75.43174 161.19634 
L 76.302913 161.23881 
L 77.174086 160.854695 
L 78.045258 160.653252 
L 78.916431 160.358877 
L 79.787604 160.379149 
L 80.658777 160.301355 
L 81.52995 160.389432 
L 82.401123 160.519893 
L 83.272296 160.807915 
L 84.143469 160.44356 
L 85.014642 160.288634 
L 85.885815 160.066477 
L 86.756988 159.736533 
L 87.628161 159.819349 
L 88.499334 159.840277 
L 89.370507 159.767243 
L 90.24168 159.13158 
L 91.112853 159.237775 
L 91.984026 159.018166 
L 92.855199 158.994088 
L 93.726372 159.084175 
L 94.597545 159.121367 
L 95.468718 159.481984 
L 96.339891 159.527172 
L 97.211064 159.657495 
L 98.082237 159.71146 
L 98.95341 160.015914 
L 99.824583 159.907897 
L 100.695756 159.736588 
L 101.566929 159.779102 
L 102.438102 160.121016 
L 103.309275 159.875336 
L 104.180448 159.852408 
L 105.051621 159.680181 
L 105.922794 159.863684 
L 106.793967 159.892358 
L 107.66514 159.768196 
L 108.536313 159.769921 
L 109.407486 159.758465 
L 110.278659 159.876119 
L 111.149832 159.795441 
L 112.021005 159.821395 
L 112.892178 159.888436 
L 113.763351 159.715212 
L 114.634524 159.56088 
L 115.505697 159.777755 
L 116.37687 159.906644 
L 117.248043 160.18306 
L 118.119216 159.160287 
L 118.990389 158.750441 
L 119.861562 158.600987 
L 120.732735 158.867733 
L 121.603908 159.55994 
L 122.475081 159.696254 
L 123.346254 159.299812 
L 124.217427 159.964859 
L 125.0886 159.681444 
L 125.959773 160.32273 
L 126.830946 160.578001 
L 127.702119 161.314206 
L 128.573292 162.051707 
L 129.444465 160.768845 
L 130.315638 160.635207 
L 131.186811 160.289017 
L 132.057984 160.595437 
L 132.929157 160.948125 
L 133.80033 160.944634 
L 134.671503 161.106595 
L 135.542676 161.35886 
L 136.413849 162.025904 
L 137.285022 161.597421 
L 138.156195 161.192495 
L 139.027368 161.245801 
L 139.898541 161.265275 
L 140.769714 160.523832 
L 141.640887 160.244782 
L 142.51206 159.928314 
L 143.383233 159.715366 
L 144.254406 159.805362 
L 145.125579 160.376203 
L 145.996752 160.804417 
L 146.867925 160.90643 
L 147.739098 161.311822 
L 148.610271 160.727378 
L 149.481444 160.485818 
L 150.352617 160.430124 
" style="fill:none;stroke:#3e4989;stroke-linecap:square;stroke-width:1.5;"/>
   </g>
   <g id="line2d_17">
    <path clip-path="url(#p5a31694cab)" d="M 53.652415 142.69642 
L 69.333529 142.69642 
L 70.204702 143.972324 
L 71.075875 143.793209 
L 71.947048 143.421955 
L 72.818221 143.992759 
L 73.689394 143.616031 
L 74.560567 143.660442 
L 75.43174 143.407904 
L 76.302913 143.450374 
L 77.174086 143.066259 
L 78.916431 142.570441 
L 82.401123 142.731457 
L 83.272296 143.019478 
L 84.143469 142.655124 
L 85.885815 142.278041 
L 86.756988 141.948096 
L 88.499334 142.05184 
L 89.370507 141.978806 
L 90.24168 141.343144 
L 91.112853 141.449339 
L 91.984026 141.22973 
L 92.855199 141.205651 
L 94.597545 141.33293 
L 95.468718 141.693548 
L 98.082237 141.923023 
L 98.95341 142.227477 
L 101.566929 141.990665 
L 102.438102 142.33258 
L 103.309275 142.0869 
L 104.180448 142.063972 
L 105.051621 141.891744 
L 105.922794 142.075247 
L 106.793967 142.103921 
L 107.66514 141.97976 
L 113.763351 141.926776 
L 114.634524 141.772444 
L 117.248043 142.394623 
L 118.119216 141.371851 
L 118.990389 140.962005 
L 119.861562 140.81255 
L 120.732735 141.079297 
L 121.603908 141.771504 
L 122.475081 141.907818 
L 123.346254 141.511376 
L 124.217427 142.176423 
L 125.0886 141.893007 
L 125.959773 142.534294 
L 126.830946 142.789565 
L 128.573292 144.263271 
L 129.444465 142.980408 
L 130.315638 142.84677 
L 131.186811 142.50058 
L 132.929157 143.159688 
L 133.80033 143.156198 
L 135.542676 143.570423 
L 136.413849 144.237468 
L 138.156195 143.404059 
L 139.898541 143.476839 
L 140.769714 142.735396 
L 143.383233 141.92693 
L 144.254406 142.016926 
L 145.125579 142.587767 
L 145.996752 143.01598 
L 146.867925 143.117993 
L 147.739098 143.523386 
L 148.610271 142.938941 
L 149.481444 142.697382 
L 150.352617 142.641687 
L 151.22379 142.258805 
L 152.094963 141.752466 
L 152.966136 141.50155 
L 153.837309 141.482834 
L 154.708482 141.878869 
L 155.579655 141.714318 
L 157.322001 142.258417 
L 158.193174 142.473195 
L 159.064347 142.400288 
L 159.93552 143.251463 
L 160.806693 143.539832 
L 162.549039 143.78733 
L 163.420212 143.658204 
L 164.291385 142.969602 
L 165.162558 143.064254 
L 166.033731 142.986998 
L 166.904904 143.167005 
L 167.776076 143.550373 
L 168.647249 143.459973 
L 170.389595 143.532101 
L 171.260768 143.745197 
L 172.131941 143.223611 
L 173.003114 142.981635 
L 173.874287 142.587348 
L 174.74546 142.485799 
L 175.616633 142.506561 
L 176.487806 142.136128 
L 178.230152 142.619483 
L 179.101325 142.715246 
L 179.972498 142.433306 
L 181.714844 142.416541 
L 181.714844 142.416541 
" style="fill:none;stroke:#31688e;stroke-linecap:square;stroke-width:1.5;"/>
   </g>
   <g id="line2d_18">
    <path clip-path="url(#p5a31694cab)" d="M 53.652415 124.907984 
L 69.333529 124.907984 
L 70.204702 126.183887 
L 71.075875 126.004773 
L 71.947048 125.633518 
L 72.818221 126.204322 
L 73.689394 125.827594 
L 74.560567 125.872005 
L 75.43174 125.619467 
L 76.302913 125.661937 
L 77.174086 125.277822 
L 78.916431 124.782004 
L 82.401123 124.94302 
L 83.272296 125.231042 
L 84.143469 124.866688 
L 85.885815 124.489604 
L 86.756988 124.15966 
L 88.499334 124.263404 
L 89.370507 124.19037 
L 90.24168 123.554707 
L 91.112853 123.660902 
L 91.984026 123.441294 
L 92.855199 123.417215 
L 94.597545 123.544494 
L 95.468718 123.905111 
L 98.082237 124.134587 
L 98.95341 124.439041 
L 101.566929 124.202229 
L 102.438102 124.544143 
L 103.309275 124.298464 
L 104.180448 124.275535 
L 105.051621 124.103308 
L 105.922794 124.286811 
L 106.793967 124.315485 
L 107.66514 124.191323 
L 113.763351 124.138339 
L 114.634524 123.984007 
L 117.248043 124.606187 
L 118.119216 123.583415 
L 118.990389 123.173568 
L 119.861562 123.024114 
L 120.732735 123.29086 
L 121.603908 123.983067 
L 122.475081 124.119381 
L 123.346254 123.722939 
L 124.217427 124.387986 
L 125.0886 124.104571 
L 125.959773 124.745857 
L 126.830946 125.001128 
L 128.573292 126.474834 
L 129.444465 125.191972 
L 130.315638 125.058334 
L 131.186811 124.712144 
L 132.929157 125.371252 
L 133.80033 125.367761 
L 135.542676 125.781987 
L 136.413849 126.449031 
L 138.156195 125.615623 
L 139.898541 125.688402 
L 140.769714 124.94696 
L 143.383233 124.138493 
L 144.254406 124.228489 
L 145.125579 124.799331 
L 145.996752 125.227544 
L 146.867925 125.329557 
L 147.739098 125.73495 
L 148.610271 125.150505 
L 149.481444 124.908945 
L 150.352617 124.853251 
L 151.22379 124.470368 
L 152.094963 123.96403 
L 152.966136 123.713114 
L 153.837309 123.694398 
L 154.708482 124.090433 
L 155.579655 123.925882 
L 157.322001 124.469981 
L 158.193174 124.684758 
L 159.064347 124.611852 
L 159.93552 125.463026 
L 160.806693 125.751396 
L 162.549039 125.998893 
L 163.420212 125.869768 
L 164.291385 125.181165 
L 165.162558 125.275817 
L 166.033731 125.198562 
L 166.904904 125.378568 
L 167.776076 125.761936 
L 168.647249 125.671537 
L 170.389595 125.743664 
L 171.260768 125.95676 
L 172.131941 125.435174 
L 173.003114 125.193199 
L 173.874287 124.798911 
L 174.74546 124.697363 
L 175.616633 124.718124 
L 176.487806 124.347691 
L 178.230152 124.831046 
L 179.101325 124.92681 
L 179.972498 124.64487 
L 183.45719 124.854209 
L 184.328363 124.749676 
L 185.199536 124.948067 
L 186.070709 125.608251 
L 186.941882 125.493457 
L 188.684228 125.798534 
L 189.555401 125.485154 
L 190.426574 125.401216 
L 191.297747 125.600329 
L 192.16892 125.581382 
L 193.911266 126.157962 
L 194.782439 125.87835 
L 195.653612 126.007771 
L 198.267131 125.60723 
L 199.138304 125.019634 
L 200.009477 124.845309 
L 200.88065 124.342806 
L 201.751823 124.399855 
L 202.622996 124.027571 
L 204.365342 124.087996 
L 205.236515 123.886551 
L 206.978861 123.802792 
L 207.850034 123.424507 
L 208.721207 123.615634 
L 209.59238 123.171079 
L 210.463553 123.284251 
L 211.334726 123.18574 
L 212.205899 123.283408 
L 213.077072 123.244312 
L 213.077072 123.244312 
" style="fill:none;stroke:#26828e;stroke-linecap:square;stroke-width:1.5;"/>
   </g>
   <g id="line2d_19">
    <path clip-path="url(#p5a31694cab)" d="M 53.652415 107.119547 
L 69.333529 107.119547 
L 70.204702 108.395451 
L 71.075875 108.216336 
L 71.947048 107.845082 
L 72.818221 108.415886 
L 73.689394 108.039158 
L 74.560567 108.083569 
L 75.43174 107.831031 
L 76.302913 107.873501 
L 77.174086 107.489386 
L 78.916431 106.993568 
L 82.401123 107.154584 
L 83.272296 107.442606 
L 84.143469 107.078251 
L 85.885815 106.701168 
L 86.756988 106.371223 
L 88.499334 106.474967 
L 89.370507 106.401933 
L 90.24168 105.766271 
L 91.112853 105.872466 
L 91.984026 105.652857 
L 92.855199 105.628779 
L 94.597545 105.756057 
L 95.468718 106.116675 
L 98.082237 106.34615 
L 98.95341 106.650605 
L 101.566929 106.413793 
L 102.438102 106.755707 
L 103.309275 106.510027 
L 104.180448 106.487099 
L 105.051621 106.314871 
L 105.922794 106.498375 
L 106.793967 106.527049 
L 107.66514 106.402887 
L 113.763351 106.349903 
L 114.634524 106.195571 
L 117.248043 106.817751 
L 118.119216 105.794978 
L 118.990389 105.385132 
L 119.861562 105.235678 
L 120.732735 105.502424 
L 121.603908 106.194631 
L 122.475081 106.330945 
L 123.346254 105.934503 
L 124.217427 106.59955 
L 125.0886 106.316134 
L 125.959773 106.957421 
L 126.830946 107.212692 
L 128.573292 108.686398 
L 129.444465 107.403536 
L 130.315638 107.269897 
L 131.186811 106.923707 
L 132.929157 107.582815 
L 133.80033 107.579325 
L 135.542676 107.993551 
L 136.413849 108.660595 
L 138.156195 107.827186 
L 139.898541 107.899966 
L 140.769714 107.158523 
L 143.383233 106.350057 
L 144.254406 106.440053 
L 145.125579 107.010894 
L 145.996752 107.439108 
L 146.867925 107.541121 
L 147.739098 107.946513 
L 148.610271 107.362068 
L 149.481444 107.120509 
L 150.352617 107.064814 
L 151.22379 106.681932 
L 152.094963 106.175594 
L 152.966136 105.924677 
L 153.837309 105.905961 
L 154.708482 106.301996 
L 155.579655 106.137445 
L 157.322001 106.681544 
L 158.193174 106.896322 
L 159.064347 106.823415 
L 159.93552 107.67459 
L 160.806693 107.96296 
L 162.549039 108.210457 
L 163.420212 108.081331 
L 164.291385 107.392729 
L 165.162558 107.487381 
L 166.033731 107.410125 
L 166.904904 107.590132 
L 167.776076 107.9735 
L 168.647249 107.8831 
L 170.389595 107.955228 
L 171.260768 108.168324 
L 172.131941 107.646738 
L 173.003114 107.404763 
L 173.874287 107.010475 
L 174.74546 106.908927 
L 175.616633 106.929688 
L 176.487806 106.559255 
L 178.230152 107.04261 
L 179.101325 107.138373 
L 179.972498 106.856433 
L 183.45719 107.065773 
L 184.328363 106.961239 
L 185.199536 107.159631 
L 186.070709 107.819815 
L 186.941882 107.70502 
L 188.684228 108.010097 
L 189.555401 107.696718 
L 190.426574 107.612779 
L 191.297747 107.811892 
L 192.16892 107.792945 
L 193.911266 108.369526 
L 194.782439 108.089913 
L 195.653612 108.219334 
L 198.267131 107.818794 
L 199.138304 107.231198 
L 200.009477 107.056873 
L 200.88065 106.554369 
L 201.751823 106.611419 
L 202.622996 106.239135 
L 204.365342 106.299559 
L 205.236515 106.098115 
L 206.978861 106.014355 
L 207.850034 105.636071 
L 208.721207 105.827198 
L 209.59238 105.382642 
L 210.463553 105.495814 
L 211.334726 105.397304 
L 212.205899 105.494972 
L 213.077072 105.455875 
L 213.948245 105.728432 
L 214.819418 106.194664 
L 215.690591 106.320867 
L 216.561764 106.688531 
L 217.432937 106.878353 
L 218.30411 107.209047 
L 219.175283 106.621641 
L 220.917629 106.783913 
L 221.788802 106.566595 
L 222.659975 106.578488 
L 224.402321 106.470862 
L 225.273494 106.417004 
L 226.144667 105.745039 
L 227.01584 105.65601 
L 227.887013 106.291727 
L 228.758186 106.301881 
L 230.500532 106.614949 
L 231.371705 106.58626 
L 233.985224 107.015156 
L 234.856397 107.337681 
L 235.72757 107.218664 
L 236.598743 106.962562 
L 238.341089 106.581102 
L 239.212262 106.72366 
L 240.083435 106.705897 
L 240.954608 106.914491 
L 241.825781 106.851835 
L 242.696954 106.979107 
L 243.568127 107.477318 
L 244.4393 107.504265 
L 244.4393 107.504265 
" style="fill:none;stroke:#1f9e89;stroke-linecap:square;stroke-width:1.5;"/>
   </g>
   <g id="line2d_20">
    <path clip-path="url(#p5a31694cab)" d="M 53.652415 89.331111 
L 69.333529 89.331111 
L 70.204702 90.607014 
L 71.075875 90.4279 
L 71.947048 90.056645 
L 72.818221 90.62745 
L 73.689394 90.250722 
L 74.560567 90.295133 
L 75.43174 90.042594 
L 76.302913 90.085065 
L 77.174086 89.70095 
L 78.916431 89.205132 
L 82.401123 89.366147 
L 83.272296 89.654169 
L 84.143469 89.289815 
L 85.885815 88.912732 
L 86.756988 88.582787 
L 88.499334 88.686531 
L 89.370507 88.613497 
L 90.24168 87.977834 
L 91.112853 88.084029 
L 91.984026 87.864421 
L 92.855199 87.840342 
L 94.597545 87.967621 
L 95.468718 88.328239 
L 98.082237 88.557714 
L 98.95341 88.862168 
L 101.566929 88.625356 
L 102.438102 88.96727 
L 103.309275 88.721591 
L 104.180448 88.698663 
L 105.051621 88.526435 
L 105.922794 88.709938 
L 106.793967 88.738612 
L 107.66514 88.61445 
L 113.763351 88.561467 
L 114.634524 88.407134 
L 117.248043 89.029314 
L 118.119216 88.006542 
L 118.990389 87.596696 
L 119.861562 87.447241 
L 120.732735 87.713988 
L 121.603908 88.406194 
L 122.475081 88.542508 
L 123.346254 88.146067 
L 124.217427 88.811113 
L 125.0886 88.527698 
L 125.959773 89.168984 
L 126.830946 89.424256 
L 128.573292 90.897962 
L 129.444465 89.615099 
L 130.315638 89.481461 
L 131.186811 89.135271 
L 132.929157 89.794379 
L 133.80033 89.790888 
L 135.542676 90.205114 
L 136.413849 90.872158 
L 138.156195 90.03875 
L 139.898541 90.11153 
L 140.769714 89.370087 
L 143.383233 88.56162 
L 144.254406 88.651617 
L 145.125579 89.222458 
L 145.996752 89.650671 
L 146.867925 89.752684 
L 147.739098 90.158077 
L 148.610271 89.573632 
L 149.481444 89.332072 
L 150.352617 89.276378 
L 151.22379 88.893496 
L 152.094963 88.387157 
L 152.966136 88.136241 
L 153.837309 88.117525 
L 154.708482 88.51356 
L 155.579655 88.349009 
L 157.322001 88.893108 
L 158.193174 89.107885 
L 159.064347 89.034979 
L 159.93552 89.886153 
L 160.806693 90.174523 
L 162.549039 90.42202 
L 163.420212 90.292895 
L 164.291385 89.604293 
L 165.162558 89.698944 
L 166.033731 89.621689 
L 166.904904 89.801695 
L 167.776076 90.185063 
L 168.647249 90.094664 
L 170.389595 90.166791 
L 171.260768 90.379887 
L 172.131941 89.858301 
L 173.003114 89.616326 
L 173.874287 89.222038 
L 174.74546 89.12049 
L 175.616633 89.141251 
L 176.487806 88.770819 
L 178.230152 89.254173 
L 179.101325 89.349937 
L 179.972498 89.067997 
L 183.45719 89.277337 
L 184.328363 89.172803 
L 185.199536 89.371195 
L 186.070709 90.031378 
L 186.941882 89.916584 
L 188.684228 90.221661 
L 189.555401 89.908281 
L 190.426574 89.824343 
L 191.297747 90.023456 
L 192.16892 90.004509 
L 193.911266 90.581089 
L 194.782439 90.301477 
L 195.653612 90.430898 
L 198.267131 90.030357 
L 199.138304 89.442761 
L 200.009477 89.268436 
L 200.88065 88.765933 
L 201.751823 88.822982 
L 202.622996 88.450698 
L 204.365342 88.511123 
L 205.236515 88.309678 
L 206.978861 88.225919 
L 207.850034 87.847634 
L 208.721207 88.038762 
L 209.59238 87.594206 
L 210.463553 87.707378 
L 211.334726 87.608867 
L 212.205899 87.706535 
L 213.077072 87.667439 
L 213.948245 87.939996 
L 214.819418 88.406228 
L 215.690591 88.53243 
L 216.561764 88.900094 
L 217.432937 89.089916 
L 218.30411 89.420611 
L 219.175283 88.833204 
L 220.917629 88.995476 
L 221.788802 88.778159 
L 222.659975 88.790052 
L 224.402321 88.682425 
L 225.273494 88.628567 
L 226.144667 87.956602 
L 227.01584 87.867573 
L 227.887013 88.50329 
L 228.758186 88.513445 
L 230.500532 88.826512 
L 231.371705 88.797823 
L 233.985224 89.22672 
L 234.856397 89.549245 
L 235.72757 89.430228 
L 236.598743 89.174125 
L 238.341089 88.792665 
L 239.212262 88.935223 
L 240.083435 88.917461 
L 240.954608 89.126054 
L 241.825781 89.063398 
L 242.696954 89.19067 
L 243.568127 89.688882 
L 244.4393 89.715828 
L 245.310473 90.020496 
L 246.181646 90.056805 
L 247.052819 89.575114 
L 247.923992 89.675588 
L 248.795165 89.288546 
L 249.666338 89.570406 
L 250.537511 89.224907 
L 252.279857 89.17862 
L 253.15103 89.543497 
L 254.022203 89.249618 
L 254.893376 89.160876 
L 255.764549 89.200954 
L 256.635721 89.047536 
L 257.506894 89.162711 
L 258.378067 89.009822 
L 259.24924 89.09011 
L 260.991586 89.029497 
L 262.733932 89.205007 
L 271.445662 89.380064 
L 272.316835 89.456987 
L 273.188008 89.084813 
L 275.801527 88.961339 
L 275.801527 88.961339 
" style="fill:none;stroke:#35b779;stroke-linecap:square;stroke-width:1.5;"/>
   </g>
   <g id="line2d_21">
    <path clip-path="url(#p5a31694cab)" d="M 53.652415 71.542675 
L 69.333529 71.542675 
L 70.204702 72.818578 
L 71.075875 72.639463 
L 71.947048 72.268209 
L 72.818221 72.839013 
L 73.689394 72.462285 
L 74.560567 72.506696 
L 75.43174 72.254158 
L 76.302913 72.296628 
L 77.174086 71.912513 
L 78.916431 71.416695 
L 82.401123 71.577711 
L 83.272296 71.865733 
L 84.143469 71.501378 
L 85.885815 71.124295 
L 86.756988 70.79435 
L 88.499334 70.898095 
L 89.370507 70.825061 
L 90.24168 70.189398 
L 91.112853 70.295593 
L 91.984026 70.075984 
L 92.855199 70.051906 
L 94.597545 70.179185 
L 95.468718 70.539802 
L 98.082237 70.769277 
L 98.95341 71.073732 
L 101.566929 70.83692 
L 102.438102 71.178834 
L 103.309275 70.933154 
L 104.180448 70.910226 
L 105.051621 70.737998 
L 105.922794 70.921502 
L 106.793967 70.950176 
L 107.66514 70.826014 
L 113.763351 70.77303 
L 114.634524 70.618698 
L 117.248043 71.240878 
L 118.119216 70.218105 
L 118.990389 69.808259 
L 119.861562 69.658805 
L 120.732735 69.925551 
L 121.603908 70.617758 
L 122.475081 70.754072 
L 123.346254 70.35763 
L 124.217427 71.022677 
L 125.0886 70.739261 
L 125.959773 71.380548 
L 126.830946 71.635819 
L 128.573292 73.109525 
L 129.444465 71.826663 
L 130.315638 71.693025 
L 131.186811 71.346834 
L 132.929157 72.005942 
L 133.80033 72.002452 
L 135.542676 72.416678 
L 136.413849 73.083722 
L 138.156195 72.250313 
L 139.898541 72.323093 
L 140.769714 71.58165 
L 143.383233 70.773184 
L 144.254406 70.86318 
L 145.125579 71.434021 
L 145.996752 71.862235 
L 146.867925 71.964248 
L 147.739098 72.36964 
L 148.610271 71.785196 
L 149.481444 71.543636 
L 150.352617 71.487942 
L 151.22379 71.105059 
L 152.094963 70.598721 
L 152.966136 70.347804 
L 153.837309 70.329088 
L 154.708482 70.725124 
L 155.579655 70.560572 
L 157.322001 71.104672 
L 158.193174 71.319449 
L 159.064347 71.246542 
L 159.93552 72.097717 
L 160.806693 72.386087 
L 162.549039 72.633584 
L 163.420212 72.504458 
L 164.291385 71.815856 
L 165.162558 71.910508 
L 166.033731 71.833253 
L 166.904904 72.013259 
L 167.776076 72.396627 
L 168.647249 72.306228 
L 170.389595 72.378355 
L 171.260768 72.591451 
L 172.131941 72.069865 
L 173.003114 71.82789 
L 173.874287 71.433602 
L 174.74546 71.332054 
L 175.616633 71.352815 
L 176.487806 70.982382 
L 178.230152 71.465737 
L 179.101325 71.5615 
L 179.972498 71.27956 
L 183.45719 71.4889 
L 184.328363 71.384366 
L 185.199536 71.582758 
L 186.070709 72.242942 
L 186.941882 72.128147 
L 188.684228 72.433224 
L 189.555401 72.119845 
L 190.426574 72.035906 
L 191.297747 72.235019 
L 192.16892 72.216073 
L 193.911266 72.792653 
L 194.782439 72.513041 
L 195.653612 72.642461 
L 198.267131 72.241921 
L 199.138304 71.654325 
L 200.009477 71.48 
L 200.88065 70.977496 
L 201.751823 71.034546 
L 202.622996 70.662262 
L 204.365342 70.722687 
L 205.236515 70.521242 
L 206.978861 70.437483 
L 207.850034 70.059198 
L 208.721207 70.250325 
L 209.59238 69.80577 
L 210.463553 69.918942 
L 211.334726 69.820431 
L 212.205899 69.918099 
L 213.077072 69.879003 
L 213.948245 70.151559 
L 214.819418 70.617791 
L 215.690591 70.743994 
L 216.561764 71.111658 
L 217.432937 71.30148 
L 218.30411 71.632174 
L 219.175283 71.044768 
L 220.917629 71.20704 
L 221.788802 70.989722 
L 222.659975 71.001615 
L 224.402321 70.893989 
L 225.273494 70.840131 
L 226.144667 70.168166 
L 227.01584 70.079137 
L 227.887013 70.714854 
L 228.758186 70.725009 
L 230.500532 71.038076 
L 231.371705 71.009387 
L 233.985224 71.438283 
L 234.856397 71.760808 
L 235.72757 71.641791 
L 236.598743 71.385689 
L 238.341089 71.004229 
L 239.212262 71.146787 
L 240.083435 71.129024 
L 240.954608 71.337618 
L 241.825781 71.274962 
L 242.696954 71.402234 
L 243.568127 71.900445 
L 244.4393 71.927392 
L 245.310473 72.232059 
L 246.181646 72.268369 
L 247.052819 71.786677 
L 247.923992 71.887152 
L 248.795165 71.50011 
L 249.666338 71.78197 
L 250.537511 71.43647 
L 252.279857 71.390184 
L 253.15103 71.75506 
L 254.022203 71.461182 
L 254.893376 71.37244 
L 255.764549 71.412518 
L 256.635721 71.2591 
L 257.506894 71.374275 
L 258.378067 71.221386 
L 259.24924 71.301673 
L 260.991586 71.241061 
L 262.733932 71.41657 
L 271.445662 71.591628 
L 272.316835 71.66855 
L 273.188008 71.296376 
L 276.6727 71.083469 
L 277.543873 70.78392 
L 278.415046 70.890676 
L 281.028565 70.729362 
L 281.899738 71.232102 
L 282.770911 71.38212 
L 284.513257 72.090999 
L 285.38443 71.528261 
L 287.126776 71.269906 
L 287.997949 71.356622 
L 288.869122 71.786514 
L 289.740295 71.654515 
L 290.611468 71.381772 
L 292.353814 71.532372 
L 293.224987 71.399519 
L 294.967333 71.001781 
L 295.838506 70.886542 
L 296.709679 71.113446 
L 300.194371 70.830769 
L 301.065544 71.163906 
L 301.936717 71.645222 
L 302.80789 72.287677 
L 303.679063 72.076592 
L 304.550236 72.060148 
L 306.292582 71.566525 
L 307.163755 71.801393 
L 307.163755 71.801393 
" style="fill:none;stroke:#6ece58;stroke-linecap:square;stroke-width:1.5;"/>
   </g>
   <g id="line2d_22">
    <path clip-path="url(#p5a31694cab)" d="M 53.652415 53.754238 
L 69.333529 53.754238 
L 70.204702 55.030142 
L 71.075875 54.851027 
L 71.947048 54.479772 
L 72.818221 55.050577 
L 73.689394 54.673849 
L 74.560567 54.71826 
L 75.43174 54.465722 
L 76.302913 54.508192 
L 77.174086 54.124077 
L 78.916431 53.628259 
L 82.401123 53.789275 
L 83.272296 54.077296 
L 84.143469 53.712942 
L 85.885815 53.335859 
L 86.756988 53.005914 
L 88.499334 53.109658 
L 89.370507 53.036624 
L 90.24168 52.400961 
L 91.112853 52.507157 
L 91.984026 52.287548 
L 92.855199 52.263469 
L 94.597545 52.390748 
L 95.468718 52.751366 
L 98.082237 52.980841 
L 98.95341 53.285295 
L 101.566929 53.048483 
L 102.438102 53.390397 
L 103.309275 53.144718 
L 104.180448 53.12179 
L 105.051621 52.949562 
L 105.922794 53.133065 
L 106.793967 53.161739 
L 107.66514 53.037578 
L 113.763351 52.984594 
L 114.634524 52.830261 
L 117.248043 53.452441 
L 118.119216 52.429669 
L 118.990389 52.019823 
L 119.861562 51.870368 
L 120.732735 52.137115 
L 121.603908 52.829322 
L 122.475081 52.965635 
L 123.346254 52.569194 
L 124.217427 53.234241 
L 125.0886 52.950825 
L 125.959773 53.592112 
L 126.830946 53.847383 
L 128.573292 55.321089 
L 129.444465 54.038226 
L 130.315638 53.904588 
L 131.186811 53.558398 
L 132.929157 54.217506 
L 133.80033 54.214016 
L 135.542676 54.628241 
L 136.413849 55.295286 
L 138.156195 54.461877 
L 139.898541 54.534657 
L 140.769714 53.793214 
L 143.383233 52.984748 
L 144.254406 53.074744 
L 145.125579 53.645585 
L 145.996752 54.073798 
L 146.867925 54.175811 
L 147.739098 54.581204 
L 148.610271 53.996759 
L 149.481444 53.7552 
L 150.352617 53.699505 
L 151.22379 53.316623 
L 152.094963 52.810284 
L 152.966136 52.559368 
L 153.837309 52.540652 
L 154.708482 52.936687 
L 155.579655 52.772136 
L 157.322001 53.316235 
L 158.193174 53.531013 
L 159.064347 53.458106 
L 159.93552 54.309281 
L 160.806693 54.59765 
L 162.549039 54.845148 
L 163.420212 54.716022 
L 164.291385 54.02742 
L 165.162558 54.122071 
L 166.033731 54.044816 
L 166.904904 54.224823 
L 167.776076 54.608191 
L 168.647249 54.517791 
L 170.389595 54.589919 
L 171.260768 54.803015 
L 172.131941 54.281429 
L 173.003114 54.039453 
L 173.874287 53.645166 
L 174.74546 53.543617 
L 175.616633 53.564378 
L 176.487806 53.193946 
L 178.230152 53.677301 
L 179.101325 53.773064 
L 179.972498 53.491124 
L 183.45719 53.700464 
L 184.328363 53.59593 
L 185.199536 53.794322 
L 186.070709 54.454505 
L 186.941882 54.339711 
L 188.684228 54.644788 
L 189.555401 54.331409 
L 190.426574 54.24747 
L 191.297747 54.446583 
L 192.16892 54.427636 
L 193.911266 55.004216 
L 194.782439 54.724604 
L 195.653612 54.854025 
L 198.267131 54.453485 
L 199.138304 53.865889 
L 200.009477 53.691564 
L 200.88065 53.18906 
L 201.751823 53.246109 
L 202.622996 52.873825 
L 204.365342 52.93425 
L 205.236515 52.732805 
L 206.978861 52.649046 
L 207.850034 52.270761 
L 208.721207 52.461889 
L 209.59238 52.017333 
L 210.463553 52.130505 
L 211.334726 52.031994 
L 212.205899 52.129662 
L 213.077072 52.090566 
L 213.948245 52.363123 
L 214.819418 52.829355 
L 215.690591 52.955557 
L 216.561764 53.323221 
L 217.432937 53.513043 
L 218.30411 53.843738 
L 219.175283 53.256331 
L 220.917629 53.418603 
L 221.788802 53.201286 
L 222.659975 53.213179 
L 224.402321 53.105552 
L 225.273494 53.051694 
L 226.144667 52.37973 
L 227.01584 52.290701 
L 227.887013 52.926417 
L 228.758186 52.936572 
L 230.500532 53.249639 
L 231.371705 53.22095 
L 233.985224 53.649847 
L 234.856397 53.972372 
L 235.72757 53.853355 
L 236.598743 53.597252 
L 238.341089 53.215792 
L 239.212262 53.35835 
L 240.083435 53.340588 
L 240.954608 53.549182 
L 241.825781 53.486526 
L 242.696954 53.613797 
L 243.568127 54.112009 
L 244.4393 54.138955 
L 245.310473 54.443623 
L 246.181646 54.479932 
L 247.052819 53.998241 
L 247.923992 54.098716 
L 248.795165 53.711673 
L 249.666338 53.993533 
L 250.537511 53.648034 
L 252.279857 53.601747 
L 253.15103 53.966624 
L 254.022203 53.672746 
L 254.893376 53.584003 
L 255.764549 53.624081 
L 256.635721 53.470663 
L 257.506894 53.585838 
L 258.378067 53.432949 
L 259.24924 53.513237 
L 260.991586 53.452624 
L 262.733932 53.628134 
L 271.445662 53.803191 
L 272.316835 53.880114 
L 273.188008 53.50794 
L 276.6727 53.295033 
L 277.543873 52.995483 
L 278.415046 53.102239 
L 281.028565 52.940926 
L 281.899738 53.443665 
L 282.770911 53.593683 
L 284.513257 54.302563 
L 285.38443 53.739824 
L 287.126776 53.481469 
L 287.997949 53.568186 
L 288.869122 53.998077 
L 289.740295 53.866079 
L 290.611468 53.593336 
L 292.353814 53.743936 
L 293.224987 53.611083 
L 294.967333 53.213345 
L 295.838506 53.098106 
L 296.709679 53.32501 
L 300.194371 53.042332 
L 301.065544 53.37547 
L 301.936717 53.856786 
L 302.80789 54.49924 
L 303.679063 54.288156 
L 304.550236 54.271711 
L 306.292582 53.778088 
L 307.163755 54.012957 
L 308.034928 53.882055 
L 308.906101 53.526677 
L 309.777274 53.54822 
L 310.648447 53.8183 
L 311.51962 53.807442 
L 313.261966 54.251451 
L 314.133139 53.962781 
L 315.004312 53.870709 
L 315.875485 54.266209 
L 316.746658 55.008651 
L 317.617831 54.690009 
L 318.489004 54.831815 
L 319.360177 54.339252 
L 320.23135 54.243824 
L 321.102523 54.342963 
L 322.844869 53.691978 
L 327.200734 53.984856 
L 328.94308 54.208927 
L 331.556599 54.310689 
L 332.427772 54.482916 
L 334.170118 54.172338 
L 335.912464 54.633146 
L 338.525983 53.791431 
L 338.525983 53.791431 
" style="fill:none;stroke:#b5de2b;stroke-linecap:square;stroke-width:1.5;"/>
   </g>
   <g id="line2d_23">
    <path clip-path="url(#p5a31694cab)" d="M 53.652415 35.965802 
L 69.333529 35.965802 
L 70.204702 37.241705 
L 71.075875 37.062591 
L 71.947048 36.691336 
L 72.818221 37.26214 
L 73.689394 36.885412 
L 74.560567 36.929823 
L 75.43174 36.677285 
L 76.302913 36.719755 
L 77.174086 36.33564 
L 78.916431 35.839822 
L 82.401123 36.000838 
L 83.272296 36.28886 
L 84.143469 35.924505 
L 85.885815 35.547422 
L 86.756988 35.217478 
L 88.499334 35.321222 
L 89.370507 35.248188 
L 90.24168 34.612525 
L 91.112853 34.71872 
L 91.984026 34.499111 
L 92.855199 34.475033 
L 94.597545 34.602312 
L 95.468718 34.962929 
L 98.082237 35.192405 
L 98.95341 35.496859 
L 101.566929 35.260047 
L 102.438102 35.601961 
L 103.309275 35.356281 
L 104.180448 35.333353 
L 105.051621 35.161126 
L 105.922794 35.344629 
L 106.793967 35.373303 
L 107.66514 35.249141 
L 113.763351 35.196157 
L 114.634524 35.041825 
L 117.248043 35.664005 
L 118.119216 34.641232 
L 118.990389 34.231386 
L 119.861562 34.081932 
L 120.732735 34.348678 
L 121.603908 35.040885 
L 122.475081 35.177199 
L 123.346254 34.780757 
L 124.217427 35.445804 
L 125.0886 35.162389 
L 125.959773 35.803675 
L 126.830946 36.058946 
L 128.573292 37.532652 
L 129.444465 36.24979 
L 130.315638 36.116152 
L 131.186811 35.769962 
L 132.929157 36.42907 
L 133.80033 36.425579 
L 135.542676 36.839805 
L 136.413849 37.506849 
L 138.156195 36.67344 
L 139.898541 36.74622 
L 140.769714 36.004777 
L 143.383233 35.196311 
L 144.254406 35.286307 
L 145.125579 35.857148 
L 145.996752 36.285362 
L 146.867925 36.387375 
L 147.739098 36.792767 
L 148.610271 36.208323 
L 149.481444 35.966763 
L 150.352617 35.911069 
L 151.22379 35.528186 
L 152.094963 35.021848 
L 152.966136 34.770931 
L 153.837309 34.752216 
L 154.708482 35.148251 
L 155.579655 34.983699 
L 157.322001 35.527799 
L 158.193174 35.742576 
L 159.064347 35.669669 
L 159.93552 36.520844 
L 160.806693 36.809214 
L 162.549039 37.056711 
L 163.420212 36.927586 
L 164.291385 36.238983 
L 165.162558 36.333635 
L 166.033731 36.25638 
L 166.904904 36.436386 
L 167.776076 36.819754 
L 168.647249 36.729355 
L 170.389595 36.801482 
L 171.260768 37.014578 
L 172.131941 36.492992 
L 173.003114 36.251017 
L 173.874287 35.856729 
L 174.74546 35.755181 
L 175.616633 35.775942 
L 176.487806 35.405509 
L 178.230152 35.888864 
L 179.101325 35.984628 
L 179.972498 35.702687 
L 183.45719 35.912027 
L 184.328363 35.807493 
L 185.199536 36.005885 
L 186.070709 36.666069 
L 186.941882 36.551275 
L 188.684228 36.856352 
L 189.555401 36.542972 
L 190.426574 36.459034 
L 191.297747 36.658147 
L 192.16892 36.6392 
L 193.911266 37.21578 
L 194.782439 36.936168 
L 195.653612 37.065589 
L 198.267131 36.665048 
L 199.138304 36.077452 
L 200.009477 35.903127 
L 200.88065 35.400624 
L 201.751823 35.457673 
L 202.622996 35.085389 
L 204.365342 35.145814 
L 205.236515 34.944369 
L 206.978861 34.86061 
L 207.850034 34.482325 
L 208.721207 34.673452 
L 209.59238 34.228897 
L 210.463553 34.342069 
L 211.334726 34.243558 
L 212.205899 34.341226 
L 213.077072 34.30213 
L 213.948245 34.574687 
L 214.819418 35.040919 
L 215.690591 35.167121 
L 216.561764 35.534785 
L 217.432937 35.724607 
L 218.30411 36.055302 
L 219.175283 35.467895 
L 220.917629 35.630167 
L 221.788802 35.412849 
L 222.659975 35.424742 
L 224.402321 35.317116 
L 225.273494 35.263258 
L 226.144667 34.591293 
L 227.01584 34.502264 
L 227.887013 35.137981 
L 228.758186 35.148136 
L 230.500532 35.461203 
L 231.371705 35.432514 
L 233.985224 35.861411 
L 234.856397 36.183935 
L 235.72757 36.064919 
L 236.598743 35.808816 
L 238.341089 35.427356 
L 239.212262 35.569914 
L 240.083435 35.552152 
L 240.954608 35.760745 
L 241.825781 35.698089 
L 242.696954 35.825361 
L 243.568127 36.323572 
L 244.4393 36.350519 
L 245.310473 36.655186 
L 246.181646 36.691496 
L 247.052819 36.209804 
L 247.923992 36.310279 
L 248.795165 35.923237 
L 249.666338 36.205097 
L 250.537511 35.859598 
L 252.279857 35.813311 
L 253.15103 36.178187 
L 254.022203 35.884309 
L 254.893376 35.795567 
L 255.764549 35.835645 
L 256.635721 35.682227 
L 257.506894 35.797402 
L 258.378067 35.644513 
L 259.24924 35.7248 
L 260.991586 35.664188 
L 262.733932 35.839697 
L 271.445662 36.014755 
L 272.316835 36.091677 
L 273.188008 35.719503 
L 276.6727 35.506597 
L 277.543873 35.207047 
L 278.415046 35.313803 
L 281.028565 35.152489 
L 281.899738 35.655229 
L 282.770911 35.805247 
L 284.513257 36.514126 
L 285.38443 35.951388 
L 287.126776 35.693033 
L 287.997949 35.779749 
L 288.869122 36.209641 
L 289.740295 36.077642 
L 290.611468 35.8049 
L 292.353814 35.9555 
L 293.224987 35.822646 
L 294.967333 35.424908 
L 295.838506 35.309669 
L 296.709679 35.536574 
L 300.194371 35.253896 
L 301.065544 35.587033 
L 301.936717 36.068349 
L 302.80789 36.710804 
L 303.679063 36.499719 
L 304.550236 36.483275 
L 306.292582 35.989652 
L 307.163755 36.22452 
L 308.034928 36.093619 
L 308.906101 35.73824 
L 309.777274 35.759784 
L 310.648447 36.029864 
L 311.51962 36.019005 
L 313.261966 36.463015 
L 314.133139 36.174345 
L 315.004312 36.082273 
L 315.875485 36.477773 
L 316.746658 37.220215 
L 317.617831 36.901573 
L 318.489004 37.043379 
L 319.360177 36.550816 
L 320.23135 36.455387 
L 321.102523 36.554526 
L 322.844869 35.903541 
L 327.200734 36.19642 
L 328.94308 36.420491 
L 331.556599 36.522252 
L 332.427772 36.694479 
L 334.170118 36.383902 
L 335.912464 36.84471 
L 338.525983 36.002995 
L 339.397156 35.561983 
L 340.268329 35.43867 
L 341.139502 35.58155 
L 342.010675 35.594147 
L 342.881848 35.776345 
L 343.753021 35.594513 
L 344.624194 35.811614 
L 346.366539 35.680214 
L 347.237712 35.859482 
L 348.980058 35.871581 
L 349.851231 35.822233 
L 352.46475 36.399239 
L 353.335923 36.803655 
L 355.949442 36.424937 
L 356.820615 36.671054 
L 358.562961 36.738527 
L 359.434134 36.453155 
L 360.305307 36.518846 
L 361.17648 36.352835 
L 362.047653 35.785606 
L 362.918826 35.90552 
L 363.789999 35.863455 
L 364.661172 36.000418 
L 366.403518 36.56093 
L 368.145864 36.502407 
L 369.017037 36.755861 
L 369.88821 36.679784 
L 369.88821 36.679784 
" style="fill:none;stroke:#fde725;stroke-linecap:square;stroke-width:1.5;"/>
   </g>
   <g id="patch_3">
    <path d="M 37.840625 205.521875 
L 37.840625 25.918125 
" style="fill:none;stroke:#000000;stroke-linecap:square;stroke-linejoin:miter;stroke-width:0.8;"/>
   </g>
   <g id="patch_4">
    <path d="M 385.7 205.521875 
L 385.7 25.918125 
" style="fill:none;stroke:#000000;stroke-linecap:square;stroke-linejoin:miter;stroke-width:0.8;"/>
   </g>
   <g id="patch_5">
    <path d="M 37.840625 205.521875 
L 385.7 205.521875 
" style="fill:none;stroke:#000000;stroke-linecap:square;stroke-linejoin:miter;stroke-width:0.8;"/>
   </g>
   <g id="patch_6">
    <path d="M 37.840625 25.918125 
L 385.7 25.918125 
" style="fill:none;stroke:#000000;stroke-linecap:square;stroke-linejoin:miter;stroke-width:0.8;"/>
   </g>
   <g id="text_15">
    <!-- Training data on each CV iteration -->
    <defs>
     <path d="M -0.296875 72.90625 
L 61.375 72.90625 
L 61.375 64.59375 
L 35.5 64.59375 
L 35.5 0 
L 25.59375 0 
L 25.59375 64.59375 
L -0.296875 64.59375 
z
" id="DejaVuSans-54"/>
     <path d="M 45.40625 27.984375 
Q 45.40625 37.75 41.375 43.109375 
Q 37.359375 48.484375 30.078125 48.484375 
Q 22.859375 48.484375 18.828125 43.109375 
Q 14.796875 37.75 14.796875 27.984375 
Q 14.796875 18.265625 18.828125 12.890625 
Q 22.859375 7.515625 30.078125 7.515625 
Q 37.359375 7.515625 41.375 12.890625 
Q 45.40625 18.265625 45.40625 27.984375 
z
M 54.390625 6.78125 
Q 54.390625 -7.171875 48.1875 -13.984375 
Q 42 -20.796875 29.203125 -20.796875 
Q 24.46875 -20.796875 20.265625 -20.09375 
Q 16.0625 -19.390625 12.109375 -17.921875 
L 12.109375 -9.1875 
Q 16.0625 -11.328125 19.921875 -12.34375 
Q 23.78125 -13.375 27.78125 -13.375 
Q 36.625 -13.375 41.015625 -8.765625 
Q 45.40625 -4.15625 45.40625 5.171875 
L 45.40625 9.625 
Q 42.625 4.78125 38.28125 2.390625 
Q 33.9375 0 27.875 0 
Q 17.828125 0 11.671875 7.65625 
Q 5.515625 15.328125 5.515625 27.984375 
Q 5.515625 40.671875 11.671875 48.328125 
Q 17.828125 56 27.875 56 
Q 33.9375 56 38.28125 53.609375 
Q 42.625 51.21875 45.40625 46.390625 
L 45.40625 54.6875 
L 54.390625 54.6875 
z
" id="DejaVuSans-67"/>
     <path d="M 45.40625 46.390625 
L 45.40625 75.984375 
L 54.390625 75.984375 
L 54.390625 0 
L 45.40625 0 
L 45.40625 8.203125 
Q 42.578125 3.328125 38.25 0.953125 
Q 33.9375 -1.421875 27.875 -1.421875 
Q 17.96875 -1.421875 11.734375 6.484375 
Q 5.515625 14.40625 5.515625 27.296875 
Q 5.515625 40.1875 11.734375 48.09375 
Q 17.96875 56 27.875 56 
Q 33.9375 56 38.25 53.625 
Q 42.578125 51.265625 45.40625 46.390625 
z
M 14.796875 27.296875 
Q 14.796875 17.390625 18.875 11.75 
Q 22.953125 6.109375 30.078125 6.109375 
Q 37.203125 6.109375 41.296875 11.75 
Q 45.40625 17.390625 45.40625 27.296875 
Q 45.40625 37.203125 41.296875 42.84375 
Q 37.203125 48.484375 30.078125 48.484375 
Q 22.953125 48.484375 18.875 42.84375 
Q 14.796875 37.203125 14.796875 27.296875 
z
" id="DejaVuSans-64"/>
     <path d="M 48.78125 52.59375 
L 48.78125 44.1875 
Q 44.96875 46.296875 41.140625 47.34375 
Q 37.3125 48.390625 33.40625 48.390625 
Q 24.65625 48.390625 19.8125 42.84375 
Q 14.984375 37.3125 14.984375 27.296875 
Q 14.984375 17.28125 19.8125 11.734375 
Q 24.65625 6.203125 33.40625 6.203125 
Q 37.3125 6.203125 41.140625 7.25 
Q 44.96875 8.296875 48.78125 10.40625 
L 48.78125 2.09375 
Q 45.015625 0.34375 40.984375 -0.53125 
Q 36.96875 -1.421875 32.421875 -1.421875 
Q 20.0625 -1.421875 12.78125 6.34375 
Q 5.515625 14.109375 5.515625 27.296875 
Q 5.515625 40.671875 12.859375 48.328125 
Q 20.21875 56 33.015625 56 
Q 37.15625 56 41.109375 55.140625 
Q 45.0625 54.296875 48.78125 52.59375 
z
" id="DejaVuSans-63"/>
     <path d="M 54.890625 33.015625 
L 54.890625 0 
L 45.90625 0 
L 45.90625 32.71875 
Q 45.90625 40.484375 42.875 44.328125 
Q 39.84375 48.1875 33.796875 48.1875 
Q 26.515625 48.1875 22.3125 43.546875 
Q 18.109375 38.921875 18.109375 30.90625 
L 18.109375 0 
L 9.078125 0 
L 9.078125 75.984375 
L 18.109375 75.984375 
L 18.109375 46.1875 
Q 21.34375 51.125 25.703125 53.5625 
Q 30.078125 56 35.796875 56 
Q 45.21875 56 50.046875 50.171875 
Q 54.890625 44.34375 54.890625 33.015625 
z
" id="DejaVuSans-68"/>
    </defs>
    <g transform="translate(108.592812 19.918125)scale(0.12 -0.12)">
     <use xlink:href="#DejaVuSans-54"/>
     <use x="60.865234" xlink:href="#DejaVuSans-72"/>
     <use x="101.978516" xlink:href="#DejaVuSans-61"/>
     <use x="163.257812" xlink:href="#DejaVuSans-69"/>
     <use x="191.041016" xlink:href="#DejaVuSans-6e"/>
     <use x="254.419922" xlink:href="#DejaVuSans-69"/>
     <use x="282.203125" xlink:href="#DejaVuSans-6e"/>
     <use x="345.582031" xlink:href="#DejaVuSans-67"/>
     <use x="409.058594" xlink:href="#DejaVuSans-20"/>
     <use x="440.845703" xlink:href="#DejaVuSans-64"/>
     <use x="504.322266" xlink:href="#DejaVuSans-61"/>
     <use x="565.601562" xlink:href="#DejaVuSans-74"/>
     <use x="604.810547" xlink:href="#DejaVuSans-61"/>
     <use x="666.089844" xlink:href="#DejaVuSans-20"/>
     <use x="697.876953" xlink:href="#DejaVuSans-6f"/>
     <use x="759.058594" xlink:href="#DejaVuSans-6e"/>
     <use x="822.4375" xlink:href="#DejaVuSans-20"/>
     <use x="854.224609" xlink:href="#DejaVuSans-65"/>
     <use x="915.748047" xlink:href="#DejaVuSans-61"/>
     <use x="977.027344" xlink:href="#DejaVuSans-63"/>
     <use x="1032.007812" xlink:href="#DejaVuSans-68"/>
     <use x="1095.386719" xlink:href="#DejaVuSans-20"/>
     <use x="1127.173828" xlink:href="#DejaVuSans-43"/>
     <use x="1196.998047" xlink:href="#DejaVuSans-56"/>
     <use x="1265.40625" xlink:href="#DejaVuSans-20"/>
     <use x="1297.193359" xlink:href="#DejaVuSans-69"/>
     <use x="1324.976562" xlink:href="#DejaVuSans-74"/>
     <use x="1364.185547" xlink:href="#DejaVuSans-65"/>
     <use x="1425.708984" xlink:href="#DejaVuSans-72"/>
     <use x="1466.822266" xlink:href="#DejaVuSans-61"/>
     <use x="1528.101562" xlink:href="#DejaVuSans-74"/>
     <use x="1567.310547" xlink:href="#DejaVuSans-69"/>
     <use x="1595.09375" xlink:href="#DejaVuSans-6f"/>
     <use x="1656.275391" xlink:href="#DejaVuSans-6e"/>
    </g>
   </g>
  </g>
 </g>
 <defs>
  <clipPath id="p5a31694cab">
   <rect height="179.60375" width="347.859375" x="37.840625" y="25.918125"/>
  </clipPath>
 </defs>
</svg>
