<?xml version="1.0" encoding="utf-8" standalone="no"?>
<!DOCTYPE svg PUBLIC "-//W3C//DTD SVG 1.1//EN"
  "http://www.w3.org/Graphics/SVG/1.1/DTD/svg11.dtd">
<!-- Created with matplotlib (http://matplotlib.org/) -->
<svg height="233pt" version="1.1" viewBox="0 0 400 233" width="400pt" xmlns="http://www.w3.org/2000/svg" xmlns:xlink="http://www.w3.org/1999/xlink">
 <defs>
  <style type="text/css">
*{stroke-linecap:butt;stroke-linejoin:round;}
  </style>
 </defs>
 <g id="figure_1">
  <g id="patch_1">
   <path d="M 0 233 
L 400 233 
L 400 0 
L 0 0 
z
" style="fill:#ffffff;"/>
  </g>
  <g id="axes_1">
   <g id="patch_2">
    <path d="M 47.38125 191.84375 
L 385.7 191.84375 
L 385.7 14.3 
L 47.38125 14.3 
z
" style="fill:#ffffff;"/>
   </g>
   <g id="PathCollection_1">
    <defs>
     <path d="M 0 0.866025 
C 0.229673 0.866025 0.449969 0.774776 0.612372 0.612372 
C 0.774776 0.449969 0.866025 0.229673 0.866025 0 
C 0.866025 -0.229673 0.774776 -0.449969 0.612372 -0.612372 
C 0.449969 -0.774776 0.229673 -0.866025 0 -0.866025 
C -0.229673 -0.866025 -0.449969 -0.774776 -0.612372 -0.612372 
C -0.774776 -0.449969 -0.866025 -0.229673 -0.866025 0 
C -0.866025 0.229673 -0.774776 0.449969 -0.612372 0.612372 
C -0.449969 0.774776 -0.229673 0.866025 0 0.866025 
z
" id="mc5388cadb7" style="stroke:#ff0000;"/>
    </defs>
    <g clip-path="url(#pbe6781bd7b)">
     <use style="fill:#ff0000;stroke:#ff0000;" x="62.764905" xlink:href="#mc5388cadb7" y="23.014433"/>
     <use style="fill:#ff0000;stroke:#ff0000;" x="65.871485" xlink:href="#mc5388cadb7" y="24.631755"/>
     <use style="fill:#ff0000;stroke:#ff0000;" x="68.978066" xlink:href="#mc5388cadb7" y="26.249077"/>
     <use style="fill:#ff0000;stroke:#ff0000;" x="72.084646" xlink:href="#mc5388cadb7" y="27.866399"/>
     <use style="fill:#ff0000;stroke:#ff0000;" x="75.191226" xlink:href="#mc5388cadb7" y="29.483721"/>
     <use style="fill:#ff0000;stroke:#ff0000;" x="78.297806" xlink:href="#mc5388cadb7" y="31.101043"/>
     <use style="fill:#ff0000;stroke:#ff0000;" x="81.404386" xlink:href="#mc5388cadb7" y="32.718365"/>
     <use style="fill:#ff0000;stroke:#ff0000;" x="84.510967" xlink:href="#mc5388cadb7" y="34.335687"/>
     <use style="fill:#ff0000;stroke:#ff0000;" x="87.617547" xlink:href="#mc5388cadb7" y="35.953009"/>
     <use style="fill:#ff0000;stroke:#ff0000;" x="90.724127" xlink:href="#mc5388cadb7" y="37.570332"/>
     <use style="fill:#ff0000;stroke:#ff0000;" x="93.830707" xlink:href="#mc5388cadb7" y="39.187654"/>
     <use style="fill:#ff0000;stroke:#ff0000;" x="96.937287" xlink:href="#mc5388cadb7" y="40.804976"/>
     <use style="fill:#ff0000;stroke:#ff0000;" x="100.043868" xlink:href="#mc5388cadb7" y="42.422298"/>
     <use style="fill:#ff0000;stroke:#ff0000;" x="103.150448" xlink:href="#mc5388cadb7" y="44.03962"/>
     <use style="fill:#ff0000;stroke:#ff0000;" x="106.257028" xlink:href="#mc5388cadb7" y="45.656942"/>
     <use style="fill:#ff0000;stroke:#ff0000;" x="109.363608" xlink:href="#mc5388cadb7" y="47.274264"/>
     <use style="fill:#ff0000;stroke:#ff0000;" x="112.470188" xlink:href="#mc5388cadb7" y="48.891586"/>
     <use style="fill:#ff0000;stroke:#ff0000;" x="115.576769" xlink:href="#mc5388cadb7" y="50.508908"/>
     <use style="fill:#ff0000;stroke:#ff0000;" x="118.683349" xlink:href="#mc5388cadb7" y="52.12623"/>
     <use style="fill:#ff0000;stroke:#ff0000;" x="121.789929" xlink:href="#mc5388cadb7" y="53.743552"/>
     <use style="fill:#ff0000;stroke:#ff0000;" x="124.896509" xlink:href="#mc5388cadb7" y="55.360874"/>
     <use style="fill:#ff0000;stroke:#ff0000;" x="128.003089" xlink:href="#mc5388cadb7" y="56.978196"/>
     <use style="fill:#ff0000;stroke:#ff0000;" x="131.10967" xlink:href="#mc5388cadb7" y="58.595518"/>
     <use style="fill:#ff0000;stroke:#ff0000;" x="134.21625" xlink:href="#mc5388cadb7" y="60.21284"/>
     <use style="fill:#ff0000;stroke:#ff0000;" x="137.32283" xlink:href="#mc5388cadb7" y="61.830162"/>
     <use style="fill:#ff0000;stroke:#ff0000;" x="140.42941" xlink:href="#mc5388cadb7" y="63.447484"/>
     <use style="fill:#ff0000;stroke:#ff0000;" x="143.53599" xlink:href="#mc5388cadb7" y="65.064807"/>
     <use style="fill:#ff0000;stroke:#ff0000;" x="146.642571" xlink:href="#mc5388cadb7" y="66.682129"/>
     <use style="fill:#ff0000;stroke:#ff0000;" x="149.749151" xlink:href="#mc5388cadb7" y="68.299451"/>
     <use style="fill:#ff0000;stroke:#ff0000;" x="152.855731" xlink:href="#mc5388cadb7" y="69.916773"/>
     <use style="fill:#ff0000;stroke:#ff0000;" x="155.962311" xlink:href="#mc5388cadb7" y="71.534095"/>
     <use style="fill:#ff0000;stroke:#ff0000;" x="159.068891" xlink:href="#mc5388cadb7" y="73.151417"/>
     <use style="fill:#ff0000;stroke:#ff0000;" x="162.175472" xlink:href="#mc5388cadb7" y="74.768739"/>
     <use style="fill:#ff0000;stroke:#ff0000;" x="165.282052" xlink:href="#mc5388cadb7" y="76.386061"/>
     <use style="fill:#ff0000;stroke:#ff0000;" x="168.388632" xlink:href="#mc5388cadb7" y="78.003383"/>
     <use style="fill:#ff0000;stroke:#ff0000;" x="171.495212" xlink:href="#mc5388cadb7" y="79.620705"/>
     <use style="fill:#ff0000;stroke:#ff0000;" x="174.601792" xlink:href="#mc5388cadb7" y="81.238027"/>
     <use style="fill:#ff0000;stroke:#ff0000;" x="177.708373" xlink:href="#mc5388cadb7" y="82.855349"/>
     <use style="fill:#ff0000;stroke:#ff0000;" x="180.814953" xlink:href="#mc5388cadb7" y="84.472671"/>
     <use style="fill:#ff0000;stroke:#ff0000;" x="183.921533" xlink:href="#mc5388cadb7" y="86.089993"/>
     <use style="fill:#ff0000;stroke:#ff0000;" x="187.028113" xlink:href="#mc5388cadb7" y="87.707315"/>
     <use style="fill:#ff0000;stroke:#ff0000;" x="190.134693" xlink:href="#mc5388cadb7" y="89.324637"/>
     <use style="fill:#ff0000;stroke:#ff0000;" x="193.241274" xlink:href="#mc5388cadb7" y="90.94196"/>
     <use style="fill:#ff0000;stroke:#ff0000;" x="196.347854" xlink:href="#mc5388cadb7" y="92.559282"/>
     <use style="fill:#ff0000;stroke:#ff0000;" x="199.454434" xlink:href="#mc5388cadb7" y="94.176604"/>
     <use style="fill:#ff0000;stroke:#ff0000;" x="202.561014" xlink:href="#mc5388cadb7" y="95.793926"/>
     <use style="fill:#ff0000;stroke:#ff0000;" x="205.667594" xlink:href="#mc5388cadb7" y="97.411248"/>
     <use style="fill:#ff0000;stroke:#ff0000;" x="208.774175" xlink:href="#mc5388cadb7" y="99.02857"/>
     <use style="fill:#ff0000;stroke:#ff0000;" x="211.880755" xlink:href="#mc5388cadb7" y="100.645892"/>
     <use style="fill:#ff0000;stroke:#ff0000;" x="214.987335" xlink:href="#mc5388cadb7" y="102.263214"/>
     <use style="fill:#ff0000;stroke:#ff0000;" x="218.093915" xlink:href="#mc5388cadb7" y="103.880536"/>
     <use style="fill:#ff0000;stroke:#ff0000;" x="221.200495" xlink:href="#mc5388cadb7" y="105.497858"/>
     <use style="fill:#ff0000;stroke:#ff0000;" x="224.307075" xlink:href="#mc5388cadb7" y="107.11518"/>
     <use style="fill:#ff0000;stroke:#ff0000;" x="227.413656" xlink:href="#mc5388cadb7" y="108.732502"/>
     <use style="fill:#ff0000;stroke:#ff0000;" x="230.520236" xlink:href="#mc5388cadb7" y="110.349824"/>
     <use style="fill:#ff0000;stroke:#ff0000;" x="233.626816" xlink:href="#mc5388cadb7" y="111.967146"/>
     <use style="fill:#ff0000;stroke:#ff0000;" x="236.733396" xlink:href="#mc5388cadb7" y="113.584468"/>
     <use style="fill:#ff0000;stroke:#ff0000;" x="239.839976" xlink:href="#mc5388cadb7" y="115.20179"/>
     <use style="fill:#ff0000;stroke:#ff0000;" x="242.946557" xlink:href="#mc5388cadb7" y="116.819113"/>
     <use style="fill:#ff0000;stroke:#ff0000;" x="246.053137" xlink:href="#mc5388cadb7" y="118.436435"/>
     <use style="fill:#ff0000;stroke:#ff0000;" x="249.159717" xlink:href="#mc5388cadb7" y="120.053757"/>
     <use style="fill:#ff0000;stroke:#ff0000;" x="252.266297" xlink:href="#mc5388cadb7" y="121.671079"/>
     <use style="fill:#ff0000;stroke:#ff0000;" x="255.372877" xlink:href="#mc5388cadb7" y="123.288401"/>
     <use style="fill:#ff0000;stroke:#ff0000;" x="258.479458" xlink:href="#mc5388cadb7" y="124.905723"/>
     <use style="fill:#ff0000;stroke:#ff0000;" x="261.586038" xlink:href="#mc5388cadb7" y="126.523045"/>
     <use style="fill:#ff0000;stroke:#ff0000;" x="264.692618" xlink:href="#mc5388cadb7" y="128.140367"/>
     <use style="fill:#ff0000;stroke:#ff0000;" x="267.799198" xlink:href="#mc5388cadb7" y="129.757689"/>
     <use style="fill:#ff0000;stroke:#ff0000;" x="270.905778" xlink:href="#mc5388cadb7" y="131.375011"/>
     <use style="fill:#ff0000;stroke:#ff0000;" x="274.012359" xlink:href="#mc5388cadb7" y="132.992333"/>
     <use style="fill:#ff0000;stroke:#ff0000;" x="277.118939" xlink:href="#mc5388cadb7" y="134.609655"/>
     <use style="fill:#ff0000;stroke:#ff0000;" x="280.225519" xlink:href="#mc5388cadb7" y="136.226977"/>
     <use style="fill:#ff0000;stroke:#ff0000;" x="283.332099" xlink:href="#mc5388cadb7" y="137.844299"/>
     <use style="fill:#ff0000;stroke:#ff0000;" x="286.438679" xlink:href="#mc5388cadb7" y="139.461621"/>
     <use style="fill:#ff0000;stroke:#ff0000;" x="289.54526" xlink:href="#mc5388cadb7" y="141.078943"/>
     <use style="fill:#ff0000;stroke:#ff0000;" x="292.65184" xlink:href="#mc5388cadb7" y="142.696266"/>
     <use style="fill:#ff0000;stroke:#ff0000;" x="295.75842" xlink:href="#mc5388cadb7" y="144.313588"/>
     <use style="fill:#ff0000;stroke:#ff0000;" x="298.865" xlink:href="#mc5388cadb7" y="145.93091"/>
     <use style="fill:#ff0000;stroke:#ff0000;" x="301.97158" xlink:href="#mc5388cadb7" y="147.548232"/>
     <use style="fill:#ff0000;stroke:#ff0000;" x="305.078161" xlink:href="#mc5388cadb7" y="149.165554"/>
     <use style="fill:#ff0000;stroke:#ff0000;" x="308.184741" xlink:href="#mc5388cadb7" y="150.782876"/>
     <use style="fill:#ff0000;stroke:#ff0000;" x="311.291321" xlink:href="#mc5388cadb7" y="152.400198"/>
     <use style="fill:#ff0000;stroke:#ff0000;" x="314.397901" xlink:href="#mc5388cadb7" y="154.01752"/>
     <use style="fill:#ff0000;stroke:#ff0000;" x="317.504481" xlink:href="#mc5388cadb7" y="155.634842"/>
     <use style="fill:#ff0000;stroke:#ff0000;" x="320.611062" xlink:href="#mc5388cadb7" y="157.252164"/>
     <use style="fill:#ff0000;stroke:#ff0000;" x="323.717642" xlink:href="#mc5388cadb7" y="158.869486"/>
     <use style="fill:#ff0000;stroke:#ff0000;" x="326.824222" xlink:href="#mc5388cadb7" y="160.486808"/>
     <use style="fill:#ff0000;stroke:#ff0000;" x="329.930802" xlink:href="#mc5388cadb7" y="162.10413"/>
     <use style="fill:#ff0000;stroke:#ff0000;" x="333.037382" xlink:href="#mc5388cadb7" y="163.721452"/>
     <use style="fill:#ff0000;stroke:#ff0000;" x="336.143963" xlink:href="#mc5388cadb7" y="165.338774"/>
     <use style="fill:#ff0000;stroke:#ff0000;" x="339.250543" xlink:href="#mc5388cadb7" y="166.956096"/>
     <use style="fill:#ff0000;stroke:#ff0000;" x="342.357123" xlink:href="#mc5388cadb7" y="168.573418"/>
     <use style="fill:#ff0000;stroke:#ff0000;" x="345.463703" xlink:href="#mc5388cadb7" y="170.190741"/>
     <use style="fill:#ff0000;stroke:#ff0000;" x="348.570283" xlink:href="#mc5388cadb7" y="171.808063"/>
     <use style="fill:#ff0000;stroke:#ff0000;" x="351.676864" xlink:href="#mc5388cadb7" y="173.425385"/>
     <use style="fill:#ff0000;stroke:#ff0000;" x="354.783444" xlink:href="#mc5388cadb7" y="175.042707"/>
     <use style="fill:#ff0000;stroke:#ff0000;" x="357.890024" xlink:href="#mc5388cadb7" y="176.660029"/>
     <use style="fill:#ff0000;stroke:#ff0000;" x="360.996604" xlink:href="#mc5388cadb7" y="178.277351"/>
     <use style="fill:#ff0000;stroke:#ff0000;" x="364.103184" xlink:href="#mc5388cadb7" y="179.894673"/>
     <use style="fill:#ff0000;stroke:#ff0000;" x="367.209765" xlink:href="#mc5388cadb7" y="181.511995"/>
     <use style="fill:#ff0000;stroke:#ff0000;" x="370.316345" xlink:href="#mc5388cadb7" y="183.129317"/>
    </g>
   </g>
   <g id="matplotlib.axis_1">
    <g id="xtick_1">
     <g id="line2d_1">
      <defs>
       <path d="M 0 0 
L 0 3.5 
" id="m10a9ef18e2" style="stroke:#000000;stroke-width:0.8;"/>
      </defs>
      <g>
       <use style="stroke:#000000;stroke-width:0.8;" x="53.579538" xlink:href="#m10a9ef18e2" y="191.84375"/>
      </g>
     </g>
     <g id="text_1">
      <!-- 0 -->
      <defs>
       <path d="M 31.78125 66.40625 
Q 24.171875 66.40625 20.328125 58.90625 
Q 16.5 51.421875 16.5 36.375 
Q 16.5 21.390625 20.328125 13.890625 
Q 24.171875 6.390625 31.78125 6.390625 
Q 39.453125 6.390625 43.28125 13.890625 
Q 47.125 21.390625 47.125 36.375 
Q 47.125 51.421875 43.28125 58.90625 
Q 39.453125 66.40625 31.78125 66.40625 
z
M 31.78125 74.21875 
Q 44.046875 74.21875 50.515625 64.515625 
Q 56.984375 54.828125 56.984375 36.375 
Q 56.984375 17.96875 50.515625 8.265625 
Q 44.046875 -1.421875 31.78125 -1.421875 
Q 19.53125 -1.421875 13.0625 8.265625 
Q 6.59375 17.96875 6.59375 36.375 
Q 6.59375 54.828125 13.0625 64.515625 
Q 19.53125 74.21875 31.78125 74.21875 
z
" id="DejaVuSans-30"/>
      </defs>
      <g transform="translate(50.398288 206.442187)scale(0.1 -0.1)">
       <use xlink:href="#DejaVuSans-30"/>
      </g>
     </g>
    </g>
    <g id="xtick_2">
     <g id="line2d_2">
      <g>
       <use style="stroke:#000000;stroke-width:0.8;" x="116.926899" xlink:href="#m10a9ef18e2" y="191.84375"/>
      </g>
     </g>
     <g id="text_2">
      <!-- 20 -->
      <defs>
       <path d="M 19.1875 8.296875 
L 53.609375 8.296875 
L 53.609375 0 
L 7.328125 0 
L 7.328125 8.296875 
Q 12.9375 14.109375 22.625 23.890625 
Q 32.328125 33.6875 34.8125 36.53125 
Q 39.546875 41.84375 41.421875 45.53125 
Q 43.3125 49.21875 43.3125 52.78125 
Q 43.3125 58.59375 39.234375 62.25 
Q 35.15625 65.921875 28.609375 65.921875 
Q 23.96875 65.921875 18.8125 64.3125 
Q 13.671875 62.703125 7.8125 59.421875 
L 7.8125 69.390625 
Q 13.765625 71.78125 18.9375 73 
Q 24.125 74.21875 28.421875 74.21875 
Q 39.75 74.21875 46.484375 68.546875 
Q 53.21875 62.890625 53.21875 53.421875 
Q 53.21875 48.921875 51.53125 44.890625 
Q 49.859375 40.875 45.40625 35.40625 
Q 44.1875 33.984375 37.640625 27.21875 
Q 31.109375 20.453125 19.1875 8.296875 
z
" id="DejaVuSans-32"/>
      </defs>
      <g transform="translate(110.564399 206.442187)scale(0.1 -0.1)">
       <use xlink:href="#DejaVuSans-32"/>
       <use x="63.623047" xlink:href="#DejaVuSans-30"/>
      </g>
     </g>
    </g>
    <g id="xtick_3">
     <g id="line2d_3">
      <g>
       <use style="stroke:#000000;stroke-width:0.8;" x="180.274261" xlink:href="#m10a9ef18e2" y="191.84375"/>
      </g>
     </g>
     <g id="text_3">
      <!-- 40 -->
      <defs>
       <path d="M 37.796875 64.3125 
L 12.890625 25.390625 
L 37.796875 25.390625 
z
M 35.203125 72.90625 
L 47.609375 72.90625 
L 47.609375 25.390625 
L 58.015625 25.390625 
L 58.015625 17.1875 
L 47.609375 17.1875 
L 47.609375 0 
L 37.796875 0 
L 37.796875 17.1875 
L 4.890625 17.1875 
L 4.890625 26.703125 
z
" id="DejaVuSans-34"/>
      </defs>
      <g transform="translate(173.911761 206.442187)scale(0.1 -0.1)">
       <use xlink:href="#DejaVuSans-34"/>
       <use x="63.623047" xlink:href="#DejaVuSans-30"/>
      </g>
     </g>
    </g>
    <g id="xtick_4">
     <g id="line2d_4">
      <g>
       <use style="stroke:#000000;stroke-width:0.8;" x="243.621622" xlink:href="#m10a9ef18e2" y="191.84375"/>
      </g>
     </g>
     <g id="text_4">
      <!-- 60 -->
      <defs>
       <path d="M 33.015625 40.375 
Q 26.375 40.375 22.484375 35.828125 
Q 18.609375 31.296875 18.609375 23.390625 
Q 18.609375 15.53125 22.484375 10.953125 
Q 26.375 6.390625 33.015625 6.390625 
Q 39.65625 6.390625 43.53125 10.953125 
Q 47.40625 15.53125 47.40625 23.390625 
Q 47.40625 31.296875 43.53125 35.828125 
Q 39.65625 40.375 33.015625 40.375 
z
M 52.59375 71.296875 
L 52.59375 62.3125 
Q 48.875 64.0625 45.09375 64.984375 
Q 41.3125 65.921875 37.59375 65.921875 
Q 27.828125 65.921875 22.671875 59.328125 
Q 17.53125 52.734375 16.796875 39.40625 
Q 19.671875 43.65625 24.015625 45.921875 
Q 28.375 48.1875 33.59375 48.1875 
Q 44.578125 48.1875 50.953125 41.515625 
Q 57.328125 34.859375 57.328125 23.390625 
Q 57.328125 12.15625 50.6875 5.359375 
Q 44.046875 -1.421875 33.015625 -1.421875 
Q 20.359375 -1.421875 13.671875 8.265625 
Q 6.984375 17.96875 6.984375 36.375 
Q 6.984375 53.65625 15.1875 63.9375 
Q 23.390625 74.21875 37.203125 74.21875 
Q 40.921875 74.21875 44.703125 73.484375 
Q 48.484375 72.75 52.59375 71.296875 
z
" id="DejaVuSans-36"/>
      </defs>
      <g transform="translate(237.259122 206.442187)scale(0.1 -0.1)">
       <use xlink:href="#DejaVuSans-36"/>
       <use x="63.623047" xlink:href="#DejaVuSans-30"/>
      </g>
     </g>
    </g>
    <g id="xtick_5">
     <g id="line2d_5">
      <g>
       <use style="stroke:#000000;stroke-width:0.8;" x="306.968983" xlink:href="#m10a9ef18e2" y="191.84375"/>
      </g>
     </g>
     <g id="text_5">
      <!-- 80 -->
      <defs>
       <path d="M 31.78125 34.625 
Q 24.75 34.625 20.71875 30.859375 
Q 16.703125 27.09375 16.703125 20.515625 
Q 16.703125 13.921875 20.71875 10.15625 
Q 24.75 6.390625 31.78125 6.390625 
Q 38.8125 6.390625 42.859375 10.171875 
Q 46.921875 13.96875 46.921875 20.515625 
Q 46.921875 27.09375 42.890625 30.859375 
Q 38.875 34.625 31.78125 34.625 
z
M 21.921875 38.8125 
Q 15.578125 40.375 12.03125 44.71875 
Q 8.5 49.078125 8.5 55.328125 
Q 8.5 64.0625 14.71875 69.140625 
Q 20.953125 74.21875 31.78125 74.21875 
Q 42.671875 74.21875 48.875 69.140625 
Q 55.078125 64.0625 55.078125 55.328125 
Q 55.078125 49.078125 51.53125 44.71875 
Q 48 40.375 41.703125 38.8125 
Q 48.828125 37.15625 52.796875 32.3125 
Q 56.78125 27.484375 56.78125 20.515625 
Q 56.78125 9.90625 50.3125 4.234375 
Q 43.84375 -1.421875 31.78125 -1.421875 
Q 19.734375 -1.421875 13.25 4.234375 
Q 6.78125 9.90625 6.78125 20.515625 
Q 6.78125 27.484375 10.78125 32.3125 
Q 14.796875 37.15625 21.921875 38.8125 
z
M 18.3125 54.390625 
Q 18.3125 48.734375 21.84375 45.5625 
Q 25.390625 42.390625 31.78125 42.390625 
Q 38.140625 42.390625 41.71875 45.5625 
Q 45.3125 48.734375 45.3125 54.390625 
Q 45.3125 60.0625 41.71875 63.234375 
Q 38.140625 66.40625 31.78125 66.40625 
Q 25.390625 66.40625 21.84375 63.234375 
Q 18.3125 60.0625 18.3125 54.390625 
z
" id="DejaVuSans-38"/>
      </defs>
      <g transform="translate(300.606483 206.442187)scale(0.1 -0.1)">
       <use xlink:href="#DejaVuSans-38"/>
       <use x="63.623047" xlink:href="#DejaVuSans-30"/>
      </g>
     </g>
    </g>
    <g id="xtick_6">
     <g id="line2d_6">
      <g>
       <use style="stroke:#000000;stroke-width:0.8;" x="370.316345" xlink:href="#m10a9ef18e2" y="191.84375"/>
      </g>
     </g>
     <g id="text_6">
      <!-- 100 -->
      <defs>
       <path d="M 12.40625 8.296875 
L 28.515625 8.296875 
L 28.515625 63.921875 
L 10.984375 60.40625 
L 10.984375 69.390625 
L 28.421875 72.90625 
L 38.28125 72.90625 
L 38.28125 8.296875 
L 54.390625 8.296875 
L 54.390625 0 
L 12.40625 0 
z
" id="DejaVuSans-31"/>
      </defs>
      <g transform="translate(360.772595 206.442187)scale(0.1 -0.1)">
       <use xlink:href="#DejaVuSans-31"/>
       <use x="63.623047" xlink:href="#DejaVuSans-30"/>
       <use x="127.246094" xlink:href="#DejaVuSans-30"/>
      </g>
     </g>
    </g>
    <g id="text_7">
     <!-- inputs -->
     <defs>
      <path d="M 9.421875 54.6875 
L 18.40625 54.6875 
L 18.40625 0 
L 9.421875 0 
z
M 9.421875 75.984375 
L 18.40625 75.984375 
L 18.40625 64.59375 
L 9.421875 64.59375 
z
" id="DejaVuSans-69"/>
      <path d="M 54.890625 33.015625 
L 54.890625 0 
L 45.90625 0 
L 45.90625 32.71875 
Q 45.90625 40.484375 42.875 44.328125 
Q 39.84375 48.1875 33.796875 48.1875 
Q 26.515625 48.1875 22.3125 43.546875 
Q 18.109375 38.921875 18.109375 30.90625 
L 18.109375 0 
L 9.078125 0 
L 9.078125 54.6875 
L 18.109375 54.6875 
L 18.109375 46.1875 
Q 21.34375 51.125 25.703125 53.5625 
Q 30.078125 56 35.796875 56 
Q 45.21875 56 50.046875 50.171875 
Q 54.890625 44.34375 54.890625 33.015625 
z
" id="DejaVuSans-6e"/>
      <path d="M 18.109375 8.203125 
L 18.109375 -20.796875 
L 9.078125 -20.796875 
L 9.078125 54.6875 
L 18.109375 54.6875 
L 18.109375 46.390625 
Q 20.953125 51.265625 25.265625 53.625 
Q 29.59375 56 35.59375 56 
Q 45.5625 56 51.78125 48.09375 
Q 58.015625 40.1875 58.015625 27.296875 
Q 58.015625 14.40625 51.78125 6.484375 
Q 45.5625 -1.421875 35.59375 -1.421875 
Q 29.59375 -1.421875 25.265625 0.953125 
Q 20.953125 3.328125 18.109375 8.203125 
z
M 48.6875 27.296875 
Q 48.6875 37.203125 44.609375 42.84375 
Q 40.53125 48.484375 33.40625 48.484375 
Q 26.265625 48.484375 22.1875 42.84375 
Q 18.109375 37.203125 18.109375 27.296875 
Q 18.109375 17.390625 22.1875 11.75 
Q 26.265625 6.109375 33.40625 6.109375 
Q 40.53125 6.109375 44.609375 11.75 
Q 48.6875 17.390625 48.6875 27.296875 
z
" id="DejaVuSans-70"/>
      <path d="M 8.5 21.578125 
L 8.5 54.6875 
L 17.484375 54.6875 
L 17.484375 21.921875 
Q 17.484375 14.15625 20.5 10.265625 
Q 23.53125 6.390625 29.59375 6.390625 
Q 36.859375 6.390625 41.078125 11.03125 
Q 45.3125 15.671875 45.3125 23.6875 
L 45.3125 54.6875 
L 54.296875 54.6875 
L 54.296875 0 
L 45.3125 0 
L 45.3125 8.40625 
Q 42.046875 3.421875 37.71875 1 
Q 33.40625 -1.421875 27.6875 -1.421875 
Q 18.265625 -1.421875 13.375 4.4375 
Q 8.5 10.296875 8.5 21.578125 
z
M 31.109375 56 
z
" id="DejaVuSans-75"/>
      <path d="M 18.3125 70.21875 
L 18.3125 54.6875 
L 36.8125 54.6875 
L 36.8125 47.703125 
L 18.3125 47.703125 
L 18.3125 18.015625 
Q 18.3125 11.328125 20.140625 9.421875 
Q 21.96875 7.515625 27.59375 7.515625 
L 36.8125 7.515625 
L 36.8125 0 
L 27.59375 0 
Q 17.1875 0 13.234375 3.875 
Q 9.28125 7.765625 9.28125 18.015625 
L 9.28125 47.703125 
L 2.6875 47.703125 
L 2.6875 54.6875 
L 9.28125 54.6875 
L 9.28125 70.21875 
z
" id="DejaVuSans-74"/>
      <path d="M 44.28125 53.078125 
L 44.28125 44.578125 
Q 40.484375 46.53125 36.375 47.5 
Q 32.28125 48.484375 27.875 48.484375 
Q 21.1875 48.484375 17.84375 46.4375 
Q 14.5 44.390625 14.5 40.28125 
Q 14.5 37.15625 16.890625 35.375 
Q 19.28125 33.59375 26.515625 31.984375 
L 29.59375 31.296875 
Q 39.15625 29.25 43.1875 25.515625 
Q 47.21875 21.78125 47.21875 15.09375 
Q 47.21875 7.46875 41.1875 3.015625 
Q 35.15625 -1.421875 24.609375 -1.421875 
Q 20.21875 -1.421875 15.453125 -0.5625 
Q 10.6875 0.296875 5.421875 2 
L 5.421875 11.28125 
Q 10.40625 8.6875 15.234375 7.390625 
Q 20.0625 6.109375 24.8125 6.109375 
Q 31.15625 6.109375 34.5625 8.28125 
Q 37.984375 10.453125 37.984375 14.40625 
Q 37.984375 18.0625 35.515625 20.015625 
Q 33.0625 21.96875 24.703125 23.78125 
L 21.578125 24.515625 
Q 13.234375 26.265625 9.515625 29.90625 
Q 5.8125 33.546875 5.8125 39.890625 
Q 5.8125 47.609375 11.28125 51.796875 
Q 16.75 56 26.8125 56 
Q 31.78125 56 36.171875 55.265625 
Q 40.578125 54.546875 44.28125 53.078125 
z
" id="DejaVuSans-73"/>
     </defs>
     <g transform="translate(201.075 220.120312)scale(0.1 -0.1)">
      <use xlink:href="#DejaVuSans-69"/>
      <use x="27.783203" xlink:href="#DejaVuSans-6e"/>
      <use x="91.162109" xlink:href="#DejaVuSans-70"/>
      <use x="154.638672" xlink:href="#DejaVuSans-75"/>
      <use x="218.017578" xlink:href="#DejaVuSans-74"/>
      <use x="257.226562" xlink:href="#DejaVuSans-73"/>
     </g>
    </g>
   </g>
   <g id="matplotlib.axis_2">
    <g id="ytick_1">
     <g id="line2d_7">
      <defs>
       <path d="M 0 0 
L -3.5 0 
" id="mc9fc617026" style="stroke:#000000;stroke-width:0.8;"/>
      </defs>
      <g>
       <use style="stroke:#000000;stroke-width:0.8;" x="47.38125" xlink:href="#mc9fc617026" y="182.076752"/>
      </g>
     </g>
     <g id="text_8">
      <!-- 6.1 -->
      <defs>
       <path d="M 10.6875 12.40625 
L 21 12.40625 
L 21 0 
L 10.6875 0 
z
" id="DejaVuSans-2e"/>
      </defs>
      <g transform="translate(24.478125 185.875971)scale(0.1 -0.1)">
       <use xlink:href="#DejaVuSans-36"/>
       <use x="63.623047" xlink:href="#DejaVuSans-2e"/>
       <use x="95.410156" xlink:href="#DejaVuSans-31"/>
      </g>
     </g>
    </g>
    <g id="ytick_2">
     <g id="line2d_8">
      <g>
       <use style="stroke:#000000;stroke-width:0.8;" x="47.38125" xlink:href="#mc9fc617026" y="154.58109"/>
      </g>
     </g>
     <g id="text_9">
      <!-- 6.2 -->
      <g transform="translate(24.478125 158.380309)scale(0.1 -0.1)">
       <use xlink:href="#DejaVuSans-36"/>
       <use x="63.623047" xlink:href="#DejaVuSans-2e"/>
       <use x="95.410156" xlink:href="#DejaVuSans-32"/>
      </g>
     </g>
    </g>
    <g id="ytick_3">
     <g id="line2d_9">
      <g>
       <use style="stroke:#000000;stroke-width:0.8;" x="47.38125" xlink:href="#mc9fc617026" y="127.085428"/>
      </g>
     </g>
     <g id="text_10">
      <!-- 6.3 -->
      <defs>
       <path d="M 40.578125 39.3125 
Q 47.65625 37.796875 51.625 33 
Q 55.609375 28.21875 55.609375 21.1875 
Q 55.609375 10.40625 48.1875 4.484375 
Q 40.765625 -1.421875 27.09375 -1.421875 
Q 22.515625 -1.421875 17.65625 -0.515625 
Q 12.796875 0.390625 7.625 2.203125 
L 7.625 11.71875 
Q 11.71875 9.328125 16.59375 8.109375 
Q 21.484375 6.890625 26.8125 6.890625 
Q 36.078125 6.890625 40.9375 10.546875 
Q 45.796875 14.203125 45.796875 21.1875 
Q 45.796875 27.640625 41.28125 31.265625 
Q 36.765625 34.90625 28.71875 34.90625 
L 20.21875 34.90625 
L 20.21875 43.015625 
L 29.109375 43.015625 
Q 36.375 43.015625 40.234375 45.921875 
Q 44.09375 48.828125 44.09375 54.296875 
Q 44.09375 59.90625 40.109375 62.90625 
Q 36.140625 65.921875 28.71875 65.921875 
Q 24.65625 65.921875 20.015625 65.03125 
Q 15.375 64.15625 9.8125 62.3125 
L 9.8125 71.09375 
Q 15.4375 72.65625 20.34375 73.4375 
Q 25.25 74.21875 29.59375 74.21875 
Q 40.828125 74.21875 47.359375 69.109375 
Q 53.90625 64.015625 53.90625 55.328125 
Q 53.90625 49.265625 50.4375 45.09375 
Q 46.96875 40.921875 40.578125 39.3125 
z
" id="DejaVuSans-33"/>
      </defs>
      <g transform="translate(24.478125 130.884647)scale(0.1 -0.1)">
       <use xlink:href="#DejaVuSans-36"/>
       <use x="63.623047" xlink:href="#DejaVuSans-2e"/>
       <use x="95.410156" xlink:href="#DejaVuSans-33"/>
      </g>
     </g>
    </g>
    <g id="ytick_4">
     <g id="line2d_10">
      <g>
       <use style="stroke:#000000;stroke-width:0.8;" x="47.38125" xlink:href="#mc9fc617026" y="99.589766"/>
      </g>
     </g>
     <g id="text_11">
      <!-- 6.4 -->
      <g transform="translate(24.478125 103.388985)scale(0.1 -0.1)">
       <use xlink:href="#DejaVuSans-36"/>
       <use x="63.623047" xlink:href="#DejaVuSans-2e"/>
       <use x="95.410156" xlink:href="#DejaVuSans-34"/>
      </g>
     </g>
    </g>
    <g id="ytick_5">
     <g id="line2d_11">
      <g>
       <use style="stroke:#000000;stroke-width:0.8;" x="47.38125" xlink:href="#mc9fc617026" y="72.094104"/>
      </g>
     </g>
     <g id="text_12">
      <!-- 6.5 -->
      <defs>
       <path d="M 10.796875 72.90625 
L 49.515625 72.90625 
L 49.515625 64.59375 
L 19.828125 64.59375 
L 19.828125 46.734375 
Q 21.96875 47.46875 24.109375 47.828125 
Q 26.265625 48.1875 28.421875 48.1875 
Q 40.625 48.1875 47.75 41.5 
Q 54.890625 34.8125 54.890625 23.390625 
Q 54.890625 11.625 47.5625 5.09375 
Q 40.234375 -1.421875 26.90625 -1.421875 
Q 22.3125 -1.421875 17.546875 -0.640625 
Q 12.796875 0.140625 7.71875 1.703125 
L 7.71875 11.625 
Q 12.109375 9.234375 16.796875 8.0625 
Q 21.484375 6.890625 26.703125 6.890625 
Q 35.15625 6.890625 40.078125 11.328125 
Q 45.015625 15.765625 45.015625 23.390625 
Q 45.015625 31 40.078125 35.4375 
Q 35.15625 39.890625 26.703125 39.890625 
Q 22.75 39.890625 18.8125 39.015625 
Q 14.890625 38.140625 10.796875 36.28125 
z
" id="DejaVuSans-35"/>
      </defs>
      <g transform="translate(24.478125 75.893323)scale(0.1 -0.1)">
       <use xlink:href="#DejaVuSans-36"/>
       <use x="63.623047" xlink:href="#DejaVuSans-2e"/>
       <use x="95.410156" xlink:href="#DejaVuSans-35"/>
      </g>
     </g>
    </g>
    <g id="ytick_6">
     <g id="line2d_12">
      <g>
       <use style="stroke:#000000;stroke-width:0.8;" x="47.38125" xlink:href="#mc9fc617026" y="44.598442"/>
      </g>
     </g>
     <g id="text_13">
      <!-- 6.6 -->
      <g transform="translate(24.478125 48.397661)scale(0.1 -0.1)">
       <use xlink:href="#DejaVuSans-36"/>
       <use x="63.623047" xlink:href="#DejaVuSans-2e"/>
       <use x="95.410156" xlink:href="#DejaVuSans-36"/>
      </g>
     </g>
    </g>
    <g id="ytick_7">
     <g id="line2d_13">
      <g>
       <use style="stroke:#000000;stroke-width:0.8;" x="47.38125" xlink:href="#mc9fc617026" y="17.10278"/>
      </g>
     </g>
     <g id="text_14">
      <!-- 6.7 -->
      <defs>
       <path d="M 8.203125 72.90625 
L 55.078125 72.90625 
L 55.078125 68.703125 
L 28.609375 0 
L 18.3125 0 
L 43.21875 64.59375 
L 8.203125 64.59375 
z
" id="DejaVuSans-37"/>
      </defs>
      <g transform="translate(24.478125 20.901999)scale(0.1 -0.1)">
       <use xlink:href="#DejaVuSans-36"/>
       <use x="63.623047" xlink:href="#DejaVuSans-2e"/>
       <use x="95.410156" xlink:href="#DejaVuSans-37"/>
      </g>
     </g>
    </g>
    <g id="text_15">
     <!-- predictions -->
     <defs>
      <path d="M 41.109375 46.296875 
Q 39.59375 47.171875 37.8125 47.578125 
Q 36.03125 48 33.890625 48 
Q 26.265625 48 22.1875 43.046875 
Q 18.109375 38.09375 18.109375 28.8125 
L 18.109375 0 
L 9.078125 0 
L 9.078125 54.6875 
L 18.109375 54.6875 
L 18.109375 46.1875 
Q 20.953125 51.171875 25.484375 53.578125 
Q 30.03125 56 36.53125 56 
Q 37.453125 56 38.578125 55.875 
Q 39.703125 55.765625 41.0625 55.515625 
z
" id="DejaVuSans-72"/>
      <path d="M 56.203125 29.59375 
L 56.203125 25.203125 
L 14.890625 25.203125 
Q 15.484375 15.921875 20.484375 11.0625 
Q 25.484375 6.203125 34.421875 6.203125 
Q 39.59375 6.203125 44.453125 7.46875 
Q 49.3125 8.734375 54.109375 11.28125 
L 54.109375 2.78125 
Q 49.265625 0.734375 44.1875 -0.34375 
Q 39.109375 -1.421875 33.890625 -1.421875 
Q 20.796875 -1.421875 13.15625 6.1875 
Q 5.515625 13.8125 5.515625 26.8125 
Q 5.515625 40.234375 12.765625 48.109375 
Q 20.015625 56 32.328125 56 
Q 43.359375 56 49.78125 48.890625 
Q 56.203125 41.796875 56.203125 29.59375 
z
M 47.21875 32.234375 
Q 47.125 39.59375 43.09375 43.984375 
Q 39.0625 48.390625 32.421875 48.390625 
Q 24.90625 48.390625 20.390625 44.140625 
Q 15.875 39.890625 15.1875 32.171875 
z
" id="DejaVuSans-65"/>
      <path d="M 45.40625 46.390625 
L 45.40625 75.984375 
L 54.390625 75.984375 
L 54.390625 0 
L 45.40625 0 
L 45.40625 8.203125 
Q 42.578125 3.328125 38.25 0.953125 
Q 33.9375 -1.421875 27.875 -1.421875 
Q 17.96875 -1.421875 11.734375 6.484375 
Q 5.515625 14.40625 5.515625 27.296875 
Q 5.515625 40.1875 11.734375 48.09375 
Q 17.96875 56 27.875 56 
Q 33.9375 56 38.25 53.625 
Q 42.578125 51.265625 45.40625 46.390625 
z
M 14.796875 27.296875 
Q 14.796875 17.390625 18.875 11.75 
Q 22.953125 6.109375 30.078125 6.109375 
Q 37.203125 6.109375 41.296875 11.75 
Q 45.40625 17.390625 45.40625 27.296875 
Q 45.40625 37.203125 41.296875 42.84375 
Q 37.203125 48.484375 30.078125 48.484375 
Q 22.953125 48.484375 18.875 42.84375 
Q 14.796875 37.203125 14.796875 27.296875 
z
" id="DejaVuSans-64"/>
      <path d="M 48.78125 52.59375 
L 48.78125 44.1875 
Q 44.96875 46.296875 41.140625 47.34375 
Q 37.3125 48.390625 33.40625 48.390625 
Q 24.65625 48.390625 19.8125 42.84375 
Q 14.984375 37.3125 14.984375 27.296875 
Q 14.984375 17.28125 19.8125 11.734375 
Q 24.65625 6.203125 33.40625 6.203125 
Q 37.3125 6.203125 41.140625 7.25 
Q 44.96875 8.296875 48.78125 10.40625 
L 48.78125 2.09375 
Q 45.015625 0.34375 40.984375 -0.53125 
Q 36.96875 -1.421875 32.421875 -1.421875 
Q 20.0625 -1.421875 12.78125 6.34375 
Q 5.515625 14.109375 5.515625 27.296875 
Q 5.515625 40.671875 12.859375 48.328125 
Q 20.21875 56 33.015625 56 
Q 37.15625 56 41.109375 55.140625 
Q 45.0625 54.296875 48.78125 52.59375 
z
" id="DejaVuSans-63"/>
      <path d="M 30.609375 48.390625 
Q 23.390625 48.390625 19.1875 42.75 
Q 14.984375 37.109375 14.984375 27.296875 
Q 14.984375 17.484375 19.15625 11.84375 
Q 23.34375 6.203125 30.609375 6.203125 
Q 37.796875 6.203125 41.984375 11.859375 
Q 46.1875 17.53125 46.1875 27.296875 
Q 46.1875 37.015625 41.984375 42.703125 
Q 37.796875 48.390625 30.609375 48.390625 
z
M 30.609375 56 
Q 42.328125 56 49.015625 48.375 
Q 55.71875 40.765625 55.71875 27.296875 
Q 55.71875 13.875 49.015625 6.21875 
Q 42.328125 -1.421875 30.609375 -1.421875 
Q 18.84375 -1.421875 12.171875 6.21875 
Q 5.515625 13.875 5.515625 27.296875 
Q 5.515625 40.765625 12.171875 48.375 
Q 18.84375 56 30.609375 56 
z
" id="DejaVuSans-6f"/>
     </defs>
     <g transform="translate(18.398438 130.871094)rotate(-90)scale(0.1 -0.1)">
      <use xlink:href="#DejaVuSans-70"/>
      <use x="63.476562" xlink:href="#DejaVuSans-72"/>
      <use x="104.558594" xlink:href="#DejaVuSans-65"/>
      <use x="166.082031" xlink:href="#DejaVuSans-64"/>
      <use x="229.558594" xlink:href="#DejaVuSans-69"/>
      <use x="257.341797" xlink:href="#DejaVuSans-63"/>
      <use x="312.322266" xlink:href="#DejaVuSans-74"/>
      <use x="351.53125" xlink:href="#DejaVuSans-69"/>
      <use x="379.314453" xlink:href="#DejaVuSans-6f"/>
      <use x="440.496094" xlink:href="#DejaVuSans-6e"/>
      <use x="503.875" xlink:href="#DejaVuSans-73"/>
     </g>
    </g>
   </g>
   <g id="patch_3">
    <path d="M 47.38125 191.84375 
L 47.38125 14.3 
" style="fill:none;stroke:#000000;stroke-linecap:square;stroke-linejoin:miter;stroke-width:0.8;"/>
   </g>
   <g id="patch_4">
    <path d="M 385.7 191.84375 
L 385.7 14.3 
" style="fill:none;stroke:#000000;stroke-linecap:square;stroke-linejoin:miter;stroke-width:0.8;"/>
   </g>
   <g id="patch_5">
    <path d="M 47.38125 191.84375 
L 385.7 191.84375 
" style="fill:none;stroke:#000000;stroke-linecap:square;stroke-linejoin:miter;stroke-width:0.8;"/>
   </g>
   <g id="patch_6">
    <path d="M 47.38125 14.3 
L 385.7 14.3 
" style="fill:none;stroke:#000000;stroke-linecap:square;stroke-linejoin:miter;stroke-width:0.8;"/>
   </g>
  </g>
 </g>
 <defs>
  <clipPath id="pbe6781bd7b">
   <rect height="177.54375" width="338.31875" x="47.38125" y="14.3"/>
  </clipPath>
 </defs>
</svg>
