<?xml version="1.0" encoding="utf-8" standalone="no"?>
<!DOCTYPE svg PUBLIC "-//W3C//DTD SVG 1.1//EN"
  "http://www.w3.org/Graphics/SVG/1.1/DTD/svg11.dtd">
<!-- Created with matplotlib (http://matplotlib.org/) -->
<svg height="262pt" version="1.1" viewBox="0 0 400 262" width="400pt" xmlns="http://www.w3.org/2000/svg" xmlns:xlink="http://www.w3.org/1999/xlink">
 <defs>
  <style type="text/css">
*{stroke-linecap:butt;stroke-linejoin:round;}
  </style>
 </defs>
 <g id="figure_1">
  <g id="patch_1">
   <path d="M 0 262 
L 400 262 
L 400 0 
L 0 0 
z
" style="fill:#ffffff;"/>
  </g>
  <g id="axes_1">
   <g id="patch_2">
    <path d="M 62.123438 220.84375 
L 385.7 220.84375 
L 385.7 14.3 
L 62.123438 14.3 
z
" style="fill:#ffffff;"/>
   </g>
   <g id="matplotlib.axis_1">
    <g id="xtick_1">
     <g id="line2d_1">
      <defs>
       <path d="M 0 0 
L 0 3.5 
" id="meb8297bbcd" style="stroke:#000000;stroke-width:0.8;"/>
      </defs>
      <g>
       <use style="stroke:#000000;stroke-width:0.8;" x="76.831463" xlink:href="#meb8297bbcd" y="220.84375"/>
      </g>
     </g>
     <g id="text_1">
      <!-- 0 -->
      <defs>
       <path d="M 31.78125 66.40625 
Q 24.171875 66.40625 20.328125 58.90625 
Q 16.5 51.421875 16.5 36.375 
Q 16.5 21.390625 20.328125 13.890625 
Q 24.171875 6.390625 31.78125 6.390625 
Q 39.453125 6.390625 43.28125 13.890625 
Q 47.125 21.390625 47.125 36.375 
Q 47.125 51.421875 43.28125 58.90625 
Q 39.453125 66.40625 31.78125 66.40625 
z
M 31.78125 74.21875 
Q 44.046875 74.21875 50.515625 64.515625 
Q 56.984375 54.828125 56.984375 36.375 
Q 56.984375 17.96875 50.515625 8.265625 
Q 44.046875 -1.421875 31.78125 -1.421875 
Q 19.53125 -1.421875 13.0625 8.265625 
Q 6.59375 17.96875 6.59375 36.375 
Q 6.59375 54.828125 13.0625 64.515625 
Q 19.53125 74.21875 31.78125 74.21875 
z
" id="DejaVuSans-30"/>
      </defs>
      <g transform="translate(73.650213 235.442187)scale(0.1 -0.1)">
       <use xlink:href="#DejaVuSans-30"/>
      </g>
     </g>
    </g>
    <g id="xtick_2">
     <g id="line2d_2">
      <g>
       <use style="stroke:#000000;stroke-width:0.8;" x="113.900136" xlink:href="#meb8297bbcd" y="220.84375"/>
      </g>
     </g>
     <g id="text_2">
      <!-- 1 -->
      <defs>
       <path d="M 12.40625 8.296875 
L 28.515625 8.296875 
L 28.515625 63.921875 
L 10.984375 60.40625 
L 10.984375 69.390625 
L 28.421875 72.90625 
L 38.28125 72.90625 
L 38.28125 8.296875 
L 54.390625 8.296875 
L 54.390625 0 
L 12.40625 0 
z
" id="DejaVuSans-31"/>
      </defs>
      <g transform="translate(110.718886 235.442187)scale(0.1 -0.1)">
       <use xlink:href="#DejaVuSans-31"/>
      </g>
     </g>
    </g>
    <g id="xtick_3">
     <g id="line2d_3">
      <g>
       <use style="stroke:#000000;stroke-width:0.8;" x="150.968808" xlink:href="#meb8297bbcd" y="220.84375"/>
      </g>
     </g>
     <g id="text_3">
      <!-- 2 -->
      <defs>
       <path d="M 19.1875 8.296875 
L 53.609375 8.296875 
L 53.609375 0 
L 7.328125 0 
L 7.328125 8.296875 
Q 12.9375 14.109375 22.625 23.890625 
Q 32.328125 33.6875 34.8125 36.53125 
Q 39.546875 41.84375 41.421875 45.53125 
Q 43.3125 49.21875 43.3125 52.78125 
Q 43.3125 58.59375 39.234375 62.25 
Q 35.15625 65.921875 28.609375 65.921875 
Q 23.96875 65.921875 18.8125 64.3125 
Q 13.671875 62.703125 7.8125 59.421875 
L 7.8125 69.390625 
Q 13.765625 71.78125 18.9375 73 
Q 24.125 74.21875 28.421875 74.21875 
Q 39.75 74.21875 46.484375 68.546875 
Q 53.21875 62.890625 53.21875 53.421875 
Q 53.21875 48.921875 51.53125 44.890625 
Q 49.859375 40.875 45.40625 35.40625 
Q 44.1875 33.984375 37.640625 27.21875 
Q 31.109375 20.453125 19.1875 8.296875 
z
" id="DejaVuSans-32"/>
      </defs>
      <g transform="translate(147.787558 235.442187)scale(0.1 -0.1)">
       <use xlink:href="#DejaVuSans-32"/>
      </g>
     </g>
    </g>
    <g id="xtick_4">
     <g id="line2d_4">
      <g>
       <use style="stroke:#000000;stroke-width:0.8;" x="188.037481" xlink:href="#meb8297bbcd" y="220.84375"/>
      </g>
     </g>
     <g id="text_4">
      <!-- 3 -->
      <defs>
       <path d="M 40.578125 39.3125 
Q 47.65625 37.796875 51.625 33 
Q 55.609375 28.21875 55.609375 21.1875 
Q 55.609375 10.40625 48.1875 4.484375 
Q 40.765625 -1.421875 27.09375 -1.421875 
Q 22.515625 -1.421875 17.65625 -0.515625 
Q 12.796875 0.390625 7.625 2.203125 
L 7.625 11.71875 
Q 11.71875 9.328125 16.59375 8.109375 
Q 21.484375 6.890625 26.8125 6.890625 
Q 36.078125 6.890625 40.9375 10.546875 
Q 45.796875 14.203125 45.796875 21.1875 
Q 45.796875 27.640625 41.28125 31.265625 
Q 36.765625 34.90625 28.71875 34.90625 
L 20.21875 34.90625 
L 20.21875 43.015625 
L 29.109375 43.015625 
Q 36.375 43.015625 40.234375 45.921875 
Q 44.09375 48.828125 44.09375 54.296875 
Q 44.09375 59.90625 40.109375 62.90625 
Q 36.140625 65.921875 28.71875 65.921875 
Q 24.65625 65.921875 20.015625 65.03125 
Q 15.375 64.15625 9.8125 62.3125 
L 9.8125 71.09375 
Q 15.4375 72.65625 20.34375 73.4375 
Q 25.25 74.21875 29.59375 74.21875 
Q 40.828125 74.21875 47.359375 69.109375 
Q 53.90625 64.015625 53.90625 55.328125 
Q 53.90625 49.265625 50.4375 45.09375 
Q 46.96875 40.921875 40.578125 39.3125 
z
" id="DejaVuSans-33"/>
      </defs>
      <g transform="translate(184.856231 235.442187)scale(0.1 -0.1)">
       <use xlink:href="#DejaVuSans-33"/>
      </g>
     </g>
    </g>
    <g id="xtick_5">
     <g id="line2d_5">
      <g>
       <use style="stroke:#000000;stroke-width:0.8;" x="225.106154" xlink:href="#meb8297bbcd" y="220.84375"/>
      </g>
     </g>
     <g id="text_5">
      <!-- 4 -->
      <defs>
       <path d="M 37.796875 64.3125 
L 12.890625 25.390625 
L 37.796875 25.390625 
z
M 35.203125 72.90625 
L 47.609375 72.90625 
L 47.609375 25.390625 
L 58.015625 25.390625 
L 58.015625 17.1875 
L 47.609375 17.1875 
L 47.609375 0 
L 37.796875 0 
L 37.796875 17.1875 
L 4.890625 17.1875 
L 4.890625 26.703125 
z
" id="DejaVuSans-34"/>
      </defs>
      <g transform="translate(221.924904 235.442187)scale(0.1 -0.1)">
       <use xlink:href="#DejaVuSans-34"/>
      </g>
     </g>
    </g>
    <g id="xtick_6">
     <g id="line2d_6">
      <g>
       <use style="stroke:#000000;stroke-width:0.8;" x="262.174826" xlink:href="#meb8297bbcd" y="220.84375"/>
      </g>
     </g>
     <g id="text_6">
      <!-- 5 -->
      <defs>
       <path d="M 10.796875 72.90625 
L 49.515625 72.90625 
L 49.515625 64.59375 
L 19.828125 64.59375 
L 19.828125 46.734375 
Q 21.96875 47.46875 24.109375 47.828125 
Q 26.265625 48.1875 28.421875 48.1875 
Q 40.625 48.1875 47.75 41.5 
Q 54.890625 34.8125 54.890625 23.390625 
Q 54.890625 11.625 47.5625 5.09375 
Q 40.234375 -1.421875 26.90625 -1.421875 
Q 22.3125 -1.421875 17.546875 -0.640625 
Q 12.796875 0.140625 7.71875 1.703125 
L 7.71875 11.625 
Q 12.109375 9.234375 16.796875 8.0625 
Q 21.484375 6.890625 26.703125 6.890625 
Q 35.15625 6.890625 40.078125 11.328125 
Q 45.015625 15.765625 45.015625 23.390625 
Q 45.015625 31 40.078125 35.4375 
Q 35.15625 39.890625 26.703125 39.890625 
Q 22.75 39.890625 18.8125 39.015625 
Q 14.890625 38.140625 10.796875 36.28125 
z
" id="DejaVuSans-35"/>
      </defs>
      <g transform="translate(258.993576 235.442187)scale(0.1 -0.1)">
       <use xlink:href="#DejaVuSans-35"/>
      </g>
     </g>
    </g>
    <g id="xtick_7">
     <g id="line2d_7">
      <g>
       <use style="stroke:#000000;stroke-width:0.8;" x="299.243499" xlink:href="#meb8297bbcd" y="220.84375"/>
      </g>
     </g>
     <g id="text_7">
      <!-- 6 -->
      <defs>
       <path d="M 33.015625 40.375 
Q 26.375 40.375 22.484375 35.828125 
Q 18.609375 31.296875 18.609375 23.390625 
Q 18.609375 15.53125 22.484375 10.953125 
Q 26.375 6.390625 33.015625 6.390625 
Q 39.65625 6.390625 43.53125 10.953125 
Q 47.40625 15.53125 47.40625 23.390625 
Q 47.40625 31.296875 43.53125 35.828125 
Q 39.65625 40.375 33.015625 40.375 
z
M 52.59375 71.296875 
L 52.59375 62.3125 
Q 48.875 64.0625 45.09375 64.984375 
Q 41.3125 65.921875 37.59375 65.921875 
Q 27.828125 65.921875 22.671875 59.328125 
Q 17.53125 52.734375 16.796875 39.40625 
Q 19.671875 43.65625 24.015625 45.921875 
Q 28.375 48.1875 33.59375 48.1875 
Q 44.578125 48.1875 50.953125 41.515625 
Q 57.328125 34.859375 57.328125 23.390625 
Q 57.328125 12.15625 50.6875 5.359375 
Q 44.046875 -1.421875 33.015625 -1.421875 
Q 20.359375 -1.421875 13.671875 8.265625 
Q 6.984375 17.96875 6.984375 36.375 
Q 6.984375 53.65625 15.1875 63.9375 
Q 23.390625 74.21875 37.203125 74.21875 
Q 40.921875 74.21875 44.703125 73.484375 
Q 48.484375 72.75 52.59375 71.296875 
z
" id="DejaVuSans-36"/>
      </defs>
      <g transform="translate(296.062249 235.442187)scale(0.1 -0.1)">
       <use xlink:href="#DejaVuSans-36"/>
      </g>
     </g>
    </g>
    <g id="xtick_8">
     <g id="line2d_8">
      <g>
       <use style="stroke:#000000;stroke-width:0.8;" x="336.312172" xlink:href="#meb8297bbcd" y="220.84375"/>
      </g>
     </g>
     <g id="text_8">
      <!-- 7 -->
      <defs>
       <path d="M 8.203125 72.90625 
L 55.078125 72.90625 
L 55.078125 68.703125 
L 28.609375 0 
L 18.3125 0 
L 43.21875 64.59375 
L 8.203125 64.59375 
z
" id="DejaVuSans-37"/>
      </defs>
      <g transform="translate(333.130922 235.442187)scale(0.1 -0.1)">
       <use xlink:href="#DejaVuSans-37"/>
      </g>
     </g>
    </g>
    <g id="xtick_9">
     <g id="line2d_9">
      <g>
       <use style="stroke:#000000;stroke-width:0.8;" x="373.380844" xlink:href="#meb8297bbcd" y="220.84375"/>
      </g>
     </g>
     <g id="text_9">
      <!-- 8 -->
      <defs>
       <path d="M 31.78125 34.625 
Q 24.75 34.625 20.71875 30.859375 
Q 16.703125 27.09375 16.703125 20.515625 
Q 16.703125 13.921875 20.71875 10.15625 
Q 24.75 6.390625 31.78125 6.390625 
Q 38.8125 6.390625 42.859375 10.171875 
Q 46.921875 13.96875 46.921875 20.515625 
Q 46.921875 27.09375 42.890625 30.859375 
Q 38.875 34.625 31.78125 34.625 
z
M 21.921875 38.8125 
Q 15.578125 40.375 12.03125 44.71875 
Q 8.5 49.078125 8.5 55.328125 
Q 8.5 64.0625 14.71875 69.140625 
Q 20.953125 74.21875 31.78125 74.21875 
Q 42.671875 74.21875 48.875 69.140625 
Q 55.078125 64.0625 55.078125 55.328125 
Q 55.078125 49.078125 51.53125 44.71875 
Q 48 40.375 41.703125 38.8125 
Q 48.828125 37.15625 52.796875 32.3125 
Q 56.78125 27.484375 56.78125 20.515625 
Q 56.78125 9.90625 50.3125 4.234375 
Q 43.84375 -1.421875 31.78125 -1.421875 
Q 19.734375 -1.421875 13.25 4.234375 
Q 6.78125 9.90625 6.78125 20.515625 
Q 6.78125 27.484375 10.78125 32.3125 
Q 14.796875 37.15625 21.921875 38.8125 
z
M 18.3125 54.390625 
Q 18.3125 48.734375 21.84375 45.5625 
Q 25.390625 42.390625 31.78125 42.390625 
Q 38.140625 42.390625 41.71875 45.5625 
Q 45.3125 48.734375 45.3125 54.390625 
Q 45.3125 60.0625 41.71875 63.234375 
Q 38.140625 66.40625 31.78125 66.40625 
Q 25.390625 66.40625 21.84375 63.234375 
Q 18.3125 60.0625 18.3125 54.390625 
z
" id="DejaVuSans-38"/>
      </defs>
      <g transform="translate(370.199594 235.442187)scale(0.1 -0.1)">
       <use xlink:href="#DejaVuSans-38"/>
      </g>
     </g>
    </g>
    <g id="text_10">
     <!-- Time (s) -->
     <defs>
      <path d="M -0.296875 72.90625 
L 61.375 72.90625 
L 61.375 64.59375 
L 35.5 64.59375 
L 35.5 0 
L 25.59375 0 
L 25.59375 64.59375 
L -0.296875 64.59375 
z
" id="DejaVuSans-54"/>
      <path d="M 9.421875 54.6875 
L 18.40625 54.6875 
L 18.40625 0 
L 9.421875 0 
z
M 9.421875 75.984375 
L 18.40625 75.984375 
L 18.40625 64.59375 
L 9.421875 64.59375 
z
" id="DejaVuSans-69"/>
      <path d="M 52 44.1875 
Q 55.375 50.25 60.0625 53.125 
Q 64.75 56 71.09375 56 
Q 79.640625 56 84.28125 50.015625 
Q 88.921875 44.046875 88.921875 33.015625 
L 88.921875 0 
L 79.890625 0 
L 79.890625 32.71875 
Q 79.890625 40.578125 77.09375 44.375 
Q 74.3125 48.1875 68.609375 48.1875 
Q 61.625 48.1875 57.5625 43.546875 
Q 53.515625 38.921875 53.515625 30.90625 
L 53.515625 0 
L 44.484375 0 
L 44.484375 32.71875 
Q 44.484375 40.625 41.703125 44.40625 
Q 38.921875 48.1875 33.109375 48.1875 
Q 26.21875 48.1875 22.15625 43.53125 
Q 18.109375 38.875 18.109375 30.90625 
L 18.109375 0 
L 9.078125 0 
L 9.078125 54.6875 
L 18.109375 54.6875 
L 18.109375 46.1875 
Q 21.1875 51.21875 25.484375 53.609375 
Q 29.78125 56 35.6875 56 
Q 41.65625 56 45.828125 52.96875 
Q 50 49.953125 52 44.1875 
z
" id="DejaVuSans-6d"/>
      <path d="M 56.203125 29.59375 
L 56.203125 25.203125 
L 14.890625 25.203125 
Q 15.484375 15.921875 20.484375 11.0625 
Q 25.484375 6.203125 34.421875 6.203125 
Q 39.59375 6.203125 44.453125 7.46875 
Q 49.3125 8.734375 54.109375 11.28125 
L 54.109375 2.78125 
Q 49.265625 0.734375 44.1875 -0.34375 
Q 39.109375 -1.421875 33.890625 -1.421875 
Q 20.796875 -1.421875 13.15625 6.1875 
Q 5.515625 13.8125 5.515625 26.8125 
Q 5.515625 40.234375 12.765625 48.109375 
Q 20.015625 56 32.328125 56 
Q 43.359375 56 49.78125 48.890625 
Q 56.203125 41.796875 56.203125 29.59375 
z
M 47.21875 32.234375 
Q 47.125 39.59375 43.09375 43.984375 
Q 39.0625 48.390625 32.421875 48.390625 
Q 24.90625 48.390625 20.390625 44.140625 
Q 15.875 39.890625 15.1875 32.171875 
z
" id="DejaVuSans-65"/>
      <path id="DejaVuSans-20"/>
      <path d="M 31 75.875 
Q 24.46875 64.65625 21.28125 53.65625 
Q 18.109375 42.671875 18.109375 31.390625 
Q 18.109375 20.125 21.3125 9.0625 
Q 24.515625 -2 31 -13.1875 
L 23.1875 -13.1875 
Q 15.875 -1.703125 12.234375 9.375 
Q 8.59375 20.453125 8.59375 31.390625 
Q 8.59375 42.28125 12.203125 53.3125 
Q 15.828125 64.359375 23.1875 75.875 
z
" id="DejaVuSans-28"/>
      <path d="M 44.28125 53.078125 
L 44.28125 44.578125 
Q 40.484375 46.53125 36.375 47.5 
Q 32.28125 48.484375 27.875 48.484375 
Q 21.1875 48.484375 17.84375 46.4375 
Q 14.5 44.390625 14.5 40.28125 
Q 14.5 37.15625 16.890625 35.375 
Q 19.28125 33.59375 26.515625 31.984375 
L 29.59375 31.296875 
Q 39.15625 29.25 43.1875 25.515625 
Q 47.21875 21.78125 47.21875 15.09375 
Q 47.21875 7.46875 41.1875 3.015625 
Q 35.15625 -1.421875 24.609375 -1.421875 
Q 20.21875 -1.421875 15.453125 -0.5625 
Q 10.6875 0.296875 5.421875 2 
L 5.421875 11.28125 
Q 10.40625 8.6875 15.234375 7.390625 
Q 20.0625 6.109375 24.8125 6.109375 
Q 31.15625 6.109375 34.5625 8.28125 
Q 37.984375 10.453125 37.984375 14.40625 
Q 37.984375 18.0625 35.515625 20.015625 
Q 33.0625 21.96875 24.703125 23.78125 
L 21.578125 24.515625 
Q 13.234375 26.265625 9.515625 29.90625 
Q 5.8125 33.546875 5.8125 39.890625 
Q 5.8125 47.609375 11.28125 51.796875 
Q 16.75 56 26.8125 56 
Q 31.78125 56 36.171875 55.265625 
Q 40.578125 54.546875 44.28125 53.078125 
z
" id="DejaVuSans-73"/>
      <path d="M 8.015625 75.875 
L 15.828125 75.875 
Q 23.140625 64.359375 26.78125 53.3125 
Q 30.421875 42.28125 30.421875 31.390625 
Q 30.421875 20.453125 26.78125 9.375 
Q 23.140625 -1.703125 15.828125 -13.1875 
L 8.015625 -13.1875 
Q 14.5 -2 17.703125 9.0625 
Q 20.90625 20.125 20.90625 31.390625 
Q 20.90625 42.671875 17.703125 53.65625 
Q 14.5 64.65625 8.015625 75.875 
z
" id="DejaVuSans-29"/>
     </defs>
     <g transform="translate(203.428906 249.120312)scale(0.1 -0.1)">
      <use xlink:href="#DejaVuSans-54"/>
      <use x="61.037109" xlink:href="#DejaVuSans-69"/>
      <use x="88.820312" xlink:href="#DejaVuSans-6d"/>
      <use x="186.232422" xlink:href="#DejaVuSans-65"/>
      <use x="247.755859" xlink:href="#DejaVuSans-20"/>
      <use x="279.542969" xlink:href="#DejaVuSans-28"/>
      <use x="318.556641" xlink:href="#DejaVuSans-73"/>
      <use x="370.65625" xlink:href="#DejaVuSans-29"/>
     </g>
    </g>
   </g>
   <g id="matplotlib.axis_2">
    <g id="ytick_1">
     <g id="line2d_10">
      <defs>
       <path d="M 0 0 
L -3.5 0 
" id="mfdae943f7a" style="stroke:#000000;stroke-width:0.8;"/>
      </defs>
      <g>
       <use style="stroke:#000000;stroke-width:0.8;" x="62.123438" xlink:href="#mfdae943f7a" y="200.664662"/>
      </g>
     </g>
     <g id="text_11">
      <!-- −0.75 -->
      <defs>
       <path d="M 10.59375 35.5 
L 73.1875 35.5 
L 73.1875 27.203125 
L 10.59375 27.203125 
z
" id="DejaVuSans-2212"/>
       <path d="M 10.6875 12.40625 
L 21 12.40625 
L 21 0 
L 10.6875 0 
z
" id="DejaVuSans-2e"/>
      </defs>
      <g transform="translate(24.478125 204.46388)scale(0.1 -0.1)">
       <use xlink:href="#DejaVuSans-2212"/>
       <use x="83.789062" xlink:href="#DejaVuSans-30"/>
       <use x="147.412109" xlink:href="#DejaVuSans-2e"/>
       <use x="179.199219" xlink:href="#DejaVuSans-37"/>
       <use x="242.822266" xlink:href="#DejaVuSans-35"/>
      </g>
     </g>
    </g>
    <g id="ytick_2">
     <g id="line2d_11">
      <g>
       <use style="stroke:#000000;stroke-width:0.8;" x="62.123438" xlink:href="#mfdae943f7a" y="172.109638"/>
      </g>
     </g>
     <g id="text_12">
      <!-- −0.50 -->
      <g transform="translate(24.478125 175.908857)scale(0.1 -0.1)">
       <use xlink:href="#DejaVuSans-2212"/>
       <use x="83.789062" xlink:href="#DejaVuSans-30"/>
       <use x="147.412109" xlink:href="#DejaVuSans-2e"/>
       <use x="179.199219" xlink:href="#DejaVuSans-35"/>
       <use x="242.822266" xlink:href="#DejaVuSans-30"/>
      </g>
     </g>
    </g>
    <g id="ytick_3">
     <g id="line2d_12">
      <g>
       <use style="stroke:#000000;stroke-width:0.8;" x="62.123438" xlink:href="#mfdae943f7a" y="143.554614"/>
      </g>
     </g>
     <g id="text_13">
      <!-- −0.25 -->
      <g transform="translate(24.478125 147.353833)scale(0.1 -0.1)">
       <use xlink:href="#DejaVuSans-2212"/>
       <use x="83.789062" xlink:href="#DejaVuSans-30"/>
       <use x="147.412109" xlink:href="#DejaVuSans-2e"/>
       <use x="179.199219" xlink:href="#DejaVuSans-32"/>
       <use x="242.822266" xlink:href="#DejaVuSans-35"/>
      </g>
     </g>
    </g>
    <g id="ytick_4">
     <g id="line2d_13">
      <g>
       <use style="stroke:#000000;stroke-width:0.8;" x="62.123438" xlink:href="#mfdae943f7a" y="114.99959"/>
      </g>
     </g>
     <g id="text_14">
      <!-- 0.00 -->
      <g transform="translate(32.857813 118.798809)scale(0.1 -0.1)">
       <use xlink:href="#DejaVuSans-30"/>
       <use x="63.623047" xlink:href="#DejaVuSans-2e"/>
       <use x="95.410156" xlink:href="#DejaVuSans-30"/>
       <use x="159.033203" xlink:href="#DejaVuSans-30"/>
      </g>
     </g>
    </g>
    <g id="ytick_5">
     <g id="line2d_14">
      <g>
       <use style="stroke:#000000;stroke-width:0.8;" x="62.123438" xlink:href="#mfdae943f7a" y="86.444566"/>
      </g>
     </g>
     <g id="text_15">
      <!-- 0.25 -->
      <g transform="translate(32.857813 90.243785)scale(0.1 -0.1)">
       <use xlink:href="#DejaVuSans-30"/>
       <use x="63.623047" xlink:href="#DejaVuSans-2e"/>
       <use x="95.410156" xlink:href="#DejaVuSans-32"/>
       <use x="159.033203" xlink:href="#DejaVuSans-35"/>
      </g>
     </g>
    </g>
    <g id="ytick_6">
     <g id="line2d_15">
      <g>
       <use style="stroke:#000000;stroke-width:0.8;" x="62.123438" xlink:href="#mfdae943f7a" y="57.889542"/>
      </g>
     </g>
     <g id="text_16">
      <!-- 0.50 -->
      <g transform="translate(32.857813 61.688761)scale(0.1 -0.1)">
       <use xlink:href="#DejaVuSans-30"/>
       <use x="63.623047" xlink:href="#DejaVuSans-2e"/>
       <use x="95.410156" xlink:href="#DejaVuSans-35"/>
       <use x="159.033203" xlink:href="#DejaVuSans-30"/>
      </g>
     </g>
    </g>
    <g id="ytick_7">
     <g id="line2d_16">
      <g>
       <use style="stroke:#000000;stroke-width:0.8;" x="62.123438" xlink:href="#mfdae943f7a" y="29.334519"/>
      </g>
     </g>
     <g id="text_17">
      <!-- 0.75 -->
      <g transform="translate(32.857813 33.133737)scale(0.1 -0.1)">
       <use xlink:href="#DejaVuSans-30"/>
       <use x="63.623047" xlink:href="#DejaVuSans-2e"/>
       <use x="95.410156" xlink:href="#DejaVuSans-37"/>
       <use x="159.033203" xlink:href="#DejaVuSans-35"/>
      </g>
     </g>
    </g>
    <g id="text_18">
     <!-- Sound Amplitude -->
     <defs>
      <path d="M 53.515625 70.515625 
L 53.515625 60.890625 
Q 47.90625 63.578125 42.921875 64.890625 
Q 37.9375 66.21875 33.296875 66.21875 
Q 25.25 66.21875 20.875 63.09375 
Q 16.5 59.96875 16.5 54.203125 
Q 16.5 49.359375 19.40625 46.890625 
Q 22.3125 44.4375 30.421875 42.921875 
L 36.375 41.703125 
Q 47.40625 39.59375 52.65625 34.296875 
Q 57.90625 29 57.90625 20.125 
Q 57.90625 9.515625 50.796875 4.046875 
Q 43.703125 -1.421875 29.984375 -1.421875 
Q 24.8125 -1.421875 18.96875 -0.25 
Q 13.140625 0.921875 6.890625 3.21875 
L 6.890625 13.375 
Q 12.890625 10.015625 18.65625 8.296875 
Q 24.421875 6.59375 29.984375 6.59375 
Q 38.421875 6.59375 43.015625 9.90625 
Q 47.609375 13.234375 47.609375 19.390625 
Q 47.609375 24.75 44.3125 27.78125 
Q 41.015625 30.8125 33.5 32.328125 
L 27.484375 33.5 
Q 16.453125 35.6875 11.515625 40.375 
Q 6.59375 45.0625 6.59375 53.421875 
Q 6.59375 63.09375 13.40625 68.65625 
Q 20.21875 74.21875 32.171875 74.21875 
Q 37.3125 74.21875 42.625 73.28125 
Q 47.953125 72.359375 53.515625 70.515625 
z
" id="DejaVuSans-53"/>
      <path d="M 30.609375 48.390625 
Q 23.390625 48.390625 19.1875 42.75 
Q 14.984375 37.109375 14.984375 27.296875 
Q 14.984375 17.484375 19.15625 11.84375 
Q 23.34375 6.203125 30.609375 6.203125 
Q 37.796875 6.203125 41.984375 11.859375 
Q 46.1875 17.53125 46.1875 27.296875 
Q 46.1875 37.015625 41.984375 42.703125 
Q 37.796875 48.390625 30.609375 48.390625 
z
M 30.609375 56 
Q 42.328125 56 49.015625 48.375 
Q 55.71875 40.765625 55.71875 27.296875 
Q 55.71875 13.875 49.015625 6.21875 
Q 42.328125 -1.421875 30.609375 -1.421875 
Q 18.84375 -1.421875 12.171875 6.21875 
Q 5.515625 13.875 5.515625 27.296875 
Q 5.515625 40.765625 12.171875 48.375 
Q 18.84375 56 30.609375 56 
z
" id="DejaVuSans-6f"/>
      <path d="M 8.5 21.578125 
L 8.5 54.6875 
L 17.484375 54.6875 
L 17.484375 21.921875 
Q 17.484375 14.15625 20.5 10.265625 
Q 23.53125 6.390625 29.59375 6.390625 
Q 36.859375 6.390625 41.078125 11.03125 
Q 45.3125 15.671875 45.3125 23.6875 
L 45.3125 54.6875 
L 54.296875 54.6875 
L 54.296875 0 
L 45.3125 0 
L 45.3125 8.40625 
Q 42.046875 3.421875 37.71875 1 
Q 33.40625 -1.421875 27.6875 -1.421875 
Q 18.265625 -1.421875 13.375 4.4375 
Q 8.5 10.296875 8.5 21.578125 
z
M 31.109375 56 
z
" id="DejaVuSans-75"/>
      <path d="M 54.890625 33.015625 
L 54.890625 0 
L 45.90625 0 
L 45.90625 32.71875 
Q 45.90625 40.484375 42.875 44.328125 
Q 39.84375 48.1875 33.796875 48.1875 
Q 26.515625 48.1875 22.3125 43.546875 
Q 18.109375 38.921875 18.109375 30.90625 
L 18.109375 0 
L 9.078125 0 
L 9.078125 54.6875 
L 18.109375 54.6875 
L 18.109375 46.1875 
Q 21.34375 51.125 25.703125 53.5625 
Q 30.078125 56 35.796875 56 
Q 45.21875 56 50.046875 50.171875 
Q 54.890625 44.34375 54.890625 33.015625 
z
" id="DejaVuSans-6e"/>
      <path d="M 45.40625 46.390625 
L 45.40625 75.984375 
L 54.390625 75.984375 
L 54.390625 0 
L 45.40625 0 
L 45.40625 8.203125 
Q 42.578125 3.328125 38.25 0.953125 
Q 33.9375 -1.421875 27.875 -1.421875 
Q 17.96875 -1.421875 11.734375 6.484375 
Q 5.515625 14.40625 5.515625 27.296875 
Q 5.515625 40.1875 11.734375 48.09375 
Q 17.96875 56 27.875 56 
Q 33.9375 56 38.25 53.625 
Q 42.578125 51.265625 45.40625 46.390625 
z
M 14.796875 27.296875 
Q 14.796875 17.390625 18.875 11.75 
Q 22.953125 6.109375 30.078125 6.109375 
Q 37.203125 6.109375 41.296875 11.75 
Q 45.40625 17.390625 45.40625 27.296875 
Q 45.40625 37.203125 41.296875 42.84375 
Q 37.203125 48.484375 30.078125 48.484375 
Q 22.953125 48.484375 18.875 42.84375 
Q 14.796875 37.203125 14.796875 27.296875 
z
" id="DejaVuSans-64"/>
      <path d="M 34.1875 63.1875 
L 20.796875 26.90625 
L 47.609375 26.90625 
z
M 28.609375 72.90625 
L 39.796875 72.90625 
L 67.578125 0 
L 57.328125 0 
L 50.6875 18.703125 
L 17.828125 18.703125 
L 11.1875 0 
L 0.78125 0 
z
" id="DejaVuSans-41"/>
      <path d="M 18.109375 8.203125 
L 18.109375 -20.796875 
L 9.078125 -20.796875 
L 9.078125 54.6875 
L 18.109375 54.6875 
L 18.109375 46.390625 
Q 20.953125 51.265625 25.265625 53.625 
Q 29.59375 56 35.59375 56 
Q 45.5625 56 51.78125 48.09375 
Q 58.015625 40.1875 58.015625 27.296875 
Q 58.015625 14.40625 51.78125 6.484375 
Q 45.5625 -1.421875 35.59375 -1.421875 
Q 29.59375 -1.421875 25.265625 0.953125 
Q 20.953125 3.328125 18.109375 8.203125 
z
M 48.6875 27.296875 
Q 48.6875 37.203125 44.609375 42.84375 
Q 40.53125 48.484375 33.40625 48.484375 
Q 26.265625 48.484375 22.1875 42.84375 
Q 18.109375 37.203125 18.109375 27.296875 
Q 18.109375 17.390625 22.1875 11.75 
Q 26.265625 6.109375 33.40625 6.109375 
Q 40.53125 6.109375 44.609375 11.75 
Q 48.6875 17.390625 48.6875 27.296875 
z
" id="DejaVuSans-70"/>
      <path d="M 9.421875 75.984375 
L 18.40625 75.984375 
L 18.40625 0 
L 9.421875 0 
z
" id="DejaVuSans-6c"/>
      <path d="M 18.3125 70.21875 
L 18.3125 54.6875 
L 36.8125 54.6875 
L 36.8125 47.703125 
L 18.3125 47.703125 
L 18.3125 18.015625 
Q 18.3125 11.328125 20.140625 9.421875 
Q 21.96875 7.515625 27.59375 7.515625 
L 36.8125 7.515625 
L 36.8125 0 
L 27.59375 0 
Q 17.1875 0 13.234375 3.875 
Q 9.28125 7.765625 9.28125 18.015625 
L 9.28125 47.703125 
L 2.6875 47.703125 
L 2.6875 54.6875 
L 9.28125 54.6875 
L 9.28125 70.21875 
z
" id="DejaVuSans-74"/>
     </defs>
     <g transform="translate(18.398437 160.528906)rotate(-90)scale(0.1 -0.1)">
      <use xlink:href="#DejaVuSans-53"/>
      <use x="63.476562" xlink:href="#DejaVuSans-6f"/>
      <use x="124.658203" xlink:href="#DejaVuSans-75"/>
      <use x="188.037109" xlink:href="#DejaVuSans-6e"/>
      <use x="251.416016" xlink:href="#DejaVuSans-64"/>
      <use x="314.892578" xlink:href="#DejaVuSans-20"/>
      <use x="346.679688" xlink:href="#DejaVuSans-41"/>
      <use x="415.087891" xlink:href="#DejaVuSans-6d"/>
      <use x="512.5" xlink:href="#DejaVuSans-70"/>
      <use x="575.976562" xlink:href="#DejaVuSans-6c"/>
      <use x="603.759766" xlink:href="#DejaVuSans-69"/>
      <use x="631.542969" xlink:href="#DejaVuSans-74"/>
      <use x="670.751953" xlink:href="#DejaVuSans-75"/>
      <use x="734.130859" xlink:href="#DejaVuSans-64"/>
      <use x="797.607422" xlink:href="#DejaVuSans-65"/>
     </g>
    </g>
   </g>
   <g id="line2d_17">
    <path clip-path="url(#p0705afc4da)" d="M 76.831463 130.217806 
L 76.849955 144.620438 
L 76.944098 133.640057 
L 77.048327 97.31274 
L 77.093718 90.126794 
L 77.17273 93.037781 
L 77.221483 91.461921 
L 77.243337 93.242557 
L 77.320669 123.079167 
L 77.389595 140.214688 
L 77.455158 134.458296 
L 77.624951 112.467009 
L 77.727499 95.791519 
L 77.786339 98.198365 
L 77.80315 98.49298 
L 77.84854 96.63593 
L 77.872076 95.827258 
L 77.90906 99.295249 
L 78.07381 140.870618 
L 78.193169 135.879411 
L 78.280588 103.461319 
L 78.336065 89.819186 
L 78.394904 101.840335 
L 78.578146 127.891634 
L 78.588232 127.700711 
L 78.640347 121.377471 
L 78.786604 101.600185 
L 78.843762 103.140251 
L 78.979933 112.45398 
L 79.067351 121.072541 
L 79.112741 115.979495 
L 79.216971 86.385843 
L 79.274129 102.868193 
L 79.430473 171.034599 
L 79.504442 165.71667 
L 79.564962 150.78967 
L 79.881013 27.928609 
L 79.933128 35.331606 
L 80.070979 106.239905 
L 80.304655 203.902549 
L 80.388711 198.336548 
L 80.466042 162.03053 
L 80.714848 64.90301 
L 80.728297 64.523039 
L 80.777049 67.463272 
L 80.88296 90.547465 
L 81.111592 125.114111 
L 81.125041 125.303267 
L 81.170431 123.802044 
L 81.496568 107.027229 
L 81.548683 107.446279 
L 81.884907 117.016103 
L 82.098409 122.339915 
L 82.147161 122.030454 
L 82.216087 122.043543 
L 82.513645 117.591909 
L 83.070095 108.497321 
L 83.12221 109.058821 
L 83.169281 108.93707 
L 83.350842 110.612027 
L 83.766079 117.078437 
L 83.78289 117.066663 
L 83.814831 117.285056 
L 84.085491 120.962052 
L 84.149374 120.603667 
L 84.275458 118.751089 
L 84.618406 114.607153 
L 84.71423 113.545224 
L 84.852082 112.279252 
L 84.872255 112.375436 
L 85.14964 114.245159 
L 85.332882 116.047544 
L 85.388358 116.480529 
L 85.539659 117.206942 
L 85.566557 117.355289 
L 85.605223 117.069136 
L 85.643889 117.149781 
L 85.674149 117.275954 
L 85.85571 117.762552 
L 85.862434 117.760715 
L 85.897738 117.656698 
L 86.588677 110.613511 
L 86.666009 111.102229 
L 87.425875 118.586209 
L 87.461178 118.11367 
L 87.489757 117.834414 
L 87.546915 118.179471 
L 87.580538 117.960849 
L 87.752012 117.321059 
L 87.767142 117.396531 
L 87.795721 117.526177 
L 87.83943 117.117805 
L 87.906675 116.728722 
L 87.965514 116.948491 
L 87.973919 116.966003 
L 88.027715 116.794661 
L 88.052932 116.840253 
L 88.086554 116.493254 
L 88.405967 112.846054 
L 88.562311 112.437452 
L 88.57576 112.487141 
L 88.705206 114.22367 
L 88.787581 114.82509 
L 88.849782 114.585609 
L 89.039749 113.124077 
L 89.103631 113.87365 
L 89.318815 116.891872 
L 89.382697 116.407464 
L 89.498694 115.280712 
L 89.539041 115.711859 
L 89.71724 116.960122 
L 89.725645 116.950931 
L 89.755905 116.574315 
L 89.964364 113.24559 
L 89.994624 113.44875 
L 90.071956 114.644897 
L 90.129114 113.77343 
L 90.149287 113.55207 
L 90.18291 114.595641 
L 90.314037 121.026213 
L 90.388006 119.294732 
L 90.502322 112.608114 
L 90.593103 102.894196 
L 90.646899 108.130748 
L 90.833503 124.851413 
L 90.853676 124.553838 
L 90.917559 119.581287 
L 91.168045 97.127893 
L 91.198306 97.826983 
L 91.278999 106.161128 
L 91.512675 137.901093 
L 91.568152 135.623696 
L 91.741307 116.114205 
L 91.976664 100.908444 
L 91.988431 100.842662 
L 92.023735 101.529503 
L 92.104429 109.882372 
L 92.24228 122.652371 
L 92.289352 121.17091 
L 92.378451 111.316569 
L 92.477637 97.400251 
L 92.529752 104.078689 
L 92.67769 129.384812 
L 92.73821 128.352687 
L 92.817223 121.835022 
L 93.015595 93.795602 
L 93.089564 97.757817 
L 93.435875 133.849685 
L 93.489671 130.784058 
L 93.785548 109.344681 
L 93.793953 109.422019 
L 93.841025 112.236214 
L 93.906588 115.753026 
L 93.963746 113.299665 
L 94.192378 99.821557 
L 94.261304 104.057891 
L 94.511791 117.112672 
L 94.521878 117.055828 
L 94.579036 114.686697 
L 94.64628 112.132164 
L 94.693352 114.271889 
L 94.878275 130.850279 
L 94.948882 127.153102 
L 95.125399 110.713335 
L 95.241397 114.221333 
L 95.268295 114.150334 
L 95.29183 114.592622 
L 95.387654 120.222338 
L 95.44145 116.306345 
L 95.575939 102.237457 
L 95.638141 104.256275 
L 95.658314 104.670969 
L 95.713791 103.057611 
L 95.749095 102.198482 
L 95.796166 104.131178 
L 95.949148 126.107717 
L 96.046653 135.931911 
L 96.098767 132.584877 
L 96.320675 97.719761 
L 96.37279 93.346933 
L 96.426585 98.320178 
L 96.648493 137.994549 
L 96.73423 130.473123 
L 96.922516 102.66488 
L 97.003209 106.118563 
L 97.06373 108.333134 
L 97.137699 107.635598 
L 97.186451 110.760658 
L 97.315897 124.002358 
L 97.393229 121.675469 
L 97.529399 104.680206 
L 97.625223 112.514209 
L 97.652121 113.367379 
L 97.712641 111.315047 
L 97.724409 111.18365 
L 97.766437 112.543096 
L 97.947998 123.817841 
L 98.008518 119.987899 
L 98.114429 106.827731 
L 98.171587 112.841284 
L 98.252281 121.171043 
L 98.321207 119.685993 
L 98.327931 119.643842 
L 98.364916 120.347478 
L 98.380046 120.470774 
L 98.411987 119.386592 
L 98.53639 105.92736 
L 98.655749 109.429192 
L 98.692734 108.862904 
L 98.722994 109.907494 
L 98.827223 121.43354 
L 98.89783 114.379193 
L 98.929772 112.203084 
L 98.978524 117.49568 
L 99.096202 133.646633 
L 99.163447 132.260127 
L 99.232373 127.314161 
L 99.415615 91.108901 
L 99.541699 99.350561 
L 99.967022 133.272732 
L 100.000644 132.170058 
L 100.13009 116.737285 
L 100.266261 87.371714 
L 100.333506 97.591935 
L 100.518429 135.656728 
L 100.570544 132.330675 
L 100.898362 98.911708 
L 100.92526 101.079667 
L 101.175746 137.410243 
L 101.227861 133.69792 
L 101.506927 86.746772 
L 101.565766 96.325788 
L 101.785993 139.080632 
L 101.816253 137.340316 
L 101.930569 111.904722 
L 101.981002 106.507564 
L 102.044885 111.248786 
L 102.191142 119.618245 
L 102.221402 118.235343 
L 102.308821 108.127311 
L 102.36766 114.800426 
L 102.421456 119.832081 
L 102.483657 116.021964 
L 102.651769 102.586206 
L 102.710608 105.118268 
L 102.757679 107.057734 
L 102.816519 104.897645 
L 102.86359 103.00209 
L 102.910661 105.95413 
L 103.072049 129.705134 
L 103.14938 123.762145 
L 103.228393 114.6828 
L 103.282189 120.418146 
L 103.349433 127.162772 
L 103.408272 123.006679 
L 103.668846 96.169536 
L 103.724323 103.746979 
L 103.781481 112.159287 
L 103.836958 104.613147 
L 103.867218 101.52009 
L 103.912608 110.702889 
L 104.011794 141.761583 
L 104.084082 134.696348 
L 104.188312 125.376541 
L 104.274049 99.436737 
L 104.337931 111.668204 
L 104.361467 114.277242 
L 104.406857 104.162408 
L 104.495956 75.276821 
L 104.563201 84.7796 
L 104.894382 153.190603 
L 104.968351 171.210097 
L 105.033914 167.312146 
L 105.107884 154.113301 
L 105.390312 71.763837 
L 105.427296 74.858667 
L 105.783693 125.698985 
L 105.850938 122.481249 
L 106.101425 105.596936 
L 106.136728 106.202257 
L 106.333419 112.04428 
L 106.671324 124.727778 
L 106.738569 125.920104 
L 106.809176 125.645291 
L 106.814219 125.645017 
L 106.829349 125.546522 
L 107.078155 121.501543 
L 107.3858 112.52049 
L 107.579129 108.997483 
L 107.643011 108.016597 
L 107.742197 108.281412 
L 107.757327 108.239595 
L 107.812804 108.43585 
L 107.83634 108.680093 
L 107.905266 108.184497 
L 107.935526 107.906497 
L 107.979235 108.534768 
L 108.40792 117.216602 
L 108.702116 118.930972 
L 108.777766 118.696241 
L 108.880315 117.732697 
L 109.35439 111.767358 
L 109.441808 111.786799 
L 109.483836 111.722372 
L 109.588066 112.477103 
L 109.71415 113.288346 
L 109.934376 115.281021 
L 110.15124 116.798505 
L 110.321034 117.405983 
L 110.342888 117.246351 
L 110.904382 111.556039 
L 110.948091 111.243361 
L 111.018698 111.501029 
L 111.035509 111.584545 
L 111.084262 111.174464 
L 111.164955 110.471826 
L 111.2322 110.854973 
L 111.272547 110.557974 
L 111.316256 111.002896 
L 112.054267 119.599466 
L 112.086208 119.866407 
L 112.126555 119.307467 
L 112.175308 119.013315 
L 112.234147 119.374555 
L 112.257683 119.531488 
L 112.313159 119.063316 
L 112.607355 115.550229 
L 112.775467 113.87482 
L 112.935173 112.578161 
L 113.015867 111.869604 
L 113.086474 111.972607 
L 113.09488 111.951285 
L 113.14027 112.240986 
L 113.308382 113.27692 
L 113.659736 115.729936 
L 113.856427 117.364632 
L 113.885006 117.23157 
L 113.950569 116.952054 
L 114.019495 117.090709 
L 114.076653 117.200076 
L 114.100189 116.952712 
L 114.406153 112.416069 
L 114.438094 112.999148 
L 114.631422 117.461177 
L 114.665045 117.053594 
L 114.801215 111.681264 
L 114.881909 114.568945 
L 115.100455 120.104991 
L 115.102136 120.101605 
L 115.127353 119.423367 
L 115.251755 109.016306 
L 115.319 115.271416 
L 115.418186 125.368476 
L 115.477025 123.158258 
L 115.606471 105.892553 
L 115.705657 98.584651 
L 115.759453 99.287171 
L 115.836785 104.639577 
L 116.058692 124.382927 
L 116.109126 124.086774 
L 116.162922 123.687674 
L 116.209993 124.139419 
L 116.240253 124.541929 
L 116.283962 123.376206 
L 116.638678 105.799797 
L 116.724416 107.021324 
L 116.826964 114.192057 
L 116.887484 117.298484 
L 116.949686 115.32828 
L 117.143014 110.342615 
L 117.168231 111.186506 
L 117.259011 126.438037 
L 117.319532 131.664533 
L 117.385095 129.036006 
L 117.494368 114.612573 
L 117.694421 95.825498 
L 117.729725 95.081581 
L 117.76839 96.391322 
L 117.850765 112.598724 
L 118.040732 144.517823 
L 118.077716 143.003538 
L 118.205481 124.951541 
L 118.39881 101.491537 
L 118.440838 103.530821 
L 118.60895 117.925546 
L 118.672832 115.521089 
L 118.946855 99.149349 
L 118.993926 100.697753 
L 119.21079 123.974 
L 119.288122 131.629817 
L 119.348642 128.936992 
L 119.476407 112.063149 
L 119.550377 102.412973 
L 119.609216 107.330286 
L 119.770603 114.286507 
L 119.839529 119.347321 
L 119.900049 122.97057 
L 119.955526 120.033917 
L 120.135406 113.078697 
L 120.150536 113.290544 
L 120.229549 118.951954 
L 120.26149 119.788298 
L 120.303518 117.284631 
L 120.414472 106.273693 
L 120.474992 110.261583 
L 120.599395 120.365657 
L 120.658234 119.101901 
L 120.970922 112.904979 
L 121.026399 110.378985 
L 121.083557 107.720297 
L 121.132309 110.504009 
L 121.389521 137.00552 
L 121.444998 132.855279 
L 121.668586 89.039117 
L 121.725744 82.791494 
L 121.781221 88.215787 
L 122.009854 131.364428 
L 122.097272 123.964291 
L 122.337672 104.736752 
L 122.34944 104.960367 
L 122.399873 112.127246 
L 122.594883 130.279269 
L 122.631868 131.867255 
L 122.677258 128.393089 
L 122.942875 92.524598 
L 122.998351 98.410499 
L 123.250519 133.762435 
L 123.285823 131.897804 
L 123.495963 105.754074 
L 123.580019 113.305902 
L 123.633814 115.735695 
L 123.699378 114.257709 
L 123.771666 108.152168 
L 123.854041 99.85714 
L 123.906156 104.777761 
L 124.099484 122.703686 
L 124.117977 122.578482 
L 124.175135 120.049007 
L 124.301219 103.56362 
L 124.373507 111.636369 
L 124.425621 115.040926 
L 124.492866 112.83176 
L 124.499591 112.797657 
L 124.529851 113.486737 
L 124.644167 121.734854 
L 124.775294 137.213118 
L 124.840858 131.480968 
L 125.121605 85.468667 
L 125.185487 92.888343 
L 125.365367 138.315666 
L 125.451104 129.510889 
L 125.691504 104.372526 
L 125.743619 100.356559 
L 125.797414 104.660574 
L 126.010917 139.956947 
L 126.108421 130.389711 
L 126.2261 105.804674 
L 126.31688 87.242424 
L 126.372357 94.327537 
L 126.627887 144.465773 
L 126.69177 137.722598 
L 126.878374 98.912754 
L 126.982603 106.010293 
L 127.009501 106.515769 
L 127.05321 104.79747 
L 127.137266 98.077453 
L 127.186019 102.620035 
L 127.344044 126.61456 
L 127.402883 121.906997 
L 127.486939 111.486702 
L 127.552503 115.900881 
L 127.582763 117.310825 
L 127.641602 114.296193 
L 127.692036 112.552596 
L 127.764324 113.442026 
L 127.826525 111.692869 
L 127.839974 111.557199 
L 127.873596 112.862047 
L 127.962696 120.810318 
L 128.021535 115.703573 
L 128.061882 111.98968 
L 128.107272 118.632166 
L 128.223269 147.782596 
L 128.303963 142.993765 
L 128.372889 130.490434 
L 128.519146 58.366222 
L 128.598159 86.864194 
L 128.752822 153.557094 
L 128.813342 149.651888 
L 128.878906 127.278794 
L 129.142841 38.176178 
L 129.152928 38.627695 
L 129.223535 56.316305 
L 129.611873 201.334553 
L 129.719465 183.817772 
L 130.045602 54.280555 
L 130.156556 71.299284 
L 130.447389 128.144039 
L 130.465882 127.8357 
L 130.630631 119.115397 
L 130.85422 109.794016 
L 130.891205 109.806098 
L 130.904654 109.885966 
L 130.975261 111.760313 
L 131.410671 123.735143 
L 131.415714 123.733279 
L 131.449336 123.609304 
L 131.493045 123.811856 
L 131.511538 123.901674 
L 131.54516 123.472244 
L 132.232738 106.437831 
L 132.38572 106.881006 
L 132.402531 107.002925 
L 132.627801 110.991273 
L 132.977473 118.618981 
L 133.177527 121.082978 
L 133.264945 120.797669 
L 133.965971 110.710221 
L 133.971015 110.713116 
L 133.986145 110.734995 
L 134.004637 110.584483 
L 134.092055 109.564425 
L 134.14417 110.118117 
L 134.645143 117.627962 
L 134.885543 118.36438 
L 134.678766 117.603516 
L 134.912441 118.305953 
L 135.07551 117.284385 
L 135.295737 115.029864 
L 135.396604 114.451133 
L 135.741233 111.884018 
L 135.746276 111.901835 
L 136.674254 118.729549 
L 136.71292 118.238283 
L 137.323166 113.061451 
L 137.395454 113.212135 
L 137.412265 113.310418 
L 137.44925 112.7657 
L 137.630811 111.198511 
L 137.666114 111.414337 
L 137.701418 111.329376 
L 137.849356 112.042186 
L 137.965353 114.070434 
L 138.114973 116.066781 
L 138.151958 115.834994 
L 138.36546 114.676928 
L 138.187261 115.87128 
L 138.390676 114.885615 
L 138.706727 118.284886 
L 138.738668 118.030854 
L 138.98243 114.132325 
L 139.004285 114.310367 
L 139.069849 115.593762 
L 139.127007 114.499899 
L 139.190889 112.941813 
L 139.254772 113.809836 
L 139.338828 115.424597 
L 139.389261 114.531837 
L 139.476679 112.856988 
L 139.528794 113.672676 
L 139.722123 120.200544 
L 139.789367 117.143167 
L 139.902002 105.78221 
L 139.95916 111.12736 
L 140.095331 125.922423 
L 140.147446 124.685212 
L 140.261762 115.040837 
L 140.495437 96.086396 
L 140.517292 96.673123 
L 140.594623 107.003252 
L 140.828299 132.747399 
L 140.835023 132.714569 
L 140.882095 130.787229 
L 141.221681 107.984704 
L 141.299012 109.771855 
L 141.433502 115.476144 
L 141.52092 120.559544 
L 141.574716 118.069262 
L 141.73106 100.883627 
L 141.796623 91.113063 
L 141.8521 98.747426 
L 142.033661 137.82813 
L 142.094182 133.764727 
L 142.39174 92.69388 
L 142.458984 100.4075 
L 142.72292 141.338902 
L 142.748137 140.511362 
L 142.911205 122.834303 
L 143.121345 100.871694 
L 143.12807 100.831956 
L 143.156649 101.637941 
L 143.27937 108.885383 
L 143.397049 107.945128 
L 143.514727 104.858841 
L 143.556755 106.957319 
L 143.746721 123.553528 
L 143.822372 121.717795 
L 143.948456 108.223396 
L 144.025787 114.675428 
L 144.224159 124.513757 
L 144.24097 124.122113 
L 144.318302 115.845008 
L 144.372098 112.108285 
L 144.430937 115.377355 
L 144.469603 117.032404 
L 144.526761 114.348534 
L 144.577194 112.117197 
L 144.627628 114.914613 
L 144.834405 126.594995 
L 144.861303 125.926138 
L 144.948721 115.232244 
L 145.180716 94.600334 
L 145.192484 94.391111 
L 145.231149 96.588437 
L 145.347147 121.112132 
L 145.466506 135.530027 
L 145.511896 133.54663 
L 145.621169 115.770405 
L 145.722036 102.045475 
L 145.775832 104.974291 
L 146.061622 124.054805 
L 146.113737 122.037639 
L 146.34405 108.223967 
L 146.406252 112.599633 
L 146.436512 113.885942 
L 146.486945 110.242349 
L 146.540741 105.868146 
L 146.592856 110.466683 
L 146.68868 121.254592 
L 146.755924 119.236103 
L 146.856791 109.369236 
L 146.934123 98.345654 
L 146.9896 104.708475 
L 147.157712 120.089557 
L 147.172842 119.93527 
L 147.23 116.397574 
L 147.312375 111.268831 
L 147.379619 113.167186 
L 147.549412 123.997268 
L 147.63515 131.130523 
L 147.692308 128.110809 
L 147.902447 98.654033 
L 148.004996 106.873982 
L 148.159659 127.621832 
L 148.253801 124.777459 
L 148.324408 119.818095 
L 148.559765 99.079728 
L 148.595068 100.313457 
L 148.679124 114.701723 
L 148.815295 141.083221 
L 148.875815 137.656897 
L 148.976682 118.671252 
L 149.127983 79.150982 
L 149.188503 86.270015 
L 149.437309 129.218738 
L 149.494467 125.611279 
L 149.734867 102.075402 
L 149.797069 109.726938 
L 149.865994 116.973006 
L 149.941645 116.098361 
L 150.005527 126.028059 
L 150.09967 138.728739 
L 150.161871 136.377707 
L 150.242565 126.232974 
L 150.38546 92.87704 
L 150.467835 97.714248 
L 150.928462 129.404188 
L 151.00075 140.878025 
L 151.062951 135.924535 
L 151.204165 111.4022 
L 151.305032 85.771601 
L 151.36219 93.290683 
L 151.552157 131.893612 
L 151.61772 125.065345 
L 151.735399 103.199255 
L 151.806006 109.207333 
L 151.819455 109.670613 
L 151.861483 106.267647 
L 151.940495 96.391176 
L 151.994291 102.723883 
L 152.189301 142.957271 
L 152.261589 136.481248 
L 152.53393 82.732182 
L 152.609581 96.408681 
L 152.838213 150.497114 
L 152.870154 148.794306 
L 152.976064 125.842339 
L 153.204697 72.368559 
L 153.258492 80.544433 
L 153.468632 158.697027 
L 153.584629 146.212816 
L 153.783002 55.673291 
L 153.865376 34.731415 
L 153.919172 41.237322 
L 154.023402 98.312223 
L 154.292381 201.804118 
L 154.30583 201.429321 
L 154.389885 191.321882 
L 154.504202 126.110033 
L 154.716023 59.371624 
L 154.731153 59.792508 
L 154.808484 70.650973 
L 155.121172 126.865713 
L 155.158157 125.748186 
L 155.546495 110.160187 
L 155.605334 111.023245 
L 155.785214 114.856508 
L 156.081091 122.673276 
L 156.133206 122.114748 
L 156.930056 108.677183 
L 156.936781 108.686763 
L 157.022518 108.630995 
L 157.168775 109.870616 
L 157.842904 119.946015 
L 157.888294 119.787784 
L 157.963944 119.628665 
L 157.923597 119.84338 
L 157.995886 119.802967 
L 158.016059 119.900998 
L 158.059768 119.467716 
L 158.369094 114.638342 
L 158.554017 112.938826 
L 158.585958 112.744639 
L 158.743984 111.126785 
L 158.801142 111.399159 
L 158.812909 111.415591 
L 158.834764 111.227794 
L 158.84317 111.189782 
L 158.910414 111.506647 
L 159.036498 112.683624 
L 159.295391 116.415942 
L 159.461821 118.326602 
L 159.493763 118.208063 
L 159.762742 116.585749 
L 159.903956 116.041514 
L 160.137631 114.614188 
L 160.344409 112.504273 
L 160.418378 111.487797 
L 160.497391 112.168388 
L 160.517564 112.060152 
L 160.559592 111.84729 
L 160.598258 112.317575 
L 160.862193 114.753052 
L 160.868918 114.744776 
L 160.882367 114.728037 
L 160.927757 114.875526 
L 161.284154 117.818687 
L 161.300965 117.87195 
L 161.342993 117.557477 
L 161.469077 117.349392 
L 161.395108 117.660643 
L 161.47244 117.354513 
L 161.605248 117.692603 
L 161.645595 117.586863 
L 161.719564 116.804282 
L 161.958283 113.975474 
L 161.991905 113.772578 
L 162.040658 114.152944 
L 162.07428 114.387333 
L 162.128076 113.974683 
L 162.185234 113.749071 
L 162.235668 114.007044 
L 162.272652 114.131404 
L 162.311318 113.739472 
L 162.423953 112.961894 
L 162.457575 113.269852 
L 162.558442 113.557067 
L 162.587021 113.443739 
L 162.60047 113.422083 
L 162.632412 113.65728 
L 162.898028 116.133376 
L 162.958549 115.934861 
L 162.966954 115.904334 
L 163.037561 116.139821 
L 163.049329 116.210002 
L 163.108168 115.727293 
L 163.235933 113.441662 
L 163.316627 114.371996 
L 163.451117 116.480271 
L 163.548621 118.094197 
L 163.604098 117.568899 
L 163.80247 113.215265 
L 163.878121 113.877645 
L 163.938641 114.471017 
L 164.009248 114.147292 
L 164.098347 113.225111 
L 164.133651 113.930104 
L 164.298401 121.814051 
L 164.397587 119.22918 
L 164.49341 112.078088 
L 164.572423 104.941458 
L 164.624538 109.634121 
L 164.76407 124.963503 
L 164.821228 124.045266 
L 164.896879 117.919708 
L 165.133917 99.540657 
L 165.140641 99.506263 
L 165.164177 100.149382 
L 165.260001 111.677156 
L 165.475184 126.674478 
L 165.631528 128.722225 
L 165.648339 128.856147 
L 165.688686 128.004315 
L 165.781147 119.280116 
L 166.029953 98.721363 
L 166.05517 99.533165 
L 166.245136 118.3681 
L 166.329192 123.341665 
L 166.379626 120.677418 
L 166.483855 110.747921 
L 166.547738 115.27659 
L 166.623388 119.392716 
L 166.685589 118.300434 
L 166.741066 117.673395 
L 166.80663 113.800173 
L 167.008364 100.803754 
L 167.045349 101.396255 
L 167.159665 110.100259 
L 167.395022 140.441266 
L 167.455542 137.235162 
L 167.801852 109.939526 
L 167.805215 109.928308 
L 167.832113 110.282496 
L 167.860692 110.851352 
L 167.90272 109.320359 
L 167.9935 103.2157 
L 168.060745 105.33416 
L 168.075875 105.561865 
L 168.119584 104.014072 
L 168.191872 100.226806 
L 168.243987 103.179254 
L 168.501198 124.304397 
L 168.548269 122.025798 
L 168.844146 107.481137 
L 168.854233 107.385141 
L 168.891217 108.516333 
L 169.002171 124.158808 
L 169.092952 131.703153 
L 169.148429 129.580727 
L 169.501464 104.884248 
L 169.560303 109.107603 
L 169.6763 123.918096 
L 169.746907 120.845439 
L 169.820876 121.092849 
L 169.933511 111.794979 
L 170.145332 95.712134 
L 170.167187 96.549189 
L 170.252924 112.350346 
L 170.415992 123.756049 
L 170.421036 123.736085 
L 170.452977 122.349987 
L 170.582423 106.183304 
L 170.656392 114.573461 
L 170.806012 127.362568 
L 170.837953 126.733106 
L 170.906879 121.067845 
L 171.091802 111.657275 
L 171.145598 108.775239 
L 171.190988 112.190026 
L 171.280087 122.306675 
L 171.350694 119.400674 
L 171.503676 108.073193 
L 171.575964 112.477659 
L 171.64489 116.828113 
L 171.707092 114.62689 
L 171.74912 113.457938 
L 171.79451 115.794944 
L 171.876885 121.870358 
L 171.944129 119.751749 
L 172.107198 108.486344 
L 172.270267 94.344491 
L 172.312295 98.159069 
L 172.507304 140.637287 
L 172.608171 133.078951 
L 172.766197 97.706846 
L 172.900686 101.436485 
L 172.998191 129.777817 
L 173.038538 134.278742 
L 173.099058 127.841178 
L 173.361313 95.751315 
L 173.420152 99.148258 
L 173.62693 125.697428 
L 173.71771 138.281284 
L 173.774868 136.324075 
L 173.862286 126.925894 
L 173.995095 92.976456 
L 174.069064 104.228649 
L 174.247262 126.637915 
L 174.280885 125.094385 
L 174.511198 101.404483 
L 174.590211 109.170379 
L 174.75496 123.347695 
L 174.788583 121.106401 
L 174.887769 106.832947 
L 174.944927 114.785231 
L 175.035707 129.552964 
L 175.102952 126.049081 
L 175.239123 117.581124 
L 175.328222 100.665583 
L 175.393786 106.71153 
L 175.41564 107.59364 
L 175.464393 103.678094 
L 175.531637 97.615687 
L 175.593839 100.97457 
L 175.758588 121.165395 
L 175.849369 139.043096 
L 175.909889 133.079404 
L 176.193998 88.132179 
L 176.264605 97.497273 
L 176.427674 147.033659 
L 176.52686 136.107768 
L 176.84291 81.910192 
L 176.908474 95.497281 
L 177.132063 136.200952 
L 177.140468 136.262015 
L 177.169047 135.305481 
L 177.253103 120.546802 
L 177.448113 89.814499 
L 177.481735 92.496712 
L 177.57924 128.762113 
L 177.648166 142.01083 
L 177.712049 137.971967 
L 177.782656 121.615718 
L 177.885204 68.471336 
L 177.949086 94.483171 
L 178.123923 144.308006 
L 178.139053 143.763676 
L 178.202935 130.803545 
L 178.490407 56.325795 
L 178.524029 59.966477 
L 178.670286 108.311405 
L 178.94599 191.473075 
L 178.959439 190.970784 
L 179.065349 175.772102 
L 179.371313 60.550683 
L 179.48731 76.261282 
L 179.778144 126.667143 
L 179.801679 126.153889 
L 179.912633 118.49534 
L 180.097556 108.510881 
L 180.188337 109.485312 
L 180.205148 109.433068 
L 180.252219 109.751628 
L 180.366535 113.713143 
L 180.835568 124.172928 
L 180.877596 124.496263 
L 180.92971 124.122468 
L 181.023853 121.995792 
L 181.195327 116.983313 
L 181.469349 111.064255 
L 181.637461 109.229798 
L 181.652591 109.318748 
L 181.676127 109.471417 
L 181.719836 108.885959 
L 181.766907 108.173845 
L 181.850963 108.429705 
L 181.87618 108.369642 
L 181.901397 108.64119 
L 182.508281 118.817262 
L 182.540222 119.035804 
L 182.625959 118.889654 
L 182.64277 118.865993 
L 182.667987 119.051149 
L 182.683117 119.11692 
L 182.740275 118.7273 
L 183.04792 115.327101 
L 183.442983 111.027282 
L 183.49846 111.646273 
L 183.743903 115.091099 
L 183.762396 114.956903 
L 183.785931 114.755743 
L 183.843089 115.331506 
L 184.043142 117.776695 
L 184.296991 118.428154 
L 184.330614 118.295846 
L 184.394496 117.525438 
L 184.646664 114.989022 
L 184.665156 115.022203 
L 184.675243 115.003082 
L 184.688692 114.922984 
L 184.890426 112.937939 
L 185.164449 110.321102 
L 185.174536 110.357191 
L 185.75284 116.40291 
L 185.981473 118.972962 
L 186.035268 118.897885 
L 186.114281 119.304573 
L 186.136136 119.403423 
L 186.183207 119.026822 
L 186.734614 113.505199 
L 186.919537 111.71066 
L 186.956522 111.909851 
L 187.006955 111.994346 
L 187.02881 111.816659 
L 187.042259 111.723519 
L 187.117909 112.052679 
L 187.348222 113.207922 
L 187.640737 115.209372 
L 187.649143 115.192545 
L 187.714706 114.606516 
L 187.768502 115.163395 
L 187.88618 116.456353 
L 187.94502 116.377519 
L 187.970236 116.485089 
L 187.995453 116.654962 
L 188.091277 116.572009 
L 188.099682 116.550355 
L 188.140029 116.82721 
L 188.158522 116.773303 
L 188.239215 116.345143 
L 188.281243 116.759673 
L 188.30646 117.021126 
L 188.358575 116.29903 
L 188.595613 112.196706 
L 188.637641 112.692323 
L 188.940242 119.253634 
L 188.9974 117.827803 
L 189.16215 109.729011 
L 189.231076 103.050493 
L 189.281509 108.369944 
L 189.421042 128.953887 
L 189.488287 126.809512 
L 189.590835 111.597602 
L 189.797613 93.510529 
L 189.802656 93.496739 
L 189.826192 93.90831 
L 189.885031 100.627494 
L 190.127112 134.966651 
L 190.175864 133.162002 
L 190.606231 110.072518 
L 190.612955 110.093141 
L 190.654983 110.374732 
L 190.686925 109.896106 
L 190.74072 108.822107 
L 190.791154 110.035112 
L 191.01138 115.998405 
L 191.023148 115.826355 
L 191.078625 110.438843 
L 191.144189 103.577637 
L 191.196304 109.01758 
L 191.342561 130.358675 
L 191.399719 127.58739 
L 191.650206 101.1931 
L 191.747711 104.401261 
L 192.147817 133.405048 
L 192.19825 132.948987 
L 192.282306 128.220122 
L 192.462186 99.60363 
L 192.563053 91.629855 
L 192.610125 93.662033 
L 192.847162 119.742046 
L 192.953073 115.368063 
L 193.148083 104.567098 
L 193.185067 106.023068 
L 193.406975 130.737134 
L 193.477582 137.002732 
L 193.53474 133.386503 
L 193.709576 106.585824 
L 193.766734 100.589245 
L 193.825574 105.50752 
L 194.062611 122.066516 
L 194.072698 121.956973 
L 194.124813 117.957807 
L 194.232404 110.44027 
L 194.294606 111.271174 
L 194.415646 116.344655 
L 194.46608 118.780841 
L 194.514832 115.718233 
L 194.600569 106.871029 
L 194.666133 110.557648 
L 194.849375 116.494371 
L 194.857781 116.531525 
L 194.888041 115.977737 
L 194.983865 107.565537 
L 195.047747 104.539263 
L 195.106586 106.55625 
L 195.600835 133.404151 
L 195.612603 133.509385 
L 195.647907 132.364572 
L 195.772309 117.971121 
L 195.926972 90.432506 
L 195.99926 100.204386 
L 196.184183 122.453635 
L 196.2094 121.870182 
L 196.285051 111.638178 
L 196.35902 103.573712 
L 196.416178 107.701746 
L 196.456525 109.795254 
L 196.512002 106.458664 
L 196.542262 105.010662 
L 196.587652 109.057642 
L 196.817965 131.309408 
L 196.82469 131.278854 
L 196.858312 129.737095 
L 196.965904 108.591815 
L 197.167638 93.643929 
L 197.169319 93.644435 
L 197.187811 94.282965 
L 197.263462 107.411842 
L 197.428211 138.270753 
L 197.488732 134.737048 
L 197.671974 103.677719 
L 197.777884 114.137581 
L 197.824956 116.092619 
L 197.888838 114.180521 
L 197.910693 113.842698 
L 197.951039 115.368636 
L 198.036777 121.15074 
L 198.093935 117.519562 
L 198.278858 103.419662 
L 198.322567 105.751571 
L 198.404942 112.176077 
L 198.463781 108.599594 
L 198.520939 105.129561 
L 198.573053 108.645302 
L 198.800005 133.745987 
L 198.847076 129.604254 
L 199.141272 100.649826 
L 199.188343 98.041009 
L 199.242139 101.532388 
L 199.378309 130.51327 
L 199.452279 142.792096 
L 199.512799 137.557169 
L 199.690998 99.323212 
L 199.780097 81.23627 
L 199.835574 87.151214 
L 200.035627 132.864201 
L 200.138175 125.786187 
L 200.291157 103.255247 
L 200.392024 110.558528 
L 200.55173 122.473121 
L 200.613932 116.143806 
L 200.650917 113.220608 
L 200.699669 119.605705 
L 200.797174 137.605188 
L 200.862737 132.432335 
L 201.024125 109.082824 
L 201.104819 89.764547 
L 201.165339 97.942602 
L 201.209048 102.317595 
L 201.279655 98.630489 
L 201.313277 101.572483 
L 201.382203 109.906535 
L 201.43768 103.594233 
L 201.479708 99.056967 
L 201.528461 106.675026 
L 201.642777 128.937948 
L 201.715065 128.344464 
L 201.753731 127.819428 
L 201.807526 123.162807 
L 201.942016 95.617327 
L 202.02271 103.529579 
L 202.12862 140.212036 
L 202.216038 164.017289 
L 202.276559 158.380102 
L 202.367339 129.814303 
L 202.567392 64.555326 
L 202.595971 67.339134 
L 202.674984 105.687337 
L 202.799387 156.199818 
L 202.856545 155.401894 
L 202.878399 155.72208 
L 202.903616 154.67377 
L 202.964136 139.108783 
L 203.20958 23.688352 
L 203.280187 44.110509 
L 203.614729 211.455398 
L 203.670206 205.976001 
L 203.764349 166.036481 
L 204.043415 52.793031 
L 204.050139 52.748744 
L 204.077037 53.791731 
L 204.142601 67.775492 
L 204.450245 133.372135 
L 204.451926 133.374252 
L 204.463694 133.232149 
L 204.574648 127.959725 
L 204.87725 108.996082 
L 204.894061 109.05347 
L 205.04368 110.177616 
L 205.437062 120.600521 
L 205.553059 121.291444 
L 205.611899 121.190125 
L 205.744707 120.239416 
L 206.010324 113.591131 
L 206.356634 107.404607 
L 206.373445 107.492738 
L 206.598715 109.00352 
L 206.793725 112.885358 
L 207.269482 120.521074 
L 207.360262 121.109127 
L 207.405652 120.809207 
L 207.985638 112.300038 
L 208.01758 112.650339 
L 208.034391 112.787887 
L 208.091549 112.241261 
L 208.177286 110.858144 
L 208.24285 111.259906 
L 208.570668 114.802727 
L 208.624464 115.83832 
L 208.698433 115.344544 
L 208.720287 115.277454 
L 208.76904 115.473419 
L 208.881675 117.444791 
L 208.960687 116.917132 
L 209.058192 116.620979 
L 209.00944 117.065734 
L 209.086771 116.839364 
L 209.11535 117.019921 
L 209.167465 116.549201 
L 209.206131 116.217066 
L 209.26497 116.713596 
L 209.270013 116.714993 
L 209.288506 116.599659 
L 209.338939 116.199042 
L 209.409546 116.467995 
L 209.666757 114.133182 
L 209.818058 113.524053 
L 209.82142 113.526515 
L 209.929012 113.696701 
L 209.950866 113.562393 
L 209.98617 113.166462 
L 210.041647 113.749479 
L 210.125703 114.801507 
L 210.206397 114.61423 
L 210.228251 114.721226 
L 210.290453 115.067785 
L 210.324075 114.596445 
L 210.349292 114.426612 
L 210.387957 115.127278 
L 210.43671 115.864213 
L 210.503955 115.287385 
L 210.515722 115.233426 
L 210.556069 115.826865 
L 210.614908 116.67241 
L 210.67711 116.07804 
L 210.695602 115.960479 
L 210.759485 116.336975 
L 210.762847 116.335337 
L 210.813281 116.423578 
L 210.853627 116.090869 
L 211.031826 114.967316 
L 211.119244 115.125176 
L 211.131012 115.129855 
L 211.146142 115.017153 
L 211.294081 113.707148 
L 211.33779 113.835157 
L 211.549611 112.132602 
L 211.610131 112.832036 
L 211.63871 113.077904 
L 211.724447 112.886639 
L 211.768156 112.809329 
L 211.788329 113.004278 
L 211.941311 114.769777 
L 211.983339 114.753333 
L 212.040497 115.327896 
L 212.129597 115.009952 
L 212.196841 114.541309 
L 212.235507 115.051958 
L 212.462458 117.383773 
L 212.492718 117.609021 
L 212.556601 117.253629 
L 212.785233 114.923736 
L 212.793639 114.952911 
L 212.941577 116.352435 
L 212.988648 115.586605 
L 213.134906 112.115414 
L 213.198788 113.015655 
L 213.287888 115.34175 
L 213.353451 114.870876 
L 213.479535 113.311576 
L 213.521563 114.163122 
L 213.669502 119.932928 
L 213.730022 118.757063 
L 213.824165 110.633627 
L 213.89309 105.399248 
L 213.943524 109.433161 
L 214.0881 129.471165 
L 214.153664 125.724762 
L 214.419281 93.894304 
L 214.50838 99.517324 
L 214.726925 129.45676 
L 214.844604 128.645473 
L 214.918573 126.348861 
L 215.187552 111.081555 
L 215.278332 113.91607 
L 215.283376 113.943545 
L 215.315317 113.313395 
L 215.382562 111.127454 
L 215.444763 112.595509 
L 215.459893 112.756126 
L 215.506965 111.653963 
L 215.597745 107.400332 
L 215.66499 109.1442 
L 215.671714 109.176293 
L 215.696931 108.535377 
L 215.7709 103.385061 
L 215.81629 107.746054 
L 215.964229 136.004157 
L 216.038198 130.319162 
L 216.367697 100.113549 
L 216.369379 100.115367 
L 216.391233 100.7326 
L 216.535809 114.21086 
L 216.801426 132.097348 
L 216.818237 132.399981 
L 216.858584 130.471479 
L 217.177997 100.295294 
L 217.240198 103.000177 
L 217.492366 118.539771 
L 217.5428 116.609248 
L 217.796649 100.794929 
L 217.860531 106.198001 
L 218.070671 134.036146 
L 218.132872 130.907599 
L 218.285854 107.056284 
L 218.341331 103.465729 
L 218.403533 105.93491 
L 218.558195 117.115151 
L 218.665787 125.740316 
L 218.727988 125.422742 
L 218.7448 125.459151 
L 218.766654 125.272951 
L 218.823812 122.506591 
L 218.966707 104.515858 
L 219.109602 106.077659 
L 219.131457 105.537878 
L 219.171804 108.285616 
L 219.294526 121.532729 
L 219.380263 121.3191 
L 219.408842 120.712279 
L 219.472724 112.915421 
L 219.551737 103.614275 
L 219.607214 108.898553 
L 219.787093 123.601551 
L 219.802223 123.379221 
L 219.864425 117.582466 
L 219.935032 112.092506 
L 219.993871 115.281161 
L 220.034218 116.927825 
L 220.091376 114.382461 
L 220.123317 113.553154 
L 220.17207 115.66307 
L 220.244358 119.989168 
L 220.30824 117.726242 
L 220.523424 103.941129 
L 220.582263 109.749177 
L 220.69826 123.047084 
L 220.767186 122.793749 
L 220.827706 119.593229 
L 220.921849 112.647886 
L 220.997499 114.295431 
L 221.036165 112.888878 
L 221.185784 98.769496 
L 221.251348 106.077132 
L 221.414417 134.812701 
L 221.474937 130.834921 
L 221.745597 96.319405 
L 221.829653 104.112299 
L 222.002808 139.54433 
L 222.078459 130.425792 
L 222.293642 110.166338 
L 222.354162 105.659632 
L 222.436537 105.978309 
L 222.522274 99.267312 
L 222.569345 104.254966 
L 222.782847 126.347276 
L 222.789572 126.320703 
L 222.818151 124.845454 
L 222.912294 104.667569 
L 222.962727 98.46631 
L 223.023247 104.523412 
L 223.250198 123.596734 
L 223.277096 122.429737 
L 223.428397 107.77766 
L 223.495642 113.250849 
L 223.651986 128.163327 
L 223.695695 126.694014 
L 223.821779 110.176139 
L 223.873894 104.836772 
L 223.92937 110.597798 
L 223.998296 117.375938 
L 224.073947 116.173361 
L 224.159684 124.285061 
L 224.211798 117.959643 
L 224.410171 92.926393 
L 224.435387 93.663031 
L 224.49927 104.447994 
L 224.613586 133.746376 
L 224.684193 125.324853 
L 224.711091 123.774555 
L 224.768249 128.123544 
L 224.790103 129.112661 
L 224.835494 124.837468 
L 225.057401 96.742017 
L 225.094386 98.659755 
L 225.186847 121.526225 
L 225.292758 143.068524 
L 225.354959 140.814769 
L 225.423885 135.718261 
L 225.571824 92.91844 
L 225.681096 107.741298 
L 225.818948 119.82679 
L 225.862657 116.804705 
L 226.04758 97.36932 
L 226.111463 98.723666 
L 226.178708 105.488903 
L 226.353544 119.576883 
L 226.383804 118.67367 
L 226.429194 116.782292 
L 226.469541 119.76798 
L 226.585538 141.271978 
L 226.661189 132.530954 
L 226.891502 101.649667 
L 226.957066 107.697839 
L 226.997413 110.095752 
L 227.051208 106.145688 
L 227.20419 80.608592 
L 227.261348 94.158601 
L 227.422736 172.726862 
L 227.513516 161.941069 
L 227.622789 114.700027 
L 227.826204 25.291675 
L 227.891768 43.75229 
L 228.266657 194.288911 
L 228.288512 193.494807 
L 228.367525 180.374071 
L 228.705429 58.111287 
L 228.816383 76.500118 
L 229.102173 127.171065 
L 229.113941 127.230907 
L 229.150926 126.594108 
L 229.356022 112.83214 
L 229.443441 108.767008 
L 229.50228 109.758962 
L 229.877169 120.400455 
L 230.072179 123.807046 
L 230.092353 123.949336 
L 230.149511 124.490908 
L 230.199944 123.926934 
L 230.342839 120.981111 
L 230.879116 108.227185 
L 230.976621 107.608072 
L 231.023692 107.929832 
L 231.180036 109.030864 
L 231.691097 117.984894 
L 231.776834 119.529214 
L 231.929816 120.640779 
L 231.934859 120.632501 
L 231.993698 120.12376 
L 232.40221 114.948357 
L 232.457687 114.308839 
L 232.694725 111.577513 
L 232.719941 111.514085 
L 232.768694 111.692776 
L 232.805679 111.586863 
L 232.86788 111.505698 
L 232.919995 112.012786 
L 233.13854 114.527582 
L 233.165438 114.428728 
L 233.178887 114.414054 
L 233.202423 114.611931 
L 233.377259 117.139277 
L 233.444504 116.934172 
L 233.45459 116.910624 
L 233.489894 117.198081 
L 233.511748 117.356454 
L 233.582355 117.009838 
L 233.602529 116.879332 
L 233.673136 117.254306 
L 233.689947 117.329084 
L 233.726932 116.731174 
L 233.82948 114.975044 
L 233.891681 115.067612 
L 233.901768 115.076924 
L 233.937072 114.919922 
L 234.000954 114.40274 
L 234.083329 114.59597 
L 234.187558 113.946658 
L 234.248079 114.435987 
L 234.293469 114.587873 
L 234.32541 114.114065 
L 234.444769 112.879421 
L 234.483435 112.953201 
L 234.523782 113.126881 
L 235.179418 118.707311 
L 235.209679 119.23153 
L 235.285329 118.592692 
L 235.49715 117.496694 
L 235.513961 117.519684 
L 235.54254 117.270053 
L 236.110758 112.479947 
L 236.26374 111.435031 
L 236.319217 111.378397 
L 236.346115 111.541462 
L 236.509184 113.452267 
L 236.60837 113.124175 
L 236.631905 113.020621 
L 236.673933 113.393151 
L 237.243833 118.513998 
L 237.262325 118.287929 
L 237.440523 115.58773 
L 237.48087 116.203719 
L 237.507768 116.552593 
L 237.575013 115.8774 
L 237.608635 115.538392 
L 237.674199 116.103044 
L 237.687648 116.199085 
L 237.744806 115.617428 
L 237.830543 115.662815 
L 237.914599 113.35476 
L 238.082711 110.373161 
L 238.104565 110.556534 
L 238.185259 113.883848 
L 238.311343 119.058977 
L 238.358414 118.215755 
L 238.479455 109.576542 
L 238.553424 103.427678 
L 238.603858 108.06732 
L 238.736666 127.210996 
L 238.808954 123.943993 
L 238.924951 107.463079 
L 239.059441 94.625483 
L 239.096426 95.084247 
L 239.158627 98.104145 
L 239.286392 120.857668 
L 239.464591 137.998477 
L 239.49317 137.106223 
L 239.602442 124.280683 
L 239.800814 109.862581 
L 239.812582 109.928037 
L 239.86974 110.084984 
L 239.9 109.747275 
L 239.963883 106.624083 
L 240.007592 105.261085 
L 240.059707 107.522689 
L 240.321961 118.505813 
L 240.330367 118.448877 
L 240.372395 116.156754 
L 240.471581 108.342644 
L 240.525377 112.240267 
L 240.693489 129.233016 
L 240.74056 126.540585 
L 240.999452 100.601916 
L 241.049886 102.455664 
L 241.226403 117.467935 
L 241.456717 136.013443 
L 241.480252 135.627978 
L 241.544135 129.543666 
L 241.88204 94.873301 
L 241.89717 95.210286 
L 241.967777 103.868652 
L 242.129164 118.2549 
L 242.164468 117.763615 
L 242.314087 109.833628 
L 242.372926 107.375271 
L 242.436809 109.036149 
L 242.557849 114.461438 
L 242.672166 129.599162 
L 242.744454 126.024649 
L 243.163052 102.882714 
L 243.201718 105.776921 
L 243.41522 123.128861 
L 243.425307 123.059162 
L 243.462291 121.152451 
L 243.601824 105.426496 
L 243.675794 111.053907 
L 243.827094 121.871754 
L 243.860717 121.041056 
L 243.976714 111.291846 
L 244.13642 104.462091 
L 244.159956 105.159825 
L 244.284359 118.220445 
L 244.396994 114.396547 
L 244.49618 107.08843 
L 244.5567 110.691367 
L 244.669335 118.498164 
L 244.724812 117.502577 
L 244.728174 117.490761 
L 244.750029 117.863365 
L 244.867707 125.497903 
L 244.950082 121.215027 
L 245.138367 110.595516 
L 245.284624 97.304174 
L 245.335058 101.885571 
L 245.513257 134.656905 
L 245.598994 130.217985 
L 245.71331 104.331979 
L 245.763743 98.398815 
L 245.83435 101.841358 
L 245.879741 101.530828 
L 245.926812 105.195997 
L 246.051215 131.409158 
L 246.145357 124.221018 
L 246.25463 116.233348 
L 246.362222 100.985667 
L 246.41938 105.829989 
L 246.481581 110.198877 
L 246.548826 108.151246 
L 246.558913 108.050949 
L 246.590854 109.338581 
L 246.695083 127.345452 
L 246.79595 136.524545 
L 246.843022 134.498669 
L 246.933802 116.959546 
L 247.014496 99.889982 
L 247.076697 107.458405 
L 247.157391 114.547201 
L 247.219592 113.028339 
L 247.333908 106.533534 
L 247.399472 110.569709 
L 247.429732 111.823208 
L 247.488571 109.177457 
L 247.50202 108.940523 
L 247.537324 111.218381 
L 247.639872 123.160534 
L 247.732334 121.696808 
L 247.745783 121.716559 
L 247.759232 121.578908 
L 247.802941 117.71243 
L 247.918938 96.587268 
L 247.981139 106.146802 
L 248.189598 133.203433 
L 248.201366 132.957417 
L 248.25348 125.36584 
L 248.34258 112.1045 
L 248.409825 114.953556 
L 248.419911 115.066412 
L 248.453534 113.675729 
L 248.577936 100.673721 
L 248.638457 107.472535 
L 248.804887 137.049432 
L 248.863727 132.553632 
L 249.171371 83.111771 
L 249.238616 93.760748 
L 249.435307 138.668529 
L 249.487422 136.414045 
L 249.584927 117.622218 
L 249.68075 102.674654 
L 249.737908 106.277492 
L 250.151464 132.357906 
L 250.163232 132.589017 
L 250.198535 130.264065 
L 250.49105 90.073486 
L 250.549889 99.682186 
L 250.73145 118.430893 
L 250.771797 122.210158 
L 250.820549 115.200973 
L 250.879388 106.027913 
L 250.933184 114.354413 
L 251.007153 126.416478 
L 251.074398 122.469833 
L 251.202163 109.98629 
L 251.31816 84.416646 
L 251.382043 90.753121 
L 251.494678 124.546826 
L 251.674558 157.7514 
L 251.698093 158.560893 
L 251.730034 155.158667 
L 251.810728 108.752661 
L 251.881335 81.891129 
L 251.94858 89.790572 
L 252.007419 87.696226 
L 252.072983 103.931235 
L 252.157039 131.151773 
L 252.237732 129.665268 
L 252.31002 145.189471 
L 252.35373 130.704578 
L 252.479813 55.711736 
L 252.568913 63.425568 
L 252.612622 71.515854 
L 252.932034 188.326041 
L 253.007685 180.904268 
L 253.081654 158.583506 
L 253.355676 57.677084 
L 253.377531 58.671968 
L 253.48176 77.596674 
L 253.777637 133.424315 
L 253.789405 133.319852 
L 253.849925 130.04513 
L 254.214728 111.669895 
L 254.216409 111.670897 
L 254.243307 111.890466 
L 254.861959 121.3714 
L 254.946015 120.426295 
L 255.137663 117.209852 
L 255.381425 111.939422 
L 255.529363 110.874869 
L 255.542812 110.954276 
L 255.589884 111.179158 
L 255.633593 110.731836 
L 255.813472 109.356119 
L 255.833646 109.494561 
L 256.568295 119.12966 
L 256.573338 119.139676 
L 256.603598 118.866286 
L 256.662437 118.854079 
L 256.694379 118.937872 
L 256.702784 118.931182 
L 256.75658 118.980707 
L 256.800289 118.586936 
L 257.050776 114.100155 
L 257.213844 112.442909 
L 257.255872 112.371665 
L 257.281089 112.576099 
L 257.291176 112.617377 
L 257.336566 112.185544 
L 257.47778 111.18111 
L 257.494591 111.235934 
L 257.654298 113.253003 
L 257.842583 114.912417 
L 258.177126 117.564025 
L 258.251095 117.422803 
L 258.30321 117.639821 
L 258.357005 117.92749 
L 258.385584 117.370122 
L 258.506625 115.831495 
L 258.545291 115.968783 
L 258.575551 116.254916 
L 258.636071 115.688562 
L 258.765517 114.365215 
L 258.815951 114.763403 
L 258.841168 114.913945 
L 258.90505 114.587461 
L 258.977338 114.687949 
L 259.079886 113.290152 
L 259.158899 112.468778 
L 259.211014 112.902055 
L 259.540513 115.840286 
L 259.560686 115.829397 
L 259.895229 116.855706 
L 259.920446 116.660354 
L 259.964155 116.317095 
L 260.024675 116.744582 
L 260.029719 116.750679 
L 260.071747 116.593319 
L 260.22641 115.524499 
L 260.265075 115.851112 
L 260.28693 116.013586 
L 260.330639 115.416286 
L 260.703847 112.741193 
L 260.744194 112.634186 
L 260.774454 112.876236 
L 260.927436 113.177618 
L 261.035028 114.001116 
L 261.176242 116.300905 
L 261.267022 115.95438 
L 261.275428 115.927069 
L 261.335948 116.195014 
L 261.351078 116.244168 
L 261.403193 115.941703 
L 261.502379 115.145914 
L 261.562899 115.73197 
L 261.757909 118.072045 
L 261.803299 117.872355 
L 261.863819 116.705883 
L 262.033612 112.972658 
L 262.077322 113.202441 
L 262.105901 113.477022 
L 262.146247 112.881268 
L 262.208449 112.235294 
L 262.252158 112.909068 
L 262.445487 116.028741 
L 262.458936 115.951323 
L 262.544673 113.908368 
L 262.75145 109.803198 
L 262.780029 110.220897 
L 262.872491 116.442768 
L 263.03724 122.376312 
L 263.054052 122.226553 
L 263.102804 119.44914 
L 263.230569 105.357088 
L 263.289408 112.211078 
L 263.418854 128.260048 
L 263.470969 126.03615 
L 263.778614 102.063822 
L 263.839134 104.149249 
L 264.091302 130.548977 
L 264.203937 124.882081 
L 264.466192 110.959128 
L 264.477959 111.053085 
L 264.562015 112.744116 
L 264.615811 111.621451 
L 264.88479 106.14221 
L 264.913369 106.40323 
L 265.002468 110.95197 
L 265.029366 111.604412 
L 265.088206 109.82384 
L 265.113422 109.155064 
L 265.152088 111.576252 
L 265.279853 130.779912 
L 265.363909 124.792402 
L 265.562281 96.629114 
L 265.693408 103.639946 
L 265.772421 110.383601 
L 265.962387 132.439752 
L 266.014502 131.511369 
L 266.098558 124.311164 
L 266.182614 118.283777 
L 266.243134 120.157952 
L 266.270032 120.756964 
L 266.335596 119.686662 
L 266.340639 119.69329 
L 266.41629 119.862605 
L 266.377624 119.570037 
L 266.433101 119.654508 
L 266.502027 115.038698 
L 266.683587 99.36031 
L 266.737383 101.738568 
L 266.883641 112.014561 
L 266.955929 109.200194 
L 266.986189 108.754076 
L 267.039985 109.909657 
L 267.241719 118.290072 
L 267.30392 116.425532 
L 267.465308 109.463173 
L 267.52919 110.910824 
L 267.999904 129.893464 
L 268.038569 128.905742 
L 268.199957 112.041521 
L 268.326041 93.717907 
L 268.386561 100.711029 
L 268.588295 119.790418 
L 268.591657 119.775373 
L 268.623599 118.276249 
L 268.912751 103.893656 
L 268.9262 103.629587 
L 268.959822 105.829501 
L 269.180049 131.281398 
L 269.247294 128.584967 
L 269.549895 99.700221 
L 269.60201 103.043948 
L 269.805425 135.064529 
L 269.904611 126.32748 
L 270.065999 100.018872 
L 270.134925 107.167448 
L 270.230748 115.119748 
L 270.297993 115.109777 
L 270.39886 122.207601 
L 270.461062 117.395857 
L 270.632536 109.255676 
L 270.651028 109.130225 
L 270.694737 109.84104 
L 270.782155 114.270706 
L 270.83427 111.519767 
L 270.90992 105.43479 
L 270.960354 109.622012 
L 271.195711 137.112301 
L 271.241101 133.514494 
L 271.557151 96.442611 
L 271.602541 98.689055 
L 271.758886 125.317419 
L 271.837898 137.625681 
L 271.896737 132.801067 
L 272.068211 98.47461 
L 272.165716 80.43035 
L 272.219512 85.377902 
L 272.446463 135.714854 
L 272.569185 127.262276 
L 272.713761 110.556938 
L 272.834802 115.830007 
L 272.925582 118.967538 
L 272.96761 116.603727 
L 273.049985 107.932718 
L 273.1021 113.577817 
L 273.213053 131.726163 
L 273.28366 127.512385 
L 273.441686 112.74514 
L 273.502206 103.621786 
L 273.562726 110.267168 
L 273.596349 112.773909 
L 273.650144 107.443642 
L 273.697216 103.081501 
L 273.754374 108.023311 
L 273.787996 110.307448 
L 273.840111 105.443532 
L 273.887182 100.130724 
L 273.937616 107.61314 
L 274.026715 124.062166 
L 274.09396 119.296995 
L 274.10909 118.927123 
L 274.161204 121.189882 
L 274.179697 121.804319 
L 274.220044 118.354215 
L 274.332679 94.783321 
L 274.398242 105.852259 
L 274.579803 142.307218 
L 274.628556 138.671518 
L 274.988315 90.294861 
L 275.0253 93.254407 
L 275.153065 133.462996 
L 275.252251 145.278361 
L 275.302684 144.086663 
L 275.369929 134.436981 
L 275.632184 79.200548 
L 275.670849 84.41698 
L 275.849048 139.967285 
L 275.958321 134.071884 
L 276.086086 86.644398 
L 276.175185 108.032915 
L 276.350021 120.786174 
L 276.366833 121.281398 
L 276.403817 117.747964 
L 276.51309 93.894193 
L 276.575291 106.010848 
L 276.782069 153.136499 
L 276.825778 146.376594 
L 277.148553 59.289941 
L 277.251101 65.419659 
L 277.328433 96.51552 
L 277.600774 186.358052 
L 277.607498 186.248463 
L 277.678105 178.746716 
L 277.753756 157.18786 
L 278.026097 64.465933 
L 278.042908 64.92693 
L 278.115196 74.644592 
L 278.434609 130.265998 
L 278.478318 128.664227 
L 278.866656 108.450341 
L 278.883468 108.48409 
L 278.933901 109.147477 
L 279.535742 121.901419 
L 279.552553 121.866979 
L 279.597943 121.198138 
L 280.287202 110.557215 
L 280.293926 110.564989 
L 280.371258 111.039538 
L 280.438503 111.332126 
L 280.475487 110.990684 
L 280.487255 110.943643 
L 280.541051 111.353728 
L 280.917622 115.430614 
L 281.163065 117.164981 
L 281.324452 118.702076 
L 281.326133 118.701279 
L 281.368161 118.464688 
L 281.662357 114.86028 
L 281.717834 115.146772 
L 281.803571 115.012442 
L 281.835512 114.734712 
L 281.914525 115.011507 
L 281.919568 115.015563 
L 281.948147 114.83831 
L 282.259154 112.756071 
L 282.291096 112.836994 
L 282.294458 112.860191 
L 282.682796 116.375026 
L 282.731549 116.164546 
L 282.83914 115.941641 
L 282.855952 116.043248 
L 282.940008 116.478426 
L 282.992122 116.285176 
L 283.109801 116.107243 
L 283.025745 116.397693 
L 283.135017 116.267928 
L 283.160234 116.491991 
L 283.234203 116.138469 
L 283.392229 115.07931 
L 283.410721 115.114102 
L 283.456111 115.141843 
L 283.479647 115.019156 
L 283.862942 113.452677 
L 283.525037 115.034564 
L 283.915057 113.612771 
L 283.99575 114.445526 
L 284.094936 114.412352 
L 284.14537 114.590542 
L 284.47655 116.455041 
L 284.496724 116.331935 
L 284.557244 115.843668 
L 284.609359 116.309551 
L 284.676603 117.171197 
L 284.737124 116.538055 
L 284.925409 114.726783 
L 284.952307 115.000854 
L 284.989292 115.280314 
L 285.04645 114.785221 
L 285.170852 114.532831 
L 285.184301 114.55846 
L 285.253227 115.072405 
L 285.293574 114.543456 
L 285.507076 112.190513 
L 285.579364 112.119187 
L 285.601219 112.253385 
L 286.093787 114.733822 
L 285.670145 112.081456 
L 286.127409 114.552353 
L 286.229957 114.072357 
L 286.271985 114.342815 
L 286.527515 117.418277 
L 286.611571 117.116917 
L 286.65528 116.722157 
L 286.801538 113.893901 
L 286.868783 114.746606 
L 287.006634 117.780354 
L 287.065473 117.02435 
L 287.206687 115.181252 
L 287.284019 115.682426 
L 287.312598 115.58747 
L 287.374799 113.642956 
L 287.430276 112.053423 
L 287.484072 113.713054 
L 287.623605 119.538678 
L 287.684125 118.678124 
L 287.791717 112.205518 
L 287.882497 105.068734 
L 287.932931 108.896305 
L 288.079188 125.510052 
L 288.144752 123.301496 
L 288.269155 108.961046 
L 288.443991 93.937405 
L 288.470889 94.700664 
L 288.554945 105.223601 
L 288.790302 132.789471 
L 288.793664 132.796604 
L 288.815518 132.525607 
L 288.89285 128.260142 
L 289.136612 110.247933 
L 289.168553 110.892035 
L 289.266058 116.013102 
L 289.321535 113.022672 
L 289.377012 109.912207 
L 289.437532 112.387908 
L 289.503096 115.760047 
L 289.566978 113.92807 
L 289.713236 102.971353 
L 289.772075 96.52991 
L 289.82419 102.974758 
L 289.985577 137.73928 
L 290.052822 133.186377 
L 290.1705 105.795574 
L 290.261281 91.991628 
L 290.321801 93.78022 
L 290.400813 99.663628 
L 290.624402 130.21143 
L 290.671474 129.418805 
L 290.970713 116.236122 
L 291.123695 103.158502 
L 291.189258 107.276106 
L 291.261546 110.836507 
L 291.333834 110.53753 
L 291.396036 115.170877 
L 291.444788 117.901707 
L 291.500265 114.839479 
L 291.560786 111.036624 
L 291.62803 113.138568 
L 291.641479 113.234146 
L 291.673421 112.316892 
L 291.76252 107.853938 
L 291.848257 108.523595 
L 291.873474 108.389697 
L 291.897009 108.693756 
L 291.947443 112.528389 
L 292.081932 131.567258 
L 292.165988 127.614507 
L 292.292072 119.499801 
L 292.419837 106.563681 
L 292.473633 107.802704 
L 292.599717 116.194846 
L 292.668643 121.982929 
L 292.725801 118.171095 
L 292.777916 115.213276 
L 292.835074 118.173648 
L 292.909043 122.159272 
L 292.97965 120.996767 
L 293.068749 117.808535 
L 293.253672 98.885418 
L 293.352858 104.280691 
L 293.596621 114.0102 
L 293.660503 117.052436 
L 293.808442 128.853043 
L 293.872324 126.056834 
L 294.040436 103.358354 
L 294.100956 95.915336 
L 294.158114 101.882908 
L 294.36153 129.220245 
L 294.401877 127.851196 
L 294.731376 108.825225 
L 294.751549 109.559227 
L 294.855779 126.006955 
L 294.973457 128.98793 
L 294.990268 128.904116 
L 295.028934 127.249443 
L 295.121395 110.892972 
L 295.32313 89.332847 
L 295.346665 88.399331 
L 295.392056 92.298667 
L 295.629093 137.59115 
L 295.728279 127.607645 
L 295.854363 106.221118 
L 295.923289 112.00226 
L 296.005664 117.998792 
L 296.069547 116.5346 
L 296.094763 116.049013 
L 296.140154 117.596769 
L 296.222528 122.032193 
L 296.279686 119.663679 
L 296.467972 104.531747 
L 296.538579 110.401208 
L 296.589012 113.557747 
L 296.642808 109.946557 
L 296.70501 105.874368 
L 296.762168 109.005011 
L 296.973989 131.378857 
L 297.041233 124.041722 
L 297.214389 113.058999 
L 297.394268 100.181657 
L 297.446383 103.038772 
L 297.553975 126.610141 
L 297.638031 141.713852 
L 297.698551 136.546784 
L 297.888517 99.949897 
L 297.959124 88.027426 
L 298.017963 93.951731 
L 298.229784 133.255894 
L 298.308797 125.054738 
L 298.532386 101.603303 
L 298.566008 102.869154 
L 298.724033 112.464337 
L 298.781191 110.370358 
L 298.811452 109.329144 
L 298.85348 112.234179 
L 298.999737 139.252673 
L 299.098923 132.45651 
L 299.201471 116.896479 
L 299.310744 95.253056 
L 299.383032 97.175458 
L 299.435147 95.276341 
L 299.467088 97.527298 
L 299.591491 127.330759 
L 299.688996 114.798825 
L 299.900817 93.940301 
L 299.98151 101.060342 
L 300.164752 129.684885 
L 300.265619 153.863544 
L 300.327821 151.262101 
L 300.403471 145.116823 
L 300.55141 92.840542 
L 300.665726 111.326481 
L 300.82207 128.78557 
L 300.887633 121.349078 
L 301.166699 71.559518 
L 301.222176 83.559506 
L 301.371796 140.022137 
L 301.464257 138.095529 
L 301.613877 148.922266 
L 301.652543 145.041897 
L 301.73828 98.07546 
L 301.861001 49.636112 
L 301.911435 52.186577 
L 301.980361 69.89928 
L 302.276238 187.834541 
L 302.351888 183.155689 
L 302.402322 175.627098 
L 302.703242 73.429219 
L 302.795703 85.744811 
L 303.093261 123.594832 
L 303.101667 123.540667 
L 303.147057 121.248453 
L 303.419399 103.529986 
L 303.468151 104.312065 
L 303.67661 111.103316 
L 304.120425 125.480003 
L 304.132193 125.499254 
L 304.180945 125.319769 
L 304.300305 122.62824 
L 304.808003 109.255659 
L 305.016462 108.561952 
L 305.046722 108.66229 
L 305.142545 109.163649 
L 305.82508 119.096381 
L 305.899049 118.770071 
L 305.96125 118.573567 
L 306.025133 118.647345 
L 306.045306 118.548602 
L 306.122638 117.519531 
L 306.189883 118.117337 
L 306.199969 118.15921 
L 306.233592 117.622826 
L 306.479035 113.059506 
L 306.509295 113.223835 
L 306.556367 113.424445 
L 306.581583 112.937613 
L 306.732884 111.04117 
L 306.744652 111.092922 
L 306.805172 111.600454 
L 306.900996 111.412242 
L 306.927894 111.361761 
L 307.023718 112.402756 
L 307.378434 116.774057 
L 307.393564 116.74405 
L 307.413737 116.895857 
L 307.575125 117.742357 
L 307.605385 117.687818 
L 307.802076 116.653741 
L 307.675992 117.714561 
L 307.830655 116.872125 
L 307.862596 117.047309 
L 307.926478 116.842068 
L 307.956739 116.997916 
L 308.007172 117.050154 
L 308.032389 116.86936 
L 308.521595 112.370226 
L 308.536725 112.334858 
L 308.568666 112.483978 
L 308.609013 112.4714 
L 308.677939 112.497705 
L 308.647678 112.530571 
L 308.691388 112.546059 
L 309.335256 116.901825 
L 309.389052 116.464751 
L 309.526904 115.660385 
L 309.560526 115.915393 
L 309.651306 116.831628 
L 309.703421 116.393815 
L 309.997617 112.989314 
L 310.054775 112.388345 
L 310.127063 112.568406 
L 310.165729 112.831055 
L 310.296856 113.89149 
L 310.342246 113.727277 
L 310.443113 112.698161 
L 310.495228 113.377364 
L 310.611225 114.276148 
L 310.643167 114.265713 
L 310.671746 114.158513 
L 310.718817 114.348192 
L 311.002926 117.651684 
L 311.103793 116.741242 
L 311.150865 116.340708 
L 311.295441 114.41983 
L 311.366048 115.324244 
L 311.535841 117.450093 
L 311.571144 117.304707 
L 311.70059 114.403328 
L 311.751024 113.574194 
L 311.816588 114.211913 
L 311.868702 115.07942 
L 311.937628 114.476844 
L 312.073799 111.93182 
L 312.127595 110.729537 
L 312.174666 112.195145 
L 312.302431 119.722101 
L 312.393211 118.816378 
L 312.462137 116.516882 
L 312.563004 106.708321 
L 312.620163 112.455186 
L 312.717667 125.253152 
L 312.784912 122.739079 
L 312.93117 106.021872 
L 313.000095 100.965304 
L 313.060616 103.245178 
L 313.480895 123.682118 
L 313.536372 123.672723 
L 313.672543 127.296798 
L 313.726339 125.058254 
L 314.003723 99.073576 
L 314.106272 104.291606 
L 314.338266 120.077406 
L 314.40383 115.481117 
L 314.457626 111.772231 
L 314.513102 115.531509 
L 314.602202 122.74419 
L 314.671128 121.121152 
L 314.805617 112.121003 
L 314.93002 104.100895 
L 314.985497 105.429486 
L 315.204042 119.437156 
L 315.387284 133.638162 
L 315.414182 132.946943 
L 315.504963 122.206022 
L 315.599105 113.311902 
L 315.659626 115.755415 
L 315.686523 116.462909 
L 315.738638 114.503668 
L 315.790753 112.733131 
L 315.851273 114.334834 
L 315.874809 114.722724 
L 315.915156 113.162604 
L 316.184135 99.722475 
L 316.20767 100.603182 
L 316.538851 124.215198 
L 316.609458 123.11153 
L 316.681746 119.123523 
L 316.859944 102.799889 
L 316.918784 106.874377 
L 317.100345 133.065095 
L 317.182719 130.215765 
L 317.302079 116.12181 
L 317.490364 99.995608 
L 317.507175 100.413092 
L 317.569377 109.198375 
L 317.663519 122.001029 
L 317.729083 118.783277 
L 317.757662 118.012581 
L 317.816501 119.786554 
L 317.831631 119.994958 
L 317.871978 118.587352 
L 318.117421 101.866347 
L 318.181304 107.112221 
L 318.366227 128.304535 
L 318.423385 126.866516 
L 318.500717 117.426563 
L 318.594859 104.377204 
L 318.648655 109.655675 
L 318.845346 126.697455 
L 318.862157 126.164474 
L 318.966387 112.663158 
L 319.124412 108.568564 
L 319.127774 108.585798 
L 319.164759 110.395423 
L 319.252177 116.018972 
L 319.314378 113.564462 
L 319.507707 108.169033 
L 319.541329 107.830109 
L 319.586719 108.748759 
L 319.734658 116.21897 
L 319.854017 132.016719 
L 319.936392 128.661894 
L 320.059114 120.328052 
L 320.277659 92.449798 
L 320.329774 99.007805 
L 320.509654 134.22697 
L 320.575217 131.451157 
L 320.674403 113.313313 
L 320.847559 96.269724 
L 320.887905 94.421921 
L 320.928252 97.97598 
L 321.182101 134.216755 
L 321.22581 132.358595 
L 321.526731 93.045784 
L 321.556991 91.289834 
L 321.605743 96.378552 
L 321.79571 139.482664 
L 321.883128 131.466138 
L 322.029385 107.955372 
L 322.106717 111.872766 
L 322.135296 112.59034 
L 322.184048 110.354086 
L 322.266423 104.290483 
L 322.323581 107.760108 
L 322.390826 112.940356 
L 322.451346 109.689395 
L 322.493374 107.418263 
L 322.543808 110.764218 
L 322.725368 121.224243 
L 322.743861 120.917848 
L 322.794294 116.05325 
L 322.89348 97.899499 
L 322.950638 107.71579 
L 323.049824 123.82317 
L 323.115388 123.191498 
L 323.202806 128.155447 
L 323.254921 124.055345 
L 323.449931 112.337571 
L 323.527262 105.320962 
L 323.597869 108.016593 
L 323.59955 108.019594 
L 323.609637 107.865943 
L 323.67352 104.385515 
L 323.710504 108.149298 
L 323.846675 138.089569 
L 323.935774 132.656534 
L 324.018149 118.508756 
L 324.176174 81.988699 
L 324.233332 85.743984 
L 324.32075 109.392982 
L 324.433385 146.848351 
L 324.50063 141.784195 
L 324.604859 128.125604 
L 324.823405 84.365123 
L 324.855346 86.548086 
L 325.087341 132.90394 
L 325.188208 151.083539 
L 325.248728 148.391491 
L 325.321016 134.085601 
L 325.433651 97.338674 
L 325.500896 108.887798 
L 325.568141 116.194654 
L 325.630342 113.302237 
L 325.769875 98.43135 
L 325.857293 73.88835 
L 325.911089 88.322054 
L 326.080882 149.453672 
L 326.13804 148.074855 
L 326.181749 141.206751 
L 326.475945 57.388259 
L 326.533103 66.569436 
L 326.931528 187.244331 
L 327.027352 178.906759 
L 327.108046 146.34509 
L 327.351808 65.759983 
L 327.363576 65.473483 
L 327.403923 68.342919 
L 327.553542 99.935068 
L 327.748552 121.373838 
L 327.76032 121.250499 
L 327.839332 117.126936 
L 328.064602 105.552703 
L 328.10663 106.077088 
L 328.313408 113.013779 
L 328.726963 126.894523 
L 328.745455 126.803721 
L 328.915248 124.835038 
L 329.661665 106.298178 
L 329.680158 106.496001 
L 330.545934 121.490482 
L 330.561064 121.442887 
L 330.78129 119.645314 
L 331.078849 112.442736 
L 331.278902 110.793931 
L 331.332697 110.845617 
L 331.425159 110.47862 
L 331.362958 110.88589 
L 331.458781 110.808521 
L 332.040449 118.576037 
L 332.05726 118.446768 
L 332.095925 118.029109 
L 332.169895 118.418999 
L 332.201836 118.815197 
L 332.287573 118.492623 
L 332.304384 118.508958 
L 332.317833 118.390252 
L 332.749881 113.455768 
L 332.796952 113.48536 
L 332.845705 113.21915 
L 333.146625 110.53059 
L 333.158393 110.611726 
L 333.889679 118.406766 
L 333.913215 118.367551 
L 334.02585 118.768035 
L 333.953562 118.22065 
L 334.066197 118.430382 
L 334.074602 118.424421 
L 334.099819 118.587606 
L 334.118312 118.77112 
L 334.187237 118.269296 
L 334.306597 117.263904 
L 334.854642 112.639516 
L 334.889945 112.753793 
L 334.958871 113.255625 
L 335.120258 113.891229 
L 335.036202 113.085067 
L 335.13707 113.783878 
L 335.207677 113.27473 
L 335.254748 113.713761 
L 335.673347 117.785246 
L 335.685114 117.764784 
L 335.79943 116.702655 
L 336.063366 112.665775 
L 336.065047 112.66762 
L 336.095307 113.08437 
L 336.30881 117.356168 
L 336.374373 116.644657 
L 336.60973 110.683683 
L 336.690424 111.188592 
L 336.767755 113.249072 
L 336.929142 121.611058 
L 337.018242 119.07902 
L 337.093892 115.986125 
L 337.213252 102.252689 
L 337.275453 109.881146 
L 337.418348 126.471678 
L 337.465419 126.17334 
L 337.512491 124.325921 
L 337.803324 97.347388 
L 337.870569 103.898311 
L 338.131142 133.575596 
L 338.141229 133.458357 
L 338.21688 128.864565 
L 338.489221 115.016715 
L 338.632116 106.232482 
L 338.722896 99.790273 
L 338.775011 103.335799 
L 338.981789 116.942731 
L 338.995238 116.732381 
L 339.057439 110.423055 
L 339.126365 103.073142 
L 339.175117 109.031053 
L 339.297839 130.019256 
L 339.36004 125.558565 
L 339.580267 103.166912 
L 339.660961 105.124086 
L 339.797131 111.490147 
L 339.924896 124.142245 
L 339.997184 123.095335 
L 340.003909 123.074689 
L 340.029126 123.561262 
L 340.188832 132.107608 
L 340.279612 128.911238 
L 340.392247 111.705352 
L 340.56204 101.641714 
L 340.585576 101.417966 
L 340.627604 102.36916 
L 340.832701 114.453056 
L 340.933568 120.834131 
L 340.990726 120.368446 
L 341.047884 117.82306 
L 341.175649 107.069078 
L 341.258024 110.182251 
L 341.390832 115.732047 
L 341.506829 127.760091 
L 341.572393 126.039458 
L 341.649724 119.665679 
L 341.747229 107.352116 
L 341.806068 112.675517 
L 341.91366 121.485033 
L 341.970818 120.873066 
L 342.019571 119.626849 
L 342.115394 109.316934 
L 342.165828 105.726191 
L 342.228029 108.995613 
L 342.261652 110.05859 
L 342.327215 108.353459 
L 342.328896 108.352789 
L 342.337302 108.46011 
L 342.381011 112.601583 
L 342.468429 123.098976 
L 342.527269 118.377614 
L 342.697062 112.108742 
L 342.75422 110.999007 
L 342.796248 112.339689 
L 343.071951 128.246864 
L 343.120703 125.154028 
L 343.411537 93.467453 
L 343.461971 98.479299 
L 343.658662 139.135704 
L 343.756166 134.429302 
L 343.860396 108.442836 
L 343.947814 95.620503 
L 344.008334 97.783289 
L 344.099115 106.642748 
L 344.208387 124.740873 
L 344.270589 119.555953 
L 344.534525 100.400546 
L 344.544611 100.576221 
L 344.596726 107.055676 
L 344.660608 114.244957 
L 344.731215 110.946742 
L 344.751389 111.827573 
L 344.870748 131.021441 
L 344.985064 123.030464 
L 345.05399 114.873591 
L 345.154857 91.585187 
L 345.21874 101.479139 
L 345.447372 130.352318 
L 345.449053 130.34313 
L 345.477632 128.790579 
L 345.707946 112.371018 
L 345.74493 113.891919 
L 345.882782 123.964117 
L 345.941621 120.806154 
L 346.077792 101.834049 
L 346.143355 109.715966 
L 346.299699 123.482247 
L 346.319873 123.258401 
L 346.383755 119.120156 
L 346.508158 99.231844 
L 346.592214 106.22845 
L 346.61575 107.015332 
L 346.667864 104.019169 
L 346.728385 100.996383 
L 346.775456 104.07647 
L 347.017537 137.89853 
L 347.088144 130.064967 
L 347.350399 89.40732 
L 347.395789 94.587697 
L 347.589118 144.286741 
L 347.681579 131.908222 
L 347.918617 102.946162 
L 347.957283 100.931784 
L 348.019484 103.840553 
L 348.090091 103.452742 
L 348.16406 114.404041 
L 348.254841 130.759104 
L 348.320404 127.286482 
L 348.439764 116.081364 
L 348.537269 98.70679 
L 348.606195 102.673442 
L 348.755814 116.28062 
L 348.856681 136.710262 
L 348.917202 132.909271 
L 349.028155 110.231769 
L 349.073546 104.267813 
L 349.127341 112.390489 
L 349.204673 122.826441 
L 349.270237 120.322763 
L 349.362698 112.683337 
L 349.477014 90.282595 
L 349.539216 100.056125 
L 349.789702 135.374222 
L 349.804832 134.785599 
L 350.088942 103.518007 
L 350.16123 114.084823 
L 350.384818 137.853672 
L 350.391543 138.075163 
L 350.421803 134.091985 
L 350.519308 104.813489 
L 350.586553 118.73936 
L 350.625218 123.796969 
L 350.682376 115.00657 
L 350.737853 107.902328 
L 350.795011 114.212003 
L 350.956399 140.736143 
L 350.996746 130.808746 
L 351.225378 35.461224 
L 351.282536 47.011943 
L 351.538066 184.741195 
L 351.620441 207.201048 
L 351.682642 205.025571 
L 351.734757 191.383781 
L 352.037358 62.164105 
L 352.09956 67.00462 
L 352.264309 104.969342 
L 352.429059 121.065298 
L 352.469406 119.946101 
L 352.763602 108.697848 
L 352.830847 109.425912 
L 353.077971 116.193294 
L 353.336863 122.631086 
L 353.365442 122.975525 
L 353.424281 122.115505 
L 353.452861 121.665914 
L 353.52683 122.127378 
L 353.535235 122.110546 
L 353.590712 121.334583 
L 354.148844 109.52689 
L 354.177423 109.665002 
L 354.195915 109.716954 
L 354.229537 109.395311 
L 354.44304 107.538798 
L 354.459851 107.602879 
L 354.464894 107.644613 
L 354.690164 110.74049 
L 354.991084 118.646884 
L 355.002852 118.642499 
L 355.02975 118.782089 
L 355.391191 122.184461 
L 355.433219 121.87841 
L 355.603012 118.669986 
L 355.841731 113.310898 
L 355.877034 113.123521 
L 356.157781 109.262623 
L 356.198128 109.379547 
L 356.302357 109.947195 
L 356.700782 118.470925 
L 356.897473 120.128284 
L 356.749535 118.145371 
L 356.971442 119.686592 
L 357.016833 119.933292 
L 357.267319 117.397694 
L 357.835538 110.668052 
L 357.859073 110.7212 
L 357.882609 110.570409 
L 357.927999 110.483906 
L 357.970027 110.749681 
L 358.183529 114.051031 
L 358.383582 116.05149 
L 358.726531 118.521592 
L 358.783689 118.521118 
L 358.803862 118.447232 
L 359.752013 112.387791 
L 359.797403 112.783476 
L 360.081512 116.701185 
L 360.168931 116.198985 
L 360.200872 116.039036 
L 360.244581 116.430973 
L 360.345448 116.722313 
L 360.286609 116.347343 
L 360.387476 116.625754 
L 360.461445 116.693837 
L 360.476575 116.568508 
L 360.639644 114.2987 
L 360.700164 114.922372 
L 360.73883 115.386977 
L 360.79935 114.729654 
L 361.117082 111.43704 
L 361.147342 111.567454 
L 361.244847 112.813613 
L 361.315454 113.268649 
L 361.357482 112.870661 
L 361.443219 111.026575 
L 361.49029 112.551863 
L 361.675213 123.041934 
L 361.729009 121.240695 
L 361.888715 105.208149 
L 361.957641 113.505301 
L 362.103899 129.209493 
L 362.142564 128.302053 
L 362.245113 117.018953 
L 362.413224 97.096823 
L 362.463658 98.695002 
L 362.596466 111.27403 
L 362.835185 132.067827 
L 362.836866 132.067185 
L 362.858721 131.886462 
L 362.919241 128.671032 
L 363.220162 98.877967 
L 363.324391 103.16315 
L 363.433664 114.719185 
L 363.505952 120.817202 
L 363.564791 117.934891 
L 363.766525 99.420492 
L 363.825364 106.960363 
L 363.976665 129.217605 
L 364.027099 128.322437 
L 364.099387 123.254016 
L 364.3297 94.227549 
L 364.393583 99.289112 
L 364.726444 139.427499 
L 364.760067 138.155844 
L 364.881107 122.867691 
L 364.983655 112.095948 
L 365.052581 112.217942 
L 365.114783 109.998632 
L 365.318198 96.866296 
L 365.387124 101.523121 
L 365.635929 118.698669 
L 365.647697 118.85429 
L 365.686363 117.532715 
L 365.788911 110.98334 
L 365.874648 112.584418 
L 365.955342 108.977677 
L 366.005776 112.028089 
L 366.145309 127.230037 
L 366.232727 126.600176 
L 366.28316 128.167325 
L 366.330232 126.288011 
L 366.513474 102.411765 
L 366.584081 95.184781 
L 366.641239 99.73999 
L 366.849697 131.318388 
L 366.933753 127.078693 
L 367.058156 106.456099 
L 367.128763 98.003254 
L 367.18424 103.368648 
L 367.411191 125.488808 
L 367.422959 125.33018 
L 367.50029 120.429217 
L 367.549043 118.352405 
L 367.621331 119.787008 
L 367.678489 113.943217 
L 367.764226 105.67256 
L 367.828109 108.265948 
L 367.846601 108.572499 
L 367.885267 106.842116 
L 367.940744 103.405738 
L 367.987815 107.512859 
L 368.197955 124.007274 
L 368.229896 124.98223 
L 368.271924 122.523193 
L 368.359342 113.432393 
L 368.423225 117.725289 
L 368.487107 120.413024 
L 368.554352 119.346617 
L 368.598061 119.47256 
L 368.62664 118.914069 
L 368.700609 111.351089 
L 368.759448 106.003119 
L 368.816607 110.436082 
L 369.00153 125.925059 
L 369.036833 124.929049 
L 369.130976 113.748108 
L 369.337753 90.79535 
L 369.376419 93.521112 
L 369.507546 130.037641 
L 369.571429 137.092912 
L 369.631949 133.495275 
L 369.897566 98.617035 
L 369.986665 103.55889 
L 370.216979 128.862997 
L 370.32457 123.233838 
L 370.526304 102.197698 
L 370.623809 108.8 
L 370.832268 126.655217 
L 370.897832 120.159007 
L 370.983569 114.803984 
L 370.991974 114.944557 
" style="fill:none;stroke:#1f77b4;stroke-linecap:square;stroke-width:1.5;"/>
   </g>
   <g id="patch_3">
    <path d="M 62.123438 220.84375 
L 62.123438 14.3 
" style="fill:none;stroke:#000000;stroke-linecap:square;stroke-linejoin:miter;stroke-width:0.8;"/>
   </g>
   <g id="patch_4">
    <path d="M 385.7 220.84375 
L 385.7 14.3 
" style="fill:none;stroke:#000000;stroke-linecap:square;stroke-linejoin:miter;stroke-width:0.8;"/>
   </g>
   <g id="patch_5">
    <path d="M 62.123438 220.84375 
L 385.7 220.84375 
" style="fill:none;stroke:#000000;stroke-linecap:square;stroke-linejoin:miter;stroke-width:0.8;"/>
   </g>
   <g id="patch_6">
    <path d="M 62.123438 14.3 
L 385.7 14.3 
" style="fill:none;stroke:#000000;stroke-linecap:square;stroke-linejoin:miter;stroke-width:0.8;"/>
   </g>
  </g>
 </g>
 <defs>
  <clipPath id="p0705afc4da">
   <rect height="206.54375" width="323.576563" x="62.123438" y="14.3"/>
  </clipPath>
 </defs>
</svg>
