<?xml version="1.0" encoding="utf-8" standalone="no"?>
<!DOCTYPE svg PUBLIC "-//W3C//DTD SVG 1.1//EN"
  "http://www.w3.org/Graphics/SVG/1.1/DTD/svg11.dtd">
<!-- Created with matplotlib (https://matplotlib.org/) -->
<svg height="262pt" version="1.1" viewBox="0 0 400 262" width="400pt" xmlns="http://www.w3.org/2000/svg" xmlns:xlink="http://www.w3.org/1999/xlink">
 <defs>
  <style type="text/css">
*{stroke-linecap:butt;stroke-linejoin:round;}
  </style>
 </defs>
 <g id="figure_1">
  <g id="patch_1">
   <path d="M 0 262 
L 400 262 
L 400 0 
L 0 0 
z
" style="fill:#ffffff;"/>
  </g>
  <g id="axes_1">
   <g id="patch_2">
    <path d="M 30.525 195.561563 
L 389.2 195.561563 
L 389.2 12.741958 
L 30.525 12.741958 
z
" style="fill:#ffffff;"/>
   </g>
   <g id="matplotlib.axis_1">
    <g id="xtick_1">
     <g id="text_1">
      <!-- Canadian wheat -->
      <defs>
       <path d="M 64.40625 67.28125 
L 64.40625 56.890625 
Q 59.421875 61.53125 53.78125 63.8125 
Q 48.140625 66.109375 41.796875 66.109375 
Q 29.296875 66.109375 22.65625 58.46875 
Q 16.015625 50.828125 16.015625 36.375 
Q 16.015625 21.96875 22.65625 14.328125 
Q 29.296875 6.6875 41.796875 6.6875 
Q 48.140625 6.6875 53.78125 8.984375 
Q 59.421875 11.28125 64.40625 15.921875 
L 64.40625 5.609375 
Q 59.234375 2.09375 53.4375 0.328125 
Q 47.65625 -1.421875 41.21875 -1.421875 
Q 24.65625 -1.421875 15.125 8.703125 
Q 5.609375 18.84375 5.609375 36.375 
Q 5.609375 53.953125 15.125 64.078125 
Q 24.65625 74.21875 41.21875 74.21875 
Q 47.75 74.21875 53.53125 72.484375 
Q 59.328125 70.75 64.40625 67.28125 
z
" id="DejaVuSans-67"/>
       <path d="M 34.28125 27.484375 
Q 23.390625 27.484375 19.1875 25 
Q 14.984375 22.515625 14.984375 16.5 
Q 14.984375 11.71875 18.140625 8.90625 
Q 21.296875 6.109375 26.703125 6.109375 
Q 34.1875 6.109375 38.703125 11.40625 
Q 43.21875 16.703125 43.21875 25.484375 
L 43.21875 27.484375 
z
M 52.203125 31.203125 
L 52.203125 0 
L 43.21875 0 
L 43.21875 8.296875 
Q 40.140625 3.328125 35.546875 0.953125 
Q 30.953125 -1.421875 24.3125 -1.421875 
Q 15.921875 -1.421875 10.953125 3.296875 
Q 6 8.015625 6 15.921875 
Q 6 25.140625 12.171875 29.828125 
Q 18.359375 34.515625 30.609375 34.515625 
L 43.21875 34.515625 
L 43.21875 35.40625 
Q 43.21875 41.609375 39.140625 45 
Q 35.0625 48.390625 27.6875 48.390625 
Q 23 48.390625 18.546875 47.265625 
Q 14.109375 46.140625 10.015625 43.890625 
L 10.015625 52.203125 
Q 14.9375 54.109375 19.578125 55.046875 
Q 24.21875 56 28.609375 56 
Q 40.484375 56 46.34375 49.84375 
Q 52.203125 43.703125 52.203125 31.203125 
z
" id="DejaVuSans-97"/>
       <path d="M 54.890625 33.015625 
L 54.890625 0 
L 45.90625 0 
L 45.90625 32.71875 
Q 45.90625 40.484375 42.875 44.328125 
Q 39.84375 48.1875 33.796875 48.1875 
Q 26.515625 48.1875 22.3125 43.546875 
Q 18.109375 38.921875 18.109375 30.90625 
L 18.109375 0 
L 9.078125 0 
L 9.078125 54.6875 
L 18.109375 54.6875 
L 18.109375 46.1875 
Q 21.34375 51.125 25.703125 53.5625 
Q 30.078125 56 35.796875 56 
Q 45.21875 56 50.046875 50.171875 
Q 54.890625 44.34375 54.890625 33.015625 
z
" id="DejaVuSans-110"/>
       <path d="M 45.40625 46.390625 
L 45.40625 75.984375 
L 54.390625 75.984375 
L 54.390625 0 
L 45.40625 0 
L 45.40625 8.203125 
Q 42.578125 3.328125 38.25 0.953125 
Q 33.9375 -1.421875 27.875 -1.421875 
Q 17.96875 -1.421875 11.734375 6.484375 
Q 5.515625 14.40625 5.515625 27.296875 
Q 5.515625 40.1875 11.734375 48.09375 
Q 17.96875 56 27.875 56 
Q 33.9375 56 38.25 53.625 
Q 42.578125 51.265625 45.40625 46.390625 
z
M 14.796875 27.296875 
Q 14.796875 17.390625 18.875 11.75 
Q 22.953125 6.109375 30.078125 6.109375 
Q 37.203125 6.109375 41.296875 11.75 
Q 45.40625 17.390625 45.40625 27.296875 
Q 45.40625 37.203125 41.296875 42.84375 
Q 37.203125 48.484375 30.078125 48.484375 
Q 22.953125 48.484375 18.875 42.84375 
Q 14.796875 37.203125 14.796875 27.296875 
z
" id="DejaVuSans-100"/>
       <path d="M 9.421875 54.6875 
L 18.40625 54.6875 
L 18.40625 0 
L 9.421875 0 
z
M 9.421875 75.984375 
L 18.40625 75.984375 
L 18.40625 64.59375 
L 9.421875 64.59375 
z
" id="DejaVuSans-105"/>
       <path id="DejaVuSans-32"/>
       <path d="M 4.203125 54.6875 
L 13.1875 54.6875 
L 24.421875 12.015625 
L 35.59375 54.6875 
L 46.1875 54.6875 
L 57.421875 12.015625 
L 68.609375 54.6875 
L 77.59375 54.6875 
L 63.28125 0 
L 52.6875 0 
L 40.921875 44.828125 
L 29.109375 0 
L 18.5 0 
z
" id="DejaVuSans-119"/>
       <path d="M 54.890625 33.015625 
L 54.890625 0 
L 45.90625 0 
L 45.90625 32.71875 
Q 45.90625 40.484375 42.875 44.328125 
Q 39.84375 48.1875 33.796875 48.1875 
Q 26.515625 48.1875 22.3125 43.546875 
Q 18.109375 38.921875 18.109375 30.90625 
L 18.109375 0 
L 9.078125 0 
L 9.078125 75.984375 
L 18.109375 75.984375 
L 18.109375 46.1875 
Q 21.34375 51.125 25.703125 53.5625 
Q 30.078125 56 35.796875 56 
Q 45.21875 56 50.046875 50.171875 
Q 54.890625 44.34375 54.890625 33.015625 
z
" id="DejaVuSans-104"/>
       <path d="M 56.203125 29.59375 
L 56.203125 25.203125 
L 14.890625 25.203125 
Q 15.484375 15.921875 20.484375 11.0625 
Q 25.484375 6.203125 34.421875 6.203125 
Q 39.59375 6.203125 44.453125 7.46875 
Q 49.3125 8.734375 54.109375 11.28125 
L 54.109375 2.78125 
Q 49.265625 0.734375 44.1875 -0.34375 
Q 39.109375 -1.421875 33.890625 -1.421875 
Q 20.796875 -1.421875 13.15625 6.1875 
Q 5.515625 13.8125 5.515625 26.8125 
Q 5.515625 40.234375 12.765625 48.109375 
Q 20.015625 56 32.328125 56 
Q 43.359375 56 49.78125 48.890625 
Q 56.203125 41.796875 56.203125 29.59375 
z
M 47.21875 32.234375 
Q 47.125 39.59375 43.09375 43.984375 
Q 39.0625 48.390625 32.421875 48.390625 
Q 24.90625 48.390625 20.390625 44.140625 
Q 15.875 39.890625 15.1875 32.171875 
z
" id="DejaVuSans-101"/>
       <path d="M 18.3125 70.21875 
L 18.3125 54.6875 
L 36.8125 54.6875 
L 36.8125 47.703125 
L 18.3125 47.703125 
L 18.3125 18.015625 
Q 18.3125 11.328125 20.140625 9.421875 
Q 21.96875 7.515625 27.59375 7.515625 
L 36.8125 7.515625 
L 36.8125 0 
L 27.59375 0 
Q 17.1875 0 13.234375 3.875 
Q 9.28125 7.765625 9.28125 18.015625 
L 9.28125 47.703125 
L 2.6875 47.703125 
L 2.6875 54.6875 
L 9.28125 54.6875 
L 9.28125 70.21875 
z
" id="DejaVuSans-116"/>
      </defs>
      <g transform="translate(36.450565 251.2)rotate(-90)scale(0.06 -0.06)">
       <use xlink:href="#DejaVuSans-67"/>
       <use x="69.824219" xlink:href="#DejaVuSans-97"/>
       <use x="131.103516" xlink:href="#DejaVuSans-110"/>
       <use x="194.482422" xlink:href="#DejaVuSans-97"/>
       <use x="255.761719" xlink:href="#DejaVuSans-100"/>
       <use x="319.238281" xlink:href="#DejaVuSans-105"/>
       <use x="347.021484" xlink:href="#DejaVuSans-97"/>
       <use x="408.300781" xlink:href="#DejaVuSans-110"/>
       <use x="471.679688" xlink:href="#DejaVuSans-32"/>
       <use x="503.466797" xlink:href="#DejaVuSans-119"/>
       <use x="585.253906" xlink:href="#DejaVuSans-104"/>
       <use x="648.632812" xlink:href="#DejaVuSans-101"/>
       <use x="710.15625" xlink:href="#DejaVuSans-97"/>
       <use x="771.435547" xlink:href="#DejaVuSans-116"/>
      </g>
     </g>
    </g>
    <g id="xtick_2">
     <g id="text_2">
      <!-- Canadian wheat -->
      <g transform="translate(44.990446 251.2)rotate(-90)scale(0.06 -0.06)">
       <use xlink:href="#DejaVuSans-67"/>
       <use x="69.824219" xlink:href="#DejaVuSans-97"/>
       <use x="131.103516" xlink:href="#DejaVuSans-110"/>
       <use x="194.482422" xlink:href="#DejaVuSans-97"/>
       <use x="255.761719" xlink:href="#DejaVuSans-100"/>
       <use x="319.238281" xlink:href="#DejaVuSans-105"/>
       <use x="347.021484" xlink:href="#DejaVuSans-97"/>
       <use x="408.300781" xlink:href="#DejaVuSans-110"/>
       <use x="471.679688" xlink:href="#DejaVuSans-32"/>
       <use x="503.466797" xlink:href="#DejaVuSans-119"/>
       <use x="585.253906" xlink:href="#DejaVuSans-104"/>
       <use x="648.632812" xlink:href="#DejaVuSans-101"/>
       <use x="710.15625" xlink:href="#DejaVuSans-97"/>
       <use x="771.435547" xlink:href="#DejaVuSans-116"/>
      </g>
     </g>
    </g>
    <g id="xtick_3">
     <g id="text_3">
      <!-- Canadian wheat -->
      <g transform="translate(53.530327 251.2)rotate(-90)scale(0.06 -0.06)">
       <use xlink:href="#DejaVuSans-67"/>
       <use x="69.824219" xlink:href="#DejaVuSans-97"/>
       <use x="131.103516" xlink:href="#DejaVuSans-110"/>
       <use x="194.482422" xlink:href="#DejaVuSans-97"/>
       <use x="255.761719" xlink:href="#DejaVuSans-100"/>
       <use x="319.238281" xlink:href="#DejaVuSans-105"/>
       <use x="347.021484" xlink:href="#DejaVuSans-97"/>
       <use x="408.300781" xlink:href="#DejaVuSans-110"/>
       <use x="471.679688" xlink:href="#DejaVuSans-32"/>
       <use x="503.466797" xlink:href="#DejaVuSans-119"/>
       <use x="585.253906" xlink:href="#DejaVuSans-104"/>
       <use x="648.632812" xlink:href="#DejaVuSans-101"/>
       <use x="710.15625" xlink:href="#DejaVuSans-97"/>
       <use x="771.435547" xlink:href="#DejaVuSans-116"/>
      </g>
     </g>
    </g>
    <g id="xtick_4">
     <g id="text_4">
      <!-- Canadian wheat -->
      <g transform="translate(62.070208 251.2)rotate(-90)scale(0.06 -0.06)">
       <use xlink:href="#DejaVuSans-67"/>
       <use x="69.824219" xlink:href="#DejaVuSans-97"/>
       <use x="131.103516" xlink:href="#DejaVuSans-110"/>
       <use x="194.482422" xlink:href="#DejaVuSans-97"/>
       <use x="255.761719" xlink:href="#DejaVuSans-100"/>
       <use x="319.238281" xlink:href="#DejaVuSans-105"/>
       <use x="347.021484" xlink:href="#DejaVuSans-97"/>
       <use x="408.300781" xlink:href="#DejaVuSans-110"/>
       <use x="471.679688" xlink:href="#DejaVuSans-32"/>
       <use x="503.466797" xlink:href="#DejaVuSans-119"/>
       <use x="585.253906" xlink:href="#DejaVuSans-104"/>
       <use x="648.632812" xlink:href="#DejaVuSans-101"/>
       <use x="710.15625" xlink:href="#DejaVuSans-97"/>
       <use x="771.435547" xlink:href="#DejaVuSans-116"/>
      </g>
     </g>
    </g>
    <g id="xtick_5">
     <g id="text_5">
      <!-- Canadian wheat -->
      <g transform="translate(70.610089 251.2)rotate(-90)scale(0.06 -0.06)">
       <use xlink:href="#DejaVuSans-67"/>
       <use x="69.824219" xlink:href="#DejaVuSans-97"/>
       <use x="131.103516" xlink:href="#DejaVuSans-110"/>
       <use x="194.482422" xlink:href="#DejaVuSans-97"/>
       <use x="255.761719" xlink:href="#DejaVuSans-100"/>
       <use x="319.238281" xlink:href="#DejaVuSans-105"/>
       <use x="347.021484" xlink:href="#DejaVuSans-97"/>
       <use x="408.300781" xlink:href="#DejaVuSans-110"/>
       <use x="471.679688" xlink:href="#DejaVuSans-32"/>
       <use x="503.466797" xlink:href="#DejaVuSans-119"/>
       <use x="585.253906" xlink:href="#DejaVuSans-104"/>
       <use x="648.632812" xlink:href="#DejaVuSans-101"/>
       <use x="710.15625" xlink:href="#DejaVuSans-97"/>
       <use x="771.435547" xlink:href="#DejaVuSans-116"/>
      </g>
     </g>
    </g>
    <g id="xtick_6">
     <g id="text_6">
      <!-- Canadian wheat -->
      <g transform="translate(79.14997 251.2)rotate(-90)scale(0.06 -0.06)">
       <use xlink:href="#DejaVuSans-67"/>
       <use x="69.824219" xlink:href="#DejaVuSans-97"/>
       <use x="131.103516" xlink:href="#DejaVuSans-110"/>
       <use x="194.482422" xlink:href="#DejaVuSans-97"/>
       <use x="255.761719" xlink:href="#DejaVuSans-100"/>
       <use x="319.238281" xlink:href="#DejaVuSans-105"/>
       <use x="347.021484" xlink:href="#DejaVuSans-97"/>
       <use x="408.300781" xlink:href="#DejaVuSans-110"/>
       <use x="471.679688" xlink:href="#DejaVuSans-32"/>
       <use x="503.466797" xlink:href="#DejaVuSans-119"/>
       <use x="585.253906" xlink:href="#DejaVuSans-104"/>
       <use x="648.632812" xlink:href="#DejaVuSans-101"/>
       <use x="710.15625" xlink:href="#DejaVuSans-97"/>
       <use x="771.435547" xlink:href="#DejaVuSans-116"/>
      </g>
     </g>
    </g>
    <g id="xtick_7">
     <g id="text_7">
      <!-- Canadian wheat -->
      <g transform="translate(87.689851 251.2)rotate(-90)scale(0.06 -0.06)">
       <use xlink:href="#DejaVuSans-67"/>
       <use x="69.824219" xlink:href="#DejaVuSans-97"/>
       <use x="131.103516" xlink:href="#DejaVuSans-110"/>
       <use x="194.482422" xlink:href="#DejaVuSans-97"/>
       <use x="255.761719" xlink:href="#DejaVuSans-100"/>
       <use x="319.238281" xlink:href="#DejaVuSans-105"/>
       <use x="347.021484" xlink:href="#DejaVuSans-97"/>
       <use x="408.300781" xlink:href="#DejaVuSans-110"/>
       <use x="471.679688" xlink:href="#DejaVuSans-32"/>
       <use x="503.466797" xlink:href="#DejaVuSans-119"/>
       <use x="585.253906" xlink:href="#DejaVuSans-104"/>
       <use x="648.632812" xlink:href="#DejaVuSans-101"/>
       <use x="710.15625" xlink:href="#DejaVuSans-97"/>
       <use x="771.435547" xlink:href="#DejaVuSans-116"/>
      </g>
     </g>
    </g>
    <g id="xtick_8">
     <g id="text_8">
      <!-- Canadian wheat -->
      <g transform="translate(96.229732 251.2)rotate(-90)scale(0.06 -0.06)">
       <use xlink:href="#DejaVuSans-67"/>
       <use x="69.824219" xlink:href="#DejaVuSans-97"/>
       <use x="131.103516" xlink:href="#DejaVuSans-110"/>
       <use x="194.482422" xlink:href="#DejaVuSans-97"/>
       <use x="255.761719" xlink:href="#DejaVuSans-100"/>
       <use x="319.238281" xlink:href="#DejaVuSans-105"/>
       <use x="347.021484" xlink:href="#DejaVuSans-97"/>
       <use x="408.300781" xlink:href="#DejaVuSans-110"/>
       <use x="471.679688" xlink:href="#DejaVuSans-32"/>
       <use x="503.466797" xlink:href="#DejaVuSans-119"/>
       <use x="585.253906" xlink:href="#DejaVuSans-104"/>
       <use x="648.632812" xlink:href="#DejaVuSans-101"/>
       <use x="710.15625" xlink:href="#DejaVuSans-97"/>
       <use x="771.435547" xlink:href="#DejaVuSans-116"/>
      </g>
     </g>
    </g>
    <g id="xtick_9">
     <g id="text_9">
      <!-- Canadian wheat -->
      <g transform="translate(104.769613 251.2)rotate(-90)scale(0.06 -0.06)">
       <use xlink:href="#DejaVuSans-67"/>
       <use x="69.824219" xlink:href="#DejaVuSans-97"/>
       <use x="131.103516" xlink:href="#DejaVuSans-110"/>
       <use x="194.482422" xlink:href="#DejaVuSans-97"/>
       <use x="255.761719" xlink:href="#DejaVuSans-100"/>
       <use x="319.238281" xlink:href="#DejaVuSans-105"/>
       <use x="347.021484" xlink:href="#DejaVuSans-97"/>
       <use x="408.300781" xlink:href="#DejaVuSans-110"/>
       <use x="471.679688" xlink:href="#DejaVuSans-32"/>
       <use x="503.466797" xlink:href="#DejaVuSans-119"/>
       <use x="585.253906" xlink:href="#DejaVuSans-104"/>
       <use x="648.632812" xlink:href="#DejaVuSans-101"/>
       <use x="710.15625" xlink:href="#DejaVuSans-97"/>
       <use x="771.435547" xlink:href="#DejaVuSans-116"/>
      </g>
     </g>
    </g>
    <g id="xtick_10">
     <g id="text_10">
      <!-- Kama wheat -->
      <defs>
       <path d="M 9.8125 72.90625 
L 19.671875 72.90625 
L 19.671875 42.09375 
L 52.390625 72.90625 
L 65.09375 72.90625 
L 28.90625 38.921875 
L 67.671875 0 
L 54.6875 0 
L 19.671875 35.109375 
L 19.671875 0 
L 9.8125 0 
z
" id="DejaVuSans-75"/>
       <path d="M 52 44.1875 
Q 55.375 50.25 60.0625 53.125 
Q 64.75 56 71.09375 56 
Q 79.640625 56 84.28125 50.015625 
Q 88.921875 44.046875 88.921875 33.015625 
L 88.921875 0 
L 79.890625 0 
L 79.890625 32.71875 
Q 79.890625 40.578125 77.09375 44.375 
Q 74.3125 48.1875 68.609375 48.1875 
Q 61.625 48.1875 57.5625 43.546875 
Q 53.515625 38.921875 53.515625 30.90625 
L 53.515625 0 
L 44.484375 0 
L 44.484375 32.71875 
Q 44.484375 40.625 41.703125 44.40625 
Q 38.921875 48.1875 33.109375 48.1875 
Q 26.21875 48.1875 22.15625 43.53125 
Q 18.109375 38.875 18.109375 30.90625 
L 18.109375 0 
L 9.078125 0 
L 9.078125 54.6875 
L 18.109375 54.6875 
L 18.109375 46.1875 
Q 21.1875 51.21875 25.484375 53.609375 
Q 29.78125 56 35.6875 56 
Q 41.65625 56 45.828125 52.96875 
Q 50 49.953125 52 44.1875 
z
" id="DejaVuSans-109"/>
      </defs>
      <g transform="translate(113.309494 239.926563)rotate(-90)scale(0.06 -0.06)">
       <use xlink:href="#DejaVuSans-75"/>
       <use x="63.826172" xlink:href="#DejaVuSans-97"/>
       <use x="125.105469" xlink:href="#DejaVuSans-109"/>
       <use x="222.517578" xlink:href="#DejaVuSans-97"/>
       <use x="283.796875" xlink:href="#DejaVuSans-32"/>
       <use x="315.583984" xlink:href="#DejaVuSans-119"/>
       <use x="397.371094" xlink:href="#DejaVuSans-104"/>
       <use x="460.75" xlink:href="#DejaVuSans-101"/>
       <use x="522.273438" xlink:href="#DejaVuSans-97"/>
       <use x="583.552734" xlink:href="#DejaVuSans-116"/>
      </g>
     </g>
    </g>
    <g id="xtick_11">
     <g id="text_11">
      <!-- Kama wheat -->
      <g transform="translate(121.849375 239.926563)rotate(-90)scale(0.06 -0.06)">
       <use xlink:href="#DejaVuSans-75"/>
       <use x="63.826172" xlink:href="#DejaVuSans-97"/>
       <use x="125.105469" xlink:href="#DejaVuSans-109"/>
       <use x="222.517578" xlink:href="#DejaVuSans-97"/>
       <use x="283.796875" xlink:href="#DejaVuSans-32"/>
       <use x="315.583984" xlink:href="#DejaVuSans-119"/>
       <use x="397.371094" xlink:href="#DejaVuSans-104"/>
       <use x="460.75" xlink:href="#DejaVuSans-101"/>
       <use x="522.273438" xlink:href="#DejaVuSans-97"/>
       <use x="583.552734" xlink:href="#DejaVuSans-116"/>
      </g>
     </g>
    </g>
    <g id="xtick_12">
     <g id="text_12">
      <!-- Canadian wheat -->
      <g transform="translate(130.389256 251.2)rotate(-90)scale(0.06 -0.06)">
       <use xlink:href="#DejaVuSans-67"/>
       <use x="69.824219" xlink:href="#DejaVuSans-97"/>
       <use x="131.103516" xlink:href="#DejaVuSans-110"/>
       <use x="194.482422" xlink:href="#DejaVuSans-97"/>
       <use x="255.761719" xlink:href="#DejaVuSans-100"/>
       <use x="319.238281" xlink:href="#DejaVuSans-105"/>
       <use x="347.021484" xlink:href="#DejaVuSans-97"/>
       <use x="408.300781" xlink:href="#DejaVuSans-110"/>
       <use x="471.679688" xlink:href="#DejaVuSans-32"/>
       <use x="503.466797" xlink:href="#DejaVuSans-119"/>
       <use x="585.253906" xlink:href="#DejaVuSans-104"/>
       <use x="648.632812" xlink:href="#DejaVuSans-101"/>
       <use x="710.15625" xlink:href="#DejaVuSans-97"/>
       <use x="771.435547" xlink:href="#DejaVuSans-116"/>
      </g>
     </g>
    </g>
    <g id="xtick_13">
     <g id="text_13">
      <!-- Kama wheat -->
      <g transform="translate(138.929137 239.926563)rotate(-90)scale(0.06 -0.06)">
       <use xlink:href="#DejaVuSans-75"/>
       <use x="63.826172" xlink:href="#DejaVuSans-97"/>
       <use x="125.105469" xlink:href="#DejaVuSans-109"/>
       <use x="222.517578" xlink:href="#DejaVuSans-97"/>
       <use x="283.796875" xlink:href="#DejaVuSans-32"/>
       <use x="315.583984" xlink:href="#DejaVuSans-119"/>
       <use x="397.371094" xlink:href="#DejaVuSans-104"/>
       <use x="460.75" xlink:href="#DejaVuSans-101"/>
       <use x="522.273438" xlink:href="#DejaVuSans-97"/>
       <use x="583.552734" xlink:href="#DejaVuSans-116"/>
      </g>
     </g>
    </g>
    <g id="xtick_14">
     <g id="text_14">
      <!-- Canadian wheat -->
      <g transform="translate(147.469018 251.2)rotate(-90)scale(0.06 -0.06)">
       <use xlink:href="#DejaVuSans-67"/>
       <use x="69.824219" xlink:href="#DejaVuSans-97"/>
       <use x="131.103516" xlink:href="#DejaVuSans-110"/>
       <use x="194.482422" xlink:href="#DejaVuSans-97"/>
       <use x="255.761719" xlink:href="#DejaVuSans-100"/>
       <use x="319.238281" xlink:href="#DejaVuSans-105"/>
       <use x="347.021484" xlink:href="#DejaVuSans-97"/>
       <use x="408.300781" xlink:href="#DejaVuSans-110"/>
       <use x="471.679688" xlink:href="#DejaVuSans-32"/>
       <use x="503.466797" xlink:href="#DejaVuSans-119"/>
       <use x="585.253906" xlink:href="#DejaVuSans-104"/>
       <use x="648.632812" xlink:href="#DejaVuSans-101"/>
       <use x="710.15625" xlink:href="#DejaVuSans-97"/>
       <use x="771.435547" xlink:href="#DejaVuSans-116"/>
      </g>
     </g>
    </g>
    <g id="xtick_15">
     <g id="text_15">
      <!-- Canadian wheat -->
      <g transform="translate(156.008899 251.2)rotate(-90)scale(0.06 -0.06)">
       <use xlink:href="#DejaVuSans-67"/>
       <use x="69.824219" xlink:href="#DejaVuSans-97"/>
       <use x="131.103516" xlink:href="#DejaVuSans-110"/>
       <use x="194.482422" xlink:href="#DejaVuSans-97"/>
       <use x="255.761719" xlink:href="#DejaVuSans-100"/>
       <use x="319.238281" xlink:href="#DejaVuSans-105"/>
       <use x="347.021484" xlink:href="#DejaVuSans-97"/>
       <use x="408.300781" xlink:href="#DejaVuSans-110"/>
       <use x="471.679688" xlink:href="#DejaVuSans-32"/>
       <use x="503.466797" xlink:href="#DejaVuSans-119"/>
       <use x="585.253906" xlink:href="#DejaVuSans-104"/>
       <use x="648.632812" xlink:href="#DejaVuSans-101"/>
       <use x="710.15625" xlink:href="#DejaVuSans-97"/>
       <use x="771.435547" xlink:href="#DejaVuSans-116"/>
      </g>
     </g>
    </g>
    <g id="xtick_16">
     <g id="text_16">
      <!-- Canadian wheat -->
      <g transform="translate(164.54878 251.2)rotate(-90)scale(0.06 -0.06)">
       <use xlink:href="#DejaVuSans-67"/>
       <use x="69.824219" xlink:href="#DejaVuSans-97"/>
       <use x="131.103516" xlink:href="#DejaVuSans-110"/>
       <use x="194.482422" xlink:href="#DejaVuSans-97"/>
       <use x="255.761719" xlink:href="#DejaVuSans-100"/>
       <use x="319.238281" xlink:href="#DejaVuSans-105"/>
       <use x="347.021484" xlink:href="#DejaVuSans-97"/>
       <use x="408.300781" xlink:href="#DejaVuSans-110"/>
       <use x="471.679688" xlink:href="#DejaVuSans-32"/>
       <use x="503.466797" xlink:href="#DejaVuSans-119"/>
       <use x="585.253906" xlink:href="#DejaVuSans-104"/>
       <use x="648.632812" xlink:href="#DejaVuSans-101"/>
       <use x="710.15625" xlink:href="#DejaVuSans-97"/>
       <use x="771.435547" xlink:href="#DejaVuSans-116"/>
      </g>
     </g>
    </g>
    <g id="xtick_17">
     <g id="text_17">
      <!-- Canadian wheat -->
      <g transform="translate(173.088661 251.2)rotate(-90)scale(0.06 -0.06)">
       <use xlink:href="#DejaVuSans-67"/>
       <use x="69.824219" xlink:href="#DejaVuSans-97"/>
       <use x="131.103516" xlink:href="#DejaVuSans-110"/>
       <use x="194.482422" xlink:href="#DejaVuSans-97"/>
       <use x="255.761719" xlink:href="#DejaVuSans-100"/>
       <use x="319.238281" xlink:href="#DejaVuSans-105"/>
       <use x="347.021484" xlink:href="#DejaVuSans-97"/>
       <use x="408.300781" xlink:href="#DejaVuSans-110"/>
       <use x="471.679688" xlink:href="#DejaVuSans-32"/>
       <use x="503.466797" xlink:href="#DejaVuSans-119"/>
       <use x="585.253906" xlink:href="#DejaVuSans-104"/>
       <use x="648.632812" xlink:href="#DejaVuSans-101"/>
       <use x="710.15625" xlink:href="#DejaVuSans-97"/>
       <use x="771.435547" xlink:href="#DejaVuSans-116"/>
      </g>
     </g>
    </g>
    <g id="xtick_18">
     <g id="text_18">
      <!-- Rosa wheat -->
      <defs>
       <path d="M 44.390625 34.1875 
Q 47.5625 33.109375 50.5625 29.59375 
Q 53.5625 26.078125 56.59375 19.921875 
L 66.609375 0 
L 56 0 
L 46.6875 18.703125 
Q 43.0625 26.03125 39.671875 28.421875 
Q 36.28125 30.8125 30.421875 30.8125 
L 19.671875 30.8125 
L 19.671875 0 
L 9.8125 0 
L 9.8125 72.90625 
L 32.078125 72.90625 
Q 44.578125 72.90625 50.734375 67.671875 
Q 56.890625 62.453125 56.890625 51.90625 
Q 56.890625 45.015625 53.6875 40.46875 
Q 50.484375 35.9375 44.390625 34.1875 
z
M 19.671875 64.796875 
L 19.671875 38.921875 
L 32.078125 38.921875 
Q 39.203125 38.921875 42.84375 42.21875 
Q 46.484375 45.515625 46.484375 51.90625 
Q 46.484375 58.296875 42.84375 61.546875 
Q 39.203125 64.796875 32.078125 64.796875 
z
" id="DejaVuSans-82"/>
       <path d="M 30.609375 48.390625 
Q 23.390625 48.390625 19.1875 42.75 
Q 14.984375 37.109375 14.984375 27.296875 
Q 14.984375 17.484375 19.15625 11.84375 
Q 23.34375 6.203125 30.609375 6.203125 
Q 37.796875 6.203125 41.984375 11.859375 
Q 46.1875 17.53125 46.1875 27.296875 
Q 46.1875 37.015625 41.984375 42.703125 
Q 37.796875 48.390625 30.609375 48.390625 
z
M 30.609375 56 
Q 42.328125 56 49.015625 48.375 
Q 55.71875 40.765625 55.71875 27.296875 
Q 55.71875 13.875 49.015625 6.21875 
Q 42.328125 -1.421875 30.609375 -1.421875 
Q 18.84375 -1.421875 12.171875 6.21875 
Q 5.515625 13.875 5.515625 27.296875 
Q 5.515625 40.765625 12.171875 48.375 
Q 18.84375 56 30.609375 56 
z
" id="DejaVuSans-111"/>
       <path d="M 44.28125 53.078125 
L 44.28125 44.578125 
Q 40.484375 46.53125 36.375 47.5 
Q 32.28125 48.484375 27.875 48.484375 
Q 21.1875 48.484375 17.84375 46.4375 
Q 14.5 44.390625 14.5 40.28125 
Q 14.5 37.15625 16.890625 35.375 
Q 19.28125 33.59375 26.515625 31.984375 
L 29.59375 31.296875 
Q 39.15625 29.25 43.1875 25.515625 
Q 47.21875 21.78125 47.21875 15.09375 
Q 47.21875 7.46875 41.1875 3.015625 
Q 35.15625 -1.421875 24.609375 -1.421875 
Q 20.21875 -1.421875 15.453125 -0.5625 
Q 10.6875 0.296875 5.421875 2 
L 5.421875 11.28125 
Q 10.40625 8.6875 15.234375 7.390625 
Q 20.0625 6.109375 24.8125 6.109375 
Q 31.15625 6.109375 34.5625 8.28125 
Q 37.984375 10.453125 37.984375 14.40625 
Q 37.984375 18.0625 35.515625 20.015625 
Q 33.0625 21.96875 24.703125 23.78125 
L 21.578125 24.515625 
Q 13.234375 26.265625 9.515625 29.90625 
Q 5.8125 33.546875 5.8125 39.890625 
Q 5.8125 47.609375 11.28125 51.796875 
Q 16.75 56 26.8125 56 
Q 31.78125 56 36.171875 55.265625 
Q 40.578125 54.546875 44.28125 53.078125 
z
" id="DejaVuSans-115"/>
      </defs>
      <g transform="translate(181.628542 237.271563)rotate(-90)scale(0.06 -0.06)">
       <use xlink:href="#DejaVuSans-82"/>
       <use x="64.982422" xlink:href="#DejaVuSans-111"/>
       <use x="126.164062" xlink:href="#DejaVuSans-115"/>
       <use x="178.263672" xlink:href="#DejaVuSans-97"/>
       <use x="239.542969" xlink:href="#DejaVuSans-32"/>
       <use x="271.330078" xlink:href="#DejaVuSans-119"/>
       <use x="353.117188" xlink:href="#DejaVuSans-104"/>
       <use x="416.496094" xlink:href="#DejaVuSans-101"/>
       <use x="478.019531" xlink:href="#DejaVuSans-97"/>
       <use x="539.298828" xlink:href="#DejaVuSans-116"/>
      </g>
     </g>
    </g>
    <g id="xtick_19">
     <g id="text_19">
      <!-- Rosa wheat -->
      <g transform="translate(190.168423 237.271563)rotate(-90)scale(0.06 -0.06)">
       <use xlink:href="#DejaVuSans-82"/>
       <use x="64.982422" xlink:href="#DejaVuSans-111"/>
       <use x="126.164062" xlink:href="#DejaVuSans-115"/>
       <use x="178.263672" xlink:href="#DejaVuSans-97"/>
       <use x="239.542969" xlink:href="#DejaVuSans-32"/>
       <use x="271.330078" xlink:href="#DejaVuSans-119"/>
       <use x="353.117188" xlink:href="#DejaVuSans-104"/>
       <use x="416.496094" xlink:href="#DejaVuSans-101"/>
       <use x="478.019531" xlink:href="#DejaVuSans-97"/>
       <use x="539.298828" xlink:href="#DejaVuSans-116"/>
      </g>
     </g>
    </g>
    <g id="xtick_20">
     <g id="text_20">
      <!-- Rosa wheat -->
      <g transform="translate(198.708304 237.271563)rotate(-90)scale(0.06 -0.06)">
       <use xlink:href="#DejaVuSans-82"/>
       <use x="64.982422" xlink:href="#DejaVuSans-111"/>
       <use x="126.164062" xlink:href="#DejaVuSans-115"/>
       <use x="178.263672" xlink:href="#DejaVuSans-97"/>
       <use x="239.542969" xlink:href="#DejaVuSans-32"/>
       <use x="271.330078" xlink:href="#DejaVuSans-119"/>
       <use x="353.117188" xlink:href="#DejaVuSans-104"/>
       <use x="416.496094" xlink:href="#DejaVuSans-101"/>
       <use x="478.019531" xlink:href="#DejaVuSans-97"/>
       <use x="539.298828" xlink:href="#DejaVuSans-116"/>
      </g>
     </g>
    </g>
    <g id="xtick_21">
     <g id="text_21">
      <!-- Rosa wheat -->
      <g transform="translate(207.248185 237.271563)rotate(-90)scale(0.06 -0.06)">
       <use xlink:href="#DejaVuSans-82"/>
       <use x="64.982422" xlink:href="#DejaVuSans-111"/>
       <use x="126.164062" xlink:href="#DejaVuSans-115"/>
       <use x="178.263672" xlink:href="#DejaVuSans-97"/>
       <use x="239.542969" xlink:href="#DejaVuSans-32"/>
       <use x="271.330078" xlink:href="#DejaVuSans-119"/>
       <use x="353.117188" xlink:href="#DejaVuSans-104"/>
       <use x="416.496094" xlink:href="#DejaVuSans-101"/>
       <use x="478.019531" xlink:href="#DejaVuSans-97"/>
       <use x="539.298828" xlink:href="#DejaVuSans-116"/>
      </g>
     </g>
    </g>
    <g id="xtick_22">
     <g id="text_22">
      <!-- Rosa wheat -->
      <g transform="translate(215.788065 237.271563)rotate(-90)scale(0.06 -0.06)">
       <use xlink:href="#DejaVuSans-82"/>
       <use x="64.982422" xlink:href="#DejaVuSans-111"/>
       <use x="126.164062" xlink:href="#DejaVuSans-115"/>
       <use x="178.263672" xlink:href="#DejaVuSans-97"/>
       <use x="239.542969" xlink:href="#DejaVuSans-32"/>
       <use x="271.330078" xlink:href="#DejaVuSans-119"/>
       <use x="353.117188" xlink:href="#DejaVuSans-104"/>
       <use x="416.496094" xlink:href="#DejaVuSans-101"/>
       <use x="478.019531" xlink:href="#DejaVuSans-97"/>
       <use x="539.298828" xlink:href="#DejaVuSans-116"/>
      </g>
     </g>
    </g>
    <g id="xtick_23">
     <g id="text_23">
      <!-- Rosa wheat -->
      <g transform="translate(224.327946 237.271563)rotate(-90)scale(0.06 -0.06)">
       <use xlink:href="#DejaVuSans-82"/>
       <use x="64.982422" xlink:href="#DejaVuSans-111"/>
       <use x="126.164062" xlink:href="#DejaVuSans-115"/>
       <use x="178.263672" xlink:href="#DejaVuSans-97"/>
       <use x="239.542969" xlink:href="#DejaVuSans-32"/>
       <use x="271.330078" xlink:href="#DejaVuSans-119"/>
       <use x="353.117188" xlink:href="#DejaVuSans-104"/>
       <use x="416.496094" xlink:href="#DejaVuSans-101"/>
       <use x="478.019531" xlink:href="#DejaVuSans-97"/>
       <use x="539.298828" xlink:href="#DejaVuSans-116"/>
      </g>
     </g>
    </g>
    <g id="xtick_24">
     <g id="text_24">
      <!-- Rosa wheat -->
      <g transform="translate(232.867827 237.271563)rotate(-90)scale(0.06 -0.06)">
       <use xlink:href="#DejaVuSans-82"/>
       <use x="64.982422" xlink:href="#DejaVuSans-111"/>
       <use x="126.164062" xlink:href="#DejaVuSans-115"/>
       <use x="178.263672" xlink:href="#DejaVuSans-97"/>
       <use x="239.542969" xlink:href="#DejaVuSans-32"/>
       <use x="271.330078" xlink:href="#DejaVuSans-119"/>
       <use x="353.117188" xlink:href="#DejaVuSans-104"/>
       <use x="416.496094" xlink:href="#DejaVuSans-101"/>
       <use x="478.019531" xlink:href="#DejaVuSans-97"/>
       <use x="539.298828" xlink:href="#DejaVuSans-116"/>
      </g>
     </g>
    </g>
    <g id="xtick_25">
     <g id="text_25">
      <!-- Rosa wheat -->
      <g transform="translate(241.407708 237.271563)rotate(-90)scale(0.06 -0.06)">
       <use xlink:href="#DejaVuSans-82"/>
       <use x="64.982422" xlink:href="#DejaVuSans-111"/>
       <use x="126.164062" xlink:href="#DejaVuSans-115"/>
       <use x="178.263672" xlink:href="#DejaVuSans-97"/>
       <use x="239.542969" xlink:href="#DejaVuSans-32"/>
       <use x="271.330078" xlink:href="#DejaVuSans-119"/>
       <use x="353.117188" xlink:href="#DejaVuSans-104"/>
       <use x="416.496094" xlink:href="#DejaVuSans-101"/>
       <use x="478.019531" xlink:href="#DejaVuSans-97"/>
       <use x="539.298828" xlink:href="#DejaVuSans-116"/>
      </g>
     </g>
    </g>
    <g id="xtick_26">
     <g id="text_26">
      <!-- Rosa wheat -->
      <g transform="translate(249.947589 237.271563)rotate(-90)scale(0.06 -0.06)">
       <use xlink:href="#DejaVuSans-82"/>
       <use x="64.982422" xlink:href="#DejaVuSans-111"/>
       <use x="126.164062" xlink:href="#DejaVuSans-115"/>
       <use x="178.263672" xlink:href="#DejaVuSans-97"/>
       <use x="239.542969" xlink:href="#DejaVuSans-32"/>
       <use x="271.330078" xlink:href="#DejaVuSans-119"/>
       <use x="353.117188" xlink:href="#DejaVuSans-104"/>
       <use x="416.496094" xlink:href="#DejaVuSans-101"/>
       <use x="478.019531" xlink:href="#DejaVuSans-97"/>
       <use x="539.298828" xlink:href="#DejaVuSans-116"/>
      </g>
     </g>
    </g>
    <g id="xtick_27">
     <g id="text_27">
      <!-- Rosa wheat -->
      <g transform="translate(258.48747 237.271563)rotate(-90)scale(0.06 -0.06)">
       <use xlink:href="#DejaVuSans-82"/>
       <use x="64.982422" xlink:href="#DejaVuSans-111"/>
       <use x="126.164062" xlink:href="#DejaVuSans-115"/>
       <use x="178.263672" xlink:href="#DejaVuSans-97"/>
       <use x="239.542969" xlink:href="#DejaVuSans-32"/>
       <use x="271.330078" xlink:href="#DejaVuSans-119"/>
       <use x="353.117188" xlink:href="#DejaVuSans-104"/>
       <use x="416.496094" xlink:href="#DejaVuSans-101"/>
       <use x="478.019531" xlink:href="#DejaVuSans-97"/>
       <use x="539.298828" xlink:href="#DejaVuSans-116"/>
      </g>
     </g>
    </g>
    <g id="xtick_28">
     <g id="text_28">
      <!-- Rosa wheat -->
      <g transform="translate(267.027351 237.271563)rotate(-90)scale(0.06 -0.06)">
       <use xlink:href="#DejaVuSans-82"/>
       <use x="64.982422" xlink:href="#DejaVuSans-111"/>
       <use x="126.164062" xlink:href="#DejaVuSans-115"/>
       <use x="178.263672" xlink:href="#DejaVuSans-97"/>
       <use x="239.542969" xlink:href="#DejaVuSans-32"/>
       <use x="271.330078" xlink:href="#DejaVuSans-119"/>
       <use x="353.117188" xlink:href="#DejaVuSans-104"/>
       <use x="416.496094" xlink:href="#DejaVuSans-101"/>
       <use x="478.019531" xlink:href="#DejaVuSans-97"/>
       <use x="539.298828" xlink:href="#DejaVuSans-116"/>
      </g>
     </g>
    </g>
    <g id="xtick_29">
     <g id="text_29">
      <!-- Rosa wheat -->
      <g transform="translate(275.567232 237.271563)rotate(-90)scale(0.06 -0.06)">
       <use xlink:href="#DejaVuSans-82"/>
       <use x="64.982422" xlink:href="#DejaVuSans-111"/>
       <use x="126.164062" xlink:href="#DejaVuSans-115"/>
       <use x="178.263672" xlink:href="#DejaVuSans-97"/>
       <use x="239.542969" xlink:href="#DejaVuSans-32"/>
       <use x="271.330078" xlink:href="#DejaVuSans-119"/>
       <use x="353.117188" xlink:href="#DejaVuSans-104"/>
       <use x="416.496094" xlink:href="#DejaVuSans-101"/>
       <use x="478.019531" xlink:href="#DejaVuSans-97"/>
       <use x="539.298828" xlink:href="#DejaVuSans-116"/>
      </g>
     </g>
    </g>
    <g id="xtick_30">
     <g id="text_30">
      <!-- Rosa wheat -->
      <g transform="translate(284.107113 237.271563)rotate(-90)scale(0.06 -0.06)">
       <use xlink:href="#DejaVuSans-82"/>
       <use x="64.982422" xlink:href="#DejaVuSans-111"/>
       <use x="126.164062" xlink:href="#DejaVuSans-115"/>
       <use x="178.263672" xlink:href="#DejaVuSans-97"/>
       <use x="239.542969" xlink:href="#DejaVuSans-32"/>
       <use x="271.330078" xlink:href="#DejaVuSans-119"/>
       <use x="353.117188" xlink:href="#DejaVuSans-104"/>
       <use x="416.496094" xlink:href="#DejaVuSans-101"/>
       <use x="478.019531" xlink:href="#DejaVuSans-97"/>
       <use x="539.298828" xlink:href="#DejaVuSans-116"/>
      </g>
     </g>
    </g>
    <g id="xtick_31">
     <g id="text_31">
      <!-- Rosa wheat -->
      <g transform="translate(292.646994 237.271563)rotate(-90)scale(0.06 -0.06)">
       <use xlink:href="#DejaVuSans-82"/>
       <use x="64.982422" xlink:href="#DejaVuSans-111"/>
       <use x="126.164062" xlink:href="#DejaVuSans-115"/>
       <use x="178.263672" xlink:href="#DejaVuSans-97"/>
       <use x="239.542969" xlink:href="#DejaVuSans-32"/>
       <use x="271.330078" xlink:href="#DejaVuSans-119"/>
       <use x="353.117188" xlink:href="#DejaVuSans-104"/>
       <use x="416.496094" xlink:href="#DejaVuSans-101"/>
       <use x="478.019531" xlink:href="#DejaVuSans-97"/>
       <use x="539.298828" xlink:href="#DejaVuSans-116"/>
      </g>
     </g>
    </g>
    <g id="xtick_32">
     <g id="text_32">
      <!-- Kama wheat -->
      <g transform="translate(301.186875 239.926563)rotate(-90)scale(0.06 -0.06)">
       <use xlink:href="#DejaVuSans-75"/>
       <use x="63.826172" xlink:href="#DejaVuSans-97"/>
       <use x="125.105469" xlink:href="#DejaVuSans-109"/>
       <use x="222.517578" xlink:href="#DejaVuSans-97"/>
       <use x="283.796875" xlink:href="#DejaVuSans-32"/>
       <use x="315.583984" xlink:href="#DejaVuSans-119"/>
       <use x="397.371094" xlink:href="#DejaVuSans-104"/>
       <use x="460.75" xlink:href="#DejaVuSans-101"/>
       <use x="522.273438" xlink:href="#DejaVuSans-97"/>
       <use x="583.552734" xlink:href="#DejaVuSans-116"/>
      </g>
     </g>
    </g>
    <g id="xtick_33">
     <g id="text_33">
      <!-- Kama wheat -->
      <g transform="translate(309.726756 239.926563)rotate(-90)scale(0.06 -0.06)">
       <use xlink:href="#DejaVuSans-75"/>
       <use x="63.826172" xlink:href="#DejaVuSans-97"/>
       <use x="125.105469" xlink:href="#DejaVuSans-109"/>
       <use x="222.517578" xlink:href="#DejaVuSans-97"/>
       <use x="283.796875" xlink:href="#DejaVuSans-32"/>
       <use x="315.583984" xlink:href="#DejaVuSans-119"/>
       <use x="397.371094" xlink:href="#DejaVuSans-104"/>
       <use x="460.75" xlink:href="#DejaVuSans-101"/>
       <use x="522.273438" xlink:href="#DejaVuSans-97"/>
       <use x="583.552734" xlink:href="#DejaVuSans-116"/>
      </g>
     </g>
    </g>
    <g id="xtick_34">
     <g id="text_34">
      <!-- Kama wheat -->
      <g transform="translate(318.266637 239.926563)rotate(-90)scale(0.06 -0.06)">
       <use xlink:href="#DejaVuSans-75"/>
       <use x="63.826172" xlink:href="#DejaVuSans-97"/>
       <use x="125.105469" xlink:href="#DejaVuSans-109"/>
       <use x="222.517578" xlink:href="#DejaVuSans-97"/>
       <use x="283.796875" xlink:href="#DejaVuSans-32"/>
       <use x="315.583984" xlink:href="#DejaVuSans-119"/>
       <use x="397.371094" xlink:href="#DejaVuSans-104"/>
       <use x="460.75" xlink:href="#DejaVuSans-101"/>
       <use x="522.273438" xlink:href="#DejaVuSans-97"/>
       <use x="583.552734" xlink:href="#DejaVuSans-116"/>
      </g>
     </g>
    </g>
    <g id="xtick_35">
     <g id="text_35">
      <!-- Kama wheat -->
      <g transform="translate(326.806518 239.926563)rotate(-90)scale(0.06 -0.06)">
       <use xlink:href="#DejaVuSans-75"/>
       <use x="63.826172" xlink:href="#DejaVuSans-97"/>
       <use x="125.105469" xlink:href="#DejaVuSans-109"/>
       <use x="222.517578" xlink:href="#DejaVuSans-97"/>
       <use x="283.796875" xlink:href="#DejaVuSans-32"/>
       <use x="315.583984" xlink:href="#DejaVuSans-119"/>
       <use x="397.371094" xlink:href="#DejaVuSans-104"/>
       <use x="460.75" xlink:href="#DejaVuSans-101"/>
       <use x="522.273438" xlink:href="#DejaVuSans-97"/>
       <use x="583.552734" xlink:href="#DejaVuSans-116"/>
      </g>
     </g>
    </g>
    <g id="xtick_36">
     <g id="text_36">
      <!-- Kama wheat -->
      <g transform="translate(335.346399 239.926563)rotate(-90)scale(0.06 -0.06)">
       <use xlink:href="#DejaVuSans-75"/>
       <use x="63.826172" xlink:href="#DejaVuSans-97"/>
       <use x="125.105469" xlink:href="#DejaVuSans-109"/>
       <use x="222.517578" xlink:href="#DejaVuSans-97"/>
       <use x="283.796875" xlink:href="#DejaVuSans-32"/>
       <use x="315.583984" xlink:href="#DejaVuSans-119"/>
       <use x="397.371094" xlink:href="#DejaVuSans-104"/>
       <use x="460.75" xlink:href="#DejaVuSans-101"/>
       <use x="522.273438" xlink:href="#DejaVuSans-97"/>
       <use x="583.552734" xlink:href="#DejaVuSans-116"/>
      </g>
     </g>
    </g>
    <g id="xtick_37">
     <g id="text_37">
      <!-- Kama wheat -->
      <g transform="translate(343.88628 239.926563)rotate(-90)scale(0.06 -0.06)">
       <use xlink:href="#DejaVuSans-75"/>
       <use x="63.826172" xlink:href="#DejaVuSans-97"/>
       <use x="125.105469" xlink:href="#DejaVuSans-109"/>
       <use x="222.517578" xlink:href="#DejaVuSans-97"/>
       <use x="283.796875" xlink:href="#DejaVuSans-32"/>
       <use x="315.583984" xlink:href="#DejaVuSans-119"/>
       <use x="397.371094" xlink:href="#DejaVuSans-104"/>
       <use x="460.75" xlink:href="#DejaVuSans-101"/>
       <use x="522.273438" xlink:href="#DejaVuSans-97"/>
       <use x="583.552734" xlink:href="#DejaVuSans-116"/>
      </g>
     </g>
    </g>
    <g id="xtick_38">
     <g id="text_38">
      <!-- Kama wheat -->
      <g transform="translate(352.426161 239.926563)rotate(-90)scale(0.06 -0.06)">
       <use xlink:href="#DejaVuSans-75"/>
       <use x="63.826172" xlink:href="#DejaVuSans-97"/>
       <use x="125.105469" xlink:href="#DejaVuSans-109"/>
       <use x="222.517578" xlink:href="#DejaVuSans-97"/>
       <use x="283.796875" xlink:href="#DejaVuSans-32"/>
       <use x="315.583984" xlink:href="#DejaVuSans-119"/>
       <use x="397.371094" xlink:href="#DejaVuSans-104"/>
       <use x="460.75" xlink:href="#DejaVuSans-101"/>
       <use x="522.273438" xlink:href="#DejaVuSans-97"/>
       <use x="583.552734" xlink:href="#DejaVuSans-116"/>
      </g>
     </g>
    </g>
    <g id="xtick_39">
     <g id="text_39">
      <!-- Kama wheat -->
      <g transform="translate(360.966042 239.926563)rotate(-90)scale(0.06 -0.06)">
       <use xlink:href="#DejaVuSans-75"/>
       <use x="63.826172" xlink:href="#DejaVuSans-97"/>
       <use x="125.105469" xlink:href="#DejaVuSans-109"/>
       <use x="222.517578" xlink:href="#DejaVuSans-97"/>
       <use x="283.796875" xlink:href="#DejaVuSans-32"/>
       <use x="315.583984" xlink:href="#DejaVuSans-119"/>
       <use x="397.371094" xlink:href="#DejaVuSans-104"/>
       <use x="460.75" xlink:href="#DejaVuSans-101"/>
       <use x="522.273438" xlink:href="#DejaVuSans-97"/>
       <use x="583.552734" xlink:href="#DejaVuSans-116"/>
      </g>
     </g>
    </g>
    <g id="xtick_40">
     <g id="text_40">
      <!-- Kama wheat -->
      <g transform="translate(369.505923 239.926563)rotate(-90)scale(0.06 -0.06)">
       <use xlink:href="#DejaVuSans-75"/>
       <use x="63.826172" xlink:href="#DejaVuSans-97"/>
       <use x="125.105469" xlink:href="#DejaVuSans-109"/>
       <use x="222.517578" xlink:href="#DejaVuSans-97"/>
       <use x="283.796875" xlink:href="#DejaVuSans-32"/>
       <use x="315.583984" xlink:href="#DejaVuSans-119"/>
       <use x="397.371094" xlink:href="#DejaVuSans-104"/>
       <use x="460.75" xlink:href="#DejaVuSans-101"/>
       <use x="522.273438" xlink:href="#DejaVuSans-97"/>
       <use x="583.552734" xlink:href="#DejaVuSans-116"/>
      </g>
     </g>
    </g>
    <g id="xtick_41">
     <g id="text_41">
      <!-- Kama wheat -->
      <g transform="translate(378.045804 239.926563)rotate(-90)scale(0.06 -0.06)">
       <use xlink:href="#DejaVuSans-75"/>
       <use x="63.826172" xlink:href="#DejaVuSans-97"/>
       <use x="125.105469" xlink:href="#DejaVuSans-109"/>
       <use x="222.517578" xlink:href="#DejaVuSans-97"/>
       <use x="283.796875" xlink:href="#DejaVuSans-32"/>
       <use x="315.583984" xlink:href="#DejaVuSans-119"/>
       <use x="397.371094" xlink:href="#DejaVuSans-104"/>
       <use x="460.75" xlink:href="#DejaVuSans-101"/>
       <use x="522.273438" xlink:href="#DejaVuSans-97"/>
       <use x="583.552734" xlink:href="#DejaVuSans-116"/>
      </g>
     </g>
    </g>
    <g id="xtick_42">
     <g id="text_42">
      <!-- Kama wheat -->
      <g transform="translate(386.585685 239.926563)rotate(-90)scale(0.06 -0.06)">
       <use xlink:href="#DejaVuSans-75"/>
       <use x="63.826172" xlink:href="#DejaVuSans-97"/>
       <use x="125.105469" xlink:href="#DejaVuSans-109"/>
       <use x="222.517578" xlink:href="#DejaVuSans-97"/>
       <use x="283.796875" xlink:href="#DejaVuSans-32"/>
       <use x="315.583984" xlink:href="#DejaVuSans-119"/>
       <use x="397.371094" xlink:href="#DejaVuSans-104"/>
       <use x="460.75" xlink:href="#DejaVuSans-101"/>
       <use x="522.273438" xlink:href="#DejaVuSans-97"/>
       <use x="583.552734" xlink:href="#DejaVuSans-116"/>
      </g>
     </g>
    </g>
   </g>
   <g id="matplotlib.axis_2">
    <g id="ytick_1">
     <g id="line2d_1">
      <defs>
       <path d="M 0 0 
L -3.5 0 
" id="mc36bfe8eb0" style="stroke:#000000;stroke-width:0.8;"/>
      </defs>
      <g>
       <use style="stroke:#000000;stroke-width:0.8;" x="30.525" xlink:href="#mc36bfe8eb0" y="195.561563"/>
      </g>
     </g>
     <g id="text_43">
      <!-- 0 -->
      <defs>
       <path d="M 31.78125 66.40625 
Q 24.171875 66.40625 20.328125 58.90625 
Q 16.5 51.421875 16.5 36.375 
Q 16.5 21.390625 20.328125 13.890625 
Q 24.171875 6.390625 31.78125 6.390625 
Q 39.453125 6.390625 43.28125 13.890625 
Q 47.125 21.390625 47.125 36.375 
Q 47.125 51.421875 43.28125 58.90625 
Q 39.453125 66.40625 31.78125 66.40625 
z
M 31.78125 74.21875 
Q 44.046875 74.21875 50.515625 64.515625 
Q 56.984375 54.828125 56.984375 36.375 
Q 56.984375 17.96875 50.515625 8.265625 
Q 44.046875 -1.421875 31.78125 -1.421875 
Q 19.53125 -1.421875 13.0625 8.265625 
Q 6.59375 17.96875 6.59375 36.375 
Q 6.59375 54.828125 13.0625 64.515625 
Q 19.53125 74.21875 31.78125 74.21875 
z
" id="DejaVuSans-48"/>
      </defs>
      <g transform="translate(17.1625 199.360781)scale(0.1 -0.1)">
       <use xlink:href="#DejaVuSans-48"/>
      </g>
     </g>
    </g>
    <g id="ytick_2">
     <g id="line2d_2">
      <g>
       <use style="stroke:#000000;stroke-width:0.8;" x="30.525" xlink:href="#mc36bfe8eb0" y="159.334257"/>
      </g>
     </g>
     <g id="text_44">
      <!-- 2 -->
      <defs>
       <path d="M 19.1875 8.296875 
L 53.609375 8.296875 
L 53.609375 0 
L 7.328125 0 
L 7.328125 8.296875 
Q 12.9375 14.109375 22.625 23.890625 
Q 32.328125 33.6875 34.8125 36.53125 
Q 39.546875 41.84375 41.421875 45.53125 
Q 43.3125 49.21875 43.3125 52.78125 
Q 43.3125 58.59375 39.234375 62.25 
Q 35.15625 65.921875 28.609375 65.921875 
Q 23.96875 65.921875 18.8125 64.3125 
Q 13.671875 62.703125 7.8125 59.421875 
L 7.8125 69.390625 
Q 13.765625 71.78125 18.9375 73 
Q 24.125 74.21875 28.421875 74.21875 
Q 39.75 74.21875 46.484375 68.546875 
Q 53.21875 62.890625 53.21875 53.421875 
Q 53.21875 48.921875 51.53125 44.890625 
Q 49.859375 40.875 45.40625 35.40625 
Q 44.1875 33.984375 37.640625 27.21875 
Q 31.109375 20.453125 19.1875 8.296875 
z
" id="DejaVuSans-50"/>
      </defs>
      <g transform="translate(17.1625 163.133475)scale(0.1 -0.1)">
       <use xlink:href="#DejaVuSans-50"/>
      </g>
     </g>
    </g>
    <g id="ytick_3">
     <g id="line2d_3">
      <g>
       <use style="stroke:#000000;stroke-width:0.8;" x="30.525" xlink:href="#mc36bfe8eb0" y="123.106951"/>
      </g>
     </g>
     <g id="text_45">
      <!-- 4 -->
      <defs>
       <path d="M 37.796875 64.3125 
L 12.890625 25.390625 
L 37.796875 25.390625 
z
M 35.203125 72.90625 
L 47.609375 72.90625 
L 47.609375 25.390625 
L 58.015625 25.390625 
L 58.015625 17.1875 
L 47.609375 17.1875 
L 47.609375 0 
L 37.796875 0 
L 37.796875 17.1875 
L 4.890625 17.1875 
L 4.890625 26.703125 
z
" id="DejaVuSans-52"/>
      </defs>
      <g transform="translate(17.1625 126.90617)scale(0.1 -0.1)">
       <use xlink:href="#DejaVuSans-52"/>
      </g>
     </g>
    </g>
    <g id="ytick_4">
     <g id="line2d_4">
      <g>
       <use style="stroke:#000000;stroke-width:0.8;" x="30.525" xlink:href="#mc36bfe8eb0" y="86.879645"/>
      </g>
     </g>
     <g id="text_46">
      <!-- 6 -->
      <defs>
       <path d="M 33.015625 40.375 
Q 26.375 40.375 22.484375 35.828125 
Q 18.609375 31.296875 18.609375 23.390625 
Q 18.609375 15.53125 22.484375 10.953125 
Q 26.375 6.390625 33.015625 6.390625 
Q 39.65625 6.390625 43.53125 10.953125 
Q 47.40625 15.53125 47.40625 23.390625 
Q 47.40625 31.296875 43.53125 35.828125 
Q 39.65625 40.375 33.015625 40.375 
z
M 52.59375 71.296875 
L 52.59375 62.3125 
Q 48.875 64.0625 45.09375 64.984375 
Q 41.3125 65.921875 37.59375 65.921875 
Q 27.828125 65.921875 22.671875 59.328125 
Q 17.53125 52.734375 16.796875 39.40625 
Q 19.671875 43.65625 24.015625 45.921875 
Q 28.375 48.1875 33.59375 48.1875 
Q 44.578125 48.1875 50.953125 41.515625 
Q 57.328125 34.859375 57.328125 23.390625 
Q 57.328125 12.15625 50.6875 5.359375 
Q 44.046875 -1.421875 33.015625 -1.421875 
Q 20.359375 -1.421875 13.671875 8.265625 
Q 6.984375 17.96875 6.984375 36.375 
Q 6.984375 53.65625 15.1875 63.9375 
Q 23.390625 74.21875 37.203125 74.21875 
Q 40.921875 74.21875 44.703125 73.484375 
Q 48.484375 72.75 52.59375 71.296875 
z
" id="DejaVuSans-54"/>
      </defs>
      <g transform="translate(17.1625 90.678864)scale(0.1 -0.1)">
       <use xlink:href="#DejaVuSans-54"/>
      </g>
     </g>
    </g>
    <g id="ytick_5">
     <g id="line2d_5">
      <g>
       <use style="stroke:#000000;stroke-width:0.8;" x="30.525" xlink:href="#mc36bfe8eb0" y="50.652339"/>
      </g>
     </g>
     <g id="text_47">
      <!-- 8 -->
      <defs>
       <path d="M 31.78125 34.625 
Q 24.75 34.625 20.71875 30.859375 
Q 16.703125 27.09375 16.703125 20.515625 
Q 16.703125 13.921875 20.71875 10.15625 
Q 24.75 6.390625 31.78125 6.390625 
Q 38.8125 6.390625 42.859375 10.171875 
Q 46.921875 13.96875 46.921875 20.515625 
Q 46.921875 27.09375 42.890625 30.859375 
Q 38.875 34.625 31.78125 34.625 
z
M 21.921875 38.8125 
Q 15.578125 40.375 12.03125 44.71875 
Q 8.5 49.078125 8.5 55.328125 
Q 8.5 64.0625 14.71875 69.140625 
Q 20.953125 74.21875 31.78125 74.21875 
Q 42.671875 74.21875 48.875 69.140625 
Q 55.078125 64.0625 55.078125 55.328125 
Q 55.078125 49.078125 51.53125 44.71875 
Q 48 40.375 41.703125 38.8125 
Q 48.828125 37.15625 52.796875 32.3125 
Q 56.78125 27.484375 56.78125 20.515625 
Q 56.78125 9.90625 50.3125 4.234375 
Q 43.84375 -1.421875 31.78125 -1.421875 
Q 19.734375 -1.421875 13.25 4.234375 
Q 6.78125 9.90625 6.78125 20.515625 
Q 6.78125 27.484375 10.78125 32.3125 
Q 14.796875 37.15625 21.921875 38.8125 
z
M 18.3125 54.390625 
Q 18.3125 48.734375 21.84375 45.5625 
Q 25.390625 42.390625 31.78125 42.390625 
Q 38.140625 42.390625 41.71875 45.5625 
Q 45.3125 48.734375 45.3125 54.390625 
Q 45.3125 60.0625 41.71875 63.234375 
Q 38.140625 66.40625 31.78125 66.40625 
Q 25.390625 66.40625 21.84375 63.234375 
Q 18.3125 60.0625 18.3125 54.390625 
z
" id="DejaVuSans-56"/>
      </defs>
      <g transform="translate(17.1625 54.451558)scale(0.1 -0.1)">
       <use xlink:href="#DejaVuSans-56"/>
      </g>
     </g>
    </g>
    <g id="ytick_6">
     <g id="line2d_6">
      <g>
       <use style="stroke:#000000;stroke-width:0.8;" x="30.525" xlink:href="#mc36bfe8eb0" y="14.425034"/>
      </g>
     </g>
     <g id="text_48">
      <!-- 10 -->
      <defs>
       <path d="M 12.40625 8.296875 
L 28.515625 8.296875 
L 28.515625 63.921875 
L 10.984375 60.40625 
L 10.984375 69.390625 
L 28.421875 72.90625 
L 38.28125 72.90625 
L 38.28125 8.296875 
L 54.390625 8.296875 
L 54.390625 0 
L 12.40625 0 
z
" id="DejaVuSans-49"/>
      </defs>
      <g transform="translate(10.8 18.224252)scale(0.1 -0.1)">
       <use xlink:href="#DejaVuSans-49"/>
       <use x="63.623047" xlink:href="#DejaVuSans-48"/>
      </g>
     </g>
    </g>
   </g>
   <g id="LineCollection_1">
    <path clip-path="url(#p39d346e97d)" d="M 43.334821 195.561563 
L 43.334821 190.641368 
L 51.874702 190.641368 
L 51.874702 195.561563 
" style="fill:none;stroke:#008000;stroke-width:1.5;"/>
    <path clip-path="url(#p39d346e97d)" d="M 34.79494 195.561563 
L 34.79494 181.878274 
L 47.604762 181.878274 
L 47.604762 190.641368 
" style="fill:none;stroke:#008000;stroke-width:1.5;"/>
    <path clip-path="url(#p39d346e97d)" d="M 68.954464 195.561563 
L 68.954464 183.179185 
L 77.494345 183.179185 
L 77.494345 195.561563 
" style="fill:none;stroke:#008000;stroke-width:1.5;"/>
    <path clip-path="url(#p39d346e97d)" d="M 60.414583 195.561563 
L 60.414583 170.620786 
L 73.224405 170.620786 
L 73.224405 183.179185 
" style="fill:none;stroke:#008000;stroke-width:1.5;"/>
    <path clip-path="url(#p39d346e97d)" d="M 41.199851 181.878274 
L 41.199851 165.399216 
L 66.819494 165.399216 
L 66.819494 170.620786 
" style="fill:none;stroke:#008000;stroke-width:1.5;"/>
    <path clip-path="url(#p39d346e97d)" d="M 94.574107 195.561563 
L 94.574107 181.239694 
L 103.113988 181.239694 
L 103.113988 195.561563 
" style="fill:none;stroke:#008000;stroke-width:1.5;"/>
    <path clip-path="url(#p39d346e97d)" d="M 86.034226 195.561563 
L 86.034226 157.707644 
L 98.844048 157.707644 
L 98.844048 181.239694 
" style="fill:none;stroke:#008000;stroke-width:1.5;"/>
    <path clip-path="url(#p39d346e97d)" d="M 54.009673 165.399216 
L 54.009673 138.784604 
L 92.439137 138.784604 
L 92.439137 157.707644 
" style="fill:none;stroke:#008000;stroke-width:1.5;"/>
    <path clip-path="url(#p39d346e97d)" d="M 120.19375 195.561563 
L 120.19375 174.960229 
L 128.733631 174.960229 
L 128.733631 195.561563 
" style="fill:none;stroke:#008000;stroke-width:1.5;"/>
    <path clip-path="url(#p39d346e97d)" d="M 111.653869 195.561563 
L 111.653869 172.253578 
L 124.46369 172.253578 
L 124.46369 174.960229 
" style="fill:none;stroke:#008000;stroke-width:1.5;"/>
    <path clip-path="url(#p39d346e97d)" d="M 137.273512 195.561563 
L 137.273512 181.771715 
L 145.813393 181.771715 
L 145.813393 195.561563 
" style="fill:none;stroke:#008000;stroke-width:1.5;"/>
    <path clip-path="url(#p39d346e97d)" d="M 162.893155 195.561563 
L 162.893155 189.283854 
L 171.433036 189.283854 
L 171.433036 195.561563 
" style="fill:none;stroke:#008000;stroke-width:1.5;"/>
    <path clip-path="url(#p39d346e97d)" d="M 154.353274 195.561563 
L 154.353274 177.636904 
L 167.163095 177.636904 
L 167.163095 189.283854 
" style="fill:none;stroke:#008000;stroke-width:1.5;"/>
    <path clip-path="url(#p39d346e97d)" d="M 141.543452 181.771715 
L 141.543452 156.909647 
L 160.758185 156.909647 
L 160.758185 177.636904 
" style="fill:none;stroke:#008000;stroke-width:1.5;"/>
    <path clip-path="url(#p39d346e97d)" d="M 118.05878 172.253578 
L 118.05878 136.557307 
L 151.150818 136.557307 
L 151.150818 156.909647 
" style="fill:none;stroke:#008000;stroke-width:1.5;"/>
    <path clip-path="url(#p39d346e97d)" d="M 73.224405 138.784604 
L 73.224405 96.699181 
L 134.604799 96.699181 
L 134.604799 136.557307 
" style="fill:none;stroke:#008000;stroke-width:1.5;"/>
   </g>
   <g id="LineCollection_2">
    <path clip-path="url(#p39d346e97d)" d="M 188.512798 195.561563 
L 188.512798 183.887676 
L 197.052679 183.887676 
L 197.052679 195.561563 
" style="fill:none;stroke:#ff0000;stroke-width:1.5;"/>
    <path clip-path="url(#p39d346e97d)" d="M 179.972917 195.561563 
L 179.972917 176.380697 
L 192.782738 176.380697 
L 192.782738 183.887676 
" style="fill:none;stroke:#ff0000;stroke-width:1.5;"/>
    <path clip-path="url(#p39d346e97d)" d="M 222.672321 195.561563 
L 222.672321 188.51228 
L 231.212202 188.51228 
L 231.212202 195.561563 
" style="fill:none;stroke:#ff0000;stroke-width:1.5;"/>
    <path clip-path="url(#p39d346e97d)" d="M 214.13244 195.561563 
L 214.13244 179.437661 
L 226.942262 179.437661 
L 226.942262 188.51228 
" style="fill:none;stroke:#ff0000;stroke-width:1.5;"/>
    <path clip-path="url(#p39d346e97d)" d="M 205.59256 195.561563 
L 205.59256 164.001278 
L 220.537351 164.001278 
L 220.537351 179.437661 
" style="fill:none;stroke:#ff0000;stroke-width:1.5;"/>
    <path clip-path="url(#p39d346e97d)" d="M 186.377827 176.380697 
L 186.377827 153.564651 
L 213.064955 153.564651 
L 213.064955 164.001278 
" style="fill:none;stroke:#ff0000;stroke-width:1.5;"/>
    <path clip-path="url(#p39d346e97d)" d="M 239.752083 195.561563 
L 239.752083 175.357033 
L 248.291964 175.357033 
L 248.291964 195.561563 
" style="fill:none;stroke:#ff0000;stroke-width:1.5;"/>
    <path clip-path="url(#p39d346e97d)" d="M 265.371726 195.561563 
L 265.371726 189.880081 
L 273.911607 189.880081 
L 273.911607 195.561563 
" style="fill:none;stroke:#ff0000;stroke-width:1.5;"/>
    <path clip-path="url(#p39d346e97d)" d="M 256.831845 195.561563 
L 256.831845 189.611845 
L 269.641667 189.611845 
L 269.641667 189.880081 
" style="fill:none;stroke:#ff0000;stroke-width:1.5;"/>
    <path clip-path="url(#p39d346e97d)" d="M 282.451488 195.561563 
L 282.451488 188.817224 
L 290.991369 188.817224 
L 290.991369 195.561563 
" style="fill:none;stroke:#ff0000;stroke-width:1.5;"/>
    <path clip-path="url(#p39d346e97d)" d="M 263.236756 189.611845 
L 263.236756 174.437346 
L 286.721429 174.437346 
L 286.721429 188.817224 
" style="fill:none;stroke:#ff0000;stroke-width:1.5;"/>
    <path clip-path="url(#p39d346e97d)" d="M 244.022024 175.357033 
L 244.022024 153.232456 
L 274.979092 153.232456 
L 274.979092 174.437346 
" style="fill:none;stroke:#ff0000;stroke-width:1.5;"/>
    <path clip-path="url(#p39d346e97d)" d="M 199.721391 153.564651 
L 199.721391 128.254794 
L 259.500558 128.254794 
L 259.500558 153.232456 
" style="fill:none;stroke:#ff0000;stroke-width:1.5;"/>
   </g>
   <g id="LineCollection_3">
    <path clip-path="url(#p39d346e97d)" d="M 299.53125 195.561563 
L 299.53125 155.315374 
L 308.071131 155.315374 
L 308.071131 195.561563 
" style="fill:none;stroke:#00bfbf;stroke-width:1.5;"/>
    <path clip-path="url(#p39d346e97d)" d="M 316.611012 195.561563 
L 316.611012 183.48489 
L 325.150893 183.48489 
L 325.150893 195.561563 
" style="fill:none;stroke:#00bfbf;stroke-width:1.5;"/>
    <path clip-path="url(#p39d346e97d)" d="M 333.690774 195.561563 
L 333.690774 186.772835 
L 342.230655 186.772835 
L 342.230655 195.561563 
" style="fill:none;stroke:#00bfbf;stroke-width:1.5;"/>
    <path clip-path="url(#p39d346e97d)" d="M 350.770536 195.561563 
L 350.770536 184.653428 
L 359.310417 184.653428 
L 359.310417 195.561563 
" style="fill:none;stroke:#00bfbf;stroke-width:1.5;"/>
    <path clip-path="url(#p39d346e97d)" d="M 337.960714 186.772835 
L 337.960714 167.872104 
L 355.040476 167.872104 
L 355.040476 184.653428 
" style="fill:none;stroke:#00bfbf;stroke-width:1.5;"/>
    <path clip-path="url(#p39d346e97d)" d="M 320.880952 183.48489 
L 320.880952 160.961692 
L 346.500595 160.961692 
L 346.500595 167.872104 
" style="fill:none;stroke:#00bfbf;stroke-width:1.5;"/>
    <path clip-path="url(#p39d346e97d)" d="M 376.390179 195.561563 
L 376.390179 178.158374 
L 384.93006 178.158374 
L 384.93006 195.561563 
" style="fill:none;stroke:#00bfbf;stroke-width:1.5;"/>
    <path clip-path="url(#p39d346e97d)" d="M 367.850298 195.561563 
L 367.850298 160.828808 
L 380.660119 160.828808 
L 380.660119 178.158374 
" style="fill:none;stroke:#00bfbf;stroke-width:1.5;"/>
    <path clip-path="url(#p39d346e97d)" d="M 333.690774 160.961692 
L 333.690774 145.426769 
L 374.255208 145.426769 
L 374.255208 160.828808 
" style="fill:none;stroke:#00bfbf;stroke-width:1.5;"/>
    <path clip-path="url(#p39d346e97d)" d="M 303.80119 155.315374 
L 303.80119 110.768476 
L 353.972991 110.768476 
L 353.972991 145.426769 
" style="fill:none;stroke:#00bfbf;stroke-width:1.5;"/>
   </g>
   <g id="LineCollection_4">
    <path clip-path="url(#p39d346e97d)" d="M 229.610975 128.254794 
L 229.610975 73.365334 
L 328.887091 73.365334 
L 328.887091 110.768476 
" style="fill:none;stroke:#0000ff;stroke-width:1.5;"/>
    <path clip-path="url(#p39d346e97d)" d="M 103.914602 96.699181 
L 103.914602 21.447654 
L 279.249033 21.447654 
L 279.249033 73.365334 
" style="fill:none;stroke:#0000ff;stroke-width:1.5;"/>
   </g>
   <g id="patch_3">
    <path d="M 30.525 195.561563 
L 30.525 12.741958 
" style="fill:none;stroke:#000000;stroke-linecap:square;stroke-linejoin:miter;stroke-width:0.8;"/>
   </g>
   <g id="patch_4">
    <path d="M 389.2 195.561563 
L 389.2 12.741958 
" style="fill:none;stroke:#000000;stroke-linecap:square;stroke-linejoin:miter;stroke-width:0.8;"/>
   </g>
   <g id="patch_5">
    <path d="M 30.525 195.561563 
L 389.2 195.561563 
" style="fill:none;stroke:#000000;stroke-linecap:square;stroke-linejoin:miter;stroke-width:0.8;"/>
   </g>
   <g id="patch_6">
    <path d="M 30.525 12.741958 
L 389.2 12.741958 
" style="fill:none;stroke:#000000;stroke-linecap:square;stroke-linejoin:miter;stroke-width:0.8;"/>
   </g>
  </g>
 </g>
 <defs>
  <clipPath id="p39d346e97d">
   <rect height="182.819604" width="358.675" x="30.525" y="12.741958"/>
  </clipPath>
 </defs>
</svg>
