<?xml version="1.0" encoding="utf-8" standalone="no"?>
<!DOCTYPE svg PUBLIC "-//W3C//DTD SVG 1.1//EN"
  "http://www.w3.org/Graphics/SVG/1.1/DTD/svg11.dtd">
<!-- Created with matplotlib (https://matplotlib.org/) -->
<svg height="233pt" version="1.1" viewBox="0 0 400 233" width="400pt" xmlns="http://www.w3.org/2000/svg" xmlns:xlink="http://www.w3.org/1999/xlink">
 <defs>
  <style type="text/css">
*{stroke-linecap:butt;stroke-linejoin:round;}
  </style>
 </defs>
 <g id="figure_1">
  <g id="patch_1">
   <path d="M 0 233 
L 400 233 
L 400 0 
L 0 0 
z
" style="fill:#ffffff;"/>
  </g>
  <g id="axes_1">
   <g id="patch_2">
    <path d="M 33.703125 102.349375 
L 388.879896 102.349375 
L 388.879896 10.8 
L 33.703125 10.8 
z
" style="fill:#ffffff;"/>
   </g>
   <g id="matplotlib.axis_1">
    <g id="xtick_1">
     <g id="text_1">
      <!-- Apple -->
      <defs>
       <path d="M 34.1875 63.1875 
L 20.796875 26.90625 
L 47.609375 26.90625 
z
M 28.609375 72.90625 
L 39.796875 72.90625 
L 67.578125 0 
L 57.328125 0 
L 50.6875 18.703125 
L 17.828125 18.703125 
L 11.1875 0 
L 0.78125 0 
z
" id="DejaVuSans-65"/>
       <path d="M 18.109375 8.203125 
L 18.109375 -20.796875 
L 9.078125 -20.796875 
L 9.078125 54.6875 
L 18.109375 54.6875 
L 18.109375 46.390625 
Q 20.953125 51.265625 25.265625 53.625 
Q 29.59375 56 35.59375 56 
Q 45.5625 56 51.78125 48.09375 
Q 58.015625 40.1875 58.015625 27.296875 
Q 58.015625 14.40625 51.78125 6.484375 
Q 45.5625 -1.421875 35.59375 -1.421875 
Q 29.59375 -1.421875 25.265625 0.953125 
Q 20.953125 3.328125 18.109375 8.203125 
z
M 48.6875 27.296875 
Q 48.6875 37.203125 44.609375 42.84375 
Q 40.53125 48.484375 33.40625 48.484375 
Q 26.265625 48.484375 22.1875 42.84375 
Q 18.109375 37.203125 18.109375 27.296875 
Q 18.109375 17.390625 22.1875 11.75 
Q 26.265625 6.109375 33.40625 6.109375 
Q 40.53125 6.109375 44.609375 11.75 
Q 48.6875 17.390625 48.6875 27.296875 
z
" id="DejaVuSans-112"/>
       <path d="M 9.421875 75.984375 
L 18.40625 75.984375 
L 18.40625 0 
L 9.421875 0 
z
" id="DejaVuSans-108"/>
       <path d="M 56.203125 29.59375 
L 56.203125 25.203125 
L 14.890625 25.203125 
Q 15.484375 15.921875 20.484375 11.0625 
Q 25.484375 6.203125 34.421875 6.203125 
Q 39.59375 6.203125 44.453125 7.46875 
Q 49.3125 8.734375 54.109375 11.28125 
L 54.109375 2.78125 
Q 49.265625 0.734375 44.1875 -0.34375 
Q 39.109375 -1.421875 33.890625 -1.421875 
Q 20.796875 -1.421875 13.15625 6.1875 
Q 5.515625 13.8125 5.515625 26.8125 
Q 5.515625 40.234375 12.765625 48.109375 
Q 20.015625 56 32.328125 56 
Q 43.359375 56 49.78125 48.890625 
Q 56.203125 41.796875 56.203125 29.59375 
z
M 47.21875 32.234375 
Q 47.125 39.59375 43.09375 43.984375 
Q 39.0625 48.390625 32.421875 48.390625 
Q 24.90625 48.390625 20.390625 44.140625 
Q 15.875 39.890625 15.1875 32.171875 
z
" id="DejaVuSans-101"/>
      </defs>
      <g transform="translate(38.318556 126.430625)rotate(-90)scale(0.06 -0.06)">
       <use xlink:href="#DejaVuSans-65"/>
       <use x="68.408203" xlink:href="#DejaVuSans-112"/>
       <use x="131.884766" xlink:href="#DejaVuSans-112"/>
       <use x="195.361328" xlink:href="#DejaVuSans-108"/>
       <use x="223.144531" xlink:href="#DejaVuSans-101"/>
      </g>
     </g>
    </g>
    <g id="xtick_2">
     <g id="text_2">
      <!-- Taiwan Semiconductor Manufacturing -->
      <defs>
       <path d="M -0.296875 72.90625 
L 61.375 72.90625 
L 61.375 64.59375 
L 35.5 64.59375 
L 35.5 0 
L 25.59375 0 
L 25.59375 64.59375 
L -0.296875 64.59375 
z
" id="DejaVuSans-84"/>
       <path d="M 34.28125 27.484375 
Q 23.390625 27.484375 19.1875 25 
Q 14.984375 22.515625 14.984375 16.5 
Q 14.984375 11.71875 18.140625 8.90625 
Q 21.296875 6.109375 26.703125 6.109375 
Q 34.1875 6.109375 38.703125 11.40625 
Q 43.21875 16.703125 43.21875 25.484375 
L 43.21875 27.484375 
z
M 52.203125 31.203125 
L 52.203125 0 
L 43.21875 0 
L 43.21875 8.296875 
Q 40.140625 3.328125 35.546875 0.953125 
Q 30.953125 -1.421875 24.3125 -1.421875 
Q 15.921875 -1.421875 10.953125 3.296875 
Q 6 8.015625 6 15.921875 
Q 6 25.140625 12.171875 29.828125 
Q 18.359375 34.515625 30.609375 34.515625 
L 43.21875 34.515625 
L 43.21875 35.40625 
Q 43.21875 41.609375 39.140625 45 
Q 35.0625 48.390625 27.6875 48.390625 
Q 23 48.390625 18.546875 47.265625 
Q 14.109375 46.140625 10.015625 43.890625 
L 10.015625 52.203125 
Q 14.9375 54.109375 19.578125 55.046875 
Q 24.21875 56 28.609375 56 
Q 40.484375 56 46.34375 49.84375 
Q 52.203125 43.703125 52.203125 31.203125 
z
" id="DejaVuSans-97"/>
       <path d="M 9.421875 54.6875 
L 18.40625 54.6875 
L 18.40625 0 
L 9.421875 0 
z
M 9.421875 75.984375 
L 18.40625 75.984375 
L 18.40625 64.59375 
L 9.421875 64.59375 
z
" id="DejaVuSans-105"/>
       <path d="M 4.203125 54.6875 
L 13.1875 54.6875 
L 24.421875 12.015625 
L 35.59375 54.6875 
L 46.1875 54.6875 
L 57.421875 12.015625 
L 68.609375 54.6875 
L 77.59375 54.6875 
L 63.28125 0 
L 52.6875 0 
L 40.921875 44.828125 
L 29.109375 0 
L 18.5 0 
z
" id="DejaVuSans-119"/>
       <path d="M 54.890625 33.015625 
L 54.890625 0 
L 45.90625 0 
L 45.90625 32.71875 
Q 45.90625 40.484375 42.875 44.328125 
Q 39.84375 48.1875 33.796875 48.1875 
Q 26.515625 48.1875 22.3125 43.546875 
Q 18.109375 38.921875 18.109375 30.90625 
L 18.109375 0 
L 9.078125 0 
L 9.078125 54.6875 
L 18.109375 54.6875 
L 18.109375 46.1875 
Q 21.34375 51.125 25.703125 53.5625 
Q 30.078125 56 35.796875 56 
Q 45.21875 56 50.046875 50.171875 
Q 54.890625 44.34375 54.890625 33.015625 
z
" id="DejaVuSans-110"/>
       <path id="DejaVuSans-32"/>
       <path d="M 53.515625 70.515625 
L 53.515625 60.890625 
Q 47.90625 63.578125 42.921875 64.890625 
Q 37.9375 66.21875 33.296875 66.21875 
Q 25.25 66.21875 20.875 63.09375 
Q 16.5 59.96875 16.5 54.203125 
Q 16.5 49.359375 19.40625 46.890625 
Q 22.3125 44.4375 30.421875 42.921875 
L 36.375 41.703125 
Q 47.40625 39.59375 52.65625 34.296875 
Q 57.90625 29 57.90625 20.125 
Q 57.90625 9.515625 50.796875 4.046875 
Q 43.703125 -1.421875 29.984375 -1.421875 
Q 24.8125 -1.421875 18.96875 -0.25 
Q 13.140625 0.921875 6.890625 3.21875 
L 6.890625 13.375 
Q 12.890625 10.015625 18.65625 8.296875 
Q 24.421875 6.59375 29.984375 6.59375 
Q 38.421875 6.59375 43.015625 9.90625 
Q 47.609375 13.234375 47.609375 19.390625 
Q 47.609375 24.75 44.3125 27.78125 
Q 41.015625 30.8125 33.5 32.328125 
L 27.484375 33.5 
Q 16.453125 35.6875 11.515625 40.375 
Q 6.59375 45.0625 6.59375 53.421875 
Q 6.59375 63.09375 13.40625 68.65625 
Q 20.21875 74.21875 32.171875 74.21875 
Q 37.3125 74.21875 42.625 73.28125 
Q 47.953125 72.359375 53.515625 70.515625 
z
" id="DejaVuSans-83"/>
       <path d="M 52 44.1875 
Q 55.375 50.25 60.0625 53.125 
Q 64.75 56 71.09375 56 
Q 79.640625 56 84.28125 50.015625 
Q 88.921875 44.046875 88.921875 33.015625 
L 88.921875 0 
L 79.890625 0 
L 79.890625 32.71875 
Q 79.890625 40.578125 77.09375 44.375 
Q 74.3125 48.1875 68.609375 48.1875 
Q 61.625 48.1875 57.5625 43.546875 
Q 53.515625 38.921875 53.515625 30.90625 
L 53.515625 0 
L 44.484375 0 
L 44.484375 32.71875 
Q 44.484375 40.625 41.703125 44.40625 
Q 38.921875 48.1875 33.109375 48.1875 
Q 26.21875 48.1875 22.15625 43.53125 
Q 18.109375 38.875 18.109375 30.90625 
L 18.109375 0 
L 9.078125 0 
L 9.078125 54.6875 
L 18.109375 54.6875 
L 18.109375 46.1875 
Q 21.1875 51.21875 25.484375 53.609375 
Q 29.78125 56 35.6875 56 
Q 41.65625 56 45.828125 52.96875 
Q 50 49.953125 52 44.1875 
z
" id="DejaVuSans-109"/>
       <path d="M 48.78125 52.59375 
L 48.78125 44.1875 
Q 44.96875 46.296875 41.140625 47.34375 
Q 37.3125 48.390625 33.40625 48.390625 
Q 24.65625 48.390625 19.8125 42.84375 
Q 14.984375 37.3125 14.984375 27.296875 
Q 14.984375 17.28125 19.8125 11.734375 
Q 24.65625 6.203125 33.40625 6.203125 
Q 37.3125 6.203125 41.140625 7.25 
Q 44.96875 8.296875 48.78125 10.40625 
L 48.78125 2.09375 
Q 45.015625 0.34375 40.984375 -0.53125 
Q 36.96875 -1.421875 32.421875 -1.421875 
Q 20.0625 -1.421875 12.78125 6.34375 
Q 5.515625 14.109375 5.515625 27.296875 
Q 5.515625 40.671875 12.859375 48.328125 
Q 20.21875 56 33.015625 56 
Q 37.15625 56 41.109375 55.140625 
Q 45.0625 54.296875 48.78125 52.59375 
z
" id="DejaVuSans-99"/>
       <path d="M 30.609375 48.390625 
Q 23.390625 48.390625 19.1875 42.75 
Q 14.984375 37.109375 14.984375 27.296875 
Q 14.984375 17.484375 19.15625 11.84375 
Q 23.34375 6.203125 30.609375 6.203125 
Q 37.796875 6.203125 41.984375 11.859375 
Q 46.1875 17.53125 46.1875 27.296875 
Q 46.1875 37.015625 41.984375 42.703125 
Q 37.796875 48.390625 30.609375 48.390625 
z
M 30.609375 56 
Q 42.328125 56 49.015625 48.375 
Q 55.71875 40.765625 55.71875 27.296875 
Q 55.71875 13.875 49.015625 6.21875 
Q 42.328125 -1.421875 30.609375 -1.421875 
Q 18.84375 -1.421875 12.171875 6.21875 
Q 5.515625 13.875 5.515625 27.296875 
Q 5.515625 40.765625 12.171875 48.375 
Q 18.84375 56 30.609375 56 
z
" id="DejaVuSans-111"/>
       <path d="M 45.40625 46.390625 
L 45.40625 75.984375 
L 54.390625 75.984375 
L 54.390625 0 
L 45.40625 0 
L 45.40625 8.203125 
Q 42.578125 3.328125 38.25 0.953125 
Q 33.9375 -1.421875 27.875 -1.421875 
Q 17.96875 -1.421875 11.734375 6.484375 
Q 5.515625 14.40625 5.515625 27.296875 
Q 5.515625 40.1875 11.734375 48.09375 
Q 17.96875 56 27.875 56 
Q 33.9375 56 38.25 53.625 
Q 42.578125 51.265625 45.40625 46.390625 
z
M 14.796875 27.296875 
Q 14.796875 17.390625 18.875 11.75 
Q 22.953125 6.109375 30.078125 6.109375 
Q 37.203125 6.109375 41.296875 11.75 
Q 45.40625 17.390625 45.40625 27.296875 
Q 45.40625 37.203125 41.296875 42.84375 
Q 37.203125 48.484375 30.078125 48.484375 
Q 22.953125 48.484375 18.875 42.84375 
Q 14.796875 37.203125 14.796875 27.296875 
z
" id="DejaVuSans-100"/>
       <path d="M 8.5 21.578125 
L 8.5 54.6875 
L 17.484375 54.6875 
L 17.484375 21.921875 
Q 17.484375 14.15625 20.5 10.265625 
Q 23.53125 6.390625 29.59375 6.390625 
Q 36.859375 6.390625 41.078125 11.03125 
Q 45.3125 15.671875 45.3125 23.6875 
L 45.3125 54.6875 
L 54.296875 54.6875 
L 54.296875 0 
L 45.3125 0 
L 45.3125 8.40625 
Q 42.046875 3.421875 37.71875 1 
Q 33.40625 -1.421875 27.6875 -1.421875 
Q 18.265625 -1.421875 13.375 4.4375 
Q 8.5 10.296875 8.5 21.578125 
z
M 31.109375 56 
z
" id="DejaVuSans-117"/>
       <path d="M 18.3125 70.21875 
L 18.3125 54.6875 
L 36.8125 54.6875 
L 36.8125 47.703125 
L 18.3125 47.703125 
L 18.3125 18.015625 
Q 18.3125 11.328125 20.140625 9.421875 
Q 21.96875 7.515625 27.59375 7.515625 
L 36.8125 7.515625 
L 36.8125 0 
L 27.59375 0 
Q 17.1875 0 13.234375 3.875 
Q 9.28125 7.765625 9.28125 18.015625 
L 9.28125 47.703125 
L 2.6875 47.703125 
L 2.6875 54.6875 
L 9.28125 54.6875 
L 9.28125 70.21875 
z
" id="DejaVuSans-116"/>
       <path d="M 41.109375 46.296875 
Q 39.59375 47.171875 37.8125 47.578125 
Q 36.03125 48 33.890625 48 
Q 26.265625 48 22.1875 43.046875 
Q 18.109375 38.09375 18.109375 28.8125 
L 18.109375 0 
L 9.078125 0 
L 9.078125 54.6875 
L 18.109375 54.6875 
L 18.109375 46.1875 
Q 20.953125 51.171875 25.484375 53.578125 
Q 30.03125 56 36.53125 56 
Q 37.453125 56 38.578125 55.875 
Q 39.703125 55.765625 41.0625 55.515625 
z
" id="DejaVuSans-114"/>
       <path d="M 9.8125 72.90625 
L 24.515625 72.90625 
L 43.109375 23.296875 
L 61.8125 72.90625 
L 76.515625 72.90625 
L 76.515625 0 
L 66.890625 0 
L 66.890625 64.015625 
L 48.09375 14.015625 
L 38.1875 14.015625 
L 19.390625 64.015625 
L 19.390625 0 
L 9.8125 0 
z
" id="DejaVuSans-77"/>
       <path d="M 37.109375 75.984375 
L 37.109375 68.5 
L 28.515625 68.5 
Q 23.6875 68.5 21.796875 66.546875 
Q 19.921875 64.59375 19.921875 59.515625 
L 19.921875 54.6875 
L 34.71875 54.6875 
L 34.71875 47.703125 
L 19.921875 47.703125 
L 19.921875 0 
L 10.890625 0 
L 10.890625 47.703125 
L 2.296875 47.703125 
L 2.296875 54.6875 
L 10.890625 54.6875 
L 10.890625 58.5 
Q 10.890625 67.625 15.140625 71.796875 
Q 19.390625 75.984375 28.609375 75.984375 
z
" id="DejaVuSans-102"/>
       <path d="M 45.40625 27.984375 
Q 45.40625 37.75 41.375 43.109375 
Q 37.359375 48.484375 30.078125 48.484375 
Q 22.859375 48.484375 18.828125 43.109375 
Q 14.796875 37.75 14.796875 27.984375 
Q 14.796875 18.265625 18.828125 12.890625 
Q 22.859375 7.515625 30.078125 7.515625 
Q 37.359375 7.515625 41.375 12.890625 
Q 45.40625 18.265625 45.40625 27.984375 
z
M 54.390625 6.78125 
Q 54.390625 -7.171875 48.1875 -13.984375 
Q 42 -20.796875 29.203125 -20.796875 
Q 24.46875 -20.796875 20.265625 -20.09375 
Q 16.0625 -19.390625 12.109375 -17.921875 
L 12.109375 -9.1875 
Q 16.0625 -11.328125 19.921875 -12.34375 
Q 23.78125 -13.375 27.78125 -13.375 
Q 36.625 -13.375 41.015625 -8.765625 
Q 45.40625 -4.15625 45.40625 5.171875 
L 45.40625 9.625 
Q 42.625 4.78125 38.28125 2.390625 
Q 33.9375 0 27.875 0 
Q 17.828125 0 11.671875 7.65625 
Q 5.515625 15.328125 5.515625 27.984375 
Q 5.515625 40.671875 11.671875 48.328125 
Q 17.828125 56 27.875 56 
Q 33.9375 56 38.28125 53.609375 
Q 42.625 51.21875 45.40625 46.390625 
L 45.40625 54.6875 
L 54.390625 54.6875 
z
" id="DejaVuSans-103"/>
      </defs>
      <g transform="translate(44.238169 222.2)rotate(-90)scale(0.06 -0.06)">
       <use xlink:href="#DejaVuSans-84"/>
       <use x="44.583984" xlink:href="#DejaVuSans-97"/>
       <use x="105.863281" xlink:href="#DejaVuSans-105"/>
       <use x="133.646484" xlink:href="#DejaVuSans-119"/>
       <use x="215.433594" xlink:href="#DejaVuSans-97"/>
       <use x="276.712891" xlink:href="#DejaVuSans-110"/>
       <use x="340.091797" xlink:href="#DejaVuSans-32"/>
       <use x="371.878906" xlink:href="#DejaVuSans-83"/>
       <use x="435.355469" xlink:href="#DejaVuSans-101"/>
       <use x="496.878906" xlink:href="#DejaVuSans-109"/>
       <use x="594.291016" xlink:href="#DejaVuSans-105"/>
       <use x="622.074219" xlink:href="#DejaVuSans-99"/>
       <use x="677.054688" xlink:href="#DejaVuSans-111"/>
       <use x="738.236328" xlink:href="#DejaVuSans-110"/>
       <use x="801.615234" xlink:href="#DejaVuSans-100"/>
       <use x="865.091797" xlink:href="#DejaVuSans-117"/>
       <use x="928.470703" xlink:href="#DejaVuSans-99"/>
       <use x="983.451172" xlink:href="#DejaVuSans-116"/>
       <use x="1022.660156" xlink:href="#DejaVuSans-111"/>
       <use x="1083.841797" xlink:href="#DejaVuSans-114"/>
       <use x="1124.955078" xlink:href="#DejaVuSans-32"/>
       <use x="1156.742188" xlink:href="#DejaVuSans-77"/>
       <use x="1243.021484" xlink:href="#DejaVuSans-97"/>
       <use x="1304.300781" xlink:href="#DejaVuSans-110"/>
       <use x="1367.679688" xlink:href="#DejaVuSans-117"/>
       <use x="1431.058594" xlink:href="#DejaVuSans-102"/>
       <use x="1466.263672" xlink:href="#DejaVuSans-97"/>
       <use x="1527.542969" xlink:href="#DejaVuSans-99"/>
       <use x="1582.523438" xlink:href="#DejaVuSans-116"/>
       <use x="1621.732422" xlink:href="#DejaVuSans-117"/>
       <use x="1685.111328" xlink:href="#DejaVuSans-114"/>
       <use x="1726.224609" xlink:href="#DejaVuSans-105"/>
       <use x="1754.007812" xlink:href="#DejaVuSans-110"/>
       <use x="1817.386719" xlink:href="#DejaVuSans-103"/>
      </g>
     </g>
    </g>
    <g id="xtick_3">
     <g id="text_3">
      <!-- Intel -->
      <defs>
       <path d="M 9.8125 72.90625 
L 19.671875 72.90625 
L 19.671875 0 
L 9.8125 0 
z
" id="DejaVuSans-73"/>
      </defs>
      <g transform="translate(50.157782 122.632812)rotate(-90)scale(0.06 -0.06)">
       <use xlink:href="#DejaVuSans-73"/>
       <use x="29.492188" xlink:href="#DejaVuSans-110"/>
       <use x="92.871094" xlink:href="#DejaVuSans-116"/>
       <use x="132.080078" xlink:href="#DejaVuSans-101"/>
       <use x="193.603516" xlink:href="#DejaVuSans-108"/>
      </g>
     </g>
    </g>
    <g id="xtick_4">
     <g id="text_4">
      <!-- Texas instruments -->
      <defs>
       <path d="M 54.890625 54.6875 
L 35.109375 28.078125 
L 55.90625 0 
L 45.3125 0 
L 29.390625 21.484375 
L 13.484375 0 
L 2.875 0 
L 24.125 28.609375 
L 4.6875 54.6875 
L 15.28125 54.6875 
L 29.78125 35.203125 
L 44.28125 54.6875 
z
" id="DejaVuSans-120"/>
       <path d="M 44.28125 53.078125 
L 44.28125 44.578125 
Q 40.484375 46.53125 36.375 47.5 
Q 32.28125 48.484375 27.875 48.484375 
Q 21.1875 48.484375 17.84375 46.4375 
Q 14.5 44.390625 14.5 40.28125 
Q 14.5 37.15625 16.890625 35.375 
Q 19.28125 33.59375 26.515625 31.984375 
L 29.59375 31.296875 
Q 39.15625 29.25 43.1875 25.515625 
Q 47.21875 21.78125 47.21875 15.09375 
Q 47.21875 7.46875 41.1875 3.015625 
Q 35.15625 -1.421875 24.609375 -1.421875 
Q 20.21875 -1.421875 15.453125 -0.5625 
Q 10.6875 0.296875 5.421875 2 
L 5.421875 11.28125 
Q 10.40625 8.6875 15.234375 7.390625 
Q 20.0625 6.109375 24.8125 6.109375 
Q 31.15625 6.109375 34.5625 8.28125 
Q 37.984375 10.453125 37.984375 14.40625 
Q 37.984375 18.0625 35.515625 20.015625 
Q 33.0625 21.96875 24.703125 23.78125 
L 21.578125 24.515625 
Q 13.234375 26.265625 9.515625 29.90625 
Q 5.8125 33.546875 5.8125 39.890625 
Q 5.8125 47.609375 11.28125 51.796875 
Q 16.75 56 26.8125 56 
Q 31.78125 56 36.171875 55.265625 
Q 40.578125 54.546875 44.28125 53.078125 
z
" id="DejaVuSans-115"/>
      </defs>
      <g transform="translate(56.077395 163.874375)rotate(-90)scale(0.06 -0.06)">
       <use xlink:href="#DejaVuSans-84"/>
       <use x="44.083984" xlink:href="#DejaVuSans-101"/>
       <use x="103.857422" xlink:href="#DejaVuSans-120"/>
       <use x="163.037109" xlink:href="#DejaVuSans-97"/>
       <use x="224.316406" xlink:href="#DejaVuSans-115"/>
       <use x="276.416016" xlink:href="#DejaVuSans-32"/>
       <use x="308.203125" xlink:href="#DejaVuSans-105"/>
       <use x="335.986328" xlink:href="#DejaVuSans-110"/>
       <use x="399.365234" xlink:href="#DejaVuSans-115"/>
       <use x="451.464844" xlink:href="#DejaVuSans-116"/>
       <use x="490.673828" xlink:href="#DejaVuSans-114"/>
       <use x="531.787109" xlink:href="#DejaVuSans-117"/>
       <use x="595.166016" xlink:href="#DejaVuSans-109"/>
       <use x="692.578125" xlink:href="#DejaVuSans-101"/>
       <use x="754.101562" xlink:href="#DejaVuSans-110"/>
       <use x="817.480469" xlink:href="#DejaVuSans-116"/>
       <use x="856.689453" xlink:href="#DejaVuSans-115"/>
      </g>
     </g>
    </g>
    <g id="xtick_5">
     <g id="text_5">
      <!-- Dell -->
      <defs>
       <path d="M 19.671875 64.796875 
L 19.671875 8.109375 
L 31.59375 8.109375 
Q 46.6875 8.109375 53.6875 14.9375 
Q 60.6875 21.78125 60.6875 36.53125 
Q 60.6875 51.171875 53.6875 57.984375 
Q 46.6875 64.796875 31.59375 64.796875 
z
M 9.8125 72.90625 
L 30.078125 72.90625 
Q 51.265625 72.90625 61.171875 64.09375 
Q 71.09375 55.28125 71.09375 36.53125 
Q 71.09375 17.671875 61.125 8.828125 
Q 51.171875 0 30.078125 0 
L 9.8125 0 
z
" id="DejaVuSans-68"/>
      </defs>
      <g transform="translate(61.997008 120.995)rotate(-90)scale(0.06 -0.06)">
       <use xlink:href="#DejaVuSans-68"/>
       <use x="77.001953" xlink:href="#DejaVuSans-101"/>
       <use x="138.525391" xlink:href="#DejaVuSans-108"/>
       <use x="166.308594" xlink:href="#DejaVuSans-108"/>
      </g>
     </g>
    </g>
    <g id="xtick_6">
     <g id="text_6">
      <!-- HP -->
      <defs>
       <path d="M 9.8125 72.90625 
L 19.671875 72.90625 
L 19.671875 43.015625 
L 55.515625 43.015625 
L 55.515625 72.90625 
L 65.375 72.90625 
L 65.375 0 
L 55.515625 0 
L 55.515625 34.71875 
L 19.671875 34.71875 
L 19.671875 0 
L 9.8125 0 
z
" id="DejaVuSans-72"/>
       <path d="M 19.671875 64.796875 
L 19.671875 37.40625 
L 32.078125 37.40625 
Q 38.96875 37.40625 42.71875 40.96875 
Q 46.484375 44.53125 46.484375 51.125 
Q 46.484375 57.671875 42.71875 61.234375 
Q 38.96875 64.796875 32.078125 64.796875 
z
M 9.8125 72.90625 
L 32.078125 72.90625 
Q 44.34375 72.90625 50.609375 67.359375 
Q 56.890625 61.8125 56.890625 51.125 
Q 56.890625 40.328125 50.609375 34.8125 
Q 44.34375 29.296875 32.078125 29.296875 
L 19.671875 29.296875 
L 19.671875 0 
L 9.8125 0 
z
" id="DejaVuSans-80"/>
      </defs>
      <g transform="translate(67.916621 117.479375)rotate(-90)scale(0.06 -0.06)">
       <use xlink:href="#DejaVuSans-72"/>
       <use x="75.195312" xlink:href="#DejaVuSans-80"/>
      </g>
     </g>
    </g>
    <g id="xtick_7">
     <g id="text_7">
      <!-- Symantec -->
      <defs>
       <path d="M 32.171875 -5.078125 
Q 28.375 -14.84375 24.75 -17.8125 
Q 21.140625 -20.796875 15.09375 -20.796875 
L 7.90625 -20.796875 
L 7.90625 -13.28125 
L 13.1875 -13.28125 
Q 16.890625 -13.28125 18.9375 -11.515625 
Q 21 -9.765625 23.484375 -3.21875 
L 25.09375 0.875 
L 2.984375 54.6875 
L 12.5 54.6875 
L 29.59375 11.921875 
L 46.6875 54.6875 
L 56.203125 54.6875 
z
" id="DejaVuSans-121"/>
      </defs>
      <g transform="translate(73.836234 139.376562)rotate(-90)scale(0.06 -0.06)">
       <use xlink:href="#DejaVuSans-83"/>
       <use x="63.476562" xlink:href="#DejaVuSans-121"/>
       <use x="122.65625" xlink:href="#DejaVuSans-109"/>
       <use x="220.068359" xlink:href="#DejaVuSans-97"/>
       <use x="281.347656" xlink:href="#DejaVuSans-110"/>
       <use x="344.726562" xlink:href="#DejaVuSans-116"/>
       <use x="383.935547" xlink:href="#DejaVuSans-101"/>
       <use x="445.458984" xlink:href="#DejaVuSans-99"/>
      </g>
     </g>
    </g>
    <g id="xtick_8">
     <g id="text_8">
      <!-- Cisco -->
      <defs>
       <path d="M 64.40625 67.28125 
L 64.40625 56.890625 
Q 59.421875 61.53125 53.78125 63.8125 
Q 48.140625 66.109375 41.796875 66.109375 
Q 29.296875 66.109375 22.65625 58.46875 
Q 16.015625 50.828125 16.015625 36.375 
Q 16.015625 21.96875 22.65625 14.328125 
Q 29.296875 6.6875 41.796875 6.6875 
Q 48.140625 6.6875 53.78125 8.984375 
Q 59.421875 11.28125 64.40625 15.921875 
L 64.40625 5.609375 
Q 59.234375 2.09375 53.4375 0.328125 
Q 47.65625 -1.421875 41.21875 -1.421875 
Q 24.65625 -1.421875 15.125 8.703125 
Q 5.609375 18.84375 5.609375 36.375 
Q 5.609375 53.953125 15.125 64.078125 
Q 24.65625 74.21875 41.21875 74.21875 
Q 47.75 74.21875 53.53125 72.484375 
Q 59.328125 70.75 64.40625 67.28125 
z
" id="DejaVuSans-67"/>
      </defs>
      <g transform="translate(79.755846 125.301875)rotate(-90)scale(0.06 -0.06)">
       <use xlink:href="#DejaVuSans-67"/>
       <use x="69.824219" xlink:href="#DejaVuSans-105"/>
       <use x="97.607422" xlink:href="#DejaVuSans-115"/>
       <use x="149.707031" xlink:href="#DejaVuSans-99"/>
       <use x="204.6875" xlink:href="#DejaVuSans-111"/>
      </g>
     </g>
    </g>
    <g id="xtick_9">
     <g id="text_9">
      <!-- Microsoft -->
      <g transform="translate(85.675459 136.65125)rotate(-90)scale(0.06 -0.06)">
       <use xlink:href="#DejaVuSans-77"/>
       <use x="86.279297" xlink:href="#DejaVuSans-105"/>
       <use x="114.0625" xlink:href="#DejaVuSans-99"/>
       <use x="169.042969" xlink:href="#DejaVuSans-114"/>
       <use x="207.90625" xlink:href="#DejaVuSans-111"/>
       <use x="269.087891" xlink:href="#DejaVuSans-115"/>
       <use x="321.1875" xlink:href="#DejaVuSans-111"/>
       <use x="382.369141" xlink:href="#DejaVuSans-102"/>
       <use x="415.824219" xlink:href="#DejaVuSans-116"/>
      </g>
     </g>
    </g>
    <g id="xtick_10">
     <g id="text_10">
      <!-- Yahoo -->
      <defs>
       <path d="M -0.203125 72.90625 
L 10.40625 72.90625 
L 30.609375 42.921875 
L 50.6875 72.90625 
L 61.28125 72.90625 
L 35.5 34.71875 
L 35.5 0 
L 25.59375 0 
L 25.59375 34.71875 
z
" id="DejaVuSans-89"/>
       <path d="M 54.890625 33.015625 
L 54.890625 0 
L 45.90625 0 
L 45.90625 32.71875 
Q 45.90625 40.484375 42.875 44.328125 
Q 39.84375 48.1875 33.796875 48.1875 
Q 26.515625 48.1875 22.3125 43.546875 
Q 18.109375 38.921875 18.109375 30.90625 
L 18.109375 0 
L 9.078125 0 
L 9.078125 75.984375 
L 18.109375 75.984375 
L 18.109375 46.1875 
Q 21.34375 51.125 25.703125 53.5625 
Q 30.078125 56 35.796875 56 
Q 45.21875 56 50.046875 50.171875 
Q 54.890625 44.34375 54.890625 33.015625 
z
" id="DejaVuSans-104"/>
      </defs>
      <g transform="translate(91.595072 127.010937)rotate(-90)scale(0.06 -0.06)">
       <use xlink:href="#DejaVuSans-89"/>
       <use x="47.333984" xlink:href="#DejaVuSans-97"/>
       <use x="108.613281" xlink:href="#DejaVuSans-104"/>
       <use x="171.992188" xlink:href="#DejaVuSans-111"/>
       <use x="233.173828" xlink:href="#DejaVuSans-111"/>
      </g>
     </g>
    </g>
    <g id="xtick_11">
     <g id="text_11">
      <!-- Amazon -->
      <defs>
       <path d="M 5.515625 54.6875 
L 48.1875 54.6875 
L 48.1875 46.484375 
L 14.40625 7.171875 
L 48.1875 7.171875 
L 48.1875 0 
L 4.296875 0 
L 4.296875 8.203125 
L 38.09375 47.515625 
L 5.515625 47.515625 
z
" id="DejaVuSans-122"/>
      </defs>
      <g transform="translate(97.514685 133.597812)rotate(-90)scale(0.06 -0.06)">
       <use xlink:href="#DejaVuSans-65"/>
       <use x="68.408203" xlink:href="#DejaVuSans-109"/>
       <use x="165.820312" xlink:href="#DejaVuSans-97"/>
       <use x="227.099609" xlink:href="#DejaVuSans-122"/>
       <use x="279.589844" xlink:href="#DejaVuSans-111"/>
       <use x="340.771484" xlink:href="#DejaVuSans-110"/>
      </g>
     </g>
    </g>
    <g id="xtick_12">
     <g id="text_12">
      <!-- Google/Alphabet -->
      <defs>
       <path d="M 59.515625 10.40625 
L 59.515625 29.984375 
L 43.40625 29.984375 
L 43.40625 38.09375 
L 69.28125 38.09375 
L 69.28125 6.78125 
Q 63.578125 2.734375 56.6875 0.65625 
Q 49.8125 -1.421875 42 -1.421875 
Q 24.90625 -1.421875 15.25 8.5625 
Q 5.609375 18.5625 5.609375 36.375 
Q 5.609375 54.25 15.25 64.234375 
Q 24.90625 74.21875 42 74.21875 
Q 49.125 74.21875 55.546875 72.453125 
Q 61.96875 70.703125 67.390625 67.28125 
L 67.390625 56.78125 
Q 61.921875 61.421875 55.765625 63.765625 
Q 49.609375 66.109375 42.828125 66.109375 
Q 29.4375 66.109375 22.71875 58.640625 
Q 16.015625 51.171875 16.015625 36.375 
Q 16.015625 21.625 22.71875 14.15625 
Q 29.4375 6.6875 42.828125 6.6875 
Q 48.046875 6.6875 52.140625 7.59375 
Q 56.25 8.5 59.515625 10.40625 
z
" id="DejaVuSans-71"/>
       <path d="M 25.390625 72.90625 
L 33.6875 72.90625 
L 8.296875 -9.28125 
L 0 -9.28125 
z
" id="DejaVuSans-47"/>
       <path d="M 48.6875 27.296875 
Q 48.6875 37.203125 44.609375 42.84375 
Q 40.53125 48.484375 33.40625 48.484375 
Q 26.265625 48.484375 22.1875 42.84375 
Q 18.109375 37.203125 18.109375 27.296875 
Q 18.109375 17.390625 22.1875 11.75 
Q 26.265625 6.109375 33.40625 6.109375 
Q 40.53125 6.109375 44.609375 11.75 
Q 48.6875 17.390625 48.6875 27.296875 
z
M 18.109375 46.390625 
Q 20.953125 51.265625 25.265625 53.625 
Q 29.59375 56 35.59375 56 
Q 45.5625 56 51.78125 48.09375 
Q 58.015625 40.1875 58.015625 27.296875 
Q 58.015625 14.40625 51.78125 6.484375 
Q 45.5625 -1.421875 35.59375 -1.421875 
Q 29.59375 -1.421875 25.265625 0.953125 
Q 20.953125 3.328125 18.109375 8.203125 
L 18.109375 0 
L 9.078125 0 
L 9.078125 75.984375 
L 18.109375 75.984375 
z
" id="DejaVuSans-98"/>
      </defs>
      <g transform="translate(103.434298 159.442812)rotate(-90)scale(0.06 -0.06)">
       <use xlink:href="#DejaVuSans-71"/>
       <use x="77.490234" xlink:href="#DejaVuSans-111"/>
       <use x="138.671875" xlink:href="#DejaVuSans-111"/>
       <use x="199.853516" xlink:href="#DejaVuSans-103"/>
       <use x="263.330078" xlink:href="#DejaVuSans-108"/>
       <use x="291.113281" xlink:href="#DejaVuSans-101"/>
       <use x="352.636719" xlink:href="#DejaVuSans-47"/>
       <use x="386.328125" xlink:href="#DejaVuSans-65"/>
       <use x="454.736328" xlink:href="#DejaVuSans-108"/>
       <use x="482.519531" xlink:href="#DejaVuSans-112"/>
       <use x="545.996094" xlink:href="#DejaVuSans-104"/>
       <use x="609.375" xlink:href="#DejaVuSans-97"/>
       <use x="670.654297" xlink:href="#DejaVuSans-98"/>
       <use x="734.130859" xlink:href="#DejaVuSans-101"/>
       <use x="795.654297" xlink:href="#DejaVuSans-116"/>
      </g>
     </g>
    </g>
    <g id="xtick_13">
     <g id="text_13">
      <!-- AIG -->
      <g transform="translate(109.353911 119.872812)rotate(-90)scale(0.06 -0.06)">
       <use xlink:href="#DejaVuSans-65"/>
       <use x="68.408203" xlink:href="#DejaVuSans-73"/>
       <use x="97.900391" xlink:href="#DejaVuSans-71"/>
      </g>
     </g>
    </g>
    <g id="xtick_14">
     <g id="text_14">
      <!-- Valero Energy -->
      <defs>
       <path d="M 28.609375 0 
L 0.78125 72.90625 
L 11.078125 72.90625 
L 34.1875 11.53125 
L 57.328125 72.90625 
L 67.578125 72.90625 
L 39.796875 0 
z
" id="DejaVuSans-86"/>
       <path d="M 9.8125 72.90625 
L 55.90625 72.90625 
L 55.90625 64.59375 
L 19.671875 64.59375 
L 19.671875 43.015625 
L 54.390625 43.015625 
L 54.390625 34.71875 
L 19.671875 34.71875 
L 19.671875 8.296875 
L 56.78125 8.296875 
L 56.78125 0 
L 9.8125 0 
z
" id="DejaVuSans-69"/>
      </defs>
      <g transform="translate(115.273523 150.941562)rotate(-90)scale(0.06 -0.06)">
       <use xlink:href="#DejaVuSans-86"/>
       <use x="60.658203" xlink:href="#DejaVuSans-97"/>
       <use x="121.9375" xlink:href="#DejaVuSans-108"/>
       <use x="149.720703" xlink:href="#DejaVuSans-101"/>
       <use x="211.244141" xlink:href="#DejaVuSans-114"/>
       <use x="250.107422" xlink:href="#DejaVuSans-111"/>
       <use x="311.289062" xlink:href="#DejaVuSans-32"/>
       <use x="343.076172" xlink:href="#DejaVuSans-69"/>
       <use x="406.259766" xlink:href="#DejaVuSans-110"/>
       <use x="469.638672" xlink:href="#DejaVuSans-101"/>
       <use x="531.162109" xlink:href="#DejaVuSans-114"/>
       <use x="570.525391" xlink:href="#DejaVuSans-103"/>
       <use x="634.001953" xlink:href="#DejaVuSans-121"/>
      </g>
     </g>
    </g>
    <g id="xtick_15">
     <g id="text_15">
      <!-- American express -->
      <g transform="translate(121.193136 163.030625)rotate(-90)scale(0.06 -0.06)">
       <use xlink:href="#DejaVuSans-65"/>
       <use x="68.408203" xlink:href="#DejaVuSans-109"/>
       <use x="165.820312" xlink:href="#DejaVuSans-101"/>
       <use x="227.34375" xlink:href="#DejaVuSans-114"/>
       <use x="268.457031" xlink:href="#DejaVuSans-105"/>
       <use x="296.240234" xlink:href="#DejaVuSans-99"/>
       <use x="351.220703" xlink:href="#DejaVuSans-97"/>
       <use x="412.5" xlink:href="#DejaVuSans-110"/>
       <use x="475.878906" xlink:href="#DejaVuSans-32"/>
       <use x="507.666016" xlink:href="#DejaVuSans-101"/>
       <use x="567.439453" xlink:href="#DejaVuSans-120"/>
       <use x="626.619141" xlink:href="#DejaVuSans-112"/>
       <use x="690.095703" xlink:href="#DejaVuSans-114"/>
       <use x="728.958984" xlink:href="#DejaVuSans-101"/>
       <use x="790.482422" xlink:href="#DejaVuSans-115"/>
       <use x="842.582031" xlink:href="#DejaVuSans-115"/>
      </g>
     </g>
    </g>
    <g id="xtick_16">
     <g id="text_16">
      <!-- Goldman Sachs -->
      <g transform="translate(127.112749 156.089375)rotate(-90)scale(0.06 -0.06)">
       <use xlink:href="#DejaVuSans-71"/>
       <use x="77.490234" xlink:href="#DejaVuSans-111"/>
       <use x="138.671875" xlink:href="#DejaVuSans-108"/>
       <use x="166.455078" xlink:href="#DejaVuSans-100"/>
       <use x="229.931641" xlink:href="#DejaVuSans-109"/>
       <use x="327.34375" xlink:href="#DejaVuSans-97"/>
       <use x="388.623047" xlink:href="#DejaVuSans-110"/>
       <use x="452.001953" xlink:href="#DejaVuSans-32"/>
       <use x="483.789062" xlink:href="#DejaVuSans-83"/>
       <use x="547.265625" xlink:href="#DejaVuSans-97"/>
       <use x="608.544922" xlink:href="#DejaVuSans-99"/>
       <use x="663.525391" xlink:href="#DejaVuSans-104"/>
       <use x="726.904297" xlink:href="#DejaVuSans-115"/>
      </g>
     </g>
    </g>
    <g id="xtick_17">
     <g id="text_17">
      <!-- Wells Fargo -->
      <defs>
       <path d="M 3.328125 72.90625 
L 13.28125 72.90625 
L 28.609375 11.28125 
L 43.890625 72.90625 
L 54.984375 72.90625 
L 70.3125 11.28125 
L 85.59375 72.90625 
L 95.609375 72.90625 
L 77.296875 0 
L 64.890625 0 
L 49.515625 63.28125 
L 33.984375 0 
L 21.578125 0 
z
" id="DejaVuSans-87"/>
       <path d="M 9.8125 72.90625 
L 51.703125 72.90625 
L 51.703125 64.59375 
L 19.671875 64.59375 
L 19.671875 43.109375 
L 48.578125 43.109375 
L 48.578125 34.8125 
L 19.671875 34.8125 
L 19.671875 0 
L 9.8125 0 
z
" id="DejaVuSans-70"/>
      </defs>
      <g transform="translate(133.032362 143.409687)rotate(-90)scale(0.06 -0.06)">
       <use xlink:href="#DejaVuSans-87"/>
       <use x="93.001953" xlink:href="#DejaVuSans-101"/>
       <use x="154.525391" xlink:href="#DejaVuSans-108"/>
       <use x="182.308594" xlink:href="#DejaVuSans-108"/>
       <use x="210.091797" xlink:href="#DejaVuSans-115"/>
       <use x="262.191406" xlink:href="#DejaVuSans-32"/>
       <use x="293.978516" xlink:href="#DejaVuSans-70"/>
       <use x="342.373047" xlink:href="#DejaVuSans-97"/>
       <use x="403.652344" xlink:href="#DejaVuSans-114"/>
       <use x="443.015625" xlink:href="#DejaVuSans-103"/>
       <use x="506.492188" xlink:href="#DejaVuSans-111"/>
      </g>
     </g>
    </g>
    <g id="xtick_18">
     <g id="text_18">
      <!-- Bank of America -->
      <defs>
       <path d="M 19.671875 34.8125 
L 19.671875 8.109375 
L 35.5 8.109375 
Q 43.453125 8.109375 47.28125 11.40625 
Q 51.125 14.703125 51.125 21.484375 
Q 51.125 28.328125 47.28125 31.5625 
Q 43.453125 34.8125 35.5 34.8125 
z
M 19.671875 64.796875 
L 19.671875 42.828125 
L 34.28125 42.828125 
Q 41.5 42.828125 45.03125 45.53125 
Q 48.578125 48.25 48.578125 53.8125 
Q 48.578125 59.328125 45.03125 62.0625 
Q 41.5 64.796875 34.28125 64.796875 
z
M 9.8125 72.90625 
L 35.015625 72.90625 
Q 46.296875 72.90625 52.390625 68.21875 
Q 58.5 63.53125 58.5 54.890625 
Q 58.5 48.1875 55.375 44.234375 
Q 52.25 40.28125 46.1875 39.3125 
Q 53.46875 37.75 57.5 32.78125 
Q 61.53125 27.828125 61.53125 20.40625 
Q 61.53125 10.640625 54.890625 5.3125 
Q 48.25 0 35.984375 0 
L 9.8125 0 
z
" id="DejaVuSans-66"/>
       <path d="M 9.078125 75.984375 
L 18.109375 75.984375 
L 18.109375 31.109375 
L 44.921875 54.6875 
L 56.390625 54.6875 
L 27.390625 29.109375 
L 57.625 0 
L 45.90625 0 
L 18.109375 26.703125 
L 18.109375 0 
L 9.078125 0 
z
" id="DejaVuSans-107"/>
      </defs>
      <g transform="translate(138.951975 158.766875)rotate(-90)scale(0.06 -0.06)">
       <use xlink:href="#DejaVuSans-66"/>
       <use x="68.603516" xlink:href="#DejaVuSans-97"/>
       <use x="129.882812" xlink:href="#DejaVuSans-110"/>
       <use x="193.261719" xlink:href="#DejaVuSans-107"/>
       <use x="251.171875" xlink:href="#DejaVuSans-32"/>
       <use x="282.958984" xlink:href="#DejaVuSans-111"/>
       <use x="344.140625" xlink:href="#DejaVuSans-102"/>
       <use x="379.345703" xlink:href="#DejaVuSans-32"/>
       <use x="411.132812" xlink:href="#DejaVuSans-65"/>
       <use x="479.541016" xlink:href="#DejaVuSans-109"/>
       <use x="576.953125" xlink:href="#DejaVuSans-101"/>
       <use x="638.476562" xlink:href="#DejaVuSans-114"/>
       <use x="679.589844" xlink:href="#DejaVuSans-105"/>
       <use x="707.373047" xlink:href="#DejaVuSans-99"/>
       <use x="762.353516" xlink:href="#DejaVuSans-97"/>
      </g>
     </g>
    </g>
    <g id="xtick_19">
     <g id="text_19">
      <!-- JPMorgan Chase -->
      <defs>
       <path d="M 9.8125 72.90625 
L 19.671875 72.90625 
L 19.671875 5.078125 
Q 19.671875 -8.109375 14.671875 -14.0625 
Q 9.671875 -20.015625 -1.421875 -20.015625 
L -5.171875 -20.015625 
L -5.171875 -11.71875 
L -2.09375 -11.71875 
Q 4.4375 -11.71875 7.125 -8.046875 
Q 9.8125 -4.390625 9.8125 5.078125 
z
" id="DejaVuSans-74"/>
      </defs>
      <g transform="translate(144.871588 157.62875)rotate(-90)scale(0.06 -0.06)">
       <use xlink:href="#DejaVuSans-74"/>
       <use x="29.492188" xlink:href="#DejaVuSans-80"/>
       <use x="89.794922" xlink:href="#DejaVuSans-77"/>
       <use x="176.074219" xlink:href="#DejaVuSans-111"/>
       <use x="237.255859" xlink:href="#DejaVuSans-114"/>
       <use x="276.619141" xlink:href="#DejaVuSans-103"/>
       <use x="340.095703" xlink:href="#DejaVuSans-97"/>
       <use x="401.375" xlink:href="#DejaVuSans-110"/>
       <use x="464.753906" xlink:href="#DejaVuSans-32"/>
       <use x="496.541016" xlink:href="#DejaVuSans-67"/>
       <use x="566.365234" xlink:href="#DejaVuSans-104"/>
       <use x="629.744141" xlink:href="#DejaVuSans-97"/>
       <use x="691.023438" xlink:href="#DejaVuSans-115"/>
       <use x="743.123047" xlink:href="#DejaVuSans-101"/>
      </g>
     </g>
    </g>
    <g id="xtick_20">
     <g id="text_20">
      <!-- Ford -->
      <g transform="translate(150.791201 122.424687)rotate(-90)scale(0.06 -0.06)">
       <use xlink:href="#DejaVuSans-70"/>
       <use x="53.894531" xlink:href="#DejaVuSans-111"/>
       <use x="115.076172" xlink:href="#DejaVuSans-114"/>
       <use x="154.439453" xlink:href="#DejaVuSans-100"/>
      </g>
     </g>
    </g>
    <g id="xtick_21">
     <g id="text_21">
      <!-- Canon -->
      <g transform="translate(156.710813 128.492187)rotate(-90)scale(0.06 -0.06)">
       <use xlink:href="#DejaVuSans-67"/>
       <use x="69.824219" xlink:href="#DejaVuSans-97"/>
       <use x="131.103516" xlink:href="#DejaVuSans-110"/>
       <use x="194.482422" xlink:href="#DejaVuSans-111"/>
       <use x="255.664062" xlink:href="#DejaVuSans-110"/>
      </g>
     </g>
    </g>
    <g id="xtick_22">
     <g id="text_22">
      <!-- Sony -->
      <g transform="translate(162.630426 124.183437)rotate(-90)scale(0.06 -0.06)">
       <use xlink:href="#DejaVuSans-83"/>
       <use x="63.476562" xlink:href="#DejaVuSans-111"/>
       <use x="124.658203" xlink:href="#DejaVuSans-110"/>
       <use x="188.037109" xlink:href="#DejaVuSans-121"/>
      </g>
     </g>
    </g>
    <g id="xtick_23">
     <g id="text_23">
      <!-- Mitsubishi -->
      <g transform="translate(168.550039 139.544375)rotate(-90)scale(0.06 -0.06)">
       <use xlink:href="#DejaVuSans-77"/>
       <use x="86.279297" xlink:href="#DejaVuSans-105"/>
       <use x="114.0625" xlink:href="#DejaVuSans-116"/>
       <use x="153.271484" xlink:href="#DejaVuSans-115"/>
       <use x="205.371094" xlink:href="#DejaVuSans-117"/>
       <use x="268.75" xlink:href="#DejaVuSans-98"/>
       <use x="332.226562" xlink:href="#DejaVuSans-105"/>
       <use x="360.009766" xlink:href="#DejaVuSans-115"/>
       <use x="412.109375" xlink:href="#DejaVuSans-104"/>
       <use x="475.488281" xlink:href="#DejaVuSans-105"/>
      </g>
     </g>
    </g>
    <g id="xtick_24">
     <g id="text_24">
      <!-- Honda -->
      <g transform="translate(174.469652 128.82125)rotate(-90)scale(0.06 -0.06)">
       <use xlink:href="#DejaVuSans-72"/>
       <use x="75.195312" xlink:href="#DejaVuSans-111"/>
       <use x="136.376953" xlink:href="#DejaVuSans-110"/>
       <use x="199.755859" xlink:href="#DejaVuSans-100"/>
       <use x="263.232422" xlink:href="#DejaVuSans-97"/>
      </g>
     </g>
    </g>
    <g id="xtick_25">
     <g id="text_25">
      <!-- Toyota -->
      <g transform="translate(180.389265 128.916875)rotate(-90)scale(0.06 -0.06)">
       <use xlink:href="#DejaVuSans-84"/>
       <use x="44.083984" xlink:href="#DejaVuSans-111"/>
       <use x="105.265625" xlink:href="#DejaVuSans-121"/>
       <use x="164.445312" xlink:href="#DejaVuSans-111"/>
       <use x="225.626953" xlink:href="#DejaVuSans-116"/>
       <use x="264.835938" xlink:href="#DejaVuSans-97"/>
      </g>
     </g>
    </g>
    <g id="xtick_26">
     <g id="text_26">
      <!-- Navistar -->
      <defs>
       <path d="M 9.8125 72.90625 
L 23.09375 72.90625 
L 55.421875 11.921875 
L 55.421875 72.90625 
L 64.984375 72.90625 
L 64.984375 0 
L 51.703125 0 
L 19.390625 60.984375 
L 19.390625 0 
L 9.8125 0 
z
" id="DejaVuSans-78"/>
       <path d="M 2.984375 54.6875 
L 12.5 54.6875 
L 29.59375 8.796875 
L 46.6875 54.6875 
L 56.203125 54.6875 
L 35.6875 0 
L 23.484375 0 
z
" id="DejaVuSans-118"/>
      </defs>
      <g transform="translate(186.308878 134.354375)rotate(-90)scale(0.06 -0.06)">
       <use xlink:href="#DejaVuSans-78"/>
       <use x="74.804688" xlink:href="#DejaVuSans-97"/>
       <use x="136.083984" xlink:href="#DejaVuSans-118"/>
       <use x="195.263672" xlink:href="#DejaVuSans-105"/>
       <use x="223.046875" xlink:href="#DejaVuSans-115"/>
       <use x="275.146484" xlink:href="#DejaVuSans-116"/>
       <use x="314.355469" xlink:href="#DejaVuSans-97"/>
       <use x="375.634766" xlink:href="#DejaVuSans-114"/>
      </g>
     </g>
    </g>
    <g id="xtick_27">
     <g id="text_27">
      <!-- IBM -->
      <g transform="translate(192.22849 120.412812)rotate(-90)scale(0.06 -0.06)">
       <use xlink:href="#DejaVuSans-73"/>
       <use x="29.492188" xlink:href="#DejaVuSans-66"/>
       <use x="98.095703" xlink:href="#DejaVuSans-77"/>
      </g>
     </g>
    </g>
    <g id="xtick_28">
     <g id="text_28">
      <!-- General Electrics -->
      <g transform="translate(198.148103 160.26125)rotate(-90)scale(0.06 -0.06)">
       <use xlink:href="#DejaVuSans-71"/>
       <use x="77.490234" xlink:href="#DejaVuSans-101"/>
       <use x="139.013672" xlink:href="#DejaVuSans-110"/>
       <use x="202.392578" xlink:href="#DejaVuSans-101"/>
       <use x="263.916016" xlink:href="#DejaVuSans-114"/>
       <use x="305.029297" xlink:href="#DejaVuSans-97"/>
       <use x="366.308594" xlink:href="#DejaVuSans-108"/>
       <use x="394.091797" xlink:href="#DejaVuSans-32"/>
       <use x="425.878906" xlink:href="#DejaVuSans-69"/>
       <use x="489.0625" xlink:href="#DejaVuSans-108"/>
       <use x="516.845703" xlink:href="#DejaVuSans-101"/>
       <use x="578.369141" xlink:href="#DejaVuSans-99"/>
       <use x="633.349609" xlink:href="#DejaVuSans-116"/>
       <use x="672.558594" xlink:href="#DejaVuSans-114"/>
       <use x="713.671875" xlink:href="#DejaVuSans-105"/>
       <use x="741.455078" xlink:href="#DejaVuSans-99"/>
       <use x="796.435547" xlink:href="#DejaVuSans-115"/>
      </g>
     </g>
    </g>
    <g id="xtick_29">
     <g id="text_29">
      <!-- 3M -->
      <defs>
       <path d="M 40.578125 39.3125 
Q 47.65625 37.796875 51.625 33 
Q 55.609375 28.21875 55.609375 21.1875 
Q 55.609375 10.40625 48.1875 4.484375 
Q 40.765625 -1.421875 27.09375 -1.421875 
Q 22.515625 -1.421875 17.65625 -0.515625 
Q 12.796875 0.390625 7.625 2.203125 
L 7.625 11.71875 
Q 11.71875 9.328125 16.59375 8.109375 
Q 21.484375 6.890625 26.8125 6.890625 
Q 36.078125 6.890625 40.9375 10.546875 
Q 45.796875 14.203125 45.796875 21.1875 
Q 45.796875 27.640625 41.28125 31.265625 
Q 36.765625 34.90625 28.71875 34.90625 
L 20.21875 34.90625 
L 20.21875 43.015625 
L 29.109375 43.015625 
Q 36.375 43.015625 40.234375 45.921875 
Q 44.09375 48.828125 44.09375 54.296875 
Q 44.09375 59.90625 40.109375 62.90625 
Q 36.140625 65.921875 28.71875 65.921875 
Q 24.65625 65.921875 20.015625 65.03125 
Q 15.375 64.15625 9.8125 62.3125 
L 9.8125 71.09375 
Q 15.4375 72.65625 20.34375 73.4375 
Q 25.25 74.21875 29.59375 74.21875 
Q 40.828125 74.21875 47.359375 69.109375 
Q 53.90625 64.015625 53.90625 55.328125 
Q 53.90625 49.265625 50.4375 45.09375 
Q 46.96875 40.921875 40.578125 39.3125 
z
" id="DejaVuSans-51"/>
      </defs>
      <g transform="translate(204.067716 118.34375)rotate(-90)scale(0.06 -0.06)">
       <use xlink:href="#DejaVuSans-51"/>
       <use x="63.623047" xlink:href="#DejaVuSans-77"/>
      </g>
     </g>
    </g>
    <g id="xtick_30">
     <g id="text_30">
      <!-- Caterpillar -->
      <g transform="translate(209.987329 140.679687)rotate(-90)scale(0.06 -0.06)">
       <use xlink:href="#DejaVuSans-67"/>
       <use x="69.824219" xlink:href="#DejaVuSans-97"/>
       <use x="131.103516" xlink:href="#DejaVuSans-116"/>
       <use x="170.3125" xlink:href="#DejaVuSans-101"/>
       <use x="231.835938" xlink:href="#DejaVuSans-114"/>
       <use x="272.949219" xlink:href="#DejaVuSans-112"/>
       <use x="336.425781" xlink:href="#DejaVuSans-105"/>
       <use x="364.208984" xlink:href="#DejaVuSans-108"/>
       <use x="391.992188" xlink:href="#DejaVuSans-108"/>
       <use x="419.775391" xlink:href="#DejaVuSans-97"/>
       <use x="481.054688" xlink:href="#DejaVuSans-114"/>
      </g>
     </g>
    </g>
    <g id="xtick_31">
     <g id="text_31">
      <!-- DuPont de Nemours -->
      <g transform="translate(215.906942 169.40375)rotate(-90)scale(0.06 -0.06)">
       <use xlink:href="#DejaVuSans-68"/>
       <use x="77.001953" xlink:href="#DejaVuSans-117"/>
       <use x="140.380859" xlink:href="#DejaVuSans-80"/>
       <use x="197.058594" xlink:href="#DejaVuSans-111"/>
       <use x="258.240234" xlink:href="#DejaVuSans-110"/>
       <use x="321.619141" xlink:href="#DejaVuSans-116"/>
       <use x="360.828125" xlink:href="#DejaVuSans-32"/>
       <use x="392.615234" xlink:href="#DejaVuSans-100"/>
       <use x="456.091797" xlink:href="#DejaVuSans-101"/>
       <use x="517.615234" xlink:href="#DejaVuSans-32"/>
       <use x="549.402344" xlink:href="#DejaVuSans-78"/>
       <use x="624.207031" xlink:href="#DejaVuSans-101"/>
       <use x="685.730469" xlink:href="#DejaVuSans-109"/>
       <use x="783.142578" xlink:href="#DejaVuSans-111"/>
       <use x="844.324219" xlink:href="#DejaVuSans-117"/>
       <use x="907.703125" xlink:href="#DejaVuSans-114"/>
       <use x="948.816406" xlink:href="#DejaVuSans-115"/>
      </g>
     </g>
    </g>
    <g id="xtick_32">
     <g id="text_32">
      <!-- Xerox -->
      <defs>
       <path d="M 6.296875 72.90625 
L 16.890625 72.90625 
L 35.015625 45.796875 
L 53.21875 72.90625 
L 63.8125 72.90625 
L 40.375 37.890625 
L 65.375 0 
L 54.78125 0 
L 34.28125 31 
L 13.625 0 
L 2.984375 0 
L 29 38.921875 
z
" id="DejaVuSans-88"/>
      </defs>
      <g transform="translate(221.826555 126.247812)rotate(-90)scale(0.06 -0.06)">
       <use xlink:href="#DejaVuSans-88"/>
       <use x="64.005859" xlink:href="#DejaVuSans-101"/>
       <use x="125.529297" xlink:href="#DejaVuSans-114"/>
       <use x="164.392578" xlink:href="#DejaVuSans-111"/>
       <use x="222.449219" xlink:href="#DejaVuSans-120"/>
      </g>
     </g>
    </g>
    <g id="xtick_33">
     <g id="text_33">
      <!-- Schlumberger -->
      <g transform="translate(227.746168 151.40375)rotate(-90)scale(0.06 -0.06)">
       <use xlink:href="#DejaVuSans-83"/>
       <use x="63.476562" xlink:href="#DejaVuSans-99"/>
       <use x="118.457031" xlink:href="#DejaVuSans-104"/>
       <use x="181.835938" xlink:href="#DejaVuSans-108"/>
       <use x="209.619141" xlink:href="#DejaVuSans-117"/>
       <use x="272.998047" xlink:href="#DejaVuSans-109"/>
       <use x="370.410156" xlink:href="#DejaVuSans-98"/>
       <use x="433.886719" xlink:href="#DejaVuSans-101"/>
       <use x="495.410156" xlink:href="#DejaVuSans-114"/>
       <use x="534.773438" xlink:href="#DejaVuSans-103"/>
       <use x="598.25" xlink:href="#DejaVuSans-101"/>
       <use x="659.773438" xlink:href="#DejaVuSans-114"/>
      </g>
     </g>
    </g>
    <g id="xtick_34">
     <g id="text_34">
      <!-- ConocoPhillips -->
      <g transform="translate(233.66578 152.676875)rotate(-90)scale(0.06 -0.06)">
       <use xlink:href="#DejaVuSans-67"/>
       <use x="69.824219" xlink:href="#DejaVuSans-111"/>
       <use x="131.005859" xlink:href="#DejaVuSans-110"/>
       <use x="194.384766" xlink:href="#DejaVuSans-111"/>
       <use x="255.566406" xlink:href="#DejaVuSans-99"/>
       <use x="310.546875" xlink:href="#DejaVuSans-111"/>
       <use x="371.728516" xlink:href="#DejaVuSans-80"/>
       <use x="432.03125" xlink:href="#DejaVuSans-104"/>
       <use x="495.410156" xlink:href="#DejaVuSans-105"/>
       <use x="523.193359" xlink:href="#DejaVuSans-108"/>
       <use x="550.976562" xlink:href="#DejaVuSans-108"/>
       <use x="578.759766" xlink:href="#DejaVuSans-105"/>
       <use x="606.542969" xlink:href="#DejaVuSans-112"/>
       <use x="670.019531" xlink:href="#DejaVuSans-115"/>
      </g>
     </g>
    </g>
    <g id="xtick_35">
     <g id="text_35">
      <!-- Chevron -->
      <g transform="translate(239.585393 134.39)rotate(-90)scale(0.06 -0.06)">
       <use xlink:href="#DejaVuSans-67"/>
       <use x="69.824219" xlink:href="#DejaVuSans-104"/>
       <use x="133.203125" xlink:href="#DejaVuSans-101"/>
       <use x="194.726562" xlink:href="#DejaVuSans-118"/>
       <use x="253.90625" xlink:href="#DejaVuSans-114"/>
       <use x="292.769531" xlink:href="#DejaVuSans-111"/>
       <use x="353.951172" xlink:href="#DejaVuSans-110"/>
      </g>
     </g>
    </g>
    <g id="xtick_36">
     <g id="text_36">
      <!-- Exxon -->
      <g transform="translate(245.505006 127.529375)rotate(-90)scale(0.06 -0.06)">
       <use xlink:href="#DejaVuSans-69"/>
       <use x="63.183594" xlink:href="#DejaVuSans-120"/>
       <use x="122.363281" xlink:href="#DejaVuSans-120"/>
       <use x="178.417969" xlink:href="#DejaVuSans-111"/>
       <use x="239.599609" xlink:href="#DejaVuSans-110"/>
      </g>
     </g>
    </g>
    <g id="xtick_37">
     <g id="text_37">
      <!-- Home Depot -->
      <g transform="translate(251.424619 147.120312)rotate(-90)scale(0.06 -0.06)">
       <use xlink:href="#DejaVuSans-72"/>
       <use x="75.195312" xlink:href="#DejaVuSans-111"/>
       <use x="136.376953" xlink:href="#DejaVuSans-109"/>
       <use x="233.789062" xlink:href="#DejaVuSans-101"/>
       <use x="295.3125" xlink:href="#DejaVuSans-32"/>
       <use x="327.099609" xlink:href="#DejaVuSans-68"/>
       <use x="404.101562" xlink:href="#DejaVuSans-101"/>
       <use x="465.625" xlink:href="#DejaVuSans-112"/>
       <use x="529.101562" xlink:href="#DejaVuSans-111"/>
       <use x="590.283203" xlink:href="#DejaVuSans-116"/>
      </g>
     </g>
    </g>
    <g id="xtick_38">
     <g id="text_38">
      <!-- Wal-Mart -->
      <defs>
       <path d="M 4.890625 31.390625 
L 31.203125 31.390625 
L 31.203125 23.390625 
L 4.890625 23.390625 
z
" id="DejaVuSans-45"/>
      </defs>
      <g transform="translate(257.344232 136.080312)rotate(-90)scale(0.06 -0.06)">
       <use xlink:href="#DejaVuSans-87"/>
       <use x="92.501953" xlink:href="#DejaVuSans-97"/>
       <use x="153.78125" xlink:href="#DejaVuSans-108"/>
       <use x="181.564453" xlink:href="#DejaVuSans-45"/>
       <use x="217.648438" xlink:href="#DejaVuSans-77"/>
       <use x="303.927734" xlink:href="#DejaVuSans-97"/>
       <use x="365.207031" xlink:href="#DejaVuSans-114"/>
       <use x="406.320312" xlink:href="#DejaVuSans-116"/>
      </g>
     </g>
    </g>
    <g id="xtick_39">
     <g id="text_39">
      <!-- Philip Morris -->
      <g transform="translate(263.263845 145.955)rotate(-90)scale(0.06 -0.06)">
       <use xlink:href="#DejaVuSans-80"/>
       <use x="60.302734" xlink:href="#DejaVuSans-104"/>
       <use x="123.681641" xlink:href="#DejaVuSans-105"/>
       <use x="151.464844" xlink:href="#DejaVuSans-108"/>
       <use x="179.248047" xlink:href="#DejaVuSans-105"/>
       <use x="207.03125" xlink:href="#DejaVuSans-112"/>
       <use x="270.507812" xlink:href="#DejaVuSans-32"/>
       <use x="302.294922" xlink:href="#DejaVuSans-77"/>
       <use x="388.574219" xlink:href="#DejaVuSans-111"/>
       <use x="449.755859" xlink:href="#DejaVuSans-114"/>
       <use x="489.119141" xlink:href="#DejaVuSans-114"/>
       <use x="530.232422" xlink:href="#DejaVuSans-105"/>
       <use x="558.015625" xlink:href="#DejaVuSans-115"/>
      </g>
     </g>
    </g>
    <g id="xtick_40">
     <g id="text_40">
      <!-- Coca Cola -->
      <g transform="translate(269.183457 139.297812)rotate(-90)scale(0.06 -0.06)">
       <use xlink:href="#DejaVuSans-67"/>
       <use x="69.824219" xlink:href="#DejaVuSans-111"/>
       <use x="131.005859" xlink:href="#DejaVuSans-99"/>
       <use x="185.986328" xlink:href="#DejaVuSans-97"/>
       <use x="247.265625" xlink:href="#DejaVuSans-32"/>
       <use x="279.052734" xlink:href="#DejaVuSans-67"/>
       <use x="348.876953" xlink:href="#DejaVuSans-111"/>
       <use x="410.058594" xlink:href="#DejaVuSans-108"/>
       <use x="437.841797" xlink:href="#DejaVuSans-97"/>
      </g>
     </g>
    </g>
    <g id="xtick_41">
     <g id="text_41">
      <!-- Pepsi -->
      <g transform="translate(275.10307 125.043125)rotate(-90)scale(0.06 -0.06)">
       <use xlink:href="#DejaVuSans-80"/>
       <use x="56.677734" xlink:href="#DejaVuSans-101"/>
       <use x="118.201172" xlink:href="#DejaVuSans-112"/>
       <use x="181.677734" xlink:href="#DejaVuSans-115"/>
       <use x="233.777344" xlink:href="#DejaVuSans-105"/>
      </g>
     </g>
    </g>
    <g id="xtick_42">
     <g id="text_42">
      <!-- Kimberly-Clark -->
      <defs>
       <path d="M 9.8125 72.90625 
L 19.671875 72.90625 
L 19.671875 42.09375 
L 52.390625 72.90625 
L 65.09375 72.90625 
L 28.90625 38.921875 
L 67.671875 0 
L 54.6875 0 
L 19.671875 35.109375 
L 19.671875 0 
L 9.8125 0 
z
" id="DejaVuSans-75"/>
      </defs>
      <g transform="translate(281.022683 153.515)rotate(-90)scale(0.06 -0.06)">
       <use xlink:href="#DejaVuSans-75"/>
       <use x="65.576172" xlink:href="#DejaVuSans-105"/>
       <use x="93.359375" xlink:href="#DejaVuSans-109"/>
       <use x="190.771484" xlink:href="#DejaVuSans-98"/>
       <use x="254.248047" xlink:href="#DejaVuSans-101"/>
       <use x="315.771484" xlink:href="#DejaVuSans-114"/>
       <use x="356.884766" xlink:href="#DejaVuSans-108"/>
       <use x="384.667969" xlink:href="#DejaVuSans-121"/>
       <use x="442.097656" xlink:href="#DejaVuSans-45"/>
       <use x="478.181641" xlink:href="#DejaVuSans-67"/>
       <use x="548.005859" xlink:href="#DejaVuSans-108"/>
       <use x="575.789062" xlink:href="#DejaVuSans-97"/>
       <use x="637.068359" xlink:href="#DejaVuSans-114"/>
       <use x="678.181641" xlink:href="#DejaVuSans-107"/>
      </g>
     </g>
    </g>
    <g id="xtick_43">
     <g id="text_43">
      <!-- Colgate-Palmolive -->
      <g transform="translate(286.942296 163.355937)rotate(-90)scale(0.06 -0.06)">
       <use xlink:href="#DejaVuSans-67"/>
       <use x="69.824219" xlink:href="#DejaVuSans-111"/>
       <use x="131.005859" xlink:href="#DejaVuSans-108"/>
       <use x="158.789062" xlink:href="#DejaVuSans-103"/>
       <use x="222.265625" xlink:href="#DejaVuSans-97"/>
       <use x="283.544922" xlink:href="#DejaVuSans-116"/>
       <use x="322.753906" xlink:href="#DejaVuSans-101"/>
       <use x="384.277344" xlink:href="#DejaVuSans-45"/>
       <use x="420.361328" xlink:href="#DejaVuSans-80"/>
       <use x="476.164062" xlink:href="#DejaVuSans-97"/>
       <use x="537.443359" xlink:href="#DejaVuSans-108"/>
       <use x="565.226562" xlink:href="#DejaVuSans-109"/>
       <use x="662.638672" xlink:href="#DejaVuSans-111"/>
       <use x="723.820312" xlink:href="#DejaVuSans-108"/>
       <use x="751.603516" xlink:href="#DejaVuSans-105"/>
       <use x="779.386719" xlink:href="#DejaVuSans-118"/>
       <use x="838.566406" xlink:href="#DejaVuSans-101"/>
      </g>
     </g>
    </g>
    <g id="xtick_44">
     <g id="text_44">
      <!-- Procter Gamble -->
      <g transform="translate(292.861909 155.919687)rotate(-90)scale(0.06 -0.06)">
       <use xlink:href="#DejaVuSans-80"/>
       <use x="58.552734" xlink:href="#DejaVuSans-114"/>
       <use x="97.416016" xlink:href="#DejaVuSans-111"/>
       <use x="158.597656" xlink:href="#DejaVuSans-99"/>
       <use x="213.578125" xlink:href="#DejaVuSans-116"/>
       <use x="252.787109" xlink:href="#DejaVuSans-101"/>
       <use x="314.310547" xlink:href="#DejaVuSans-114"/>
       <use x="355.423828" xlink:href="#DejaVuSans-32"/>
       <use x="387.210938" xlink:href="#DejaVuSans-71"/>
       <use x="464.701172" xlink:href="#DejaVuSans-97"/>
       <use x="525.980469" xlink:href="#DejaVuSans-109"/>
       <use x="623.392578" xlink:href="#DejaVuSans-98"/>
       <use x="686.869141" xlink:href="#DejaVuSans-108"/>
       <use x="714.652344" xlink:href="#DejaVuSans-101"/>
      </g>
     </g>
    </g>
    <g id="xtick_45">
     <g id="text_45">
      <!-- Walgreen -->
      <g transform="translate(298.781522 137.57)rotate(-90)scale(0.06 -0.06)">
       <use xlink:href="#DejaVuSans-87"/>
       <use x="92.501953" xlink:href="#DejaVuSans-97"/>
       <use x="153.78125" xlink:href="#DejaVuSans-108"/>
       <use x="181.564453" xlink:href="#DejaVuSans-103"/>
       <use x="245.041016" xlink:href="#DejaVuSans-114"/>
       <use x="283.904297" xlink:href="#DejaVuSans-101"/>
       <use x="345.427734" xlink:href="#DejaVuSans-101"/>
       <use x="406.951172" xlink:href="#DejaVuSans-110"/>
      </g>
     </g>
    </g>
    <g id="xtick_46">
     <g id="text_46">
      <!-- Boeing -->
      <g transform="translate(304.701135 130.1075)rotate(-90)scale(0.06 -0.06)">
       <use xlink:href="#DejaVuSans-66"/>
       <use x="68.603516" xlink:href="#DejaVuSans-111"/>
       <use x="129.785156" xlink:href="#DejaVuSans-101"/>
       <use x="191.308594" xlink:href="#DejaVuSans-105"/>
       <use x="219.091797" xlink:href="#DejaVuSans-110"/>
       <use x="282.470703" xlink:href="#DejaVuSans-103"/>
      </g>
     </g>
    </g>
    <g id="xtick_47">
     <g id="text_47">
      <!-- Lookheed Martin -->
      <defs>
       <path d="M 9.8125 72.90625 
L 19.671875 72.90625 
L 19.671875 8.296875 
L 55.171875 8.296875 
L 55.171875 0 
L 9.8125 0 
z
" id="DejaVuSans-76"/>
      </defs>
      <g transform="translate(310.620747 159.448437)rotate(-90)scale(0.06 -0.06)">
       <use xlink:href="#DejaVuSans-76"/>
       <use x="53.962891" xlink:href="#DejaVuSans-111"/>
       <use x="115.144531" xlink:href="#DejaVuSans-111"/>
       <use x="176.326172" xlink:href="#DejaVuSans-107"/>
       <use x="234.236328" xlink:href="#DejaVuSans-104"/>
       <use x="297.615234" xlink:href="#DejaVuSans-101"/>
       <use x="359.138672" xlink:href="#DejaVuSans-101"/>
       <use x="420.662109" xlink:href="#DejaVuSans-100"/>
       <use x="484.138672" xlink:href="#DejaVuSans-32"/>
       <use x="515.925781" xlink:href="#DejaVuSans-77"/>
       <use x="602.205078" xlink:href="#DejaVuSans-97"/>
       <use x="663.484375" xlink:href="#DejaVuSans-114"/>
       <use x="704.597656" xlink:href="#DejaVuSans-116"/>
       <use x="743.806641" xlink:href="#DejaVuSans-105"/>
       <use x="771.589844" xlink:href="#DejaVuSans-110"/>
      </g>
     </g>
    </g>
    <g id="xtick_48">
     <g id="text_48">
      <!-- Northrop Grumman -->
      <g transform="translate(316.54036 167.935625)rotate(-90)scale(0.06 -0.06)">
       <use xlink:href="#DejaVuSans-78"/>
       <use x="74.804688" xlink:href="#DejaVuSans-111"/>
       <use x="135.986328" xlink:href="#DejaVuSans-114"/>
       <use x="177.099609" xlink:href="#DejaVuSans-116"/>
       <use x="216.308594" xlink:href="#DejaVuSans-104"/>
       <use x="279.6875" xlink:href="#DejaVuSans-114"/>
       <use x="318.550781" xlink:href="#DejaVuSans-111"/>
       <use x="379.732422" xlink:href="#DejaVuSans-112"/>
       <use x="443.208984" xlink:href="#DejaVuSans-32"/>
       <use x="474.996094" xlink:href="#DejaVuSans-71"/>
       <use x="552.486328" xlink:href="#DejaVuSans-114"/>
       <use x="593.599609" xlink:href="#DejaVuSans-117"/>
       <use x="656.978516" xlink:href="#DejaVuSans-109"/>
       <use x="754.390625" xlink:href="#DejaVuSans-109"/>
       <use x="851.802734" xlink:href="#DejaVuSans-97"/>
       <use x="913.082031" xlink:href="#DejaVuSans-110"/>
      </g>
     </g>
    </g>
    <g id="xtick_49">
     <g id="text_49">
      <!-- Johnson &amp; Johnson -->
      <defs>
       <path d="M 24.3125 39.203125 
Q 19.875 35.25 17.796875 31.3125 
Q 15.71875 27.390625 15.71875 23.09375 
Q 15.71875 15.96875 20.890625 11.234375 
Q 26.078125 6.5 33.890625 6.5 
Q 38.53125 6.5 42.578125 8.03125 
Q 46.625 9.578125 50.203125 12.703125 
z
M 31.203125 44.671875 
L 56 19.28125 
Q 58.890625 23.640625 60.5 28.59375 
Q 62.109375 33.546875 62.40625 39.109375 
L 71.484375 39.109375 
Q 70.90625 32.671875 68.359375 26.359375 
Q 65.828125 20.0625 61.28125 13.921875 
L 74.90625 0 
L 62.59375 0 
L 55.609375 7.171875 
Q 50.53125 2.828125 44.96875 0.703125 
Q 39.40625 -1.421875 33.015625 -1.421875 
Q 21.234375 -1.421875 13.765625 5.296875 
Q 6.296875 12.015625 6.296875 22.515625 
Q 6.296875 28.765625 9.5625 34.25 
Q 12.84375 39.75 19.390625 44.578125 
Q 17.046875 47.65625 15.8125 50.703125 
Q 14.59375 53.765625 14.59375 56.6875 
Q 14.59375 64.59375 20.015625 69.40625 
Q 25.4375 74.21875 34.421875 74.21875 
Q 38.484375 74.21875 42.5 73.34375 
Q 46.53125 72.46875 50.6875 70.703125 
L 50.6875 61.8125 
Q 46.4375 64.109375 42.578125 65.296875 
Q 38.71875 66.5 35.40625 66.5 
Q 30.28125 66.5 27.078125 63.78125 
Q 23.875 61.078125 23.875 56.78125 
Q 23.875 54.296875 25.3125 51.78125 
Q 26.765625 49.265625 31.203125 44.671875 
z
" id="DejaVuSans-38"/>
      </defs>
      <g transform="translate(322.459973 165.133437)rotate(-90)scale(0.06 -0.06)">
       <use xlink:href="#DejaVuSans-74"/>
       <use x="29.492188" xlink:href="#DejaVuSans-111"/>
       <use x="90.673828" xlink:href="#DejaVuSans-104"/>
       <use x="154.052734" xlink:href="#DejaVuSans-110"/>
       <use x="217.431641" xlink:href="#DejaVuSans-115"/>
       <use x="269.53125" xlink:href="#DejaVuSans-111"/>
       <use x="330.712891" xlink:href="#DejaVuSans-110"/>
       <use x="394.091797" xlink:href="#DejaVuSans-32"/>
       <use x="425.878906" xlink:href="#DejaVuSans-38"/>
       <use x="503.857422" xlink:href="#DejaVuSans-32"/>
       <use x="535.644531" xlink:href="#DejaVuSans-74"/>
       <use x="565.136719" xlink:href="#DejaVuSans-111"/>
       <use x="626.318359" xlink:href="#DejaVuSans-104"/>
       <use x="689.697266" xlink:href="#DejaVuSans-110"/>
       <use x="753.076172" xlink:href="#DejaVuSans-115"/>
       <use x="805.175781" xlink:href="#DejaVuSans-111"/>
       <use x="866.357422" xlink:href="#DejaVuSans-110"/>
      </g>
     </g>
    </g>
    <g id="xtick_50">
     <g id="text_50">
      <!-- Pfizer -->
      <g transform="translate(328.379586 126.05375)rotate(-90)scale(0.06 -0.06)">
       <use xlink:href="#DejaVuSans-80"/>
       <use x="60.302734" xlink:href="#DejaVuSans-102"/>
       <use x="95.507812" xlink:href="#DejaVuSans-105"/>
       <use x="123.291016" xlink:href="#DejaVuSans-122"/>
       <use x="175.78125" xlink:href="#DejaVuSans-101"/>
       <use x="237.304688" xlink:href="#DejaVuSans-114"/>
      </g>
     </g>
    </g>
    <g id="xtick_51">
     <g id="text_51">
      <!-- SAP -->
      <g transform="translate(334.299199 120.993125)rotate(-90)scale(0.06 -0.06)">
       <use xlink:href="#DejaVuSans-83"/>
       <use x="65.351562" xlink:href="#DejaVuSans-65"/>
       <use x="133.759766" xlink:href="#DejaVuSans-80"/>
      </g>
     </g>
    </g>
    <g id="xtick_52">
     <g id="text_52">
      <!-- Sanofi-Aventis -->
      <g transform="translate(340.218812 152.06)rotate(-90)scale(0.06 -0.06)">
       <use xlink:href="#DejaVuSans-83"/>
       <use x="63.476562" xlink:href="#DejaVuSans-97"/>
       <use x="124.755859" xlink:href="#DejaVuSans-110"/>
       <use x="188.134766" xlink:href="#DejaVuSans-111"/>
       <use x="249.316406" xlink:href="#DejaVuSans-102"/>
       <use x="284.521484" xlink:href="#DejaVuSans-105"/>
       <use x="312.304688" xlink:href="#DejaVuSans-45"/>
       <use x="346.138672" xlink:href="#DejaVuSans-65"/>
       <use x="408.671875" xlink:href="#DejaVuSans-118"/>
       <use x="467.851562" xlink:href="#DejaVuSans-101"/>
       <use x="529.375" xlink:href="#DejaVuSans-110"/>
       <use x="592.753906" xlink:href="#DejaVuSans-116"/>
       <use x="631.962891" xlink:href="#DejaVuSans-105"/>
       <use x="659.746094" xlink:href="#DejaVuSans-115"/>
      </g>
     </g>
    </g>
    <g id="xtick_53">
     <g id="text_53">
      <!-- Unilever -->
      <defs>
       <path d="M 8.6875 72.90625 
L 18.609375 72.90625 
L 18.609375 28.609375 
Q 18.609375 16.890625 22.84375 11.734375 
Q 27.09375 6.59375 36.625 6.59375 
Q 46.09375 6.59375 50.34375 11.734375 
Q 54.59375 16.890625 54.59375 28.609375 
L 54.59375 72.90625 
L 64.5 72.90625 
L 64.5 27.390625 
Q 64.5 13.140625 57.4375 5.859375 
Q 50.390625 -1.421875 36.625 -1.421875 
Q 22.796875 -1.421875 15.734375 5.859375 
Q 8.6875 13.140625 8.6875 27.390625 
z
" id="DejaVuSans-85"/>
      </defs>
      <g transform="translate(346.138424 134.278437)rotate(-90)scale(0.06 -0.06)">
       <use xlink:href="#DejaVuSans-85"/>
       <use x="73.193359" xlink:href="#DejaVuSans-110"/>
       <use x="136.572266" xlink:href="#DejaVuSans-105"/>
       <use x="164.355469" xlink:href="#DejaVuSans-108"/>
       <use x="192.138672" xlink:href="#DejaVuSans-101"/>
       <use x="253.662109" xlink:href="#DejaVuSans-118"/>
       <use x="312.841797" xlink:href="#DejaVuSans-101"/>
       <use x="374.365234" xlink:href="#DejaVuSans-114"/>
      </g>
     </g>
    </g>
    <g id="xtick_54">
     <g id="text_54">
      <!-- Royal Dutch Shell -->
      <defs>
       <path d="M 44.390625 34.1875 
Q 47.5625 33.109375 50.5625 29.59375 
Q 53.5625 26.078125 56.59375 19.921875 
L 66.609375 0 
L 56 0 
L 46.6875 18.703125 
Q 43.0625 26.03125 39.671875 28.421875 
Q 36.28125 30.8125 30.421875 30.8125 
L 19.671875 30.8125 
L 19.671875 0 
L 9.8125 0 
L 9.8125 72.90625 
L 32.078125 72.90625 
Q 44.578125 72.90625 50.734375 67.671875 
Q 56.890625 62.453125 56.890625 51.90625 
Q 56.890625 45.015625 53.6875 40.46875 
Q 50.484375 35.9375 44.390625 34.1875 
z
M 19.671875 64.796875 
L 19.671875 38.921875 
L 32.078125 38.921875 
Q 39.203125 38.921875 42.84375 42.21875 
Q 46.484375 45.515625 46.484375 51.90625 
Q 46.484375 58.296875 42.84375 61.546875 
Q 39.203125 64.796875 32.078125 64.796875 
z
" id="DejaVuSans-82"/>
      </defs>
      <g transform="translate(352.058037 162.141875)rotate(-90)scale(0.06 -0.06)">
       <use xlink:href="#DejaVuSans-82"/>
       <use x="64.982422" xlink:href="#DejaVuSans-111"/>
       <use x="126.164062" xlink:href="#DejaVuSans-121"/>
       <use x="185.34375" xlink:href="#DejaVuSans-97"/>
       <use x="246.623047" xlink:href="#DejaVuSans-108"/>
       <use x="274.40625" xlink:href="#DejaVuSans-32"/>
       <use x="306.193359" xlink:href="#DejaVuSans-68"/>
       <use x="383.195312" xlink:href="#DejaVuSans-117"/>
       <use x="446.574219" xlink:href="#DejaVuSans-116"/>
       <use x="485.783203" xlink:href="#DejaVuSans-99"/>
       <use x="540.763672" xlink:href="#DejaVuSans-104"/>
       <use x="604.142578" xlink:href="#DejaVuSans-32"/>
       <use x="635.929688" xlink:href="#DejaVuSans-83"/>
       <use x="699.40625" xlink:href="#DejaVuSans-104"/>
       <use x="762.785156" xlink:href="#DejaVuSans-101"/>
       <use x="824.308594" xlink:href="#DejaVuSans-108"/>
       <use x="852.091797" xlink:href="#DejaVuSans-108"/>
      </g>
     </g>
    </g>
    <g id="xtick_55">
     <g id="text_55">
      <!-- Total -->
      <g transform="translate(357.97765 123.36125)rotate(-90)scale(0.06 -0.06)">
       <use xlink:href="#DejaVuSans-84"/>
       <use x="44.083984" xlink:href="#DejaVuSans-111"/>
       <use x="105.265625" xlink:href="#DejaVuSans-116"/>
       <use x="144.474609" xlink:href="#DejaVuSans-97"/>
       <use x="205.753906" xlink:href="#DejaVuSans-108"/>
      </g>
     </g>
    </g>
    <g id="xtick_56">
     <g id="text_56">
      <!-- British American Tobacco -->
      <g transform="translate(363.897263 184.984062)rotate(-90)scale(0.06 -0.06)">
       <use xlink:href="#DejaVuSans-66"/>
       <use x="68.603516" xlink:href="#DejaVuSans-114"/>
       <use x="109.716797" xlink:href="#DejaVuSans-105"/>
       <use x="137.5" xlink:href="#DejaVuSans-116"/>
       <use x="176.708984" xlink:href="#DejaVuSans-105"/>
       <use x="204.492188" xlink:href="#DejaVuSans-115"/>
       <use x="256.591797" xlink:href="#DejaVuSans-104"/>
       <use x="319.970703" xlink:href="#DejaVuSans-32"/>
       <use x="351.757812" xlink:href="#DejaVuSans-65"/>
       <use x="420.166016" xlink:href="#DejaVuSans-109"/>
       <use x="517.578125" xlink:href="#DejaVuSans-101"/>
       <use x="579.101562" xlink:href="#DejaVuSans-114"/>
       <use x="620.214844" xlink:href="#DejaVuSans-105"/>
       <use x="647.998047" xlink:href="#DejaVuSans-99"/>
       <use x="702.978516" xlink:href="#DejaVuSans-97"/>
       <use x="764.257812" xlink:href="#DejaVuSans-110"/>
       <use x="827.636719" xlink:href="#DejaVuSans-32"/>
       <use x="859.423828" xlink:href="#DejaVuSans-84"/>
       <use x="903.507812" xlink:href="#DejaVuSans-111"/>
       <use x="964.689453" xlink:href="#DejaVuSans-98"/>
       <use x="1028.166016" xlink:href="#DejaVuSans-97"/>
       <use x="1089.445312" xlink:href="#DejaVuSans-99"/>
       <use x="1144.425781" xlink:href="#DejaVuSans-99"/>
       <use x="1199.40625" xlink:href="#DejaVuSans-111"/>
      </g>
     </g>
    </g>
    <g id="xtick_57">
     <g id="text_57">
      <!-- GlaxoSmithKline -->
      <g transform="translate(369.816876 158.615)rotate(-90)scale(0.06 -0.06)">
       <use xlink:href="#DejaVuSans-71"/>
       <use x="77.490234" xlink:href="#DejaVuSans-108"/>
       <use x="105.273438" xlink:href="#DejaVuSans-97"/>
       <use x="166.552734" xlink:href="#DejaVuSans-120"/>
       <use x="222.607422" xlink:href="#DejaVuSans-111"/>
       <use x="283.789062" xlink:href="#DejaVuSans-83"/>
       <use x="347.265625" xlink:href="#DejaVuSans-109"/>
       <use x="444.677734" xlink:href="#DejaVuSans-105"/>
       <use x="472.460938" xlink:href="#DejaVuSans-116"/>
       <use x="511.669922" xlink:href="#DejaVuSans-104"/>
       <use x="575.048828" xlink:href="#DejaVuSans-75"/>
       <use x="640.625" xlink:href="#DejaVuSans-108"/>
       <use x="668.408203" xlink:href="#DejaVuSans-105"/>
       <use x="696.191406" xlink:href="#DejaVuSans-110"/>
       <use x="759.570312" xlink:href="#DejaVuSans-101"/>
      </g>
     </g>
    </g>
    <g id="xtick_58">
     <g id="text_58">
      <!-- Novartis -->
      <g transform="translate(375.736489 134.34875)rotate(-90)scale(0.06 -0.06)">
       <use xlink:href="#DejaVuSans-78"/>
       <use x="74.804688" xlink:href="#DejaVuSans-111"/>
       <use x="135.986328" xlink:href="#DejaVuSans-118"/>
       <use x="195.166016" xlink:href="#DejaVuSans-97"/>
       <use x="256.445312" xlink:href="#DejaVuSans-114"/>
       <use x="297.558594" xlink:href="#DejaVuSans-116"/>
       <use x="336.767578" xlink:href="#DejaVuSans-105"/>
       <use x="364.550781" xlink:href="#DejaVuSans-115"/>
      </g>
     </g>
    </g>
    <g id="xtick_59">
     <g id="text_59">
      <!-- MasterCard -->
      <g transform="translate(381.656102 143.876562)rotate(-90)scale(0.06 -0.06)">
       <use xlink:href="#DejaVuSans-77"/>
       <use x="86.279297" xlink:href="#DejaVuSans-97"/>
       <use x="147.558594" xlink:href="#DejaVuSans-115"/>
       <use x="199.658203" xlink:href="#DejaVuSans-116"/>
       <use x="238.867188" xlink:href="#DejaVuSans-101"/>
       <use x="300.390625" xlink:href="#DejaVuSans-114"/>
       <use x="341.503906" xlink:href="#DejaVuSans-67"/>
       <use x="411.328125" xlink:href="#DejaVuSans-97"/>
       <use x="472.607422" xlink:href="#DejaVuSans-114"/>
       <use x="511.970703" xlink:href="#DejaVuSans-100"/>
      </g>
     </g>
    </g>
    <g id="xtick_60">
     <g id="text_60">
      <!-- McDonalds -->
      <g transform="translate(387.575714 142.1975)rotate(-90)scale(0.06 -0.06)">
       <use xlink:href="#DejaVuSans-77"/>
       <use x="86.279297" xlink:href="#DejaVuSans-99"/>
       <use x="141.259766" xlink:href="#DejaVuSans-68"/>
       <use x="218.261719" xlink:href="#DejaVuSans-111"/>
       <use x="279.443359" xlink:href="#DejaVuSans-110"/>
       <use x="342.822266" xlink:href="#DejaVuSans-97"/>
       <use x="404.101562" xlink:href="#DejaVuSans-108"/>
       <use x="431.884766" xlink:href="#DejaVuSans-100"/>
       <use x="495.361328" xlink:href="#DejaVuSans-115"/>
      </g>
     </g>
    </g>
   </g>
   <g id="matplotlib.axis_2">
    <g id="ytick_1">
     <g id="line2d_1">
      <defs>
       <path d="M 0 0 
L -3.5 0 
" id="mceb98d3bfe" style="stroke:#000000;stroke-width:0.8;"/>
      </defs>
      <g>
       <use style="stroke:#000000;stroke-width:0.8;" x="33.703125" xlink:href="#mceb98d3bfe" y="102.349375"/>
      </g>
     </g>
     <g id="text_61">
      <!-- 0.0 -->
      <defs>
       <path d="M 31.78125 66.40625 
Q 24.171875 66.40625 20.328125 58.90625 
Q 16.5 51.421875 16.5 36.375 
Q 16.5 21.390625 20.328125 13.890625 
Q 24.171875 6.390625 31.78125 6.390625 
Q 39.453125 6.390625 43.28125 13.890625 
Q 47.125 21.390625 47.125 36.375 
Q 47.125 51.421875 43.28125 58.90625 
Q 39.453125 66.40625 31.78125 66.40625 
z
M 31.78125 74.21875 
Q 44.046875 74.21875 50.515625 64.515625 
Q 56.984375 54.828125 56.984375 36.375 
Q 56.984375 17.96875 50.515625 8.265625 
Q 44.046875 -1.421875 31.78125 -1.421875 
Q 19.53125 -1.421875 13.0625 8.265625 
Q 6.59375 17.96875 6.59375 36.375 
Q 6.59375 54.828125 13.0625 64.515625 
Q 19.53125 74.21875 31.78125 74.21875 
z
" id="DejaVuSans-48"/>
       <path d="M 10.6875 12.40625 
L 21 12.40625 
L 21 0 
L 10.6875 0 
z
" id="DejaVuSans-46"/>
      </defs>
      <g transform="translate(10.8 106.148594)scale(0.1 -0.1)">
       <use xlink:href="#DejaVuSans-48"/>
       <use x="63.623047" xlink:href="#DejaVuSans-46"/>
       <use x="95.410156" xlink:href="#DejaVuSans-48"/>
      </g>
     </g>
    </g>
    <g id="ytick_2">
     <g id="line2d_2">
      <g>
       <use style="stroke:#000000;stroke-width:0.8;" x="33.703125" xlink:href="#mceb98d3bfe" y="69.227304"/>
      </g>
     </g>
     <g id="text_62">
      <!-- 0.5 -->
      <defs>
       <path d="M 10.796875 72.90625 
L 49.515625 72.90625 
L 49.515625 64.59375 
L 19.828125 64.59375 
L 19.828125 46.734375 
Q 21.96875 47.46875 24.109375 47.828125 
Q 26.265625 48.1875 28.421875 48.1875 
Q 40.625 48.1875 47.75 41.5 
Q 54.890625 34.8125 54.890625 23.390625 
Q 54.890625 11.625 47.5625 5.09375 
Q 40.234375 -1.421875 26.90625 -1.421875 
Q 22.3125 -1.421875 17.546875 -0.640625 
Q 12.796875 0.140625 7.71875 1.703125 
L 7.71875 11.625 
Q 12.109375 9.234375 16.796875 8.0625 
Q 21.484375 6.890625 26.703125 6.890625 
Q 35.15625 6.890625 40.078125 11.328125 
Q 45.015625 15.765625 45.015625 23.390625 
Q 45.015625 31 40.078125 35.4375 
Q 35.15625 39.890625 26.703125 39.890625 
Q 22.75 39.890625 18.8125 39.015625 
Q 14.890625 38.140625 10.796875 36.28125 
z
" id="DejaVuSans-53"/>
      </defs>
      <g transform="translate(10.8 73.026523)scale(0.1 -0.1)">
       <use xlink:href="#DejaVuSans-48"/>
       <use x="63.623047" xlink:href="#DejaVuSans-46"/>
       <use x="95.410156" xlink:href="#DejaVuSans-53"/>
      </g>
     </g>
    </g>
    <g id="ytick_3">
     <g id="line2d_3">
      <g>
       <use style="stroke:#000000;stroke-width:0.8;" x="33.703125" xlink:href="#mceb98d3bfe" y="36.105233"/>
      </g>
     </g>
     <g id="text_63">
      <!-- 1.0 -->
      <defs>
       <path d="M 12.40625 8.296875 
L 28.515625 8.296875 
L 28.515625 63.921875 
L 10.984375 60.40625 
L 10.984375 69.390625 
L 28.421875 72.90625 
L 38.28125 72.90625 
L 38.28125 8.296875 
L 54.390625 8.296875 
L 54.390625 0 
L 12.40625 0 
z
" id="DejaVuSans-49"/>
      </defs>
      <g transform="translate(10.8 39.904451)scale(0.1 -0.1)">
       <use xlink:href="#DejaVuSans-49"/>
       <use x="63.623047" xlink:href="#DejaVuSans-46"/>
       <use x="95.410156" xlink:href="#DejaVuSans-48"/>
      </g>
     </g>
    </g>
   </g>
   <g id="LineCollection_1">
    <path clip-path="url(#pd1a6b8a6b3)" d="M 48.502157 102.349375 
L 48.502157 44.27876 
L 54.42177 44.27876 
L 54.42177 102.349375 
" style="fill:none;stroke:#008000;stroke-width:1.5;"/>
    <path clip-path="url(#pd1a6b8a6b3)" d="M 308.965122 102.349375 
L 308.965122 49.083032 
L 314.884735 49.083032 
L 314.884735 102.349375 
" style="fill:none;stroke:#008000;stroke-width:1.5;"/>
   </g>
   <g id="LineCollection_2">
    <path clip-path="url(#pd1a6b8a6b3)" d="M 137.29635 102.349375 
L 137.29635 56.395046 
L 143.215963 56.395046 
L 143.215963 102.349375 
" style="fill:none;stroke:#ff0000;stroke-width:1.5;"/>
    <path clip-path="url(#pd1a6b8a6b3)" d="M 131.376737 102.349375 
L 131.376737 50.031938 
L 140.256156 50.031938 
L 140.256156 56.395046 
" style="fill:none;stroke:#ff0000;stroke-width:1.5;"/>
    <path clip-path="url(#pd1a6b8a6b3)" d="M 125.457124 102.349375 
L 125.457124 42.326854 
L 135.816447 42.326854 
L 135.816447 50.031938 
" style="fill:none;stroke:#ff0000;stroke-width:1.5;"/>
    <path clip-path="url(#pd1a6b8a6b3)" d="M 350.402412 102.349375 
L 350.402412 63.596687 
L 356.322025 63.596687 
L 356.322025 102.349375 
" style="fill:none;stroke:#ff0000;stroke-width:1.5;"/>
    <path clip-path="url(#pd1a6b8a6b3)" d="M 344.482799 102.349375 
L 344.482799 50.323308 
L 353.362219 50.323308 
L 353.362219 63.596687 
" style="fill:none;stroke:#ff0000;stroke-width:1.5;"/>
    <path clip-path="url(#pd1a6b8a6b3)" d="M 338.563187 102.349375 
L 338.563187 46.521464 
L 348.922509 46.521464 
L 348.922509 50.323308 
" style="fill:none;stroke:#ff0000;stroke-width:1.5;"/>
    <path clip-path="url(#pd1a6b8a6b3)" d="M 332.643574 102.349375 
L 332.643574 43.949075 
L 343.742848 43.949075 
L 343.742848 46.521464 
" style="fill:none;stroke:#ff0000;stroke-width:1.5;"/>
   </g>
   <g id="LineCollection_3">
    <path clip-path="url(#pd1a6b8a6b3)" d="M 155.055188 102.349375 
L 155.055188 46.001551 
L 160.974801 46.001551 
L 160.974801 102.349375 
" style="fill:none;stroke:#00bfbf;stroke-width:1.5;"/>
    <path clip-path="url(#pd1a6b8a6b3)" d="M 368.161251 102.349375 
L 368.161251 45.729337 
L 374.080864 45.729337 
L 374.080864 102.349375 
" style="fill:none;stroke:#00bfbf;stroke-width:1.5;"/>
    <path clip-path="url(#pd1a6b8a6b3)" d="M 362.241638 102.349375 
L 362.241638 41.594933 
L 371.121057 41.594933 
L 371.121057 45.729337 
" style="fill:none;stroke:#00bfbf;stroke-width:1.5;"/>
   </g>
   <g id="LineCollection_4">
    <path clip-path="url(#pd1a6b8a6b3)" d="M 172.814027 102.349375 
L 172.814027 52.62483 
L 178.73364 52.62483 
L 178.73364 102.349375 
" style="fill:none;stroke:#bf00bf;stroke-width:1.5;"/>
    <path clip-path="url(#pd1a6b8a6b3)" d="M 166.894414 102.349375 
L 166.894414 43.425494 
L 175.773833 43.425494 
L 175.773833 52.62483 
" style="fill:none;stroke:#bf00bf;stroke-width:1.5;"/>
   </g>
   <g id="LineCollection_5">
    <path clip-path="url(#pd1a6b8a6b3)" d="M 208.331704 102.349375 
L 208.331704 45.853769 
L 214.251317 45.853769 
L 214.251317 102.349375 
" style="fill:none;stroke:#bfbf00;stroke-width:1.5;"/>
    <path clip-path="url(#pd1a6b8a6b3)" d="M 202.412091 102.349375 
L 202.412091 44.518238 
L 211.29151 44.518238 
L 211.29151 45.853769 
" style="fill:none;stroke:#bfbf00;stroke-width:1.5;"/>
   </g>
   <g id="LineCollection_6">
    <path clip-path="url(#pd1a6b8a6b3)" d="M 237.929768 102.349375 
L 237.929768 57.730568 
L 243.849381 57.730568 
L 243.849381 102.349375 
" style="fill:none;stroke:#000000;stroke-width:1.5;"/>
    <path clip-path="url(#pd1a6b8a6b3)" d="M 232.010155 102.349375 
L 232.010155 49.459455 
L 240.889575 49.459455 
L 240.889575 57.730568 
" style="fill:none;stroke:#000000;stroke-width:1.5;"/>
    <path clip-path="url(#pd1a6b8a6b3)" d="M 226.090543 102.349375 
L 226.090543 44.089491 
L 236.449865 44.089491 
L 236.449865 49.459455 
" style="fill:none;stroke:#000000;stroke-width:1.5;"/>
   </g>
   <g id="LineCollection_7">
    <path clip-path="url(#pd1a6b8a6b3)" d="M 42.582544 102.349375 
L 42.582544 35.757476 
L 51.461964 35.757476 
L 51.461964 44.27876 
" style="fill:none;stroke:#0000ff;stroke-width:1.5;"/>
    <path clip-path="url(#pd1a6b8a6b3)" d="M 60.341383 102.349375 
L 60.341383 33.416682 
L 66.260996 33.416682 
L 66.260996 102.349375 
" style="fill:none;stroke:#0000ff;stroke-width:1.5;"/>
    <path clip-path="url(#pd1a6b8a6b3)" d="M 78.100221 102.349375 
L 78.100221 37.717332 
L 84.019834 37.717332 
L 84.019834 102.349375 
" style="fill:none;stroke:#0000ff;stroke-width:1.5;"/>
    <path clip-path="url(#pd1a6b8a6b3)" d="M 72.180609 102.349375 
L 72.180609 33.16709 
L 81.060028 33.16709 
L 81.060028 37.717332 
" style="fill:none;stroke:#0000ff;stroke-width:1.5;"/>
    <path clip-path="url(#pd1a6b8a6b3)" d="M 63.301189 33.416682 
L 63.301189 28.899812 
L 76.620318 28.899812 
L 76.620318 33.16709 
" style="fill:none;stroke:#0000ff;stroke-width:1.5;"/>
    <path clip-path="url(#pd1a6b8a6b3)" d="M 47.022254 35.757476 
L 47.022254 25.906287 
L 69.960754 25.906287 
L 69.960754 28.899812 
" style="fill:none;stroke:#0000ff;stroke-width:1.5;"/>
    <path clip-path="url(#pd1a6b8a6b3)" d="M 36.662931 102.349375 
L 36.662931 23.161644 
L 58.491504 23.161644 
L 58.491504 25.906287 
" style="fill:none;stroke:#0000ff;stroke-width:1.5;"/>
    <path clip-path="url(#pd1a6b8a6b3)" d="M 95.85906 102.349375 
L 95.85906 31.633002 
L 101.778673 31.633002 
L 101.778673 102.349375 
" style="fill:none;stroke:#0000ff;stroke-width:1.5;"/>
    <path clip-path="url(#pd1a6b8a6b3)" d="M 89.939447 102.349375 
L 89.939447 25.366916 
L 98.818866 25.366916 
L 98.818866 31.633002 
" style="fill:none;stroke:#0000ff;stroke-width:1.5;"/>
    <path clip-path="url(#pd1a6b8a6b3)" d="M 119.537511 102.349375 
L 119.537511 36.246392 
L 130.636785 36.246392 
L 130.636785 42.326854 
" style="fill:none;stroke:#0000ff;stroke-width:1.5;"/>
    <path clip-path="url(#pd1a6b8a6b3)" d="M 158.014995 46.001551 
L 158.014995 38.650228 
L 171.334124 38.650228 
L 171.334124 43.425494 
" style="fill:none;stroke:#0000ff;stroke-width:1.5;"/>
    <path clip-path="url(#pd1a6b8a6b3)" d="M 149.135576 102.349375 
L 149.135576 33.888723 
L 164.674559 33.888723 
L 164.674559 38.650228 
" style="fill:none;stroke:#0000ff;stroke-width:1.5;"/>
    <path clip-path="url(#pd1a6b8a6b3)" d="M 125.087148 36.246392 
L 125.087148 32.550841 
L 156.905067 32.550841 
L 156.905067 33.888723 
" style="fill:none;stroke:#0000ff;stroke-width:1.5;"/>
    <path clip-path="url(#pd1a6b8a6b3)" d="M 196.492478 102.349375 
L 196.492478 38.78449 
L 206.851801 38.78449 
L 206.851801 44.518238 
" style="fill:none;stroke:#0000ff;stroke-width:1.5;"/>
    <path clip-path="url(#pd1a6b8a6b3)" d="M 190.572865 102.349375 
L 190.572865 36.548142 
L 201.67214 36.548142 
L 201.67214 38.78449 
" style="fill:none;stroke:#0000ff;stroke-width:1.5;"/>
    <path clip-path="url(#pd1a6b8a6b3)" d="M 220.17093 102.349375 
L 220.17093 33.383431 
L 231.270204 33.383431 
L 231.270204 44.089491 
" style="fill:none;stroke:#0000ff;stroke-width:1.5;"/>
    <path clip-path="url(#pd1a6b8a6b3)" d="M 196.122502 36.548142 
L 196.122502 32.251572 
L 225.720567 32.251572 
L 225.720567 33.383431 
" style="fill:none;stroke:#0000ff;stroke-width:1.5;"/>
    <path clip-path="url(#pd1a6b8a6b3)" d="M 184.653253 102.349375 
L 184.653253 28.447627 
L 210.921535 28.447627 
L 210.921535 32.251572 
" style="fill:none;stroke:#0000ff;stroke-width:1.5;"/>
    <path clip-path="url(#pd1a6b8a6b3)" d="M 140.996108 32.550841 
L 140.996108 25.111381 
L 197.787394 25.111381 
L 197.787394 28.447627 
" style="fill:none;stroke:#0000ff;stroke-width:1.5;"/>
    <path clip-path="url(#pd1a6b8a6b3)" d="M 113.617898 102.349375 
L 113.617898 24.839518 
L 169.391751 24.839518 
L 169.391751 25.111381 
" style="fill:none;stroke:#0000ff;stroke-width:1.5;"/>
    <path clip-path="url(#pd1a6b8a6b3)" d="M 107.698286 102.349375 
L 107.698286 23.457176 
L 141.504825 23.457176 
L 141.504825 24.839518 
" style="fill:none;stroke:#0000ff;stroke-width:1.5;"/>
    <path clip-path="url(#pd1a6b8a6b3)" d="M 94.379157 25.366916 
L 94.379157 20.437788 
L 124.601555 20.437788 
L 124.601555 23.457176 
" style="fill:none;stroke:#0000ff;stroke-width:1.5;"/>
    <path clip-path="url(#pd1a6b8a6b3)" d="M 47.577218 23.161644 
L 47.577218 19.760255 
L 109.490356 19.760255 
L 109.490356 20.437788 
" style="fill:none;stroke:#0000ff;stroke-width:1.5;"/>
    <path clip-path="url(#pd1a6b8a6b3)" d="M 249.768994 102.349375 
L 249.768994 27.990972 
L 255.688607 27.990972 
L 255.688607 102.349375 
" style="fill:none;stroke:#0000ff;stroke-width:1.5;"/>
    <path clip-path="url(#pd1a6b8a6b3)" d="M 267.527832 102.349375 
L 267.527832 39.308693 
L 273.447445 39.308693 
L 273.447445 102.349375 
" style="fill:none;stroke:#0000ff;stroke-width:1.5;"/>
    <path clip-path="url(#pd1a6b8a6b3)" d="M 285.286671 102.349375 
L 285.286671 40.982539 
L 291.206284 40.982539 
L 291.206284 102.349375 
" style="fill:none;stroke:#0000ff;stroke-width:1.5;"/>
    <path clip-path="url(#pd1a6b8a6b3)" d="M 279.367058 102.349375 
L 279.367058 37.602217 
L 288.246477 37.602217 
L 288.246477 40.982539 
" style="fill:none;stroke:#0000ff;stroke-width:1.5;"/>
    <path clip-path="url(#pd1a6b8a6b3)" d="M 270.487639 39.308693 
L 270.487639 30.635772 
L 283.806768 30.635772 
L 283.806768 37.602217 
" style="fill:none;stroke:#0000ff;stroke-width:1.5;"/>
    <path clip-path="url(#pd1a6b8a6b3)" d="M 261.60822 102.349375 
L 261.60822 26.590009 
L 277.147203 26.590009 
L 277.147203 30.635772 
" style="fill:none;stroke:#0000ff;stroke-width:1.5;"/>
    <path clip-path="url(#pd1a6b8a6b3)" d="M 252.7288 27.990972 
L 252.7288 25.391225 
L 269.377711 25.391225 
L 269.377711 26.590009 
" style="fill:none;stroke:#0000ff;stroke-width:1.5;"/>
    <path clip-path="url(#pd1a6b8a6b3)" d="M 303.04551 102.349375 
L 303.04551 39.222243 
L 311.924929 39.222243 
L 311.924929 49.083032 
" style="fill:none;stroke:#0000ff;stroke-width:1.5;"/>
    <path clip-path="url(#pd1a6b8a6b3)" d="M 297.125897 102.349375 
L 297.125897 26.951538 
L 307.485219 26.951538 
L 307.485219 39.222243 
" style="fill:none;stroke:#0000ff;stroke-width:1.5;"/>
    <path clip-path="url(#pd1a6b8a6b3)" d="M 320.804348 102.349375 
L 320.804348 36.011786 
L 326.723961 36.011786 
L 326.723961 102.349375 
" style="fill:none;stroke:#0000ff;stroke-width:1.5;"/>
    <path clip-path="url(#pd1a6b8a6b3)" d="M 338.193211 43.949075 
L 338.193211 35.356146 
L 366.681348 35.356146 
L 366.681348 41.594933 
" style="fill:none;stroke:#0000ff;stroke-width:1.5;"/>
    <path clip-path="url(#pd1a6b8a6b3)" d="M 323.764155 36.011786 
L 323.764155 30.119618 
L 352.437279 30.119618 
L 352.437279 35.356146 
" style="fill:none;stroke:#0000ff;stroke-width:1.5;"/>
    <path clip-path="url(#pd1a6b8a6b3)" d="M 380.000477 102.349375 
L 380.000477 28.711401 
L 385.920089 28.711401 
L 385.920089 102.349375 
" style="fill:none;stroke:#0000ff;stroke-width:1.5;"/>
    <path clip-path="url(#pd1a6b8a6b3)" d="M 338.100717 30.119618 
L 338.100717 25.072626 
L 382.960283 25.072626 
L 382.960283 28.711401 
" style="fill:none;stroke:#0000ff;stroke-width:1.5;"/>
    <path clip-path="url(#pd1a6b8a6b3)" d="M 302.305558 26.951538 
L 302.305558 22.631959 
L 360.5305 22.631959 
L 360.5305 25.072626 
" style="fill:none;stroke:#0000ff;stroke-width:1.5;"/>
    <path clip-path="url(#pd1a6b8a6b3)" d="M 261.053256 25.391225 
L 261.053256 18.714337 
L 331.418029 18.714337 
L 331.418029 22.631959 
" style="fill:none;stroke:#0000ff;stroke-width:1.5;"/>
    <path clip-path="url(#pd1a6b8a6b3)" d="M 78.533787 19.760255 
L 78.533787 15.159494 
L 296.235642 15.159494 
L 296.235642 18.714337 
" style="fill:none;stroke:#0000ff;stroke-width:1.5;"/>
   </g>
   <g id="patch_3">
    <path d="M 33.703125 102.349375 
L 33.703125 10.8 
" style="fill:none;stroke:#000000;stroke-linecap:square;stroke-linejoin:miter;stroke-width:0.8;"/>
   </g>
   <g id="patch_4">
    <path d="M 388.879896 102.349375 
L 388.879896 10.8 
" style="fill:none;stroke:#000000;stroke-linecap:square;stroke-linejoin:miter;stroke-width:0.8;"/>
   </g>
   <g id="patch_5">
    <path d="M 33.703125 102.349375 
L 388.879896 102.349375 
" style="fill:none;stroke:#000000;stroke-linecap:square;stroke-linejoin:miter;stroke-width:0.8;"/>
   </g>
   <g id="patch_6">
    <path d="M 33.703125 10.8 
L 388.879896 10.8 
" style="fill:none;stroke:#000000;stroke-linecap:square;stroke-linejoin:miter;stroke-width:0.8;"/>
   </g>
  </g>
 </g>
 <defs>
  <clipPath id="pd1a6b8a6b3">
   <rect height="91.549375" width="355.176771" x="33.703125" y="10.8"/>
  </clipPath>
 </defs>
</svg>
